<?xml version="1.0" encoding="UTF-8"?><svg enable-background="new 0 0 250 250" height="250px" viewBox="0 0 250 250" width="250px" x="0px" xml:space="preserve" xmlns="http://www.w3.org/2000/svg" xmlns:xlink="http://www.w3.org/1999/xlink" y="0px"><defs><symbol id="3259bf0ea" overflow="visible"><path d="M61.766-120.266H76.53v41.594c3.063-3.5 6.426-6.11 10.094-7.828 3.664-1.727 7.602-2.594 11.813-2.594 10.332 0 18.519 4.309 24.562 12.922 6.05 8.617 9.078 19.461 9.078 32.531 0 13.618-3.258 24.621-9.766 33.016-6.511 8.398-14.605 12.594-24.28 12.594-3.18 0-6.407-.496-9.688-1.485-3.281-.976-7.219-3.656-11.813-8.03V33.39H61.766V-7.547C58.816-4.379 55.55-2 51.969-.407c-3.586 1.583-7.453 2.376-11.61 2.376-9.136 0-17.12-4.004-23.953-12.016C9.57-18.055 6.156-29.53 6.156-44.469c0-12.625 3.086-23.218 9.266-31.781 6.176-8.563 14.488-12.844 24.937-12.844 4.375 0 8.336.867 11.891 2.594 3.563 1.719 6.734 4.328 9.516 7.828zm14.687 77.032c0 13.125 1.8 21.945 5.406 26.453 3.614 4.511 8.13 6.765 13.547 6.765 6.008 0 11.133-2.77 15.375-8.312 4.239-5.55 6.36-14.18 6.36-25.89 0-11.04-1.961-19.27-5.875-24.688-3.907-5.414-8.922-8.125-15.047-8.125-6.563 0-11.5 2.82-14.813 8.453-3.304 5.637-4.953 14.086-4.953 25.344zm-55.281-1.641c0 12.305 2.062 21.164 6.187 26.578 4.125 5.418 9.25 8.125 15.375 8.125 6.407 0 11.192-2.691 14.36-8.078 3.176-5.383 4.765-13.469 4.765-24.25 0-11.477-1.672-20.086-5.015-25.828-3.336-5.75-8.367-8.625-15.094-8.625-6.063 0-11.012 2.808-14.844 8.422-3.824 5.605-5.734 13.492-5.734 23.656zm0 0"/></symbol></defs><use x="55.982" xlink:href="#3259bf0ea" y="169"/></svg>