<?xml version="1.0" encoding="UTF-8"?><svg enable-background="new 0 0 250 250" height="250px" viewBox="0 0 250 250" width="250px" x="0px" xml:space="preserve" xmlns="http://www.w3.org/2000/svg" xmlns:xlink="http://www.w3.org/1999/xlink" y="0px"><defs><symbol id="e962b72da" overflow="visible"><path d="M63.734-87.125v37.656c4.707 0 8.016-.898 9.922-2.703 1.914-1.8 4.707-7.05 8.375-15.75 3.446-8.258 6.535-13.535 9.266-15.828 2.687-2.25 6.953-3.375 12.797-3.375h5.422v12.234l-4.016-.093c-3.938 0-6.453.578-7.547 1.734-1.156 1.2-2.906 4.777-5.25 10.734-2.187 5.688-4.215 9.625-6.078 11.813-1.855 2.187-4.75 4.187-8.688 6 6.395 1.687 12.63 7.594 18.704 17.719L112.875 0H96.641L80.797-26.984c-3.219-5.47-6.031-9.051-8.438-10.75-2.406-1.696-5.28-2.547-8.625-2.547V0H48.641v-40.281c-3.282 0-6.125.836-8.532 2.5-2.406 1.668-5.218 5.265-8.437 10.797L15.828 0H-.406L15.75-26.984c6.125-10.125 12.383-16.032 18.781-17.72-4.375-2.03-7.437-4.233-9.187-6.608-1.75-2.376-4.375-8.047-7.875-17.016-1.2-3.008-2.48-4.867-3.844-5.578-1.43-.719-3.54-1.078-6.328-1.078-.711 0-2.156.03-4.344.093v-12.234H5c5.688 0 9.691.344 12.016 1.031 2.332.688 4.41 2.14 6.234 4.36 1.832 2.21 4.227 6.812 7.188 13.812 3.601 8.586 6.347 13.809 8.234 15.672 1.894 1.855 5.219 2.781 9.969 2.781v-37.656zm0 0"/></symbol></defs><use x="68.884" xlink:href="#e962b72da" y="169"/></svg>