<?xml version="1.0" encoding="UTF-8"?><svg enable-background="new 0 0 250 250" height="250px" viewBox="0 0 250 250" width="250px" x="0px" xml:space="preserve" xmlns="http://www.w3.org/2000/svg" xmlns:xlink="http://www.w3.org/1999/xlink" y="0px"><defs><symbol id="23853a15a" overflow="visible"><path d="M5.578-43.563c0-16.132 4.484-28.082 13.453-35.843 7.489-6.457 16.625-9.688 27.407-9.688 11.968 0 21.753 3.93 29.359 11.781 7.601 7.844 11.406 18.684 11.406 32.516 0 11.219-1.683 20.043-5.047 26.469C78.79-11.91 73.895-6.922 67.47-3.36 61.039.19 54.03 1.969 46.438 1.969c-12.2 0-22.06-3.91-29.579-11.735-7.523-7.82-11.28-19.086-11.28-33.797zm15.172 0c0 11.157 2.43 19.512 7.297 25.063 4.875 5.555 11.004 8.328 18.39 8.328 7.32 0 13.415-2.785 18.282-8.36 4.875-5.581 7.312-14.085 7.312-25.515 0-10.781-2.449-18.941-7.344-24.484-4.898-5.551-10.98-8.328-18.25-8.328-7.386 0-13.515 2.761-18.39 8.28-4.867 5.524-7.297 13.86-7.297 25.016zm0 0"/></symbol></defs><use x="78.346" xlink:href="#23853a15a" y="169"/></svg>