<?xml version="1.0" encoding="UTF-8"?><svg enable-background="new 0 0 250 250" height="250px" viewBox="0 0 250 250" width="250px" x="0px" xml:space="preserve" xmlns="http://www.w3.org/2000/svg" xmlns:xlink="http://www.w3.org/1999/xlink" y="0px"><defs><symbol id="213cd135a" overflow="visible"><path d="M10.828-87.125h14.766v34.047h18.703c12.195 0 21.586 2.367 28.172 7.094 6.594 4.73 9.89 11.25 9.89 19.562 0 7.281-2.75 13.508-8.25 18.672C68.617-2.582 59.832 0 47.75 0H10.828zm14.766 74.984h15.5c9.351 0 16.023-1.144 20.015-3.437 4-2.3 6-5.883 6-10.75 0-3.781-1.48-7.145-4.437-10.094-2.95-2.957-9.484-4.437-19.61-4.437H25.595zm0 0"/></symbol></defs><use x="81.295" xlink:href="#213cd135a" y="169"/></svg>