<?xml version="1.0" encoding="UTF-8"?><svg enable-background="new 0 0 250 250" height="250px" viewBox="0 0 250 250" width="250px" x="0px" xml:space="preserve" xmlns="http://www.w3.org/2000/svg" xmlns:xlink="http://www.w3.org/1999/xlink" y="0px"><defs><symbol id="29ab43aea" overflow="visible"><path d="M11-87.125h14.766v37.656c4.695 0 7.988-.898 9.875-2.703 1.882-1.8 4.66-7.05 8.328-15.75 2.894-6.894 5.242-11.437 7.047-13.625 1.812-2.187 3.89-3.66 6.234-4.422 2.352-.77 6.129-1.156 11.328-1.156h2.953v12.234l-4.094-.093c-3.886 0-6.374.578-7.468 1.734-1.149 1.2-2.899 4.777-5.25 10.734-2.242 5.688-4.293 9.625-6.157 11.813-1.855 2.187-4.726 4.187-8.609 6 6.344 1.687 12.578 7.594 18.703 17.719L74.813 0H58.578l-15.75-26.984c-3.23-5.414-6.047-8.985-8.453-10.703-2.406-1.727-5.277-2.594-8.61-2.594V0H11zm0 0"/></symbol></defs><use x="88.299" xlink:href="#29ab43aea" y="169"/></svg>