<?xml version="1.0" encoding="UTF-8"?><svg enable-background="new 0 0 250 250" height="250px" viewBox="0 0 250 250" width="250px" x="0px" xml:space="preserve" xmlns="http://www.w3.org/2000/svg" xmlns:xlink="http://www.w3.org/1999/xlink" y="0px"><defs><symbol id="332a8943a" overflow="visible"><path d="M67.922-10.75C62.453-6.102 57.188-2.82 52.125-.906c-5.055 1.914-10.48 2.875-16.281 2.875-9.563 0-16.918-2.336-22.063-7.016-5.136-4.676-7.703-10.648-7.703-17.922 0-4.27.969-8.164 2.906-11.687 1.938-3.532 4.477-6.36 7.625-8.485 3.145-2.132 6.688-3.75 10.625-4.843 2.895-.77 7.27-1.508 13.125-2.22 11.926-1.425 20.703-3.124 26.328-5.093.063-2.02.094-3.3.094-3.844 0-6.02-1.398-10.257-4.187-12.718-3.774-3.332-9.375-5-16.813-5-6.949 0-12.078 1.218-15.39 3.656-3.305 2.43-5.75 6.73-7.344 12.906L8.609-62.266c1.313-6.175 3.473-11.164 6.485-14.968 3.008-3.801 7.36-6.727 13.047-8.782 5.687-2.05 12.273-3.078 19.765-3.078 7.438 0 13.477.875 18.125 2.625 4.656 1.75 8.078 3.953 10.266 6.61 2.187 2.656 3.719 6.007 4.594 10.046.488 2.524.734 7.063.734 13.626V-36.5c0 13.719.313 22.402.938 26.047C83.195-6.816 84.44-3.332 86.296 0H70.875c-1.531-3.063-2.516-6.645-2.953-10.75zm-1.234-32.969c-5.356 2.188-13.391 4.047-24.11 5.578-6.074.875-10.371 1.86-12.89 2.953-2.512 1.094-4.45 2.696-5.813 4.797-1.367 2.106-2.047 4.446-2.047 7.016 0 3.938 1.488 7.219 4.469 9.844 2.976 2.625 7.336 3.937 13.078 3.937 5.688 0 10.742-1.242 15.172-3.734 4.437-2.488 7.691-5.895 9.766-10.219 1.582-3.332 2.374-8.254 2.374-14.765zm0 0"/></symbol></defs><use x="78.346" xlink:href="#332a8943a" y="169"/></svg>