<?xml version="1.0" encoding="UTF-8"?><svg enable-background="new 0 0 250 250" height="250px" viewBox="0 0 250 250" width="250px" x="0px" xml:space="preserve" xmlns="http://www.w3.org/2000/svg" xmlns:xlink="http://www.w3.org/1999/xlink" y="0px"><defs><symbol id="275d62fda" overflow="visible"><path d="M79.656-87.125V0H64.97v-33.969h-8.531c-5.2 0-9.07.672-11.61 2.016-2.543 1.344-6.246 5.652-11.11 12.922L20.845 0H2.547l15.906-23.469c4.875-7.156 9.719-11.203 14.531-12.14-8.43-1.145-14.68-4.176-18.75-9.094C10.16-49.63 8.125-55.29 8.125-61.687c0-7.551 2.664-13.676 8-18.376 5.332-4.707 13.055-7.062 23.172-7.062zM64.97-74.891h-21c-8.805 0-14.477 1.371-17.016 4.11-2.543 2.73-3.812 5.922-3.812 9.578 0 5.2 1.867 9.016 5.609 11.453 3.75 2.43 10.379 3.64 19.89 3.64H64.97zm0 0"/></symbol></defs><use x="79.575" xlink:href="#275d62fda" y="169"/></svg>