<?xml version="1.0" encoding="UTF-8"?><svg enable-background="new 0 0 250 250" height="250px" viewBox="0 0 250 250" width="250px" x="0px" xml:space="preserve" xmlns="http://www.w3.org/2000/svg" xmlns:xlink="http://www.w3.org/1999/xlink" y="0px"><defs><symbol id="e3a5e73ea" overflow="visible"><path d="M11.156-87.125h34.047c8.363 0 14.582.7 18.656 2.094 4.07 1.398 7.57 3.953 10.5 7.672 2.926 3.718 4.391 8.18 4.391 13.375 0 4.156-.867 7.78-2.594 10.875-1.719 3.086-4.297 5.668-7.734 7.75 4.094 1.367 7.492 3.922 10.203 7.672 2.707 3.742 4.063 8.183 4.063 13.328-.543 8.25-3.497 14.375-8.86 18.375C68.473-1.992 60.68 0 50.453 0H11.156zm14.766 36.672h15.75c6.289 0 10.61-.328 12.953-.984 2.352-.657 4.457-1.977 6.313-3.97 1.863-2 2.796-4.394 2.796-7.187 0-4.593-1.625-7.789-4.875-9.593-3.25-1.801-8.812-2.704-16.687-2.704h-16.25zm0 38.312h19.437c8.375 0 14.118-.968 17.235-2.906 3.113-1.945 4.754-5.3 4.922-10.062 0-2.782-.907-5.36-2.72-7.735-1.804-2.383-4.151-3.89-7.046-4.515-2.898-.633-7.543-.953-13.938-.953h-17.89zm0 0"/></symbol></defs><use x="80.435" xlink:href="#e3a5e73ea" y="169"/></svg>