<?xml version="1.0" encoding="UTF-8"?><svg enable-background="new 0 0 250 250" height="250px" viewBox="0 0 250 250" width="250px" x="0px" xml:space="preserve" xmlns="http://www.w3.org/2000/svg" xmlns:xlink="http://www.w3.org/1999/xlink" y="0px"><defs><symbol id="c1467e94a" overflow="visible"><path d="M11.078-87.125h14.766v66.453L66.78-87.125h15.906V0H67.922v-66.031L26.984 0H11.078zm51.094-32.969H72.25c-.813 6.836-3.313 12.086-7.5 15.75-4.188 3.668-9.75 5.5-16.688 5.5-7 0-12.593-1.816-16.78-5.453-4.188-3.644-6.688-8.91-7.5-15.797h10.077c.77 3.719 2.29 6.496 4.563 8.328 2.27 1.836 5.316 2.75 9.14 2.75 4.426 0 7.774-.89 10.047-2.671 2.27-1.782 3.79-4.583 4.563-8.407zm0 0"/></symbol></defs><use x="78.141" xlink:href="#c1467e94a" y="169"/></svg>