<?xml version="1.0" encoding="UTF-8"?><svg enable-background="new 0 0 250 250" height="250px" viewBox="0 0 250 250" width="250px" x="0px" xml:space="preserve" xmlns="http://www.w3.org/2000/svg" xmlns:xlink="http://www.w3.org/1999/xlink" y="0px"><defs><symbol id="1dbca5bca" overflow="visible"><path d="M30.36-39.375v-11.563c6.226-.062 10.476-.312 12.75-.75 2.269-.437 4.413-1.75 6.437-3.937 2.02-2.188 3.031-4.922 3.031-8.203 0-3.988-1.328-7.172-3.984-9.547-2.649-2.383-6.074-3.578-10.282-3.578-8.312 0-14.136 4.898-17.468 14.687L6.812-64.563c4.375-16.351 14.926-24.53 31.657-24.53 9.3 0 16.586 2.546 21.86 7.64 5.28 5.086 7.921 11.152 7.921 18.203 0 7.117-3.445 12.777-10.328 16.984 4.375 2.356 7.656 5.352 9.844 8.985 2.187 3.636 3.28 7.945 3.28 12.922 0 7.812-2.843 14.156-8.53 19.03C56.828-.46 48.867 1.97 38.64 1.97c-19.856 0-31.368-8.832-34.532-26.5l13.86-2.953c1.258 5.586 3.816 9.906 7.672 12.968 3.851 3.063 8.27 4.594 13.25 4.594 4.968 0 9.109-1.406 12.422-4.219 3.312-2.82 4.968-6.421 4.968-10.796 0-3.395-1.043-6.348-3.125-8.86-2.074-2.52-4.289-4.094-6.64-4.719-2.356-.625-6.621-.937-12.797-.937-.492 0-1.61.027-3.36.078zm0 0"/></symbol></defs><use x="86.538" xlink:href="#1dbca5bca" y="169"/></svg>