<?xml version="1.0" encoding="UTF-8"?><svg enable-background="new 0 0 250 250" height="250px" viewBox="0 0 250 250" width="250px" x="0px" xml:space="preserve" xmlns="http://www.w3.org/2000/svg" xmlns:xlink="http://www.w3.org/1999/xlink" y="0px"><defs><symbol id="ee5a4b83a" overflow="visible"><path d="M74.89-123.125l13.047.156c-.605 5.856-1.906 9.934-3.906 12.235-1.992 2.293-4.558 3.765-7.703 4.421-3.148.657-9.312.985-18.5.985-12.187 0-20.5 1.18-24.937 3.531-4.43 2.344-7.618 6.106-9.563 11.281-1.937 5.168-3.015 11.825-3.234 19.97 3.718-5.52 8.066-9.661 13.047-12.423 4.976-2.77 10.582-4.156 16.812-4.156 11.438 0 20.899 3.93 28.39 11.781 7.489 7.844 11.235 18.465 11.235 31.86 0 10.18-1.887 18.523-5.656 25.03-3.774 6.5-8.246 11.532-13.422 15.095C65.332.19 58.297 1.969 49.39 1.969c-10.343 0-18.386-2.364-24.124-7.094-5.743-4.727-10.141-10.785-13.203-18.172C9-30.68 7.468-43.535 7.468-61.859c0-23.02 3.894-38.52 11.687-46.5 7.79-7.989 19.782-11.985 35.969-11.985 10.063 0 15.773-.16 17.14-.484 1.376-.332 2.25-1.098 2.626-2.297zm-.734 79.234c0-9.07-2.148-16.504-6.437-22.297-4.293-5.8-10.352-8.703-18.172-8.703-8.149 0-14.438 3.063-18.875 9.188-4.43 6.125-6.64 14.297-6.64 24.516 0 10.124 2.445 17.87 7.343 23.234 4.895 5.355 10.926 8.031 18.094 8.031 7.32 0 13.265-3.101 17.828-9.312 4.57-6.207 6.86-14.426 6.86-24.657zm0 0"/></symbol></defs><use x="76.953" xlink:href="#ee5a4b83a" y="169"/></svg>