<?xml version="1.0" encoding="UTF-8"?><svg enable-background="new 0 0 250 250" height="250px" viewBox="0 0 250 250" width="250px" x="0px" xml:space="preserve" xmlns="http://www.w3.org/2000/svg" xmlns:xlink="http://www.w3.org/1999/xlink" y="0px"><defs><symbol id="581b237ca" overflow="visible"><path d="M70.719-28.063l15.25 1.891c-2.406 8.918-6.867 15.84-13.375 20.766-6.5 4.918-14.813 7.375-24.938 7.375-12.742 0-22.843-3.922-30.312-11.766C9.883-17.648 6.156-28.66 6.156-42.828c0-14.656 3.77-26.031 11.313-34.125 7.55-8.094 17.343-12.14 29.375-12.14 11.644 0 21.16 3.968 28.547 11.906 7.382 7.93 11.078 19.085 11.078 33.468 0 .875-.031 2.188-.094 3.938H21.406c.551 9.562 3.258 16.89 8.125 21.984 4.864 5.086 10.938 7.625 18.219 7.625 5.406 0 10.02-1.422 13.844-4.265 3.832-2.844 6.875-7.383 9.125-13.626zM22.234-51.922h48.641c-.656-7.332-2.516-12.832-5.578-16.5-4.7-5.687-10.797-8.531-18.297-8.531-6.781 0-12.484 2.273-17.11 6.812-4.617 4.543-7.167 10.618-7.656 18.22zm0 0"/></symbol></defs><use x="78.346" xlink:href="#581b237ca" y="169"/></svg>