<?xml version="1.0" encoding="UTF-8"?><svg enable-background="new 0 0 250 250" height="250px" viewBox="0 0 250 250" width="250px" x="0px" xml:space="preserve" xmlns="http://www.w3.org/2000/svg" xmlns:xlink="http://www.w3.org/1999/xlink" y="0px"><defs><symbol id="87fbd41ba" overflow="visible"><path d="M11.234-87.125H26v36.422h17.89c1.313-12.469 5.208-21.984 11.688-28.547 6.477-6.563 14.883-9.844 25.219-9.844 8.812 0 15.758 1.781 20.844 5.344 5.082 3.555 9.273 8.45 12.578 14.688 3.312 6.23 4.969 14.62 4.969 25.171 0 15.043-3.418 26.45-10.25 34.22-6.836 7.76-16.106 11.64-27.813 11.64-10.875 0-19.594-3.61-26.156-10.828-6.563-7.22-10.258-17.118-11.078-29.703H26V0H11.234zm70.391 10.594c-7.219 0-12.84 2.777-16.86 8.328-4.023 5.543-6.03 13.32-6.03 23.328 0 11.98 2.019 20.762 6.062 26.344 4.05 5.574 9.469 8.36 16.25 8.36 6.726 0 12.238-2.583 16.531-7.75 4.29-5.165 6.438-13.493 6.438-24.985 0-11.207-1.86-19.614-5.579-25.219-3.718-5.602-9.324-8.406-16.812-8.406zm0 0"/></symbol></defs><use x="62.085" xlink:href="#87fbd41ba" y="169"/></svg>