<?xml version="1.0" encoding="UTF-8"?><svg enable-background="new 0 0 250 250" height="250px" viewBox="0 0 250 250" width="250px" x="0px" xml:space="preserve" xmlns="http://www.w3.org/2000/svg" xmlns:xlink="http://www.w3.org/1999/xlink" y="0px"><defs><symbol id="d5dfb05ca" overflow="visible"><path d="M3.281-87.125H42.25v34.047h18.781c13.29 0 22.942 2.586 28.953 7.75 6.02 5.168 9.032 11.5 9.032 19 0 7.762-2.914 14.09-8.735 18.984C84.457-2.445 75.86 0 64.484 0h-37v-74.89H3.281zm38.969 75.14h15.5c9.406 0 16.078-1.128 20.016-3.39 3.937-2.27 5.906-5.922 5.906-10.953 0-4.594-1.684-8.145-5.047-10.656-3.367-2.52-9.668-3.782-18.906-3.782H42.25zm0 0"/></symbol></defs><use x="72.571" xlink:href="#d5dfb05ca" y="169"/></svg>