<?xml version="1.0" encoding="UTF-8"?><svg enable-background="new 0 0 250 250" height="250px" viewBox="0 0 250 250" width="250px" x="0px" xml:space="preserve" xmlns="http://www.w3.org/2000/svg" xmlns:xlink="http://www.w3.org/1999/xlink" y="0px"><defs><symbol id="653a62c3a" overflow="visible"><path d="M94.016-87.125h14.765V0H94.016zm-82.61 0h14.766v34.047h18.703c12.195 0 21.586 2.367 28.172 7.094 6.594 4.73 9.89 11.25 9.89 19.562 0 7.281-2.75 13.508-8.25 18.672C69.195-2.582 60.407 0 48.314 0H11.406zm14.766 74.984h15.5c9.351 0 16.023-1.144 20.016-3.437 3.988-2.3 5.984-5.883 5.984-10.75 0-3.781-1.48-7.145-4.438-10.094-2.949-2.957-9.48-4.437-19.593-4.437H26.17zm0 0"/></symbol></defs><use x="64.706" xlink:href="#653a62c3a" y="169"/></svg>