<?xml version="1.0" encoding="UTF-8"?><svg enable-background="new 0 0 250 250" height="250px" viewBox="0 0 250 250" width="250px" x="0px" xml:space="preserve" xmlns="http://www.w3.org/2000/svg" xmlns:xlink="http://www.w3.org/1999/xlink" y="0px"><defs><symbol id="6670af94a" overflow="visible"><path d="M33.547-50.703v12.14h30.75c-.93 9.47-3.375 16.57-7.344 21.297-3.96 4.73-9.465 7.094-16.516 7.094-12.468 0-19.828-7.219-22.078-21.656l-14.437 1.89C5.453-20.374 9.43-12.663 15.859-6.813 22.285-.957 30.695 1.97 41.094 1.97c12.351.707 21.922-3.211 28.703-11.766 6.781-8.562 10.008-19.816 9.687-33.766 0-14.164-3.53-25.296-10.593-33.39-7.055-8.094-16.68-12.14-28.875-12.14-9.73 0-17.606 2.59-23.625 7.765C10.379-76.16 6.719-69.504 5.406-61.36l14.36 2.297c2.406-11.864 9.32-17.797 20.75-17.797 6.562 0 11.93 2.421 16.109 7.265 4.188 4.836 6.742 11.133 7.672 18.89zm0 0"/></symbol></defs><use x="82.196" xlink:href="#6670af94a" y="169"/></svg>