<?xml version="1.0" encoding="UTF-8"?><svg enable-background="new 0 0 250 250" height="250px" viewBox="0 0 250 250" width="250px" x="0px" xml:space="preserve" xmlns="http://www.w3.org/2000/svg" xmlns:xlink="http://www.w3.org/1999/xlink" y="0px"><defs><symbol id="ae868c99a" overflow="visible"><path d="M18.297-87.125h68.578V0H72.187v-74.89H33.063v43.39c0 10.117-.329 16.79-.985 20.016-.656 3.23-2.465 6.046-5.422 8.453C23.707-.625 19.441.579 13.86.579c-3.437 0-7.402-.22-11.89-.657v-12.313h6.484c3.063 0 5.25-.312 6.563-.937 1.312-.633 2.187-1.633 2.625-3 .437-1.363.656-5.82.656-13.375zm0 0"/></symbol></defs><use x="76.052" xlink:href="#ae868c99a" y="169"/></svg>