<?xml version="1.0" encoding="UTF-8"?><svg enable-background="new 0 0 250 250" height="250px" viewBox="0 0 250 250" width="250px" x="0px" xml:space="preserve" xmlns="http://www.w3.org/2000/svg" xmlns:xlink="http://www.w3.org/1999/xlink" y="0px"><defs><symbol id="2e21655ca" overflow="visible"><path d="M5.656-87.125h14.766v16.5c0 7.105.422 12.258 1.265 15.453.852 3.2 2.895 5.992 6.125 8.375 3.227 2.375 7.274 3.563 12.141 3.563 5.57 0 12.79-1.473 21.656-4.422v-39.469h14.766V0H61.609v-35.11c-9.086 2.844-17.562 4.266-25.437 4.266-6.617 0-12.453-1.68-17.516-5.047-5.054-3.363-8.484-7.476-10.297-12.343-1.804-4.864-2.703-10.223-2.703-16.078zm0 0"/></symbol></defs><use x="81.295" xlink:href="#2e21655ca" y="169"/></svg>