<?xml version="1.0" encoding="UTF-8"?><svg enable-background="new 0 0 250 250" height="250px" viewBox="0 0 250 250" width="250px" x="0px" xml:space="preserve" xmlns="http://www.w3.org/2000/svg" xmlns:xlink="http://www.w3.org/1999/xlink" y="0px"><defs><symbol id="7877465ca" overflow="visible"><path d="M77.781-41.594c0 11.95 1.461 20.715 4.39 26.297 2.927 5.586 7.493 8.375 13.704 8.375 6.383 0 11.035-2.758 13.953-8.281 2.926-5.531 4.39-14.328 4.39-26.39 0-12.477-1.417-21.407-4.25-26.782-2.835-5.383-7.476-8.078-13.921-8.078-6.211 0-10.809 2.855-13.797 8.562-2.98 5.711-4.469 14.477-4.469 26.297zM24.75-42.656c0 12.71 1.414 21.843 4.25 27.406 2.832 5.555 7.441 8.328 13.828 8.328 6.27 0 10.867-2.789 13.797-8.375 2.926-5.582 4.39-14.348 4.39-26.297 0-11.883-1.48-20.664-4.437-26.343-2.96-5.676-7.543-8.516-13.75-8.516-6.324 0-10.918 2.68-13.781 8.031-2.867 5.356-4.297 13.945-4.297 25.766zm36.797 32.281C58.055-5.531 54.567-2.07 51.078 0c-3.492 2.07-7.512 3.11-12.062 3.11-8.868 0-16.578-4.376-23.141-13.126-6.563-8.75-9.844-19.629-9.844-32.64 0-12.77 3.024-23.32 9.078-31.657 6.063-8.343 13.563-12.515 22.5-12.515 4.957 0 9.391 1.2 13.297 3.594 3.907 2.398 7.453 6.109 10.64 11.14v-45.765c0-3.02-.593-4.989-1.78-5.907-1.18-.914-3.953-1.375-8.328-1.375h-5.141v-7.093l31.219-2.203v62.343c3.125-4.914 6.648-8.597 10.578-11.047 3.937-2.457 8.3-3.687 13.094-3.687 8.988 0 16.5 4.2 22.53 12.594 6.032 8.398 9.048 19.156 9.048 32.28 0 12.657-3.313 23.337-9.938 32.032-6.625 8.688-14.34 13.031-23.14 13.031-4.555 0-8.563-1.046-12.032-3.14-3.46-2.102-6.84-5.551-10.14-10.344v33.61c0 2.6.379 4.316 1.14 5.14.77.832 2.426 1.305 4.969 1.422l7.719.36v7.624H47.797v-7.625l7.719-.36c2.539-.116 4.18-.589 4.922-1.421.738-.824 1.109-2.54 1.109-5.14zm0 0"/></symbol></defs><use x="55.604" xlink:href="#7877465ca" y="169"/></svg>