<?xml version="1.0" encoding="UTF-8"?><svg enable-background="new 0 0 250 250" height="250px" viewBox="0 0 250 250" width="250px" x="0px" xml:space="preserve" xmlns="http://www.w3.org/2000/svg" xmlns:xlink="http://www.w3.org/1999/xlink" y="0px"><defs><symbol id="daab0a9aa" overflow="visible"><path d="M45.938 0v-7.625l8.343-.36c2.54-.113 4.207-.597 5-1.452.801-.864 1.203-2.626 1.203-5.282v-25.984h-8.343c-4.782 0-8.297 1.094-10.547 3.281-2.25 2.188-3.82 6.234-4.703 12.14-.243 1.43-.54 3.384-.891 5.86C33.875-4.398 28.172 3.11 18.89 3.11c-5.21 0-9.085-1.57-11.624-4.703C4.723-4.727 3.453-9.457 3.453-15.78v-2.578h5.422c0 4.375.395 7.406 1.188 9.093.8 1.688 2.175 2.532 4.124 2.532 3.02 0 5.149-3.907 6.391-11.72.77-5.081 1.598-9.038 2.485-11.874 1.476-4.613 3.632-8.04 6.468-10.281 2.832-2.25 6.973-3.79 12.422-4.625-3.074-1.532-5.414-3.567-7.016-6.11C33.344-53.883 31.864-59 30.5-66.687c-1.18-6.145-2.375-10.032-3.594-11.657-1.21-1.633-2.906-2.453-5.093-2.453-.774 0-1.391.168-1.86.5-.469.324-.703.75-.703 1.281 0 .18.57 1.079 1.719 2.704 1.156 1.624 1.734 3.21 1.734 4.75 0 2.304-.789 4.12-2.36 5.453-1.562 1.324-3.671 1.984-6.327 1.984-2.899 0-5.172-.898-6.829-2.703-1.656-1.8-2.484-4.238-2.484-7.313 0-3.957 1.43-7.175 4.297-9.656 2.863-2.488 6.57-3.734 11.125-3.734 9.05 0 14.848 6.86 17.39 20.578.29 1.531.5 2.652.626 3.36 1.289 6.448 3.265 10.75 5.922 12.906 2.664 2.156 6.804 3.234 12.421 3.234h4v-21.89c0-2.665-.433-4.442-1.297-5.329-.855-.883-2.464-1.36-4.828-1.422l-8.422-.36v-7.624h43.641v7.625l-8.437.36c-2.48.124-4.09.6-4.829 1.421-.742.824-1.109 2.602-1.109 5.328v21.89h3.813c5.382 0 9.437-1 12.156-3 2.719-2.007 4.61-5.562 5.672-10.655.289-1.352.676-3.364 1.156-6.032 2.594-13.593 8.36-20.39 17.297-20.39 4.601 0 8.367 1.258 11.297 3.765 2.926 2.512 4.39 5.72 4.39 9.625 0 3.075-.859 5.512-2.578 7.313-1.71 1.805-4.011 2.703-6.906 2.703-2.719 0-4.82-.645-6.297-1.938-1.48-1.3-2.219-3.132-2.219-5.5 0-1.601.547-3.218 1.641-4.843 1.094-1.625 1.64-2.551 1.64-2.781 0-.477-.257-.864-.765-1.157-.5-.3-1.105-.453-1.813-.453-3.843 0-6.62 4.406-8.328 13.219-.125.469-.187.766-.187.89l-.078.438c-2.074 11.418-5.86 18.422-11.36 21.016 5.438.836 9.57 2.375 12.407 4.625 2.843 2.242 5.004 5.668 6.484 10.28.883 2.837 1.71 6.856 2.484 12.063 1.125 7.688 3.192 11.532 6.204 11.532 1.832 0 3.16-.782 3.984-2.344.832-1.57 1.25-3.985 1.25-7.235v-2.046h5.687v2.75c0 6.21-1.304 10.882-3.906 14.015-2.605 3.133-6.508 4.703-11.703 4.703-9.23 0-14.875-7.39-16.938-22.172a248.897 248.897 0 0 0-.89-6.218c-.95-6.032-2.578-10.11-4.89-12.235-2.305-2.125-6.055-3.187-11.25-3.187h-7.454v25.984c0 2.719.383 4.496 1.156 5.328.77.825 2.395 1.293 4.875 1.407l8.344.359V0zm0 0"/></symbol></defs><use x="57.156" xlink:href="#daab0a9aa" y="169"/></svg>