<?xml version="1.0" encoding="UTF-8"?><svg enable-background="new 0 0 250 250" height="250px" viewBox="0 0 250 250" width="250px" x="0px" xml:space="preserve" xmlns="http://www.w3.org/2000/svg" xmlns:xlink="http://www.w3.org/1999/xlink" y="0px"><defs><symbol id="5e48c7f0a" overflow="visible"><path d="M60.656-47.453v-21.89c0-2.727-.492-4.594-1.468-5.594-.97-1.008-2.606-1.516-4.907-1.516h-6.828c-6.93 0-11.887 1.07-14.875 3.203-2.98 2.125-4.469 5.586-4.469 10.375 0 5.555 1.77 9.512 5.313 11.875 3.55 2.367 9.91 3.547 19.078 3.547zM46.296 0v-7.625l8.329-.36c2.488-.113 4.113-.581 4.875-1.406.77-.832 1.156-2.609 1.156-5.328v-25.984H52.86c-5.03 0-8.906 1.215-11.625 3.64-2.718 2.418-4.343 6.11-4.875 11.079L35.031-14.36c-.648 6.148-2.183 10.418-4.61 12.812-2.429 2.395-6.273 3.594-11.53 3.594-5.211 0-9.086-1.508-11.625-4.516-2.543-3.02-3.813-7.578-3.813-13.672v-2.578h5.594c.238 4.793.695 7.992 1.375 9.594.676 1.594 1.812 2.39 3.406 2.39 1.008 0 1.957-.632 2.844-1.906.883-1.27 1.625-3.117 2.219-5.546l3.28-13.22c1.177-4.788 3.18-8.35 6.017-10.687 2.843-2.332 6.894-3.734 12.156-4.203-9.282-.656-16.305-2.754-21.063-6.297-4.75-3.55-7.125-8.488-7.125-14.812 0-6.864 2.54-12.024 7.625-15.485 5.082-3.457 12.649-5.187 22.703-5.187h49.22v7.625l-8.345.36c-2.48.124-4.105.6-4.875 1.421-.773.824-1.156 2.602-1.156 5.328v54.625c0 2.719.383 4.496 1.156 5.328.77.825 2.426 1.293 4.97 1.407l8.25.359V0zm0 0"/></symbol></defs><use x="76.135" xlink:href="#5e48c7f0a" y="169"/></svg>