<?xml version="1.0" encoding="UTF-8"?><svg enable-background="new 0 0 250 250" height="250px" viewBox="0 0 250 250" width="250px" x="0px" xml:space="preserve" xmlns="http://www.w3.org/2000/svg" xmlns:xlink="http://www.w3.org/1999/xlink" y="0px"><defs><symbol id="20ce0943a" overflow="visible"><path d="M90.813-7.625V0H48.687v-7.625l6.657-.36c2.539-.113 4.18-.581 4.922-1.406.738-.832 1.109-2.609 1.109-5.328v-22.703c-4.73 1.418-9.281 2.469-13.656 3.156-4.375.68-8.606 1.016-12.688 1.016-8.218 0-14.414-1.566-18.578-4.703-4.168-3.133-6.25-7.805-6.25-14.016v-17.375c0-2.664-.402-4.426-1.203-5.281-.805-.852-2.445-1.344-4.922-1.469l-6.656-.36v-7.624h42.39v7.625l-7 .36c-2.48.062-4.12.523-4.921 1.374-.805.856-1.203 2.649-1.203 5.375v14.89c0 4.669 1.078 7.95 3.234 9.845 2.164 1.898 5.879 2.843 11.14 2.843 2.833 0 6.008-.304 9.532-.922 3.52-.624 7.113-1.53 10.781-2.718v-23.938c0-2.726-.371-4.504-1.11-5.328-.742-.82-2.355-1.297-4.843-1.422l-6.734-.36v-7.624h42.124v7.625l-6.734.36c-2.543.124-4.172.59-4.89 1.39-.711.793-1.063 2.578-1.063 5.36v54.624c0 2.781.352 4.574 1.063 5.375.718.793 2.374 1.246 4.968 1.36zm0 0"/></symbol></defs><use x="76.223" xlink:href="#20ce0943a" y="169"/></svg>