<?xml version="1.0" encoding="UTF-8"?><svg enable-background="new 0 0 250 250" height="250px" viewBox="0 0 250 250" width="250px" x="0px" xml:space="preserve" xmlns="http://www.w3.org/2000/svg" xmlns:xlink="http://www.w3.org/1999/xlink" y="0px"><defs><symbol id="b1b64a08a" overflow="visible"><path d="M46.828-79.547c-7.687 0-13.293 2.984-16.812 8.953-3.512 5.969-5.266 15.516-5.266 28.64 0 13.013 1.754 22.509 5.266 28.485 3.52 5.969 9.062 8.953 16.625 8.953 7.863 0 13.554-2.957 17.078-8.875C67.239-19.305 69-28.828 69-41.953c0-13.125-1.777-22.672-5.328-28.64-3.543-5.97-9.156-8.954-16.844-8.954zm0-7.453c12 0 21.781 4.184 29.344 12.547 7.57 8.367 11.36 19.2 11.36 32.5 0 13.367-3.774 24.187-11.313 32.469C68.688-1.211 58.89 2.922 46.829 2.922c-12 0-21.806-4.149-29.407-12.453-7.594-8.313-11.39-19.117-11.39-32.422 0-13.352 3.78-24.195 11.343-32.531C24.945-82.828 34.765-87 46.828-87zm0 0"/></symbol></defs><use x="78.219" xlink:href="#b1b64a08a" y="169"/></svg>