<?xml version="1.0" encoding="UTF-8"?><svg enable-background="new 0 0 250 250" height="250px" viewBox="0 0 250 250" width="250px" x="0px" xml:space="preserve" xmlns="http://www.w3.org/2000/svg" xmlns:xlink="http://www.w3.org/1999/xlink" y="0px"><defs><symbol id="e169e26aa" overflow="visible"><path d="M23.766-7.625h37.609v-68.64h-9.047c-5.387 0-9.055.964-11 2.89-1.95 1.918-3.43 7.547-4.437 16.89-1.243 11.344-2.914 20.922-5.016 28.735-2.094 7.805-4.797 14.512-8.11 20.125zm68.64-76.453v7.812l-8.328.172c-2.492.125-4.105.602-4.844 1.422-.742.824-1.109 2.602-1.109 5.328v54.625c0 2.719.367 4.496 1.11 5.328.738.825 2.378 1.293 4.921 1.407l8.25.359v32.547H85.75c-1-9.762-3.305-16.356-6.906-19.781C75.238 1.71 66.457 0 52.5 0H39.547c-12.18 0-20.059 1.71-23.64 5.14-3.575 3.426-5.86 10.02-6.86 19.782H2.219V-7.625h2.297c4.437 0 7.867-.898 10.296-2.703 2.426-1.8 4.704-5.129 6.829-9.985 2.425-5.613 4.507-12.851 6.25-21.718 1.738-8.875 2.609-16.707 2.609-23.5 0-4.32-.531-7.13-1.594-8.422-1.062-1.3-3.43-2.016-7.093-2.14l-7.094-.173v-7.812zm0 0"/></symbol></defs><use x="75.78" xlink:href="#e169e26aa" y="169"/></svg>