<?xml version="1.0" encoding="UTF-8"?><svg enable-background="new 0 0 250 250" height="250px" viewBox="0 0 250 250" width="250px" x="0px" xml:space="preserve" xmlns="http://www.w3.org/2000/svg" xmlns:xlink="http://www.w3.org/1999/xlink" y="0px"><defs><symbol id="0fc044a6a" overflow="visible"><path d="M55.422-6.922c7.457 0 12.941-2.789 16.453-8.375 3.52-5.582 5.281-14.348 5.281-26.297 0-12.062-1.672-20.883-5.015-26.468-3.336-5.594-8.61-8.391-15.829-8.391-7.917 0-13.683 2.726-17.296 8.172-3.606 5.437-5.407 14.336-5.407 26.687 0 12.18 1.727 21 5.188 26.469 3.457 5.469 9 8.203 16.625 8.203zM3.109 30.156l7.704-.36c2.55-.116 4.19-.589 4.921-1.421.739-.824 1.11-2.54 1.11-5.14v-91.876c0-3.132-.594-5.187-1.782-6.156-1.18-.976-3.714-1.469-7.609-1.469H5.406h-.265c-.774.118-1.45.172-2.032.172v-7.797l29.438-2.218V-70.5c3.375-5.563 7.258-9.703 11.656-12.422C48.61-85.64 53.617-87 59.234-87c10.582 0 19.332 4.215 26.25 12.64 6.926 8.43 10.391 19.231 10.391 32.407 0 12.95-3.555 23.7-10.656 32.25C78.125-1.16 69.348 3.109 58.89 3.109c-5.563 0-10.297-1.023-14.203-3.062-3.899-2.04-7.59-5.395-11.079-10.063v33.25c0 2.54.395 4.239 1.188 5.094.8.863 2.473 1.352 5.016 1.469l7.64.36v7.624H3.11zm0 0"/></symbol></defs><use x="74.139" xlink:href="#0fc044a6a" y="169"/></svg>