<?xml version="1.0" encoding="UTF-8"?><svg enable-background="new 0 0 250 250" height="250px" viewBox="0 0 250 250" width="250px" x="0px" xml:space="preserve" xmlns="http://www.w3.org/2000/svg" xmlns:xlink="http://www.w3.org/1999/xlink" y="0px"><defs><symbol id="720af88ea" overflow="visible"><path d="M52.14-41.953v27.594c0 2.773.4 4.59 1.204 5.453.8.855 2.383 1.281 4.75 1.281h7.093c7.446 0 12.797-1.27 16.047-3.813 3.25-2.539 4.875-6.648 4.875-12.328 0-6.675-1.851-11.375-5.546-14.093-3.688-2.727-10.262-4.094-19.72-4.094zm0-7.625h17.75c11.344 0 20 2.09 25.97 6.266 5.976 4.167 8.968 10.18 8.968 18.03 0 8.282-2.734 14.571-8.203 18.86C91.156-2.14 83.156 0 72.625 0H21.109v-7.625l8.25-.36c2.54-.113 4.18-.581 4.922-1.406.739-.832 1.11-2.609 1.11-5.328v-54.625c0-2.906-.61-4.816-1.828-5.734-1.211-.914-3.618-1.375-7.22-1.375-5.5 0-9.82 1.762-12.952 5.281-3.137 3.524-5.059 8.774-5.766 15.75H1.594v-28.656h64.922v7.625l-8.422.36c-2.492.124-4.106.6-4.844 1.421-.742.824-1.11 2.602-1.11 5.328zm0 0"/></symbol></defs><use x="70.858" xlink:href="#720af88ea" y="169"/></svg>