<?xml version="1.0" encoding="UTF-8"?><svg enable-background="new 0 0 250 250" height="250px" viewBox="0 0 250 250" width="250px" x="0px" xml:space="preserve" xmlns="http://www.w3.org/2000/svg" xmlns:xlink="http://www.w3.org/1999/xlink" y="0px"><defs><symbol id="b5325869a" overflow="visible"><path d="M40.344-109.172a18.935 18.935 0 0 0 6.25 2.797c2.281.563 5.11.844 8.484.844 3.313 0 6.25-.297 8.813-.89 2.57-.595 4.804-1.509 6.703-2.75-1.719-.645-3.024-1.571-3.906-2.782-.887-1.219-1.329-2.711-1.329-4.484 0-2.188.852-4.126 2.563-5.813 1.719-1.688 3.644-2.531 5.781-2.531 2.238 0 4.14.86 5.703 2.578 1.57 1.71 2.36 3.808 2.36 6.297 0 4.605-2.5 8.433-7.5 11.484-4.993 3.043-11.387 4.563-19.188 4.563-7.93 0-14.375-1.504-19.344-4.516-4.96-3.02-7.437-6.805-7.437-11.36 0-2.425.836-4.538 2.515-6.343 1.688-1.8 3.657-2.703 5.907-2.703 2.125 0 4.015.844 5.672 2.531 1.656 1.688 2.484 3.625 2.484 5.813 0 1.656-.371 3.078-1.11 4.265-.742 1.18-1.882 2.18-3.421 3zm33.172 39.828c0-2.664-.403-4.426-1.204-5.281-.792-.852-2.43-1.344-4.906-1.469l-8.344-.36v-7.624h45.407v7.625l-8.25.36c-2.543.124-4.2.616-4.969 1.468-.762.855-1.14 2.617-1.14 5.281v54.625c0 2.656.394 4.418 1.187 5.281.8.856 2.473 1.34 5.016 1.454l8.156.359V0H59.063v-7.625l8.25-.36c2.601-.113 4.285-.597 5.046-1.452.77-.864 1.157-2.626 1.157-5.282v-40.703l-37.782 39.11v2.125c0 2.367.399 3.964 1.203 4.796.801.825 2.442 1.293 4.922 1.407l8.25.359V0H4.703v-7.625l8.328-.36c2.489-.113 4.114-.581 4.875-1.406.77-.832 1.157-2.609 1.157-5.328v-54.625c0-2.726-.387-4.504-1.157-5.328-.761-.82-2.355-1.297-4.781-1.422l-8.422-.36v-7.624H50.11v7.625l-8.343.36c-2.48.124-4.106.6-4.875 1.421-.774.824-1.157 2.602-1.157 5.328v41.406l37.782-39.109zm0 0"/></symbol></defs><use x="70.414" xlink:href="#b5325869a" y="169"/></svg>