<?xml version="1.0" encoding="UTF-8"?><svg enable-background="new 0 0 250 250" height="250px" viewBox="0 0 250 250" width="250px" x="0px" xml:space="preserve" xmlns="http://www.w3.org/2000/svg" xmlns:xlink="http://www.w3.org/1999/xlink" y="0px"><defs><symbol id="80b38239a" overflow="visible"><path d="M52.14-111.297c0-2.664 1.036-5 3.11-7 2.07-2.008 4.406-3.016 7-3.016 2.664 0 4.973.993 6.922 2.97 1.945 1.98 2.922 4.327 2.922 7.046 0 2.836-.934 5.2-2.797 7.094-1.856 1.898-4.203 2.844-7.047 2.844-2.836 0-5.23-.946-7.188-2.844-1.949-1.895-2.921-4.258-2.921-7.094zm-32.187 0c0-2.664 1.02-5 3.063-7 2.039-2.008 4.422-3.016 7.14-3.016 2.719 0 5.035.977 6.953 2.922 1.926 1.95 2.891 4.313 2.891 7.094 0 2.836-.934 5.2-2.797 7.094-1.867 1.898-4.215 2.844-7.047 2.844-2.96 0-5.402-.946-7.328-2.844-1.918-1.895-2.875-4.258-2.875-7.094zm38.484 62.781c2.489 0 4.176-.41 5.063-1.234.883-.832 1.328-2.344 1.328-4.531 0-8.219-1.656-14.516-4.969-18.89-3.312-4.376-8.074-6.563-14.28-6.563-6.919 0-12.075 2.546-15.47 7.64-3.398 5.086-5.183 12.946-5.359 23.578zm18.891 22.172l6.39 3.64C79.759-14.19 74.57-7.788 68.157-3.5c-6.418 4.281-14 6.422-22.75 6.422-11.648 0-21.12-4.149-28.422-12.453C9.68-17.844 6.031-28.648 6.031-41.953c0-13.352 3.649-24.195 10.953-32.531C24.285-82.828 33.758-87 45.406-87c11.758 0 21.114 3.844 28.063 11.531C80.414-67.78 83.89-57.406 83.89-44.344c0 .356-.032.95-.094 1.782a30.007 30.007 0 0 0-.078 1.859H24.484c0 .469-.03 1.074-.093 1.812-.063.743-.094 1.29-.094 1.641 0 9.344 2.203 16.766 6.61 22.266 4.405 5.5 10.273 8.25 17.609 8.25 6.257 0 11.797-1.625 16.609-4.875 4.82-3.258 8.89-8.172 12.203-14.735zm0 0"/></symbol></defs><use x="80.702" xlink:href="#80b38239a" y="169"/></svg>