<?xml version="1.0" encoding="UTF-8"?><svg enable-background="new 0 0 250 250" height="250px" viewBox="0 0 250 250" width="250px" x="0px" xml:space="preserve" xmlns="http://www.w3.org/2000/svg" xmlns:xlink="http://www.w3.org/1999/xlink" y="0px"><defs><symbol id="3925edfba" overflow="visible"><path d="M62.516-45.234c-13.532 1.78-23.375 4.539-29.532 8.265-6.148 3.719-9.218 8.774-9.218 15.157 0 4.968 1.18 8.667 3.547 11.093C29.675-8.3 33.285-7.094 38.14-7.094c7.5 0 13.437-2.3 17.812-6.906 4.375-4.613 6.563-11.031 6.563-19.25zm1.078 33.609C60.332-7.301 55.719-3.797 49.75-1.109c-5.969 2.687-12.203 4.03-18.703 4.03-7.574 0-13.637-2.023-18.188-6.062-4.554-4.05-6.828-9.421-6.828-16.109 0-8.75 4.39-15.754 13.172-21.016 8.781-5.257 23.219-9.515 43.313-12.765v-13.032c0-4.195-1.688-7.43-5.063-9.703-3.367-2.28-8.18-3.421-14.437-3.421-4.793 0-8.715.636-11.766 1.906-3.043 1.273-4.563 2.824-4.563 4.656 0 .406.723 1.59 2.172 3.547 1.457 1.95 2.188 4.137 2.188 6.562 0 2.836-.844 5.063-2.531 6.688-1.688 1.625-3.98 2.437-6.875 2.437-3.375 0-6.012-.914-7.907-2.75-1.886-1.832-2.828-4.375-2.828-7.625 0-6.675 3.281-12.218 9.844-16.625C27.313-84.797 35.707-87 45.938-87c11.593 0 20.03 2.086 25.312 6.25 5.29 4.168 7.938 10.98 7.938 20.438v43.203c0 2.367.593 4.199 1.78 5.5 1.188 1.293 2.844 1.937 4.97 1.937 1.3 0 2.765-.41 4.39-1.234 1.625-.832 2.645-1.25 3.063-1.25.707 0 1.296.273 1.765.812.477.531.719 1.242.719 2.125 0 2.418-1.719 4.856-5.156 7.313C87.289.55 83.39 1.78 79.016 1.78c-4.2 0-7.641-1.168-10.329-3.5-2.687-2.343-4.386-5.644-5.093-9.906zm0 0"/></symbol></defs><use x="77.509" xlink:href="#3925edfba" y="169"/></svg>