<?xml version="1.0" encoding="UTF-8"?><svg enable-background="new 0 0 250 250" height="250px" viewBox="0 0 250 250" width="250px" x="0px" xml:space="preserve" xmlns="http://www.w3.org/2000/svg" xmlns:xlink="http://www.w3.org/1999/xlink" y="0px"><defs><symbol id="4415ccdda" overflow="visible"><path d="M43.016-2.219L14.188-68.64c-1.243-2.894-2.81-4.921-4.704-6.078-1.886-1.156-4.636-1.734-8.25-1.734H.172v-7.625h42.312v7.625h-7.28c-1.481 0-2.606.328-3.376.984-.762.649-1.14 1.594-1.14 2.844 0 .469.16 1.227.484 2.266.32 1.03.781 2.136 1.375 3.312l19.25 44.344L69.89-66.25c.289-.594.523-1.242.703-1.953a8.773 8.773 0 0 0 .265-2.125c0-2.3-.789-3.863-2.359-4.688-1.563-.832-5.008-1.312-10.328-1.437l-.078-7.625h35.11v7.625c-3.368 0-6.102.758-8.204 2.266-2.094 1.511-3.914 4.011-5.453 7.5L48.859 4.703c-5.199 12-10.515 20.508-15.953 25.531-5.437 5.032-11.855 7.547-19.25 7.547-5.199 0-9.293-1.261-12.281-3.781-2.988-2.512-4.484-5.922-4.484-10.234 0-2.961 1.046-5.493 3.14-7.594 2.102-2.094 4.692-3.14 7.766-3.14 2.957 0 5.281.843 6.969 2.53 1.687 1.688 2.53 4.008 2.53 6.97 0 1-.257 1.984-.765 2.952-.5.977-.75 1.555-.75 1.735 0 .656.297 1.16.89 1.515.595.352 1.392.532 2.392.532 3.25 0 6.972-2.621 11.171-7.86 4.196-5.23 8.04-12.133 11.532-20.703zm0 0"/></symbol></defs><use x="77.775" xlink:href="#4415ccdda" y="169"/></svg>