<?xml version="1.0" encoding="UTF-8"?><svg enable-background="new 0 0 250 250" height="250px" viewBox="0 0 250 250" width="250px" x="0px" xml:space="preserve" xmlns="http://www.w3.org/2000/svg" xmlns:xlink="http://www.w3.org/1999/xlink" y="0px"><defs><symbol id="71739cbfa" overflow="visible"><path d="M92.86 0v-7.625l8.234-.36c2.539-.113 4.21-.597 5.015-1.452.801-.864 1.204-2.626 1.204-5.282v-54.625c0-2.664-.403-4.426-1.204-5.281-.804-.852-2.445-1.344-4.921-1.469l-8.329-.36v-7.624h45.407v7.625l-8.25.36c-2.543.124-4.2.616-4.97 1.468-.773.855-1.155 2.617-1.155 5.281v54.625c0 2.656.394 4.418 1.187 5.281.8.856 2.473 1.34 5.016 1.454l8.172.359V0zM36.89-41.953v27.594c0 2.718.41 4.523 1.235 5.406.832.887 2.46 1.328 4.89 1.328h7.094c7.446 0 12.797-1.27 16.047-3.813 3.25-2.539 4.875-6.648 4.875-12.328 0-6.675-1.851-11.375-5.547-14.093-3.687-2.727-10.261-4.094-19.718-4.094zm0-7.625h17.922c11.344 0 20 2.09 25.97 6.266 5.976 4.167 8.968 10.18 8.968 18.03C89.75-17 87-10.71 81.5-6.421 76-2.14 67.957 0 57.375 0H5.859v-7.625l8.235-.36c2.55-.113 4.222-.597 5.015-1.452.801-.864 1.203-2.626 1.203-5.282v-54.625c0-2.664-.402-4.426-1.203-5.281-.793-.852-2.433-1.344-4.922-1.469l-8.328-.36v-7.624h45.578v7.625l-8.421.36c-2.543.124-4.2.616-4.97 1.468-.773.855-1.155 2.617-1.155 5.281zm0 0"/></symbol></defs><use x="54.185" xlink:href="#71739cbfa" y="169"/></svg>