<?xml version="1.0" encoding="UTF-8"?><svg enable-background="new 0 0 250 250" height="250px" viewBox="0 0 250 250" width="250px" x="0px" xml:space="preserve" xmlns="http://www.w3.org/2000/svg" xmlns:xlink="http://www.w3.org/1999/xlink" y="0px"><defs><symbol id="33521a0ea" overflow="visible"><path d="M54.281-84.078c10.407 0 18.063 1.64 22.969 4.922 4.906 3.281 7.36 8.414 7.36 15.39 0 5.5-1.82 9.907-5.454 13.22-3.636 3.312-9.008 5.437-16.11 6.374 8.634.774 15.18 2.977 19.642 6.61 4.468 3.636 6.703 8.648 6.703 15.03 0 7.157-2.809 12.704-8.422 16.641C75.352-1.96 67.429 0 57.203 0H5.86v-7.625l8.235-.36c2.55-.113 4.222-.597 5.015-1.452.801-.864 1.203-2.626 1.203-5.282v-54.625c0-2.664-.402-4.426-1.203-5.281-.793-.852-2.433-1.344-4.922-1.469l-8.328-.36v-7.624zm-17.39 43.734v25.625c0 2.656.457 4.508 1.375 5.547.914 1.031 2.5 1.547 4.75 1.547h7.797c7.332 0 12.624-1.223 15.874-3.672 3.25-2.457 4.876-6.379 4.876-11.765 0-6.32-1.836-10.782-5.5-13.375-3.657-2.602-10.188-3.907-19.594-3.907zm12.687-36.11h-6.562c-2.188 0-3.758.509-4.703 1.516-.95 1-1.422 2.868-1.422 5.594v22.156h8.687c8.875 0 14.875-1.117 18-3.359 3.133-2.25 4.703-6.238 4.703-11.969 0-4.914-1.465-8.468-4.39-10.656-2.93-2.187-7.7-3.281-14.313-3.281zm0 0"/></symbol></defs><use x="76.977" xlink:href="#33521a0ea" y="169"/></svg>