<?xml version="1.0" encoding="UTF-8"?><svg enable-background="new 0 0 250 250" height="250px" viewBox="0 0 250 250" width="250px" x="0px" xml:space="preserve" xmlns="http://www.w3.org/2000/svg" xmlns:xlink="http://www.w3.org/1999/xlink" y="0px"><defs><symbol id="e28641a0a" overflow="visible"><path d="M22.172 0v-7.625l8.328-.36c2.55-.113 4.223-.597 5.016-1.452.8-.864 1.203-2.626 1.203-5.282V-71.75c0-1.77-.461-3.05-1.375-3.844-.918-.8-2.414-1.203-4.485-1.203-6.5 0-11.199 1.805-14.093 5.406-2.899 3.606-5.262 10.7-7.094 21.282h-5.86l1.594-33.97h79.016l1.875 33.97h-6.031c-1.961-10.696-4.36-17.817-7.204-21.36-2.835-3.55-7.445-5.328-13.828-5.328-2.242 0-3.808.461-4.703 1.375-.886.918-1.328 2.559-1.328 4.922v55.781c0 2.656.399 4.418 1.203 5.281.801.856 2.473 1.34 5.016 1.454l8.328.359V0zm0 0"/></symbol></defs><use x="80.037" xlink:href="#e28641a0a" y="169"/></svg>