<?xml version="1.0" encoding="UTF-8"?><svg enable-background="new 0 0 250 250" height="250px" viewBox="0 0 250 250" width="250px" x="0px" xml:space="preserve" xmlns="http://www.w3.org/2000/svg" xmlns:xlink="http://www.w3.org/1999/xlink" y="0px"><defs><symbol id="921d0b67a" overflow="visible"><path d="M151.469-7.625V0H6.39v-7.625l6.64-.36c2.489-.113 4.114-.581 4.875-1.406.77-.832 1.157-2.609 1.157-5.328v-54.625c0-2.726-.372-4.504-1.11-5.328-.742-.82-2.351-1.297-4.828-1.422l-6.734-.36v-7.624h42.125v7.625l-6.75.36c-2.48.124-4.106.59-4.875 1.39-.774.793-1.157 2.398-1.157 4.812v55.172c0 2.781.426 4.602 1.282 5.453.863.856 2.445 1.282 4.75 1.282h22.703c2.363 0 3.988-.442 4.875-1.329.894-.882 1.344-2.687 1.344-5.406v-54.625c0-2.664-.403-4.426-1.204-5.281-.804-.852-2.445-1.344-4.921-1.469l-6.829-.36v-7.624H99.86v7.625l-6.562.36c-2.48.124-4.121.6-4.922 1.421-.805.824-1.203 2.418-1.203 4.781v55.172c0 2.719.426 4.524 1.281 5.406.863.887 2.508 1.329 4.938 1.329h22.515c2.364 0 3.973-.442 4.828-1.329.864-.882 1.297-2.687 1.297-5.406v-54.625c0-2.664-.386-4.426-1.156-5.281-.773-.852-2.43-1.344-4.969-1.469l-6.562-.36v-7.624h42.125v7.625l-6.735.36c-2.605.124-4.277.6-5.015 1.421-.742.824-1.11 2.602-1.11 5.328v54.625c0 2.719.383 4.496 1.157 5.328.77.825 2.457 1.293 5.062 1.407zm0 0"/></symbol></defs><use x="46.07" xlink:href="#921d0b67a" y="169"/></svg>