<?xml version="1.0" encoding="UTF-8"?><svg enable-background="new 0 0 250 250" height="250px" viewBox="0 0 250 250" width="250px" x="0px" xml:space="preserve" xmlns="http://www.w3.org/2000/svg" xmlns:xlink="http://www.w3.org/1999/xlink" y="0px"><defs><symbol id="6e8d7934a" overflow="visible"><path d="M12.86-86.64h4.78l4.532 7.265c3.133-2.54 6.445-4.414 9.937-5.625 3.489-1.219 7.239-1.828 11.25-1.828 8.395 0 15.016 1.953 19.86 5.86C68.07-77.063 70.5-71.739 70.5-65c0 5.137-1.73 9.406-5.188 12.813-3.46 3.398-8.468 5.714-15.03 6.953 7.331.836 13.066 3.23 17.202 7.187 4.145 3.961 6.22 8.953 6.22 14.984 0 7.93-3.388 14.243-10.157 18.938-6.774 4.695-15.89 7.047-27.36 7.047-9.523 0-17.09-1.965-22.703-5.89-5.617-3.938-8.421-9.188-8.421-15.75 0-4.02 1.078-7.302 3.234-9.845 2.156-2.539 4.828-3.812 8.015-3.812 3.258 0 5.774.844 7.547 2.531 1.77 1.688 2.657 4.012 2.657 6.969 0 3.543-1.45 5.996-4.344 7.36-2.899 1.355-4.344 2.242-4.344 2.656 0 2.304 1.578 4.273 4.735 5.906 3.164 1.625 7.265 2.437 12.296 2.437 6.438 0 11.532-1.656 15.282-4.968 3.757-3.313 5.64-7.774 5.64-13.391 0-6.383-1.586-11.008-4.75-13.875-3.156-2.875-8.312-4.313-15.468-4.313H30.5v-6.921h4.703c6.156 0 10.844-1.399 14.063-4.203 3.218-2.813 4.828-6.907 4.828-12.282 0-4.676-1.246-8.39-3.735-11.14-2.48-2.75-5.82-4.125-10.015-4.125-5.2 0-9.809 2.132-13.828 6.39-4.024 4.262-6.743 9.938-8.157 17.031h-6.562zm0 0"/></symbol></defs><use x="84.294" xlink:href="#6e8d7934a" y="169"/></svg>