<?xml version="1.0" encoding="UTF-8"?><svg enable-background="new 0 0 250 250" height="250px" viewBox="0 0 250 250" width="250px" x="0px" xml:space="preserve" xmlns="http://www.w3.org/2000/svg" xmlns:xlink="http://www.w3.org/1999/xlink" y="0px"><defs><symbol id="4447e6fda" overflow="visible"><path d="M104.469 24.922h-6.735c-1.011-9.762-3.308-16.356-6.89-19.781C87.27 1.71 78.539 0 64.656 0H4.703v-7.625l8.328-.36c2.489-.113 4.114-.581 4.875-1.406.77-.832 1.157-2.609 1.157-5.328v-54.625c0-2.726-.387-4.504-1.157-5.328-.761-.82-2.355-1.297-4.781-1.422l-8.422-.36v-7.624H50.11v7.625l-8.343.36c-2.48.124-4.106.59-4.875 1.39-.774.793-1.157 2.398-1.157 4.812v55.172c0 2.781.426 4.602 1.282 5.453.863.856 2.445 1.282 4.75 1.282h25.64c2.364 0 3.973-.442 4.828-1.329.852-.882 1.282-2.687 1.282-5.406v-54.625c0-2.664-.403-4.426-1.204-5.281-.792-.852-2.43-1.344-4.906-1.469l-8.344-.36v-7.624h45.407v7.625l-8.25.36c-2.543.124-4.2.616-4.969 1.468-.762.855-1.14 2.617-1.14 5.281v54.625c0 2.656.394 4.418 1.187 5.281.8.856 2.473 1.34 5.016 1.454l8.156.359zm0 0"/></symbol></defs><use x="70.414" xlink:href="#4447e6fda" y="169"/></svg>