<?xml version="1.0" encoding="UTF-8"?><svg enable-background="new 0 0 250 250" height="250px" viewBox="0 0 250 250" width="250px" x="0px" xml:space="preserve" xmlns="http://www.w3.org/2000/svg" xmlns:xlink="http://www.w3.org/1999/xlink" y="0px"><defs><symbol id="2df7b269a" overflow="visible"><path d="M96.047-84.078v7.812l-8.344.172c-2.543.125-4.2.617-4.969 1.469-.761.855-1.14 2.617-1.14 5.281v54.625c0 2.656.379 4.418 1.14 5.281.77.856 2.457 1.34 5.063 1.454l8.25.359V0H50.469v-7.625l8.328-.36c2.539-.113 4.207-.597 5-1.452.8-.864 1.203-2.626 1.203-5.282v-61.547H54.453c-9.281 0-14.398 8.188-15.344 24.563-.418 7.574-.859 13.84-1.328 18.797-1.242 13.304-3.445 22.414-6.61 27.328-3.167 4.906-8.058 7.36-14.671 7.36-4.2 0-7.656-1.259-10.375-3.766-2.719-2.52-4.078-5.551-4.078-9.094 0-3.79.926-6.735 2.781-8.828 1.863-2.102 4.484-3.157 7.86-3.157 2.476 0 4.53.774 6.156 2.313 1.625 1.531 2.437 3.422 2.437 5.672 0 2.25-.797 4.203-2.39 5.86C17.297-7.564 16.5-6.556 16.5-6.204c0 .355.188.668.563.937.382.262.875.391 1.468.391 2.426 0 4.469-1.063 6.125-3.188 1.657-2.132 2.867-5.269 3.64-9.406 1.24-5.914 2.286-13.468 3.142-22.656.851-9.195 1.28-17.992 1.28-26.39 0-3.782-.562-6.305-1.687-7.579-1.117-1.27-3.39-1.937-6.828-2l-7.094-.172v-7.812zm0 0"/></symbol></defs><use x="73.962" xlink:href="#2df7b269a" y="169"/></svg>