<?xml version="1.0" encoding="UTF-8"?><svg enable-background="new 0 0 250 250" height="250px" viewBox="0 0 250 250" width="250px" x="0px" xml:space="preserve" xmlns="http://www.w3.org/2000/svg" xmlns:xlink="http://www.w3.org/1999/xlink" y="0px"><defs><symbol id="97946f84a" overflow="visible"><path d="M5.86 0v-7.625l8.234-.36c2.55-.113 4.222-.597 5.015-1.452.801-.864 1.203-2.626 1.203-5.282v-54.625c0-2.664-.402-4.426-1.203-5.281-.793-.852-2.433-1.344-4.922-1.469l-8.328-.36v-7.624h69.516l1.61 29.797h-6.829c-1.43-8.032-3.96-13.703-7.594-17.016-3.636-3.312-9.12-4.969-16.453-4.969-3.843 0-6.343.403-7.5 1.204-1.148.792-1.718 2.699-1.718 5.718v54.625c0 2.656.394 4.418 1.187 5.281.8.856 2.473 1.34 5.016 1.454l8.343.359V0zm0 0"/></symbol></defs><use x="85.225" xlink:href="#97946f84a" y="169"/></svg>