<?xml version="1.0" encoding="UTF-8"?><svg enable-background="new 0 0 250 250" height="250px" viewBox="0 0 250 250" width="250px" x="0px" xml:space="preserve" xmlns="http://www.w3.org/2000/svg" xmlns:xlink="http://www.w3.org/1999/xlink" y="0px"><defs><symbol id="242edf56a" overflow="visible"><path d="M5.86 0v-7.625l8.234-.36c2.55-.113 4.222-.597 5.015-1.452.801-.864 1.203-2.626 1.203-5.282v-54.625c0-2.664-.402-4.426-1.203-5.281-.793-.852-2.433-1.344-4.922-1.469l-8.328-.36v-7.624h45.578v7.625l-8.421.36c-2.543.124-4.2.616-4.97 1.468-.773.855-1.155 2.617-1.155 5.281v21.89h5.406c5.445 0 9.516-1 12.203-3 2.688-2.007 4.563-5.53 5.625-10.562.3-1.414.719-3.457 1.25-6.125 2.594-13.593 8.352-20.39 17.281-20.39 4.551 0 8.258 1.246 11.125 3.734 2.875 2.48 4.313 5.7 4.313 9.656 0 3.075-.86 5.512-2.578 7.313-1.711 1.805-4.012 2.703-6.907 2.703-2.718 0-4.82-.645-6.296-1.938-1.481-1.3-2.22-3.132-2.22-5.5 0-1.601.571-3.218 1.72-4.843 1.156-1.625 1.734-2.551 1.734-2.781 0-.477-.242-.864-.719-1.157-.469-.3-1.086-.453-1.844-.453-3.968 0-6.87 4.64-8.703 13.922v.188l-.078.437c-2.074 11.418-5.86 18.422-11.36 21.016 5.438.836 9.571 2.375 12.407 4.625 2.844 2.242 5.004 5.668 6.484 10.28.883 2.782 1.711 6.743 2.485 11.876 1.238 7.812 3.367 11.719 6.39 11.719 1.832 0 3.176-.782 4.032-2.344.851-1.57 1.28-3.985 1.28-7.235v-2.046h5.407c0 .656.031 1.28.094 1.875l.094.875c0 6.21-1.305 10.882-3.907 14.015C89.004 1.54 85.102 3.11 79.906 3.11c-9.281 0-14.992-7.507-17.125-22.53-.355-2.54-.648-4.493-.875-5.86-.949-6.082-2.562-10.172-4.843-12.266-2.274-2.101-5.981-3.156-11.126-3.156h-9.046v25.984c0 2.656.394 4.418 1.187 5.281.8.856 2.473 1.34 5.016 1.454l8.343.359V0zm0 0"/></symbol></defs><use x="75.957" xlink:href="#242edf56a" y="169"/></svg>