<?xml version="1.0" encoding="UTF-8"?><svg enable-background="new 0 0 250 250" height="250px" viewBox="0 0 250 250" width="250px" x="0px" xml:space="preserve" xmlns="http://www.w3.org/2000/svg" xmlns:xlink="http://www.w3.org/1999/xlink" y="0px"><defs><symbol id="310a4a32a" overflow="visible"><path d="M1.422 0L1.5-7.625c3.438-.29 6.25-.926 8.438-1.906 2.187-.977 4.488-2.883 6.906-5.719l22.968-25.813L14.547-71.39c-1.594-1.832-3.18-3.132-4.75-3.906-1.563-.77-3.438-1.156-5.625-1.156H2.578v-7.625h41.938v6.922c-4.25.117-7.043.398-8.375.844-1.336.449-2 1.171-2 2.171 0 1.012.707 2.371 2.125 4.079.238.242.445.48.625.718L49.92-53.39l12.595-13.828a11.525 11.525 0 0 0 1.64-2.531c.446-.914.672-1.695.672-2.344 0-1.781-.797-3.05-2.39-3.812-1.594-.77-4.376-1.219-8.344-1.344v-6.828h36.36v7.547c-3.25.18-5.946.71-8.079 1.594-2.125.886-4.516 2.808-7.172 5.765L54.813-46.64 78.124-16.5c.125.18.3.418.531.719 4.258 5.554 9.348 8.328 15.266 8.328V0H49.75l.094-7.625c4.02-.113 6.828-.438 8.422-.969 1.593-.539 2.39-1.367 2.39-2.484 0-.54-.164-1.117-.484-1.735-.324-.624-1.078-1.734-2.266-3.328l-13.203-18-14.906 15.953c-.824.95-1.461 1.899-1.906 2.844-.45.95-.672 1.899-.672 2.844 0 1.773.828 3.027 2.484 3.766 1.656.742 4.703 1.109 9.14 1.109V0zm0 0"/></symbol></defs><use x="77.243" xlink:href="#310a4a32a" y="169"/></svg>