<?xml version="1.0" encoding="UTF-8"?><svg enable-background="new 0 0 250 250" height="250px" viewBox="0 0 250 250" width="250px" x="0px" xml:space="preserve" xmlns="http://www.w3.org/2000/svg" xmlns:xlink="http://www.w3.org/1999/xlink" y="0px"><defs><symbol id="f5e71323a" overflow="visible"><path d="M2.39 0v-7.625l8.25-.36c2.602-.113 4.286-.597 5.047-1.452.77-.864 1.157-2.626 1.157-5.282v-54.625c0-2.664-.387-4.426-1.157-5.281-.761-.852-2.414-1.344-4.953-1.469l-8.343-.36v-7.624h33.343l23.157 62.61 22.25-62.61h34.593v7.625l-8.421.36c-2.543.124-4.2.616-4.97 1.468-.773.855-1.156 2.617-1.156 5.281v54.625c0 2.656.395 4.418 1.188 5.281.8.856 2.473 1.34 5.016 1.454l8.343.359V0H71.031v-7.625l8.25-.36c2.602-.113 4.301-.597 5.094-1.452.8-.864 1.203-2.626 1.203-5.282v-61.015L58.438 0H52.14L23.594-75.734v61.015c0 2.656.394 4.418 1.187 5.281.801.856 2.473 1.34 5.016 1.454l8.344.359V0zm0 0"/></symbol></defs><use x="64.162" xlink:href="#f5e71323a" y="169"/></svg>