<?xml version="1.0" encoding="UTF-8"?><svg enable-background="new 0 0 250 250" height="250px" viewBox="0 0 250 250" width="250px" x="0px" xml:space="preserve" xmlns="http://www.w3.org/2000/svg" xmlns:xlink="http://www.w3.org/1999/xlink" y="0px"><defs><symbol id="b4128b73a" overflow="visible"><path d="M4.703 0v-7.625l8.328-.36c2.489-.113 4.114-.581 4.875-1.406.77-.832 1.157-2.609 1.157-5.328v-54.625c0-2.726-.387-4.504-1.157-5.328-.761-.82-2.355-1.297-4.781-1.422l-8.422-.36v-7.624h99.766v7.625l-8.25.36c-2.543.124-4.2.616-4.969 1.468-.762.855-1.14 2.617-1.14 5.281v54.625c0 2.656.394 4.418 1.187 5.281.8.856 2.473 1.34 5.016 1.454l8.156.359V0H59.063v-7.625l8.25-.36c2.601-.113 4.285-.597 5.046-1.452.77-.864 1.157-2.626 1.157-5.282v-54.625c0-2.726-.446-4.535-1.329-5.422-.886-.882-2.48-1.328-4.78-1.328H41.765c-2.305 0-3.887.418-4.75 1.25-.856.824-1.282 2.656-1.282 5.5v55.156c0 2.368.399 3.965 1.203 4.797.801.825 2.442 1.293 4.922 1.407l8.25.359V0zm0 0"/></symbol></defs><use x="70.414" xlink:href="#b4128b73a" y="169"/></svg>