<?xml version="1.0" encoding="UTF-8"?><svg enable-background="new 0 0 250 250" height="250px" viewBox="0 0 250 250" width="250px" x="0px" xml:space="preserve" xmlns="http://www.w3.org/2000/svg" xmlns:xlink="http://www.w3.org/1999/xlink" y="0px"><defs><symbol id="f22934f0a" overflow="visible"><path d="M93.203-79.547c-7.687 0-13.308 2.984-16.86 8.953-3.542 5.969-5.312 15.516-5.312 28.64 0 13.013 1.758 22.509 5.281 28.485 3.52 5.969 9.094 8.953 16.72 8.953 7.8 0 13.46-2.957 16.984-8.875 3.52-5.914 5.28-15.437 5.28-28.562 0-13.125-1.76-22.672-5.28-28.64-3.524-5.97-9.125-8.954-16.813-8.954zM4.703 0v-7.625l8.328-.36c2.489-.113 4.114-.581 4.875-1.406.77-.832 1.157-2.609 1.157-5.328v-54.625c0-2.726-.387-4.504-1.157-5.328-.761-.82-2.355-1.297-4.781-1.422l-8.422-.36v-7.624H50.11v7.625l-8.343.36c-2.48.124-4.106.6-4.875 1.421-.774.824-1.157 2.602-1.157 5.328v21.36H52.5c1.594-12.176 6.008-21.723 13.25-28.641C73-83.539 82.148-87 93.203-87c12 0 21.77 4.184 29.313 12.547 7.539 8.367 11.312 19.2 11.312 32.5 0 13.367-3.758 24.187-11.266 32.469-7.511 8.273-17.296 12.406-29.359 12.406-11.762 0-21.355-3.899-28.781-11.703-7.418-7.801-11.39-18.176-11.922-31.125L35.734-40v25.281c0 2.719.383 4.496 1.157 5.328.77.825 2.425 1.293 4.968 1.407l8.25.359V0zm0 0"/></symbol></defs><use x="55.072" xlink:href="#f22934f0a" y="169"/></svg>