<?xml version="1.0" encoding="UTF-8"?><svg enable-background="new 0 0 250 250" height="250px" viewBox="0 0 250 250" width="250px" x="0px" xml:space="preserve" xmlns="http://www.w3.org/2000/svg" xmlns:xlink="http://www.w3.org/1999/xlink" y="0px"><defs><symbol id="410ae9b5a" overflow="visible"><path d="M60.484-40.969l-29.093-.093v-6.922h28.734c0-9.688-1.969-17.399-5.906-23.141-3.93-5.738-9.11-8.61-15.547-8.61-5.742 0-10.668 2.06-14.781 6.172-4.106 4.106-6.922 9.856-8.453 17.25H9.046l.172-30.328h4.61l4.702 7.266c3.313-2.54 6.594-4.414 9.844-5.625a28.55 28.55 0 0 1 10.11-1.828c12 0 21.78 4.277 29.343 12.828 7.57 8.543 11.36 19.64 11.36 33.297 0 13.418-3.774 24.043-11.313 31.875C60.344-.992 50.07 2.922 37.062 2.922c-9.28 0-16.851-2.055-22.703-6.156-5.843-4.114-8.765-9.274-8.765-15.485 0-4.02 1.101-7.3 3.312-9.843 2.219-2.54 4.953-3.813 8.203-3.813 3.196 0 5.68.844 7.453 2.531 1.77 1.688 2.657 4.012 2.657 6.969 0 3.543-1.45 5.996-4.344 7.36-2.898 1.355-4.344 2.242-4.344 2.656 0 2.187 1.657 4.125 4.969 5.812 3.313 1.688 7.332 2.531 12.063 2.531 7.976 0 14.082-3.117 18.312-9.359 4.227-6.238 6.43-15.27 6.61-27.094zm0 0"/></symbol></defs><use x="82.52" xlink:href="#410ae9b5a" y="169"/></svg>