<?xml version="1.0" encoding="UTF-8"?><svg enable-background="new 0 0 250 250" height="250px" viewBox="0 0 250 250" width="250px" x="0px" xml:space="preserve" xmlns="http://www.w3.org/2000/svg" xmlns:xlink="http://www.w3.org/1999/xlink" y="0px"><defs><symbol id="a47cb34ea" overflow="visible"><path d="M49.594-8.453h20.11c3.757 0 5.64 1.414 5.64 4.234C75.344-1.406 73.46 0 69.704 0H20.921c-3.75 0-5.625-1.406-5.625-4.219 0-2.82 1.875-4.234 5.625-4.234h20.125v-70.11H20.922c-3.75 0-5.625-1.406-5.625-4.218 0-2.883 1.875-4.328 5.625-4.328h88.516v42.14c0 3.762-1.446 5.64-4.329 5.64-2.812 0-4.218-1.878-4.218-5.64v-33.593H49.594zm0 0"/></symbol></defs><use x="63.266" xlink:href="#a47cb34ea" y="169"/></svg>