<?xml version="1.0" encoding="UTF-8"?><svg enable-background="new 0 0 250 250" height="250px" viewBox="0 0 250 250" width="250px" x="0px" xml:space="preserve" xmlns="http://www.w3.org/2000/svg" xmlns:xlink="http://www.w3.org/1999/xlink" y="0px"><defs><symbol id="3739dea9a" overflow="visible"><path d="M35.703-78.563v28.47h25.25c26.02 0 39.031 7.98 39.031 23.937 0 6.906-2.199 12.996-6.593 18.265C89.004-2.629 78.19 0 60.953 0H22.328c-3.75 0-5.625-1.406-5.625-4.219 0-2.82 1.875-4.234 5.625-4.234h4.938v-70.11h-4.532C18.91-78.563 17-79.969 17-82.78c0-2.883 1.91-4.328 5.734-4.328h24.344c3.75 0 5.625 1.445 5.625 4.328 0 2.812-1.875 4.219-5.625 4.219zm0 70.11h24.844c12.676 0 20.957-1.504 24.844-4.516 3.894-3.02 5.843-7.281 5.843-12.781 0-6.375-2.554-10.598-7.656-12.672-5.094-2.082-12.902-3.125-23.422-3.125H35.703zm0 0"/></symbol></defs><use x="63.266" xlink:href="#3739dea9a" y="169"/></svg>