<?xml version="1.0" encoding="UTF-8"?><svg enable-background="new 0 0 250 250" height="250px" viewBox="0 0 250 250" width="250px" x="0px" xml:space="preserve" xmlns="http://www.w3.org/2000/svg" xmlns:xlink="http://www.w3.org/1999/xlink" y="0px"><defs><symbol id="35499016a" overflow="visible"><path d="M31.578 0h-20.11c-3.761 0-5.64-1.406-5.64-4.219 0-2.82 1.879-4.234 5.64-4.234h10.157v-70.11H11.469c-3.762 0-5.64-1.406-5.64-4.218 0-2.883 1.878-4.328 5.64-4.328h29.968c3.758 0 5.641 1.445 5.641 4.328 0 2.812-1.883 4.219-5.64 4.219h-11.36v66.39l60.86-74.937h21.218c3.75 0 5.625 1.445 5.625 4.328 0 2.812-1.875 4.219-5.625 4.219h-11.375v70.109h11.375c3.75 0 5.625 1.414 5.625 4.234 0 2.813-1.875 4.219-5.625 4.219H80.97c-3.75 0-5.625-1.406-5.625-4.219 0-2.82 1.875-4.234 5.625-4.234h11.375v-66.281zm6.235-126.563c1.207 0 2.175.356 2.906 1.063.738.7 1.176 1.953 1.312 3.766.407 3.824 2.586 7.246 6.547 10.265 3.883 3.012 8.977 4.516 15.281 4.516 6.239 0 11.317-1.504 15.235-4.516 3.926-3.02 6.094-6.441 6.5-10.265.195-1.813.597-3.02 1.203-3.625.875-.801 1.879-1.204 3.016-1.204 1.207 0 2.226.422 3.062 1.266.844.836 1.266 1.953 1.266 3.36 0 6.042-2.735 11.48-8.204 16.312-5.468 4.824-12.828 7.234-22.078 7.234s-16.609-2.41-22.078-7.234c-5.468-4.832-8.203-10.27-8.203-16.313 0-1.406.399-2.523 1.203-3.359.813-.844 1.82-1.266 3.032-1.266zm0 0"/></symbol></defs><use x="63.266" xlink:href="#35499016a" y="169"/></svg>