<?xml version="1.0" encoding="UTF-8"?><svg enable-background="new 0 0 250 250" height="250px" viewBox="0 0 250 250" width="250px" x="0px" xml:space="preserve" xmlns="http://www.w3.org/2000/svg" xmlns:xlink="http://www.w3.org/1999/xlink" y="0px"><defs><symbol id="98429b38a" overflow="visible"><path d="M31.578 0h-20.11c-3.761 0-5.64-1.406-5.64-4.219 0-2.82 1.879-4.234 5.64-4.234h10.157v-70.11H11.469c-3.762 0-5.64-1.406-5.64-4.218 0-2.883 1.878-4.328 5.64-4.328h29.968c3.758 0 5.641 1.445 5.641 4.328 0 2.812-1.883 4.219-5.64 4.219h-11.36v66.39l60.86-74.937h21.218c3.75 0 5.625 1.445 5.625 4.328 0 2.812-1.875 4.219-5.625 4.219h-11.375v70.109h11.375c3.75 0 5.625 1.414 5.625 4.234 0 2.813-1.875 4.219-5.625 4.219H80.97c-3.75 0-5.625-1.406-5.625-4.219 0-2.82 1.875-4.234 5.625-4.234h11.375v-66.281zm0 0"/></symbol></defs><use x="63.266" xlink:href="#98429b38a" y="169"/></svg>