<?xml version="1.0" encoding="UTF-8"?><svg enable-background="new 0 0 250 250" height="250px" viewBox="0 0 250 250" width="250px" x="0px" xml:space="preserve" xmlns="http://www.w3.org/2000/svg" xmlns:xlink="http://www.w3.org/1999/xlink" y="0px"><defs><symbol id="5848ce8ba" overflow="visible"><path d="M88.219-8.453v-31.578C77.082-32.25 64.579-28.36 50.703-28.36c-7.512 0-14.07-1.641-19.672-4.922-5.605-3.29-8.406-10.469-8.406-21.532v-23.75h-8.547c-4.687 0-7.031-1.406-7.031-4.218 0-2.883 2.344-4.328 7.031-4.328h27.766c4.758 0 7.14 1.445 7.14 4.328 0 2.812-2.382 4.219-7.14 4.219H31.078v23.75c0 6.367 1.375 10.976 4.125 13.828 2.75 2.843 7.914 4.265 15.5 4.265 11.594 0 24.098-4.32 37.516-12.968v-28.876h-8.953c-4.762 0-7.141-1.406-7.141-4.218 0-2.883 2.379-4.328 7.14-4.328h26.25c4.696 0 7.047 1.445 7.047 4.328 0 2.812-2.351 4.219-7.046 4.219h-8.75v70.109h8.75c4.695 0 7.046 1.414 7.046 4.234 0 2.813-2.351 4.219-7.046 4.219H65.375c-4.762 0-7.14-1.406-7.14-4.219 0-2.82 2.378-4.234 7.14-4.234zm0 0"/></symbol></defs><use x="63.266" xlink:href="#5848ce8ba" y="169"/></svg>