<?xml version="1.0" encoding="UTF-8"?><svg enable-background="new 0 0 250 250" height="250px" viewBox="0 0 250 250" width="250px" x="0px" xml:space="preserve" xmlns="http://www.w3.org/2000/svg" xmlns:xlink="http://www.w3.org/1999/xlink" y="0px"><defs><symbol id="e579e8d1a" overflow="visible"><path d="M99.078-78.563v70.11h8.453c4.688 0 7.031 1.414 7.031 4.234 0 2.813-2.343 4.219-7.03 4.219h-25.25c-4.7 0-7.048-1.406-7.048-4.219 0-2.82 2.348-4.234 7.047-4.234h8.344v-70.11H49.094v48.594c0 11.73-2.555 20.211-7.657 25.438C36.344.695 29.739 3.312 21.625 3.312c-3.355 0-6.64-.402-9.86-1.203C8.548 1.305 6.634.453 6.032-.453c-.605-.906-.906-2.735-.906-5.484v-8.344c0-4.227 1.508-6.344 4.531-6.344 2.614 0 3.922 1.95 3.922 5.844v8.25c3.082.73 5.832 1.093 8.25 1.093 12.469 0 18.703-8.175 18.703-24.53v-48.594H29.47c-4.688 0-7.032-1.407-7.032-4.22 0-2.882 2.344-4.327 7.032-4.327h78.062c4.688 0 7.031 1.445 7.031 4.328 0 2.812-2.343 4.219-7.03 4.219zm0 0"/></symbol></defs><use x="63.266" xlink:href="#e579e8d1a" y="169"/></svg>