<?xml version="1.0" encoding="UTF-8"?><svg enable-background="new 0 0 250 250" height="250px" viewBox="0 0 250 250" width="250px" x="0px" xml:space="preserve" xmlns="http://www.w3.org/2000/svg" xmlns:xlink="http://www.w3.org/1999/xlink" y="0px"><defs><symbol id="71f1e022a" overflow="visible"><path d="M65.984-78.563v70.11h21.922c3.82 0 5.735 1.414 5.735 4.234C93.64-1.406 91.727 0 87.906 0H35.61c-3.824 0-5.734-1.406-5.734-4.219 0-2.82 1.91-4.234 5.734-4.234h21.922v-70.11h-32.39v29.282c0 3.75-1.407 5.625-4.22 5.625-2.812 0-4.218-1.875-4.218-5.625V-87.11h90.219v37.828c0 3.75-1.406 5.625-4.219 5.625-2.887 0-4.328-1.875-4.328-5.625v-29.282zm0 0"/></symbol></defs><use x="63.266" xlink:href="#71f1e022a" y="169"/></svg>