<?xml version="1.0" encoding="UTF-8"?><svg enable-background="new 0 0 250 250" height="250px" viewBox="0 0 250 250" width="250px" x="0px" xml:space="preserve" xmlns="http://www.w3.org/2000/svg" xmlns:xlink="http://www.w3.org/1999/xlink" y="0px"><defs><symbol id="d24062d8a" overflow="visible"><path d="M106.016 0H13.375C9.625 0 7.75-1.406 7.75-4.219c0-2.82 1.875-4.234 5.625-4.234h9.563v-70.11H16.39c-3.75 0-5.625-1.406-5.625-4.218 0-2.883 1.875-4.328 5.625-4.328h21.53c3.75 0 5.626 1.445 5.626 4.328 0 2.812-1.875 4.219-5.625 4.219H31.39v70.109h54.812v-70.11h-6.437c-3.825 0-5.735-1.406-5.735-4.218 0-2.883 1.91-4.328 5.735-4.328h21.421c3.758 0 5.641 1.445 5.641 4.328 0 2.812-1.883 4.219-5.64 4.219h-6.532v70.109h12.766c3.02 0 4.96.406 5.828 1.219.875.804 1.313 2.746 1.313 5.828V14.39c0 4.55-1.407 6.828-4.22 6.828-2.886 0-4.327-2.18-4.327-6.532zm0 0"/></symbol></defs><use x="63.266" xlink:href="#d24062d8a" y="169"/></svg>