<?xml version="1.0" encoding="UTF-8"?><svg enable-background="new 0 0 250 250" height="250px" viewBox="0 0 250 250" width="250px" x="0px" xml:space="preserve" xmlns="http://www.w3.org/2000/svg" xmlns:xlink="http://www.w3.org/1999/xlink" y="0px"><defs><symbol id="6b2e7af7a" overflow="visible"><path d="M66.89-8.453h-9.656L24.75-78.563h-.406v70.11h15.593c3.75 0 5.626 1.414 5.626 4.234C45.563-1.406 43.687 0 39.937 0H8.75C5 0 3.125-1.406 3.125-4.219c0-2.82 1.875-4.234 5.625-4.234h7.14v-70.11h-5.328c-3.761 0-5.64-1.406-5.64-4.218 0-2.883 1.879-4.328 5.64-4.328h19.516L62.063-18l31.484-69.11h19.516c3.82 0 5.734 1.446 5.734 4.329 0 2.812-1.914 4.219-5.734 4.219h-5.235v70.109h7.047c3.82 0 5.734 1.414 5.734 4.234 0 2.813-1.914 4.219-5.734 4.219H83.781c-3.812 0-5.719-1.406-5.719-4.219 0-2.82 1.907-4.234 5.72-4.234h15.5v-70.11h-.5zm0 0"/></symbol></defs><use x="63.266" xlink:href="#6b2e7af7a" y="169"/></svg>