<?xml version="1.0" encoding="UTF-8"?><svg enable-background="new 0 0 250 250" height="250px" viewBox="0 0 250 250" width="250px" x="0px" xml:space="preserve" xmlns="http://www.w3.org/2000/svg" xmlns:xlink="http://www.w3.org/1999/xlink" y="0px"><defs><symbol id="13540c6ea" overflow="visible"><path d="M29.969-87.11v15.391C35-77.82 40.395-82.414 46.156-85.5c5.77-3.082 12.582-4.625 20.438-4.625 8.312 0 15.988 1.95 23.031 5.844 7.04 3.886 12.488 9.297 16.344 16.234 3.851 6.938 5.781 14.23 5.781 21.875 0 12.137-4.344 22.516-13.031 31.14-8.68 8.618-19.356 12.923-32.031 12.923-15.086 0-27.325-6.133-36.72-18.407v50.891H50.5c2.008 0 3.445.383 4.313 1.156.874.77 1.312 1.797 1.312 3.078 0 1.196-.438 2.196-1.313 3-.867.813-2.304 1.22-4.312 1.22H10.156c-2.011 0-3.453-.388-4.328-1.157-.867-.774-1.297-1.793-1.297-3.063 0-1.28.43-2.308 1.297-3.078.875-.773 2.317-1.156 4.328-1.156h11.375V-78.563H10.156c-2.011 0-3.453-.398-4.328-1.203-.867-.8-1.297-1.843-1.297-3.125 0-1.195.43-2.195 1.297-3 .875-.812 2.317-1.218 4.328-1.218zm73.234 40.938c0-9.719-3.539-18.047-10.61-24.984-7.073-6.946-15.71-10.422-25.906-10.422-10.261 0-18.949 3.492-26.062 10.469-7.105 6.968-10.656 15.28-10.656 24.937 0 9.73 3.55 18.086 10.656 25.063 7.113 6.968 15.8 10.453 26.063 10.453 10.124 0 18.738-3.469 25.843-10.406 7.114-6.946 10.672-15.317 10.672-25.11zm0 0"/></symbol></defs><use x="63.266" xlink:href="#13540c6ea" y="169"/></svg>