<?xml version="1.0" encoding="UTF-8"?><svg enable-background="new 0 0 250 250" height="250px" viewBox="0 0 250 250" width="250px" x="0px" xml:space="preserve" xmlns="http://www.w3.org/2000/svg" xmlns:xlink="http://www.w3.org/1999/xlink" y="0px"><defs><symbol id="c9505bf4a" overflow="visible"><path d="M97.781-47.078H53.22c-3.824 0-5.735 1.414-5.735 4.234 0 2.813 1.91 4.219 5.735 4.219H97.78c-1.281 10.531-5.496 18.75-12.64 24.656-7.137 5.899-15.735 8.844-25.797 8.844-15.219 0-28.059-5.098-38.516-15.297-1.406-1.344-2.648-2.015-3.719-2.015-2.687 0-4.03 1.343-4.03 4.03 0 3.555 4.827 8.063 14.483 13.532C37.22.582 47.945 3.313 59.75 3.313c13.813 0 25.04-4.391 33.688-13.172 8.656-8.782 12.984-19.743 12.984-32.891 0-13.406-4.445-24.648-13.328-33.734-8.887-9.094-20.2-13.641-33.938-13.641-12.949 0-23.812 3.855-32.593 11.563v-2.813c0-3.82-1.415-5.734-4.235-5.734-2.875 0-4.312 1.914-4.312 5.734v19.11c0 3.824 1.437 5.734 4.312 5.734 2.55 0 3.961-1.676 4.235-5.032.468-5.425 3.898-10.117 10.296-14.078 6.407-3.957 14.004-5.937 22.797-5.937 10.32 0 18.922 3.023 25.797 9.062 6.875 6.032 10.984 14.512 12.328 25.438zm0 0"/></symbol></defs><use x="63.266" xlink:href="#c9505bf4a" y="169"/></svg>