<?xml version="1.0" encoding="UTF-8"?><svg enable-background="new 0 0 250 250" height="250px" viewBox="0 0 250 250" width="250px" x="0px" xml:space="preserve" xmlns="http://www.w3.org/2000/svg" xmlns:xlink="http://www.w3.org/1999/xlink" y="0px"><defs><symbol id="be9f9df8a" overflow="visible"><path d="M66.078-78.563V-51h2.016c2.687 0 5.066-1.035 7.14-3.11 2.082-2.081 5.602-6.976 10.563-14.687 5.031-7.844 9.004-12.851 11.922-15.031 2.914-2.188 7.191-3.281 12.828-3.281 3.082 0 5.023.468 5.828 1.406.8.937 1.203 2.851 1.203 5.734v7.047c0 4.293-1.371 6.438-4.11 6.438-2.96 0-4.437-1.91-4.437-5.735v-6.344c-2.949 0-5.449.758-7.5 2.266-2.043 1.512-5.074 5.484-9.094 11.922-5.367 8.781-9.453 14.18-12.265 16.188 6.164 3.43 12 10.039 17.5 19.828l11.062 19.906h5.735c4.695 0 7.047 1.414 7.047 4.234 0 2.813-2.352 4.219-7.047 4.219h-5.438c-2.75 0-4.46-.18-5.125-.547-.668-.375-1.64-1.734-2.922-4.078L89.922-24.547c-6.637-12-13.64-18-21.016-18h-2.828v34.094h5.844c4.758 0 7.14 1.414 7.14 4.234C79.063-1.406 76.68 0 71.922 0H51.594c-4.762 0-7.14-1.406-7.14-4.219 0-2.82 2.378-4.234 7.14-4.234h5.937v-34.094h-2.906c-7.387 0-14.398 6-21.031 18L22.53-4.625C21.258-2.344 20.301-1 19.656-.594 19.02-.195 17.395 0 14.781 0H9.047C4.359 0 2.016-1.406 2.016-4.219c0-2.82 2.343-4.234 7.03-4.234h5.735L25.953-28.36c5.031-8.989 10.832-15.598 17.406-19.828-2.824-2.27-6.918-7.665-12.28-16.188-4.087-6.375-7.118-10.332-9.095-11.875-1.98-1.54-4.48-2.313-7.5-2.313v6.344c0 3.824-1.406 5.735-4.218 5.735-2.887 0-4.329-2.145-4.329-6.438v-7.047c0-2.883.364-4.797 1.094-5.734.739-.938 2.285-1.406 4.64-1.406 5.895 0 10.536 1.093 13.923 3.28 3.383 2.18 7.46 7.188 12.234 15.032 4.957 8.25 8.625 13.281 11 15.094C51.211-51.898 53.41-51 55.422-51h2.11v-27.563h-5.938c-4.762 0-7.14-1.406-7.14-4.218 0-2.883 2.378-4.328 7.14-4.328h20.328c4.758 0 7.14 1.445 7.14 4.328 0 2.812-2.382 4.219-7.14 4.219zm0 0"/></symbol></defs><use x="63.266" xlink:href="#be9f9df8a" y="169"/></svg>