<?xml version="1.0" encoding="UTF-8"?><svg enable-background="new 0 0 250 250" height="250px" viewBox="0 0 250 250" width="250px" x="0px" xml:space="preserve" xmlns="http://www.w3.org/2000/svg" xmlns:xlink="http://www.w3.org/1999/xlink" y="0px"><defs><symbol id="36c7c5bea" overflow="visible"><path d="M102-78.563c-5.031 0-8.727.727-11.078 2.172-2.344 1.438-6.336 5.61-11.969 12.516-7.105 8.719-12.469 14.184-16.094 16.39a31.355 31.355 0 0 1 9 3.829c2.79 1.742 7.133 6.804 13.032 15.187L98.984-8.453h11.86c4.695 0 7.047 1.414 7.047 4.234 0 2.813-2.352 4.219-7.047 4.219h-11.86c-3.43 0-5.71-.867-6.843-2.61-.211-.406-.547-.94-1.016-1.609L76.844-25.344C72.02-32.52 67.19-37.18 62.359-39.328c-4.824-2.145-10.89-3.219-18.203-3.219h-6.234v34.094h10.266c4.687 0 7.03 1.414 7.03 4.234 0 2.813-2.343 4.219-7.03 4.219H19.108c-4.687 0-7.03-1.406-7.03-4.219 0-2.82 2.343-4.234 7.03-4.234h10.266v-70.11H19.109c-4.687 0-7.03-1.406-7.03-4.218 0-2.883 2.343-4.328 7.03-4.328h29.078c4.688 0 7.032 1.445 7.032 4.328 0 2.812-2.344 4.219-7.032 4.219H37.922V-51h6.234c5.438 0 9.594-.8 12.469-2.406 2.883-1.614 6.707-5.336 11.469-11.172 8.25-10.063 14.18-16.332 17.797-18.813 3.625-2.476 9.062-3.718 16.312-3.718 3.414 0 5.64.406 6.672 1.218 1.04.805 1.563 2.778 1.563 5.922v11.563c0 4.031-1.438 6.047-4.313 6.047-2.75 0-4.125-1.774-4.125-5.328zm0 0"/></symbol></defs><use x="63.266" xlink:href="#36c7c5bea" y="169"/></svg>