<?xml version="1.0" encoding="UTF-8"?><svg enable-background="new 0 0 250 250" height="250px" viewBox="0 0 250 250" width="250px" x="0px" xml:space="preserve" xmlns="http://www.w3.org/2000/svg" xmlns:xlink="http://www.w3.org/1999/xlink" y="0px"><defs><symbol id="c74b30aea" overflow="visible"><path d="M16-78.563v20.626c0 3.75-1.414 5.624-4.234 5.624-2.813 0-4.22-1.874-4.22-5.624V-87.11h58.845c3.75 0 5.625 1.445 5.625 4.328 0 2.812-1.875 4.219-5.625 4.219H55.016v28.468h23.047c26.007 0 39.015 7.98 39.015 23.938 0 6.906-2.183 12.996-6.547 18.265C106.176-2.629 95.351 0 78.062 0H41.642c-3.75 0-5.625-1.406-5.625-4.219 0-2.82 1.875-4.234 5.625-4.234h4.937v-70.11zm39.016 70.11h22.64c12.739 0 21.051-1.504 24.938-4.516 3.894-3.02 5.844-7.281 5.844-12.781 0-6.031-2.336-10.172-7-12.422-4.657-2.25-12.688-3.375-24.094-3.375H55.016zm0 0"/></symbol></defs><use x="63.266" xlink:href="#c74b30aea" y="169"/></svg>