<?xml version="1.0" encoding="UTF-8"?><svg enable-background="new 0 0 250 250" height="250px" viewBox="0 0 250 250" width="250px" x="0px" xml:space="preserve" xmlns="http://www.w3.org/2000/svg" xmlns:xlink="http://www.w3.org/1999/xlink" y="0px"><defs><symbol id="8fbb3d60a" overflow="visible"><path d="M106.125 0H17.5v14.89c0 4.22-1.445 6.329-4.328 6.329-2.75 0-4.125-2.246-4.125-6.735v-16c0-3.476.414-5.504 1.25-6.078.844-.57 2.172-.926 3.984-1.062 4.832-.332 10.43-2.692 16.797-7.078 6.375-4.395 9.563-13.368 9.563-26.922v-35.907H29.578c-4.762 0-7.14-1.406-7.14-4.218 0-2.883 2.378-4.328 7.14-4.328h77.953c4.688 0 7.031 1.445 7.031 4.328 0 2.812-2.343 4.219-7.03 4.219h-8.36v70.109h8.36c3.007 0 4.929.387 5.765 1.156.844.774 1.266 2.7 1.266 5.781v16c0 4.489-1.376 6.735-4.126 6.735-2.874 0-4.312-2.11-4.312-6.328zM49.094-78.563v35.907c0 16.574-4.766 27.976-14.297 34.203h55.828v-70.11zm0 0"/></symbol></defs><use x="63.266" xlink:href="#8fbb3d60a" y="169"/></svg>