<?xml version="1.0" encoding="UTF-8"?><svg enable-background="new 0 0 250 250" height="250px" viewBox="0 0 250 250" width="250px" x="0px" xml:space="preserve" xmlns="http://www.w3.org/2000/svg" xmlns:xlink="http://www.w3.org/1999/xlink" y="0px"><defs><symbol id="c1e6d295a" overflow="visible"><path d="M66.078-86.11c4.832-2.675 9.492-4.015 13.984-4.015 9.126 0 16.672 4.527 22.641 13.578 5.969 9.055 8.953 20.184 8.953 33.39 0 12.137-2.789 22.821-8.36 32.048-5.562 9.218-13.609 13.828-24.14 13.828-4.824 0-9.183-.906-13.078-2.719v23.844h18.11c4.624 0 6.937 1.406 6.937 4.218 0 2.75-2.313 4.125-6.938 4.125H39.532c-4.699 0-7.047-1.374-7.047-4.124 0-2.813 2.348-4.22 7.047-4.22h18.11V0c-3.762 1.813-8.09 2.719-12.985 2.719-9.586 0-17.43-4.207-23.531-12.625-6.105-8.414-9.156-19.5-9.156-33.25 0-13.344 2.969-24.504 8.906-33.485 5.938-8.988 13.563-13.484 22.875-13.484 4.633 0 9.266 1.34 13.89 4.016v-28.766l-12.171.906c-1.48.074-2.453.11-2.922.11-3.149 0-4.719-1.442-4.719-4.329 0-2.75 2.344-4.257 7.031-4.53l13.782-1c1.406-.071 2.379-.11 2.922-.11 3.007 0 4.515 2.351 4.515 7.047zm0 74.75c3.957 3.75 8.117 5.626 12.484 5.626 7.57 0 13.454-3.786 17.641-11.36 4.195-7.582 6.297-16.27 6.297-26.062 0-10.051-2.102-18.969-6.297-26.75-4.187-7.781-10-11.672-17.437-11.672-4.899 0-9.125 1.777-12.688 5.328zm-8.437.094V-76.25c-3.086-3.55-7.211-5.328-12.375-5.328-7.711 0-13.664 3.93-17.86 11.781-4.187 7.844-6.281 16.695-6.281 26.547 0 9.93 2.094 18.664 6.281 26.203C31.602-9.504 37.457-5.734 44.97-5.734c5.093 0 9.316-1.844 12.672-5.532zm0 0"/></symbol></defs><use x="63.266" xlink:href="#c1e6d295a" y="169"/></svg>