<?xml version="1.0" encoding="UTF-8"?><svg enable-background="new 0 0 250 250" height="250px" viewBox="0 0 250 250" width="250px" x="0px" xml:space="preserve" xmlns="http://www.w3.org/2000/svg" xmlns:xlink="http://www.w3.org/1999/xlink" y="0px"><defs><symbol id="15322e9aa" overflow="visible"><path d="M87-34.906H62.672C43.285-26.988 32.254-15.352 29.578 0H17.906c-3.156 0-4.734-1.406-4.734-4.219 0-2.82 1.578-4.234 4.734-4.234h5.125c4.364-12.469 13.785-21.89 28.266-28.266C35.742-40 27.969-48.582 27.969-62.469c0-7.238 2.426-13.156 7.281-17.75 4.863-4.594 12.426-6.89 22.688-6.89h46.671c3.157 0 4.735 1.445 4.735 4.328 0 2.812-1.578 4.219-4.735 4.219h-9.046v70.109h9.046c3.157 0 4.735 1.414 4.735 4.234 0 2.813-1.578 4.219-4.735 4.219H74.641c-3.157 0-4.735-1.406-4.735-4.219 0-2.82 1.578-4.234 4.735-4.234H87zm0-8.453v-35.203H59.75c-15.492 0-23.234 5.468-23.234 16.406 0 6.304 2.078 11.011 6.234 14.125 4.156 3.117 12 4.672 23.531 4.672zm0 0"/></symbol></defs><use x="63.266" xlink:href="#15322e9aa" y="169"/></svg>