<?xml version="1.0" encoding="UTF-8"?><svg enable-background="new 0 0 250 250" height="250px" viewBox="0 0 250 250" width="250px" x="0px" xml:space="preserve" xmlns="http://www.w3.org/2000/svg" xmlns:xlink="http://www.w3.org/1999/xlink" y="0px"><defs><symbol id="6a318901a" overflow="visible"><path d="M89.219-78.563H34.406v70.11h9.547c3.758 0 5.64 1.414 5.64 4.234 0 2.813-1.882 4.219-5.64 4.219H16.391c-3.75 0-5.625-1.406-5.625-4.219 0-2.82 1.875-4.234 5.625-4.234h9.562v-70.11h-6.547c-3.75 0-5.625-1.406-5.625-4.218 0-2.883 1.875-4.328 5.625-4.328h84.797c3.758 0 5.64 1.445 5.64 4.328 0 2.812-1.882 4.219-5.64 4.219h-6.531v70.109h9.547c3.758 0 5.64 1.414 5.64 4.234 0 2.813-1.882 4.219-5.64 4.219H79.672c-3.762 0-5.64-1.406-5.64-4.219 0-2.82 1.878-4.234 5.64-4.234h9.547zm0 0"/></symbol></defs><use x="63.266" xlink:href="#6a318901a" y="169"/></svg>