<?xml version="1.0" encoding="UTF-8"?><svg enable-background="new 0 0 250 250" height="250px" viewBox="0 0 250 250" width="250px" x="0px" xml:space="preserve" xmlns="http://www.w3.org/2000/svg" xmlns:xlink="http://www.w3.org/1999/xlink" y="0px"><defs><symbol id="350b58d8a" overflow="visible"><path d="M27.766-78.563L63.469-13.78l35.406-64.781h-7.438c-4.699 0-7.046-1.407-7.046-4.22 0-2.882 2.347-4.327 7.046-4.327h21.626c4.687 0 7.03 1.445 7.03 4.328 0 2.812-2.343 4.219-7.03 4.219h-4.735L59.453 10.859c-4.094 7.446-8.023 12.63-11.781 15.547-3.75 2.914-8.008 4.375-12.766 4.375-3.625 0-6.867-.355-9.718-1.062-2.844-.7-4.735-1.555-5.672-2.563-.938-1-1.407-2.98-1.407-5.937V9.562c0-4.562 1.407-6.843 4.22-6.843 2.82 0 4.233 2.11 4.233 6.328v12.375c2.477.601 4.79.906 6.938.906 4.02 0 7.254-.976 9.703-2.922 2.445-1.937 5.379-6.058 8.797-12.36l6.438-11.78-40.329-73.829h-5.03c-4.7 0-7.048-1.406-7.048-4.218 0-2.883 2.348-4.328 7.047-4.328H35.5c4.695 0 7.047 1.445 7.047 4.328 0 2.812-2.352 4.219-7.047 4.219zm0 0"/></symbol></defs><use x="63.266" xlink:href="#350b58d8a" y="169"/></svg>