<?xml version="1.0" encoding="UTF-8"?><svg enable-background="new 0 0 250 250" height="250px" viewBox="0 0 250 250" width="250px" x="0px" xml:space="preserve" xmlns="http://www.w3.org/2000/svg" xmlns:xlink="http://www.w3.org/1999/xlink" y="0px"><defs><symbol id="c574af7ca" overflow="visible"><path d="M86.11 0v-12.172C73.827-1.848 60.71 3.313 46.765 3.313 36.64 3.313 28.726.75 23.03-4.375c-5.699-5.133-8.547-11.422-8.547-18.86 0-8.175 3.754-15.316 11.266-21.421 7.508-6.102 18.473-9.157 32.89-9.157 3.883 0 8.11.25 12.672.75 4.563.5 9.493 1.29 14.797 2.36v-13.672c0-4.625-2.148-8.645-6.437-12.063-4.293-3.425-10.73-5.14-19.313-5.14-6.574 0-15.797 1.914-27.672 5.734-2.148.668-3.523 1-4.124 1-1.075 0-1.997-.398-2.766-1.203-.774-.8-1.156-1.805-1.156-3.016 0-1.132.336-2.039 1.015-2.718.938-1 4.723-2.375 11.36-4.125 10.457-2.813 18.367-4.219 23.734-4.219 10.664 0 18.984 2.637 24.953 7.906 5.969 5.262 8.953 11.211 8.953 17.844v55.922h11.266c2.07 0 3.547.387 4.422 1.156.875.774 1.312 1.797 1.312 3.078 0 1.2-.437 2.203-1.312 3.016-.875.805-2.352 1.203-4.422 1.203zm0-42.047c-3.962-1.133-8.153-1.969-12.579-2.5-4.43-.539-9.09-.812-13.984-.812-12.274 0-21.86 2.648-28.766 7.937-5.23 3.961-7.843 8.688-7.843 14.188 0 5.093 1.992 9.386 5.984 12.875 3.988 3.492 9.805 5.234 17.453 5.234 7.3 0 14.086-1.457 20.36-4.375 6.269-2.914 12.726-7.563 19.374-13.938zm0 0"/></symbol></defs><use x="63.266" xlink:href="#c574af7ca" y="169"/></svg>