<?xml version="1.0" encoding="UTF-8"?><svg enable-background="new 0 0 250 250" height="250px" viewBox="0 0 250 250" width="250px" x="0px" xml:space="preserve" xmlns="http://www.w3.org/2000/svg" xmlns:xlink="http://www.w3.org/1999/xlink" y="0px"><defs><symbol id="2c11f635a" overflow="visible"><path d="M22.031-70.516c10.051-13.07 23.598-19.609 40.64-19.609 15.145 0 27.13 4.512 35.954 13.531 8.82 9.024 13.234 20.102 13.234 33.235 0 13.148-4.48 24.214-13.437 33.203-8.95 8.98-20.934 13.469-35.953 13.469-10.73 0-19.903-2.297-27.516-6.891-7.617-4.594-13.2-10.426-16.75-17.5-3.555-7.07-5.328-17.18-5.328-30.328 0-18.438 1.172-31.192 3.516-38.266 2.351-7.07 6.312-12.656 11.875-16.75 5.562-4.094 13.539-6.14 23.937-6.14h19.219c9.988 0 15.656-2.04 17-6.126.8-2.28 1.469-3.687 2-4.218.539-.54 1.484-.813 2.828-.813 3.145 0 4.719 1.64 4.719 4.922 0 3.762-1.883 7.152-5.64 10.172-3.75 3.012-10.388 4.516-19.907 4.516H52.203c-6.71 0-12.226 1.156-16.547 3.468-4.324 2.313-7.445 5.555-9.36 9.72-1.905 4.155-3.327 10.96-4.265 20.405zm.094 26.97c0 9.718 3.422 18.5 10.266 26.343C39.234-9.36 49.258-5.438 62.469-5.438c12.133 0 21.875-3.703 29.218-11.109 7.344-7.406 11.016-16.406 11.016-27 0-10.601-3.672-19.594-11.016-26.969-7.343-7.375-17.085-11.062-29.218-11.062-12.211 0-21.985 3.687-29.328 11.062-7.344 7.375-11.016 16.368-11.016 26.97zm0 0"/></symbol></defs><use x="63.266" xlink:href="#2c11f635a" y="169"/></svg>