<?xml version="1.0" encoding="UTF-8"?><svg enable-background="new 0 0 250 250" height="250px" viewBox="0 0 250 250" width="250px" x="0px" xml:space="preserve" xmlns="http://www.w3.org/2000/svg" xmlns:xlink="http://www.w3.org/1999/xlink" y="0px"><defs><symbol id="38cb60fda" overflow="visible"><path d="M99.688-8.453v-70.11h-4.735c-3.75 0-5.625-1.406-5.625-4.218 0-2.883 1.875-4.328 5.625-4.328h17.797c3.82 0 5.734 1.445 5.734 4.328 0 2.812-1.914 4.219-5.734 4.219h-4.625v70.109h6.438c3.82 0 5.734 1.414 5.734 4.234 0 2.813-1.914 4.219-5.734 4.219H8.953c-3.762 0-5.64-1.406-5.64-4.219 0-2.82 1.878-4.234 5.64-4.234h6.531v-70.11h-4.718c-3.762 0-5.641-1.406-5.641-4.218 0-2.883 1.879-4.328 5.64-4.328h17.797c3.82 0 5.735 1.445 5.735 4.328 0 2.812-1.914 4.219-5.734 4.219h-4.625v70.109H57.53v-70.11h-4.625c-3.75 0-5.625-1.406-5.625-4.218 0-2.883 1.875-4.328 5.625-4.328H70.72c3.75 0 5.625 1.445 5.625 4.328 0 2.812-1.875 4.219-5.625 4.219h-4.64v70.109zm0 0"/></symbol></defs><use x="63.266" xlink:href="#38cb60fda" y="169"/></svg>