<?xml version="1.0" encoding="UTF-8"?><svg enable-background="new 0 0 250 250" height="250px" viewBox="0 0 250 250" width="250px" x="0px" xml:space="preserve" xmlns="http://www.w3.org/2000/svg" xmlns:xlink="http://www.w3.org/1999/xlink" y="0px"><defs><symbol id="350e91bda" overflow="visible"><path d="M106.016-78.563v70.11h11.265c3.82 0 5.735 1.414 5.735 4.234 0 2.813-1.914 4.219-5.735 4.219H86.203c-3.762 0-5.64-1.406-5.64-4.219 0-2.82 1.878-4.234 5.64-4.234H97.47v-70.11H86.203c-3.762 0-5.64-1.406-5.64-4.218 0-2.883 1.878-4.328 5.64-4.328h31.078c3.82 0 5.735 1.445 5.735 4.328 0 2.812-1.914 4.219-5.735 4.219zm-84.594 0v28.47h19.812c26.02 0 39.032 7.98 39.032 23.937 0 6.906-2.184 12.996-6.547 18.265C69.363-2.629 58.535 0 41.234 0H8.047c-3.75 0-5.625-1.406-5.625-4.219 0-2.82 1.875-4.234 5.625-4.234h4.922v-70.11H8.453c-3.824 0-5.734-1.406-5.734-4.218 0-2.883 1.91-4.328 5.734-4.328h24.344c3.75 0 5.625 1.445 5.625 4.328 0 2.812-1.875 4.219-5.625 4.219zm0 70.11h19.422c11.664 0 19.71-1.305 24.14-3.922 4.426-2.613 6.641-7.07 6.641-13.375 0-6.031-2.336-10.172-7-12.422-4.656-2.25-12.688-3.375-24.094-3.375h-19.11zm0 0"/></symbol></defs><use x="63.266" xlink:href="#350e91bda" y="169"/></svg>