<?xml version="1.0" encoding="UTF-8"?><svg enable-background="new 0 0 250 250" height="250px" viewBox="0 0 250 250" width="250px" x="0px" xml:space="preserve" xmlns="http://www.w3.org/2000/svg" xmlns:xlink="http://www.w3.org/1999/xlink" y="0px"><defs><symbol id="bda5fa9ba" overflow="visible"><path d="M44.453-41.547H27.266v33.094h11.359c3.758 0 5.64 1.414 5.64 4.234 0 2.813-1.882 4.219-5.64 4.219H9.25C5.5 0 3.625-1.406 3.625-4.219c0-2.82 1.875-4.234 5.625-4.234h9.563v-70.11h-5.235c-3.824 0-5.734-1.406-5.734-4.218 0-2.883 1.91-4.328 5.734-4.328h25.047c3.758 0 5.64 1.445 5.64 4.328 0 2.812-1.882 4.219-5.64 4.219h-11.36v28.468h17.5c1.333-11.394 5.383-20.914 12.157-28.562 6.781-7.645 15.367-11.469 25.766-11.469 11.457 0 20.523 4.414 27.203 13.234 6.675 8.813 10.015 19.758 10.015 32.829 0 13.886-3.558 25.257-10.672 34.109C102.13-1.11 93.047 3.312 81.984 3.312c-10 0-18.523-3.906-25.562-11.718-7.031-7.813-11.024-18.86-11.969-33.14zm8.453-1.11c0 10.731 2.664 19.669 8 26.813C66.238-8.695 73.328-5.125 82.172-5.125c8.719 0 15.773-3.535 21.172-10.61 5.406-7.081 8.11-16.35 8.11-27.812 0-11.406-2.704-20.594-8.11-27.562-5.399-6.977-12.418-10.47-21.063-10.47-9.324 0-16.554 3.688-21.687 11.063-5.125 7.375-7.688 16.664-7.688 27.86zm0 0"/></symbol></defs><use x="63.266" xlink:href="#bda5fa9ba" y="169"/></svg>