<?xml version="1.0" encoding="UTF-8"?><svg enable-background="new 0 0 250 250" height="250px" viewBox="0 0 250 250" width="250px" x="0px" xml:space="preserve" xmlns="http://www.w3.org/2000/svg" xmlns:xlink="http://www.w3.org/1999/xlink" y="0px"><defs><symbol id="0048860aa" overflow="visible"><path d="M86.906-46.063l6.14 1.407c4.49 1 8.442 3.433 11.86 7.297 3.426 3.855 5.14 8.359 5.14 13.515 0 7.98-3.64 14.5-10.921 19.563C91.852.78 80.066 3.312 63.765 3.312c-10.73 0-21.624-1.558-32.687-4.671-11.062-3.114-16.594-6.414-16.594-9.907 0-1.27.47-2.359 1.407-3.265.937-.906 1.875-1.36 2.812-1.36.875 0 2.05.371 3.531 1.11 13.07 6.437 27.188 9.656 42.344 9.656 12.07 0 21.14-1.758 27.203-5.281 6.07-3.52 9.11-8 9.11-13.438 0-6.164-3.508-10.539-10.516-13.125-7.012-2.582-19.102-3.875-36.266-3.875h-5.53c-4.688 0-7.032-1.304-7.032-3.922 0-3.082 2.344-4.625 7.031-4.625h5.531c28.301 0 42.453-5.597 42.453-16.797 0-4.695-2.804-8.437-8.406-11.218-5.594-2.781-13.656-4.172-24.187-4.172-20.586 0-32.485 6.64-35.703 19.922-.875 3.617-2.352 5.422-4.422 5.422-2.48 0-3.719-1.473-3.719-4.422v-22.235c0-4.82 1.367-7.234 4.11-7.234 2.882 0 4.328 2.414 4.328 7.234v6.344c8.656-9.05 21.128-13.578 37.421-13.578 11.664 0 21.188 2.102 28.563 6.297 7.375 4.187 11.062 10.039 11.062 17.547 0 9.523-6.234 16.261-18.703 20.219zm0 0"/></symbol></defs><use x="63.266" xlink:href="#0048860aa" y="169"/></svg>