<?xml version="1.0" encoding="UTF-8"?><svg enable-background="new 0 0 250 250" height="250px" viewBox="0 0 250 250" width="250px" x="0px" xml:space="preserve" xmlns="http://www.w3.org/2000/svg" xmlns:xlink="http://www.w3.org/1999/xlink" y="0px"><defs><symbol id="6d39d18aa" overflow="visible"><path d="M29.375-8.453v-70.11H18c-3.75 0-5.625-1.406-5.625-4.218 0-2.883 1.875-4.328 5.625-4.328h45.875c22.863 0 34.297 7.246 34.297 21.734 0 9.055-5.902 14.852-17.703 17.39 17.77 2.356 26.656 10.07 26.656 23.141C107.125-8.28 96.062 0 73.937 0H18c-3.75 0-5.625-1.406-5.625-4.219 0-2.82 1.875-4.234 5.625-4.234zm8.453-43.344h22.625c19.508 0 29.266-4.695 29.266-14.094 0-3.945-1.649-7.046-4.938-9.296-3.281-2.25-10.219-3.376-20.812-3.376h-26.14zm0 43.344h35.406c16.895 0 25.344-5.43 25.344-16.297 0-5.29-2.148-9.71-6.437-13.266-4.293-3.562-14.688-5.343-31.188-5.343H37.828zm0 0"/></symbol></defs><use x="63.266" xlink:href="#6d39d18aa" y="169"/></svg>