<?xml version="1.0" encoding="UTF-8"?><svg enable-background="new 0 0 250 250" height="250px" viewBox="0 0 250 250" width="250px" x="0px" xml:space="preserve" xmlns="http://www.w3.org/2000/svg" xmlns:xlink="http://www.w3.org/1999/xlink" y="0px"><defs><symbol id="c8223f4ca" overflow="visible"><path d="M86-76.797c3.469 4.125 6.16 8.914 8.078 14.36 1.914 5.449 2.875 11.68 2.875 18.687 0 6.898-1.152 13.188-3.453 18.875-2.293 5.688-5.324 10.531-9.094 14.531-3.949 4.063-8.34 7.188-13.172 9.375-4.836 2.176-9.96 3.266-15.375 3.266-5.25 0-9.554-.59-12.906-1.766-3.355-1.176-6.094-2.562-8.219-4.156h-.703v26.156c0 2.125.41 3.89 1.235 5.297.82 1.414 2.086 2.453 3.797 3.11 1.414.53 3.43 1.046 6.046 1.546 2.625.5 4.79.774 6.5.828v5.922H2.922v-5.922c1.82-.117 3.586-.261 5.297-.437 1.707-.18 3.238-.469 4.594-.875 1.769-.594 3.007-1.633 3.718-3.11.707-1.468 1.063-3.203 1.063-5.203V-69.03c0-1.758-.446-3.461-1.328-5.11-.887-1.656-2.04-2.984-3.453-3.984-1.063-.707-2.54-1.254-4.422-1.64a41.372 41.372 0 0 0-5.47-.75v-5.75l29.688-1.938 1.235 1.062v9.813l.718.172c3.063-3.531 6.86-6.473 11.391-8.828 4.54-2.364 9.05-3.547 13.531-3.547 5.414 0 10.375 1.152 14.875 3.453A36.663 36.663 0 0 1 86-76.797zM71.594-14.14c2.351-3.656 4.086-7.894 5.203-12.718 1.125-4.832 1.687-10.227 1.687-16.188 0-4.351-.476-8.797-1.421-13.328-.938-4.54-2.415-8.492-4.422-11.86-2-3.413-4.621-6.18-7.86-8.296-3.242-2.125-7.133-3.188-11.672-3.188-4.355 0-8.062.961-11.125 2.875-3.062 1.918-5.714 4.2-7.953 6.844v51.531c.532 1.594 1.395 3.246 2.594 4.953 1.207 1.711 2.55 3.18 4.031 4.407 1.82 1.48 3.79 2.68 5.907 3.593 2.124.907 4.722 1.36 7.796 1.36 3.29 0 6.47-.867 9.532-2.61 3.07-1.738 5.64-4.195 7.703-7.375zm0 0"/></symbol></defs><use x="73.382" xlink:href="#c8223f4ca" y="169"/></svg>