<?xml version="1.0" encoding="UTF-8"?><svg enable-background="new 0 0 250 250" height="250px" viewBox="0 0 250 250" width="250px" x="0px" xml:space="preserve" xmlns="http://www.w3.org/2000/svg" xmlns:xlink="http://www.w3.org/1999/xlink" y="0px"><defs><symbol id="3f4e63d4a" overflow="visible"><path d="M83.781-20.5C80.125-13.55 75.234-8.016 69.11-3.89 62.984.233 55.941 2.296 47.984 2.296c-7.011 0-13.152-1.235-18.422-3.703-5.273-2.477-9.617-5.836-13.03-10.078-3.419-4.25-5.97-9.204-7.657-14.86C7.195-32 6.359-37.977 6.359-44.28c0-5.657.895-11.207 2.688-16.657 1.8-5.445 4.441-10.351 7.922-14.718 3.351-4.176 7.52-7.547 12.5-10.11 4.976-2.562 10.562-3.843 16.75-3.843 6.363 0 11.812 1 16.343 3 4.54 2 8.227 4.742 11.063 8.218 2.707 3.305 4.723 7.196 6.047 11.672 1.32 4.469 1.984 9.328 1.984 14.578v5.828H23.953c0 5.72.54 10.907 1.625 15.563 1.094 4.648 2.817 8.742 5.172 12.281 2.3 3.418 5.305 6.117 9.016 8.094 3.718 1.969 8.14 2.953 13.265 2.953 5.239 0 9.758-1.223 13.563-3.672 3.8-2.445 7.469-6.847 11-13.203zM64.25-53.734c0-3.301-.281-6.836-.844-10.61-.554-3.77-1.449-6.922-2.687-9.453-1.356-2.707-3.215-4.914-5.578-6.625-2.356-1.707-5.387-2.562-9.094-2.562-6.188 0-11.328 2.578-15.422 7.734-4.094 5.156-6.32 12.328-6.672 21.516zm12.438-66.813c0 3-1.024 5.563-3.063 7.688-2.031 2.125-4.492 3.187-7.375 3.187-2.887 0-5.344-1.062-7.375-3.187-2.031-2.125-3.047-4.688-3.047-7.688 0-3.008 1.016-5.57 3.047-7.687 2.031-2.125 4.488-3.188 7.375-3.188 2.883 0 5.344 1.063 7.375 3.188 2.04 2.117 3.063 4.68 3.063 7.687zm-38.016 0c0 3-1.016 5.563-3.047 7.688s-4.492 3.187-7.375 3.187c-2.887 0-5.352-1.062-7.39-3.187-2.032-2.125-3.047-4.688-3.047-7.688 0-3.008 1.015-5.57 3.046-7.687 2.04-2.125 4.504-3.188 7.391-3.188 2.883 0 5.344 1.063 7.375 3.188 2.031 2.117 3.047 4.68 3.047 7.687zm0 0"/></symbol></defs><use x="81.324" xlink:href="#3f4e63d4a" y="169"/></svg>