<?xml version="1.0" encoding="UTF-8"?><svg enable-background="new 0 0 250 250" height="250px" viewBox="0 0 250 250" width="250px" x="0px" xml:space="preserve" xmlns="http://www.w3.org/2000/svg" xmlns:xlink="http://www.w3.org/1999/xlink" y="0px"><defs><symbol id="b678d071a" overflow="visible"><path d="M68.234-27.219c0-4.945-1.796-9.172-5.39-12.672-3.594-3.507-8.84-5.265-15.735-5.265-2.886 0-5.273.105-7.156.312-1.887.2-3.336.297-4.344.297v31.11c0 2.48.899 4.34 2.703 5.578 1.801 1.23 5.055 1.843 9.766 1.843 4.008 0 7.352-.644 10.031-1.937 2.676-1.3 4.723-2.953 6.141-4.953 1.531-2.176 2.578-4.442 3.14-6.797.563-2.363.844-4.867.844-7.516zm17.844.438c0 4.656-1 8.68-3 12.062-2 3.387-4.594 6.172-7.781 8.36-3.18 2.117-6.715 3.703-10.61 4.765C60.801-.53 56.739 0 52.5 0H6.547v-5.828a389.04 389.04 0 0 1 4.187-.36c1.446-.113 2.704-.347 3.766-.703 1.645-.53 2.863-1.457 3.656-2.78.801-1.333 1.203-3.056 1.203-5.173v-56.562c0-1.946-.418-3.582-1.25-4.906-.824-1.32-2.058-2.336-3.703-3.047-1.531-.707-3.023-1.176-4.469-1.407a64.053 64.053 0 0 0-4.015-.546v-5.829h43.922v5.829c-1.774.124-3.496.261-5.172.406-1.68.148-3.074.367-4.188.656-1.836.531-3.105 1.54-3.812 3.016-.711 1.468-1.063 3.117-1.063 4.937v20.766c2.364-.051 4.383-.117 6.063-.203 1.676-.094 4.11-.141 7.297-.141 5.707 0 10.726.46 15.062 1.375 4.332.906 8.086 2.305 11.266 4.188 3.414 2 6.066 4.562 7.953 7.687 1.883 3.125 2.828 7.074 2.828 11.844zm0 0"/></symbol></defs><use x="80.088" xlink:href="#b678d071a" y="169"/></svg>