<?xml version="1.0" encoding="UTF-8"?><svg enable-background="new 0 0 250 250" height="250px" viewBox="0 0 250 250" width="250px" x="0px" xml:space="preserve" xmlns="http://www.w3.org/2000/svg" xmlns:xlink="http://www.w3.org/1999/xlink" y="0px"><defs><symbol id="a2ee49b4a" overflow="visible"><path d="M46.672 2.297c-12.617 0-22.492-4.18-29.625-12.547C9.922-18.613 6.359-29.836 6.359-43.922c0-6.125.957-11.851 2.875-17.187a47.494 47.494 0 0 1 8.36-14.547c3.468-4.176 7.82-7.547 13.062-10.11 5.25-2.562 10.969-3.843 17.157-3.843 8.539 0 15.492 2.046 20.859 6.14 5.363 4.094 8.047 9.68 8.047 16.75 0 2.938-.711 5.543-2.125 7.813-1.418 2.273-3.746 3.406-6.985 3.406-3.48 0-6.18-.883-8.093-2.656-1.907-1.77-2.86-3.742-2.86-5.922 0-2.645.348-5.367 1.047-8.172.707-2.8 1.125-4.848 1.25-6.14-1.062-1.82-2.64-3.04-4.734-3.657-2.094-.625-4.352-.937-6.766-.937a18.73 18.73 0 0 0-8.078 1.812c-2.563 1.211-5.055 3.434-7.469 6.672-2.18 2.95-3.949 6.93-5.312 11.938-1.356 5-2.032 10.98-2.032 17.937 0 10.96 2.43 19.902 7.297 26.828C36.723-10.879 43.102-7.422 51-7.422c5.707 0 10.488-1.383 14.344-4.156 3.863-2.77 7.445-6.926 10.75-12.469l5.656 3.719c-3.887 6.95-9.012 12.46-15.375 16.531C60.008.266 53.441 2.297 46.672 2.297zm0 0"/></symbol></defs><use x="83.971" xlink:href="#a2ee49b4a" y="169"/></svg>