<?xml version="1.0" encoding="UTF-8"?><svg enable-background="new 0 0 250 250" height="250px" viewBox="0 0 250 250" width="250px" x="0px" xml:space="preserve" xmlns="http://www.w3.org/2000/svg" xmlns:xlink="http://www.w3.org/1999/xlink" y="0px"><defs><symbol id="c14b3114a" overflow="visible"><path d="M97.39 0H54.704v-5.828a389.04 389.04 0 0 1 4.188-.36c1.445-.113 2.703-.347 3.765-.703 1.657-.53 2.922-1.457 3.797-2.78.883-1.333 1.328-3.056 1.328-5.173V-38c-4.773 2-8.984 3.637-12.64 4.906-3.649 1.262-8.032 1.89-13.157 1.89-9.25 0-16.043-1.82-20.375-5.468-4.336-3.656-6.5-9.46-6.5-17.422v-17.312c0-2.008-.414-3.66-1.234-4.953-.824-1.29-2.063-2.29-3.719-3-1.531-.707-3.023-1.176-4.469-1.407a64.053 64.053 0 0 0-4.015-.546v-5.829h42.61v5.829c-1.712.124-3.2.277-4.47.453a40.224 40.224 0 0 0-3.484.609c-1.656.469-2.871 1.398-3.64 2.781-.762 1.387-1.141 3.11-1.141 5.172V-58.5c0 6.305 1.281 10.84 3.844 13.61 2.562 2.761 6.847 4.14 12.859 4.14 2.656 0 5.676-.258 9.063-.781 3.382-.532 6.874-1.414 10.468-2.657v-27.218c0-1.946-.414-3.582-1.234-4.906-.824-1.32-2.059-2.336-3.703-3.047-1.532-.707-3.024-1.176-4.469-1.407a66.492 66.492 0 0 0-4.016-.546v-5.829h42.688v5.829c-1.711.124-3.2.277-4.469.453a38.7 38.7 0 0 0-3.484.609c-1.656.469-2.887 1.398-3.688 2.781-.793 1.387-1.187 3.11-1.187 5.172v56.563c0 2.062.351 3.73 1.062 5 .707 1.261 1.914 2.246 3.625 2.953a17.01 17.01 0 0 0 4.016 1.328c1.445.293 2.937.5 4.469.625zm0 0"/></symbol></defs><use x="73.294" xlink:href="#c14b3114a" y="169"/></svg>