<?xml version="1.0" encoding="UTF-8"?><svg enable-background="new 0 0 250 250" height="250px" viewBox="0 0 250 250" width="250px" x="0px" xml:space="preserve" xmlns="http://www.w3.org/2000/svg" xmlns:xlink="http://www.w3.org/1999/xlink" y="0px"><defs><symbol id="230a1bd6a" overflow="visible"><path d="M50.469 0H6.547v-5.828a389.04 389.04 0 0 1 4.187-.36c1.446-.113 2.704-.347 3.766-.703 1.645-.53 2.863-1.457 3.656-2.78.801-1.333 1.203-3.056 1.203-5.173v-56.562c0-1.946-.418-3.582-1.25-4.906-.824-1.32-2.058-2.336-3.703-3.047a16.904 16.904 0 0 0-4.781-1.407 116.454 116.454 0 0 0-4.234-.546v-5.829h72.64v28.907h-5.469c-.417-1.301-1.156-3.188-2.218-5.657a50.333 50.333 0 0 0-3.625-6.984c-1.356-2.363-2.844-4.41-4.469-6.14-1.617-1.739-3.305-2.727-5.063-2.97-1.656-.175-3.664-.304-6.015-.39a154.79 154.79 0 0 0-6.016-.14h-9.36v64.78c0 2 .411 3.653 1.235 4.954.82 1.293 2.063 2.293 3.719 3 1.29.593 2.832 1.039 4.625 1.328 1.8.293 3.5.5 5.094.625zm0 0"/></symbol></defs><use x="85.25" xlink:href="#230a1bd6a" y="169"/></svg>