<?xml version="1.0" encoding="UTF-8"?><svg enable-background="new 0 0 250 250" height="250px" viewBox="0 0 250 250" width="250px" x="0px" xml:space="preserve" xmlns="http://www.w3.org/2000/svg" xmlns:xlink="http://www.w3.org/1999/xlink" y="0px"><defs><symbol id="2a84b83ca" overflow="visible"><path d="M141.14 0h-29.343c-1.469-4.832-2.793-8.973-3.969-12.422-1.18-3.445-2.918-7.437-5.219-11.969-2.773-5.539-5.761-9.547-8.968-12.015-3.211-2.477-7.438-3.719-12.688-3.719h-1.672v24.563c0 2.011.395 3.667 1.188 4.968.789 1.293 2.015 2.293 3.672 3a15.19 15.19 0 0 0 3.921 1.235c1.383.23 2.844.406 4.376.53V0H50.64v-5.828a78.049 78.049 0 0 1 4.109-.266c1.383-.062 2.61-.27 3.672-.625 1.644-.531 2.848-1.457 3.61-2.781.769-1.32 1.156-3.047 1.156-5.172v-25.453h-1.672c-5.48 0-9.782 1.227-12.907 3.672-3.125 2.45-6.101 6.469-8.922 12.062-2.124 4.125-3.792 7.93-5 11.407C33.477-9.516 32.078-5.188 30.485 0H1.328v-5.828c1-.125 2.281-.285 3.844-.484 1.562-.208 2.898-.43 4.016-.672 2.124-.407 3.773-1.125 4.953-2.157 1.175-1.03 2.351-2.754 3.53-5.171.595-1.352 1.415-3.223 2.47-5.61 1.062-2.394 2.3-5.004 3.718-7.828 2.176-4.363 4.739-7.926 7.688-10.688 2.945-2.769 7.07-4.718 12.375-5.843v-1.14c-3.18-2.009-5.637-4.645-7.375-7.907-1.742-3.27-3.14-6.5-4.203-9.688-.887-2.77-1.805-5.672-2.75-8.703-.938-3.031-1.996-5.05-3.172-6.062-2.95 3.543-5.188 5.933-6.719 7.172-1.531 1.23-3.476 1.843-5.828 1.843-2.773 0-4.996-.863-6.672-2.593-1.68-1.739-2.516-3.88-2.516-6.422 0-3 1.016-5.485 3.047-7.453 2.032-1.977 5.375-2.97 10.032-2.97 3.414 0 6.226.446 8.437 1.329 2.207.887 4.664 2.86 7.375 5.922 1.477 1.71 2.719 3.844 3.719 6.406a135.2 135.2 0 0 1 2.922 8.344 99.883 99.883 0 0 0 3.031 8.453c1.156 2.793 2.5 5.016 4.031 6.672 1.414 1.469 3.004 2.558 4.766 3.266 1.77.71 3.75 1.062 5.937 1.062h5.203v-24.844c0-1.937-.398-3.566-1.187-4.89-.793-1.332-2.016-2.352-3.672-3.063-1.531-.707-3.008-1.144-4.422-1.312a203.105 203.105 0 0 0-3.89-.454v-5.828h41.812v5.829c-1.824.124-3.297.234-4.422.328a19.465 19.465 0 0 0-3.36.562c-1.648.469-2.855 1.399-3.624 2.781-.762 1.387-1.14 3.11-1.14 5.172v25.719h5.202c1.946 0 3.891-.379 5.829-1.14 1.945-.77 3.57-1.833 4.874-3.188 1.645-1.77 3.04-4.098 4.188-6.984 1.156-2.883 2.113-5.598 2.875-8.141a111.805 111.805 0 0 1 2.875-8.25c1.031-2.625 2.285-4.79 3.766-6.5 2.53-2.883 5.004-4.813 7.421-5.781 2.415-.977 5.211-1.47 8.391-1.47 4.54 0 7.852 1.009 9.938 3.016 2.093 2 3.14 4.47 3.14 7.407 0 2.594-.855 4.746-2.562 6.453-1.711 1.71-3.918 2.562-6.625 2.562-2.531 0-4.578-.675-6.14-2.03-1.563-1.352-3.7-3.68-6.407-6.985-1.305 1.011-2.43 3.062-3.375 6.156-.938 3.094-1.79 5.934-2.547 8.516-1.125 3.656-2.617 7.062-4.469 10.218-1.855 3.149-4.226 5.637-7.11 7.47v1.14c5.352 1.062 9.52 3.011 12.5 5.843 2.977 2.825 5.556 6.387 7.735 10.688 1.063 2.063 2.254 4.586 3.578 7.563 1.32 2.968 2.192 4.93 2.61 5.875.883 2 2.02 3.62 3.406 4.859 1.383 1.242 3.02 2.031 4.906 2.375 1.469.305 2.91.574 4.328.812 1.414.23 2.594.375 3.532.438zm0 0"/></symbol></defs><use x="53.882" xlink:href="#2a84b83ca" y="169"/></svg>