<?xml version="1.0" encoding="UTF-8"?><svg enable-background="new 0 0 250 250" height="250px" viewBox="0 0 250 250" width="250px" x="0px" xml:space="preserve" xmlns="http://www.w3.org/2000/svg" xmlns:xlink="http://www.w3.org/1999/xlink" y="0px"><defs><symbol id="72bf1e03a" overflow="visible"><path d="M98.984 0H56.391v-5.828c1.351-.125 2.734-.242 4.14-.36 1.414-.113 2.657-.347 3.719-.703 1.645-.53 2.91-1.457 3.797-2.78.883-1.333 1.328-3.056 1.328-5.173V-79.89H45.156c0 14.375-1 26.75-3 37.125-2 10.368-4.593 18.82-7.781 25.36C31.258-10.988 27.727-6.188 23.781-3c-3.949 3.176-7.984 4.766-12.11 4.766-4.25 0-7.464-1.106-9.64-3.313S-1.234-6.332-1.234-9.28c0-2.125.695-4.13 2.078-6.016 1.383-1.883 3.398-2.828 6.047-2.828 2.476 0 4.718.71 6.718 2.125 2 1.418 3.942 3.39 5.829 5.922 1.414-1.29 3.082-3.688 5-7.188 1.914-3.507 3.671-7.859 5.265-13.047a148.514 148.514 0 0 0 4.313-17.406c1.125-6.008 1.687-12.906 1.687-20.687 0-3.063-.387-5.328-1.156-6.797-.762-1.477-1.965-2.629-3.61-3.453-1.125-.594-2.953-1.14-5.484-1.64s-4.594-.837-6.187-1.016v-5.829h79.359v5.829c-1.71.124-3.2.277-4.469.453a40.224 40.224 0 0 0-3.484.609c-1.649.469-2.871 1.398-3.672 2.781-.793 1.387-1.188 3.11-1.188 5.172v56.563c0 2.062.352 3.73 1.063 5 .707 1.261 1.914 2.246 3.625 2.953a17.01 17.01 0 0 0 4.016 1.328c1.445.293 2.937.5 4.468.625zm0 0"/></symbol></defs><use x="72.5" xlink:href="#72bf1e03a" y="169"/></svg>