<?xml version="1.0" encoding="UTF-8"?><svg enable-background="new 0 0 250 250" height="250px" viewBox="0 0 250 250" width="250px" x="0px" xml:space="preserve" xmlns="http://www.w3.org/2000/svg" xmlns:xlink="http://www.w3.org/1999/xlink" y="0px"><defs><symbol id="72d364a0a" overflow="visible"><path d="M-.266 28.453c0-2.937.805-5.34 2.422-7.203 1.625-1.855 3.645-2.781 6.063-2.781 1.883 0 3.504.351 4.86 1.062a13.797 13.797 0 0 1 3.624 2.735c.883.882 1.828 2.093 2.828 3.625 1 1.53 1.797 2.8 2.39 3.812 2.946-1.594 6.47-5.75 10.563-12.469 4.094-6.718 7.051-12.609 8.875-17.672a4038.7 4038.7 0 0 0-15.203-37.468 5346.256 5346.256 0 0 0-14.218-34.219c-1.126-2.707-3.016-4.813-5.672-6.313-2.649-1.5-5.293-2.457-7.938-2.874v-5.829h39.766v6.188c-1.774.062-3.899.433-6.375 1.11-2.469.679-3.703 1.452-3.703 2.327 0 .356.129.95.39 1.782.27.824.582 1.68.938 2.562 2.238 5.836 5.656 14.246 10.25 25.234 4.593 10.981 8.156 19.774 10.687 26.376 2.657-6.301 5.41-12.829 8.266-19.579 2.863-6.75 6.062-14.718 9.594-23.906a406.807 406.807 0 0 1 1.765-4.625c.77-1.976 1.156-3.676 1.156-5.094 0-1.53-1.343-2.957-4.03-4.28-2.68-1.333-5.227-2.145-7.641-2.438v-5.657h32.343v5.485c-1.761.293-4.09 1.308-6.984 3.047-2.887 1.742-5.04 4.199-6.453 7.375-7.012 16.261-13.242 31.078-18.688 44.453C54.16-13.406 50.02-3.566 47.187 2.734c-3.71 8.25-7.023 14.688-9.937 19.313-2.918 4.625-5.762 8.265-8.531 10.922-2.711 2.468-5.168 4.129-7.375 4.984a18.889 18.889 0 0 1-6.844 1.281c-4.605 0-8.219-1.09-10.844-3.265-2.617-2.18-3.922-4.684-3.922-7.516zm0 0"/></symbol></defs><use x="80.529" xlink:href="#72d364a0a" y="169"/></svg>