<?xml version="1.0" encoding="UTF-8"?><svg enable-background="new 0 0 250 250" height="250px" viewBox="0 0 250 250" width="250px" x="0px" xml:space="preserve" xmlns="http://www.w3.org/2000/svg" xmlns:xlink="http://www.w3.org/1999/xlink" y="0px"><defs><symbol id="d8800eb7a" overflow="visible"><path d="M129.656-44.016c0 7.075-1.023 13.47-3.062 19.188-2.031 5.71-4.758 10.45-8.172 14.219-3.531 3.949-7.555 6.945-12.063 8.984-4.5 2.031-9.433 3.047-14.796 3.047-2.887 0-5.602-.371-8.141-1.11-2.531-.738-4.742-1.578-6.625-2.515h-.438V22.53c0 2.125.41 3.89 1.235 5.297.82 1.414 2.086 2.453 3.797 3.11 1.414.53 3.332 1.046 5.75 1.546 2.414.5 4.39.774 5.921.828v5.922H44.36v-5.922c1.832-.117 3.75-.261 5.75-.437 2-.18 3.68-.469 5.047-.875 1.758-.594 2.992-1.633 3.703-3.11.707-1.468 1.063-3.203 1.063-5.203v-25.89h-.438A54.683 54.683 0 0 1 53.016.359c-2.18.707-4.946 1.063-8.297 1.063C39.53 1.422 34.625.438 30-1.531c-4.625-1.977-8.672-4.883-12.14-8.719-3.481-3.832-6.227-8.531-8.235-14.094-2-5.57-3-11.894-3-18.968 0-6.77.973-12.985 2.922-18.641 1.945-5.656 4.687-10.516 8.219-14.578 3.3-3.832 7.351-6.805 12.156-8.922 4.8-2.125 9.734-3.188 14.797-3.188 2.832 0 5.484.356 7.953 1.063 2.476.71 4.75 1.562 6.812 2.562h.438v-25.906c0-2.062-.402-3.828-1.203-5.297-.793-1.469-1.98-2.734-3.563-3.797-1.062-.707-2.527-1.254-4.39-1.64a40.005 40.005 0 0 0-5.516-.75v-5.75l29.875-1.938 1.234 1.063v44.015h.438c1.531-.832 3.77-1.644 6.719-2.437 2.945-.79 5.629-1.188 8.046-1.188 5.364 0 10.344.993 14.938 2.97 4.594 1.968 8.629 4.898 12.11 8.78 3.468 3.836 6.175 8.524 8.124 14.063 1.946 5.531 2.922 11.805 2.922 18.812zm-18.031 0c0-6.593-.531-12.273-1.594-17.047-1.062-4.78-2.594-8.703-4.594-11.765-2.062-3.125-4.464-5.375-7.203-6.75-2.742-1.383-5.82-2.078-9.234-2.078-3.012 0-5.43.414-7.25 1.234-1.824.824-3.621 1.914-5.39 3.266v67.078c1.82 1.418 3.53 2.527 5.124 3.328 1.594.793 4.098 1.188 7.516 1.188 3.3 0 6.363-.735 9.188-2.204 2.832-1.476 5.218-3.836 7.156-7.078 2.187-3.539 3.781-7.722 4.781-12.547 1-4.832 1.5-10.375 1.5-16.625zM59.922-10.078v-67.078c-1.531-1.239-3.375-2.297-5.531-3.172-2.149-.883-4.516-1.328-7.11-1.328-3.355 0-6.402.734-9.14 2.203-2.743 1.469-5.141 3.797-7.203 6.984-2.012 3.125-3.563 7.121-4.657 11.985-1.086 4.855-1.625 10.578-1.625 17.172 0 6.718.54 12.437 1.625 17.156 1.094 4.71 2.645 8.593 4.657 11.656 1.937 3.063 4.304 5.32 7.109 6.766 2.8 1.449 5.879 2.171 9.234 2.171 2.832 0 5.282-.44 7.344-1.328 2.063-.882 3.828-1.945 5.297-3.187zm0 0"/></symbol></defs><use x="56.971" xlink:href="#d8800eb7a" y="169"/></svg>