<?xml version="1.0" encoding="UTF-8"?><svg enable-background="new 0 0 250 250" height="250px" viewBox="0 0 250 250" width="250px" x="0px" xml:space="preserve" xmlns="http://www.w3.org/2000/svg" xmlns:xlink="http://www.w3.org/1999/xlink" y="0px"><defs><symbol id="4ebb623ea" overflow="visible"><path d="M82.813-27.219c0-4.945-1.797-9.172-5.391-12.672-3.594-3.507-8.84-5.265-15.734-5.265-2.887 0-5.274.105-7.157.312-1.886.2-3.328.297-4.328.297v31.11c0 2.48.895 4.34 2.688 5.578 1.8 1.23 5.054 1.843 9.765 1.843 4.008 0 7.352-.644 10.032-1.937 2.687-1.3 4.734-2.953 6.14-4.953 1.531-2.176 2.578-4.442 3.14-6.797.563-2.363.844-4.867.844-7.516zm17.843.438c0 4.656-1 8.68-3 12.062-2 3.387-4.594 6.172-7.781 8.36-3.18 2.117-6.715 3.703-10.61 4.765C75.38-.53 71.317 0 67.079 0H20.234v-5.828c1.352-.125 2.899-.242 4.641-.36 1.738-.113 3.14-.347 4.203-.703 1.645-.53 2.863-1.457 3.656-2.78.801-1.333 1.203-3.056 1.203-5.173v-65.765c-2.062.062-4.23.14-6.5.234-2.261.086-4.218.184-5.875.297-1.53.125-3.167 1.09-4.906 2.89A36.661 36.661 0 0 0 12.11-71.5c-1.53 2.531-2.726 4.82-3.578 6.86a111.733 111.733 0 0 0-2.078 5.25h-5.39v-27.75h63.359v5.828c-1.762.124-3.484.261-5.172.406-1.68.148-3.074.367-4.188.656-1.824.531-3.09 1.54-3.796 3.016-.711 1.468-1.063 3.117-1.063 4.937v20.766a210.05 210.05 0 0 0 6.047-.203c1.676-.094 4.11-.141 7.297-.141 5.719 0 10.738.46 15.062 1.375 4.332.906 8.086 2.305 11.266 4.188 3.414 2 6.066 4.562 7.953 7.687 1.883 3.125 2.828 7.074 2.828 11.844zm0 0"/></symbol></defs><use x="72.809" xlink:href="#4ebb623ea" y="169"/></svg>