<?xml version="1.0" encoding="UTF-8"?><svg enable-background="new 0 0 250 250" height="250px" viewBox="0 0 250 250" width="250px" x="0px" xml:space="preserve" xmlns="http://www.w3.org/2000/svg" xmlns:xlink="http://www.w3.org/1999/xlink" y="0px"><defs><symbol id="ced7f031a" overflow="visible"><path d="M78.39-25.188c0 8.188-3.64 14.82-10.921 19.891-7.274 5.063-16.774 7.594-28.5 7.594-5.242 0-9.996-.606-14.266-1.813C20.43-.723 16.852-2.359 13.97-4.422c-2.774-2.062-4.899-4.39-6.375-6.984C6.125-14 5.39-16.828 5.39-19.891c0-2.644.707-4.82 2.125-6.53 1.414-1.708 3.625-2.563 6.625-2.563 3.175 0 5.586.855 7.234 2.562 1.656 1.711 2.484 3.508 2.484 5.39 0 1.712-.25 3.743-.75 6.095-.5 2.355-.93 4.183-1.28 5.484 1.53 1.531 3.769 2.781 6.718 3.75 2.945.969 6.394 1.453 10.344 1.453 6.125 0 11.218-1.82 15.28-5.469 4.071-3.656 6.11-8.812 6.11-15.469 0-2-.265-4.03-.797-6.093-.53-2.063-1.539-3.89-3.015-5.485-1.469-1.593-3.469-2.89-6-3.89-2.532-1-5.86-1.5-9.985-1.5h-9.28v-8.219h7.593c7.07 0 12.02-1.484 14.844-4.453 2.832-2.977 4.25-7.594 4.25-13.844 0-4.351-1.36-7.812-4.078-10.375-2.711-2.57-6.45-3.86-11.22-3.86-3.468 0-6.562.759-9.28 2.266-2.711 1.5-5.211 3.547-7.5 6.141-2.063 2.355-3.875 5.11-5.438 8.266-1.563 3.148-2.844 6.105-3.844 8.875H10.61l.532-31.547h5.921l3.172 4.86c2.946-1.352 6.5-2.618 10.657-3.798 4.156-1.176 8.82-1.765 14-1.765 6.488 0 11.765.78 15.828 2.343 4.062 1.555 7.21 3.422 9.453 5.61 2.176 2.117 3.644 4.367 4.406 6.75.77 2.386 1.156 4.344 1.156 5.875 0 2.011-.308 4.062-.921 6.156-.618 2.086-1.778 4.07-3.485 5.953-1.656 1.887-3.945 3.64-6.86 5.266-2.917 1.617-6.585 2.867-11 3.75v1.156c2.77.117 5.614.559 8.532 1.328a26.36 26.36 0 0 1 8.078 3.625c2.656 1.824 4.703 4.106 6.14 6.844 1.446 2.742 2.173 5.996 2.173 9.766zm0 0"/></symbol></defs><use x="82.206" xlink:href="#ced7f031a" y="169"/></svg>