<?xml version="1.0" encoding="UTF-8"?><svg enable-background="new 0 0 250 250" height="250px" viewBox="0 0 250 250" width="250px" x="0px" xml:space="preserve" xmlns="http://www.w3.org/2000/svg" xmlns:xlink="http://www.w3.org/1999/xlink" y="0px"><defs><symbol id="c0a46013a" overflow="visible"><path d="M82.453 0H6.547v-5.828a389.04 389.04 0 0 1 4.187-.36c1.446-.113 2.704-.347 3.766-.703 1.645-.53 2.863-1.457 3.656-2.78.801-1.333 1.203-3.056 1.203-5.173v-56.562c0-1.946-.355-3.567-1.062-4.86-.711-1.3-1.918-2.332-3.625-3.093-1.531-.707-3.024-1.176-4.469-1.407a64.053 64.053 0 0 0-4.015-.546v-5.829H48.78v5.829c-1.71.124-3.183.277-4.422.453-1.23.168-2.375.37-3.437.609-1.656.469-2.93 1.414-3.813 2.828-.875 1.418-1.312 3.125-1.312 5.125v56.922c0 3.18.734 5.371 2.203 6.578 1.477 1.211 3.508 1.844 6.094 1.906 1.476 0 3.187.047 5.125.141 1.945.086 4.16.125 6.64.125 1.883 0 3.844-.031 5.875-.094 2.032-.062 4.02-.117 5.97-.172 2.468-.062 3.984-.609 4.546-1.64.563-1.031.844-2.781.844-5.25v-57.625c0-1.946-.418-3.582-1.25-4.906-.824-1.32-2.059-2.336-3.703-3.047-1.532-.707-2.993-1.176-4.375-1.407a55.258 55.258 0 0 0-4.016-.546v-5.829h42.594v5.829c-1.711.124-3.2.277-4.469.453a40.224 40.224 0 0 0-3.484.609c-1.649.469-2.871 1.398-3.672 2.781-.793 1.387-1.188 3.11-1.188 5.172v56.734c0 3.126.602 5.356 1.813 6.688 1.207 1.324 3.754 1.984 7.64 1.984h5.657v32.703h-6.36a56.892 56.892 0 0 0-6.234-16.796C89.067 3.71 85.867.707 82.453 0zm0 0"/></symbol></defs><use x="70.559" xlink:href="#c0a46013a" y="169"/></svg>