<?xml version="1.0" encoding="UTF-8"?><svg enable-background="new 0 0 250 250" height="250px" viewBox="0 0 250 250" width="250px" x="0px" xml:space="preserve" xmlns="http://www.w3.org/2000/svg" xmlns:xlink="http://www.w3.org/1999/xlink" y="0px"><defs><symbol id="1a02d148a" overflow="visible"><path d="M63.375-45.781V-80.86h-9.906c-6.188 0-11.313 1.445-15.375 4.328C34.03-73.645 32-69.375 32-63.72c0 5.836 2.145 10.282 6.438 13.344 4.3 3.063 10.43 4.594 18.39 4.594zm-26.703 3.718v-.53c-7.95-1.594-13.734-4.227-17.36-7.907-3.625-3.688-5.437-8.36-5.437-14.016 0-6.957 3.133-12.468 9.406-16.53 6.282-4.063 14.223-6.095 23.828-6.095h45.516v5.829c-1.71.124-3.2.277-4.469.453a40.224 40.224 0 0 0-3.484.609c-1.656.469-2.883 1.398-3.672 2.781-.793 1.387-1.188 3.11-1.188 5.172v56.563c0 2.062.348 3.73 1.047 5 .707 1.261 1.914 2.246 3.625 2.953A17.01 17.01 0 0 0 88.5-6.453c1.445.293 2.938.5 4.469.625V0H50.28v-5.828c1.364-.125 2.766-.242 4.203-.36 1.446-.113 2.696-.347 3.75-.703 1.657-.53 2.926-1.457 3.813-2.78.883-1.333 1.328-3.056 1.328-5.173v-24.484h-3.719c-5.48 0-9.765 1.047-12.86 3.14-3.093 2.094-6.054 6.028-8.874 11.797-2.063 4.305-3.762 8.282-5.094 11.938C31.504-8.805 30.133-4.656 28.718 0h-29.78v-5.828C.288-6.004 1.57-6.18 2.78-6.36c1.207-.176 2.52-.383 3.938-.625a12.787 12.787 0 0 0 4.984-2.11c1.508-1.062 2.82-2.8 3.938-5.219a526.165 526.165 0 0 1 2.437-5.437c1.031-2.27 2.25-4.816 3.656-7.64 1.883-3.72 3.989-6.755 6.313-9.11 2.332-2.352 5.207-4.207 8.625-5.563zm0 0"/></symbol></defs><use x="75.5" xlink:href="#1a02d148a" y="169"/></svg>