<?xml version="1.0" encoding="UTF-8"?><svg enable-background="new 0 0 250 250" height="250px" viewBox="0 0 250 250" width="250px" x="0px" xml:space="preserve" xmlns="http://www.w3.org/2000/svg" xmlns:xlink="http://www.w3.org/1999/xlink" y="0px"><defs><symbol id="ab82b713a" overflow="visible"><path d="M150.422 0H6.188v-5.828c1.351-.125 2.812-.242 4.375-.36 1.562-.113 2.874-.347 3.937-.703 1.645-.53 2.863-1.457 3.656-2.78.801-1.333 1.203-3.056 1.203-5.173v-56.562c0-1.946-.355-3.567-1.062-4.86-.711-1.3-1.918-2.332-3.625-3.093-1.531-.707-3.024-1.176-4.469-1.407a64.053 64.053 0 0 0-4.015-.546v-5.829h41.718v5.829c-1.71.124-3.125.277-4.25.453a46.486 46.486 0 0 0-3.265.609c-1.825.531-3.047 1.563-3.672 3.094a12.877 12.877 0 0 0-.922 4.86v56.921c0 3.18.734 5.371 2.203 6.578 1.477 1.211 3.508 1.844 6.094 1.906 1.363 0 2.812.047 4.343.141 1.532.086 3.415.125 5.657.125 1.758 0 3.375-.031 4.843-.094 1.477-.062 3.336-.117 5.579-.172 2.53-.125 4.062-.687 4.593-1.687.532-1 .797-2.735.797-5.203v-57.625c0-1.946-.297-3.582-.89-4.906-.586-1.32-1.7-2.336-3.344-3.047-1.531-.707-2.965-1.176-4.297-1.407a48.709 48.709 0 0 0-3.922-.546v-5.829h41.094v5.829a62.53 62.53 0 0 0-4.375.453 41.84 41.84 0 0 0-3.406.609c-1.774.469-2.954 1.469-3.547 3-.586 1.531-.875 3.184-.875 4.953v57.094c0 3.187.75 5.355 2.25 6.5 1.508 1.148 3.531 1.75 6.062 1.812 1.29 0 2.832.047 4.625.141 1.801.086 3.645.125 5.531.125 1.239 0 2.817-.031 4.735-.094 1.914-.062 3.754-.117 5.516-.172 2.539-.125 4.07-.687 4.593-1.687.531-1 .797-2.735.797-5.203v-57.625c0-1.946-.297-3.582-.89-4.906-.586-1.32-1.7-2.336-3.344-3.047-1.531-.707-2.965-1.176-4.297-1.407a48.709 48.709 0 0 0-3.922-.546v-5.829h41.719v5.829c-1.711.124-3.2.277-4.469.453a38.7 38.7 0 0 0-3.484.609c-1.657.469-2.883 1.398-3.672 2.781-.793 1.387-1.188 3.11-1.188 5.172v56.563c0 2.062.348 3.73 1.047 5 .707 1.261 1.914 2.246 3.625 2.953 1.3.593 2.703 1.039 4.203 1.328 1.5.293 3.047.5 4.64.625zm0 0"/></symbol></defs><use x="47" xlink:href="#ab82b713a" y="169"/></svg>