<?xml version="1.0" encoding="UTF-8"?><svg enable-background="new 0 0 250 250" height="250px" viewBox="0 0 250 250" width="250px" x="0px" xml:space="preserve" xmlns="http://www.w3.org/2000/svg" xmlns:xlink="http://www.w3.org/1999/xlink" y="0px"><defs><symbol id="ae203210a" overflow="visible"><path d="M98.813 0h-29.97c-1.468-4.832-2.792-8.973-3.968-12.422-1.18-3.445-2.918-7.437-5.219-11.969-2.773-5.539-5.824-9.547-9.156-12.015-3.324-2.477-7.605-3.719-12.844-3.719H35.61v24.39c0 2 .41 3.653 1.235 4.954.832 1.293 2.07 2.293 3.718 3a17.01 17.01 0 0 0 4.016 1.328c1.445.293 2.938.5 4.469.625V0h-42.5v-5.828a389.04 389.04 0 0 1 4.187-.36c1.446-.113 2.704-.347 3.766-.703 1.645-.53 2.863-1.457 3.656-2.78.801-1.333 1.203-3.056 1.203-5.173v-56.562c0-1.946-.418-3.582-1.25-4.906-.824-1.32-2.058-2.336-3.703-3.047-1.531-.707-3.023-1.176-4.469-1.407a64.053 64.053 0 0 0-4.015-.546v-5.829h42.516v5.829c-1.711.124-3.2.277-4.47.453a38.7 38.7 0 0 0-3.484.609c-1.656.469-2.886 1.398-3.687 2.781-.793 1.387-1.188 3.11-1.188 5.172v25.547h5.578c1.938 0 3.88-.379 5.829-1.14 1.945-.77 3.566-1.833 4.859-3.188 1.656-1.77 3.129-4.098 4.422-6.984 1.289-2.883 2.379-5.598 3.266-8.141a142.994 142.994 0 0 1 3.234-8.203c1.207-2.832 2.43-5.016 3.672-6.547 2.176-2.656 4.515-4.524 7.015-5.61 2.508-1.093 5.266-1.64 8.266-1.64 4.54 0 7.867.976 9.984 2.922 2.125 1.937 3.188 4.383 3.188 7.328 0 2.531-.844 4.715-2.531 6.547-1.68 1.824-3.899 2.734-6.657 2.734-2.656 0-4.734-.676-6.234-2.031-1.5-1.352-3.578-3.625-6.234-6.813-1.118 1.012-2.188 3.121-3.22 6.329-1.03 3.21-2.023 6.023-2.968 8.437-1.773 4.773-3.586 8.453-5.437 11.047-1.856 2.594-4.016 4.687-6.485 6.281v1.14c5.352 1.063 9.602 3.012 12.75 5.844 3.156 2.825 5.828 6.387 8.016 10.688 1.062 2.063 2.254 4.586 3.578 7.563 1.32 2.968 2.191 4.93 2.61 5.875 1.175 2.648 2.585 4.46 4.234 5.437 1.656.969 3.187 1.57 4.594 1.797 1.351.305 2.722.558 4.109.766 1.383.199 2.64.359 3.766.484zm0 0"/></symbol></defs><use x="75.191" xlink:href="#ae203210a" y="169"/></svg>