<?xml version="1.0" encoding="UTF-8"?><svg enable-background="new 0 0 250 250" height="250px" viewBox="0 0 250 250" width="250px" x="0px" xml:space="preserve" xmlns="http://www.w3.org/2000/svg" xmlns:xlink="http://www.w3.org/1999/xlink" y="0px"><defs><symbol id="ae8f0784a" overflow="visible"><path d="M104.64 0H62.313v-5.828c1.352-.125 2.75-.242 4.188-.36 1.445-.113 2.703-.347 3.766-.703 1.644-.53 2.91-1.457 3.796-2.78.883-1.333 1.329-3.056 1.329-5.173v-45.781l-40.125 43.39v1.5c0 2 .41 3.653 1.234 4.954.82 1.293 2.063 2.293 3.719 3 1.289.593 2.656 1.039 4.093 1.328 1.446.293 2.97.5 4.563.625V0H6.547v-5.828a389.04 389.04 0 0 1 4.187-.36c1.446-.113 2.704-.347 3.766-.703 1.645-.53 2.863-1.457 3.656-2.78.801-1.333 1.203-3.056 1.203-5.173v-56.562c0-1.946-.418-3.582-1.25-4.906-.824-1.32-2.058-2.336-3.703-3.047-1.531-.707-3.023-1.176-4.469-1.407a64.053 64.053 0 0 0-4.015-.546v-5.829H48.25v5.829c-1.71.124-3.2.277-4.469.453a40.224 40.224 0 0 0-3.484.609c-1.649.469-2.871 1.398-3.672 2.781-.793 1.387-1.188 3.11-1.188 5.172v45.078l40.126-43.484c0-2.594-.415-4.504-1.235-5.734-.824-1.239-2.062-2.211-3.719-2.922-1.53-.707-3.046-1.176-4.546-1.407a73.499 73.499 0 0 0-4.11-.546v-5.829h42.328v5.829c-1.71.124-3.199.277-4.469.453a40.224 40.224 0 0 0-3.484.609c-1.648.469-2.871 1.398-3.672 2.781-.793 1.387-1.187 3.11-1.187 5.172v56.563c0 2.062.351 3.73 1.062 5 .707 1.261 1.914 2.246 3.625 2.953a17.01 17.01 0 0 0 4.016 1.328c1.445.293 2.937.5 4.469.625zm0 0"/></symbol></defs><use x="69.676" xlink:href="#ae8f0784a" y="169"/></svg>