<?xml version="1.0" encoding="UTF-8"?><svg enable-background="new 0 0 250 250" height="250px" viewBox="0 0 250 250" width="250px" x="0px" xml:space="preserve" xmlns="http://www.w3.org/2000/svg" xmlns:xlink="http://www.w3.org/1999/xlink" y="0px"><defs><symbol id="89407d07a" overflow="visible"><path d="M9.906-7.156c5.82-7.719 10.899-17.852 15.235-30.407 4.332-12.55 6.5-22.832 6.5-30.843 0-3.063-.387-5.328-1.157-6.797-.761-1.477-1.964-2.629-3.609-3.453-1.125-.594-2.953-1.14-5.484-1.64-2.532-.5-4.594-.837-6.188-1.016v-5.829h79.36v5.829c-1.711.124-3.2.277-4.47.453a40.224 40.224 0 0 0-3.484.609c-1.648.469-2.87 1.398-3.671 2.781-.793 1.387-1.188 3.11-1.188 5.172v56.484c0 3.118.602 5.34 1.813 6.672 1.207 1.325 3.753 1.985 7.64 1.985h5.656v32.703H90.5a59.61 59.61 0 0 0-6.281-16.89C81.28 3.351 78.102.346 74.688-.36h-51.36c-3.18.53-6.402 3.476-9.672 8.843-3.273 5.364-5.496 11.051-6.672 17.063H.625V-7.156zm10.063 0h38.093c2.594 0 4.446-.457 5.563-1.375 1.125-.914 1.688-2.317 1.688-4.203v-67.157H41.016c-.356 14.907-2.407 28.563-6.157 40.97-3.742 12.398-8.703 22.983-14.89 31.765zm0 0"/></symbol></defs><use x="74.441" xlink:href="#89407d07a" y="169"/></svg>