<?xml version="1.0" encoding="UTF-8"?><svg enable-background="new 0 0 250 250" height="250px" viewBox="0 0 250 250" width="250px" x="0px" xml:space="preserve" xmlns="http://www.w3.org/2000/svg" xmlns:xlink="http://www.w3.org/1999/xlink" y="0px"><defs><symbol id="298b823da" overflow="visible"><path d="M83.25-59.219h-5.39c-.532-1.644-1.313-3.586-2.344-5.828a60.907 60.907 0 0 0-3.391-6.36c-1.305-2.187-2.766-4.116-4.39-5.796-1.618-1.676-3.31-2.633-5.079-2.875a106.763 106.763 0 0 0-6.093-.39c-2.243-.094-4.157-.141-5.75-.141v64.875c0 2 .41 3.652 1.234 4.953.832 1.293 2.07 2.293 3.719 3 1.3.593 2.773 1.039 4.422 1.328 1.644.293 3.265.5 4.859.625V0h-44.36v-5.828c1.352-.125 2.895-.242 4.625-.36 1.739-.113 3.141-.347 4.204-.703 1.656-.53 2.879-1.457 3.672-2.78.789-1.333 1.187-3.056 1.187-5.173v-65.765c-1.887.062-4.008.14-6.36.234-2.355.086-4.21.184-5.562.297-1.531.125-3.168 1.101-4.906 2.922a39.131 39.131 0 0 0-4.563 5.75c-1.23 2-2.375 4.226-3.437 6.672-1.063 2.449-1.805 4.289-2.219 5.515h-5.39V-87.14H83.25zm0 0"/></symbol></defs><use x="82.471" xlink:href="#298b823da" y="169"/></svg>