<?xml version="1.0" encoding="UTF-8"?><svg enable-background="new 0 0 250 250" height="250px" viewBox="0 0 250 250" width="250px" x="0px" xml:space="preserve" xmlns="http://www.w3.org/2000/svg" xmlns:xlink="http://www.w3.org/1999/xlink" y="0px"><defs><symbol id="67d5de87a" overflow="visible"><path d="M69.375-25.625c0-5.188-1.918-9.281-5.75-12.281-3.824-3.008-9.305-4.516-16.438-4.516-3.117 0-5.574.063-7.374.188-1.793.117-3.196.172-4.204.172v28.812c0 2.293.973 4.074 2.922 5.344 1.946 1.261 4.922 1.89 8.922 1.89 4.25 0 7.844-.554 10.781-1.671 2.946-1.125 5.25-2.657 6.907-4.594 1.582-1.883 2.68-3.946 3.296-6.188.626-2.238.938-4.625.938-7.156zm17.672 1.328c0 4.293-.977 8-2.922 11.125-1.938 3.125-4.617 5.688-8.031 7.688-3.125 1.836-6.696 3.21-10.703 4.125C61.39-.453 57.117 0 52.578 0H6.547v-5.828a389.04 389.04 0 0 1 4.187-.36c1.446-.113 2.704-.347 3.766-.703 1.645-.53 2.863-1.457 3.656-2.78.801-1.333 1.203-3.056 1.203-5.173v-56.562c0-1.946-.418-3.582-1.25-4.906-.824-1.32-2.058-2.336-3.703-3.047-1.531-.707-3.023-1.176-4.469-1.407a64.053 64.053 0 0 0-4.015-.546v-5.829c5.238 0 11.734-.023 19.484-.078 7.75-.062 15.836-.094 24.266-.094 4.476 0 8.644.31 12.5.922 3.863.618 7.297 1.664 10.297 3.141 3.125 1.531 5.539 3.61 7.25 6.234 1.707 2.618 2.562 5.782 2.562 9.5 0 5.836-1.812 10.446-5.437 13.829-3.625 3.386-8.383 5.699-14.266 6.937v.969c3 .418 5.957 1.101 8.875 2.047 2.914.937 5.524 2.23 7.828 3.875a19.613 19.613 0 0 1 5.64 6.328c1.415 2.5 2.126 5.578 2.126 9.234zM64.78-66.813c0-2.945-.547-5.347-1.64-7.203-1.086-1.851-2.543-3.312-4.375-4.375-1.825-1.062-3.871-1.78-6.141-2.156a41.987 41.987 0 0 0-7.016-.578c-1.53 0-3.23.047-5.093.14-1.856.087-3.493.153-4.907.204v31.812h8.578c4.063 0 7.477-.468 10.25-1.406 2.77-.945 4.864-2.21 6.282-3.797 1.468-1.531 2.508-3.36 3.125-5.484.625-2.125.937-4.508.937-7.157zm0 0"/></symbol></defs><use x="78.191" xlink:href="#67d5de87a" y="169"/></svg>