<?xml version="1.0" encoding="UTF-8"?><svg enable-background="new 0 0 250 250" height="250px" viewBox="0 0 250 250" width="250px" x="0px" xml:space="preserve" xmlns="http://www.w3.org/2000/svg" xmlns:xlink="http://www.w3.org/1999/xlink" y="0px"><defs><symbol id="d0c12475a" overflow="visible"><path d="M104.016 0H61.422v-5.828a389.04 389.04 0 0 1 4.187-.36c1.446-.113 2.704-.347 3.766-.703 1.656-.53 2.922-1.457 3.797-2.78.883-1.333 1.328-3.056 1.328-5.173v-27.75H35.703v26.86c0 2 .41 3.652 1.234 4.953.833 1.293 2.07 2.293 3.72 3a17.01 17.01 0 0 0 4.015 1.328c1.445.293 2.937.5 4.469.625V0H6.547v-5.828a389.04 389.04 0 0 1 4.187-.36c1.446-.113 2.704-.347 3.766-.703 1.645-.53 2.863-1.457 3.656-2.78.801-1.333 1.203-3.056 1.203-5.173v-56.562c0-1.946-.418-3.582-1.25-4.906-.824-1.32-2.058-2.336-3.703-3.047-1.531-.707-3.023-1.176-4.469-1.407a64.053 64.053 0 0 0-4.015-.546v-5.829h42.594v5.829c-1.711.124-3.2.277-4.47.453a40.224 40.224 0 0 0-3.483.609c-1.649.469-2.872 1.398-3.672 2.781-.793 1.387-1.188 3.11-1.188 5.172v22.453H74.5v-21.562c0-1.946-.414-3.582-1.234-4.906-.825-1.32-2.063-2.336-3.72-3.047-1.53-.707-3.023-1.176-4.468-1.407a64.053 64.053 0 0 0-4.016-.546v-5.829h42.61v5.829c-1.711.124-3.2.277-4.469.453a40.224 40.224 0 0 0-3.484.609c-1.656.469-2.883 1.398-3.672 2.781-.793 1.387-1.188 3.11-1.188 5.172v56.563c0 2.062.348 3.73 1.047 5 .707 1.261 1.914 2.246 3.625 2.953a17.01 17.01 0 0 0 4.016 1.328c1.445.293 2.937.5 4.469.625zm0 0"/></symbol></defs><use x="69.985" xlink:href="#d0c12475a" y="169"/></svg>