<?xml version="1.0" encoding="UTF-8"?><svg enable-background="new 0 0 250 250" height="250px" viewBox="0 0 250 250" width="250px" x="0px" xml:space="preserve" xmlns="http://www.w3.org/2000/svg" xmlns:xlink="http://www.w3.org/1999/xlink" y="0px"><defs><symbol id="49463a43a" overflow="visible"><path d="M112.953-15.906c1.82-3.707 3.176-7.93 4.063-12.672.882-4.75 1.328-9.985 1.328-15.703 0-4.832-.356-9.532-1.063-14.094-.71-4.563-1.976-8.703-3.797-12.422-1.773-3.644-4.148-6.57-7.125-8.781-2.968-2.219-6.668-3.328-11.093-3.328-4.774 0-8.688 1.183-11.75 3.547-3.063 2.355-5.48 5.359-7.25 9.015-1.762 3.531-2.996 7.57-3.704 12.11A87.098 87.098 0 0 0 71.5-44.72c0 5.48.426 10.684 1.281 15.61.852 4.918 2.223 9.23 4.11 12.937 1.882 3.774 4.3 6.735 7.25 8.89 2.945 2.15 6.656 3.22 11.125 3.22 4.007 0 7.5-1.07 10.468-3.22 2.977-2.155 5.383-5.03 7.22-8.624zM65.937-9.453c-3.656-4.008-6.515-8.77-8.578-14.281-2.062-5.508-3.152-11.797-3.265-18.86H35.609v26.86c0 2 .41 3.652 1.235 4.953.832 1.293 2.07 2.293 3.718 3a17.01 17.01 0 0 0 4.016 1.328c1.445.293 2.938.5 4.469.625V0h-42.5v-5.828a389.04 389.04 0 0 1 4.187-.36c1.446-.113 2.704-.347 3.766-.703 1.645-.53 2.863-1.457 3.656-2.78.801-1.333 1.203-3.056 1.203-5.173v-56.562c0-1.946-.418-3.582-1.25-4.906-.824-1.32-2.058-2.336-3.703-3.047-1.531-.707-3.023-1.176-4.469-1.407a64.053 64.053 0 0 0-4.015-.546v-5.829h42.516v5.829c-1.711.124-3.2.277-4.47.453a38.7 38.7 0 0 0-3.484.609c-1.656.469-2.886 1.398-3.687 2.781-.793 1.387-1.188 3.11-1.188 5.172v22.453h18.75c1.114-11.781 5.305-21.351 12.578-28.718C74.22-85.927 83.724-89.61 95.453-89.61c6.54 0 12.36 1.18 17.453 3.53 5.094 2.356 9.348 5.477 12.766 9.36 3.594 4.074 6.316 8.809 8.172 14.203 1.863 5.387 2.797 11.407 2.797 18.063 0 6.242-.934 12.277-2.797 18.11-1.856 5.835-4.547 10.843-8.078 15.03-3.711 4.368-8.133 7.79-13.266 10.266-5.125 2.469-11.25 3.703-18.375 3.703-5.48 0-10.637-1.047-15.469-3.14-4.836-2.094-9.074-5.082-12.719-8.97zm0 0"/></symbol></defs><use x="53.662" xlink:href="#49463a43a" y="169"/></svg>