<?xml version="1.0" encoding="UTF-8"?><svg enable-background="new 0 0 250 250" height="250px" viewBox="0 0 250 250" width="250px" x="0px" xml:space="preserve" xmlns="http://www.w3.org/2000/svg" xmlns:xlink="http://www.w3.org/1999/xlink" y="0px"><defs><symbol id="e6af7d52a" overflow="visible"><path d="M90.328 0H50.375v-5.828c2.656-.3 4.91-.598 6.766-.89 1.851-.29 2.78-1.055 2.78-2.298 0-.53-.296-1.351-.89-2.468a42.385 42.385 0 0 0-1.765-3.094 630.565 630.565 0 0 0-6.047-9.235c-2.563-3.863-5.703-8.476-9.422-13.843a266.992 266.992 0 0 0-8.484 11.187 1304.163 1304.163 0 0 0-8.126 11.532c-.417.593-.843 1.335-1.28 2.218-.438.875-.657 1.578-.657 2.11 0 1.304.836 2.382 2.516 3.234 1.675.855 4.191 1.43 7.547 1.719V0H1.063v-5.484C5.07-6.66 8.296-8.086 10.733-9.766 13.18-11.44 15.438-13.52 17.5-16c1.82-2.352 4.367-5.594 7.64-9.719 3.27-4.125 7.5-9.722 12.688-16.797-3.012-4.3-6.683-9.554-11.016-15.765a3271.533 3271.533 0 0 1-10.734-15.516c-1.531-2.238-3.289-4.05-5.265-5.437-1.97-1.383-4.75-2.079-8.344-2.079v-5.828H40.39v5.829c-1.887 0-3.746.12-5.578.359-1.825.23-2.735.762-2.735 1.594 0 .53.176 1.12.531 1.765.352.649.797 1.356 1.328 2.125 1.29 2 3.305 5.094 6.047 9.281a788.81 788.81 0 0 0 8.891 13.25c2.063-2.832 4.46-6.132 7.203-9.906a377.303 377.303 0 0 0 7.563-10.781c.226-.406.457-.914.687-1.531.238-.625.36-1.235.36-1.828 0-1.227-1.016-2.211-3.047-2.954-2.032-.738-3.961-1.253-5.782-1.546v-5.657h32.172v5.485c-4.543 1.18-8.078 2.578-10.61 4.203-2.53 1.617-4.683 3.48-6.452 5.594-1.95 2.418-4.262 5.398-6.938 8.937-2.68 3.531-6.433 8.48-11.265 14.844 5.363 7.543 9.722 13.73 13.078 18.562C69.195-24.68 72.582-19.703 76-14.578c1.707 2.594 3.61 4.64 5.703 6.14 2.094 1.5 4.969 2.372 8.625 2.61zm0 0"/></symbol></defs><use x="79.382" xlink:href="#e6af7d52a" y="169"/></svg>