<?xml version="1.0" encoding="UTF-8"?><svg enable-background="new 0 0 250 250" height="250px" viewBox="0 0 250 250" width="250px" x="0px" xml:space="preserve" xmlns="http://www.w3.org/2000/svg" xmlns:xlink="http://www.w3.org/1999/xlink" y="0px"><defs><symbol id="3967cf6ea" overflow="visible"><path d="M81.656-47.375c0 6.781-.976 13.25-2.922 19.406-1.937 6.157-4.734 11.414-8.39 15.766-3.95 4.656-8.559 8.242-13.828 10.75-5.274 2.5-11.621 3.75-19.047 3.75-5.305 0-9.961-.578-13.969-1.735-4-1.144-7.328-2.687-9.984-4.625-2.711-1.945-4.743-4.218-6.094-6.812-1.356-2.594-2.031-5.332-2.031-8.219 0-2.644.707-4.82 2.125-6.531 1.414-1.707 3.625-2.563 6.625-2.563 3.062 0 5.445.856 7.156 2.563 1.707 1.71 2.562 3.531 2.562 5.469 0 1.71-.25 3.61-.75 5.703-.5 2.094-.93 3.789-1.28 5.078.35.242.882.64 1.593 1.203.707.563 1.77 1.137 3.187 1.719a34.84 34.84 0 0 0 4.625 1.594c1.563.406 3.703.609 6.422.609 4.125 0 7.848-.926 11.172-2.781 3.332-1.852 6.145-4.489 8.438-7.907 2.3-3.476 4.039-7.453 5.218-11.921 1.176-4.477 1.766-9.489 1.766-15.032h-35v-8.218h35.172c-.055-6.54-.746-11.883-2.078-16.032-1.324-4.156-2.985-7.441-4.985-9.859-2.125-2.54-4.543-4.328-7.25-5.36a23.195 23.195 0 0 0-8.312-1.546c-3.469 0-6.621.773-9.453 2.312a28.366 28.366 0 0 0-7.516 5.906c-2.18 2.543-3.902 5.153-5.172 7.829a88.23 88.23 0 0 0-3.312 8h-5.922l.531-30.672h6.016l2.734 4.156c3.188-1.707 6.914-2.828 11.188-3.36 4.27-.53 8.172-.796 11.703-.796 6.426 0 12.05 1.136 16.875 3.406 4.832 2.273 8.898 5.32 12.203 9.14 3.238 3.837 5.71 8.305 7.422 13.407 1.707 5.094 2.562 10.496 2.562 16.203zm0 0"/></symbol></defs><use x="81.059" xlink:href="#3967cf6ea" y="169"/></svg>