<?xml version="1.0" encoding="UTF-8"?><svg enable-background="new 0 0 250 250" height="250px" viewBox="0 0 250 250" width="250px" x="0px" xml:space="preserve" xmlns="http://www.w3.org/2000/svg" xmlns:xlink="http://www.w3.org/1999/xlink" y="0px"><defs><symbol id="9de742fda" overflow="visible"><path d="M123.281 0H80.61v-5.828a389.04 389.04 0 0 1 4.188-.36c1.445-.113 2.703-.347 3.766-.703 1.707-.53 3.015-1.488 3.921-2.875.914-1.382 1.375-3.078 1.375-5.078v-63.11h-2.125L62.22-1.421h-5.485l-27.75-78.031h-1.937v61.062c0 3.012.426 5.371 1.281 7.078C29.18-9.601 30.406-8.425 32-7.78a16.662 16.662 0 0 0 4.016 1.328c1.445.293 2.937.5 4.468.625V0H6.547v-5.828a389.04 389.04 0 0 1 4.187-.36c1.446-.113 2.704-.347 3.766-.703 1.758-.593 3.008-1.754 3.75-3.484.738-1.738 1.11-4.113 1.11-7.125v-53.031c0-2.29-.419-4.156-1.25-5.594-.825-1.445-2.06-2.523-3.704-3.234-1.531-.707-3.023-1.176-4.469-1.407a64.053 64.053 0 0 0-4.015-.546v-5.829h36.234L63.984-24.75 83.25-76.453a157.216 157.216 0 0 0 1.953-6.094c.707-2.351 1.086-3.883 1.14-4.594h36.594v5.829c-1.71.124-3.199.277-4.468.453a40.224 40.224 0 0 0-3.485.609c-1.656.469-2.882 1.398-3.671 2.781-.793 1.387-1.188 3.11-1.188 5.172v56.563c0 2.062.348 3.73 1.047 5 .707 1.261 1.914 2.246 3.625 2.953a17.01 17.01 0 0 0 4.016 1.328c1.445.293 2.937.5 4.468.625zm0 0"/></symbol></defs><use x="60.368" xlink:href="#9de742fda" y="169"/></svg>