<?xml version="1.0" encoding="UTF-8"?><svg enable-background="new 0 0 250 250" height="250px" viewBox="0 0 250 250" width="250px" x="0px" xml:space="preserve" xmlns="http://www.w3.org/2000/svg" xmlns:xlink="http://www.w3.org/1999/xlink" y="0px"><defs><symbol id="79a6e357a" overflow="visible"><path d="M44.875-7.313c1.594.118 3.098.231 4.516.344 1.414.117 2.914.172 4.5.172 6.687 0 11.867-1.64 15.547-4.922 3.687-3.289 5.53-8.453 5.53-15.484 0-3.164-.511-5.852-1.53-8.063-1.024-2.218-2.415-4.004-4.172-5.359-1.75-1.363-3.79-2.36-6.11-2.984a27.677 27.677 0 0 0-7.218-.938c-3.856 0-7.543.344-11.063 1.031zM55.078-85v4.422c-1.355.906-2.887 1.672-4.594 2.297-1.699.625-3.57 1.219-5.609 1.781v26.188c1.926-.227 4.11-.516 6.547-.86 2.437-.344 5.922-.516 10.453-.516 9.29 0 16.57 1.985 21.844 5.954 5.27 3.968 7.906 10.203 7.906 18.703 0 4.531-.852 8.527-2.547 11.984-1.7 3.461-4.105 6.352-7.219 8.672-3.117 2.324-6.796 4.086-11.046 5.281C66.563.094 61.883.688 56.78.688 53.72.688 50.285.57 46.484.344 42.691.114 38.644 0 34.344 0H18.359v-4.25c3.176-1.813 6.914-3.172 11.22-4.078v-69.188H16.311L8.845-57.125H4.422c-.574-4.3-1-8.945-1.281-13.938-.282-4.988-.48-9.632-.594-13.937zm0 0"/></symbol></defs><use x="75.978" xlink:href="#79a6e357a" y="169"/></svg>