<?xml version="1.0" encoding="UTF-8"?><svg enable-background="new 0 0 250 250" height="250px" viewBox="0 0 250 250" width="250px" x="0px" xml:space="preserve" xmlns="http://www.w3.org/2000/svg" xmlns:xlink="http://www.w3.org/1999/xlink" y="0px"><defs><symbol id="334bde47a" overflow="visible"><path d="M61.031 0H23.297v-4.25c3.508-1.813 7.25-3.172 11.219-4.078v-69.188H18.703L11.22-57.125H6.797a344.65 344.65 0 0 1-1.36-14.36C5.103-76.19 4.88-80.694 4.766-85h74.796a451.146 451.146 0 0 1-.593 13.344 178.68 178.68 0 0 1-1.453 14.531h-4.422l-7.469-20.39H49.812v69.187c5.32 1.355 9.063 2.715 11.22 4.078zm0 0"/></symbol></defs><use x="82.859" xlink:href="#334bde47a" y="169"/></svg>