<?xml version="1.0" encoding="UTF-8"?><svg enable-background="new 0 0 250 250" height="250px" viewBox="0 0 250 250" width="250px" x="0px" xml:space="preserve" xmlns="http://www.w3.org/2000/svg" xmlns:xlink="http://www.w3.org/1999/xlink" y="0px"><defs><symbol id="cff86377a" overflow="visible"><path d="M35.188 0H5.265v-4.25c3.738-1.813 7.476-3.172 11.218-4.078l2.563-66.469c-2.387-.906-4.485-1.867-6.297-2.89a151.321 151.321 0 0 1-4.938-2.891V-85H40.97l17.515 49.64 3.22 11.735h.515l3.578-11.906L83.984-85h32.125v4.422c-1.468.906-3.117 1.7-4.937 2.375-1.813.68-3.906 1.246-6.281 1.703l3.406 68.172c3.738.68 7.476 2.039 11.219 4.078V0H83.469v-4.25a81.835 81.835 0 0 1 4.078-1.86c1.594-.687 3.633-1.425 6.125-2.218l-3.406-68.86h-1.36L61.031 0h-4.593L28.905-77.188h-1.36l-2.562 68.86c4.082 1.25 7.485 2.61 10.203 4.078zm0 0"/></symbol></defs><use x="62.639" xlink:href="#cff86377a" y="169"/></svg>