<?xml version="1.0" encoding="UTF-8"?><svg enable-background="new 0 0 250 250" height="250px" viewBox="0 0 250 250" width="250px" x="0px" xml:space="preserve" xmlns="http://www.w3.org/2000/svg" xmlns:xlink="http://www.w3.org/1999/xlink" y="0px"><defs><symbol id="eecbbb2ba" overflow="visible"><path d="M10.875-60.016c0-3.851.625-7.363 1.875-10.53 1.25-3.177 3.203-5.895 5.86-8.157 2.663-2.27 6.066-4.055 10.203-5.36 4.132-1.3 9.148-1.953 15.046-1.953 1.364 0 3.258.059 5.688.172 2.437.106 5.016.215 7.734.328 2.727.118 5.364.23 7.907.344 2.55.117 4.566.172 6.046.172H83.47v4.422c-.906.793-2.184 1.531-3.828 2.219-1.637.68-4.102 1.296-7.391 1.859v68.172c4.195 1.25 7.938 2.61 11.219 4.078V0H46.922v-4.25a27.299 27.299 0 0 1 4.672-2.297 71.186 71.186 0 0 1 5.36-1.781v-28.735l-12.407 1.704c-2.387 3.968-5.055 8.761-8 14.375-2.95 5.605-6.969 11.297-12.063 17.078L19.204 0H0v-4.25l9.516-4.078c5.101-5.32 9.41-10.586 12.921-15.797 3.508-5.219 6.68-9.645 9.516-13.281a33.734 33.734 0 0 1-7.656-2.282 23.06 23.06 0 0 1-6.703-4.421c-1.98-1.875-3.594-4.114-4.844-6.72-1.25-2.6-1.875-5.663-1.875-9.187zm46.078-17.5c-1.48-.226-3.383-.457-5.703-.687-2.324-.227-4.277-.344-5.86-.344-7.03-.101-11.882 1.516-14.546 4.86-2.657 3.335-3.985 7.726-3.985 13.171 0 5.555 2.067 10.118 6.203 13.688 4.133 3.562 10.567 5.344 19.297 5.344h4.594zm0 0"/></symbol></defs><use x="79.971" xlink:href="#eecbbb2ba" y="169"/></svg>