<?xml version="1.0" encoding="UTF-8"?><svg enable-background="new 0 0 250 250" height="250px" viewBox="0 0 250 250" width="250px" x="0px" xml:space="preserve" xmlns="http://www.w3.org/2000/svg" xmlns:xlink="http://www.w3.org/1999/xlink" y="0px"><defs><symbol id="0924cf51a" overflow="visible"><path d="M38.078-29.922l4.766 16.328h.843l3.75-16.5L63.922-85h13.766L52.53-8.672a1551.21 1551.21 0 0 1-5.703 16.14c-1.867 5.22-3.933 9.868-6.203 13.954-2.262 4.082-4.809 7.336-7.64 9.765-2.837 2.438-6.122 3.657-9.86 3.657-4.086 0-7.43-.563-10.031-1.688l2.375-11.734c1.476.562 2.894.844 4.25.844 3.176 0 6.234-1.672 9.172-5.016 2.945-3.344 5.382-9.094 7.312-17.25L2.047-85h15.64zm0 0"/></symbol></defs><use x="85.408" xlink:href="#0924cf51a" y="169"/></svg>