<?xml version="1.0" encoding="UTF-8"?><svg enable-background="new 0 0 250 250" height="250px" viewBox="0 0 250 250" width="250px" x="0px" xml:space="preserve" xmlns="http://www.w3.org/2000/svg" xmlns:xlink="http://www.w3.org/1999/xlink" y="0px"><defs><symbol id="05aaef9ea" overflow="visible"><path d="M33.156-50.313c1.926-.226 4.078-.515 6.453-.859 2.383-.344 5.844-.516 10.375-.516 9.29 0 16.598 1.985 21.922 5.954 5.332 3.968 8 10.203 8 18.703 0 4.531-.883 8.527-2.64 11.984-1.762 3.461-4.172 6.352-7.235 8.672-3.054 2.324-6.734 4.086-11.047 5.281C54.68.094 49.977.688 44.875.688c-3.055 0-6.48-.118-10.281-.344C30.8.114 26.75 0 22.437 0H6.626v-4.25a34.102 34.102 0 0 1 5.438-2.297 200.383 200.383 0 0 1 5.78-1.781V-76.5c-2.148-.457-4.124-1.023-5.937-1.703a44.149 44.149 0 0 1-5.281-2.375V-85h36.719v4.422c-2.719 1.586-6.117 2.945-10.188 4.078zm0 43c1.469.118 2.938.231 4.407.344 1.476.117 3.007.172 4.593.172 6.57 0 11.696-1.64 15.375-4.922 3.688-3.289 5.532-8.453 5.532-15.484 0-3.164-.512-5.852-1.532-8.063-1.011-2.218-2.37-3.976-4.078-5.28-1.7-1.302-3.71-2.235-6.031-2.798-2.324-.57-4.79-.86-7.39-.86-1.813 0-3.657.032-5.532.095-1.867.054-3.648.25-5.344.593zm0 0"/></symbol></defs><use x="81.84" xlink:href="#05aaef9ea" y="169"/></svg>