<?xml version="1.0" encoding="UTF-8"?><svg enable-background="new 0 0 250 250" height="250px" viewBox="0 0 250 250" width="250px" x="0px" xml:space="preserve" xmlns="http://www.w3.org/2000/svg" xmlns:xlink="http://www.w3.org/1999/xlink" y="0px"><defs><symbol id="6b4ac572a" overflow="visible"><path d="M21.25-37.906v-11.047h11.906c2.032 0 4.035-.336 6.016-1.016 1.988-.687 3.773-1.625 5.36-2.812 1.593-1.188 2.866-2.602 3.827-4.25.97-1.645 1.453-3.375 1.453-5.188 0-4.414-1.53-7.531-4.593-9.343-3.063-1.82-7.653-2.735-13.766-2.735-4.43 0-8.484.684-12.172 2.047-3.68 1.367-6.539 2.668-8.578 3.906L6.797-78.875c3.406-1.926 7.398-3.625 11.984-5.094 4.594-1.476 10.063-2.219 16.407-2.219 18.812 0 28.218 6.97 28.218 20.907 0 3.969-1.277 7.855-3.828 11.656-2.543 3.793-6.195 6.48-10.953 8.063v.687c6.688 1.242 11.36 3.621 14.016 7.14 2.664 3.512 4 8.157 4 13.938 0 3.625-.743 6.969-2.22 10.031-1.468 3.055-3.679 5.715-6.624 7.985-2.95 2.273-6.664 4.058-11.14 5.36-4.47 1.3-9.653 1.952-15.548 1.952-5.78 0-10.574-.511-14.375-1.531-3.793-1.02-7.218-2.266-10.28-3.734l3.921-11.22c2.602 1.47 5.742 2.602 9.422 3.392 3.687.792 7.687 1.187 12 1.187 6.906 0 12.172-1.188 15.797-3.563 3.633-2.382 5.453-6.007 5.453-10.874 0-4.083-1.703-7.286-5.11-9.61-3.398-2.32-9.007-3.484-16.828-3.484zm0 0"/></symbol></defs><use x="87.532" xlink:href="#6b4ac572a" y="169"/></svg>