<?xml version="1.0" encoding="UTF-8"?><svg enable-background="new 0 0 250 250" height="250px" viewBox="0 0 250 250" width="250px" x="0px" xml:space="preserve" xmlns="http://www.w3.org/2000/svg" xmlns:xlink="http://www.w3.org/1999/xlink" y="0px"><defs><symbol id="9dd92fdba" overflow="visible"><path d="M26.688-11.906c4.195.687 8.222 1.031 12.078 1.031 7.132 0 12.117-1.383 14.953-4.156 2.832-2.781 4.25-6.723 4.25-11.828 0-4.532-1.39-8.27-4.172-11.22-2.774-2.944-7.617-4.421-14.531-4.421-1.93 0-4.028.059-6.297.172-2.262.117-4.356.453-6.282 1.016zm0-40.625a82.88 82.88 0 0 1 7.812-.922c2.5-.176 4.883-.266 7.156-.266 5.77 0 10.61.653 14.516 1.953 3.914 1.305 7.062 3.09 9.437 5.36 2.383 2.261 4.055 4.953 5.016 8.078.969 3.117 1.453 6.43 1.453 9.937 0 10.313-2.867 17.793-8.594 22.438-5.718 4.648-14.98 6.969-27.78 6.969-7.263 0-14.798-.34-22.61-1.016v-85h13.594zM85.516-85h13.593V0H85.516zm0 0"/></symbol></defs><use x="68.926" xlink:href="#9dd92fdba" y="169"/></svg>