<?xml version="1.0" encoding="UTF-8"?><svg enable-background="new 0 0 250 250" height="250px" viewBox="0 0 250 250" width="250px" x="0px" xml:space="preserve" xmlns="http://www.w3.org/2000/svg" xmlns:xlink="http://www.w3.org/1999/xlink" y="0px"><defs><symbol id="ccc55846a" overflow="visible"><path d="M51.344.688a21.886 21.886 0 0 1-6.047 1.187 106.37 106.37 0 0 1-5.688.172c-10.312 0-18.246-3.625-23.797-10.875-5.554-7.258-8.328-18.485-8.328-33.672 0-14.508 3.055-25.445 9.172-32.813 6.125-7.363 14.969-11.046 26.532-11.046 3.164 0 5.882.226 8.156.671V-119h12.922v33.484c2.03-.332 3.836-.554 5.421-.671a65.072 65.072 0 0 1 4.61-.172c11.219 0 19.66 3.261 25.328 9.78 5.664 6.513 8.5 17.306 8.5 32.376 0 7.148-.766 13.586-2.297 19.312-1.531 5.72-3.773 10.563-6.719 14.532-2.949 3.96-6.546 7.015-10.796 9.171C84.063.97 79.16 2.047 73.608 2.047c-1.023 0-2.527-.09-4.515-.266-1.98-.168-3.59-.48-4.828-.937V34H51.344zm20.39-75.829c-1.355 0-2.574.032-3.656.094-1.074.055-2.402.305-3.984.75v64.61c1.133.23 2.41.37 3.828.421 1.414.055 2.973.079 4.672.079 7.25 0 12.71-3 16.39-9 3.688-6.008 5.532-14.68 5.532-26.016 0-9.633-1.672-17.195-5.016-22.688-3.344-5.5-9.266-8.25-17.766-8.25zM43.016-9.187c1.351 0 2.707-.051 4.062-.157 1.363-.113 2.844-.344 4.438-.687v-64.422a58.854 58.854 0 0 0-3.828-.516c-1.188-.113-2.637-.172-4.344-.172-7.024 0-12.492 2.637-16.407 7.907-3.906 5.273-5.859 13.515-5.859 24.734 0 4.762.422 9.184 1.266 13.266.851 4.074 2.187 7.617 4 10.625 1.812 3 4.11 5.324 6.89 6.968 2.782 1.637 6.04 2.454 9.782 2.454zm0 0"/></symbol></defs><use x="67.227" xlink:href="#ccc55846a" y="169"/></svg>