<?xml version="1.0" encoding="UTF-8"?><svg enable-background="new 0 0 250 250" height="250px" viewBox="0 0 250 250" width="250px" x="0px" xml:space="preserve" xmlns="http://www.w3.org/2000/svg" xmlns:xlink="http://www.w3.org/1999/xlink" y="0px"><defs><symbol id="713950a0a" overflow="visible"><path d="M79.047 2.047c-6.117 0-11.356-.934-15.719-2.797-4.367-1.875-7.937-4.54-10.719-8-2.773-3.457-4.867-7.648-6.28-12.578-1.419-4.938-2.298-10.348-2.642-16.235h-17V0H13.095v-85h13.594v35.531h17.171c.907-12.125 4.22-21.414 9.938-27.875 5.726-6.469 14.258-9.703 25.594-9.703 6.226 0 11.523 1.055 15.89 3.156 4.364 2.094 7.93 5.102 10.703 9.016 2.782 3.906 4.797 8.61 6.047 14.11 1.25 5.492 1.875 11.578 1.875 18.265 0 14.398-2.867 25.422-8.594 33.078C99.594-1.773 90.837 2.047 79.047 2.047zM57.125-42.5c0 4.418.336 8.61 1.016 12.578.675 3.969 1.863 7.461 3.562 10.469 1.707 3 4.004 5.351 6.89 7.047 2.895 1.699 6.493 2.547 10.798 2.547 7.25 0 12.46-2.633 15.64-7.907 3.176-5.27 4.766-13.515 4.766-24.734 0-4.414-.313-8.61-.938-12.578-.625-3.969-1.734-7.453-3.328-10.453-1.586-3.008-3.68-5.364-6.281-7.063-2.605-1.695-5.95-2.547-10.031-2.547-7.824 0-13.465 2.637-16.922 7.907-3.45 5.273-5.172 13.515-5.172 24.734zm0 0"/></symbol></defs><use x="63.913" xlink:href="#713950a0a" y="169"/></svg>