<?xml version="1.0" encoding="UTF-8"?><svg enable-background="new 0 0 250 250" height="250px" viewBox="0 0 250 250" width="250px" x="0px" xml:space="preserve" xmlns="http://www.w3.org/2000/svg" xmlns:xlink="http://www.w3.org/1999/xlink" y="0px"><defs><symbol id="ad561838a" overflow="visible"><path d="M8.328-42.5c0-14.395 3.203-25.414 9.61-33.063 6.406-7.656 15.613-11.484 27.625-11.484 6.343 0 11.863 1.055 16.562 3.156 4.707 2.094 8.594 5.102 11.656 9.016 3.063 3.906 5.328 8.61 6.797 14.11 1.477 5.492 2.219 11.578 2.219 18.265 0 14.398-3.203 25.422-9.61 33.078C66.781-1.773 57.57 2.047 45.564 2.047c-6.344 0-11.872-1.047-16.579-3.14-4.699-2.102-8.578-5.11-11.64-9.016-3.063-3.914-5.336-8.618-6.813-14.11-1.469-5.5-2.203-11.593-2.203-18.281zm14.11 0c0 4.305.421 8.438 1.265 12.406.852 3.969 2.188 7.43 4 10.375a21.627 21.627 0 0 0 7.14 7.14c2.946 1.813 6.52 2.72 10.72 2.72 15.414.117 23.124-10.766 23.124-32.641 0-4.414-.43-8.61-1.28-12.578-.856-3.969-2.188-7.426-4-10.375-1.813-2.945-4.196-5.297-7.141-7.047-2.95-1.758-6.516-2.64-10.703-2.64-15.418-.114-23.126 10.765-23.126 32.64zm0 0"/></symbol></defs><use x="79.461" xlink:href="#ad561838a" y="169"/></svg>