<?xml version="1.0" encoding="UTF-8"?><svg enable-background="new 0 0 250 250" height="250px" viewBox="0 0 250 250" width="250px" x="0px" xml:space="preserve" xmlns="http://www.w3.org/2000/svg" xmlns:xlink="http://www.w3.org/1999/xlink" y="0px"><defs><symbol id="e508595fa" overflow="visible"><path d="M17.516-14.625c1.582-2.719 2.992-6.344 4.234-10.875 1.25-4.531 2.3-9.516 3.156-14.953a215.935 215.935 0 0 0 1.953-17.094c.457-5.945.688-11.695.688-17.25-2.274-.676-4.344-1.523-6.219-2.547a49.525 49.525 0 0 1-5.172-3.234V-85h69.531v4.422c-3.636 2.043-7.382 3.402-11.234 4.078v68.172c2.383.562 4.484 1.187 6.297 1.875a41.424 41.424 0 0 1 4.938 2.203V0H49.124v-4.25c2.719-1.926 6.063-3.285 10.031-4.078v-69.188H36.72c-.117 6-.461 12.375-1.032 19.125A225.773 225.773 0 0 1 33.142-38.5c-1.125 6.512-2.594 12.633-4.407 18.36-1.812 5.718-4.027 10.507-6.64 14.359-2.149 3.293-4.469 5.59-6.969 6.89-2.492 1.301-4.813 1.723-6.969 1.266C6.457.445 4.844-2.07 3.312-5.188 1.782-8.3.906-11.16.688-13.765l2.375-4.25zm0 0"/></symbol></defs><use x="78.866" xlink:href="#e508595fa" y="169"/></svg>