<?xml version="1.0" encoding="UTF-8"?><svg enable-background="new 0 0 250 250" height="250px" viewBox="0 0 250 250" width="250px" x="0px" xml:space="preserve" xmlns="http://www.w3.org/2000/svg" xmlns:xlink="http://www.w3.org/1999/xlink" y="0px"><defs><symbol id="aa1dcf80a" overflow="visible"><path d="M108.297-7.484V-76.5c-3.637-1.02-6.7-2.379-9.188-4.078V-85h35.704v4.422a34.43 34.43 0 0 1-5.11 2.375c-1.812.68-3.851 1.246-6.11 1.703v68.172c4.188.906 7.927 2.265 11.22 4.078V0H6.625v-4.25c3.176-1.813 6.914-3.172 11.219-4.078V-76.5a27.168 27.168 0 0 1-5.61-1.266c-1.812-.625-3.683-1.562-5.609-2.812V-85h35.703v4.422a47.544 47.544 0 0 1-9.172 4.078v69.016h29.907V-76.5a106.454 106.454 0 0 1-5.266-1.781 32.36 32.36 0 0 1-4.922-2.297V-85h34.672v4.422c-.906.68-2.07 1.36-3.484 2.047-1.418.68-3.313 1.355-5.688 2.031v69.016zm0 0"/></symbol></defs><use x="54.313" xlink:href="#aa1dcf80a" y="169"/></svg>