<?xml version="1.0" encoding="UTF-8"?><svg enable-background="new 0 0 250 250" height="250px" viewBox="0 0 250 250" width="250px" x="0px" xml:space="preserve" xmlns="http://www.w3.org/2000/svg" xmlns:xlink="http://www.w3.org/1999/xlink" y="0px"><defs><symbol id="493befa9a" overflow="visible"><path d="M6.625 0v-4.25c3.176-1.813 6.914-3.172 11.219-4.078V-76.5c-2.262-.457-4.297-1.023-6.11-1.703a35.183 35.183 0 0 1-5.109-2.375V-85h35.703v4.422c-1.137.793-2.469 1.531-4 2.219-1.523.68-3.246 1.296-5.172 1.859v69.016h29.907V-76.5a51.436 51.436 0 0 1-5.188-1.703 36.496 36.496 0 0 1-5-2.375V-85h34.672v4.422c-1.242.906-2.656 1.7-4.25 2.375a36.774 36.774 0 0 1-4.922 1.703v69.016h29.922V-76.5c-3.637-1.02-6.7-2.379-9.188-4.078V-85h35.704v4.422a29.726 29.726 0 0 1-5.11 2.297c-1.812.625-3.851 1.219-6.11 1.781v69.016h15.126a326.975 326.975 0 0 1-.766 16.406c-.398 5.5-.766 10.91-1.11 16.234h-4.405L124.78 0zm0 0"/></symbol></defs><use x="53.293" xlink:href="#493befa9a" y="169"/></svg>