<?xml version="1.0" encoding="UTF-8"?><svg enable-background="new 0 0 250 250" height="250px" viewBox="0 0 250 250" width="250px" x="0px" xml:space="preserve" xmlns="http://www.w3.org/2000/svg" xmlns:xlink="http://www.w3.org/1999/xlink" y="0px"><defs><symbol id="66cd6beda" overflow="visible"><path d="M15.297 0l-7.64 25.156H3.233c-.574-5.554-1-11.164-1.28-16.828A336.112 336.112 0 0 1 1.53-8.328h11.563c1.351-1.582 2.879-4.07 4.578-7.469 1.707-3.406 3.32-7.8 4.844-13.187 1.53-5.383 2.832-11.844 3.906-19.375 1.082-7.54 1.625-16.352 1.625-26.438-2.375-.676-4.527-1.523-6.453-2.547a46.44 46.44 0 0 1-5.282-3.234V-85h72.25v4.422c-3.054 2.043-6.792 3.402-11.218 4.078v68.172h15.14c.114 5.437 0 10.988-.343 16.656a279.519 279.519 0 0 1-1.532 16.828h-4.25L78.703 0zm22.11-76.5c0 10.2-.512 19.094-1.532 26.688-1.023 7.593-2.242 14.085-3.656 19.468-1.418 5.387-2.922 9.867-4.516 13.438-1.586 3.562-3 6.422-4.25 8.578h38.594V-76.5zm0 0"/></symbol></defs><use x="76.317" xlink:href="#66cd6beda" y="169"/></svg>