<?xml version="1.0" encoding="UTF-8"?><svg enable-background="new 0 0 250 250" height="250px" viewBox="0 0 250 250" width="250px" x="0px" xml:space="preserve" xmlns="http://www.w3.org/2000/svg" xmlns:xlink="http://www.w3.org/1999/xlink" y="0px"><defs><symbol id="e92de138a" overflow="visible"><path d="M58.813-73.094H34.172c-.344 4.762-.688 9.89-1.031 15.39a261.59 261.59 0 0 1-1.532 16.485 164.635 164.635 0 0 1-2.718 15.813c-1.125 5.043-2.57 9.492-4.328 13.343-1.75 3.844-3.903 6.934-6.454 9.266C15.555-.473 12.523.688 9.016.688 6.859.688 4.984.57 3.39.344 1.805.114.395-.281-.844-.844l2.031-11.39c1.364.449 2.836.671 4.422.671 2.27 0 4.313-.96 6.125-2.89 1.813-1.926 3.395-5.578 4.75-10.953 1.364-5.383 2.5-12.836 3.407-22.36.906-9.52 1.53-21.93 1.875-37.234h50.656V0h-13.61zm0 0"/></symbol></defs><use x="82.265" xlink:href="#e92de138a" y="169"/></svg>