<?xml version="1.0" encoding="UTF-8"?><svg enable-background="new 0 0 250 250" height="250px" viewBox="0 0 250 250" width="250px" x="0px" xml:space="preserve" xmlns="http://www.w3.org/2000/svg" xmlns:xlink="http://www.w3.org/1999/xlink" y="0px"><defs><symbol id="f36d9ae5a" overflow="visible"><path d="M37.234 2.047c-6.46 0-12.156-.965-17.093-2.89C15.21-2.77 11.1-5.208 7.813-8.157l3.062-11.39h3.406c1.469 1.585 3.11 3.48 4.922 5.687a393.6 393.6 0 0 1 5.281 6.546c2.375.907 5.883 1.36 10.532 1.36 7.476 0 13.515-3.055 18.109-9.172 4.594-6.125 6.945-14.398 7.063-24.828l-33.672 2.547c-1.243-3.051-1.243-6.11 0-9.172h33.672c-.231-6.125-.997-11.281-2.297-15.469-1.305-4.195-3.063-7.598-5.282-10.203-2.21-2.602-4.761-4.473-7.656-5.61-2.887-1.132-6.086-1.703-9.594-1.703-4.648 0-7.539.399-8.672 1.188l-7.484 20.75h-4.25c-1.012-3.176-1.918-6.75-2.719-10.719a141.122 141.122 0 0 1-1.859-11.89c3.05-1.707 6.676-3.27 10.875-4.688 4.195-1.414 9.863-2.125 17-2.125 5.438 0 10.477.742 15.125 2.219 4.645 1.469 8.695 3.906 12.156 7.312 3.457 3.399 6.149 7.82 8.078 13.266 1.926 5.438 2.891 12.121 2.891 20.047 0 8.055-1.105 14.996-3.313 20.828-2.21 5.836-5.156 10.621-8.843 14.36-3.688 3.742-7.887 6.523-12.594 8.343-4.7 1.813-9.54 2.719-14.516 2.719zm0 0"/></symbol></defs><use x="83.284" xlink:href="#f36d9ae5a" y="169"/></svg>