<?xml version="1.0" encoding="UTF-8"?><svg enable-background="new 0 0 250 250" height="250px" viewBox="0 0 250 250" width="250px" x="0px" xml:space="preserve" xmlns="http://www.w3.org/2000/svg" xmlns:xlink="http://www.w3.org/1999/xlink" y="0px"><defs><symbol id="54e62128a" overflow="visible"><path d="M6.625-85h36.047v4.422c-1.25.68-2.7 1.36-4.344 2.047-1.637.68-3.59 1.355-5.86 2.031v46.578l-1.874 15.813h.86l6.624-12.75L74.453-85h22.953v4.422c-3.625 2.043-7.367 3.402-11.219 4.078v68.172c2.157.562 4.196 1.156 6.126 1.781 1.925.625 3.624 1.39 5.093 2.297V0H61.375v-4.25a39.826 39.826 0 0 1 10.188-4.078v-48.625l1.703-13.422h-.844l-6.469 12.75L29.922 0H6.625v-4.25a56.349 56.349 0 0 1 5.61-2.297c1.812-.625 3.68-1.219 5.609-1.781V-76.5c-4.418-.676-8.157-2.035-11.219-4.078zm0 0"/></symbol></defs><use x="73.004" xlink:href="#54e62128a" y="169"/></svg>