<?xml version="1.0" encoding="UTF-8"?><svg enable-background="new 0 0 250 250" height="250px" viewBox="0 0 250 250" width="250px" x="0px" xml:space="preserve" xmlns="http://www.w3.org/2000/svg" xmlns:xlink="http://www.w3.org/1999/xlink" y="0px"><defs><symbol id="2d61dc29a" overflow="visible"><path d="M80.063 34H43.016v-4.25c3.164-1.813 6.906-3.172 11.218-4.078V-4.25C52.304-2.32 50.18-.79 47.86.344c-2.324 1.133-5.132 1.703-8.422 1.703-4.761 0-9.152-.824-13.171-2.469-4.024-1.644-7.45-4.164-10.282-7.562-2.836-3.407-5.046-7.711-6.64-12.922-1.586-5.219-2.375-11.395-2.375-18.532 0-16.207 3.113-28.19 9.343-35.953 6.239-7.77 14.57-11.656 25-11.656 2.833 0 5.41.484 7.735 1.453 2.32.961 4.05 2.293 5.187 4v-34.344l-12.922-1.359v-4.422c3.282-1.476 7.047-2.722 11.297-3.734 4.25-1.02 8.243-1.817 11.985-2.39h4.25v47.265c1.707-2.04 3.976-3.629 6.812-4.766 2.832-1.133 5.832-1.703 9-1.703 9.633 0 17.285 3.234 22.953 9.703 5.664 6.461 8.5 16.375 8.5 29.75 0 8.606-.851 16.028-2.546 22.266-1.7 6.23-4.024 11.387-6.97 15.469-2.948 4.086-6.491 7.09-10.624 9.015-4.137 1.926-8.64 2.89-13.516 2.89A22.62 22.62 0 0 1 74.625.673c-2.492-.906-4.418-2.149-5.781-3.735v28.735c2.156.344 4.164.82 6.031 1.437a19.345 19.345 0 0 1 5.188 2.641zM43.016-6.297c1.925 0 3.879-.25 5.859-.75 1.977-.508 3.766-1.562 5.36-3.156v-65.453a17.562 17.562 0 0 0-4.516-2.125c-1.637-.508-3.93-.766-6.875-.766-2.836 0-5.469.625-7.907 1.875-2.437 1.25-4.539 3.18-6.296 5.781-1.75 2.606-3.137 5.95-4.157 10.032-1.023 4.086-1.53 9.015-1.53 14.797 0 7.699.507 14.101 1.53 19.203 1.02 5.105 2.438 9.187 4.25 12.25 1.813 3.054 3.938 5.203 6.375 6.453 2.438 1.242 5.07 1.86 7.907 1.86zm37.562-72.25c-2.262 0-4.414.258-6.453.766a13.085 13.085 0 0 0-5.438 2.812v65.625a11.88 11.88 0 0 0 4.657 2.375c1.758.45 4 .672 6.719.672 2.613 0 5.14-.648 7.578-1.953 2.437-1.3 4.586-3.336 6.453-6.11 1.875-2.78 3.347-6.406 4.422-10.874 1.07-4.477 1.609-9.953 1.609-16.422 0-6.907-.43-12.739-1.281-17.5-.844-4.758-2.063-8.555-3.656-11.39-1.586-2.833-3.622-4.876-6.11-6.126-2.492-1.25-5.324-1.875-8.5-1.875zm0 0"/></symbol></defs><use x="63.573" xlink:href="#2d61dc29a" y="169"/></svg>