<?xml version="1.0" encoding="UTF-8"?><svg enable-background="new 0 0 250 250" height="250px" viewBox="0 0 250 250" width="250px" x="0px" xml:space="preserve" xmlns="http://www.w3.org/2000/svg" xmlns:xlink="http://www.w3.org/1999/xlink" y="0px"><defs><symbol id="e05e47c9a" overflow="visible"><path d="M20.906-69.875c3.739-5.438 7.875-9.258 12.407-11.469 4.539-2.207 10.207-3.312 17-3.312 10.425 0 18.445 3.402 24.062 10.203 5.613 6.793 8.422 16.82 8.422 30.078 0 15.305-3.262 26.867-9.781 34.688C66.492-1.864 57.398 2.046 45.734 2.046c-12.468 0-21.824-4.305-28.062-12.922-6.23-8.613-9.344-22.16-9.344-40.64 0-9.739.477-18.067 1.438-24.985.968-6.914 2.382-12.754 4.25-17.516 1.875-4.757 4.14-8.554 6.796-11.39 2.665-2.832 5.672-5.067 9.016-6.703 3.344-1.645 7-2.805 10.969-3.485 3.969-.687 8.219-1.254 12.75-1.703 5.894-.57 10.516-1.223 13.86-1.953 3.343-.738 6.034-2.07 8.077-4l1.532 12.234a17.047 17.047 0 0 1-3.75 2.563c-1.356.68-2.996 1.246-4.922 1.703-1.93.45-4.227.844-6.89 1.188-2.669.335-5.759.617-9.267.843-4.874.344-9.156.946-12.843 1.797-3.68.844-6.852 2.484-9.516 4.922-2.656 2.438-4.75 5.898-6.281 10.375-1.531 4.469-2.578 10.387-3.14 17.75zm1.532 27.547c0 4.305.453 8.437 1.359 12.406.906 3.969 2.289 7.461 4.156 10.469 1.875 3 4.285 5.351 7.235 7.047 2.945 1.699 6.406 2.547 10.374 2.547 7.82 0 13.63-2.801 17.422-8.407 3.801-5.613 5.703-13.922 5.703-24.922 0-4.3-.402-8.265-1.203-11.89-.793-3.625-2.039-6.77-3.734-9.438-1.7-2.664-3.855-4.707-6.469-6.125-2.605-1.414-5.718-2.125-9.343-2.125-8.836-.113-15.293 2.465-19.376 7.735-4.085 5.273-6.125 12.84-6.125 22.703zm0 0"/></symbol></defs><use x="79.461" xlink:href="#e05e47c9a" y="169"/></svg>