<?xml version="1.0" encoding="UTF-8"?><svg enable-background="new 0 0 250 250" height="250px" viewBox="0 0 250 250" width="250px" x="0px" xml:space="preserve" xmlns="http://www.w3.org/2000/svg" xmlns:xlink="http://www.w3.org/1999/xlink" y="0px"><defs><symbol id="85d780efa" overflow="visible"><path d="M55.422-35.188l-13.094 2.032L19.891 0H3.406l20.39-29.063 6.798-6.296c-5.887-.907-10.903-3.286-15.047-7.141-4.137-3.852-6.203-9.066-6.203-15.64 0-5.102.879-9.47 2.64-13.094 1.758-3.625 4.282-6.625 7.563-9 3.289-2.383 7.203-4.114 11.734-5.188 4.532-1.082 9.63-1.625 15.297-1.625 4.195 0 8.11.29 11.734.86 3.626.562 7.192 1.187 10.704 1.874V0H55.422zm0-38.25c-1.48-.57-3.125-1-4.938-1.28-1.812-.282-3.398-.423-4.75-.423-7.261 0-12.793 1.309-16.593 3.922-3.793 2.606-5.688 6.742-5.688 12.406 0 5.094 2.008 9.032 6.031 11.813 4.032 2.773 9.332 4.156 15.907 4.156h1.859c.688 0 1.648-.023 2.89-.078 1.25-.062 3.008-.148 5.282-.266zm0 0"/></symbol></defs><use x="84.644" xlink:href="#85d780efa" y="169"/></svg>