<?xml version="1.0" encoding="UTF-8"?><svg enable-background="new 0 0 250 250" height="250px" viewBox="0 0 250 250" width="250px" x="0px" xml:space="preserve" xmlns="http://www.w3.org/2000/svg" xmlns:xlink="http://www.w3.org/1999/xlink" y="0px"><defs><symbol id="d5f77562a" overflow="visible"><path d="M6.625-85h36.047v4.422c-1.25.68-2.7 1.36-4.344 2.047-1.637.68-3.59 1.355-5.86 2.031v46.578l-1.874 15.813h.86l6.624-12.75L74.453-85h22.953v4.422c-3.625 2.043-7.367 3.402-11.219 4.078v68.172c2.157.562 4.196 1.156 6.126 1.781 1.925.625 3.624 1.39 5.093 2.297V0H61.375v-4.25a39.826 39.826 0 0 1 10.188-4.078v-48.625l1.703-13.422h-.844l-6.469 12.75L29.922 0H6.625v-4.25a56.349 56.349 0 0 1 5.61-2.297c1.812-.625 3.68-1.219 5.609-1.781V-76.5c-4.418-.676-8.157-2.035-11.219-4.078zm46.969-10.203c-5.668 0-10.32-.594-13.953-1.781-3.625-1.188-6.516-2.743-8.672-4.672-2.149-1.926-3.649-4.164-4.5-6.719a24.487 24.487 0 0 1-1.266-7.734c1.813-1.47 3.79-2.54 5.938-3.22a32.704 32.704 0 0 1 6.812-1.374l4.25 2.219v15.125c1.582.68 3.453 1.164 5.61 1.453 2.156.281 4.14.422 5.953.422 1.125 0 2.93-.114 5.422-.344 2.5-.227 4.539-.567 6.124-1.016v-15.64l4.25-2.22c2.383.231 4.626.743 6.72 1.532 2.1.793 3.831 1.813 5.187 3.063 0 2.605-.453 5.183-1.36 7.734-.906 2.555-2.414 4.793-4.515 6.719-2.094 1.93-4.93 3.484-8.5 4.672-3.563 1.187-8.063 1.78-13.5 1.78zm0 0"/></symbol></defs><use x="73.004" xlink:href="#d5f77562a" y="169"/></svg>