<?xml version="1.0" encoding="UTF-8"?><svg enable-background="new 0 0 250 250" height="250px" viewBox="0 0 250 250" width="250px" x="0px" xml:space="preserve" xmlns="http://www.w3.org/2000/svg" xmlns:xlink="http://www.w3.org/1999/xlink" y="0px"><defs><symbol id="c585a965a" overflow="visible"><path d="M75.813-11.906c-.907 1.93-2.325 3.746-4.25 5.453-1.918 1.7-4.126 3.172-6.626 4.422C62.446-.79 59.727.195 56.782.938a36.98 36.98 0 0 1-9.015 1.109c-6.688 0-12.586-1.047-17.688-3.14-5.094-2.102-9.344-5.11-12.75-9.016-3.398-3.914-5.976-8.594-7.734-14.032-1.75-5.437-2.625-11.554-2.625-18.359 0-14.508 3.343-25.563 10.031-33.156 6.688-7.594 16.148-11.39 28.39-11.39 3.97 0 7.88.542 11.735 1.624 3.852 1.074 7.281 2.86 10.281 5.36 3 2.492 5.43 5.804 7.297 9.937 1.875 4.137 2.813 9.266 2.813 15.39 0 1.93-.086 3.883-.25 5.86-.168 1.98-.48 4.105-.938 6.375H23.297c0 4.762.594 9.21 1.781 13.344 1.188 4.136 2.969 7.734 5.344 10.797 2.383 3.062 5.39 5.476 9.015 7.234 3.626 1.75 7.876 2.625 12.75 2.625 3.97 0 7.989-.566 12.063-1.703 4.082-1.133 7.145-2.61 9.188-4.422zm-31.11-67.656c-6.46 0-11.39 2.183-14.797 6.546-3.398 4.368-5.433 12.043-6.11 23.032h37.407c.113-1.02.195-2.008.25-2.97.063-.968.094-1.905.094-2.812 0-7.25-1.367-13.023-4.094-17.328-2.719-4.312-6.969-6.469-12.75-6.469zm-28.5-33.141c0-2.727.848-4.91 2.547-6.547 1.695-1.645 3.906-2.469 6.625-2.469s4.926.824 6.625 2.469c1.707 1.637 2.563 3.82 2.563 6.547 0 2.605-.856 4.7-2.563 6.281-1.7 1.586-3.906 2.375-6.625 2.375s-4.93-.789-6.625-2.375c-1.7-1.582-2.547-3.676-2.547-6.281zm37.734 0c0-2.727.848-4.91 2.547-6.547 1.707-1.645 3.922-2.469 6.641-2.469s4.926.824 6.625 2.469c1.695 1.637 2.547 3.82 2.547 6.547 0 2.605-.852 4.7-2.547 6.281-1.7 1.586-3.906 2.375-6.625 2.375s-4.934-.789-6.64-2.375c-1.7-1.582-2.547-3.676-2.547-6.281zm0 0"/></symbol></defs><use x="82.265" xlink:href="#c585a965a" y="169"/></svg>