<?xml version="1.0" encoding="UTF-8"?><svg enable-background="new 0 0 250 250" height="250px" viewBox="0 0 250 250" width="250px" x="0px" xml:space="preserve" xmlns="http://www.w3.org/2000/svg" xmlns:xlink="http://www.w3.org/1999/xlink" y="0px"><defs><symbol id="1c7c0433a" overflow="visible"><path d="M21.938-85v23.125c0 3.055.164 5.797.5 8.234.343 2.438 1.023 4.54 2.046 6.297 1.02 1.762 2.493 3.125 4.422 4.094 1.926.96 4.473 1.438 7.64 1.438 5.102 0 9.298-.567 12.579-1.704 3.29-1.132 5.785-2.382 7.484-3.75V-85h13.594V0H56.61v-35.703c-1.812 1.137-4.507 2.387-8.078 3.75-3.562 1.355-8.465 2.031-14.703 2.031-4.187 0-7.871-.453-11.047-1.36-3.18-.905-5.843-2.488-8-4.75-2.148-2.269-3.761-5.273-4.844-9.015-1.074-3.738-1.609-8.441-1.609-14.11V-85zm0 0"/></symbol></defs><use x="83.369" xlink:href="#1c7c0433a" y="169"/></svg>