<?xml version="1.0" encoding="UTF-8"?><svg enable-background="new 0 0 250 250" height="250px" viewBox="0 0 250 250" width="250px" x="0px" xml:space="preserve" xmlns="http://www.w3.org/2000/svg" xmlns:xlink="http://www.w3.org/1999/xlink" y="0px"><defs><symbol id="dc1ae493a" overflow="visible"><path d="M33.156-50.313c1.926-.226 4.078-.515 6.453-.859 2.383-.344 5.844-.516 10.375-.516 8.5 0 15.328 1.985 20.485 5.954 5.156 3.968 7.734 10.203 7.734 18.703 0 4.531-.824 8.527-2.469 11.984-1.648 3.461-3.945 6.352-6.89 8.672-2.938 2.324-6.45 4.086-10.531 5.281C54.227.094 49.75.688 44.874.688c-3.055 0-6.48-.118-10.281-.344C30.8.114 26.75 0 22.437 0H6.626v-4.25c1.926-1.133 3.797-1.984 5.61-2.547a76.332 76.332 0 0 1 5.609-1.531V-76.5c-2.149-.344-4.125-.879-5.938-1.61a57.593 57.593 0 0 1-5.281-2.468V-85h36.719v4.422c-2.606 1.586-6 2.945-10.188 4.078zm0 43c1.469.118 2.938.231 4.407.344 1.476.117 3.007.172 4.593.172 12.813 0 19.219-6.8 19.219-20.406 0-3.164-.484-5.852-1.453-8.063-.961-2.218-2.262-3.976-3.906-5.28-1.649-1.302-3.547-2.235-5.703-2.798-2.149-.57-4.415-.86-6.797-.86-1.586 0-3.282.032-5.094.095-1.813.054-3.57.25-5.266.593zM120.187 0H83.642v-4.25a90.619 90.619 0 0 1 4.75-2.203 45.462 45.462 0 0 1 5.28-1.875V-76.5c-4.312-.79-7.714-2.148-10.202-4.078V-85h36.719v4.422c-1.356.906-2.997 1.672-4.922 2.297a93.425 93.425 0 0 1-6.297 1.781v68.172c1.926.562 3.797 1.156 5.61 1.781 1.812.625 3.679 1.39 5.609 2.297zm0 0"/></symbol></defs><use x="61.619" xlink:href="#dc1ae493a" y="169"/></svg>