<?xml version="1.0" encoding="UTF-8"?><svg enable-background="new 0 0 250 250" height="250px" viewBox="0 0 250 250" width="250px" x="0px" xml:space="preserve" xmlns="http://www.w3.org/2000/svg" xmlns:xlink="http://www.w3.org/1999/xlink" y="0px"><defs><symbol id="79559165a" overflow="visible"><path d="M6.969-42.5c0-7.133.93-13.453 2.797-18.953 1.875-5.5 4.566-10.145 8.078-13.938 3.52-3.8 7.742-6.691 12.672-8.671 4.925-1.989 10.394-2.985 16.406-2.985 7.02 0 13.082 1.078 18.187 3.234 5.102 2.157 9.27 5.196 12.5 9.11 3.227 3.906 5.61 8.578 7.141 14.016 1.531 5.437 2.297 11.5 2.297 18.187 0 14.281-3.633 25.277-10.89 32.984C68.906-1.805 59.16 2.047 46.921 2.047c-6.805 0-12.7-1.047-17.688-3.14-4.98-2.102-9.117-5.11-12.406-9.016-3.281-3.914-5.746-8.618-7.39-14.11-1.649-5.5-2.47-11.593-2.47-18.281zm16.328 0c0 5.105.476 9.922 1.437 14.453.97 4.531 2.5 8.469 4.594 11.813 2.094 3.343 4.836 5.98 8.235 7.906 3.406 1.93 7.488 2.89 12.25 2.89 6.113 0 11.124-3 15.03-9C68.759-20.444 70.72-29.8 70.72-42.5c0-5.207-.485-10.05-1.453-14.531-.961-4.477-2.461-8.39-4.5-11.735-2.043-3.343-4.653-5.976-7.829-7.906-3.167-1.926-6.96-2.89-11.374-2.89-6.688 0-12.075 3.007-16.157 9.015-4.074 6-6.11 15.352-6.11 28.047zm0 0"/></symbol></defs><use x="78.017" xlink:href="#79559165a" y="169"/></svg>