<?xml version="1.0" encoding="UTF-8"?><svg enable-background="new 0 0 250 250" height="250px" viewBox="0 0 250 250" width="250px" x="0px" xml:space="preserve" xmlns="http://www.w3.org/2000/svg" xmlns:xlink="http://www.w3.org/1999/xlink" y="0px"><defs><symbol id="6c9a0c3da" overflow="visible"><path d="M6.969-44.547c0-14.5 1.187-26.648 3.562-36.453 2.383-9.8 5.985-17.676 10.797-23.625 4.82-5.957 10.914-10.18 18.281-12.672 7.364-2.5 15.977-3.75 25.844-3.75l11.047-8.5h4.422a73.514 73.514 0 0 1-.688 6.547 72.368 72.368 0 0 1-1.265 6.64 84.385 84.385 0 0 1-1.531 5.532c-.512 1.586-.938 2.715-1.282 3.39-10.43 0-19.265.512-26.515 1.532-7.25 1.023-13.258 3.12-18.016 6.297-4.762 3.168-8.36 7.757-10.797 13.765-2.437 6-4.055 13.934-4.844 23.797h.844c1.363-2.945 3.207-5.781 5.531-8.5a40.151 40.151 0 0 1 7.985-7.14c3-2.04 6.195-3.68 9.593-4.922 3.407-1.25 6.864-1.875 10.376-1.875C73.436-84.484 85-70.602 85-42.844c0 6.574-.906 12.61-2.719 18.11-1.812 5.5-4.48 10.234-8 14.203-3.511 3.96-7.761 7.047-12.75 9.265-4.98 2.207-10.59 3.313-16.828 3.313-5.668 0-10.824-1.047-15.469-3.14-4.648-2.102-8.617-5.165-11.906-9.188-3.281-4.02-5.828-8.89-7.64-14.61-1.813-5.726-2.72-12.28-2.72-19.656zm15.984 0c0 7.149.649 13.184 1.953 18.11 1.301 4.93 3.082 8.953 5.344 12.078 2.27 3.117 4.906 5.382 7.906 6.796a21.882 21.882 0 0 0 9.438 2.125c6.8 0 11.93-3.054 15.39-9.171 3.457-6.125 5.188-14.852 5.188-26.188 0-11.562-2.215-20.004-6.64-25.328-4.419-5.332-10.532-8-18.344-8-2.95 0-6.153.906-9.61 2.719a26.627 26.627 0 0 0-8.766 7.312 104.89 104.89 0 0 0-1.359 8.938c-.336 3.117-.5 6.652-.5 10.61zm0 0"/></symbol></defs><use x="79.036" xlink:href="#6c9a0c3da" y="169"/></svg>