<?xml version="1.0" encoding="UTF-8"?><svg enable-background="new 0 0 250 250" height="250px" viewBox="0 0 250 250" width="250px" x="0px" xml:space="preserve" xmlns="http://www.w3.org/2000/svg" xmlns:xlink="http://www.w3.org/1999/xlink" y="0px"><defs><symbol id="4a0094b5a" overflow="visible"><path d="M43.188 0H6.624v-4.25c2.156-1.25 4.14-2.18 5.953-2.797 1.813-.625 3.567-1.05 5.266-1.281V-76.5c-2.375-.563-4.528-1.18-6.453-1.86-1.93-.687-3.516-1.425-4.766-2.218V-85h90.61v4.422a39.068 39.068 0 0 1-4.922 2.547c-1.813.793-3.915 1.304-6.297 1.531v68.172c3.851.68 7.593 2.039 11.218 4.078V0H60.688v-4.25c1.132-.79 2.468-1.523 4-2.203 1.53-.688 3.539-1.313 6.03-1.875v-69.188H33.157v69.188c2.258.68 4.18 1.36 5.766 2.047a51.477 51.477 0 0 1 4.266 2.031zm0 0"/></symbol></defs><use x="73.089" xlink:href="#4a0094b5a" y="169"/></svg>