<?xml version="1.0" encoding="UTF-8"?><svg enable-background="new 0 0 250 250" height="250px" viewBox="0 0 250 250" width="250px" x="0px" xml:space="preserve" xmlns="http://www.w3.org/2000/svg" xmlns:xlink="http://www.w3.org/1999/xlink" y="0px"><defs><symbol id="33969d1da" overflow="visible"><path d="M66.125-50.313l.516-10.546h-.516l-6.969 10.875L20.906 0h-7.812v-85h13.594v51.844l-.5 10.031h.671l6.625-10.531L71.734-85h8V0H66.125zm-33.36-69.03c1.126 5.218 3.079 8.85 5.86 10.89 2.781 2.031 5.984 3.047 9.61 3.047 3.624 0 6.85-1.07 9.687-3.219 2.832-2.156 4.758-5.672 5.781-10.547l10.203 3.234c-1.023 6.575-3.945 11.618-8.765 15.126-4.813 3.511-10.563 5.265-17.25 5.265a35.44 35.44 0 0 1-9.094-1.187c-3-.79-5.695-1.977-8.078-3.563-2.375-1.594-4.418-3.633-6.125-6.125-1.7-2.488-2.828-5.437-3.39-8.844zm0 0"/></symbol></defs><use x="78.611" xlink:href="#33969d1da" y="169"/></svg>