<?xml version="1.0" encoding="UTF-8"?><svg enable-background="new 0 0 250 250" height="250px" viewBox="0 0 250 250" width="250px" x="0px" xml:space="preserve" xmlns="http://www.w3.org/2000/svg" xmlns:xlink="http://www.w3.org/1999/xlink" y="0px"><defs><symbol id="edebb9e8a" overflow="visible"><path d="M13.094-85h9.344l2.546 10.203h.688c2.601-3.969 5.973-7 10.11-9.094 4.132-2.101 8.866-3.156 14.202-3.156 11.332 0 19.774 3.344 25.328 10.031 5.551 6.688 8.329 17.625 8.329 32.813 0 7.148-.938 13.586-2.813 19.312-1.867 5.72-4.5 10.563-7.906 14.532-3.399 3.96-7.508 7.015-12.328 9.171C55.78.97 50.43 2.047 44.547 2.047c-4.2 0-7.516-.258-9.953-.766-2.438-.511-5.074-1.39-7.907-2.64V34H13.095zm34.343 9.86c-5.78 0-10.343 1.507-13.687 4.515-3.344 3-5.7 7.559-7.063 13.672v42.156c2.04 1.594 4.364 2.82 6.97 3.672 2.6.844 6.062 1.266 10.374 1.266 7.82 0 14.024-2.914 18.61-8.75 4.593-5.844 6.89-14.43 6.89-25.766 0-4.645-.398-8.863-1.187-12.656-.793-3.801-2.07-7.032-3.828-9.688-1.762-2.664-4.032-4.734-6.813-6.203-2.773-1.476-6.195-2.219-10.266-2.219zm0 0"/></symbol></defs><use x="79.036" xlink:href="#edebb9e8a" y="169"/></svg>