<?xml version="1.0" encoding="UTF-8"?><svg enable-background="new 0 0 250 250" height="250px" viewBox="0 0 250 250" width="250px" x="0px" xml:space="preserve" xmlns="http://www.w3.org/2000/svg" xmlns:xlink="http://www.w3.org/1999/xlink" y="0px"><defs><symbol id="0dab41a1a" overflow="visible"><path d="M43.188 0H6.624v-4.25c1.594-.906 3.352-1.672 5.281-2.297a142.055 142.055 0 0 1 5.938-1.781V-76.5a121.491 121.491 0 0 1-5.61-1.781 56.349 56.349 0 0 1-5.609-2.297V-85h36.563v4.422c-1.25.793-2.672 1.531-4.266 2.219-1.586.68-3.508 1.296-5.766 1.859v29.75h16.828c.676-12.695 4.414-22.586 11.22-29.672 6.8-7.082 15.753-10.625 26.858-10.625 12.688 0 22.29 3.797 28.813 11.39 6.52 7.594 9.781 18.821 9.781 33.673 0 13.593-3.344 24.336-10.031 32.218-6.688 7.875-16.21 11.813-28.563 11.813-5.335 0-10.265-.824-14.796-2.469a32.217 32.217 0 0 1-11.907-7.562c-3.398-3.407-6.09-7.711-8.078-12.922-1.98-5.219-3.078-11.336-3.297-18.36H33.156v30.938c2.258.45 4.18 1.015 5.766 1.703 1.594.68 3.016 1.469 4.266 2.375zm22.765-42.5c0 6.125.625 11.484 1.875 16.078 1.25 4.586 2.945 8.434 5.094 11.547 2.156 3.117 4.648 5.469 7.484 7.063 2.832 1.585 5.781 2.375 8.844 2.375 7.363 0 12.719-3.254 16.063-9.766 3.343-6.52 5.015-15.617 5.015-27.297 0-12.352-1.871-21.617-5.61-27.797-3.741-6.176-9.523-9.266-17.343-9.266-6.688 0-11.934 3.29-15.734 9.86-3.793 6.574-5.688 15.64-5.688 27.203zm0 0"/></symbol></defs><use x="58.221" xlink:href="#0dab41a1a" y="169"/></svg>