<?xml version="1.0" encoding="UTF-8"?><svg enable-background="new 0 0 250 250" height="250px" viewBox="0 0 250 250" width="250px" x="0px" xml:space="preserve" xmlns="http://www.w3.org/2000/svg" xmlns:xlink="http://www.w3.org/1999/xlink" y="0px"><defs><symbol overflow="visible"><path d="M8.5-119H119V0H8.5zm88.406 8.5L63.75-73.61 30.594-110.5l-8.5 8.5 33.5 37.406-33.5 37.39 8.5 8.5 33.156-36.89 33.156 36.89 8.5-8.5-33.672-37.39L105.406-102zm-69.36 98.938h-5.952v1.187h2.203v5.953h1.53v-5.953h2.22zM46.064-9.86h-.33c-.116 0-.23-.054-.342-.17-.46 0-.968.28-1.53.842v-.67H42.67v5.436h1.36v-3.39c.343-.57.738-.86 1.187-.86.225 0 .456.06.686.172zm.86-1.187c0 .563.222.844.67.844.57 0 .86-.223.86-.672 0-.57-.29-.86-.86-.86-.448 0-.67.23-.67.688zm0 6.625h1.53V-9.86h-1.53zm2.546-4.25h.843v4.25h1.374v-4.25h1.36V-9.86h-1.36c0-.226.05-.398.157-.515.113-.113.285-.172.515-.172h1.015l.172-1.015c0-.114-.227-.172-.672-.172h-1.53c-.118 0-.29.09-.517.265-.23.17-.344.31-.344.423-.117.23-.172.512-.172.844v.344h-.843zm6.796 1.016c0 2.836 1.304 4.25 3.922 4.25 1.238 0 2.226-.336 2.968-1.016.74-.676 1.11-1.754 1.11-3.234 0-2.602-1.36-3.907-4.08-3.907-1.135 0-2.073.344-2.81 1.032-.743.678-1.11 1.635-1.11 2.874zm1.187 0c0-1.926.91-2.89 2.734-2.89 1.915 0 2.876.964 2.876 2.89 0 2.043-.96 3.062-2.876 3.062-1.824 0-2.734-1.02-2.734-3.062zm3.922.86c-.23.116-.46.17-.688.17-.562 0-.843-.343-.843-1.03 0-.446.28-.672.843-.672h.516l.5-.86c-.45-.218-.953-.328-1.516-.328-1.136 0-1.703.62-1.703 1.86 0 1.48.567 2.218 1.703 2.218.563 0 1.067-.113 1.516-.343zm6.97 2.202h1.53V-6.97h.844c.788 0 1.5-.163 2.124-.5.625-.343.937-.968.937-1.874 0-1.133-.343-1.816-1.03-2.047-.68-.227-1.414-.344-2.203-.344h-2.203zm2.374-5.953c1.018 0 1.53.344 1.53 1.03 0 .68-.14 1.048-.422 1.11-.28.055-.71.08-1.28.08h-.673v-2.22zm4.077 1.875c.344-.113.656-.195.937-.25.282-.062.594-.094.938-.094.562 0 .844.29.844.86v.344c-.118 0-.23-.024-.344-.08-.106-.06-.274-.092-.5-.092-1.7 0-2.547.68-2.547 2.03 0 1.024.563 1.532 1.688 1.532.8 0 1.367-.336 1.703-1.016l.515.844h1.19c-.118-.113-.173-.566-.173-1.36v-2.202c0-1.364-.68-2.047-2.03-2.047-.576 0-1.09.09-1.548.265-.45.168-.79.31-1.017.422zM76.5-5.61c-.563 0-.844-.28-.844-.843 0-.457.336-.688 1.016-.688.226 0 .394.03.5.093.113.055.226.078.344.078v.517c-.118.562-.454.844-1.016.844zm7.484-4.42c-.23-.115-.515-.173-.86-.173-.56 0-.96.34-1.186 1.015h-.172l-.172-.843h-1.188v5.436h1.53v-3.39c0-.57.396-.86 1.19-.86.112 0 .17.03.17.094 0 .055.056.078.173.078h.17zm.844 1.358c1.133-.226 1.758-.344 1.875-.344.676 0 1.016.29 1.016.86v.344c-.232 0-.404-.024-.517-.08-.105-.06-.273-.092-.5-.092-1.7 0-2.547.68-2.547 2.03 0 1.024.563 1.532 1.688 1.532.906 0 1.53-.336 1.875-1.016h.17l.172.844h1.188c-.117-.113-.172-.566-.172-1.36v-2.202c0-1.364-.68-2.047-2.03-2.047-.575 0-1.032.09-1.376.265-.336.168-.672.31-1.016.422zM86.53-5.61c-.56 0-.843-.28-.843-.843 0-.457.336-.688 1.016-.688.227 0 .395.03.5.093.113.055.285.078.516.078v.517c-.345.562-.743.844-1.19.844zm8.157-6.124h-6.124v1.187h2.39v5.953h1.36v-5.953h2.374zm1.704 1.703h-1.703l2.376 5.436c-.22.574-.5.86-.844.86l-.345-.172-.328 1.187c.1.118.44.173 1.016.173.79 0 1.414-.848 1.874-2.547l2.032-4.937h-1.532L97.92-6.97v1.017h-.172l-.172-1.016zm4.766 7.483h1.53v-2.22c.22.232.556.345 1.017.345 1.813 0 2.72-1.02 2.72-3.062 0-1.813-.743-2.72-2.22-2.72-.68 0-1.242.29-1.687.86h-.344L102-10.03h-.844zm2.72-6.47c.675 0 1.015.513 1.015 1.533 0 1.25-.51 1.875-1.53 1.875-.23 0-.454-.113-.672-.343v-2.03c0-.69.394-1.033 1.187-1.033zm7.64 3.064c-.22.23-.672.344-1.36.344-.906 0-1.36-.394-1.36-1.187h3.58v-1.187c0-1.477-.798-2.22-2.392-2.22-1.812 0-2.718 1.024-2.718 3.063 0 1.812.906 2.718 2.718 2.718.907 0 1.586-.223 2.047-.672zm-1.532-3.063c.8 0 1.145.403 1.032 1.204h-2.22c0-.8.395-1.204 1.188-1.204zM15.64-4.594h1.532V-6.97h.844c.79 0 1.5-.163 2.125-.5.626-.343.938-.968.938-1.874 0-1.133-.34-1.816-1.015-2.047-.68-.227-1.418-.344-2.22-.344h-2.202zm2.376-5.953c1.02 0 1.53.344 1.53 1.03 0 .68-.14 1.048-.42 1.11-.282.055-.712.08-1.282.08h-.672v-2.22zM34-6.453c0 .562-.453.844-1.36.844-.343 0-.632-.023-.86-.077-.218-.063-.557-.208-1.014-.438l-.5 1.53c.445.118.836.204 1.172.267.343.055.8.078 1.375.078 1.812 0 2.718-.79 2.718-2.375 0-.57-.198-1-.593-1.28-.398-.282-.792-.505-1.187-.673-.398-.176-.797-.348-1.203-.516-.4-.164-.594-.422-.594-.765s.4-.515 1.203-.515c.332 0 .64.03.922.094.29.053.602.135.938.25l.343-1.36c-.45-.114-.844-.196-1.188-.25-.344-.063-.684-.094-1.016-.094-1.812 0-2.718.742-2.718 2.218 0 .563.195.993.593 1.282.396.28.79.507 1.19.67.393.17.788.34 1.186.517.395.168.594.367.594.594zm6.625.672c-.22.23-.672.343-1.36.343-.906 0-1.36-.395-1.36-1.188h3.58v-1.188c0-1.476-.797-2.218-2.39-2.218-1.814 0-2.72 1.022-2.72 3.06 0 1.814.906 2.72 2.72 2.72.905 0 1.585-.227 2.046-.688zm-1.53-3.064c.8 0 1.143.4 1.03 1.188h-2.22c0-.79.396-1.188 1.19-1.188zm0 0"/></symbol><symbol id="2f95fc9ca" overflow="visible"><path d="M89.938-85h29.406v4.422c-1.93 1.355-5.156 2.715-9.688 4.078-3.636 4.992-7.383 9.867-11.234 14.625-3.844 4.762-7.637 9.523-11.375 14.28 1.47 2.032 3.273 4.58 5.422 7.642 2.155 3.062 4.507 6.383 7.06 9.953 2.552 3.563 5.212 7.215 7.986 10.953 2.78 3.742 5.53 7.313 8.25 10.72l6.968 4.077V0H104.72l-4.767-3.906C98.023-6.508 95.957-9.54 93.75-13c-2.21-3.457-4.39-6.94-6.547-10.453-2.148-3.52-4.125-6.78-5.937-9.78-1.813-3-3.29-5.353-4.422-7.064h-8.156v31.97c3.507.905 6.906 2.264 10.187 4.077V0H44.703v-4.25c1.594-.79 3.156-1.523 4.688-2.203 1.532-.688 3.145-1.313 4.844-1.875v-32.984l-9.36 1.703c-1.022 1.587-2.382 3.907-4.077 6.97-1.7 3.062-3.543 6.35-5.53 9.86-1.982 3.51-4.048 6.968-6.205 10.374-2.148 3.398-4.242 6.23-6.28 8.5L17.686 0H0v-4.25l7.813-4.078c2.832-3.29 5.582-6.75 8.25-10.375 2.664-3.625 5.187-7.133 7.562-10.53 2.383-3.408 4.566-6.61 6.547-9.61 1.988-3 3.773-5.52 5.36-7.563-4.313-4.875-8.454-9.832-12.423-14.875-3.962-5.04-7.75-10.115-11.376-15.22-2.95-.676-5.78-2.035-8.5-4.078V-85H32.64v4.422c-2.156 1.586-4.992 2.945-8.5 4.078 3.063 5.438 6.376 10.57 9.938 15.39 3.57 4.813 7.344 9.938 11.313 15.376h8.844V-76.5c-3.742-.79-6.918-2.148-9.53-4.078V-85h32.983v4.422c-1.136.906-2.414 1.7-3.828 2.375-1.42.68-3.14 1.246-5.172 1.703v31.797l9.343-1.703C82-51.844 85.6-56.86 88.83-61.453c3.227-4.594 6.43-9.61 9.61-15.047-1.594-.563-3.075-1.125-4.438-1.688-1.355-.57-2.71-1.367-4.063-2.39zm0 0"/></symbol></defs><use x="63.63" xlink:href="#2f95fc9ca" y="167"/></svg>