<?xml version="1.0" encoding="UTF-8"?><svg enable-background="new 0 0 250 250" height="250px" viewBox="0 0 250 250" width="250px" x="0px" xml:space="preserve" xmlns="http://www.w3.org/2000/svg" xmlns:xlink="http://www.w3.org/1999/xlink" y="0px"><defs><symbol id="c2214b59a" overflow="visible"><path d="M88.234 21.594h-9.187L76.5 0H12.578l-2.547 21.594H.844v-33.5h10.031c.906-1.239 2.094-3.473 3.563-6.703 1.476-3.227 2.925-7.758 4.343-13.594 1.414-5.844 2.66-13.098 3.735-21.766 1.082-8.676 1.738-19.02 1.968-31.031h51.328v73.094h12.422zm-26.015-33.5v-61.188h-25.5c-.23 4.762-.625 9.95-1.188 15.563a239.583 239.583 0 0 1-2.297 16.828c-.96 5.605-2.18 10.902-3.656 15.89-1.469 4.981-3.168 9.282-5.094 12.907zm0 0"/></symbol></defs><use x="79.036" xlink:href="#c2214b59a" y="169"/></svg>