<?xml version="1.0" encoding="UTF-8"?><svg enable-background="new 0 0 250 250" height="250px" viewBox="0 0 250 250" width="250px" x="0px" xml:space="preserve" xmlns="http://www.w3.org/2000/svg" xmlns:xlink="http://www.w3.org/1999/xlink" y="0px"><defs><symbol id="8c1aa435a" overflow="visible"><path d="M20.563-48.453h36.046c-.562-8.04-2.918-14.5-7.062-19.375-4.137-4.875-10-7.313-17.594-7.313-4.648 0-8.7.625-12.156 1.875-3.45 1.243-6.25 2.602-8.406 4.079L6.625-79.564c3.52-2.374 7.547-4.21 12.078-5.515 4.531-1.313 9.8-1.969 15.813-1.969 12.57 0 21.75 3.914 27.53 11.734C67.829-67.487 70.72-56.55 70.72-42.5c0 14.512-3.344 25.563-10.031 33.156C54-1.75 44.706 2.046 32.811 2.046c-5.335 0-10.242-.429-14.718-1.28-4.469-.852-8.235-2.13-11.297-3.829l3.906-11.562c2.613 1.48 5.817 2.648 9.61 3.5 3.8.844 7.515 1.266 11.14 1.266 15.863.117 24.305-9.008 25.328-27.375H20.563zm0 0"/></symbol></defs><use x="85.493" xlink:href="#8c1aa435a" y="169"/></svg>