<?xml version="1.0" encoding="UTF-8"?><svg enable-background="new 0 0 250 250" height="250px" viewBox="0 0 250 250" width="250px" x="0px" xml:space="preserve" xmlns="http://www.w3.org/2000/svg" xmlns:xlink="http://www.w3.org/1999/xlink" y="0px"><defs><symbol id="6022aa16a" overflow="visible"><path d="M72.594-11.906c-2.043 3.969-5.36 7.289-9.953 9.953-4.586 2.664-9.938 4-16.063 4-6.687 0-12.496-1.047-17.422-3.14-4.93-2.102-9.039-5.11-12.328-9.016-3.281-3.914-5.746-8.618-7.39-14.11-1.649-5.5-2.47-11.593-2.47-18.281 0-14.395 3.509-25.414 10.532-33.063 7.031-7.656 16.61-11.484 28.734-11.484 5.551 0 10.508.484 14.875 1.453 4.364.961 8.078 2.235 11.141 3.828-.344 3.743-.969 7.934-1.875 12.579-.906 4.648-2.04 8.5-3.39 11.562H62.39L55.25-77.859a8.612 8.612 0 0 0-2.719-1.266c-1.023-.29-2.718-.438-5.093-.438-7.711 0-13.665 2.81-17.86 8.422-4.187 5.606-6.281 15.094-6.281 28.47 0 4.312.594 8.51 1.781 12.593 1.188 4.074 3 7.726 5.438 10.953 2.437 3.23 5.492 5.809 9.172 7.734C43.374-9.46 47.656-8.5 52.53-8.5c3.969 0 7.422-.566 10.36-1.703 2.945-1.133 5.441-2.492 7.484-4.078zm0 0"/></symbol></defs><use x="85.408" xlink:href="#6022aa16a" y="169"/></svg>