<?xml version="1.0" encoding="UTF-8"?><svg enable-background="new 0 0 250 250" height="250px" viewBox="0 0 250 250" width="250px" x="0px" xml:space="preserve" xmlns="http://www.w3.org/2000/svg" xmlns:xlink="http://www.w3.org/1999/xlink" y="0px"><defs><symbol id="09388e09a" overflow="visible"><path d="M32.469-11.906c4.414.687 8.383 1.031 11.906 1.031 7.133 0 12.398-1.383 15.797-4.156 3.406-2.781 5.11-6.723 5.11-11.828 0-4.532-1.65-8.27-4.938-11.22-3.282-2.944-8.438-4.421-15.469-4.421-1.93 0-3.969.059-6.125.172a29.611 29.611 0 0 0-6.281 1.016zm0-40.625a83.501 83.501 0 0 1 7.734-.922 98.234 98.234 0 0 1 7.063-.266c5.882 0 10.867.653 14.953 1.953 4.082 1.305 7.394 3.09 9.937 5.36 2.551 2.261 4.395 4.953 5.531 8.078 1.133 3.117 1.704 6.43 1.704 9.937 0 10.313-3.09 17.793-9.266 22.438-6.18 4.648-15.781 6.969-28.813 6.969-3.742 0-7.43-.086-11.062-.25A282.899 282.899 0 0 1 18.875 0v-73.094H.172V-85h32.297zm0 0"/></symbol></defs><use x="82.774" xlink:href="#09388e09a" y="169"/></svg>