<?xml version="1.0" encoding="UTF-8"?><svg enable-background="new 0 0 250 250" height="250px" viewBox="0 0 250 250" width="250px" x="0px" xml:space="preserve" xmlns="http://www.w3.org/2000/svg" xmlns:xlink="http://www.w3.org/1999/xlink" y="0px"><defs><symbol id="4556d67aa" overflow="visible"><path d="M26.688-11.906c4.195.687 8.222 1.031 12.078 1.031 7.132 0 12.398-1.383 15.797-4.156 3.406-2.781 5.109-6.723 5.109-11.828 0-4.532-1.649-8.27-4.938-11.22-3.28-2.944-8.437-4.421-15.468-4.421-1.93 0-4.028.059-6.297.172-2.262.117-4.356.453-6.282 1.016zm0-40.625a82.88 82.88 0 0 1 7.812-.922c2.5-.176 4.883-.266 7.156-.266 5.883 0 10.867.653 14.953 1.953 4.082 1.305 7.395 3.09 9.938 5.36 2.55 2.261 4.394 4.953 5.531 8.078 1.133 3.117 1.703 6.43 1.703 9.937 0 10.313-3.09 17.793-9.265 22.438-6.18 4.648-15.782 6.969-28.813 6.969-7.262 0-14.797-.34-22.61-1.016v-85h13.595zm0 0"/></symbol></defs><use x="85.578" xlink:href="#4556d67aa" y="169"/></svg>