<?xml version="1.0" encoding="UTF-8"?><svg enable-background="new 0 0 250 250" height="250px" viewBox="0 0 250 250" width="250px" x="0px" xml:space="preserve" xmlns="http://www.w3.org/2000/svg" xmlns:xlink="http://www.w3.org/1999/xlink" y="0px"><defs><symbol id="2f95fc9ca" overflow="visible"><path d="M89.938-85h29.406v4.422c-1.93 1.355-5.156 2.715-9.688 4.078a362.073 362.073 0 0 1-11.234 14.625 1387.83 1387.83 0 0 0-11.375 14.281 681.913 681.913 0 0 1 5.422 7.64C94.625-36.89 96.977-33.57 99.53-30c2.551 3.563 5.211 7.215 7.985 10.953a392.427 392.427 0 0 0 8.25 10.719l6.968 4.078V0H104.72l-4.766-3.906C98.023-6.508 95.957-9.54 93.75-13a672.77 672.77 0 0 1-6.547-10.453c-2.148-3.52-4.125-6.781-5.937-9.781-1.813-3-3.29-5.352-4.422-7.063h-8.156v31.969A43.538 43.538 0 0 1 78.874-4.25V0H44.703v-4.25c1.594-.79 3.156-1.523 4.688-2.203a50.766 50.766 0 0 1 4.843-1.875v-32.984l-9.359 1.703c-1.023 1.586-2.383 3.906-4.078 6.968-1.7 3.063-3.543 6.352-5.531 9.86a237.638 237.638 0 0 1-6.203 10.375c-2.149 3.398-4.243 6.23-6.282 8.5L17.688 0H0v-4.25l7.813-4.078c2.832-3.29 5.582-6.75 8.25-10.375a545.69 545.69 0 0 0 7.562-10.531 433.748 433.748 0 0 0 6.547-9.61c1.988-3 3.773-5.52 5.36-7.562a337.038 337.038 0 0 1-12.423-14.875A389.679 389.679 0 0 1 11.734-76.5c-2.949-.676-5.78-2.035-8.5-4.078V-85h29.407v4.422c-2.157 1.586-4.993 2.945-8.5 4.078a148.338 148.338 0 0 0 9.937 15.39c3.57 4.813 7.344 9.938 11.313 15.376h8.843V-76.5c-3.742-.79-6.918-2.148-9.53-4.078V-85h32.983v4.422a19.835 19.835 0 0 1-3.828 2.375c-1.418.68-3.14 1.246-5.171 1.703v31.797l9.343-1.703a1057.062 1057.062 0 0 0 10.797-15.047c3.227-4.594 6.43-9.61 9.61-15.047A91.621 91.621 0 0 1 94-78.188c-1.355-.57-2.71-1.367-4.063-2.39zm0 0"/></symbol></defs><use x="63.658" xlink:href="#2f95fc9ca" y="169"/></svg>