<?xml version="1.0" encoding="UTF-8"?><svg enable-background="new 0 0 250 250" height="250px" viewBox="0 0 250 250" width="250px" x="0px" xml:space="preserve" xmlns="http://www.w3.org/2000/svg" xmlns:xlink="http://www.w3.org/1999/xlink" y="0px"><defs><symbol id="a4486382a" overflow="visible"><path d="M81.766-24.813c0 4.532-1.024 8.415-3.063 11.641-2.031 3.23-4.777 5.867-8.234 7.906-3.461 2.043-7.453 3.547-11.985 4.516-4.53.957-9.293 1.438-14.28 1.438-3.626 0-6.517-.032-8.673-.094-2.156-.055-3.976-.137-5.453-.25a204.333 204.333 0 0 0-3.734-.266A64.175 64.175 0 0 0 22.954 0H6.624v-4.25a47.563 47.563 0 0 1 11.219-4.078V-76.5c-4.305-.79-8.043-2.148-11.219-4.078V-85h15.313c2.718 0 5.039-.023 6.968-.078 1.926-.063 3.739-.149 5.438-.266 1.695-.113 3.394-.195 5.093-.25 1.696-.062 3.567-.094 5.61-.094 9.976 0 17.742 1.508 23.297 4.516 5.55 3 8.328 8.242 8.328 15.719 0 2.719-.57 5.156-1.703 7.312a19.356 19.356 0 0 1-4.422 5.61c-1.813 1.586-3.856 2.918-6.125 4-2.262 1.074-4.469 1.84-6.625 2.297 3.176.218 6.207.84 9.094 1.859 2.894 1.023 5.445 2.414 7.656 4.172a19.583 19.583 0 0 1 5.266 6.469c1.3 2.543 1.953 5.515 1.953 8.922zm-48.61 17.5c1.582.344 3.594.516 6.032.516h6.03c6.688 0 11.673-1.441 14.954-4.328 3.289-2.895 4.937-7.004 4.937-12.328 0-5.563-1.984-9.727-5.953-12.5-3.968-2.781-9.07-4.172-15.297-4.172H33.156zm0-37.906l18.86-1.703c2.039-1.02 4.109-2.914 6.203-5.687 2.101-2.782 3.156-6.438 3.156-10.97 0-5.55-1.672-9.374-5.016-11.468-3.343-2.101-8.246-3.156-14.703-3.156-1.25 0-2.672.031-4.265.094-1.586.054-2.996.25-4.235.593zm0 0"/></symbol></defs><use x="80.141" xlink:href="#a4486382a" y="169"/></svg>