<?xml version="1.0" encoding="UTF-8"?><svg enable-background="new 0 0 250 250" height="250px" viewBox="0 0 250 250" width="250px" x="0px" xml:space="preserve" xmlns="http://www.w3.org/2000/svg" xmlns:xlink="http://www.w3.org/1999/xlink" y="0px"><defs><symbol id="abe1e2d2a" overflow="visible"><path d="M55.25-85h32.813v4.422c-1.137.906-2.641 1.7-4.516 2.375-1.867.68-4.156 1.476-6.875 2.39a425.62 425.62 0 0 1-12.25 14.11 385.085 385.085 0 0 1-13.594 14.266 325.126 325.126 0 0 1 7.906 9.03 569.749 569.749 0 0 1 8.422 10.188 858.302 858.302 0 0 0 8.5 10.375c2.832 3.399 5.61 6.57 8.328 9.516L91.97-4.25V0h-19.89L66.64-3.906c-5.106-6.125-9.758-12.242-13.954-18.36a727.664 727.664 0 0 0-12.734-18.03h-6.797v31.968a82.086 82.086 0 0 1 6.188 1.781c1.875.625 3.492 1.39 4.86 2.297V0H6.624v-4.25c3.063-1.813 6.8-3.172 11.219-4.078V-76.5c-3.961-.79-7.7-2.148-11.219-4.078V-85h34.86v4.422a34.81 34.81 0 0 1-3.657 2.219c-1.305.68-2.86 1.296-4.672 1.859v31.797l7.813-1.703A1043.944 1043.944 0 0 1 53.89-61.031c4.082-4.532 7.879-9.457 11.39-14.782-1.93-.8-3.715-1.566-5.36-2.296a40.075 40.075 0 0 1-4.671-2.47zm0 0"/></symbol></defs><use x="79.036" xlink:href="#abe1e2d2a" y="169"/></svg>