<?xml version="1.0" encoding="UTF-8"?><svg enable-background="new 0 0 250 250" height="250px" viewBox="0 0 250 250" width="250px" x="0px" xml:space="preserve" xmlns="http://www.w3.org/2000/svg" xmlns:xlink="http://www.w3.org/1999/xlink" y="0px"><defs><symbol id="b141e2cda" overflow="visible"><path d="M43.188 0H6.624v-4.25c1.594-.906 3.352-1.672 5.281-2.297a142.055 142.055 0 0 1 5.938-1.781V-76.5a142.055 142.055 0 0 1-5.938-1.781c-1.93-.625-3.687-1.39-5.281-2.297V-85h36.563v4.422c-2.618 1.586-5.961 2.945-10.032 4.078v29.75h37.735V-76.5c-3.97-.676-7.371-2.035-10.204-4.078V-85h36.72v4.422c-3.063 1.93-6.805 3.289-11.22 4.078v68.172c2.04.45 4.024.96 5.954 1.531a17.366 17.366 0 0 1 5.265 2.547V0H60.687v-4.25c2.833-2.04 6.235-3.398 10.204-4.078v-30.938H33.156v30.938c2.258.45 4.18 1.015 5.766 1.703 1.594.68 3.016 1.469 4.266 2.375zm0 0"/></symbol></defs><use x="73.004" xlink:href="#b141e2cda" y="169"/></svg>