<?xml version="1.0" encoding="UTF-8"?><svg enable-background="new 0 0 250 250" height="250px" viewBox="0 0 250 250" width="250px" x="0px" xml:space="preserve" xmlns="http://www.w3.org/2000/svg" xmlns:xlink="http://www.w3.org/1999/xlink" y="0px"><defs><symbol id="24c03b90a" overflow="visible"><path d="M6.625 0v-4.25c3.063-1.813 6.8-3.172 11.219-4.078V-76.5c-4.305-.676-8.043-2.035-11.219-4.078V-85h36.563v4.422c-2.618 1.586-5.961 2.945-10.032 4.078v69.016h35.86V-76.5c-3.055-.676-6.399-2.035-10.032-4.078V-85h36.563v4.422a42.036 42.036 0 0 1-4.938 2.219c-1.812.68-3.914 1.296-6.296 1.859v69.016h15.14c-.23 5.449-.484 10.89-.766 16.328a508.138 508.138 0 0 1-1.109 16.312h-4.25L85.688 0zm0 0"/></symbol></defs><use x="72.834" xlink:href="#24c03b90a" y="169"/></svg>