<?xml version="1.0" encoding="UTF-8"?><svg enable-background="new 0 0 250 250" height="250px" viewBox="0 0 250 250" width="250px" x="0px" xml:space="preserve" xmlns="http://www.w3.org/2000/svg" xmlns:xlink="http://www.w3.org/1999/xlink" y="0px"><defs><symbol id="1067c5a1a" overflow="visible"><path d="M13.094-84.828c3.969-.227 8.129-.508 12.484-.844 4.363-.344 9.774-.516 16.235-.516 11.226 0 19.273 1.731 24.14 5.188 4.875 3.46 7.313 8.7 7.313 15.719 0 3.969-1.164 7.855-3.485 11.656-2.324 3.793-6.148 6.594-11.469 8.406v.672c6.688 1.25 11.391 3.578 14.11 6.984 2.719 3.399 4.078 7.93 4.078 13.594 0 8.844-3.18 15.25-9.531 19.219-6.344 3.96-15.86 5.938-28.547 5.938-4.762 0-9.184-.141-13.266-.422a692.256 692.256 0 0 1-12.062-.938zm13.594 73.437c2.156.23 4.28.403 6.375.516 2.093.117 4.554.172 7.39.172 7.594 0 13.234-1.078 16.922-3.235 3.688-2.156 5.531-5.835 5.531-11.046 0-4.082-1.562-7.399-4.687-9.953-3.117-2.551-8.637-3.829-16.563-3.829H26.688zm16.656-37.734c2.039 0 4.023-.336 5.953-1.016 1.926-.687 3.656-1.625 5.187-2.812 1.532-1.188 2.774-2.57 3.735-4.156.968-1.594 1.453-3.297 1.453-5.11 0-4.531-1.36-7.676-4.078-9.437-2.719-1.758-7.48-2.64-14.282-2.64-3.624 0-6.492.058-8.593.171-2.094.117-4.106.23-6.032.344v24.656zm0 0"/></symbol></defs><use x="82.604" xlink:href="#1067c5a1a" y="169"/></svg>