<?xml version="1.0" encoding="UTF-8"?><svg enable-background="new 0 0 250 250" height="250px" viewBox="0 0 250 250" width="250px" x="0px" xml:space="preserve" xmlns="http://www.w3.org/2000/svg" xmlns:xlink="http://www.w3.org/1999/xlink" y="0px"><defs><symbol overflow="visible"><path d="M8.5-119H119V0H8.5zm88.406 13.594L63.75-68.516l-33.156-36.89-8.5 8.5 33.5 37.406-33.5 37.406 8.5 8.5 33.156-36.89 33.156 36.89 8.5-8.5L71.734-59.5l33.672-37.406zM21.936-4.594h1.36v-2.03h.673c.675 0 1.296-.142 1.858-.423.57-.29.86-.832.86-1.625 0-.906-.313-1.47-.938-1.687-.625-.226-1.277-.343-1.953-.343h-1.86zm2.033-5.093c.905 0 1.358.28 1.358.843 0 .574-.14.89-.422.953-.28.054-.652.077-1.11.077h-.5v-1.875zm8.155-1.016H26.86v1.015h2.046v5.094h1.188v-5.093h2.03zm5.61 4.406c0 .46-.4.688-1.188.688-.793 0-1.305-.113-1.53-.343l-.5 1.187c.217 0 .5.06.842.172.343.117.796.172 1.36.172 1.58 0 2.374-.676 2.374-2.03 0-1.02-.512-1.587-1.532-1.704-1.01-.114-1.515-.457-1.515-1.03 0-.334.336-.502 1.016-.502.562 0 1.07.118 1.53.344l.344-1.203c-.687-.22-1.312-.328-1.874-.328-1.586 0-2.376.62-2.376 1.86 0 .574.165.976.5 1.203.344.218.68.417 1.016.593.344.17.68.31 1.016.423.343.117.514.28.514.5zm2.562-1.687c.445-.227.953-.344 1.516-.344.57 0 .86.226.86.672v.343c-.118 0-.232-.023-.345-.078-.117-.063-.29-.094-.516-.094-1.355 0-2.03.57-2.03 1.703 0 .905.452 1.358 1.36 1.358.674 0 1.186-.28 1.53-.844l.344.672h1.015c-.116-.226-.17-.625-.17-1.187v-1.876c0-1.125-.57-1.688-1.704-1.688-.45 0-.87.06-1.265.172-.398.106-.71.215-.937.328zm1.36 2.546c-.462 0-.688-.226-.688-.687 0-.445.28-.672.843-.672.226 0 .398.03.515.094.113.055.227.078.344.078v.5c-.23.46-.57.688-1.016.688zm7.984.844v-2.718c0-1.352-.51-2.032-1.53-2.032-.794 0-1.36.28-1.704.844l-.343-.688h-.844v4.594h1.186v-2.89c.227-.446.57-.672 1.032-.672.562 0 .843.34.843 1.015v2.546zm.844-.172c.457.23 1.024.344 1.703.344 1.25 0 1.876-.508 1.876-1.53 0-.564-.15-.9-.438-1.017-.28-.112-.59-.284-.922-.514-.574-.22-.86-.383-.86-.5 0-.227.173-.344.516-.344.456 0 .91.117 1.36.344l.343-1.032c-.46-.218-1.028-.328-1.704-.328-1.137 0-1.704.512-1.704 1.53 0 .564.172.935.516 1.11.344.17.625.306.844.407.57 0 .86.172.86.516 0 .23-.173.343-.517.343-.563 0-1.075-.114-1.532-.344zm6.97-2.375c0 2.386 1.132 3.577 3.405 3.577 2.27 0 3.406-1.19 3.406-3.578 0-2.27-1.137-3.407-3.407-3.407-.907 0-1.704.313-2.39.938-.68.626-1.017 1.45-1.017 2.47zm1.03 0c0-1.696.79-2.548 2.375-2.548 1.58 0 2.374.852 2.374 2.547 0 1.7-.793 2.546-2.375 2.546-1.587 0-2.376-.847-2.376-2.547zm3.39.687c-.218.105-.444.156-.67.156-.462 0-.688-.28-.688-.844 0-.446.226-.673.687-.673h.5l.344-.687c-.45-.227-.844-.344-1.188-.344-1.024 0-1.532.57-1.532 1.703 0 1.25.508 1.874 1.53 1.874.564 0 .958-.113 1.19-.343zm5.954 1.86h1.36v-2.032h.687c.676 0 1.297-.14 1.86-.422.57-.29.86-.832.86-1.625 0-.906-.314-1.47-.94-1.687-.624-.226-1.276-.343-1.952-.343h-1.875zm2.047-5.095c.906 0 1.36.282 1.36.844 0 .574-.15.89-.438.953-.28.054-.65.077-1.094.077h-.516v-1.875zm3.563 1.704c.457-.227.968-.344 1.53-.344.563 0 .844.226.844.672v.343c-.105 0-.214-.023-.328-.078-.117-.063-.29-.094-.515-.094-1.47 0-2.204.57-2.204 1.703 0 .905.507 1.358 1.53 1.358.677 0 1.18-.28 1.516-.844l.344.672h1.03c-.116-.226-.17-.625-.17-1.187v-1.876c0-1.125-.57-1.688-1.704-1.688-.46 0-.886.06-1.28.172-.4.106-.712.215-.938.328zm1.36 2.546c-.45 0-.673-.226-.673-.687 0-.445.28-.672.844-.672.225 0 .397.03.514.094.114.055.223.078.33.078v.5c-.22.46-.56.688-1.017.688zm6.468-3.75c-.118-.1-.344-.156-.688-.156-.45 0-.79.28-1.016.844h-.17l-.173-.688h-1.017v4.594h1.36v-2.89c0-.446.335-.672 1.015-.672h.172c.113 0 .172.03.172.094 0 .054.055.078.172.078zm.843 1.204c.675-.227 1.187-.344 1.53-.344.563 0 .844.226.844.672v.343c-.117 0-.23-.023-.343-.078-.105-.063-.273-.094-.5-.094-1.468 0-2.203.57-2.203 1.703 0 .905.504 1.358 1.516 1.358.8 0 1.313-.28 1.53-.844h.173l.172.672h1.016c-.106-.226-.156-.625-.156-1.187v-1.876c0-1.125-.57-1.688-1.704-1.688-.46 0-.86.06-1.203.172-.335.106-.616.215-.843.328zm1.36 2.546c-.45 0-.673-.226-.673-.687 0-.445.28-.672.844-.672.227 0 .395.03.5.094.114.055.227.078.344.078v.5c-.218.46-.558.688-1.015.688zm7.14-5.265h-5.266v1.015h1.86v5.094h1.36v-5.093h2.045zm1.36 1.515h-1.36l2.046 4.594c-.117.574-.402.86-.86.86l-.17-.172-.33 1.015c.22.117.5.17.845.17.563 0 1.13-.737 1.704-2.217l1.703-4.25h-1.36l-.86 2.562v.844h-.17l-.173-.845zm4.077 6.47h1.36v-2.048c.113.23.398.344.86.344 1.58 0 2.374-.848 2.374-2.547 0-1.58-.624-2.374-1.874-2.374-.563 0-1.075.227-1.532.672h-.17l-.158-.515h-.86zm2.39-5.61c.563 0 .844.453.844 1.36 0 1.023-.397 1.53-1.186 1.53-.23 0-.46-.113-.688-.343v-1.704c0-.563.344-.844 1.03-.844zm6.626 2.547c-.23.23-.626.343-1.188.343-.793 0-1.246-.336-1.36-1.016h3.22v-1.03c0-.677-.2-1.158-.594-1.44-.398-.28-.874-.42-1.437-.42-1.594 0-2.39.85-2.39 2.546 0 1.586.796 2.375 2.39 2.375.332 0 .672-.055 1.016-.172.343-.113.624-.226.843-.343zm-1.36-2.548c.676 0 .957.34.844 1.015h-1.86c0-.675.336-1.015 1.016-1.015zm0 0"/></symbol><symbol id="187fa5e5a" overflow="visible"><path d="M62.734-73.094H26.687V0H13.095v-85h49.64zm0 0"/></symbol></defs><use x="93.635" xlink:href="#187fa5e5a" y="163"/></svg>