<?xml version="1.0" encoding="UTF-8"?><svg enable-background="new 0 0 250 250" height="250px" viewBox="0 0 250 250" width="250px" x="0px" xml:space="preserve" xmlns="http://www.w3.org/2000/svg" xmlns:xlink="http://www.w3.org/1999/xlink" y="0px"><defs><symbol id="6fa19697a" overflow="visible"><path d="M34.844-5.953c3.52 0 6.55-.563 9.093-1.688 2.551-1.132 4.618-2.609 6.204-4.421a18.327 18.327 0 0 0 3.578-6.22 21.771 21.771 0 0 0 1.187-7.046c0-5.438-1.164-9.117-3.484-11.047-2.324-1.926-5.469-3.234-9.438-3.922l-15.968 2.563a17.68 17.68 0 0 1-.782-4.594 11.48 11.48 0 0 1 .782-4.594h17.328c1.02-.445 2.066-1.148 3.14-2.11 1.082-.968 2.102-2.16 3.063-3.577.969-1.414 1.766-3.086 2.39-5.016.626-1.926.938-4.082.938-6.469 0-5.437-1.508-9.375-4.516-11.812-3-2.438-6.937-3.656-11.812-3.656-2.262 0-4.328.148-6.203.437-1.867.281-3.086.531-3.657.75l-7.64 19.219h-4.25a67.328 67.328 0 0 1-2.735-11.219 93.982 93.982 0 0 1-1.015-11.063c2.27-1.238 5.726-2.484 10.375-3.734 4.644-1.25 10.594-1.875 17.844-1.875 9.187 0 16.3 1.672 21.343 5.016 5.04 3.344 7.563 8.304 7.563 14.875 0 2.73-.57 5.23-1.703 7.5a24.58 24.58 0 0 1-4.344 6.11 26.063 26.063 0 0 1-5.938 4.593c-2.21 1.242-4.39 2.203-6.546 2.89 6.226.563 11.437 2.575 15.625 6.032 4.195 3.46 6.296 8.36 6.296 14.703 0 9.062-3.117 15.89-9.343 20.484-6.23 4.594-14.5 6.89-24.813 6.89-6.574 0-12.328-.964-17.265-2.89C15.21-2.77 11.1-5.207 7.813-8.156l3.062-11.39h3.406c1.469 1.585 3.11 3.48 4.922 5.687 1.82 2.21 3.64 4.39 5.453 6.546 2.375.907 5.77 1.36 10.188 1.36zm0 0"/></symbol></defs><use x="84.729" xlink:href="#6fa19697a" y="169"/></svg>