<?xml version="1.0" encoding="UTF-8"?><svg enable-background="new 0 0 250 250" height="250px" viewBox="0 0 250 250" width="250px" x="0px" xml:space="preserve" xmlns="http://www.w3.org/2000/svg" xmlns:xlink="http://www.w3.org/1999/xlink" y="0px"><defs><symbol id="707b8a34a" overflow="visible"><path d="M2.547-85h36.547v4.422c-1.125.793-2.543 1.558-4.25 2.297-1.7.73-3.625 1.324-5.782 1.781v20.406c0 5.324 1.133 9.602 3.407 12.828 2.27 3.23 6.066 4.844 11.39 4.844 3.176 0 6.266-.476 9.266-1.437 3-.97 5.86-2.243 8.578-3.828V-76.5c-3.398-.676-6.734-2.035-10.016-4.078V-85h36.547v4.422c-3.062 1.93-6.804 3.289-11.218 4.078v68.172c2.257.562 4.296 1.156 6.109 1.781a30.275 30.275 0 0 1 5.11 2.297V0H48.108v-4.25c4.645-1.926 9.176-3.285 13.594-4.078v-30.438c-2.719 2.95-5.95 5.36-9.687 7.235-3.743 1.867-8.446 2.797-14.11 2.797-7.71 0-13.664-2.149-17.86-6.453-4.187-4.313-6.28-10.149-6.28-17.516V-76.5c-4.305-.79-8.043-2.148-11.22-4.078zm0 0"/></symbol></defs><use x="77.592" xlink:href="#707b8a34a" y="169"/></svg>