<?xml version="1.0" encoding="UTF-8"?><svg enable-background="new 0 0 250 250" height="250px" viewBox="0 0 250 250" width="250px" x="0px" xml:space="preserve" xmlns="http://www.w3.org/2000/svg" xmlns:xlink="http://www.w3.org/1999/xlink" y="0px"><defs><symbol id="3b6d6239a" overflow="visible"><path d="M1.14-87.219h40.657v3.531h-2c-2.856 0-4.996.622-6.422 1.86-1.43 1.23-2.14 2.766-2.14 4.61 0 2.48 1.046 5.906 3.14 10.28l21.234 43.985 19.516-48.172c1.082-2.602 1.625-5.176 1.625-7.719 0-1.133-.227-1.988-.672-2.562-.512-.696-1.308-1.25-2.39-1.656-1.075-.415-2.977-.626-5.704-.626v-3.53H96.36v3.53c-2.355.25-4.168.758-5.437 1.516-1.262.762-2.656 2.188-4.188 4.281-.562.899-1.64 3.344-3.234 7.344L47.984 16.47c-3.43 8.445-7.918 14.828-13.468 19.14-5.555 4.313-10.903 6.47-16.047 6.47-3.742 0-6.82-1.079-9.235-3.235-2.406-2.157-3.609-4.633-3.609-7.422 0-2.668.867-4.813 2.61-6.438 1.75-1.617 4.144-2.422 7.187-2.422 2.094 0 4.953.696 8.578 2.094 2.531.957 4.113 1.438 4.75 1.438 1.906 0 3.984-.985 6.234-2.953 2.258-1.97 4.532-5.778 6.813-11.422l6.187-15.14L16.656-69.22c-.949-1.969-2.468-4.41-4.562-7.328-1.586-2.226-2.887-3.723-3.906-4.484-1.461-1.008-3.81-1.895-7.047-2.656zm0 0"/></symbol></defs><use x="76.371" xlink:href="#3b6d6239a" y="169"/></svg>