<?xml version="1.0" encoding="UTF-8"?><svg enable-background="new 0 0 250 250" height="250px" viewBox="0 0 250 250" width="250px" x="0px" xml:space="preserve" xmlns="http://www.w3.org/2000/svg" xmlns:xlink="http://www.w3.org/1999/xlink" y="0px"><defs><symbol id="48248165a" overflow="visible"><path d="M18-87.219h76.922v3.625c-4.313 0-7.184.43-8.61 1.281-1.43.856-2.558 1.918-3.39 3.188-.824 1.273-1.234 5.398-1.234 12.375v43.14c0 9.075.773 14.641 2.328 16.704 1.562 2.062 5.195 3.195 10.906 3.39v27.703h-3.61c-.25-5.21-1.539-9.75-3.859-13.625-2.312-3.867-5.531-6.593-9.656-8.187C73.672.789 67.578 0 59.516 0H37.03c-6.98 0-12.437.617-16.375 1.86-3.93 1.238-7.21 3.82-9.843 7.75C8.175 13.546 6.57 18.405 6 24.187H2.469V-3.517c5.207-.195 9.937-2.257 14.187-6.187 4.258-3.938 8.004-11.649 11.235-23.14 3.238-11.489 4.859-22.79 4.859-33.907 0-10.914-4.918-16.531-14.75-16.844zm21.031 6.188v5.234c0 31.168-5.648 54.371-16.937 69.61h32.375c5.832 0 9.191-.489 10.078-1.47.894-.988 1.344-4.624 1.344-10.905v-62.47zm0 0"/></symbol></defs><use x="75.516" xlink:href="#48248165a" y="169"/></svg>