<?xml version="1.0" encoding="UTF-8"?><svg enable-background="new 0 0 250 250" height="250px" viewBox="0 0 250 250" width="250px" x="0px" xml:space="preserve" xmlns="http://www.w3.org/2000/svg" xmlns:xlink="http://www.w3.org/1999/xlink" y="0px"><defs><symbol id="aaa1be41a" overflow="visible"><path d="M85.313-87.219v3.625c-3.938 0-6.844.543-8.72 1.625-1.866 1.074-3.085 2.438-3.656 4.094-.574 1.648-.859 5.355-.859 11.125v46.281c0 5.524.25 9.157.75 10.907.508 1.742 1.734 3.183 3.672 4.328 1.938 1.148 4.875 1.718 8.813 1.718V0H43.124v-3.516c5.27 0 8.797-.968 10.578-2.906 1.781-1.937 2.672-6.617 2.672-14.047v-18.953l-3.906.094c-.574 0-1.59-.031-3.047-.094L21.609 0H-.094v-3.516c3.176 0 5.38-.425 6.61-1.28 1.238-.864 3.539-3.677 6.906-8.438l20.375-28.75c-14.594-5.082-21.89-12.86-21.89-23.328 0-5.907 2.613-11.032 7.843-15.376 5.238-4.351 14.176-6.53 26.813-6.53zm-28.938 7.235c-2.48-.696-4.828-1.047-7.047-1.047-6.418 0-11.215 1.59-14.39 4.765-3.168 3.18-4.75 6.954-4.75 11.329 0 5.585 2.25 10.218 6.75 13.906 4.507 3.68 10.19 5.515 17.046 5.515.696 0 1.493-.062 2.391-.187zm0 0"/></symbol></defs><use x="80.265" xlink:href="#aaa1be41a" y="169"/></svg>