<?xml version="1.0" encoding="UTF-8"?><svg enable-background="new 0 0 250 250" height="250px" viewBox="0 0 250 250" width="250px" x="0px" xml:space="preserve" xmlns="http://www.w3.org/2000/svg" xmlns:xlink="http://www.w3.org/1999/xlink" y="0px"><defs><symbol id="5cce9e59a" overflow="visible"><path d="M4.766-87.219h75.406l3.812 23.61h-4.296c-.762-4.758-2.032-8.438-3.813-11.032-1.773-2.601-3.805-4.316-6.094-5.14-2.281-.832-6.183-1.25-11.703-1.25h-7.61v60.562c0 6.469.395 10.578 1.188 12.328.79 1.75 2.07 2.914 3.844 3.485 1.781.562 5.848.945 12.203 1.14V0H20.281v-3.516c6.094-.132 10.008-1.117 11.75-2.953 1.75-1.843 2.625-6.508 2.625-14V-81.03h-7.812c-5.461 0-9.172.336-11.14 1-1.962.668-3.845 2.258-5.657 4.765-1.813 2.512-3.356 6.399-4.625 11.657H1.14zm0 0"/></symbol></defs><use x="82.497" xlink:href="#5cce9e59a" y="169"/></svg>