<?xml version="1.0" encoding="UTF-8"?><svg enable-background="new 0 0 250 250" height="250px" viewBox="0 0 250 250" width="250px" x="0px" xml:space="preserve" xmlns="http://www.w3.org/2000/svg" xmlns:xlink="http://www.w3.org/1999/xlink" y="0px"><defs><symbol id="abecc914a" overflow="visible"><path d="M8.563-60.078h3.624c.758-6.664 3.102-12.25 7.032-16.75 3.937-4.508 8.89-6.766 14.86-6.766 6.413 0 11.78 3.063 16.093 9.188 4.312 6.125 7.07 14.422 8.281 24.89H30.172v6.188h28.953v4.672c0 12.636-2.512 21.699-7.531 27.187-5.012 5.492-11.262 8.235-18.75 8.235-10.856 0-19.871-5.11-27.047-15.329l-3.234 1.907C11.383-3.77 22.113 2.672 34.75 2.672c12.438 0 22.586-4.649 30.453-13.953 7.875-9.301 11.813-20.457 11.813-33.469 0-13.332-4.032-24.172-12.094-32.516-8.055-8.343-17.094-12.515-27.125-12.515-3.938 0-8.86.918-14.766 2.75-3.554 1.086-5.836 1.625-6.843 1.625-1.336 0-2.668-.602-4-1.813H8.562zm0 0"/></symbol></defs><use x="83.257" xlink:href="#abecc914a" y="169"/></svg>