<?xml version="1.0" encoding="UTF-8"?><svg enable-background="new 0 0 250 250" height="250px" viewBox="0 0 250 250" width="250px" x="0px" xml:space="preserve" xmlns="http://www.w3.org/2000/svg" xmlns:xlink="http://www.w3.org/1999/xlink" y="0px"><defs><symbol id="59106495a" overflow="visible"><path d="M33.328-48.281h37.703V-66.75c0-5.52-.226-9.117-.672-10.797-.437-1.687-1.53-3.113-3.28-4.281-1.75-1.176-4.845-1.766-9.282-1.766v-3.625h42.172v3.625c-3.93 0-6.797.446-8.61 1.328-1.812.887-3.039 2.172-3.671 3.86-.637 1.68-.954 5.562-.954 11.656v46.281c0 5.524.239 9.172.72 10.953.476 1.774 1.632 3.215 3.468 4.329 1.844 1.117 4.86 1.671 9.047 1.671V0H57.797v-3.516c5.27 0 8.789-.968 10.562-2.906 1.782-1.937 2.672-6.617 2.672-14.047v-21.61H33.328v21.61c0 5.524.234 9.172.703 10.953.477 1.774 1.64 3.215 3.485 4.329 1.843 1.117 4.859 1.671 9.047 1.671V0H4.374v-3.516c5.656 0 9.273-1.03 10.86-3.093 1.581-2.07 2.374-6.692 2.374-13.86V-66.75c0-5.52-.242-9.164-.718-10.938-.47-1.78-1.625-3.207-3.47-4.28-1.835-1.083-4.85-1.626-9.046-1.626v-3.625h42.188v3.625c-3.938 0-6.813.446-8.626 1.328-1.804.887-3.023 2.172-3.656 3.86-.636 1.68-.953 5.562-.953 11.656zm0 0"/></symbol></defs><use x="72.952" xlink:href="#59106495a" y="169"/></svg>