<?xml version="1.0" encoding="UTF-8"?><svg enable-background="new 0 0 250 250" height="250px" viewBox="0 0 250 250" width="250px" x="0px" xml:space="preserve" xmlns="http://www.w3.org/2000/svg" xmlns:xlink="http://www.w3.org/1999/xlink" y="0px"><defs><symbol id="49b31a80a" overflow="visible"><path d="M14.281-62.266C21.582-80.609 33.895-89.78 51.22-89.78c12.125 0 22.039 4.539 29.75 13.61 7.719 9.073 11.578 19.452 11.578 31.14 0 12.054-3.906 23.015-11.719 32.89C73.023-2.266 62.457 2.672 49.125 2.672c-13.586 0-23.934-5.633-31.047-16.906-7.105-11.27-10.656-25-10.656-41.188 0-12.562 1.836-24.285 5.516-35.172 3.687-10.883 7.562-19.023 11.624-24.422 4.063-5.394 8.758-9.332 14.094-11.812 5.332-2.477 14.758-3.781 28.282-3.906 9.707-.125 15.578-.407 17.609-.844 2.031-.445 3.969-1.719 5.812-3.813h3.72c-2.095 6.22-4.638 10.664-7.626 13.328-2.98 2.668-6.183 4.461-9.61 5.376-3.429.917-9.554 1.507-18.374 1.765-9.524.25-16.11.965-19.766 2.14-3.648 1.18-7.437 4.04-11.375 8.579-3.937 4.531-7 10.48-9.187 17.844-2.188 7.367-3.477 15.398-3.86 24.093zm33.703-21.047c-6.343 0-11.547 2.637-15.609 7.907-4.063 5.273-6.094 13.554-6.094 24.844 0 15.304 2.727 26.89 8.188 34.765C39.926-7.93 46.242-4 53.422-4c6.594 0 11.781-2.742 15.562-8.234 3.782-5.489 5.672-14.266 5.672-26.328 0-12.82-2.48-23.485-7.437-31.985-4.95-8.508-11.36-12.766-19.235-12.766zm0 0"/></symbol></defs><use x="75.516" xlink:href="#49b31a80a" y="169"/></svg>