<?xml version="1.0" encoding="UTF-8"?><svg enable-background="new 0 0 250 250" height="250px" viewBox="0 0 250 250" width="250px" x="0px" xml:space="preserve" xmlns="http://www.w3.org/2000/svg" xmlns:xlink="http://www.w3.org/1999/xlink" y="0px"><defs><symbol id="f2ed95f1a" overflow="visible"><path d="M145.781-3.516V0H4.375v-3.516c5.27 0 8.79-.968 10.563-2.906 1.78-1.937 2.671-6.617 2.671-14.047V-66.75c0-6.79-.351-10.8-1.047-12.031-.699-1.239-1.777-2.348-3.234-3.328-1.46-.989-4.445-1.485-8.953-1.485v-3.625h42.188v3.625c-4.25 0-7.11.43-8.579 1.281-1.46.856-2.601 1.918-3.422 3.188-.824 1.273-1.234 5.398-1.234 12.375v48.094c0 6.031.535 9.62 1.61 10.765 1.082 1.137 4.703 1.704 10.859 1.704h10.281c4.063 0 6.727-.239 8-.72 1.27-.476 2.11-1.284 2.516-2.421.414-1.145.625-4.89.625-11.235V-66.75c0-6.727-.352-10.742-1.047-12.047-.7-1.3-1.793-2.426-3.281-3.375-1.493-.945-4.461-1.422-8.907-1.422v-3.625h40.563v3.625c-3.43.063-5.969.637-7.625 1.719-1.649 1.074-2.727 2.438-3.234 4.094-.5 1.648-.75 5.324-.75 11.031v49.234c0 5.461.535 8.715 1.609 9.766 1.082 1.043 4.414 1.563 10 1.563h11.422c6.094 0 9.426-.649 10-1.954.57-1.3.86-5.254.86-11.859v-46.75c0-6.79-.352-10.8-1.048-12.031-.699-1.239-1.777-2.348-3.234-3.328-1.461-.989-4.445-1.485-8.953-1.485v-3.625h42.187v3.625c-4.324 0-7.199.43-8.625 1.281-1.43.856-2.554 1.918-3.375 3.188-.824 1.273-1.234 5.398-1.234 12.375v41.14c0 8.5.234 13.766.703 15.797.477 2.032 1.57 3.56 3.281 4.579 1.719 1.011 4.801 1.586 9.25 1.718zm0 0"/></symbol></defs><use x="50.11" xlink:href="#f2ed95f1a" y="169"/></svg>