<?xml version="1.0" encoding="UTF-8"?><svg enable-background="new 0 0 250 250" height="250px" viewBox="0 0 250 250" width="250px" x="0px" xml:space="preserve" xmlns="http://www.w3.org/2000/svg" xmlns:xlink="http://www.w3.org/1999/xlink" y="0px"><defs><symbol id="3b450bdfa" overflow="visible"><path d="M80.172-33.14C77.816-21.649 73.21-12.806 66.359-6.61 59.504-.421 51.922 2.673 43.61 2.673c-9.906 0-18.543-4.156-25.906-12.469-7.355-8.32-11.031-19.562-11.031-33.719 0-13.707 4.078-24.843 12.234-33.406 8.157-8.57 17.946-12.86 29.375-12.86 8.563 0 15.602 2.274 21.125 6.813 5.531 4.531 8.297 9.242 8.297 14.125 0 2.418-.781 4.371-2.344 5.86-1.554 1.492-3.726 2.234-6.515 2.234-3.75 0-6.578-1.203-8.485-3.61-1.074-1.331-1.789-3.867-2.14-7.609-.344-3.75-1.625-6.61-3.844-8.578-2.23-1.906-5.313-2.86-9.25-2.86-6.344 0-11.453 2.352-15.328 7.048-5.137 6.218-7.703 14.437-7.703 24.656 0 10.406 2.55 19.594 7.656 27.562 5.113 7.97 12.02 11.953 20.719 11.953 6.218 0 11.8-2.124 16.75-6.374 3.488-2.926 6.883-8.227 10.187-15.907zm0 0"/></symbol></defs><use x="81.832" xlink:href="#3b450bdfa" y="169"/></svg>