<?xml version="1.0" encoding="UTF-8"?><svg enable-background="new 0 0 250 250" height="250px" viewBox="0 0 250 250" width="250px" x="0px" xml:space="preserve" xmlns="http://www.w3.org/2000/svg" xmlns:xlink="http://www.w3.org/1999/xlink" y="0px"><defs><symbol id="e3d45b94a" overflow="visible"><path d="M48.75-89.781c13.207 0 23.805 5.011 31.797 15.031 6.789 8.574 10.187 18.414 10.187 29.516 0 7.812-1.875 15.718-5.625 23.718-3.742 8-8.898 14.032-15.468 18.094C63.078.641 55.766 2.672 47.703 2.672c-13.137 0-23.578-5.238-31.328-15.719-6.543-8.82-9.813-18.723-9.813-29.703 0-8 1.985-15.945 5.954-23.844 3.968-7.906 9.187-13.742 15.656-17.515 6.476-3.782 13.336-5.672 20.578-5.672zm-2.953 6.187c-3.367 0-6.746 1-10.14 3-3.4 2-6.141 5.508-8.235 10.516-2.094 5.012-3.14 11.453-3.14 19.328 0 12.7 2.519 23.652 7.562 32.86 5.05 9.199 11.703 13.796 19.953 13.796 6.156 0 11.234-2.535 15.234-7.61 4-5.081 6-13.812 6-26.187 0-15.488-3.336-27.675-10-36.562-4.511-6.094-10.258-9.14-17.234-9.14zm0 0"/></symbol></defs><use x="76.371" xlink:href="#e3d45b94a" y="169"/></svg>