<?xml version="1.0" encoding="UTF-8"?><svg enable-background="new 0 0 250 250" height="250px" viewBox="0 0 250 250" width="250px" x="0px" xml:space="preserve" xmlns="http://www.w3.org/2000/svg" xmlns:xlink="http://www.w3.org/1999/xlink" y="0px"><defs><symbol id="a3f777bfa" overflow="visible"><path d="M40.656-124.64l25.703-10.75h4.188v53.593c5.781-5.32 11.656-7.984 17.625-7.984 8.187 0 15.21 4.508 21.078 13.515 5.875 9.012 8.813 19.93 8.813 32.75 0 12.575-2.985 23.418-8.954 32.532C103.15-1.88 95.914 2.672 87.406 2.672c-6.281 0-11.902-2.797-16.86-8.39v26.952c0 6.344.364 10.383 1.095 12.125.738 1.75 2.054 2.989 3.953 3.72 1.906.737 5.906 1.108 12 1.108v3.516H40.656v-3.516c6.344 0 10.453-.906 12.328-2.718 1.875-1.813 2.813-6.559 2.813-14.235V-5.719c-4.762 5.594-10.352 8.39-16.766 8.39-8.824 0-16.156-4.566-22-13.702-5.836-9.145-8.75-20.29-8.75-33.438 0-11.863 2.79-22.379 8.375-31.547C22.25-85.19 29.551-89.78 38.563-89.78c6.664 0 12.41 3.047 17.234 9.14v-23.625c0-8.125-.512-13.296-1.531-15.515-1.012-2.219-2.79-3.328-5.328-3.328-2.094 0-4.383.539-6.86 1.609zm15.14 52.468c-3.554-7.488-8.124-11.234-13.718-11.234-5.398 0-9.601 3.543-12.61 10.625-3.011 7.074-4.515 17.59-4.515 31.547 0 12.324 1.504 21.64 4.516 27.953 3.008 6.312 7.21 9.469 12.61 9.469 4.956 0 9.53-2.883 13.718-8.657zm14.75 58.078c1.27 3.305 3.27 5.844 6 7.625 2.727 1.774 5.333 2.657 7.813 2.657 4.883 0 8.899-3.079 12.047-9.235 3.145-6.156 4.719-15.77 4.719-28.844 0-27.675-5.496-41.515-16.484-41.515-4.625 0-9.325 2.57-14.094 7.703zm0 0"/></symbol></defs><use x="61.982" xlink:href="#a3f777bfa" y="169"/></svg>