<?xml version="1.0" encoding="UTF-8"?><svg enable-background="new 0 0 250 250" height="250px" viewBox="0 0 250 250" width="250px" x="0px" xml:space="preserve" xmlns="http://www.w3.org/2000/svg" xmlns:xlink="http://www.w3.org/1999/xlink" y="0px"><defs><symbol id="2c11af63a" overflow="visible"><path d="M61.406-46.078c15.938 3.293 23.907 10.75 23.907 22.375 0 7.93-3.32 13.86-9.954 17.797C68.723-1.97 59.473 0 47.61 0H4.58v-3.516c5.644 0 9.21-1.062 10.702-3.187 1.489-2.133 2.235-6.723 2.235-13.766V-66.75c0-6.852-.336-10.879-1-12.078-.668-1.207-1.715-2.3-3.141-3.281-1.43-.989-4.36-1.485-8.797-1.485v-3.625H44.75c7.75 0 14.02.606 18.813 1.813 4.789 1.21 8.722 3.59 11.796 7.14 3.082 3.555 4.625 7.871 4.625 12.954 0 9.898-6.195 16.308-18.578 19.234zm-28.078-2.203c2.79.074 4.473.11 5.047.11 8.695 0 14.977-1.665 18.844-5 3.875-3.333 5.812-7.38 5.812-12.142 0-5.519-1.968-9.519-5.906-12-3.938-2.476-10.219-3.718-18.844-3.718h-4.953zm0 40.562c3.176 1.024 6.953 1.532 11.328 1.532 7.551 0 13.164-1.649 16.844-4.954 3.688-3.3 5.531-7.554 5.531-12.765 0-5.832-2.383-10.301-7.14-13.407-4.762-3.113-11.368-4.671-19.813-4.671-2.094 0-4.344.062-6.75.187zm0 0"/></symbol></defs><use x="79.078" xlink:href="#2c11af63a" y="169"/></svg>