<?xml version="1.0" encoding="UTF-8"?><svg enable-background="new 0 0 250 250" height="250px" viewBox="0 0 250 250" width="250px" x="0px" xml:space="preserve" xmlns="http://www.w3.org/2000/svg" xmlns:xlink="http://www.w3.org/1999/xlink" y="0px"><defs><symbol id="25207815a" overflow="visible"><path d="M64.75-48.078V-66.75c0-6.031-.305-9.914-.906-11.656-.606-1.75-1.844-3.051-3.719-3.906-1.875-.852-4.715-1.282-8.516-1.282v-3.625h42.172v3.625c-4.312 0-7.183.43-8.61 1.281-1.429.856-2.558 1.918-3.39 3.188-.824 1.273-1.234 5.398-1.234 12.375v46.281c0 6.032.3 9.922.906 11.672.602 1.742 1.844 3.059 3.719 3.953 1.875.887 4.742 1.328 8.61 1.328V0H49.515v-3.516c5.07-.195 8.382-.53 9.937-1 1.563-.476 2.832-1.703 3.813-3.671.988-1.97 1.484-6.063 1.484-12.282v-21.328c-9.336 4.762-19.172 7.14-29.516 7.14-5.656 0-10.043-.71-13.156-2.14-3.105-1.426-5.07-3.078-5.89-4.953-.825-1.875-1.235-4.906-1.235-9.094V-66.75c0-5.645-.258-9.352-.765-11.125-.512-1.781-1.657-3.176-3.438-4.188-1.773-1.019-4.402-1.53-7.89-1.53v-3.626h41.03v3.625c-4.25 0-7.105.43-8.562 1.281-1.46.856-2.605 1.918-3.437 3.188-.825 1.273-1.235 5.398-1.235 12.375v10.766c0 4.187.301 7.011.907 8.468.601 1.461 2 2.684 4.187 3.672 2.188.98 5.281 1.469 9.281 1.469 6.926 0 13.5-1.898 19.719-5.703zm0 0"/></symbol></defs><use x="76.086" xlink:href="#25207815a" y="169"/></svg>