<?xml version="1.0" encoding="UTF-8"?><svg enable-background="new 0 0 250 250" height="250px" viewBox="0 0 250 250" width="250px" x="0px" xml:space="preserve" xmlns="http://www.w3.org/2000/svg" xmlns:xlink="http://www.w3.org/1999/xlink" y="0px"><defs><symbol id="7428be2ba" overflow="visible"><path d="M33.328-48.375l10.86-.188c25.894 0 38.843 8 38.843 24 0 7.43-3.164 13.383-9.484 17.86C67.234-2.234 58.145 0 46.28 0H4.375v-3.516c5.656 0 9.273-1.03 10.86-3.093 1.581-2.07 2.374-6.692 2.374-13.86V-66.75c0-6.79-.351-10.8-1.047-12.031-.699-1.239-1.777-2.348-3.234-3.328-1.46-.989-4.445-1.485-8.953-1.485v-3.625h45.61v3.625c-6.282 0-10.153.367-11.61 1.094-1.46.73-2.668 1.684-3.625 2.86-.95 1.167-1.422 5.464-1.422 12.89zm0 40.86a39.438 39.438 0 0 0 10.094 1.327c6.344 0 11.5-1.68 15.469-5.046 3.968-3.364 5.953-7.618 5.953-12.766 0-12.188-8.477-18.281-25.422-18.281-1.461 0-3.492.031-6.094.093zm0 0"/></symbol></defs><use x="80.645" xlink:href="#7428be2ba" y="169"/></svg>