<?xml version="1.0" encoding="UTF-8"?><svg enable-background="new 0 0 250 250" height="250px" viewBox="0 0 250 250" width="250px" x="0px" xml:space="preserve" xmlns="http://www.w3.org/2000/svg" xmlns:xlink="http://www.w3.org/1999/xlink" y="0px"><defs><symbol id="22878159a" overflow="visible"><path d="M93.594 0H67.89c-8-11.613-15.243-23.516-21.72-35.703-1.523-2.79-2.901-4.867-4.14-6.234-1.23-1.364-2.93-2.047-5.093-2.047-.762 0-1.965.062-3.61.187v23.328c0 6.282.363 10.297 1.094 12.047.726 1.742 2.047 2.996 3.953 3.766 1.906.761 5.11 1.14 9.61 1.14V0H4.374v-3.516c5.656 0 9.273-1.03 10.86-3.093 1.581-2.07 2.374-6.692 2.374-13.86V-66.75c0-6.79-.351-10.8-1.047-12.031-.699-1.239-1.777-2.348-3.234-3.328-1.46-.989-4.445-1.485-8.953-1.485v-3.625h43.61v3.625c-5.274 0-8.528.383-9.766 1.14-1.23.763-2.356 1.7-3.375 2.813-1.012 1.106-1.516 5.403-1.516 12.891v17.14c1.457.126 2.442.188 2.953.188 3.864 0 7.492-1.094 10.89-3.281 3.395-2.188 6.427-6.836 9.095-13.953 2.476-6.727 4.523-11.266 6.14-13.61 1.625-2.351 3.88-4.273 6.766-5.765 2.883-1.489 5.914-2.235 9.094-2.235 3.425 0 6.156.829 8.187 2.485 2.031 1.648 3.047 3.804 3.047 6.469 0 2.218-.73 4.109-2.188 5.671-1.46 1.555-3.492 2.329-6.093 2.329-1.399 0-3.14-.38-5.235-1.141-2.668-.957-4.699-1.438-6.093-1.438-2.918 0-5.329 2.512-7.235 7.532-2.156 5.773-3.746 9.5-4.765 11.187-1.012 1.68-2.95 3.914-5.813 6.703 1.969.574 4.11 2.04 6.422 4.39 2.32 2.345 6.625 9.04 12.906 20.079 5.02 8.824 8.781 14.414 11.281 16.766 2.508 2.343 6.145 3.586 10.907 3.718zm0 0"/></symbol></defs><use x="77.748" xlink:href="#22878159a" y="169"/></svg>