<?xml version="1.0" encoding="UTF-8"?><svg enable-background="new 0 0 250 250" height="250px" viewBox="0 0 250 250" width="250px" x="0px" xml:space="preserve" xmlns="http://www.w3.org/2000/svg" xmlns:xlink="http://www.w3.org/1999/xlink" y="0px"><defs><symbol id="da538652a" overflow="visible"><path d="M4.86-87.219h56.843v3.625c-6.418 0-10.277.352-11.578 1.047-1.305.7-2.48 1.621-3.531 2.766-1.043 1.136-1.563 5.48-1.563 13.031v17.625h8.297c10.406 0 18.43.86 24.078 2.578 5.656 1.711 9.989 4.5 13 8.375 3.008 3.867 4.516 8.434 4.516 13.703 0 7.305-3 13.211-9 17.719C79.93-2.25 70.016 0 56.172 0H16.094v-3.516c5.207 0 8.695-.968 10.468-2.906 1.782-1.937 2.672-6.617 2.672-14.047V-81.03c-7.617 0-13.058 1.101-16.328 3.297-3.273 2.187-5.765 6.93-7.484 14.218H1.14zM45.03-7.422c3.5.824 6.895 1.234 10.188 1.234 7.426 0 12.867-1.82 16.328-5.468 3.469-3.656 5.203-7.832 5.203-12.531 0-5.27-1.906-9.711-5.719-13.329-3.812-3.613-9.18-5.422-16.094-5.422-2.03 0-5.335.188-9.906.563zm0 0"/></symbol></defs><use x="74.709" xlink:href="#da538652a" y="169"/></svg>