<?xml version="1.0" encoding="UTF-8"?><svg enable-background="new 0 0 250 250" height="250px" viewBox="0 0 250 250" width="250px" x="0px" xml:space="preserve" xmlns="http://www.w3.org/2000/svg" xmlns:xlink="http://www.w3.org/1999/xlink" y="0px"><defs><symbol id="207a4caea" overflow="visible"><path d="M20.75-54.375c-.063 12.96 3.082 23.117 9.438 30.469 6.343 7.367 13.8 11.047 22.375 11.047 5.707 0 10.671-1.567 14.89-4.704 4.227-3.144 7.77-8.523 10.625-16.14l2.953 1.906c-1.336 8.7-5.21 16.621-11.625 23.766C63-.895 54.973 2.672 45.328 2.672c-10.48 0-19.45-4.078-26.906-12.235C10.96-17.718 7.234-28.686 7.234-42.468c0-14.914 3.82-26.547 11.47-34.89 7.655-8.352 17.257-12.532 28.812-12.532 9.77 0 17.797 3.227 24.078 9.672 6.289 6.45 9.437 15.063 9.437 25.844zm0-5.516h40.375c-.313-5.582-.98-9.52-2-11.812-1.586-3.55-3.95-6.344-7.094-8.375-3.136-2.031-6.418-3.047-9.843-3.047-5.274 0-9.993 2.047-14.157 6.14-4.156 4.094-6.586 9.794-7.281 17.094zm0 0"/></symbol></defs><use x="81.832" xlink:href="#207a4caea" y="169"/></svg>