<?xml version="1.0" encoding="UTF-8"?><svg enable-background="new 0 0 250 250" height="250px" viewBox="0 0 250 250" width="250px" x="0px" xml:space="preserve" xmlns="http://www.w3.org/2000/svg" xmlns:xlink="http://www.w3.org/1999/xlink" y="0px"><defs><symbol id="ec75733ca" overflow="visible"><path d="M82.734-83.594v-3.625h43.907v3.625c-3.875 0-6.704.414-8.485 1.235-1.773.824-2.992 2.093-3.656 3.812-.668 1.711-1 5.64-1 11.797v46.281c0 5.969.281 9.828.844 11.578.57 1.743 1.797 3.075 3.672 4 1.875.918 4.75 1.375 8.625 1.375V0H82.734v-3.516c4.957-.195 8.18-.53 9.672-1 1.489-.476 2.739-1.703 3.75-3.671 1.02-1.97 1.531-6.063 1.531-12.282V-66.75c0-6.156-.351-10.117-1.046-11.89-.7-1.782-1.922-3.036-3.672-3.766-1.742-.727-5.153-1.125-10.235-1.188zm-49.5 35.219l10.844-.188c25.906 0 38.86 8 38.86 24 0 7.43-3.165 13.383-9.485 17.86C67.141-2.234 58.047 0 46.172 0H4.282v-3.516c5.655 0 9.273-1.03 10.859-3.093 1.582-2.07 2.375-6.692 2.375-13.86V-66.75c0-6.79-.352-10.8-1.047-12.031-.7-1.239-1.778-2.348-3.235-3.328-1.46-.989-4.445-1.485-8.953-1.485v-3.625h45.61v3.625c-6.282 0-10.153.367-11.61 1.094-1.46.73-2.668 1.684-3.625 2.86-.949 1.167-1.422 5.464-1.422 12.89zm0 40.86a39.438 39.438 0 0 0 10.094 1.327c6.344 0 11.5-1.68 15.469-5.046C62.766-14.598 64.75-18.852 64.75-24c0-12.188-8.477-18.281-25.422-18.281-1.46 0-3.492.031-6.094.093zm0 0"/></symbol></defs><use x="59.655" xlink:href="#ec75733ca" y="169"/></svg>