<?xml version="1.0" encoding="UTF-8"?><svg enable-background="new 0 0 250 250" height="250px" viewBox="0 0 250 250" width="250px" x="0px" xml:space="preserve" xmlns="http://www.w3.org/2000/svg" xmlns:xlink="http://www.w3.org/1999/xlink" y="0px"><defs><symbol id="faffb6f6a" overflow="visible"><path d="M99.969-3.516v27.703h-3.516c-.187-7.43-2.617-13.32-7.281-17.671C84.504 2.172 76.047 0 63.797 0H4.375v-3.516c5.656 0 9.273-1.03 10.86-3.093 1.581-2.07 2.374-6.692 2.374-13.86V-66.75c0-6.79-.351-10.8-1.047-12.031-.699-1.239-1.777-2.348-3.234-3.328-1.46-.989-4.445-1.485-8.953-1.485v-3.625h42.188v3.625c-4.25 0-7.11.43-8.579 1.281-1.46.856-2.601 1.918-3.422 3.188-.824 1.273-1.234 5.398-1.234 12.375v49.234c0 5.524.488 8.793 1.469 9.813.988 1.012 4.148 1.516 9.484 1.516h15.422c5.906 0 9.27-.536 10.094-1.61.82-1.082 1.234-4.578 1.234-10.484V-66.75c0-6.031-.32-9.914-.953-11.656-.637-1.75-1.875-3.051-3.719-3.906-1.836-.852-4.687-1.282-8.562-1.282v-3.625h42.172v3.625c-4.25 0-7.106.43-8.563 1.281-1.46.856-2.605 1.918-3.437 3.188-.824 1.273-1.235 5.398-1.235 12.375v44.844c0 8.199.727 13.25 2.188 15.156 1.469 1.898 5.148 2.977 11.047 3.234zm0 0"/></symbol></defs><use x="72.952" xlink:href="#faffb6f6a" y="169"/></svg>