<?xml version="1.0" encoding="UTF-8"?><svg enable-background="new 0 0 250 250" height="250px" viewBox="0 0 250 250" width="250px" x="0px" xml:space="preserve" xmlns="http://www.w3.org/2000/svg" xmlns:xlink="http://www.w3.org/1999/xlink" y="0px"><defs><symbol id="5934748da" overflow="visible"><path d="M45.89 0v-3.516c5.907-.57 9.65-2.144 11.235-4.718 1.594-2.57 2.39-7.829 2.39-15.766v-19.797c-4.199 0-6.98.48-8.343 1.438-1.367.949-3.664 4.53-6.89 10.75L27.89 0H2.188v-3.516C6.633-3.836 10-5.094 12.28-7.28c2.281-2.188 5.36-7.188 9.235-15 5.906-11.864 10.222-19.051 12.953-21.563 2.726-2.508 5.68-3.89 8.86-4.14-3.876-1.657-7.528-6.864-10.954-15.625-1.656-4.125-2.96-6.836-3.906-8.141-.95-1.3-2.25-1.953-3.907-1.953-1.273 0-2.89.387-4.859 1.156-2.855 1.137-5.074 1.703-6.656 1.703-2.543 0-4.543-.851-6-2.562-1.461-1.719-2.188-3.781-2.188-6.188 0-2.8 1.11-4.945 3.329-6.437 2.218-1.489 4.82-2.235 7.812-2.235 5.195 0 9.367 1.543 12.516 4.625 3.144 3.075 6.144 8.579 9 16.516 2.726 7.555 5.804 12.477 9.234 14.766 3.426 2.28 7.68 3.422 12.766 3.422V-63.22c0-8.187-.844-13.484-2.532-15.89-1.68-2.414-5.375-3.91-11.093-4.485v-3.625h43.047v3.625c-5.782.637-9.5 2.164-11.157 4.578-1.648 2.407-2.469 7.672-2.469 15.797v14.282c5.02 0 9.243-1.141 12.672-3.422 3.426-2.29 6.504-7.211 9.235-14.766 3.426-9.781 6.992-15.75 10.703-17.906 3.719-2.156 7.258-3.235 10.625-3.235 3.738 0 6.578.86 8.516 2.579 1.937 1.71 2.906 3.742 2.906 6.093 0 2.406-.73 4.469-2.188 6.188-1.46 1.71-3.46 2.562-6 2.562-1.586 0-3.808-.566-6.672-1.703-1.968-.77-3.492-1.156-4.562-1.156-1.844 0-3.246.652-4.203 1.953-.95 1.305-2.246 4.016-3.89 8.14-3.43 8.762-7.079 13.97-10.954 15.626 3.3.25 6.316 1.71 9.047 4.375 2.726 2.668 6.914 9.683 12.562 21.047 4 8 7.141 13.093 9.422 15.28 2.29 2.188 5.66 3.446 10.11 3.766V0h-25.72L90.548-31.61c-3.242-6.218-5.543-9.8-6.906-10.75-1.368-.956-4.141-1.437-8.329-1.437V-24c0 9.086.938 14.594 2.813 16.531C80-5.539 83.602-4.223 88.938-3.516V0zm0 0"/></symbol></defs><use x="57.803" xlink:href="#5934748da" y="169"/></svg>