<?xml version="1.0" encoding="UTF-8"?><svg enable-background="new 0 0 250 250" height="250px" viewBox="0 0 250 250" width="250px" x="0px" xml:space="preserve" xmlns="http://www.w3.org/2000/svg" xmlns:xlink="http://www.w3.org/1999/xlink" y="0px"><defs><symbol id="cd1917f5a" overflow="visible"><path d="M71.031-81.031H33.328v60.562c0 6.73.348 10.746 1.047 12.047.695 1.305 1.79 2.45 3.281 3.438 1.489.98 4.457 1.468 8.907 1.468V0H4.374v-3.516c5.656 0 9.273-1.03 10.86-3.093 1.581-2.07 2.374-6.692 2.374-13.86V-66.75c0-6.79-.351-10.8-1.047-12.031-.699-1.239-1.777-2.348-3.234-3.328-1.46-.989-4.445-1.485-8.953-1.485v-3.625h95.594v3.625c-4.25 0-7.106.43-8.563 1.281-1.46.856-2.605 1.918-3.437 3.188-.824 1.273-1.235 5.398-1.235 12.375v46.281c0 6.73.348 10.746 1.047 12.047.696 1.305 1.79 2.45 3.281 3.438 1.5.98 4.47 1.468 8.907 1.468V0H57.797v-3.516c5.27 0 8.789-.968 10.562-2.906 1.782-1.937 2.672-6.617 2.672-14.047zm0 0"/></symbol></defs><use x="72.952" xlink:href="#cd1917f5a" y="169"/></svg>