<?xml version="1.0" encoding="UTF-8"?><svg enable-background="new 0 0 250 250" height="250px" viewBox="0 0 250 250" width="250px" x="0px" xml:space="preserve" xmlns="http://www.w3.org/2000/svg" xmlns:xlink="http://www.w3.org/1999/xlink" y="0px"><defs><symbol id="352a6f0da" overflow="visible"><path d="M15.047-87.219H93.03v3.625c-4.324 0-7.199.43-8.625 1.281-1.43.856-2.554 1.918-3.375 3.188-.824 1.273-1.234 5.398-1.234 12.375v46.281c0 6.73.348 10.746 1.047 12.047.695 1.305 1.789 2.45 3.281 3.438 1.488.98 4.457 1.468 8.906 1.468V0h-45.14v-3.516c4.882 0 8.265-.254 10.14-.765 1.875-.508 3.348-1.735 4.422-3.672 1.082-1.938 1.625-6.11 1.625-12.516V-81.03H35.047v36.75c0 13.906-.621 23.672-1.86 29.297-1.242 5.617-3.687 9.773-7.343 12.468-3.649 2.696-7.82 4.047-12.516 4.047-8.125 0-12.187-3.363-12.187-10.094 0-2.289.648-4.164 1.953-5.624 1.3-1.458 3-2.188 5.094-2.188 2.218 0 4.28.922 6.187 2.766C16.852-11.203 18.727-10 20-10c2.852 0 4.93-2.395 6.234-7.188 1.301-4.789 1.953-13.187 1.953-25.187v-19.234c0-9.895-.714-15.922-2.14-18.078-1.43-2.165-5.094-3.47-11-3.907zm0 0"/></symbol></defs><use x="76.466" xlink:href="#352a6f0da" y="169"/></svg>