<?xml version="1.0" encoding="UTF-8"?><svg enable-background="new 0 0 250 250" height="250px" viewBox="0 0 250 250" width="250px" x="0px" xml:space="preserve" xmlns="http://www.w3.org/2000/svg" xmlns:xlink="http://www.w3.org/1999/xlink" y="0px"><defs><symbol id="b2df1727a" overflow="visible"><path d="M8-59.89V-87.22h4c1.145 1.024 2.414 1.531 3.813 1.531 1.07 0 3.421-.507 7.046-1.53 6.02-1.708 10.938-2.563 14.75-2.563 8.375 0 15.368 1.937 20.985 5.812 5.625 3.867 8.437 9 8.437 15.406 0 9.844-7.46 16.993-22.375 21.438C62.051-43.508 70.75-35.352 70.75-22.656c0 6.668-2.797 12.558-8.39 17.672C56.772.117 48.647 2.672 37.983 2.672c-6.98 0-13.12-1.258-18.422-3.766C14.258-3.602 8.5-7.844 2.282-13.813l2.484-2.468C15.172-8.22 25.039-4.188 34.375-4.188c5.332 0 9.71-1.804 13.14-5.421 3.426-3.625 5.141-8.32 5.141-14.094 0-12.633-8.156-19.332-24.468-20.094v-5.531c7.675 0 13.242-2.047 16.703-6.14 3.457-4.094 5.187-8.489 5.187-13.188 0-4.125-1.476-7.739-4.422-10.844-2.949-3.113-6.87-4.672-11.765-4.672-11.293 0-18.782 8.094-22.47 24.281zm0 0"/></symbol></defs><use x="86.581" xlink:href="#b2df1727a" y="169"/></svg>