<?xml version="1.0" encoding="UTF-8"?><svg enable-background="new 0 0 250 250" height="250px" viewBox="0 0 250 250" width="250px" x="0px" xml:space="preserve" xmlns="http://www.w3.org/2000/svg" xmlns:xlink="http://www.w3.org/1999/xlink" y="0px"><defs><symbol id="1e61bb33a" overflow="visible"><path d="M62.469-22.75l27.218-64.469h29.422v3.625c-4.312 0-7.183.43-8.609 1.281-1.43.856-2.559 1.918-3.39 3.188-.825 1.273-1.235 5.398-1.235 12.375v46.281c0 6.032.3 9.922.906 11.672.602 1.742 1.844 3.059 3.719 3.953 1.875.887 4.742 1.328 8.61 1.328V0H76.937v-3.516c5.195 0 8.687-.968 10.468-2.906 1.781-1.937 2.672-6.617 2.672-14.047v-52.468L59.218 0h-3.327L24.469-72.938v52.47c0 6.03.316 9.921.953 11.671.633 1.742 1.867 3.059 3.703 3.953 1.844.887 4.703 1.328 8.578 1.328V0H4.375v-3.516c5.656 0 9.273-1.03 10.86-3.093 1.581-2.07 2.374-6.692 2.374-13.86V-66.75c0-6.79-.351-10.8-1.047-12.031-.699-1.239-1.777-2.348-3.234-3.328-1.46-.989-4.445-1.485-8.953-1.485v-3.625h30.672zm0 0"/></symbol></defs><use x="63.454" xlink:href="#1e61bb33a" y="169"/></svg>