<?xml version="1.0" encoding="UTF-8"?><svg enable-background="new 0 0 250 250" height="250px" viewBox="0 0 250 250" width="250px" x="0px" xml:space="preserve" xmlns="http://www.w3.org/2000/svg" xmlns:xlink="http://www.w3.org/1999/xlink" y="0px"><defs><symbol id="2321f663a" overflow="visible"><path d="M75.219-87.219l3.531 23.813h-4.203c-2.406-7.875-4.836-12.782-7.281-14.719-2.438-1.938-7.594-2.906-15.47-2.906H33.329v60.562c0 6.73.348 10.746 1.047 12.047.695 1.305 1.79 2.45 3.281 3.438 1.489.98 4.457 1.468 8.907 1.468V0H2.953v-3.516c6.219-.132 10.211-1.101 11.985-2.906 1.78-1.812 2.671-6.492 2.671-14.047V-66.75c0-6.156-.351-10.102-1.047-11.844-.699-1.75-1.921-3.004-3.671-3.765-1.743-.758-5.055-1.172-9.938-1.235v-3.625zm0 0"/></symbol></defs><use x="85.109" xlink:href="#2321f663a" y="169"/></svg>