<?xml version="1.0" encoding="UTF-8"?><svg enable-background="new 0 0 250 250" height="250px" viewBox="0 0 250 250" width="250px" x="0px" xml:space="preserve" xmlns="http://www.w3.org/2000/svg" xmlns:xlink="http://www.w3.org/1999/xlink" y="0px"><defs><symbol id="d6c7fa5ba" overflow="visible"><path d="M54.844-42.188h-21.61v21.72c0 6.53.317 10.484.953 11.859.633 1.367 1.711 2.558 3.235 3.578 1.52 1.011 4.535 1.515 9.047 1.515V0H4.28v-3.516c4.383-.195 7.242-.53 8.578-1 1.332-.476 2.442-1.703 3.329-3.671.882-1.97 1.328-6.063 1.328-12.282V-66.75c0-7.613-.762-12.305-2.282-14.078-1.523-1.781-5.171-2.703-10.953-2.766v-3.625H46.47v3.625c-4.387 0-7.34.477-8.86 1.422-1.523.95-2.632 2.11-3.328 3.484-.699 1.368-1.047 5.344-1.047 11.938v18.375h21.891c1.656-12.25 6.336-22.21 14.047-29.89 7.719-7.676 17.004-11.516 27.86-11.516 12.374 0 22.46 4.445 30.265 13.328 7.812 8.887 11.719 19.293 11.719 31.219 0 7.875-1.922 15.875-5.766 24-3.836 8.125-9.07 14.14-15.703 18.047-6.637 3.906-13.86 5.859-21.672 5.859-11.992 0-21.75-4.41-29.281-13.235-7.524-8.82-11.438-19.363-11.75-31.624zm39.14-41.406c-6.23 0-11.359 2.684-15.39 8.047-4.031 5.367-6.047 13.664-6.047 24.89 0 12.7 2.52 23.637 7.562 32.813 5.051 9.168 11.707 13.75 19.97 13.75 14.081 0 21.124-11.265 21.124-33.797 0-13.207-2.476-24.125-7.422-32.75-4.949-8.632-11.547-12.953-19.797-12.953zm0 0"/></symbol></defs><use x="52.342" xlink:href="#d6c7fa5ba" y="169"/></svg>