<?xml version="1.0" encoding="UTF-8"?><svg enable-background="new 0 0 250 250" height="250px" viewBox="0 0 250 250" width="250px" x="0px" xml:space="preserve" xmlns="http://www.w3.org/2000/svg" xmlns:xlink="http://www.w3.org/1999/xlink" y="0px"><defs><symbol id="f0a2b33ba" overflow="visible"><path d="M20.953-122.156c0-2.227.613-4.024 1.844-5.39 1.238-1.364 2.812-2.048 4.719-2.048 4.187 0 7.898 3.938 11.14 11.813 1.844 4.449 3.953 7.23 6.328 8.344 2.383 1.105 4.72 1.656 7 1.656 4 0 7.016-.852 9.047-2.563 2.032-1.719 3.938-4.8 5.719-9.25 2.664-6.601 5.93-9.906 9.797-9.906 1.906 0 3.523.688 4.86 2.063 1.331 1.367 2 3.062 2 5.093 0 4.887-3.212 9.422-9.626 13.61-6.406 4.187-13.61 6.28-21.61 6.28-10.468 0-18.292-1.898-23.468-5.702-5.168-3.813-7.75-8.477-7.75-14zm12.375 95.312l37.703-43.61c-.125-4.894-1.047-8.288-2.765-10.187-1.711-1.906-4.657-2.89-8.844-2.953v-3.625h40.547v3.625c-4.25 0-7.106.43-8.563 1.281-1.46.856-2.605 1.918-3.437 3.188-.824 1.273-1.235 5.398-1.235 12.375v46.281c0 6.73.348 10.746 1.047 12.047.696 1.305 1.79 2.45 3.281 3.438 1.5.98 4.47 1.468 8.907 1.468V0H57.797v-3.516c5.27 0 8.789-.968 10.562-2.906 1.782-1.937 2.672-6.617 2.672-14.047v-41.047L33.328-17.813c.125 5.399.883 9.11 2.281 11.141 1.395 2.031 4.41 3.086 9.047 3.156V0H4.375v-3.516c5.656 0 9.273-1.03 10.86-3.093 1.581-2.07 2.374-6.692 2.374-13.86V-66.75c0-6.79-.351-10.8-1.047-12.031-.699-1.239-1.777-2.348-3.234-3.328-1.46-.989-4.445-1.485-8.953-1.485v-3.625h42.188v3.625c-4.25 0-7.11.43-8.579 1.281-1.46.856-2.601 1.918-3.422 3.188-.824 1.273-1.234 5.398-1.234 12.375zm0 0"/></symbol></defs><use x="72.952" xlink:href="#f0a2b33ba" y="169"/></svg>