<?xml version="1.0" encoding="UTF-8"?><svg enable-background="new 0 0 250 250" height="250px" viewBox="0 0 250 250" width="250px" x="0px" xml:space="preserve" xmlns="http://www.w3.org/2000/svg" xmlns:xlink="http://www.w3.org/1999/xlink" y="0px"><defs><symbol id="3a7e969fa" overflow="visible"><path d="M110.781-43.594c0-11.195-2.164-19.566-6.484-25.11-4.324-5.55-10.313-8.327-17.969-8.327-7.969 0-14.055 2.906-18.25 8.719-4.187 5.804-6.281 14.042-6.281 24.718 0 11.043 2.187 19.367 6.562 24.969 4.375 5.594 10.364 8.39 17.97 8.39 7.6 0 13.577-2.769 17.921-8.312 4.352-5.55 6.531-13.898 6.531-25.047zM47.266-39.53H29.14V0H14.453v-87.266h14.688v35.391h18.515c1.301-12.031 5.504-21.336 12.61-27.922 7.113-6.594 15.851-9.89 26.218-9.89 12.032 0 21.614 4.117 28.75 12.343 7.133 8.23 10.704 19.48 10.704 33.75 0 14.117-3.516 25.313-10.547 33.594-7.032 8.281-16.668 12.422-28.907 12.422-11.562 0-20.824-3.75-27.78-11.25-6.95-7.5-10.763-17.735-11.438-30.703zm0 0"/></symbol></defs><use x="58.095" xlink:href="#3a7e969fa" y="169"/></svg>