<?xml version="1.0" encoding="UTF-8"?><svg enable-background="new 0 0 250 250" height="250px" viewBox="0 0 250 250" width="250px" x="0px" xml:space="preserve" xmlns="http://www.w3.org/2000/svg" xmlns:xlink="http://www.w3.org/1999/xlink" y="0px"><defs><symbol id="ebd34f5aa" overflow="visible"><path d="M67.266-78.516c3.8 3.649 6.742 8.204 8.828 13.672 2.082 5.469 3.125 11.953 3.125 19.453 0 14.48-4.055 25.993-12.156 34.532C58.968-2.316 48.148 1.953 34.608 1.953c-5.312 0-10.46-.625-15.437-1.875-4.969-1.25-9.2-2.578-12.688-3.984V-20H7.5c3.125 2.45 7.266 4.625 12.422 6.531 5.156 1.899 10.57 2.844 16.25 2.844 8.176 0 14.816-2.5 19.922-7.5 5.101-5 7.968-12.344 8.593-22.031H20.626v-11.797h43.984c-1.043-8.227-4.039-14.41-8.984-18.547-4.95-4.145-11.121-6.219-18.516-6.219-4.742 0-9.453.797-14.14 2.39-4.688 1.587-9.297 4.122-13.828 7.61H8.125v-16.094c3.281-1.3 7.445-2.707 12.5-4.218a54.326 54.326 0 0 1 15.625-2.266c6.457 0 12.29.887 17.5 2.656 5.207 1.774 9.71 4.48 13.516 8.125zm0 0"/></symbol></defs><use x="81.383" xlink:href="#ebd34f5aa" y="169"/></svg>