<?xml version="1.0" encoding="UTF-8"?><svg enable-background="new 0 0 250 250" height="250px" viewBox="0 0 250 250" width="250px" x="0px" xml:space="preserve" xmlns="http://www.w3.org/2000/svg" xmlns:xlink="http://www.w3.org/1999/xlink" y="0px"><defs><symbol id="c92bc273a" overflow="visible"><path d="M87.5-42.11H23.203c0 5.368.805 10.044 2.422 14.032 1.613 3.98 3.828 7.246 6.64 9.797 2.708 2.5 5.922 4.375 9.641 5.625 3.727 1.25 7.832 1.875 12.313 1.875 5.937 0 11.91-1.18 17.922-3.547 6.02-2.375 10.304-4.707 12.859-7h.781v16.015c-4.949 2.086-10 3.829-15.156 5.235-5.156 1.406-10.574 2.11-16.25 2.11-14.48 0-25.781-3.915-33.906-11.75C12.344-17.564 8.28-28.696 8.28-43.126c0-14.27 3.89-25.598 11.672-33.984 7.79-8.383 18.04-12.579 30.75-12.579 11.77 0 20.844 3.438 27.219 10.313C84.305-72.5 87.5-62.735 87.5-50.078zM73.203-53.36c-.055-7.706-1.996-13.671-5.828-17.89-3.824-4.219-9.64-6.328-17.453-6.328-7.867 0-14.133 2.32-18.797 6.953-4.656 4.637-7.297 10.39-7.922 17.266zm0 0"/></symbol></defs><use x="77.489" xlink:href="#c92bc273a" y="169"/></svg>