<?xml version="1.0" encoding="UTF-8"?><svg enable-background="new 0 0 250 250" height="250px" viewBox="0 0 250 250" width="250px" x="0px" xml:space="preserve" xmlns="http://www.w3.org/2000/svg" xmlns:xlink="http://www.w3.org/1999/xlink" y="0px"><defs><symbol id="e3ef48d5a" overflow="visible"><path d="M78.594-74.375c3.644 3.648 6.406 8.063 8.281 13.25 1.875 5.18 2.813 11.258 2.813 18.234 0 13.024-3.907 23.828-11.72 32.422-7.812 8.594-17.421 12.89-28.827 12.89-5.625 0-10.809-.948-15.547-2.843-4.742-1.906-8.778-4.836-12.11-8.797-4.168-4.945-7.28-11.18-9.343-18.703-2.055-7.531-3.079-16.71-3.079-27.547 0-3.906.18-7.875.547-11.906.364-4.04 1.196-8.875 2.5-14.5a70.475 70.475 0 0 1 4.563-13.984c2.008-4.477 4.394-8.098 7.156-10.86 3.75-3.8 8.68-6.86 14.797-9.172 6.125-2.32 14.238-3.925 24.344-4.812 4.113-.363 7.941-.66 11.484-.89 3.54-.239 6.719-.462 9.531-.673v13.516l-10.203.625c-3.355.21-6.699.469-10.031.781-6.668.574-12.7 1.668-18.094 3.281-5.386 1.618-9.328 3.7-11.828 6.25-2.762 2.762-4.836 6.372-6.219 10.829-1.375 4.449-2.273 8.68-2.687 12.687 3.906-2.812 8.187-5.164 12.844-7.062 4.664-1.907 9.629-2.86 14.89-2.86 4.895 0 9.61.809 14.14 2.422 4.532 1.617 8.462 4.09 11.798 7.422zm-3.828 32.344c0-9.633-2.32-16.832-6.954-21.594-4.636-4.77-10.757-7.156-18.359-7.156-4.531 0-8.883.719-13.047 2.156a55.371 55.371 0 0 0-11.875 5.734c-.105 1.305-.199 2.828-.281 4.578-.074 1.743-.11 3.34-.11 4.797 0 9.063.755 16.407 2.266 22.032 1.508 5.625 3.645 10.105 6.407 13.437 2.394 2.813 5 4.809 7.812 5.985 2.813 1.167 5.832 1.75 9.063 1.75 7.863 0 14.007-2.836 18.437-8.516 4.426-5.676 6.64-13.41 6.64-23.203zm0 0"/></symbol></defs><use x="76.009" xlink:href="#e3ef48d5a" y="169"/></svg>