<?xml version="1.0" encoding="UTF-8"?><svg enable-background="new 0 0 250 250" height="250px" viewBox="0 0 250 250" width="250px" x="0px" xml:space="preserve" xmlns="http://www.w3.org/2000/svg" xmlns:xlink="http://www.w3.org/1999/xlink" y="0px"><defs><symbol id="d6775319a" overflow="visible"><path d="M93.203 0H73.984l-36.25-40h-7.968V0H15.078v-87.266h14.688v37.657c4.843 0 8.75-.868 11.718-2.61 2.97-1.75 5.493-4.55 7.578-8.406a80.605 80.605 0 0 0 2.141-4.484 280.781 280.781 0 0 1 2.078-4.579c2.707-5.882 6.094-10.285 10.157-13.203 4.062-2.914 9.894-4.375 17.5-4.375h6.718v12.657h-6.484c-4.117 0-7.336.875-9.656 2.625-2.313 1.742-4.407 4.796-6.282 9.171-2.086 4.899-4.289 8.56-6.609 10.985-2.313 2.418-4.773 4.25-7.375 5.5zm0 0"/></symbol></defs><use x="77.8" xlink:href="#d6775319a" y="169"/></svg>