<?xml version="1.0" encoding="UTF-8"?><svg enable-background="new 0 0 250 250" height="250px" viewBox="0 0 250 250" width="250px" x="0px" xml:space="preserve" xmlns="http://www.w3.org/2000/svg" xmlns:xlink="http://www.w3.org/1999/xlink" y="0px"><defs><symbol id="3facbe4da" overflow="visible"><path d="M75.156-24.453c0 4.898-1.136 9.039-3.406 12.422-2.262 3.386-5.164 6.12-8.703 8.203-3.543 2.031-7.45 3.515-11.719 4.453a59.625 59.625 0 0 1-12.812 1.406c-6.043 0-11.797-.574-17.266-1.719C15.781-.831 10.39-2.602 5.078-5v-16.094h1.016c3.8 3.336 8.644 5.914 14.531 7.735 5.883 1.824 11.586 2.734 17.11 2.734 2.6 0 5.285-.242 8.046-.734 2.758-.5 5.157-1.297 7.188-2.391 2.187-1.25 3.93-2.742 5.234-4.484 1.3-1.75 1.953-4.133 1.953-7.157 0-3.125-.64-5.625-1.922-7.5-1.273-1.875-3-3.28-5.187-4.218-2.137-.938-4.715-1.508-7.734-1.72-3.024-.206-5.782-.312-8.282-.312H24.297v-12.656h8.828c2.082 0 4.8-.078 8.156-.234 3.364-.157 6.086-.57 8.172-1.25 2.707-.883 4.852-2.133 6.438-3.75 1.593-1.614 2.39-4.192 2.39-7.735 0-2.445-.625-4.46-1.875-6.046-1.25-1.594-2.812-2.833-4.687-3.72-1.93-.882-4.078-1.484-6.453-1.796-2.368-.313-4.461-.469-6.282-.469-5.312 0-10.539.719-15.672 2.156-5.125 1.43-9.433 3.496-12.921 6.204H9.375V-84.61c4.32-1.407 8.957-2.551 13.906-3.438a84.326 84.326 0 0 1 14.844-1.328c4.063 0 8.11.367 12.14 1.094 4.04.73 7.805 1.98 11.297 3.75C65-82.758 67.813-80.348 70-77.297c2.188 3.043 3.281 6.805 3.281 11.281 0 4.586-1.422 8.61-4.265 12.079-2.836 3.46-6.649 5.945-11.438 7.453v.547c5.363 1.304 9.633 3.742 12.813 7.312 3.175 3.563 4.765 8.29 4.765 14.172zm0 0"/></symbol></defs><use x="83.175" xlink:href="#3facbe4da" y="169"/></svg>