<?xml version="1.0" encoding="UTF-8"?><svg enable-background="new 0 0 250 250" height="250px" viewBox="0 0 250 250" width="250px" x="0px" xml:space="preserve" xmlns="http://www.w3.org/2000/svg" xmlns:xlink="http://www.w3.org/1999/xlink" y="0px"><defs><symbol id="4e5f76d5a" overflow="visible"><path d="M80.156-26.797c0-2.656-.46-4.984-1.375-6.984-.906-2.008-2.402-3.64-4.484-4.89-2.188-1.302-4.68-2.083-7.469-2.345-2.781-.257-6.777-.39-11.984-.39h-13.75v29.687H54.53c5.207 0 9.242-.219 12.11-.656 2.863-.445 5.336-1.297 7.421-2.547 2.133-1.351 3.68-2.953 4.641-4.797.969-1.851 1.453-4.21 1.453-7.078zm15.156-.234c0 4.218-.851 8.047-2.546 11.484-1.688 3.438-3.993 6.227-6.907 8.36-3.437 2.605-7.109 4.453-11.015 5.546C70.938-.547 65.91 0 59.766 0h-33.36v-74.375H.781v-12.89h40.313v33.984h19.062c6.563 0 11.649.34 15.266 1.015 3.625.68 7.234 2.344 10.828 5 3.02 2.243 5.285 5.106 6.797 8.594 1.508 3.492 2.266 7.371 2.266 11.64zm0 0"/></symbol></defs><use x="73.906" xlink:href="#4e5f76d5a" y="169"/></svg>