<?xml version="1.0" encoding="UTF-8"?><svg enable-background="new 0 0 250 250" height="250px" viewBox="0 0 250 250" width="250px" x="0px" xml:space="preserve" xmlns="http://www.w3.org/2000/svg" xmlns:xlink="http://www.w3.org/1999/xlink" y="0px"><defs><symbol id="1da6dc5da" overflow="visible"><path d="M82.422 0H67.734v-33.516c-4.742 1.461-9.273 2.633-13.593 3.516-4.325.887-9.04 1.328-14.141 1.328-9.375 0-16.54-2.3-21.484-6.906-4.95-4.613-7.422-11.27-7.422-19.969v-31.719H25.78v24.22c0 3.335.207 6.32.625 8.952.414 2.625 1.301 4.903 2.657 6.828 1.351 1.875 3.253 3.309 5.703 4.297 2.445.992 5.859 1.485 10.234 1.485 3.594 0 7.5-.348 11.719-1.047 4.218-.707 7.89-1.532 11.015-2.469v-42.266h14.688zm0 0"/></symbol></defs><use x="76.71" xlink:href="#1da6dc5da" y="169"/></svg>