<?xml version="1.0" encoding="UTF-8"?><svg enable-background="new 0 0 250 250" height="250px" viewBox="0 0 250 250" width="250px" x="0px" xml:space="preserve" xmlns="http://www.w3.org/2000/svg" xmlns:xlink="http://www.w3.org/1999/xlink" y="0px"><defs><symbol id="47c8d5a6a" overflow="visible"><path d="M86.484-26.406c0 4.218-.851 7.968-2.546 11.25a23.283 23.283 0 0 1-6.985 8.203 33.378 33.378 0 0 1-10.906 5.312C62.117-.547 56.953 0 50.547 0H14.453v-87.266h33.75c6.508 0 11.414.227 14.719.672a28.255 28.255 0 0 1 9.344 2.922c3.28 1.719 5.687 3.961 7.218 6.719 1.54 2.762 2.313 6.016 2.313 9.766 0 4.324-1.227 8.074-3.672 11.25-2.45 3.18-5.602 5.652-9.453 7.421v.782c5.156 1.25 9.41 3.664 12.766 7.234 3.363 3.563 5.046 8.262 5.046 14.094zM66.72-64.922c0-1.875-.406-3.566-1.219-5.078-.805-1.508-2.04-2.68-3.703-3.516-2.188-1.093-4.652-1.703-7.39-1.828-2.731-.133-6.102-.203-10.11-.203H28.984v23.906h18.36c3.851 0 6.703-.14 8.547-.422 1.851-.289 3.718-1.007 5.593-2.156 1.977-1.25 3.344-2.718 4.094-4.406.758-1.695 1.14-3.797 1.14-6.297zm4.61 38.594c0-2.863-.47-5.192-1.407-6.985-.938-1.8-2.996-3.457-6.172-4.968-1.98-.938-4.117-1.492-6.406-1.672-2.293-.188-5.469-.281-9.532-.281H28.985v28.515h13.907c5.832 0 10.32-.191 13.468-.578 3.157-.394 5.88-1.242 8.172-2.547 2.29-1.3 3.992-2.89 5.11-4.765 1.125-1.875 1.687-4.114 1.687-6.72zm0 0"/></symbol></defs><use x="77.567" xlink:href="#47c8d5a6a" y="169"/></svg>