<?xml version="1.0" encoding="UTF-8"?><svg enable-background="new 0 0 250 250" height="250px" viewBox="0 0 250 250" width="250px" x="0px" xml:space="preserve" xmlns="http://www.w3.org/2000/svg" xmlns:xlink="http://www.w3.org/1999/xlink" y="0px"><defs><symbol id="5f94d670a" overflow="visible"><path d="M87.969 0H73.438v-65.547L27.733 0h-13.28v-87.266h14.53v64.61l45.235-64.61h13.75zm-8.36-121.64c-.261 7.71-2.699 13.726-7.312 18.046-4.606 4.324-11.309 6.485-20.11 6.485-8.804 0-15.511-2.16-20.124-6.485-4.606-4.32-7.04-10.336-7.297-18.047h13.359c.05 5.47 1.258 9.43 3.625 11.875 2.375 2.45 5.852 3.672 10.438 3.672 4.632 0 8.124-1.195 10.468-3.594 2.344-2.394 3.54-6.378 3.594-11.953zm0 0"/></symbol></defs><use x="73.945" xlink:href="#5f94d670a" y="169"/></svg>