<?xml version="1.0" encoding="UTF-8"?><svg enable-background="new 0 0 250 250" height="250px" viewBox="0 0 250 250" width="250px" x="0px" xml:space="preserve" xmlns="http://www.w3.org/2000/svg" xmlns:xlink="http://www.w3.org/1999/xlink" y="0px"><defs><symbol id="fa9a325da" overflow="visible"><path d="M81.484 0H66.797v-34.61H49.53L22.5 0H5.234L34.61-36.016c-7.554-2.082-13.074-5.27-16.562-9.562-3.492-4.3-5.235-9.942-5.235-16.922 0-4.633 1.04-8.566 3.126-11.797 2.082-3.226 4.71-5.86 7.89-7.89 3.125-1.977 6.719-3.317 10.781-4.016 4.063-.707 8.489-1.063 13.282-1.063h33.593zM66.797-46.172v-29.375H48.28c-4.011 0-6.902.133-8.672.39-1.773.262-3.699.966-5.78 2.11-2.032 1.149-3.532 2.7-4.5 4.656-.962 1.95-1.438 4.07-1.438 6.36 0 2.867.297 5.183.89 6.953.602 1.773 1.844 3.437 3.719 5 1.926 1.512 4.27 2.543 7.031 3.094 2.758.543 5.832.812 9.219.812zm0 0"/></symbol></defs><use x="77.177" xlink:href="#fa9a325da" y="169"/></svg>