<?xml version="1.0" encoding="UTF-8"?><svg enable-background="new 0 0 250 250" height="250px" viewBox="0 0 250 250" width="250px" x="0px" xml:space="preserve" xmlns="http://www.w3.org/2000/svg" xmlns:xlink="http://www.w3.org/1999/xlink" y="0px"><defs><symbol id="8ac55972a" overflow="visible"><path d="M84.844 0H70.156v-74.922H37.578c-.156 4.324-.312 8.492-.469 12.5-.156 4.012-.312 7.633-.468 10.86-.368 8.699-.965 15.64-1.797 20.828-.836 5.18-1.93 9.484-3.282 12.922-1.25 3.23-2.648 5.851-4.187 7.859a41.235 41.235 0 0 1-4.953 5.422 18.24 18.24 0 0 1-5.906 3.515C14.359-.234 12.004.156 9.453.156c-.887 0-2.18-.027-3.875-.078A125.437 125.437 0 0 0 2.266 0v-12.813h.78c.415 0 1.017.028 1.798.079.781.054 1.43.078 1.953.078a14.4 14.4 0 0 0 3.86-.547 7.203 7.203 0 0 0 3.405-2.031c2.657-2.602 4.79-7.004 6.407-13.204 1.613-6.195 2.68-15.156 3.203-26.875.207-4.269.398-9.332.578-15.187.188-5.863.36-11.453.516-16.766h60.078zm0 0"/></symbol></defs><use x="75.503" xlink:href="#8ac55972a" y="169"/></svg>