<?xml version="1.0" encoding="UTF-8"?><svg enable-background="new 0 0 250 250" height="250px" viewBox="0 0 250 250" width="250px" x="0px" xml:space="preserve" xmlns="http://www.w3.org/2000/svg" xmlns:xlink="http://www.w3.org/1999/xlink" y="0px"><defs><symbol id="c43efa31a" overflow="visible"><path d="M82.266 0h-14.61v-9.297a263.458 263.458 0 0 0-5.281 3.719c-2.21 1.586-4.355 2.844-6.438 3.781-2.449 1.2-5.261 2.195-8.437 3-3.18.813-6.902 1.219-11.172 1.219-7.867 0-14.531-2.602-20-7.813-5.469-5.207-8.203-11.847-8.203-19.922 0-6.613 1.414-11.96 4.25-16.046 2.844-4.094 6.895-7.313 12.156-9.657 5.313-2.343 11.692-3.93 19.14-4.765 7.446-.832 15.442-1.457 23.985-1.875v-2.266c0-3.332-.59-6.094-1.765-8.281-1.168-2.188-2.844-3.906-5.032-5.156-2.086-1.196-4.586-2.004-7.5-2.422a65.026 65.026 0 0 0-9.14-.625c-3.856 0-8.153.511-12.89 1.531-4.743 1.012-9.638 2.48-14.688 4.406h-.782V-85.39c2.864-.78 7.004-1.64 12.422-2.578 5.414-.937 10.754-1.406 16.016-1.406 6.144 0 11.492.512 16.047 1.531 4.562 1.012 8.508 2.742 11.843 5.188 3.282 2.398 5.782 5.496 7.5 9.297 1.72 3.804 2.579 8.515 2.579 14.14zm-14.61-21.484v-24.297c-4.48.261-9.758.652-15.828 1.172-6.062.523-10.867 1.277-14.406 2.265-4.219 1.2-7.633 3.063-10.234 5.594-2.606 2.523-3.907 5.996-3.907 10.422 0 5 1.508 8.765 4.532 11.297 3.019 2.523 7.628 3.781 13.828 3.781 5.156 0 9.867-1 14.14-3a63.978 63.978 0 0 0 11.875-7.234zm0 0"/></symbol></defs><use x="77.099" xlink:href="#c43efa31a" y="169"/></svg>