<?xml version="1.0" encoding="UTF-8"?><svg enable-background="new 0 0 250 250" height="250px" viewBox="0 0 250 250" width="250px" x="0px" xml:space="preserve" xmlns="http://www.w3.org/2000/svg" xmlns:xlink="http://www.w3.org/1999/xlink" y="0px"><defs><symbol id="13ada9a1a" overflow="visible"><path d="M79.766-5.469C73.773-2.656 68.629-.719 64.328.344c-4.293 1.07-8.574 1.61-12.844 1.61-6.355 0-12.187-.923-17.5-2.766-5.312-1.852-9.87-4.657-13.672-8.407-3.804-3.75-6.761-8.488-8.875-14.219-2.105-5.726-3.156-12.421-3.156-20.078 0-13.906 3.852-25.007 11.563-33.312 7.707-8.313 18.254-12.469 31.64-12.469 5.051 0 10.008.703 14.875 2.11 4.875 1.406 9.344 3.124 13.407 5.156v16.328h-.86c-4.844-3.695-9.625-6.43-14.344-8.203-4.71-1.77-9.277-2.656-13.703-2.656-8.699 0-15.433 2.917-20.203 8.75-4.761 5.835-7.14 13.933-7.14 24.296 0 10.368 2.367 18.414 7.109 24.141 4.738 5.73 11.484 8.594 20.234 8.594 3.07 0 6.13-.39 9.172-1.172 3.051-.781 5.828-1.797 8.328-3.047 1.977-.988 4.02-2.172 6.125-3.547 2.114-1.383 3.586-2.414 4.422-3.094h.86zm0 0"/></symbol></defs><use x="82.396" xlink:href="#13ada9a1a" y="169"/></svg>