<?xml version="1.0" encoding="UTF-8"?><svg enable-background="new 0 0 250 250" height="250px" viewBox="0 0 250 250" width="250px" x="0px" xml:space="preserve" xmlns="http://www.w3.org/2000/svg" xmlns:xlink="http://www.w3.org/1999/xlink" y="0px"><defs><symbol id="8759fc33a" overflow="visible"><path d="M125.86-45.938c0 7.762-.993 14.626-2.97 20.594-1.98 5.961-4.609 10.867-7.89 14.719-3.23 3.855-6.953 6.797-11.172 8.828C99.61.234 95.18 1.25 90.547 1.25c-3.492 0-6.527-.602-9.11-1.797a392.128 392.128 0 0 1-6.906-3.281v36.016H60V-3.828c-3.18 1.562-5.797 2.805-7.86 3.719-2.054.906-5.265 1.359-9.64 1.359-10.055 0-18.203-3.93-24.453-11.797-6.25-7.863-9.375-18.8-9.375-32.812 0-7.344 1.015-13.891 3.047-19.641 2.031-5.758 4.687-10.594 7.969-14.5 3.175-3.8 6.91-6.703 11.203-8.703 4.3-2.008 8.586-3.016 12.859-3.016 3.125 0 5.973.485 8.547 1.453 2.582.961 5.148 2.22 7.703 3.782v-37.579h14.531v37.579c2.395-1.407 5.207-2.63 8.438-3.672 3.226-1.04 6.484-1.563 9.765-1.563 10.313 0 18.41 3.899 24.297 11.688 5.883 7.781 8.828 18.312 8.828 31.594zm-15.079 1.641c0-9.945-1.773-17.812-5.312-23.594-3.543-5.78-8.856-8.671-15.938-8.671-2.867 0-5.261.234-7.187.703-1.93.468-4.531 1.355-7.813 2.656V-15c2.446 1.148 4.489 2.047 6.125 2.703 1.645.649 3.977.969 7 .969 7.344 0 13.031-2.82 17.063-8.469 4.039-5.656 6.062-13.82 6.062-24.5zM60-15v-58.203a50.666 50.666 0 0 0-6.172-2.375c-2.086-.656-4.402-.984-6.953-.984-7.031 0-12.648 2.683-16.844 8.046C25.844-63.148 23.75-55 23.75-44.062c0 10.156 1.86 18.152 5.578 23.984 3.727 5.836 9.11 8.75 16.14 8.75 2.759 0 5.321-.375 7.688-1.125A76.058 76.058 0 0 0 60-15zm0 0"/></symbol></defs><use x="57.939" xlink:href="#8759fc33a" y="169"/></svg>