<?xml version="1.0" encoding="UTF-8"?><svg enable-background="new 0 0 250 250" height="250px" viewBox="0 0 250 250" width="250px" x="0px" xml:space="preserve" xmlns="http://www.w3.org/2000/svg" xmlns:xlink="http://www.w3.org/1999/xlink" y="0px"><defs><symbol id="4f526d13a" overflow="visible"><path d="M123.906 0h-17.734L78.203-39.844h-7.11V0h-14.53v-39.844h-6.329L21.016 0H4.063l33.671-45.703c-2.554-1.352-4.808-3.281-6.765-5.781-1.95-2.5-3.73-6.274-5.344-11.328-1.406-4.426-3.074-7.5-5-9.22-1.93-1.718-5.078-2.577-9.453-2.577h-4.14v-12.657h5.39c6.457 0 11.64 1.305 15.547 3.907 3.906 2.605 7.031 7.164 9.375 13.671.468 1.356 1.05 2.907 1.75 4.657.707 1.742 1.32 3.21 1.843 4.406 1.72 3.96 3.915 6.762 6.594 8.406 2.688 1.637 5.696 2.559 9.032 2.766v-37.813h14.53v37.813c3.333-.207 6.364-1.145 9.094-2.813 2.739-1.664 4.97-4.453 6.688-8.359.57-1.3 1.207-2.813 1.906-4.531.707-1.719 1.27-3.227 1.688-4.531 2.289-6.407 5.363-10.938 9.219-13.594 3.851-2.656 9.035-3.985 15.546-3.985h5.391v12.657h-4.14c-4.43 0-7.622.914-9.579 2.734-1.949 1.824-3.574 4.844-4.875 9.063-1.46 4.636-3.195 8.246-5.203 10.828-2 2.574-4.172 4.511-6.516 5.812zm0 0"/></symbol></defs><use x="61.366" xlink:href="#4f526d13a" y="169"/></svg>