<?xml version='1.0' encoding='UTF-8'?>
<svg xmlns="http://www.w3.org/2000/svg" xmlns:xlink="http://www.w3.org/1999/xlink" width="250px" height="250px" viewBox="0 0 250 250" y="0px" x="0px" enable-background="new 0 0 250 250"><defs><symbol overflow="visible" id="f81dca6ea"><path d="M0-126.125h37.172c.687 5.781.687 11.156.687 15.969 0 9.36-1.375 16.937-3.578 23.125-4.672-.547-9.906-.953-13.906-.953-8.125 0-11.563 4.406-11.563 11.156 0 6.328 5.094 15 13.22 25.469C34.702-34.844 55.358-17.22 80.14.688h1.093l9.235-18.172c-25.344-12.953-46-25.891-57.422-39.11 11.844-9.5 20.516-22.172 20.516-44.062 0-8.406-.282-17.625-1.235-25.469h79.313v23.672c-11.844-3.703-22.453-5.781-31.391-5.781-20.797 0-32.64 13.5-32.64 29.89 0 23.266 24.234 43.375 46.406 43.375 7.015 0 12.796-2.078 17.625-5.375l-.547 37.735 15.422 4.125L147.89 0l-.563-126.125h24.922l1.11-1.516L166.75-141H-5.516l-1.093 1.516zM131.906-70.5c0 12.39-13.219 20.516-26.437 20.516-11.828 0-21.89-7.844-21.89-19.547 0-12.531 10.874-23.406 30.155-23.406 5.922 0 11.985.953 18.172 2.328zm0 0"/></symbol></defs><use xlink:href="#f81dca6ea" x="41.62549" y="191.25"/></svg>