<?xml version='1.0' encoding='UTF-8'?>
<svg xmlns="http://www.w3.org/2000/svg" xmlns:xlink="http://www.w3.org/1999/xlink" width="250px" height="250px" viewBox="0 0 250 250" y="0px" x="0px" enable-background="new 0 0 250 250"><defs><symbol overflow="visible" id="35cc0593a"><path d="M0-126.125h80.828l.14 23.125c0 2.484-1.374 3.86-4.14 3.86H58.516c-27.125 0-46.532 11.984-46.532 36.484 0 27 25.875 52.328 56.72 52.328 28.374 0 48.89-19.688 48.89-40.625 0-13.484-6.203-26.563-20.938-39.234l-.265-35.938h36.765l1.094-1.516L127.64-141H-5.515l-1.093 1.516zm88.953 42.813c9.5 6.343 13.36 13.78 13.36 21.624 0 17.907-18.188 35.391-41.594 35.391-19 0-31.672-12.672-31.672-29.062 0-17.485 14.469-27.953 46.687-27.953zm0 0"/></symbol></defs><use xlink:href="#35cc0593a" x="61.17822" y="191.25"/></svg>