<?xml version='1.0' encoding='UTF-8'?>
<svg xmlns="http://www.w3.org/2000/svg" xmlns:xlink="http://www.w3.org/1999/xlink" width="250px" height="250px" viewBox="0 0 250 250" y="0px" x="0px" enable-background="new 0 0 250 250"><defs><symbol overflow="visible" id="7f4c2ea7a"><path d="M42.906-107.86c-7.547-4.734-13.312-11.39-13.312-18.78 0-9.626 7.687-16.422 17.453-16.422 11.984 0 19.375 7.984 19.375 17.75 0 17.906-18.344 24.859-46.89 36.546l-.735 2.36C32.25-48.531 55.922-34.172 76.64-34.172c14.937 0 24.859-3.844 34.625-11.39l-.594 42.75 16.719 4.437L128.859 0l-.734-135.516h26.781l1.188-1.64-7.11-14.344H83.891l-1.188 1.625 7.11 14.36h21.453v49.109c0 14.5-6.97 23.531-18.063 29C86.547-54 79-52.22 70.875-52.22c-23.094 0-31.078-15.25-31.078-21.015 0-1.782 1.187-2.954 4-4 24.562-9.907 37.422-19.079 37.422-37.72 0-10.218-3.985-20.562-14.203-30.78-8.422-8.422-17.75-13.157-27.657-13.157-16.125 0-27.515 9.907-27.515 23.516 0 9.172 3.984 17.156 11.39 24.266 4.735 2.812 10.938 4.875 18.047 6.515zm0 0"/></symbol></defs><use xlink:href="#7f4c2ea7a" x="50.50757" y="201.5"/></svg>