<?xml version='1.0' encoding='UTF-8'?>
<svg xmlns="http://www.w3.org/2000/svg" xmlns:xlink="http://www.w3.org/1999/xlink" width="250px" height="250px" viewBox="0 0 250 250" y="0px" x="0px" enable-background="new 0 0 250 250"><defs><symbol overflow="visible" id="97222ccda"><path d="M137.89-74.719c-7.687 4.297-15.687 7.25-24.702 7.25-5.329 0-10.954-1.031-17.016-3.406-5.484-5.172-10.813-8.281-16.719-8.281-13.766 0-28.266 7.547-39.797 7.547-7.547 0-11.39-3.11-11.39-8.875 0-9.766 7.53-17.157 38.609-17.157 10.063 0 23.219 0 31.516.297l1.468-1.781v-36.39h38.032zM0-135.516h83.438v17.297c0 2.813-1.626 3.86-3.688 3.86H58c-12.875 0-23.375 1.03-30.922 3.546-10.953 3.704-15.39 10.5-15.39 19.829 0 6.359 3.546 13.906 9.171 21.453 8.735 11.687 18.797 15.969 27.813 15.969 10.516 0 26.344-7.844 37.875-7.844 6.219 0 9.328 3.86 9.328 7.703 0 12.578-16.125 26.187-35.656 30.172-6.36-7.39-14.203-12.86-26.188-12.86-7.984 0-11.687 5.172-11.687 9.766 0 4.734 1.922 9.469 5.468 14.203 5.47 6.5 10.797 8.125 19.532 8.125 3.547 0 6.812-.297 10.062-.875 13.61 30.766 29.14 38.313 49.563 39.938H108l7.11-19.532C90.843 12.125 73.827 5.47 67.312-6.219c26.484-6.36 42.906-18.937 42.906-35.062 0-5.625-1.469-11.235-5.328-16.563l.593-.453c8.438 4.438 16.282 6.516 23.375 6.516 2.97 0 5.782-.438 8.735-1.188l-.297 50.157 16.578 4.437L155.344 0l-.594-135.516h26.781l1.188-1.64-7.11-14.344H-5.92l-1.188 1.625zm0 0"/></symbol></defs><use xlink:href="#97222ccda" x="37.19214" y="201.5"/></svg>