<?xml version='1.0' encoding='UTF-8'?>
<svg xmlns="http://www.w3.org/2000/svg" xmlns:xlink="http://www.w3.org/1999/xlink" width="250px" height="250px" viewBox="0 0 250 250" y="0px" x="0px" enable-background="new 0 0 250 250"><defs><symbol overflow="visible" id="1ff6df31a"><path d="M0-135.516h136.703v29.282H61.547l-1.188 1.78 6.813 15.688c24.266 2.954 30.172 14.204 30.172 21.594 0 16.875-15.235 25.156-26.328 25.156-19.672 0-38.172-19.093-55.032-60.218L6.36-97.063v1.188C26.922-44.687 51.344-22.047 79-22.047c17.469 0 33-13.172 33-32.25 0-9.766-3.844-21.156-12.578-34.469h37.281l-.594 85.954 16.578 4.437L154.157 0l-.579-135.516h26.766l1.187-1.64-7.094-14.344H-5.922l-1.187 1.625zm0 0"/></symbol></defs><use xlink:href="#1ff6df31a" x="37.78394" y="201.5"/></svg>