<?xml version='1.0' encoding='UTF-8'?>
<svg xmlns="http://www.w3.org/2000/svg" xmlns:xlink="http://www.w3.org/1999/xlink" width="250px" height="250px" viewBox="0 0 250 250" y="0px" x="0px" enable-background="new 0 0 250 250"><defs><symbol overflow="visible" id="540368a9a"><path d="M0-126.125h114.156v22.984c-15.844 2.344-29.203 6.204-37.328 13.22-10.047-8.532-19.406-13.766-32.078-13.766-19.14 0-33.188 14.328-33.188 35.109C11.563-41.86 30.017-19 58.657 1.375h1.11l11.015-16.25C44.062-26.578 27.406-38.688 27.406-61c0-12.25 9.907-25.75 25.875-25.75 6.75 0 12.266 1.375 16.39 4.125-5.374 5.656-8.952 14.328-11.28 24.375l14.172 9.094h.968c7.844-25.75 16.656-32.5 40.625-37.172l-.562 83.719 15.422 4.125L130.39 0l-.547-126.125h24.922l1.109-1.516-6.61-13.359H-5.514l-1.094 1.516zm0 0"/></symbol></defs><use xlink:href="#540368a9a" x="50.36914" y="191.25"/></svg>