<?xml version='1.0' encoding='UTF-8'?>
<svg xmlns="http://www.w3.org/2000/svg" xmlns:xlink="http://www.w3.org/1999/xlink" width="250px" height="250px" viewBox="0 0 250 250" y="0px" x="0px" enable-background="new 0 0 250 250"><defs><symbol overflow="visible" id="e109320ba"><path d="M37.172-113.594c12.531-8.125 23.828-12.672 33.187-12.672 9.36 0 16.25 6.329 16.25 14.454 0 7.437-4.265 13.5-11.156 18.312-9.64 0-21.469 3.313-34.828 8.813l-.281.968 10.61 16.516c10.452-4.531 19-7.016 25.468-7.016 12.672 0 19.828 7.719 19.828 19.422 0 13.766-13.906 24.094-27.547 24.094-19 0-36.484-15.969-52.047-46.406l-8.25 5.093v.97c16.938 33.874 37.578 58.374 67.328 58.374 19.282 0 34.563-13.219 34.563-32.36 0-4.952-.14-9.359-1.656-13.484l.28-.28c5.782 4.405 12.938 6.608 20.657 6.608 4.406 0 8.25-.406 11.969-1.515l-.14 51.094 15.296 4.125L158.078 0l-.547-126.125h24.922l1.094-1.516-6.61-13.359H109.75l-1.11 1.516 6.61 13.359h26.438v50.672c-6.75 4.812-14.594 7.016-22.86 7.016-7.844 0-13.36-1.782-16.797-5.376-2.484-2.609-5.375-5.359-9.36-7.984 4.813-5.234 7.438-11.422 7.438-19.547 0-9.781-3.171-18.453-9.375-26.297-8.25-10.187-18.437-15.703-30.703-15.703-9.906 0-21.468 4.547-33.593 12.672v1.094zm0 0"/></symbol></defs><use xlink:href="#e109320ba" x="36.53076" y="191.25"/></svg>