<?xml version='1.0' encoding='UTF-8'?>
<svg xmlns="http://www.w3.org/2000/svg" xmlns:xlink="http://www.w3.org/1999/xlink" width="250px" height="250px" viewBox="0 0 250 250" y="0px" x="0px" enable-background="new 0 0 250 250"><defs><symbol overflow="visible" id="88c93be0a"><path d="M50.89-106.234c-11.39-5.313-19.968-11.829-19.968-22.188 0-9.016 7.094-16.562 17.75-16.562 9.031 0 18.344 4.875 18.344 35.797 0 10.953-.297 20.421-1.032 29.89-5.171.89-11.093 1.922-16.265 3.547-7.11 2.36-9.032 7.094-9.032 10.953 0 4.734 2.22 9.906 6.954 15.375 7.984 9.469 13.765 12.578 18.047 12.578 6.515 0 12.437-6.062 16.874-22.187 8.579-1.782 22.626-2.375 39.938-2.375h10.063l-.594 58.593 16.719 4.438L150.172 0l-.75-135.516h26.781l1.188-1.64-7.094-14.344H90.844l-1.188 1.625 7.11 14.36h35.796v57.687a1307.497 1307.497 0 0 0-33-.438c-5.609 0-11.53 0-16.562.141.297-6.953.438-14.344.438-22.922 0-26.484-4.141-35.062-16.86-46.156-9.469-8.297-18.797-12.578-28.703-12.578-14.203 0-26.031 8.875-26.031 25.14 0 10.657 6.953 19.391 18.187 27.235 5.766 2.36 11.844 4.14 18.797 5.469zm0 0"/></symbol></defs><use xlink:href="#88c93be0a" x="39.85522" y="201.5"/></svg>