<?xml version='1.0' encoding='UTF-8'?>
<svg xmlns="http://www.w3.org/2000/svg" xmlns:xlink="http://www.w3.org/1999/xlink" width="250px" height="250px" viewBox="0 0 250 250" y="0px" x="0px" enable-background="new 0 0 250 250"><defs><symbol overflow="visible" id="18558cdfa"><path d="M0-126.125h34.563c1.234 6.75 1.921 15.422 2.062 25.188 0 8-.828 14.609-2.469 20.25-4.406-.688-8.953-1.376-12.531-1.376-9.234 0-12.266 8.391-12.266 11.563 0 5.375 3.579 13.219 9.094 22.578C28.641-30.984 46.953-12.39 71.47 7.156h1.234l9.36-17.89C63.203-21.063 45.858-32.5 32.906-46.812c5.516-3.72 10.75-9.094 15.157-17.22C62.516-57 76.016-53.843 87.436-53.843c6.204 0 12.25-.687 18.032-2.062l-.547 53.297 15.562 4.125L121.86 0l-.687-126.125h24.922l1.11-1.516-6.61-13.359H-5.516l-1.093 1.516zm105.469 0v51.219C95.28-72.703 85.516-71.47 76.422-71.47c-8.266 0-17.344-1.375-25.469-4.406 1.234-5.781 1.64-11.563 1.64-17.625 0-10.188-.952-20.922-3.156-32.625zm0 0"/></symbol></defs><use xlink:href="#18558cdfa" x="54.70654" y="191.25"/></svg>