<?xml version='1.0' encoding='UTF-8'?>
<svg xmlns="http://www.w3.org/2000/svg" xmlns:xlink="http://www.w3.org/1999/xlink" width="250px" height="250px" viewBox="0 0 250 250" y="0px" x="0px" enable-background="new 0 0 250 250"><defs><symbol overflow="visible" id="b8efc9dba"><path d="M0-135.516h146.469v55.47c-6.36 4.437-11.985 6.515-19.235 6.515-5.171 0-9.765-1.031-13.015-3.25-1.485-9.172-4.89-18.203-11.985-26.781-7.109-8.579-16.578-13.907-28.109-13.907-9.625 0-19.39 2.656-29 6.656v1.329l8.578 18.64c9.172-3.984 18.344-6.797 26.781-6.797 13.172 0 20.72 8.579 20.72 18.485 0 17.312-14.204 28.86-30.485 28.86-18.938 0-36.688-16.423-53.703-45.282l-8.438 6.516v1.03C31.36-48.077 54.453-29.89 78.266-29.89c16.718 0 36.546-11.687 36.843-34.765l.594-.297c8.125 5.766 15.672 8.437 22.031 8.437 3.11 0 5.922-.437 8.735-1.625l-.594 55.328 16.578 4.438L163.922 0l-.578-135.516h26.765l1.188-1.64-7.094-14.344H-5.922l-1.187 1.625zm0 0"/></symbol></defs><use xlink:href="#b8efc9dba" x="32.90161" y="201.5"/></svg>