<?xml version='1.0' encoding='UTF-8'?>
<svg xmlns="http://www.w3.org/2000/svg" xmlns:xlink="http://www.w3.org/1999/xlink" width="250px" height="250px" viewBox="0 0 250 250" y="0px" x="0px" enable-background="new 0 0 250 250"><defs><symbol overflow="visible" id="a2860142a"><path d="M0-135.516h87.734v26.032c-11.39-3.25-22.64-4.735-33.734-4.735-24.266 0-42.906 13.016-42.906 35.219 0 23.375 18.937 43.938 46.015 43.938 10.36 0 20.72-3.407 30.188-11.688l.437.297-.593 43.64 16.125 4.438L104.75 0l-.297-62.14c11.688-14.641 25.453-25.157 38.172-25.157 7.688 0 11.531 4.734 11.531 11.984 0 13.47-9.61 28.86-23.672 44.985l15.547 11.39h1.469c12.281-15.234 21.156-30.625 21.156-46.906 0-19.812-14.5-37.422-33.719-37.422-11.546 0-21.609 5.329-30.343 13.907l-.438-.297v-45.86h77.235l1.172-1.64-7.094-14.344H-5.921l-1.188 1.625zM87.875-72.64C74.422-58.14 61.25-51.047 48.672-51.047c-12.281 0-19.828-6.36-19.828-18.64 0-15.391 15.687-29.297 36.406-29.297 7.844 0 15.375.89 22.625 2.375zm0 0"/></symbol></defs><use xlink:href="#a2860142a" x="37.26611" y="201.5"/></svg>