<?xml version='1.0' encoding='UTF-8'?>
<svg xmlns="http://www.w3.org/2000/svg" xmlns:xlink="http://www.w3.org/1999/xlink" width="250px" height="250px" viewBox="0 0 250 250" y="0px" x="0px" enable-background="new 0 0 250 250"><defs><symbol overflow="visible" id="88c93be0a"><path d="M47.375-98.86c-10.61-4.968-18.594-11.015-18.594-20.656 0-8.406 6.61-15.421 16.516-15.421 8.406 0 17.078 4.546 17.078 33.312 0 10.188-.281 19-.969 27.813-4.812.828-10.328 1.796-15.14 3.312-6.61 2.203-8.407 6.61-8.407 10.188 0 4.406 2.078 9.234 6.485 14.328C51.78-37.172 57.14-34.281 61.14-34.281c6.062 0 11.562-5.657 15.687-20.657 8-1.656 21.078-2.203 37.188-2.203h9.359l-.547 54.532 15.563 4.125L139.766 0l-.688-126.125H164l1.094-1.516-6.61-13.359H84.547l-1.11 1.516 6.61 13.359h33.328v53.703a1196.74 1196.74 0 0 0-30.703-.422c-5.234 0-10.75 0-15.422.14.266-6.468.406-13.359.406-21.343 0-24.64-3.844-32.64-15.687-42.953-8.813-7.719-17.5-11.719-26.719-11.719-13.219 0-24.234 8.266-24.234 23.422 0 9.906 6.468 18.031 16.937 25.328 5.375 2.203 11.016 3.86 17.485 5.094zm0 0"/></symbol></defs><use xlink:href="#88c93be0a" x="45.75635" y="191.25"/></svg>