<?xml version='1.0' encoding='UTF-8'?>
<svg xmlns="http://www.w3.org/2000/svg" xmlns:xlink="http://www.w3.org/1999/xlink" width="250px" height="250px" viewBox="0 0 250 250" y="0px" x="0px" enable-background="new 0 0 250 250"><defs><symbol overflow="visible" id="39f9486fa"><path d="M0-135.516h96.61v25.594c-13.907-3.562-27.376-5.328-40.391-5.328-26.032 0-45.125 13.906-45.125 36.547 0 25.734 24.703 47.047 51.64 47.047 12.578 0 23.97-3.563 33.875-10.953l-.593 39.797 16.578 4.437L114.063 0l-.579-135.516h26.766l1.188-1.64-7.094-14.344H-5.922l-1.187 1.625zm96.906 39.797v15.828c0 24.407-29.734 31.516-41.875 31.516-17.593 0-25.89-9.922-25.89-21.156 0-14.36 11.109-29.297 41.875-29.297 8.437 0 17.156.89 25.89 3.11zm0 0"/></symbol></defs><use xlink:href="#39f9486fa" x="57.83105" y="201.5"/></svg>