<?xml version='1.0' encoding='UTF-8'?>
<svg xmlns="http://www.w3.org/2000/svg" xmlns:xlink="http://www.w3.org/1999/xlink" width="250px" height="250px" viewBox="0 0 250 250" y="0px" x="0px" enable-background="new 0 0 250 250"><defs><symbol overflow="visible" id="47757e62a"><path d="M0-126.125h83.86v16.11c0 2.609-1.516 3.578-3.438 3.578h-14.61c-11.968 0-21.75.968-28.765 3.296-10.203 3.454-14.469 9.922-14.469 18.875 0 5.922 2.766 12.532 7.985 19.547 8.125 10.875 16.25 15.969 24.656 15.969 10.328 0 24.922-5.094 35.39-5.094 6.047 0 9.22 2.344 9.22 6.75 0 11.016-15.423 23.688-31.813 23.688-20.782 0-38.141-14.875-53.563-40.078L6.61-58.25v.969C25.47-25.063 47.375-6.203 74.22-6.203c21.203 0 38.14-15.688 38.14-30.563 0-6.609-1.375-12.53-3.859-18.03-4.953-11.017-11.844-16.813-24.375-16.813-13.344 0-26.156 4.968-35.375 4.968-7.031 0-10.89-2.89-10.89-8.265 0-9.219 7.312-15.969 36.218-15.969 9.36 0 15.969 0 23.688.266l1.375-1.641v-33.875h44.609l1.11-1.516L138.25-141H-5.516l-1.093 1.516zm121.86 28.5l-14.876 15 14.875 15.016 15.016-15.016zm0 0"/></symbol></defs><use xlink:href="#47757e62a" x="55.87695" y="191.25"/></svg>