<?xml version='1.0' encoding='UTF-8'?>
<svg xmlns="http://www.w3.org/2000/svg" xmlns:xlink="http://www.w3.org/1999/xlink" width="250px" height="250px" viewBox="0 0 250 250" y="0px" x="0px" enable-background="new 0 0 250 250"><defs><symbol overflow="visible" id="e4c2f535a"><path d="M0-135.516h87.734v24.11c0 2.656-1.484 4.14-4.437 4.14H62.734c-29.156 0-50.156 13.172-50.156 39.204 0 27.374 24.703 54.593 60.219 54.593 9.172 0 18.047-1.469 26.922-5.906 7.094 7.094 10.36 13.75 10.36 20.11 0 9.171-6.657 16.578-16.876 23.374l17.61 14.063H112c10.36-7.11 17.453-15.688 17.453-27.813 0-9.171-5.922-20.718-21.297-34.765 8.281-5.625 12.578-12.282 12.578-20.282 0-6.062-2.375-11.39-6.812-15.968-4.14-4.14-8.875-6.36-14.797-6.36-10.36 0-17.906 8.422-17.906 17.157 0 5.922 1.922 10.656 5.781 14.5-7.547 3.703-14.797 5.765-22.797 5.765-20.266 0-33.422-13.156-33.422-30.328 0-19.375 16.125-30.172 50.438-30.172h21.75l1.484-1.484-.156-43.938h33l1.187-1.64-7.109-14.344H-5.922l-1.187 1.625zm0 0"/></symbol></defs><use xlink:href="#e4c2f535a" x="59.31055" y="201.5"/></svg>