<?xml version='1.0' encoding='UTF-8'?>
<svg xmlns="http://www.w3.org/2000/svg" xmlns:xlink="http://www.w3.org/1999/xlink" width="250px" height="250px" viewBox="0 0 250 250" y="0px" x="0px" enable-background="new 0 0 250 250"><defs><symbol overflow="visible" id="6fed00cba"><path d="M0-126.125h17.766c-.422 11.156-.422 23.125-.422 34.281 0 19.969 4.406 30.563 11.984 38 9.64 9.375 21.063 14.469 32.219 14.469 9.234 0 17.36-2.625 24.656-8.688l-.562 45.454 15.562 4.125L102.578 0l-.687-126.125h24.921l1.11-1.516-6.61-13.359H-5.516l-1.093 1.516zm86.203 0v43.375c0 9.219-2.766 14.047-8.812 19.828-6.891 5.64-14.47 8.938-23.141 8.938-14.313 0-20.094-10.453-20.094-33.86 0-12.812.125-25.484.407-38.281zm0 0"/></symbol></defs><use xlink:href="#6fed00cba" x="64.34521" y="191.25"/></svg>