<?xml version='1.0' encoding='UTF-8'?>
<svg xmlns="http://www.w3.org/2000/svg" xmlns:xlink="http://www.w3.org/1999/xlink" width="250px" height="250px" viewBox="0 0 250 250" y="0px" x="0px" enable-background="new 0 0 250 250"><defs><symbol overflow="visible" id="e0d33fd5a"><path d="M0-135.516h33.14v56.063c-7.984 1.328-13.312 3.11-16.28 5.328-3.688 3.11-5.47 6.219-5.47 9.328 0 10.5 18.204 28.547 26.344 28.547 3.985 0 6.36-1.328 9.016-4.734C49.125-43.937 50-48.375 50-55.187v-6.657h55.938l-.594 59.032 16.719 4.437L123.53 0l-.734-135.516h26.781l1.188-1.64-7.11-14.344H-5.922l-1.187 1.625zm105.938 57.11H49.422v-57.11h56.516zm0 0"/></symbol></defs><use xlink:href="#e0d33fd5a" x="53.17065" y="201.5"/></svg>