<?xml version='1.0' encoding='UTF-8'?>
<svg xmlns="http://www.w3.org/2000/svg" xmlns:xlink="http://www.w3.org/1999/xlink" width="250px" height="250px" viewBox="0 0 250 250" y="0px" x="0px" enable-background="new 0 0 250 250"><defs><symbol overflow="visible" id="540368a9a"><path d="M0-135.516h122.656v24.703c-17.015 2.516-31.375 6.657-40.094 14.204-10.812-9.172-20.874-14.797-34.484-14.797-20.562 0-35.656 15.39-35.656 37.734 0 28.688 19.828 53.25 50.61 75.156h1.171l11.844-17.468c-28.703-12.563-46.61-25.594-46.61-49.563 0-13.156 10.657-27.656 27.813-27.656 7.25 0 13.172 1.469 17.61 4.437-5.766 6.063-9.61 15.375-12.126 26.188l15.235 9.766H79c8.438-27.672 17.906-34.922 43.656-39.954l-.594 89.954 16.563 4.437L140.109 0l-.593-135.516h26.78l1.188-1.64-7.109-14.344H-5.922l-1.187 1.625zm0 0"/></symbol></defs><use xlink:href="#540368a9a" x="44.81152" y="201.5"/></svg>