<?xml version='1.0' encoding='UTF-8'?>
<svg xmlns="http://www.w3.org/2000/svg" xmlns:xlink="http://www.w3.org/1999/xlink" width="250px" height="250px" viewBox="0 0 250 250" y="0px" x="0px" enable-background="new 0 0 250 250"><defs><symbol overflow="visible" id="3b4744aea"><path d="M0-135.516h25.594c-1.922 3.844-2.657 7.547-2.657 11.094 0 17.75 17.016 32.688 40.391 46.89-4.437 3.563-9.328 6.516-13.469 8.438-8.734-4.297-16.422-6.953-25.453-6.953-10.062 0-14.5 4.14-14.5 9.469 0 2.812 1.485 6.36 4.297 10.36 5.766 8.14 10.5 11.53 14.64 11.53 5.923 0 12.579-1.468 19.235-3.843C60.812-27.22 76.641-8.875 97.641 5.03h1.343l7.829-19.968c-17-8.876-32.25-21.454-45.704-38.329 24.407-13.906 40.688-30.03 40.688-49.859 0-10.938-4.594-21.89-14.797-32.39h40.828l-.594 132.702 16.72 4.438L145.436 0l-.593-135.516h26.781l1.188-1.64-7.11-14.344H-5.922l-1.187 1.625zm64.5-.89c11.984 0 21.453 11.234 21.453 22.922 0 11.25-4.281 18.062-12.422 26.343-18.937-6.062-31.36-15.093-31.36-29 0-11.687 8.72-20.265 22.329-20.265zm0 0"/></symbol></defs><use xlink:href="#3b4744aea" x="42.14844" y="201.5"/></svg>