<?xml version='1.0' encoding='UTF-8'?>
<svg xmlns="http://www.w3.org/2000/svg" xmlns:xlink="http://www.w3.org/1999/xlink" width="250px" height="250px" viewBox="0 0 250 250" y="0px" x="0px" enable-background="new 0 0 250 250"><defs><symbol overflow="visible" id="951d05b4a"><path d="M0-135.516h19.078c-.437 11.985-.437 24.844-.437 36.828 0 21.454 4.734 32.844 12.875 40.844C41.875-47.78 54.156-42.312 66.14-42.312c9.906 0 18.64-2.813 26.468-9.329l-.578 48.828 16.719 4.438L110.219 0l-.735-135.516h26.782l1.172-1.64-7.094-14.344H-5.922l-1.187 1.625zm82.406 68.938c-7.094 5.625-15.094 8.875-24.11 8.875-15.39 0-22.046-11.531-22.046-36.688 0-10.5 0-21.015.14-31.515l.454-.297zm6.813-8.281l-45.422-60.36.297-.297h48.515v46.594c0 6.063-1.03 10.36-2.953 13.61zm0 0"/></symbol></defs><use xlink:href="#951d05b4a" x="59.82837" y="201.5"/></svg>