<?xml version='1.0' encoding='UTF-8'?>
<svg xmlns="http://www.w3.org/2000/svg" xmlns:xlink="http://www.w3.org/1999/xlink" width="250px" height="250px" viewBox="0 0 250 250" y="0px" x="0px" enable-background="new 0 0 250 250"><defs><symbol overflow="visible" id="f81dca6ea"><path d="M0-135.516h39.953c.734 6.203.734 11.985.734 17.157 0 10.062-1.484 18.203-3.843 24.859-5.032-.594-10.657-1.047-14.953-1.047-8.72 0-12.422 4.734-12.422 11.984 0 6.813 5.469 16.141 14.203 27.376C37.282-37.438 59.469-18.5 86.109.733h1.188l9.906-19.53C69.984-32.704 47.781-46.61 35.516-60.814c12.718-10.203 22.03-23.812 22.03-47.343 0-9.016-.296-18.938-1.327-27.36h85.219v25.438c-12.72-3.984-24.11-6.203-33.735-6.203-22.344 0-35.062 14.484-35.062 32.094 0 25 26.046 46.609 49.859 46.609 7.547 0 13.766-2.219 18.938-5.766l-.594 40.532 16.578 4.437L158.89 0l-.578-135.516h26.765l1.188-1.64-7.094-14.344H-5.922l-1.187 1.625zM141.734-75.75c0 13.313-14.203 22.047-28.406 22.047-12.719 0-23.516-8.438-23.516-21.016 0-13.453 11.688-25.14 32.391-25.14 6.36 0 12.875 1.03 19.531 2.515zm0 0"/></symbol></defs><use xlink:href="#f81dca6ea" x="35.41675" y="201.5"/></svg>