<?xml version='1.0' encoding='UTF-8'?>
<svg xmlns="http://www.w3.org/2000/svg" xmlns:xlink="http://www.w3.org/1999/xlink" width="250px" height="250px" viewBox="0 0 250 250" y="0px" x="0px" enable-background="new 0 0 250 250"><defs><symbol overflow="visible" id="07f864d0a"><path d="M0-126.125h17.344v41.172c0 20.922 4.547 29.734 12.406 39.922 3.438 4.687 8.25 9.5 13.766 14.187 14.734 12.938 50.39 23 58.375 31.953 2.203 2.47 3.312 4.813 3.312 7.297 0 7.985-8.266 13.485-20.25 20.375l16.25 15.563h1.11c10.593-6.063 17.624-13.782 17.624-25.063 0-8.953-6.609-22.718-15.703-31.953-13.078-13.219-46.812-21.344-60.312-34.14-8.813-8.547-9.766-18.454-9.766-41.032v-38.281H86.61v44.89c0 17.626-6.609 23.407-16.25 30.016l13.5 13.078h.829c14.453-8.125 17.624-17.078 17.624-35.797v-52.187h24.5l1.11-1.516-6.61-13.359H-5.516l-1.093 1.516zm0 0"/></symbol></defs><use xlink:href="#07f864d0a" x="64.34521" y="191.25"/></svg>