<?xml version='1.0' encoding='UTF-8'?>
<svg xmlns="http://www.w3.org/2000/svg" xmlns:xlink="http://www.w3.org/1999/xlink" width="250px" height="250px" viewBox="0 0 250 250" y="0px" x="0px" enable-background="new 0 0 250 250"><defs><symbol overflow="visible" id="31bdd203a"><path d="M0-135.516h116.578v54.297c0 21.75-26.187 34.016-43.484 34.016-13.469 0-24.86-6.063-24.86-21 0-17.906 13.907-28.406 36.844-28.406h15.531l1.032-1.625-7.094-14.36H6.063l-1.032 1.625 7.39 14.656h24.72l.437.594c-5.469 6.203-7.39 13.016-7.39 20.406C30.188-50 55.03-30.483 79.75-30.483c13.016 0 25.438-3.391 36.828-13.313L116-2.813l16.563 4.438L134.047 0l-.594-135.516h26.781l1.172-1.64-7.094-14.344H-5.922l-1.187 1.625zm0 0"/></symbol></defs><use xlink:href="#31bdd203a" x="47.84448" y="201.5"/></svg>