<?xml version='1.0' encoding='UTF-8'?>
<svg xmlns="http://www.w3.org/2000/svg" xmlns:xlink="http://www.w3.org/1999/xlink" width="250px" height="250px" viewBox="0 0 250 250" y="0px" x="0px" enable-background="new 0 0 250 250"><defs><symbol overflow="visible" id="a5c533a6a"><path d="M0-126.125h81.375v22.719c0 2.469-1.375 3.86-4.125 3.86H58.656c-27.125 0-46.672 11.968-46.672 36.202 0 25.063 21.203 50.953 55.485 50.953 17.765 0 34.015-7.437 48.062-23.968v-1.5l-11.156-12.813C89.5-35.25 75.047-28.094 59.891-28.094c-18.86 0-30.97-11.703-30.97-27.672 0-18.047 15-27.812 46.954-27.812h19.688l1.374-1.375-.14-41.172h29.328l1.11-1.516-6.61-13.359H-5.515l-1.094 1.516zm0 0"/></symbol></defs><use xlink:href="#a5c533a6a" x="64.68945" y="191.25"/></svg>