<?xml version='1.0' encoding='UTF-8'?>
<svg xmlns="http://www.w3.org/2000/svg" xmlns:xlink="http://www.w3.org/1999/xlink" width="250px" height="250px" viewBox="0 0 250 250" y="0px" x="0px" enable-background="new 0 0 250 250"><defs><symbol overflow="visible" id="2fe6d736a"><path d="M0-126.125h89.922v23.813c-12.953-3.297-25.484-4.954-37.594-4.954-24.234 0-42 12.938-42 34.016 0 23.953 23 43.781 48.063 43.781 11.703 0 22.297-3.297 31.53-10.187L89.36-2.61l15.422 4.125L106.156 0l-.547-126.125h24.922l1.11-1.516L125.03-141H-5.516l-1.093 1.516zm50.672 34.969c4.406-1.094 9.64-1.516 15.422-1.516 7.844 0 15.969.969 24.094 3.031v15.829c0 10.203-5.5 17.5-12.672 22.03zM68.844-47.5c-5.36 1.922-11.281 3.031-17.625 3.031-16.938 0-24.64-9.234-24.64-20.25 0-10.469 4.812-18.172 14.452-23.125zm0 0"/></symbol></defs><use xlink:href="#2fe6d736a" x="62.48633" y="191.25"/></svg>