<?xml version='1.0' encoding='UTF-8'?>
<svg xmlns="http://www.w3.org/2000/svg" xmlns:xlink="http://www.w3.org/1999/xlink" width="250px" height="250px" viewBox="0 0 250 250" y="0px" x="0px" enable-background="new 0 0 250 250"><defs><symbol overflow="visible" id="75515b9fa"><path d="M0-126.125h87.438v38.14c-14.876-1.515-28.922-2.624-41.579-2.624-9.922 0-19.14 1.109-26.578 4.406-6.61 3.031-9.781 7.437-9.781 12.266 0 12.109 17.906 30.28 24.094 30.28 4 0 7.172-1.64 9.234-5.218.828-1.656 1.375-5.797 1.375-11.844v-10.468c5.781-1.797 13.625-2.626 22.719-2.626 7.297 0 13.906.422 20.516 1.11L86.89-2.61l15.562 4.125L103.828 0l-.687-126.125h24.921l1.094-1.516-6.61-13.359H-5.515l-1.093 1.516zm0 0"/></symbol></defs><use xlink:href="#75515b9fa" x="63.72559" y="191.25"/></svg>