<?xml version='1.0' encoding='UTF-8'?>
<svg xmlns="http://www.w3.org/2000/svg" xmlns:xlink="http://www.w3.org/1999/xlink" width="250px" height="250px" viewBox="0 0 250 250" y="0px" x="0px" enable-background="new 0 0 250 250"><defs><symbol overflow="visible" id="3ab47631a"><path d="M67.328-113.469l4.828-3.578c-8.812-19.406-14.594-32.219-34.015-32.219-15 0-27.125 11.297-27.125 26.985 0 13.922 10.046 26.719 26.718 38.281-3.718 5.234-4.968 10.188-4.968 15.156 0 7.985 4.406 16.11 12.53 24.375 10.75 11.016 22.454 15 33.876 15 9.36 0 19.687-3.437 27.125-9.218L105.75-2.61l15.563 4.125L122.686 0 122-126.125h24.922l1.094-1.516-6.61-13.359H76.97l-1.094 1.516 6.61 13.359h23.812v50.25c0 9.922-3.438 16.672-9.906 21.484-9.36 6.75-17.766 9.094-27.266 9.094-9.36 0-19.828-5.781-19.828-16.11 0-12.812 11.844-19.421 36.484-23.421l.688-1.375-10.328-14.86c-15.547 3.297-25.875 5.5-27.813 5.5-9.36 0-21.484-5.093-21.484-17.484 0-9.922 6.89-19.14 19.015-19.14 9.36 0 14.172 6.062 20.516 18.718zm0 0"/></symbol></defs><use xlink:href="#3ab47631a" x="54.29346" y="191.25"/></svg>