<?xml version='1.0' encoding='UTF-8'?>
<svg xmlns="http://www.w3.org/2000/svg" xmlns:xlink="http://www.w3.org/1999/xlink" width="250px" height="250px" viewBox="0 0 250 250" y="0px" x="0px" enable-background="new 0 0 250 250"><defs><symbol overflow="visible" id="8c73301ea"><path d="M0-135.516h87.594v18.641c0 2.36-1.344 3.844-4 3.844H65.688c-19.376 0-33.141 2.062-40.985 6.797-8.281 5.187-12.422 13.03-12.422 23.234 0 11.25 6.656 22.484 18.64 33.281-4.296 6.516-6.218 13.766-6.218 21.172 0 34.469 33.297 56.063 87 69.672h1.031l10.954-17.594c-46.016-4.734-81.22-16.875-81.22-44.843 0-23.813 31.063-35.797 46-35.797 12.141 0 17.016 4.593 17.016 10.656 0 9.766-12.875 17.906-29.875 25.297C81.08-14.344 85.656-9.61 89.953-5.625h1.031C108-13.469 119.25-23.531 119.25-37.281c0-9.328-4.297-19.094-11.25-25.89-6.953-6.813-15.39-11.548-27.813-11.548-17.156 0-30.921 6.516-42.906 16.719-4.734-4.14-7.25-9.469-7.25-16.125 0-4.734 1.782-9.61 6.516-13.61 6.203-5.468 21-8.437 40.094-8.437 9.312 0 17.75.156 26.187.453l1.766-2.078-.297-37.719h27.234l1.172-1.64-7.094-14.344H-5.92l-1.188 1.625zm0 0"/></symbol></defs><use xlink:href="#8c73301ea" x="62.19556" y="201.5"/></svg>