<?xml version='1.0' encoding='UTF-8'?>
<svg xmlns="http://www.w3.org/2000/svg" xmlns:xlink="http://www.w3.org/1999/xlink" width="250px" height="250px" viewBox="0 0 250 250" y="0px" x="0px" enable-background="new 0 0 250 250"><defs><symbol overflow="visible" id="b8efc9dba"><path d="M0-126.125h136.313V-74.5c-5.922 4.14-11.141 6.063-17.891 6.063-4.828 0-9.094-.97-12.125-3.032C104.922-80 101.75-88.406 95.14-96.39c-6.61-7.984-15.422-12.937-26.157-12.937-8.953 0-18.03 2.469-26.984 6.187v1.25l7.984 17.344c8.532-3.719 17.078-6.328 24.922-6.328 12.25 0 19.281 7.984 19.281 17.203 0 16.11-13.218 26.86-28.374 26.86-17.626 0-34.141-15.282-49.985-42.141l-7.844 6.062v.97c21.203 37.171 42.688 54.109 64.86 54.109 15.562 0 34.015-10.875 34.281-32.36l.547-.281c7.578 5.375 14.61 7.86 20.516 7.86 2.906 0 5.515-.423 8.125-1.516l-.547 51.5 15.422 4.125L152.563 0l-.547-126.125h24.922l1.109-1.516-6.61-13.359H-5.516l-1.093 1.516zm0 0"/></symbol></defs><use xlink:href="#b8efc9dba" x="39.28467" y="191.25"/></svg>