<?xml version='1.0' encoding='UTF-8'?>
<svg xmlns="http://www.w3.org/2000/svg" xmlns:xlink="http://www.w3.org/1999/xlink" width="250px" height="250px" viewBox="0 0 250 250" y="0px" x="0px" enable-background="new 0 0 250 250"><defs><symbol overflow="visible" id="39f9486fa"><path d="M0-126.125h89.922v23.813c-12.953-3.297-25.484-4.954-37.594-4.954-24.234 0-42 12.938-42 34.016 0 23.953 23 43.781 48.063 43.781 11.703 0 22.297-3.297 31.53-10.187L89.36-2.61l15.422 4.125L106.156 0l-.547-126.125h24.922l1.11-1.516L125.03-141H-5.516l-1.093 1.516zm90.188 37.031v14.735c0 22.718-27.672 29.328-38.97 29.328-16.374 0-24.093-9.219-24.093-19.688 0-13.36 10.328-27.265 38.969-27.265 7.844 0 15.969.828 24.094 2.89zm0 0"/></symbol></defs><use xlink:href="#39f9486fa" x="62.48633" y="191.25"/></svg>