<?xml version='1.0' encoding='UTF-8'?>
<svg xmlns="http://www.w3.org/2000/svg" xmlns:xlink="http://www.w3.org/1999/xlink" width="250px" height="250px" viewBox="0 0 250 250" y="0px" x="0px" enable-background="new 0 0 250 250"><defs><symbol overflow="visible" id="75515b9fa"><path d="M0-135.516h93.953v40.97c-15.984-1.626-31.078-2.798-44.687-2.798-10.657 0-20.563 1.172-28.547 4.735-7.11 3.25-10.516 7.984-10.516 13.156 0 13.031 19.235 32.547 25.89 32.547 4.298 0 7.704-1.766 9.923-5.61.89-1.78 1.468-6.218 1.468-12.734v-11.234c6.22-1.922 14.657-2.813 24.422-2.813 7.844 0 14.938.438 22.047 1.172L93.36-2.812l16.72 4.437L111.546 0l-.734-135.516h26.78l1.188-1.64-7.11-14.344H-5.921l-1.187 1.625zm0 0"/></symbol></defs><use xlink:href="#75515b9fa" x="59.1626" y="201.5"/></svg>