<?xml version='1.0' encoding='UTF-8'?>
<svg xmlns="http://www.w3.org/2000/svg" xmlns:xlink="http://www.w3.org/1999/xlink" width="250px" height="250px" viewBox="0 0 250 250" y="0px" x="0px" enable-background="new 0 0 250 250"><defs><symbol overflow="visible" id="35cc0593a"><path d="M0-135.516h86.844L87-110.672c0 2.672-1.484 4.14-4.438 4.14H62.876c-29.14 0-50 12.876-50 39.22 0 29 27.813 56.218 60.953 56.218 30.469 0 52.516-21.156 52.516-43.64 0-14.5-6.656-28.563-22.485-42.172l-.296-38.61h39.5l1.187-1.64-7.094-14.344H-5.922l-1.187 1.625zm95.578 46c10.203 6.813 14.344 14.797 14.344 23.235 0 19.234-19.531 38.015-44.672 38.015-20.422 0-34.031-13.609-34.031-31.203 0-18.797 15.531-30.047 50.156-30.047zm0 0"/></symbol></defs><use xlink:href="#35cc0593a" x="56.42554" y="201.5"/></svg>