<?xml version='1.0' encoding='UTF-8'?>
<svg xmlns="http://www.w3.org/2000/svg" xmlns:xlink="http://www.w3.org/1999/xlink" width="250px" height="250px" viewBox="0 0 250 250" y="0px" x="0px" enable-background="new 0 0 250 250"><defs><symbol overflow="visible" id="a2860142a"><path d="M0-126.125h81.656v24.234a113.572 113.572 0 0 0-31.39-4.406c-22.594 0-39.938 12.11-39.938 32.766 0 21.75 17.625 40.89 42.828 40.89 9.64 0 19.266-3.156 28.078-10.875l.422.282L81.11-2.61l15 4.125L97.484 0l-.265-57.828c10.875-13.64 23.672-23.406 35.515-23.406 7.172 0 10.75 4.406 10.75 11.14 0 12.531-8.953 26.86-22.03 41.86l14.452 10.609h1.375c11.438-14.188 19.688-28.5 19.688-43.656 0-18.438-13.485-34.828-31.39-34.828-10.735 0-20.11 4.953-28.235 12.937l-.406-.266v-42.687h71.874l1.11-1.516-6.61-13.359H-5.516l-1.093 1.516zm81.797 58.516C69.266-54.11 57-47.5 45.297-47.5c-11.422 0-18.453-5.922-18.453-17.36 0-14.312 14.61-27.265 33.875-27.265 7.297 0 14.328.828 21.078 2.203zm0 0"/></symbol></defs><use xlink:href="#a2860142a" x="43.34668" y="191.25"/></svg>