<?xml version='1.0' encoding='UTF-8'?>
<svg xmlns="http://www.w3.org/2000/svg" xmlns:xlink="http://www.w3.org/1999/xlink" width="250px" height="250px" viewBox="0 0 250 250" y="0px" x="0px" enable-background="new 0 0 250 250"><defs><symbol overflow="visible" id="e4c2f535a"><path d="M0-126.125h81.656v22.438c0 2.484-1.375 3.859-4.14 3.859H58.39c-27.141 0-46.688 12.25-46.688 36.484 0 25.485 23 50.813 56.047 50.813 8.531 0 16.797-1.375 25.063-5.5 6.609 6.61 9.64 12.797 9.64 18.718 0 8.532-6.203 15.422-15.703 21.75l16.39 13.094h1.094c9.641-6.61 16.25-14.593 16.25-25.89 0-8.532-5.515-19.282-19.828-32.36 7.703-5.234 11.703-11.437 11.703-18.86 0-5.655-2.203-10.608-6.328-14.874-3.86-3.86-8.265-5.922-13.781-5.922-9.625 0-16.656 7.844-16.656 15.969 0 5.515 1.797 9.922 5.375 13.5-7.031 3.437-13.766 5.36-21.203 5.36-18.875 0-31.125-12.25-31.125-28.22 0-18.047 15.015-28.093 46.953-28.093h20.25l1.375-1.375-.14-40.891h30.702l1.11-1.516L122.28-141H-5.516l-1.093 1.516zm0 0"/></symbol></defs><use xlink:href="#e4c2f535a" x="63.86328" y="191.25"/></svg>