<?xml version='1.0' encoding='UTF-8'?>
<svg xmlns="http://www.w3.org/2000/svg" xmlns:xlink="http://www.w3.org/1999/xlink" width="250px" height="250px" viewBox="0 0 250 250" y="0px" x="0px" enable-background="new 0 0 250 250"><defs><symbol overflow="visible" id="68dde23ba"><path d="M0-135.516h95.281v28.25c-10.5-.734-21.156-.89-32.703-.89-38.172 0-50.594 13.61-50.594 35.656 0 22.938 14.344 47.938 42.75 73.984h1.344l12.719-18.203C42.016-33 27.078-50.297 27.078-65.39c0-13.171 12.281-24.421 45.266-24.421 8 0 15.687 0 22.937.453l-.594 86.546 16.579 4.438L112.734 0l-.593-135.516h26.78l1.188-1.64L133-151.5H-5.922l-1.187 1.625zm0 0"/></symbol></defs><use xlink:href="#68dde23ba" x="58.49683" y="201.5"/></svg>