<?xml version='1.0' encoding='UTF-8'?>
<svg xmlns="http://www.w3.org/2000/svg" xmlns:xlink="http://www.w3.org/1999/xlink" width="250px" height="250px" viewBox="0 0 250 250" y="0px" x="0px" enable-background="new 0 0 250 250"><defs><symbol overflow="visible" id="d431a10ba"><path d="M0-135.516h91.578v17.297c0 2.813-1.625 3.86-3.703 3.86H70.719c-12.875 0-23.375 1.03-30.922 3.546-10.953 3.704-15.531 10.657-15.531 20.266 0 6.36 2.953 13.469 8.578 21.016 8.734 11.687 17.453 17.156 26.484 17.156 11.094 0 26.781-5.469 38.016-5.469 6.515 0 9.922 2.516 9.922 7.25 0 11.828-16.579 25.438-34.172 25.438-22.344 0-40.985-15.969-57.563-43.047L7.11-62.578v1.031C27.375-26.922 50.891-6.657 79.75-6.657c22.781 0 40.984-16.874 40.984-32.843 0-7.11-1.484-13.469-4.156-19.39-5.312-11.829-12.719-18.047-26.187-18.047-14.344 0-28.11 5.328-38.016 5.328-7.547 0-11.688-3.11-11.688-8.875 0-9.907 7.844-17.157 38.907-17.157 10.062 0 18.797 0 27.078.297l1.484-1.781-.156-36.39h28.406l1.188-1.641-7.11-14.344H-5.922l-1.187 1.625zm0 0"/></symbol></defs><use xlink:href="#d431a10ba" x="59.75439" y="201.5"/></svg>