<?xml version='1.0' encoding='UTF-8'?>
<svg xmlns="http://www.w3.org/2000/svg" xmlns:xlink="http://www.w3.org/1999/xlink" width="250px" height="250px" viewBox="0 0 250 250" y="0px" x="0px" enable-background="new 0 0 250 250"><defs><symbol overflow="visible" id="2fe6d736a"><path d="M0-135.516h96.61v25.594c-13.907-3.562-27.376-5.328-40.391-5.328-26.032 0-45.125 13.906-45.125 36.547 0 25.734 24.703 47.047 51.64 47.047 12.578 0 23.97-3.563 33.875-10.953l-.593 39.797 16.578 4.437L114.063 0l-.579-135.516h26.766l1.188-1.64-7.094-14.344H-5.922l-1.187 1.625zm54.453 37.578c4.734-1.187 10.344-1.624 16.563-1.624 8.437 0 17.156 1.03 25.89 3.25v17.015c0 10.938-5.922 18.781-13.61 23.672zM73.97-51.047c-5.766 2.078-12.125 3.266-18.938 3.266-18.187 0-26.484-9.922-26.484-21.75 0-11.25 5.187-19.531 15.547-24.86zm0 0"/></symbol></defs><use xlink:href="#2fe6d736a" x="57.83105" y="201.5"/></svg>