<?xml version='1.0' encoding='UTF-8'?>
<svg xmlns="http://www.w3.org/2000/svg" xmlns:xlink="http://www.w3.org/1999/xlink" width="250px" height="250px" viewBox="0 0 250 250" y="0px" x="0px" enable-background="new 0 0 250 250"><defs><symbol overflow="visible" id="f6fed2d7a"><path d="M0-135.516h52.813c1.343 6.063 1.64 12.72 1.64 18.047 0 9.016-1.937 17.016-5.031 22.485-5.781-.594-12.281-.891-18.797-.891-7.39 0-11.828 1.781-14.047 4.89-1.937 2.516-2.672 5.032-2.672 7.844 0 5.313 3.703 14.204 10.953 24.704C39.062-38.017 59.922-18.203 85.516 1.483h1.78L97.5-17.453C72.797-30.922 52.219-45.125 39.797-59.766c19.234-9.922 32.25-24.859 32.25-50.906 0-8.422-.594-16.86-2.219-24.844h36.406l1.172-1.64-7.094-14.344H-5.921l-1.187 1.625zm0 0"/></symbol></defs><use xlink:href="#f6fed2d7a" x="74.84521" y="201.5"/></svg>