<?xml version='1.0' encoding='UTF-8'?>
<svg xmlns="http://www.w3.org/2000/svg" xmlns:xlink="http://www.w3.org/1999/xlink" width="250px" height="250px" viewBox="0 0 250 250" y="0px" x="0px" enable-background="new 0 0 250 250"><defs><symbol overflow="visible" id="5915dbf2a"><path d="M0-126.125h111.39v10.875c-10.328 2.75-19 11.563-19 25.61 0 15.828 10.876 32.64 30.157 47.64-13.625 12.672-32.5 21.625-50.531 21.625-19.688 0-25.063-10.469-25.063-17.219 0-9.64 11.438-19.281 37.453-19.968l.547-1.376-8.39-15.562c-12.266 1.11-22.454 3.719-30.157 7.86-13.36-5.782-17.625-11.704-17.625-17.626 0-7.03 6.328-12.53 20.516-12.53 5.781 0 15.969.952 25.75 4.952l.828-.969-8.953-19.546c-7.297-2.063-14.328-2.75-19.422-2.75-17.89 0-32.766 8.53-32.766 24.78 0 11.423 7.157 22.72 21.485 31.813-3.313 4.125-5.094 8.938-5.094 14.453 0 18.172 19.406 39.376 50.25 39.376 37.047 0 72.703-30.563 72.703-67.876 0-10.874-2.89-22.03-11.281-31.53-4.688-5.094-10.203-8.954-16.11-10.75v-11.282h46.672l1.094-1.516-6.61-13.359H-5.515l-1.093 1.516zm107.406 45.297c0-11.563 9.5-19.828 19-19.828s15.828 8.406 15.828 20.375c0 10.187-4.406 20.515-11.703 29.61h-.828c-14.86-9.5-22.297-20.11-22.297-30.157zm0 0"/></symbol></defs><use xlink:href="#5915dbf2a" x="41.07471" y="191.25"/></svg>