<?xml version='1.0' encoding='UTF-8'?>
<svg xmlns="http://www.w3.org/2000/svg" xmlns:xlink="http://www.w3.org/1999/xlink" width="250px" height="250px" viewBox="0 0 250 250" y="0px" x="0px" enable-background="new 0 0 250 250"><defs><symbol overflow="visible" id="8c73301ea"><path d="M0-126.125h81.516v17.344c0 2.203-1.235 3.578-3.72 3.578H61.142c-18.047 0-30.844 1.937-38.141 6.344-7.719 4.812-11.578 12.109-11.578 21.609 0 10.469 6.203 20.938 17.36 30.984-4 6.063-5.782 12.813-5.782 19.688 0 32.094 30.984 52.187 80.953 64.86h.969l10.187-16.391C72.297 17.484 39.516 6.203 39.516-19.83c0-22.171 28.922-33.327 42.828-33.327 11.297 0 15.828 4.281 15.828 9.922 0 9.078-11.969 16.656-27.813 23.547 5.094 6.328 9.36 10.734 13.36 14.453h.969c15.828-7.297 26.296-16.657 26.296-29.47 0-8.671-4-17.765-10.468-24.093-6.47-6.328-14.313-10.734-25.891-10.734-15.969 0-28.766 6.047-39.922 15.547-4.406-3.844-6.75-8.813-6.75-15 0-4.407 1.656-8.954 6.063-12.672 5.78-5.094 19.547-7.844 37.312-7.844 8.672 0 16.516.14 24.375.406l1.64-1.922-.265-35.109h25.328l1.11-1.516-6.61-13.359H-5.516l-1.093 1.516zm0 0"/></symbol></defs><use xlink:href="#8c73301ea" x="66.54834" y="191.25"/></svg>