<?xml version='1.0' encoding='UTF-8'?>
<svg xmlns="http://www.w3.org/2000/svg" xmlns:xlink="http://www.w3.org/1999/xlink" width="250px" height="250px" viewBox="0 0 250 250" y="0px" x="0px" enable-background="new 0 0 250 250"><defs><symbol overflow="visible" id="d3a90a1da"><path d="M0-126.125h33.594c.687 6.61.968 14.734.968 23.125 0 9.094-.28 17.36-1.109 25.484-9.36.688-16.922 1.922-19.687 4.672-2.204 2.203-2.891 5.094-2.891 7.844 0 4.828 2.484 10.203 7.578 15.984 6.75 7.985 12.25 11.703 15.828 11.703 5.094 0 8.813-2.89 11.157-10.062 3.03-8.938 4.687-24.36 4.687-43.922 0-12.531-.422-24.234-1.516-34.828h48.328L96.391-2.609l15.562 4.125L113.328 0l-.562-126.125h24.937l1.094-1.516-6.61-13.359H-5.516l-1.093 1.516zm0 0"/></symbol></defs><use xlink:href="#d3a90a1da" x="58.90625" y="191.25"/></svg>