<?xml version='1.0' encoding='UTF-8'?>
<svg xmlns="http://www.w3.org/2000/svg" xmlns:xlink="http://www.w3.org/1999/xlink" width="250px" height="250px" viewBox="0 0 250 250" y="0px" x="0px" enable-background="new 0 0 250 250"><defs><symbol overflow="visible" id="951d05b4a"><path d="M0-126.125h17.766c-.422 11.156-.422 23.125-.422 34.281 0 19.969 4.406 30.563 11.984 38 9.64 9.375 21.063 14.469 32.219 14.469 9.234 0 17.36-2.625 24.656-8.688l-.562 45.454 15.562 4.125L102.578 0l-.687-126.125h24.921l1.11-1.516-6.61-13.359H-5.516l-1.093 1.516zm76.703 64.156c-6.61 5.235-14.047 8.266-22.453 8.266-14.313 0-20.516-10.734-20.516-34.14 0-9.782 0-19.563.141-29.329l.406-.281zm6.328-7.703l-42.265-56.187.265-.266h45.172v43.375c0 5.64-.969 9.64-2.766 12.656zm0 0"/></symbol></defs><use xlink:href="#951d05b4a" x="64.34521" y="191.25"/></svg>