<?xml version='1.0' encoding='UTF-8'?>
<svg xmlns="http://www.w3.org/2000/svg" xmlns:xlink="http://www.w3.org/1999/xlink" width="250px" height="250px" viewBox="0 0 250 250" y="0px" x="0px" enable-background="new 0 0 250 250"><defs><symbol overflow="visible" id="3b4744aea"><path d="M0-126.125h23.828c-1.797 3.578-2.484 7.016-2.484 10.328 0 16.516 15.828 30.422 37.593 43.64-4.14 3.313-8.671 6.063-12.53 7.86-8.126-4-15.282-6.484-23.688-6.484-9.36 0-13.5 3.86-13.5 8.812 0 2.625 1.39 5.922 4 9.64 5.375 7.579 9.781 10.75 13.625 10.75 5.515 0 11.718-1.39 17.906-3.593C56.594-25.344 71.328-8.266 90.875 4.688h1.25l7.297-18.594c-15.844-8.266-30.016-19.969-42.547-35.672 22.719-12.938 37.86-27.938 37.86-46.39 0-10.188-4.266-20.391-13.766-30.157h38l-.547 123.516 15.562 4.125L135.36 0l-.562-126.125h24.937l1.094-1.516-6.61-13.359H-5.515l-1.093 1.516zm60.031-.828C71.188-126.953 80-116.484 80-105.61c0 10.468-3.984 16.796-11.563 24.5C50.814-86.75 39.25-95.141 39.25-108.094c0-10.875 8.125-18.86 20.781-18.86zm0 0"/></symbol></defs><use xlink:href="#3b4744aea" x="47.89062" y="191.25"/></svg>