<?xml version='1.0' encoding='UTF-8'?>
<svg xmlns="http://www.w3.org/2000/svg" xmlns:xlink="http://www.w3.org/1999/xlink" width="250px" height="250px" viewBox="0 0 250 250" y="0px" x="0px" enable-background="new 0 0 250 250"><defs><symbol overflow="visible" id="0b01f499a"><path d="M0-126.125h17.766c-.422 11.156-.422 23.125-.422 34.281 0 19.969 4.406 30.563 11.984 38 9.64 9.375 21.063 14.469 32.219 14.469 23.14 0 32.094-17.5 32.094-44.484v-42.266h29.328l-.563 123.516 15.563 4.125L139.344 0l-.547-126.125h24.922l1.11-1.516-6.61-13.359H-5.516l-1.093 1.516zm77.39 0v37.86c0 30.703-17.5 34.562-23.14 34.562-14.313 0-20.094-10.734-20.094-34.14 0-12.813.125-25.485.407-38.282zm0 0"/></symbol></defs><use xlink:href="#0b01f499a" x="45.89404" y="191.25"/></svg>