<?xml version='1.0' encoding='UTF-8'?>
<svg xmlns="http://www.w3.org/2000/svg" xmlns:xlink="http://www.w3.org/1999/xlink" width="250px" height="250px" viewBox="0 0 250 250" y="0px" x="0px" enable-background="new 0 0 250 250"><defs><symbol overflow="visible" id="d3a90a1da"><path d="M0-135.516h36.094c.75 7.094 1.047 15.828 1.047 24.844 0 9.766-.297 18.64-1.188 27.375-10.062.734-18.203 2.078-21.156 5.031-2.375 2.375-3.11 5.47-3.11 8.438 0 5.172 2.657 10.937 8.141 17.156C27.078-44.094 33-40.094 36.844-40.094c5.468 0 9.468-3.11 11.984-10.797 3.25-9.625 5.031-26.187 5.031-47.203 0-13.453-.453-26.031-1.64-37.422h51.937l-.594 132.703 16.72 4.438L121.765 0l-.594-135.516h26.781l1.188-1.64-7.11-14.344H-5.922l-1.187 1.625zm0 0"/></symbol></defs><use xlink:href="#d3a90a1da" x="53.98438" y="201.5"/></svg>