<?xml version='1.0' encoding='UTF-8'?>
<svg xmlns="http://www.w3.org/2000/svg" xmlns:xlink="http://www.w3.org/1999/xlink" width="250px" height="250px" viewBox="0 0 250 250" y="0px" x="0px" enable-background="new 0 0 250 250"><defs><symbol overflow="visible" id="357e5644a"><path d="M0-135.516h88.766v23.375c0 2.657-1.47 4.141-4.438 4.141H64.36c-32.703 0-51.484 15.969-51.484 41.125 0 15.234 6.797 28.563 17.61 39.953 14.5 14.938 33.874 21.297 49.562 21.297 26.922 0 45.562-14.203 45.562-34.031 0-8.578-2.812-16.422-10.203-23.813-7.11-7.25-15.39-11.547-25.312-11.547-16.563 0-25.594 12.875-25.594 24.86 0 11.984 6.656 20.422 16.578 26.922v.75c-3.547 1.03-7.547 1.328-11.844 1.328-19.515 0-37.718-17.453-37.718-37.578 0-20.86 15.53-32.11 50.75-32.11h21.75l1.468-1.484-.14-43.188h32.844l1.187-1.64-7.11-14.344H-5.921l-1.187 1.625zM90.547-24.703c-5.922-5.328-9.328-11.25-9.328-17.766 0-8.875 7.25-18.484 18.203-18.484 6.953 0 12.125 5.172 12.125 12.578 0 11.234-8.281 18.64-21 23.672zm0 0"/></symbol></defs><use xlink:href="#357e5644a" x="58.8667" y="201.5"/></svg>