<?xml version='1.0' encoding='UTF-8'?>
<svg xmlns="http://www.w3.org/2000/svg" xmlns:xlink="http://www.w3.org/1999/xlink" width="250px" height="250px" viewBox="0 0 250 250" y="0px" x="0px" enable-background="new 0 0 250 250"><defs><symbol overflow="visible" id="68dde23ba"><path d="M0-126.125h88.672v26.297c-9.766-.688-19.688-.828-30.422-.828-35.531 0-47.094 12.672-47.094 33.187 0 21.344 13.36 44.61 39.797 68.844h1.234l11.844-16.938c-24.922-15.14-38.828-31.25-38.828-45.296 0-12.25 11.422-22.72 42.125-22.72 7.438 0 14.594 0 21.344.407l-.547 80.563 15.422 4.125L104.922 0l-.547-126.125h24.922l1.094-1.516L123.78-141H-5.516l-1.093 1.516zm0 0"/></symbol></defs><use xlink:href="#68dde23ba" x="63.10596" y="191.25"/></svg>