<?xml version='1.0' encoding='UTF-8'?>
<svg xmlns="http://www.w3.org/2000/svg" xmlns:xlink="http://www.w3.org/1999/xlink" width="250px" height="250px" viewBox="0 0 250 250" y="0px" x="0px" enable-background="new 0 0 250 250"><defs><symbol overflow="visible" id="97222ccda"><path d="M128.328-69.531c-7.156 3.984-14.594 6.734-22.984 6.734-4.969 0-10.203-.953-15.844-3.156-5.094-4.828-10.047-7.719-15.563-7.719-12.796 0-26.296 7.031-37.03 7.031-7.032 0-10.61-2.89-10.61-8.265 0-9.094 7.031-15.969 35.937-15.969 9.375 0 21.625 0 29.328.266l1.376-1.641v-33.875h35.39zM0-126.125h77.656v16.11c0 2.609-1.515 3.578-3.437 3.578H53.984c-11.984 0-21.765.968-28.78 3.296-10.188 3.454-14.329 9.782-14.329 18.454 0 5.921 3.313 12.953 8.547 19.968 8.125 10.875 17.484 14.875 25.875 14.875 9.781 0 24.516-7.297 35.25-7.297 5.781 0 8.687 3.578 8.687 7.157 0 11.703-15.015 24.375-33.187 28.093-5.922-6.89-13.219-11.984-24.375-11.984-7.438 0-10.875 4.828-10.875 9.094 0 4.406 1.781 8.812 5.094 13.218C30.984-5.516 35.938-4 44.063-4c3.312 0 6.328-.266 9.359-.813C66.094 23.828 80.547 30.844 99.547 32.36h.969l6.609-18.172C84.547 11.297 68.703 5.095 62.656-5.78c24.64-5.922 39.922-17.625 39.922-32.64 0-5.235-1.375-10.454-4.953-15.423l.547-.406c7.86 4.125 15.156 6.063 21.766 6.063 2.75 0 5.359-.422 8.124-1.11l-.28 46.688 15.421 4.125L144.578 0l-.547-126.125h24.922l1.094-1.516-6.61-13.359H-5.516l-1.093 1.516zm0 0"/></symbol></defs><use xlink:href="#97222ccda" x="43.27783" y="191.25"/></svg>