<?xml version='1.0' encoding='UTF-8'?>
<svg xmlns="http://www.w3.org/2000/svg" xmlns:xlink="http://www.w3.org/1999/xlink" width="250px" height="250px" viewBox="0 0 250 250" y="0px" x="0px" enable-background="new 0 0 250 250"><defs><symbol overflow="visible" id="e109320ba"><path d="M39.953-122.063c13.453-8.718 25.594-13.609 35.656-13.609 10.047 0 17.454 6.813 17.454 15.531 0 8-4.594 14.5-11.985 19.688-10.36 0-23.078 3.547-37.437 9.469l-.297 1.03 11.39 17.75c11.25-4.874 20.422-7.546 27.375-7.546 13.61 0 21.313 8.297 21.313 20.86 0 14.796-14.953 25.89-29.594 25.89-20.422 0-39.203-17.156-55.922-49.86l-8.875 5.485v1.031c18.188 36.39 40.39 62.735 72.344 62.735 20.703 0 37.125-14.204 37.125-34.766 0-5.328-.14-10.063-1.766-14.5l.297-.297c6.203 4.734 13.906 7.094 22.188 7.094 4.734 0 8.875-.438 12.875-1.625l-.156 54.89 16.421 4.438L169.844 0l-.594-135.516h26.781l1.188-1.64-7.11-14.344h-72.187l-1.188 1.625 7.094 14.36h28.406v54.437c-7.25 5.187-15.672 7.547-24.547 7.547-8.437 0-14.359-1.922-18.062-5.766-2.656-2.812-5.766-5.781-10.063-8.578 5.188-5.625 8-12.281 8-21.016 0-10.5-3.406-19.828-10.062-28.265-8.875-10.938-19.828-16.86-33-16.86-10.64 0-23.078 4.875-36.094 13.61v1.187zm0 0"/></symbol></defs><use xlink:href="#e109320ba" x="29.94263" y="201.5"/></svg>