<?xml version='1.0' encoding='UTF-8'?>
<svg xmlns="http://www.w3.org/2000/svg" xmlns:xlink="http://www.w3.org/1999/xlink" width="250px" height="250px" viewBox="0 0 250 250" y="0px" x="0px" enable-background="new 0 0 250 250"><defs><symbol overflow="visible" id="4f8d2c0aa"><path d="M0-126.125h15.828c-2.328 3.156-3.437 7.016-3.437 11.281 0 12.39 8.546 23.406 24.515 33.61-2.89 3.843-4.265 8.25-4.265 12.937 0 10.047 4.406 18.719 13.484 26.844 9.781 8.687 19.828 11.437 30.844 11.437 9.36 0 18.172-2.89 25.61-8.672l-.548 36.079 15.563 4.125L118.969 0l-.688-126.125h24.922l1.11-1.516-6.61-13.359H-5.516l-1.093 1.516zm102.578 0v50.25c0 9.922-3.437 16.672-9.906 21.484-9.36 6.75-17.766 9.36-27.266 9.36-10.047 0-16.656-6.875-16.656-13.766 0-11.297 8.39-18.594 33.172-26.437l.703-1.375-10.61-13.766c-10.468 3.031-18.593 6.047-24.64 9.906C36.219-92.39 30.703-99 30.703-106.719c0-11.422 9.64-19.406 33.188-19.406zm0 0"/></symbol></defs><use xlink:href="#4f8d2c0aa" x="56.15234" y="191.25"/></svg>