<?xml version='1.0' encoding='UTF-8'?>
<svg xmlns="http://www.w3.org/2000/svg" xmlns:xlink="http://www.w3.org/1999/xlink" width="250px" height="250px" viewBox="0 0 250 250" y="0px" x="0px" enable-background="new 0 0 250 250"><defs><symbol overflow="visible" id="7f4fc3dda"><path d="M0-126.125h80.969c1.515 5.64 2.203 11.016 2.203 15.828 0 13.5-7.719 18.594-20.25 22.031l-21.344 5.782-.547 1.375 10.875 15.703c10.89-3.719 20.25-6.328 27.688-6.328 9.36 0 18.578 5.234 18.578 17.203 0 20.11-19.547 29.75-30.969 29.75-21.484 0-37.734-19-51.375-48.469l-8.11 4.672v.969c19 43.78 40.891 60.718 65.266 60.718 19.829 0 39.094-14.171 39.094-35.25 0-15.28-5.36-26.015-20.094-42.125 3.985-4.687 6.47-11.156 6.47-20.25 0-5.5-.688-12.656-3.173-21.609h32.094l1.094-1.516-6.61-13.359H-5.516l-1.093 1.516zm0 0"/></symbol></defs><use xlink:href="#7f4fc3dda" x="64.06982" y="191.25"/></svg>