<?xml version='1.0' encoding='UTF-8'?>
<svg xmlns="http://www.w3.org/2000/svg" xmlns:xlink="http://www.w3.org/1999/xlink" width="250px" height="250px" viewBox="0 0 250 250" y="0px" x="0px" enable-background="new 0 0 250 250"><defs><symbol overflow="visible" id="27eeb3bda"><path d="M0-135.516h37.875c5.172 5.766 8.578 11.985 8.578 18.641 0 12.578-14.937 17.453-35.062 24.11L9.906-90.25c9.766 29.438 29.297 54.156 58.297 54.156 11.094 0 21.453-2.218 30.781-9.328l-.593 42.61 16.718 4.437L116.58 0l-.735-135.516h26.781l1.188-1.64-7.11-14.344H-5.922l-1.187 1.625zm98.984 0V-83c0 10.203-3.562 17.156-10.218 21.75-8.422 5.625-17.313 7.984-26.485 7.984-22.031 0-31.218-18.343-31.218-22.78 0-1.782 1.187-2.954 4-4 19.671-7.25 27.671-14.048 27.671-28.25 0-7.11-3.109-16.282-10.218-27.22zm0 0"/></symbol></defs><use xlink:href="#27eeb3bda" x="56.64746" y="201.5"/></svg>