<?xml version='1.0' encoding='UTF-8'?>
<svg xmlns="http://www.w3.org/2000/svg" xmlns:xlink="http://www.w3.org/1999/xlink" width="250px" height="250px" viewBox="0 0 250 250" y="0px" x="0px" enable-background="new 0 0 250 250"><defs><symbol overflow="visible" id="5915dbf2a"><path d="M0-135.516h119.688v11.688c-11.094 2.953-20.407 12.422-20.407 27.516 0 17.015 11.688 35.062 32.39 51.187-14.64 13.61-34.905 23.234-54.296 23.234-21.156 0-26.922-11.25-26.922-18.5 0-10.359 12.281-20.718 40.234-21.453l.594-1.484-9.015-16.719c-13.172 1.188-24.125 4-32.407 8.438-14.343-6.22-18.937-12.579-18.937-18.938 0-7.547 6.812-13.469 22.047-13.469 6.218 0 17.156 1.047 27.656 5.329l.89-1.032-9.609-21.015c-7.844-2.22-15.39-2.954-20.86-2.954-19.233 0-35.218 9.172-35.218 26.626 0 12.28 7.703 24.421 23.078 34.187-3.547 4.438-5.468 9.61-5.468 15.531 0 19.532 20.859 42.313 54 42.313 39.796 0 78.124-32.844 78.124-72.938 0-11.687-3.109-23.672-12.14-33.875-5.031-5.484-10.953-9.625-17.313-11.547v-12.125h50.157l1.187-1.64-7.11-14.344H-5.921l-1.187 1.625zm115.406 48.672c0-12.437 10.203-21.312 20.406-21.312 10.22 0 17.016 9.031 17.016 21.906 0 10.938-4.734 22.047-12.578 31.797h-.875c-15.984-10.203-23.969-21.594-23.969-32.39zm0 0"/></symbol></defs><use xlink:href="#5915dbf2a" x="34.82495" y="201.5"/></svg>