<?xml version='1.0' encoding='UTF-8'?>
<svg xmlns="http://www.w3.org/2000/svg" xmlns:xlink="http://www.w3.org/1999/xlink" width="250px" height="250px" viewBox="0 0 250 250" y="0px" x="0px" enable-background="new 0 0 250 250"><defs><symbol overflow="visible" id="e0b2b8fea"><path d="M88.328-79.89c-9.625 15.39-21.312 21.453-33.14 21.453-13.766 0-18.5-11.25-18.5-36.391 0-13.766.156-26.938.453-40.688h51.187zM0-135.517h19.078c-.437 11.985-.437 24.407-.437 36.391 0 21.453 4.593 32.844 12.718 40.828 10.063 9.766 21.453 15.39 31.672 15.39 9.172 0 17.453-2.656 25.297-9.171l-.594 49.266 16.563 4.437L105.78 0l-.297-64.953c11.688-14.64 25.891-25.438 39.657-25.438 7.687 0 11.53 4.735 11.53 11.985 0 13.453-9.171 31.797-23.218 47.922l15.688 11.406h1.468c12.282-15.25 20.563-33.14 20.563-49.86 0-19.828-14.5-37.437-33.734-37.437-11.532 0-23.079 5.625-31.797 14.203l-.454-.297v-43.047h78.126l1.187-1.64-7.11-14.344H-5.921l-1.187 1.625zm0 0"/></symbol></defs><use xlink:href="#e0b2b8fea" x="36.30444" y="201.5"/></svg>