<?xml version='1.0' encoding='UTF-8'?>
<svg xmlns="http://www.w3.org/2000/svg" xmlns:xlink="http://www.w3.org/1999/xlink" width="250px" height="250px" viewBox="0 0 250 250" y="0px" x="0px" enable-background="new 0 0 250 250"><defs><symbol overflow="visible" id="f6fed2d7a"><path d="M0-126.125h49.156c1.235 5.64 1.516 11.844 1.516 16.797 0 8.39-1.797 15.828-4.688 20.922-5.359-.547-11.422-.828-17.484-.828-6.875 0-11.016 1.656-13.078 4.546-1.797 2.344-2.485 4.688-2.485 7.297 0 4.97 3.454 13.22 10.204 23 13.218 19 32.625 37.453 56.453 55.766h1.64l9.5-17.625C67.75-28.781 48.61-42 37.047-55.625c17.89-9.234 30.016-23.14 30.016-47.375 0-7.844-.563-15.688-2.063-23.125h33.86l1.109-1.516L93.359-141H-5.516l-1.093 1.516zm0 0"/></symbol></defs><use xlink:href="#f6fed2d7a" x="78.32129" y="191.25"/></svg>