<?xml version='1.0' encoding='UTF-8'?>
<svg xmlns="http://www.w3.org/2000/svg" xmlns:xlink="http://www.w3.org/1999/xlink" width="250px" height="250px" viewBox="0 0 250 250" y="0px" x="0px" enable-background="new 0 0 250 250"><defs><symbol overflow="visible" id="7f4fc3dda"><path d="M0-135.516h87c1.625 6.063 2.36 11.828 2.36 17.016 0 14.484-8.282 19.969-21.75 23.672l-22.922 6.203-.594 1.484L55.78-70.28c11.688-3.985 21.75-6.797 29.735-6.797 10.062 0 19.968 5.625 19.968 18.484 0 21.61-21 31.969-33.28 31.969-23.079 0-40.548-20.422-55.188-52.078L8.28-73.672v1.031C28.703-25.594 52.22-7.39 78.406-7.39c21.313 0 42.031-15.25 42.031-37.875 0-16.422-5.78-27.968-21.609-45.28 4.297-5.032 6.953-11.985 6.953-21.75 0-5.923-.734-13.61-3.406-23.22h34.484l1.172-1.64-7.094-14.344H-5.922l-1.187 1.625zm0 0"/></symbol></defs><use xlink:href="#7f4fc3dda" x="59.53247" y="201.5"/></svg>