<?xml version='1.0' encoding='UTF-8'?>
<svg xmlns="http://www.w3.org/2000/svg" xmlns:xlink="http://www.w3.org/1999/xlink" width="250px" height="250px" viewBox="0 0 250 250" y="0px" x="0px" enable-background="new 0 0 250 250"><defs><symbol overflow="visible" id="e0d33fd5a"><path d="M0-126.125h30.844v52.188c-7.438 1.234-12.39 2.89-15.14 4.953-3.454 2.89-5.095 5.78-5.095 8.671 0 9.782 16.938 26.579 24.5 26.579 3.72 0 5.922-1.235 8.407-4.407 2.203-2.75 3.03-6.89 3.03-13.218v-6.203h52.048L98.047-2.61l15.547 4.125L114.969 0l-.688-126.125h24.922l1.11-1.516-6.61-13.359H-5.516l-1.093 1.516zm98.594 53.14h-52.61v-53.14h52.61zm0 0"/></symbol></defs><use xlink:href="#e0d33fd5a" x="58.14893" y="191.25"/></svg>