<?xml version='1.0' encoding='UTF-8'?>
<svg xmlns="http://www.w3.org/2000/svg" xmlns:xlink="http://www.w3.org/1999/xlink" width="250px" height="250px" viewBox="0 0 250 250" y="0px" x="0px" enable-background="new 0 0 250 250"><defs><symbol overflow="visible" id="1ff6df31a"><path d="M0-126.125h127.234v27.266H57.281l-1.093 1.64 6.328 14.594c22.578 2.766 28.093 13.219 28.093 20.11 0 15.703-14.187 23.406-24.515 23.406-18.313 0-35.531-17.766-51.219-56.032l-8.953 4.813v1.094c19.14 47.656 41.86 68.718 67.61 68.718 16.25 0 30.702-12.25 30.702-30.015 0-9.094-3.578-19.688-11.703-32.094h34.703l-.546 80.016 15.421 4.125L143.484 0l-.562-126.125h24.922l1.11-1.516-6.61-13.359H-5.516l-1.093 1.516zm0 0"/></symbol></defs><use xlink:href="#1ff6df31a" x="43.82861" y="191.25"/></svg>