<?xml version='1.0' encoding='UTF-8'?>
<svg xmlns="http://www.w3.org/2000/svg" xmlns:xlink="http://www.w3.org/1999/xlink" width="250px" height="250px" viewBox="0 0 250 250" y="0px" x="0px" enable-background="new 0 0 250 250"><defs><symbol overflow="visible" id="e0b2b8fea"><path d="M82.203-74.36C73.25-60.03 62.375-54.39 51.36-54.39c-12.797 0-17.203-10.47-17.203-33.876 0-12.796.125-25.062.407-37.859h47.64zM0-126.124h17.766c-.422 11.156-.422 22.719-.422 33.875 0 19.953 4.281 30.563 11.843 38 9.375 9.078 19.97 14.313 29.47 14.313 8.546 0 16.25-2.47 23.546-8.532l-.547 45.86 15.422 4.125L98.453 0l-.281-60.453c10.89-13.625 24.11-23.672 36.906-23.672 7.156 0 10.734 4.406 10.734 11.14 0 12.532-8.53 29.61-21.609 44.626l14.594 10.593h1.375c11.437-14.187 19.14-30.843 19.14-46.406 0-18.453-13.5-34.828-31.39-34.828-10.75 0-21.484 5.234-29.61 13.219l-.406-.281v-40.063h72.703l1.094-1.516-6.61-13.359H-5.515l-1.093 1.516zm0 0"/></symbol></defs><use xlink:href="#e0b2b8fea" x="42.45166" y="191.25"/></svg>