<?xml version='1.0' encoding='UTF-8'?>
<svg xmlns="http://www.w3.org/2000/svg" xmlns:xlink="http://www.w3.org/1999/xlink" width="250px" height="250px" viewBox="0 0 250 250" y="0px" x="0px" enable-background="new 0 0 250 250"><defs><symbol overflow="visible" id="07f864d0a"><path d="M0-135.516h18.64v44.235c0 22.484 4.891 31.953 13.313 42.906 3.703 5.031 8.875 10.203 14.797 15.234 15.828 13.907 54.156 24.703 62.734 34.328 2.36 2.657 3.547 5.172 3.547 7.844 0 8.578-8.875 14.5-21.75 21.89l17.469 16.72h1.172c11.39-6.516 18.937-14.797 18.937-26.922 0-9.625-7.093-24.422-16.859-34.328-14.063-14.204-50.313-22.938-64.797-36.688-9.469-9.172-10.516-19.828-10.516-44.094v-41.125h56.376v48.22c0 18.937-7.11 25.155-17.454 32.265l14.485 14.047h.89c15.547-8.735 18.938-18.344 18.938-38.47v-56.062h26.344l1.172-1.64-7.094-14.344H-5.922l-1.187 1.625zm0 0"/></symbol></defs><use xlink:href="#07f864d0a" x="59.82837" y="201.5"/></svg>