<?xml version='1.0' encoding='UTF-8'?>
<svg xmlns="http://www.w3.org/2000/svg" xmlns:xlink="http://www.w3.org/1999/xlink" width="250px" height="250px" viewBox="0 0 250 250" y="0px" x="0px" enable-background="new 0 0 250 250"><defs><symbol overflow="visible" id="357e5644a"><path d="M0-126.125h82.625v21.75c0 2.484-1.39 3.86-4.14 3.86H59.89c-30.422 0-47.907 14.874-47.907 38.28 0 14.172 6.329 26.579 16.375 37.172C41.86-11.155 59.891-5.233 74.5-5.233c25.047 0 42.406-13.22 42.406-31.672 0-7.985-2.625-15.282-9.5-22.172-6.61-6.734-14.328-10.734-23.547-10.734-15.421 0-23.828 11.984-23.828 23.14 0 11.14 6.203 19 15.422 25.047v.688c-3.297.968-7.016 1.25-11.016 1.25-18.171 0-35.109-16.25-35.109-34.985 0-19.406 14.453-29.875 47.234-29.875h20.235l1.375-1.375-.125-40.203h30.562l1.094-1.516-6.61-13.359H-5.515l-1.093 1.516zM84.266-23c-5.5-4.953-8.672-10.453-8.672-16.516 0-8.265 6.75-17.218 16.937-17.218 6.469 0 11.297 4.828 11.297 11.703 0 10.468-7.719 17.36-19.562 22.031zm0 0"/></symbol></defs><use xlink:href="#357e5644a" x="63.4502" y="191.25"/></svg>