<?xml version='1.0' encoding='UTF-8'?>
<svg xmlns="http://www.w3.org/2000/svg" xmlns:xlink="http://www.w3.org/1999/xlink" width="250px" height="250px" viewBox="0 0 250 250" y="0px" x="0px" enable-background="new 0 0 250 250"><defs><symbol overflow="visible" id="0b01f499a"><path d="M0-135.516h19.078c-.437 11.985-.437 24.844-.437 36.828 0 21.454 4.734 32.844 12.875 40.844C41.875-47.78 54.156-42.312 66.14-42.312c24.843 0 34.468-18.797 34.468-47.782v-45.422h31.516l-.594 132.703 16.719 4.438L149.719 0l-.578-135.516h26.765l1.188-1.64L170-151.5H-5.922l-1.187 1.625zm83.14 0v40.688c0 32.984-18.78 37.125-24.843 37.125-15.39 0-21.61-11.531-21.61-36.688 0-13.765.157-27.375.454-41.125zm0 0"/></symbol></defs><use xlink:href="#0b01f499a" x="40.00317" y="201.5"/></svg>