<?xml version='1.0' encoding='UTF-8'?>
<svg xmlns="http://www.w3.org/2000/svg" xmlns:xlink="http://www.w3.org/1999/xlink" width="250px" height="250px" viewBox="0 0 250 250" y="0px" x="0px" enable-background="new 0 0 250 250"><defs><symbol overflow="visible" id="18558cdfa"><path d="M0-135.516h37.14c1.329 7.25 2.063 16.563 2.22 27.063 0 8.594-.891 15.687-2.672 21.75-4.735-.734-9.61-1.469-13.454-1.469-9.922 0-13.172 9.016-13.172 12.422 0 5.766 3.844 14.203 9.766 24.266C30.781-33.281 50.453-13.312 76.781 7.688h1.344l10.047-19.235C67.906-22.64 49.266-34.922 35.359-50.297c5.922-4 11.547-9.766 16.282-18.5 15.53 7.547 30.03 10.953 42.312 10.953 6.656 0 13.156-.75 19.375-2.218l-.594 57.25 16.72 4.437L130.936 0l-.734-135.516h26.766l1.187-1.64-7.094-14.344H-5.922l-1.187 1.625zm113.328 0v55.032c-10.953 2.359-21.453 3.703-31.219 3.703-8.875 0-18.64-1.485-27.375-4.735 1.344-6.218 1.782-12.437 1.782-18.937 0-10.953-1.032-22.5-3.407-35.063zm0 0"/></symbol></defs><use xlink:href="#18558cdfa" x="49.47192" y="201.5"/></svg>