<?xml version='1.0' encoding='UTF-8'?>
<svg xmlns="http://www.w3.org/2000/svg" xmlns:xlink="http://www.w3.org/1999/xlink" width="250px" height="250px" viewBox="0 0 250 250" y="0px" x="0px" enable-background="new 0 0 250 250"><defs><symbol overflow="visible" id="2b4669b1a"><path d="M0-126.125h78.484v16.11c0 2.609-1.515 3.578-3.437 3.578H54.109c-11.968 0-21.75.968-28.765 3.296-10.203 3.454-14.469 9.782-14.469 18.454 0 5.921 3.313 12.953 8.547 19.968 8.125 10.875 17.625 14.875 26.015 14.875 10.047 0 23.547-7.297 34.563-7.297 6.89 0 10.047 3.578 10.047 7.157 0 11.703-15 24.375-33.172 28.093-5.922-6.89-13.219-11.984-24.375-11.984-7.438 0-10.875 4.828-10.875 9.094 0 4.406 1.781 8.812 5.094 13.218C31.812-5.516 36.766-4 44.89-4c3.297 0 6.328-.266 9.359-.813 12.672 28.641 27.125 35.657 46.125 37.172h.969l6.61-18.172C85.374 11.297 69.53 5.095 63.483-5.78c24.641-5.922 39.922-17.625 39.922-32.64 0-6.876-2.203-14.313-7.984-21.892-6.188-8.265-13.219-13.359-22.031-13.359-13.079 0-25.204 7.031-36.22 7.031-7.015 0-10.874-2.89-10.874-8.265 0-9.219 7.297-15.969 36.219-15.969 9.359 0 22.172 0 29.875.266l1.375-1.641v-33.875h26.437l1.11-1.516-6.61-13.359H-5.516l-1.093 1.516zm0 0"/></symbol></defs><use xlink:href="#2b4669b1a" x="67.6499" y="191.25"/></svg>