<?xml version='1.0' encoding='UTF-8'?>
<svg xmlns="http://www.w3.org/2000/svg" xmlns:xlink="http://www.w3.org/1999/xlink" width="250px" height="250px" viewBox="0 0 250 250" y="0px" x="0px" enable-background="new 0 0 250 250"><defs><symbol overflow="visible" id="7f4c2ea7a"><path d="M39.938-100.375c-7.032-4.406-12.391-10.61-12.391-17.5 0-8.938 7.156-15.281 16.234-15.281 11.157 0 18.047 7.437 18.047 16.531 0 16.656-17.078 23.125-43.656 34l-.688 2.203c12.532 35.25 34.563 48.61 53.844 48.61 13.906 0 23.125-3.579 32.219-10.594L103-2.61l15.563 4.125L119.936 0l-.687-126.125h24.922l1.094-1.516-6.61-13.359H78.078l-1.11 1.516 6.61 13.359h19.969v45.703c0 13.5-6.469 21.906-16.797 27-6.203 3.156-13.219 4.813-20.797 4.813-21.484 0-28.906-14.188-28.906-19.547 0-1.656 1.094-2.75 3.719-3.719 22.843-9.234 34.828-17.766 34.828-35.11 0-9.5-3.719-19.14-13.219-28.64-7.844-7.86-16.516-12.266-25.75-12.266-15 0-25.61 9.235-25.61 21.907 0 8.53 3.72 15.968 10.61 22.578 4.406 2.61 10.188 4.547 16.797 6.062zm0 0"/></symbol></defs><use xlink:href="#7f4c2ea7a" x="55.67041" y="191.25"/></svg>