<?xml version='1.0' encoding='UTF-8'?>
<svg xmlns="http://www.w3.org/2000/svg" xmlns:xlink="http://www.w3.org/1999/xlink" width="250px" height="250px" viewBox="0 0 250 250" y="0px" x="0px" enable-background="new 0 0 250 250"><defs><symbol overflow="visible" id="31bdd203a"><path d="M0-126.125h108.5v50.531c0 20.235-24.375 31.672-40.484 31.672-12.532 0-23.125-5.656-23.125-19.562 0-16.657 12.937-26.438 34.28-26.438h14.47l.953-1.516-6.61-13.343H5.641l-.954 1.515 6.875 13.625h23l.407.547c-5.094 5.781-6.875 12.125-6.875 19 0 23.547 23.125 41.735 46.125 41.735 12.11 0 23.687-3.172 34.281-12.407l-.547 38.157 15.422 4.125L124.75 0l-.547-126.125h24.922l1.094-1.516-6.61-13.359H-5.516l-1.093 1.516zm0 0"/></symbol></defs><use xlink:href="#31bdd203a" x="53.19189" y="191.25"/></svg>