<?xml version='1.0' encoding='UTF-8'?>
<svg xmlns="http://www.w3.org/2000/svg" xmlns:xlink="http://www.w3.org/1999/xlink" width="250px" height="250px" viewBox="0 0 250 250" y="0px" x="0px" enable-background="new 0 0 250 250"><defs><symbol overflow="visible" id="4f8d2c0aa"><path d="M0-135.516h17.016c-2.516 3.391-3.703 7.547-3.703 12.125 0 13.313 9.171 25.157 26.343 36.094-3.11 4.156-4.593 8.89-4.593 13.906 0 10.813 4.734 20.125 14.5 28.86 10.5 9.312 21.312 12.281 33.14 12.281 10.063 0 19.531-3.11 27.516-9.328l-.594 38.766 16.719 4.437L127.828 0l-.734-135.516h26.781l1.172-1.64-7.094-14.344H-5.922l-1.187 1.625zm110.219 0v54c0 10.641-3.688 17.891-10.656 23.079-10.047 7.25-19.079 10.062-29.282 10.062-10.812 0-17.906-7.406-17.906-14.797 0-12.14 9.031-19.969 35.656-28.406l.735-1.484-11.391-14.797c-11.234 3.265-19.969 6.515-26.484 10.656C38.906-99.281 33-106.375 33-114.656c0-12.281 10.344-20.86 35.656-20.86zm0 0"/></symbol></defs><use xlink:href="#4f8d2c0aa" x="51.02539" y="201.5"/></svg>