<?xml version='1.0' encoding='UTF-8'?>
<svg xmlns="http://www.w3.org/2000/svg" xmlns:xlink="http://www.w3.org/1999/xlink" width="250px" height="250px" viewBox="0 0 250 250" y="0px" x="0px" enable-background="new 0 0 250 250"><defs><symbol overflow="visible" id="a5c533a6a"><path d="M0-135.516h87.438v24.407c0 2.656-1.485 4.14-4.438 4.14H63.031c-29.156 0-50.156 12.875-50.156 38.906 0 26.938 22.781 54.75 59.625 54.75 19.078 0 36.531-8 51.625-25.75v-1.624l-11.984-13.766C96.17-37.875 80.625-30.187 64.359-30.187c-20.265 0-33.296-12.563-33.296-29.735 0-19.375 16.14-29.89 50.453-29.89h21.156l1.484-1.47-.14-44.234h31.5l1.187-1.64-7.094-14.344H-5.92l-1.188 1.625zm0 0"/></symbol></defs><use xlink:href="#a5c533a6a" x="60.19824" y="201.5"/></svg>