<?xml version='1.0' encoding='UTF-8'?>
<svg xmlns="http://www.w3.org/2000/svg" xmlns:xlink="http://www.w3.org/1999/xlink" width="250px" height="250px" viewBox="0 0 250 250" y="0px" x="0px" enable-background="new 0 0 250 250"><defs><symbol overflow="visible" id="27eeb3bda"><path d="M0-126.125h35.25c4.813 5.36 7.984 11.156 7.984 17.344 0 11.703-13.906 16.25-32.625 22.453L9.22-84c9.094 27.406 27.265 50.406 54.265 50.406 10.328 0 19.953-2.062 28.641-8.672l-.563 39.657 15.563 4.125L108.5 0l-.688-126.125h24.922l1.11-1.516-6.61-13.359H-5.516l-1.093 1.516zm92.125 0v48.875c0 9.5-3.313 15.969-9.5 20.25-7.86 5.219-16.125 7.422-24.656 7.422-20.516 0-29.047-17.063-29.047-21.203 0-1.64 1.094-2.75 3.719-3.719 18.312-6.734 25.75-13.078 25.75-26.297 0-6.61-2.907-15.14-9.516-25.328zm0 0"/></symbol></defs><use xlink:href="#27eeb3bda" x="61.38477" y="191.25"/></svg>