<?xml version='1.0' encoding='UTF-8'?>
<svg xmlns="http://www.w3.org/2000/svg" xmlns:xlink="http://www.w3.org/1999/xlink" width="250px" height="250px" viewBox="0 0 250 250" y="0px" x="0px" enable-background="new 0 0 250 250"><defs><symbol overflow="visible" id="3ab47631a"><path d="M72.344-121.906l5.187-3.844c-9.469-20.875-15.687-34.625-36.547-34.625-16.125 0-29.14 12.125-29.14 29 0 14.938 10.797 28.703 28.687 41.125-3.984 5.625-5.312 10.953-5.312 16.281 0 8.578 4.734 17.297 13.453 26.188 11.547 11.828 24.125 16.125 36.406 16.125 10.047 0 21.156-3.703 29.14-9.922l-.593 38.766 16.719 4.437L131.828 0l-.75-135.516h26.781l1.188-1.64-7.11-14.344H82.704l-1.187 1.625 7.109 14.36h25.594v54c0 10.64-3.703 17.89-10.656 23.078-10.063 7.25-19.079 9.765-29.297 9.765-10.063 0-21.297-6.219-21.297-17.312 0-13.766 12.718-20.86 39.203-25.157l.734-1.468-11.094-15.985c-16.718 3.547-27.812 5.922-29.874 5.922-10.063 0-23.094-5.484-23.094-18.797 0-10.656 7.406-20.562 20.422-20.562 10.062 0 15.234 6.515 22.047 20.125zm0 0"/></symbol></defs><use xlink:href="#3ab47631a" x="49.02808" y="201.5"/></svg>