<?xml version='1.0' encoding='UTF-8'?>
<svg xmlns="http://www.w3.org/2000/svg" xmlns:xlink="http://www.w3.org/1999/xlink" width="250px" height="250px" viewBox="0 0 250 250" y="0px" x="0px" enable-background="new 0 0 250 250"><defs><symbol overflow="visible" id="2b4669b1a"><path d="M0-135.516h84.328v17.297c0 2.813-1.625 3.86-3.703 3.86H58.141c-12.875 0-23.375 1.03-30.922 3.546-10.938 3.704-15.532 10.5-15.532 19.829 0 6.359 3.547 13.906 9.172 21.453 8.735 11.687 18.938 15.969 27.97 15.969 10.796 0 25.296-7.844 37.124-7.844 7.406 0 10.813 3.86 10.813 7.703 0 12.578-16.141 26.187-35.657 30.172-6.375-7.39-14.203-12.86-26.187-12.86-8 0-11.688 5.172-11.688 9.766 0 4.734 1.922 9.469 5.47 14.203 5.468 6.5 10.796 8.125 19.53 8.125 3.547 0 6.797-.297 10.063-.875 13.61 30.766 29.14 38.313 49.562 39.938h1.032L116 15.234C91.734 12.125 74.719 5.47 68.203-6.219c26.484-6.36 42.906-18.937 42.906-35.062 0-7.39-2.359-15.39-8.578-23.516-6.656-8.875-14.203-14.36-23.672-14.36-14.062 0-27.078 7.548-38.906 7.548-7.547 0-11.687-3.11-11.687-8.875 0-9.907 7.828-17.157 38.906-17.157 10.062 0 23.812 0 32.11.297l1.468-1.781v-36.39h28.406l1.188-1.641-7.11-14.344H-5.922l-1.187 1.625zm0 0"/></symbol></defs><use xlink:href="#2b4669b1a" x="63.37915" y="201.5"/></svg>