<?xml version='1.0' encoding='UTF-8'?>
<svg xmlns="http://www.w3.org/2000/svg" xmlns:xlink="http://www.w3.org/1999/xlink" width="250px" height="250px" viewBox="0 0 250 250" y="0px" x="0px" enable-background="new 0 0 250 250"><defs><symbol overflow="visible" id="91f32951a"><path d="M165.438-138.719v15.813H127.03l-.89 23.594c11.5 8.312 17.25 20.746 17.25 37.296 0 11.512-3.118 21.793-9.344 30.844 12.02 9.793 18.031 20.965 18.031 33.516 0 10.094-4.273 19.812-12.812 29.156l-11.344-12.906c8.531-10.469 12.797-19.598 12.797-27.39 0-5.49-3.008-11.392-9.016-17.704C117.828-8.613 99.086.328 75.484.328 66.648.328 58.836-1.113 52.047-4c-6.793-2.895-12.453-6.922-16.984-12.078-4.524-5.164-6.782-11.16-6.782-17.985 0-8.164 3.004-14.18 9.016-18.046-8.387-.664-15.106-3.97-20.156-9.907-5.043-5.937-7.563-12.468-7.563-19.593 0-15.282 14.692-22.922 44.078-22.922l16.813 17.14h-7.797c-17.137 0-28.078 1.391-32.828 4.172-4.75 2.781-7.125 6.25-7.125 10.406C22.719-62.937 27.875-58 38.187-58c1.477 0 11.383-1.742 29.72-5.234l16.03 16.359H82.5c-15.813 0-26.484 1.805-32.016 5.406-5.53 3.594-8.297 8.477-8.297 14.64 0 6.306 2.114 11.278 6.344 14.923 4.239 3.636 9.735 5.453 16.485 5.453 15.957 0 33.14-10.469 51.546-31.406-14.324-10.239-23.304-17.88-26.937-22.922-3.637-5.051-5.453-9.766-5.453-14.14 0-6.313 2.742-12.524 8.234-18.641 5.489-6.126 12.164-9.708 20.031-10.75l.563-18.594H-.328v-15.813zm-45.094 96.531c10.094-11.582 15.14-22.269 15.14-32.062 0-5.05-1.34-9.281-4.015-12.688-2.668-3.414-6.188-5.124-10.563-5.124-4.98 0-9.62 3.062-13.922 9.187-4.304 6.117-6.453 11.512-6.453 16.188 0 8.53 6.602 16.699 19.813 24.5zm0 0"/></symbol></defs><use xlink:href="#91f32951a" x="43.73047" y="188.25"/></svg>