<?xml version='1.0' encoding='UTF-8'?>
<svg xmlns="http://www.w3.org/2000/svg" xmlns:xlink="http://www.w3.org/1999/xlink" width="250px" height="250px" viewBox="0 0 250 250" y="0px" x="0px" enable-background="new 0 0 250 250"><defs><symbol overflow="visible" id="30dd57d8a"><path d="M146.89-136.89v15.593h-33.296V4.063h-4.39l-12.86-14.72v-21.53C80.75-18.782 66.539-12.078 53.719-12.078c-9.742 0-17.965-3.313-24.672-9.938C22.347-28.648 19-36.726 19-46.25c0-12.156 5.93-22.813 17.797-31.969-10.25-5.125-17.371-10.523-21.36-16.203-3.992-5.676-5.984-12.617-5.984-20.828 0-6.375 2.117-11.46 6.36-15.266 4.25-3.812 9.816-5.718 16.703-5.718 7.175 0 12.742 2.199 16.703 6.593 3.957 4.399 5.937 8.793 5.937 13.188 0 4.469-1.578 8.168-4.734 11.094-3.149 2.93-7.102 4.39-11.86 4.39-7.03 0-12.78-1.316-17.25-3.953C23.657-90.203 31.97-82.844 46.25-82.844h8.36c4.312 0 8.519.758 12.624 2.266 4.102 1.5 9.782 6.133 17.032 13.89-5.274-.8-11.313-1.203-18.125-1.203-13.774 0-23.79 3.204-30.047 9.61-6.262 6.406-9.39 12.687-9.39 18.843 0 4.836 1.55 8.735 4.655 11.704 3.114 2.96 7.422 4.437 12.922 4.437 8.27 0 19.016-4.133 32.235-12.406 13.218-8.281 19.828-19.27 19.828-32.969v-52.625H71.625L60.641-136.89zM21.314-116.454c5.718 5.781 11.832 8.672 18.343 8.672 6.883 0 10.328-3.18 10.328-9.547 0-3.375-1.5-6.27-4.5-8.688-3-2.414-6.664-3.625-10.984-3.625-7.398 0-11.793 4.399-13.188 13.188zm0 0"/></symbol></defs><use xlink:href="#30dd57d8a" x="52.98462" y="187.5"/></svg>