<?xml version='1.0' encoding='UTF-8'?>
<svg xmlns="http://www.w3.org/2000/svg" xmlns:xlink="http://www.w3.org/1999/xlink" width="250px" height="250px" viewBox="0 0 250 250" y="0px" x="0px" enable-background="new 0 0 250 250"><defs><symbol overflow="visible" id="c94042a3a"><path d="M134.578-136.89v15.593h-33.39V3.406h-2.313L83.937-11.53v-61.203h-34.5c-5.492 0-8.914 1.046-10.265 3.14-1.356 2.086-2.031 6.387-2.031 12.906 0 5.126.125 9.008.375 11.641.257 2.637.46 4.434.609 5.39.07.22.11.22.11 0 0 2.563-1.61 3.844-4.829 3.844-2.648 0-7.304-4.832-13.968-14.5-6.657-9.664-9.985-17.722-9.985-24.171 0-4.102 1.352-7.414 4.063-9.938 2.707-2.531 5.859-3.797 9.453-3.797h60.968v-33.078H-.328v-15.594zm0 0"/></symbol></defs><use xlink:href="#c94042a3a" x="59.19189" y="187.5"/></svg>