<?xml version='1.0' encoding='UTF-8'?>
<svg xmlns="http://www.w3.org/2000/svg" xmlns:xlink="http://www.w3.org/1999/xlink" width="250px" height="250px" viewBox="0 0 250 250" y="0px" x="0px" enable-background="new 0 0 250 250"><defs><symbol overflow="visible" id="cd2228c0a"><path d="M154.328-150.578v17.156h-36.734v63.578c0 6.844-6.528 16.23-19.578 28.156L85.078-54.75c9.02-9.02 13.531-15.223 13.531-18.61v-60.062H43.984v85.078c0 2.344.18 4.203.547 5.578.364 1.368 4.172 4.141 11.422 8.328l54.375 31.532c21.52 12.488 32.281 23.566 32.281 33.234 0 9.031-6.73 14.313-20.187 15.844l-7.016-10.156c3.707-.325 6.79-1.555 9.25-3.688 2.457-2.137 3.688-4.574 3.688-7.312 0-7.418-9.469-16.602-28.406-27.547L40.843-36.734c-6.688-3.875-11-7.461-12.938-10.766-1.93-3.3-2.89-9.063-2.89-17.281v-68.64H-.36v-17.157zm0 0"/></symbol></defs><use xlink:href="#cd2228c0a" x="49.40857" y="200"/></svg>