<?xml version='1.0' encoding='UTF-8'?>
<svg xmlns="http://www.w3.org/2000/svg" xmlns:xlink="http://www.w3.org/1999/xlink" width="250px" height="250px" viewBox="0 0 250 250" y="0px" x="0px" enable-background="new 0 0 250 250"><defs><symbol overflow="visible" id="2689e936a"><path d="M171.36-150.578v17.156h-36.61V3.5h-5.078l-13.656-15.469v-80.125c-8.375 1.938-21.309 14.309-38.797 37.11L63.203-68.891c2.258-3.375 5.969-8.046 11.125-14.015-7.98-7.57-15.875-11.36-23.687-11.36-5.243 0-10.137 2.137-14.688 6.407-4.555 4.273-6.828 9.308-6.828 15.109 0 6.281 2.07 12.625 6.219 19.031C39.5-47.312 50.68-35.207 68.89-17.406l-4.11 3.75-34.328-34.328c-7.168-7.082-12.043-13.16-14.625-18.235-2.574-5.082-3.86-9.797-3.86-14.14 0-7.82 2.555-14.313 7.673-19.47 5.113-5.155 11.414-7.734 18.906-7.734 12.008 0 25.18 6.852 39.516 20.547 12.332-12 24.984-18 37.953-18v-28.406H-.36v-17.156zm0 0"/></symbol></defs><use xlink:href="#2689e936a" x="40.88867" y="200"/></svg>