<?xml version='1.0' encoding='UTF-8'?>
<svg xmlns="http://www.w3.org/2000/svg" xmlns:xlink="http://www.w3.org/1999/xlink" width="250px" height="250px" viewBox="0 0 250 250" y="0px" x="0px" enable-background="new 0 0 250 250"><defs><symbol overflow="visible" id="ee69b4e4a"><path d="M124.36-138.719v15.813H81.265l2.671 29.953H45.422c-11.805 0-17.703 4.266-17.703 12.797 0 3.855 1.242 7.308 3.734 10.36 2.488 3.042 5.328 4.562 8.516 4.562 1.187 0 5.937-.97 14.25-2.907 8.238-2 14.066-3 17.484-3 4.82 0 10.629 3.696 17.422 11.079 6.79 7.386 10.188 14.011 10.188 19.874 0 10.243-8.133 20.149-24.391 29.72l36.406 36.406h-7.344L69.36-8.126c-5.125 1.93-9.984 2.89-14.578 2.89-7.21 0-13.187-2.257-17.937-6.78-4.75-4.532-7.125-9.47-7.125-14.813 0-3.344 1-6.07 3-8.188 2.008-2.113 4.426-3.172 7.25-3.172 5.562 0 12.832 4.977 21.812 14.922 7.645-.445 14.117-3.191 19.422-8.234 5.313-5.05 7.969-10.285 7.969-15.703 0-3.633-1.172-6.676-3.516-9.125C83.32-58.773 80.301-60 76.594-60c-1.637 0-5.606.852-11.906 2.547-6.461 1.781-11.508 2.672-15.141 2.672-7.793 0-15.234-3.817-22.328-11.453-7.086-7.645-10.625-15.66-10.625-24.047 0-9.133 7.008-13.703 21.031-13.703H70.25v-18.922H-.328v-15.813zm0 0"/></symbol></defs><use xlink:href="#ee69b4e4a" x="64.27051" y="188.25"/></svg>