<?xml version='1.0' encoding='UTF-8'?>
<svg xmlns="http://www.w3.org/2000/svg" xmlns:xlink="http://www.w3.org/1999/xlink" width="250px" height="250px" viewBox="0 0 250 250" y="0px" x="0px" enable-background="new 0 0 250 250"><defs><symbol overflow="visible" id="0872443ca"><path d="M158.75-136.89v15.593h-33.39V3.734h-4.626L108.11-11.203v-49.438c-5.648 2.125-13.593 3.188-23.843 3.188.289 2.055.437 4.062.437 6.031 0 8.5-2.789 15.406-8.36 20.719-5.562 5.312-12.808 7.969-21.734 7.969-11.574 0-21.539-5.18-29.89-15.547-8.356-10.364-13.446-22.614-15.266-36.75h5.485c1.906 10.687 6.132 19.547 12.687 26.578 6.563 7.031 13.941 10.547 22.14 10.547 5.344 0 10.32-1.754 14.938-5.266 4.613-3.52 6.922-8.39 6.922-14.61 0-6.007-2.527-10.769-7.578-14.28-5.055-3.52-10.29-5.282-15.703-5.282-2.856 0-6.996.586-12.422 1.75l-12.297-14.39c13.469-1.02 24.3-3.707 32.5-8.063 8.207-4.363 12.313-9.617 12.313-15.766 0-3.882-1.668-7.109-5-9.671-3.325-2.563-7.329-3.844-12.016-3.844-8.281 0-19.016 3.625-32.203 10.875l-9.766-14.063c10.469-4.25 20.535-6.375 30.203-6.375 11.282 0 20.38 2.84 27.297 8.516 6.926 5.68 10.39 13.203 10.39 22.578 0 10.844-6.886 18.902-20.656 24.172 11.938 5.563 21.899 8.344 29.891 8.344 8.633 0 14.363-1.719 17.188-5.156 2.82-3.446 4.27-8.723 4.343-15.829v-27.03H91.406L79.11-136.892zm15.5 140.843zM157-11.312zM203.797 0zm0 0"/></symbol></defs><use xlink:href="#0872443ca" x="47.10693" y="187.5"/></svg>