<?xml version='1.0' encoding='UTF-8'?>
<svg xmlns="http://www.w3.org/2000/svg" xmlns:xlink="http://www.w3.org/1999/xlink" width="250px" height="250px" viewBox="0 0 250 250" y="0px" x="0px" enable-background="new 0 0 250 250"><defs><symbol overflow="visible" id="bd4ee119a"><path d="M133.922-136.89v15.593h-34.5l2.312 36.156H50.313c-8.274 0-12.407 2.309-12.407 6.922 0 2.125 1.242 5.11 3.735 8.953 2.488 3.844 4.504 5.766 6.047 5.766.289 0 2.41-.438 6.359-1.313 3.957-.882 7.805-1.328 11.547-1.328 11.719 0 21.254 3.43 28.61 10.282 7.362 6.843 11.046 14.554 11.046 23.125 0 6.437-3.355 12.058-10.063 16.859-6.699 4.805-14.183 7.203-22.453 7.203-21.53 0-43.468-17.8-65.812-53.406l4.828-2.297c17.508 27.98 34.867 41.969 52.078 41.969 7.844 0 14.875-2.32 21.094-6.969 6.226-4.656 9.344-9.516 9.344-14.578 0-2.781-.903-5.156-2.704-7.125-1.792-1.977-4.042-2.969-6.75-2.969-2.855 0-8.234 1.024-16.14 3.063-7.918 1.98-12.496 2.968-13.734 2.968-3.012 0-8.47-5.14-16.376-15.422-7.906-10.289-11.859-18.078-11.859-23.359 0-9.3 6.922-13.953 20.766-13.953H86.25v-20.547H-.328v-15.594zm0 0"/></symbol></defs><use xlink:href="#bd4ee119a" x="59.46655" y="187.5"/></svg>