<?xml version='1.0' encoding='UTF-8'?>
<svg xmlns="http://www.w3.org/2000/svg" xmlns:xlink="http://www.w3.org/1999/xlink" width="250px" height="250px" viewBox="0 0 250 250" y="0px" x="0px" enable-background="new 0 0 250 250"><defs><symbol overflow="visible" id="37df5ae0a"><path d="M160.188-136.89v15.593H91.953v39.125c7.914-3.52 14.727-5.281 20.438-5.281 10.843 0 19.504 4.82 25.984 14.453 6.477 9.625 9.719 20.152 9.719 31.578 0 10.992-4.028 23.262-12.078 36.813l-15.282-8.579c11.282-18.382 16.922-33.437 16.922-45.156 0-5.195-1.375-9.367-4.125-12.515-2.742-3.157-6.492-4.735-11.25-4.735-5.43 0-15.539 4.106-30.328 12.313V3.406h-4.828L74.703-10.656v-44.5C67.16-52.29 60.57-50.86 54.937-50.86c-10.992 0-20.496-4.649-28.515-13.953C18.398-74.114 14.39-83.93 14.39-94.267v-27.03H-.547v-15.595zm-85.485 15.593H31.641v43.406c0 7.618 1.078 12.434 3.234 14.454 2.164 2.011 5.004 3.015 8.516 3.015 6.3 0 16.738-4.504 31.312-13.516zm0 0"/></symbol></defs><use xlink:href="#37df5ae0a" x="46.39282" y="187.5"/></svg>