<?xml version='1.0' encoding='UTF-8'?>
<svg xmlns="http://www.w3.org/2000/svg" xmlns:xlink="http://www.w3.org/1999/xlink" width="250px" height="250px" viewBox="0 0 250 250" y="0px" x="0px" enable-background="new 0 0 250 250"><defs><symbol overflow="visible" id="ac2950bfa"><path d="M134.578-136.89v15.593h-33.39V3.734h-5.172L83.937-10.328v-69.328h-27.25c-20.949 0-31.421 7.293-31.421 21.875 0 7.25 2.945 15.125 8.843 23.625C40.004-25.664 49.617-14.57 62.953-.875L59.22 2.641C40.687-15.523 28.523-29.406 22.734-39c-5.78-9.594-8.672-19.223-8.672-28.89 0-18.165 10.254-27.25 30.766-27.25h39.11v-26.157H-.329v-15.594zm0 0"/></symbol></defs><use xlink:href="#ac2950bfa" x="59.13696" y="187.5"/></svg>