<?xml version='1.0' encoding='UTF-8'?>
<svg xmlns="http://www.w3.org/2000/svg" xmlns:xlink="http://www.w3.org/1999/xlink" width="250px" height="250px" viewBox="0 0 250 250" y="0px" x="0px" enable-background="new 0 0 250 250"><defs><symbol overflow="visible" id="019d8580a"><path d="M113.672-138.719v15.813H64.125c2.676 6.824 4.016 14.39 4.016 22.703 0 18.492-8.059 34.71-24.172 48.656 13.883 15.293 34 32.18 60.343 50.656l-2.89 4.125c-23.23-16.03-42.844-31.859-58.844-47.484-15.992-15.625-23.984-26.89-23.984-33.797 0-6.82 4.562-10.234 13.687-10.234 4.383 0 9.657.965 15.813 2.89 4.676-6.007 7.015-12.132 7.015-18.375 0-4.82-1.672-11.203-5.015-19.14H-.328v-15.813zm0 0"/></symbol></defs><use xlink:href="#019d8580a" x="69.66992" y="188.25"/></svg>