<?xml version='1.0' encoding='UTF-8'?>
<svg xmlns="http://www.w3.org/2000/svg" xmlns:xlink="http://www.w3.org/1999/xlink" width="250px" height="250px" viewBox="0 0 250 250" y="0px" x="0px" enable-background="new 0 0 250 250"><defs><symbol overflow="visible" id="2689e936a"><path d="M155.781-136.89v15.593H122.5V3.187h-4.61L105.47-10.874v-72.844c-7.617 1.762-19.371 13.008-35.266 33.735l-12.75-12.641c2.05-3.07 5.422-7.316 10.11-12.734-7.25-6.883-14.43-10.329-21.532-10.329-4.761 0-9.21 1.946-13.343 5.829-4.137 3.875-6.204 8.449-6.204 13.718 0 5.72 1.883 11.493 5.657 17.313 3.77 5.824 13.93 16.824 30.484 33l-3.734 3.406-31.203-31.187c-6.524-6.446-10.954-11.977-13.297-16.594-2.344-4.613-3.516-8.899-3.516-12.86 0-7.101 2.32-13 6.969-17.687 4.656-4.688 10.39-7.031 17.203-7.031 10.914 0 22.89 6.226 35.922 18.672 11.207-10.907 22.707-16.36 34.5-16.36v-25.828H-.328v-15.594zm0 0"/></symbol></defs><use xlink:href="#2689e936a" x="48.53516" y="187.5"/></svg>