<?xml version='1.0' encoding='UTF-8'?>
<svg xmlns="http://www.w3.org/2000/svg" xmlns:xlink="http://www.w3.org/1999/xlink" width="250px" height="250px" viewBox="0 0 250 250" y="0px" x="0px" enable-background="new 0 0 250 250"><defs><symbol overflow="visible" id="850100ada"><path d="M134.984-150.578v17.156h-34.672l2.407 40.125h-36.61c-26.593 0-39.89 8.945-39.89 26.828 0 6.688 2.758 12.793 8.281 18.313 5.52 5.523 12.469 8.281 20.844 8.281 4.758 0 8.988-.848 12.687-2.547-1.687-2.414-2.531-5.758-2.531-10.031 0-3.383 1.629-6.504 4.89-9.36 3.27-2.863 7.32-4.296 12.157-4.296 6.844 0 12.457 1.976 16.844 5.921 4.394 3.95 6.593 8.825 6.593 14.626 0 5.48-4.109 10.96-12.328 16.437L116.375.609 103.453 3.5 81.328-24.656a39.885 39.885 0 0 1-10.14 1.328c-14.512 0-27.528-6.363-39.047-19.094-11.524-12.726-17.282-25.375-17.282-37.937 0-19.977 16.235-29.97 48.703-29.97h21.516v-23.093H-.359v-17.156zm0 0"/></symbol></defs><use xlink:href="#850100ada" x="59.07654" y="200"/></svg>