<?xml version='1.0' encoding='UTF-8'?>
<svg xmlns="http://www.w3.org/2000/svg" xmlns:xlink="http://www.w3.org/1999/xlink" width="250px" height="250px" viewBox="0 0 250 250" y="0px" x="0px" enable-background="new 0 0 250 250"><defs><symbol overflow="visible" id="749c80cca"><path d="M157.219-136.89v15.593h-33.297V4.063h-4.281l-12.75-14.72v-110.64H64.703c11.281 9.23 16.922 21.5 16.922 36.813 0 11.43-2.527 21.539-7.578 30.328-5.055 8.781-12.195 15.043-21.422 18.781L75.359-6.922l-4.609 2.64-23.625-29.343c-3.219.668-6.367 1-9.438 1-6.304 0-11.468-1.281-15.5-3.844-4.023-2.562-6.03-5.93-6.03-10.11 0-2.937.929-5.35 2.796-7.25 1.863-1.905 4.188-2.858 6.969-2.858 4.906 0 11.973 5.015 21.203 15.046 7.625-4.468 13.3-16.078 17.031-34.828-6.367 4.762-13.18 7.14-20.437 7.14-5.93 0-11.496-1.882-16.703-5.655-5.2-3.77-7.797-9.72-7.797-17.844 0-11.719 6.629-21.207 19.89-28.469H-.328v-15.594zm-99.985 15.593h-8.343c-10.325 3.156-15.485 11.875-15.485 26.156 0 6 1.442 10.762 4.328 14.282 2.895 3.511 6.614 5.265 11.157 5.265 11.718 0 17.578-8.347 17.578-25.047 0-10.175-3.078-17.062-9.235-20.656zm0 0"/></symbol></defs><use xlink:href="#749c80cca" x="47.82104" y="187.5"/></svg>