<?xml version='1.0' encoding='UTF-8'?>
<svg xmlns="http://www.w3.org/2000/svg" xmlns:xlink="http://www.w3.org/1999/xlink" width="250px" height="250px" viewBox="0 0 250 250" y="0px" x="0px" enable-background="new 0 0 250 250"><defs><symbol overflow="visible" id="f5a49c1ba"><path d="M137.828-138.719v15.813h-33.844V3.78h-2.343L86.5-11.016V-40.53C72.844-31.54 61.379-27.047 52.11-27.047c-9.356 0-18.544-4.547-27.563-13.64-9.024-9.094-13.531-18.165-13.531-27.22 0-9.062 4.972-16.613 14.921-22.656 9.946-6.05 19.266-9.078 27.954-9.078 8.226 0 19.097 6.012 32.609 18.032v-41.297H-.328v-15.813zm-94.75 60.344l26.5 28.281c5.57-2.894 9.785-5.77 12.64-8.625C85.07-61.582 86.5-66.687 86.5-74.03c-7.055-6.758-14.324-10.14-21.813-10.14-7.5 0-14.703 1.933-21.609 5.796zm21.047 30.844l-26.5-28.5C26.937-70.54 21.594-64.348 21.594-57.453c0 4.156 1.968 8.074 5.906 11.75 3.938 3.68 8.46 5.516 13.578 5.516 5.57 0 13.254-2.446 23.047-7.344zm0 0"/></symbol></defs><use xlink:href="#f5a49c1ba" x="57.59082" y="188.25"/></svg>