<?xml version='1.0' encoding='UTF-8'?>
<svg xmlns="http://www.w3.org/2000/svg" xmlns:xlink="http://www.w3.org/1999/xlink" width="250px" height="250px" viewBox="0 0 250 250" y="0px" x="0px" enable-background="new 0 0 250 250"><defs><symbol overflow="visible" id="ee92185ba"><path d="M168.219-150.578v17.156H96.203v37.953c4.426-2.582 9.582-3.875 15.469-3.875 8.613 0 17.351 3.828 26.219 11.485 8.863 7.656 13.297 19.136 13.297 34.437 0 10.805-3.387 22.164-10.157 34.078L127.5-32.625c7.57-13.05 11.36-24.535 11.36-34.453 0-14.5-5.684-21.75-17.048-21.75-8.054 0-16.59 3.992-25.609 11.969V4.109H91.36L77.22-11.969v-51.593c-11.031 9.5-21.508 14.25-31.422 14.25-9.906 0-17.805-3.16-23.688-9.485-5.875-6.32-8.812-14.36-8.812-24.11 0-8.613 2.719-15.398 8.156-20.359 5.438-4.957 11.781-7.437 19.031-7.437 13.852 0 26.098 6.45 36.735 19.344v-42.063H-.36v-17.156zm-91 67.312v-2.296c-6.2-5.563-14.133-8.344-23.797-8.344-9.992 0-17.746 1.96-23.266 5.875-5.523 3.906-8.281 8.355-8.281 13.344 0 4.355 1.426 7.921 4.281 10.703 2.864 2.773 6.797 4.156 11.797 4.156 9.176 0 22.266-7.813 39.266-23.438zm0 0"/></symbol></defs><use xlink:href="#ee92185ba" x="42.45972" y="200"/></svg>