<?xml version='1.0' encoding='UTF-8'?>
<svg xmlns="http://www.w3.org/2000/svg" xmlns:xlink="http://www.w3.org/1999/xlink" width="250px" height="250px" viewBox="0 0 250 250" y="0px" x="0px" enable-background="new 0 0 250 250"><defs><symbol overflow="visible" id="ad8d8ed5a"><path d="M148.297-138.719v15.813h-33.844V3.234h-4.578l-12.906-14.03v-40.75c-12.18 10.835-24.09 16.25-35.735 16.25-6.98 0-15.464-3.782-25.453-11.345-9.98-7.57-18.715-16.222-26.203-25.953v-2.328c13.352-.594 24.035-4.191 32.047-10.797 8.02-6.601 12.031-13.879 12.031-21.828 0-5.414-1.636-9.922-4.906-13.516-3.262-3.601-7.008-5.406-11.234-5.406-2.825 0-5.61 1.008-8.36 3.016-2.742 2-4.11 5.484-4.11 10.453 0 7.055 4.083 13.063 12.25 18.031l-4.343 3.235c-15.367-6.313-23.047-15.739-23.047-28.282 0-12.02 5.531-18.03 16.594-18.03 7.863 0 16.879 4.57 27.047 13.702 10.164 9.125 15.25 18.438 15.25 27.938 0 6.23-3.492 12.668-10.469 19.312-6.969 6.649-17.281 11.934-30.937 15.86 9.425 9.136 18.257 13.703 26.5 13.703 8.156 0 17.375-3.953 27.656-11.86 10.281-7.906 15.422-16.57 15.422-26v-37.515H75.703L60-138.72zm0 0"/></symbol></defs><use xlink:href="#ad8d8ed5a" x="52.30273" y="188.25"/></svg>