<?xml version='1.0' encoding='UTF-8'?>
<svg xmlns="http://www.w3.org/2000/svg" xmlns:xlink="http://www.w3.org/1999/xlink" width="250px" height="250px" viewBox="0 0 250 250" y="0px" x="0px" enable-background="new 0 0 250 250"><defs><symbol overflow="visible" id="30dd57d8a"><path d="M148.844-138.719v15.813h-33.735V4.125h-4.453L97.641-10.797v-21.828C81.828-19.039 67.426-12.25 54.437-12.25c-9.867 0-18.195-3.352-24.984-10.063-6.793-6.718-10.187-14.906-10.187-24.562 0-12.313 6.007-23.11 18.03-32.39-10.398-5.196-17.616-10.672-21.655-16.422-4.043-5.75-6.063-12.782-6.063-21.094 0-6.457 2.149-11.614 6.453-15.469 4.301-3.863 9.942-5.797 16.922-5.797 7.27 0 12.91 2.23 16.922 6.688 4.008 4.449 6.016 8.898 6.016 13.343 0 4.532-1.602 8.282-4.797 11.25-3.188 2.97-7.196 4.454-12.016 4.454-7.125 0-12.953-1.333-17.484-4 2.375 14.917 10.8 22.374 25.281 22.374h8.453c4.383 0 8.656.762 12.813 2.282 4.156 1.523 9.906 6.215 17.25 14.078-5.344-.813-11.47-1.219-18.375-1.219-13.95 0-24.102 3.25-30.454 9.75-6.343 6.492-9.515 12.852-9.515 19.078 0 4.899 1.578 8.852 4.734 11.86 3.157 3 7.516 4.5 13.078 4.5 8.395 0 19.29-4.192 32.688-12.578C90.94-44.57 97.64-55.703 97.64-69.578v-53.328H72.594l-11.14-15.813zm-127.25 20.703c5.789 5.868 11.988 8.797 18.593 8.797 6.977 0 10.47-3.226 10.47-9.687 0-3.406-1.524-6.332-4.563-8.781-3.043-2.458-6.758-3.688-11.14-3.688-7.493 0-11.946 4.453-13.36 13.36zm0 0"/></symbol></defs><use xlink:href="#30dd57d8a" x="52.02441" y="188.25"/></svg>