<?xml version='1.0' encoding='UTF-8'?>
<svg xmlns="http://www.w3.org/2000/svg" xmlns:xlink="http://www.w3.org/1999/xlink" width="250px" height="250px" viewBox="0 0 250 250" y="0px" x="0px" enable-background="new 0 0 250 250"><defs><symbol overflow="visible" id="4e920ecca"><path d="M138.047-138.719v15.813h-33.734V3.454h-5.235l-12.234-14.47v-111.89H49.766c3.113 37.187 4.672 58.265 4.672 63.234 0 15.219-3.196 22.828-9.579 22.828-2.148 0-4.5-1.129-7.062-3.39-2.563-2.27-7.856-8.676-15.875-19.22C13.91-69.991 9.906-76.784 9.906-79.827c0-3.332 2.149-5 6.453-5 1.27 0 3.203.148 5.797.437 2.594.305 4.707.454 6.344.454 5.645 0 8.469-2.114 8.469-6.344v-32.625H-.328v-15.813zm0 0"/></symbol></defs><use xlink:href="#4e920ecca" x="57.42383" y="188.25"/></svg>