<?xml version='1.0' encoding='UTF-8'?>
<svg xmlns="http://www.w3.org/2000/svg" xmlns:xlink="http://www.w3.org/1999/xlink" width="250px" height="250px" viewBox="0 0 250 250" y="0px" x="0px" enable-background="new 0 0 250 250"><defs><symbol overflow="visible" id="4b2bc157a"><path d="M149.61-150.578v17.156h-36.735V3.75h-5.078l-13.89-15.469v-40.125C80.038-42.332 67.831-37.578 57.28-37.578c-9.668 0-19.32-4.813-28.953-14.438-9.625-9.632-14.437-18.757-14.437-27.375 0-9.507 5.234-17.164 15.703-22.968 10.476-5.801 21.16-8.704 32.047-8.704 10.707 0 21.46 5.403 32.265 16.204v-38.563H-.359v-17.156zM93.905-80.61v-6.047c-7.011-5.07-13.945-7.61-20.797-7.61-9.5 0-19.53 2.602-30.093 7.797-10.555 5.2-15.828 11.059-15.828 17.578 0 5.157 1.769 9.45 5.312 12.875 3.55 3.43 7.703 5.141 12.453 5.141 5.477 0 14.82-3.883 28.031-11.656 13.22-7.782 20.192-13.805 20.922-18.078zm0 0"/></symbol></defs><use xlink:href="#4b2bc157a" x="51.82556" y="200"/></svg>