<?xml version='1.0' encoding='UTF-8'?>
<svg xmlns="http://www.w3.org/2000/svg" xmlns:xlink="http://www.w3.org/1999/xlink" width="250px" height="250px" viewBox="0 0 250 250" y="0px" x="0px" enable-background="new 0 0 250 250"><defs><symbol overflow="visible" id="69c7c453a"><path d="M169.89-138.719v15.813h-33.843V3.454h-4.016l-13.469-15.142v-8.687c-10.167 7.2-20.148 10.797-29.937 10.797-10.617 0-20.21-2.223-28.781-6.672-8.574-4.457-16.946-11.414-25.11-20.875-8.168-9.469-14.105-17.242-17.812-23.328-3.711-6.082-5.563-12.836-5.563-20.266 0-7.344 2.336-11.015 7.016-11.015 2 0 4.223 1 6.672 3 2.75 2.304 4.898 3.605 6.453 3.906l1.125-38.078H-.328v-15.813zm-51.327 15.813H46.64L44.313-86.5c-.668 10.313-5.235 22.336-13.704 36.063 7.72 10.687 15.082 18.226 22.094 22.609 7.02 4.375 15.094 6.562 24.219 6.562 12.469 0 26.348-6.601 41.64-19.812v-16.375C105.727-47.13 95.82-41.97 88.844-41.97c-7.2 0-14.29-3.656-21.266-10.968-6.98-7.313-10.469-14.711-10.469-22.204 0-8.394 3.243-15.02 9.735-19.875 6.5-4.863 14.426-7.296 23.781-7.296 8.906 0 18.219 4.859 27.938 14.578zm0 43.078V-82.5c-9.43-4.082-17.293-6.125-23.594-6.125-6.906 0-13.531 1.953-19.875 5.86-6.344 3.898-9.516 8.476-9.516 13.734 0 3.719 1.57 6.875 4.719 9.469 3.156 2.593 6.812 3.89 10.969 3.89 5.937 0 13.632-2.39 23.093-7.172 9.47-4.789 14.204-10.453 14.204-16.984zm0 0"/></symbol></defs><use xlink:href="#69c7c453a" x="41.50391" y="188.25"/></svg>