<?xml version='1.0' encoding='UTF-8'?>
<svg xmlns="http://www.w3.org/2000/svg" xmlns:xlink="http://www.w3.org/1999/xlink" width="250px" height="250px" viewBox="0 0 250 250" y="0px" x="0px" enable-background="new 0 0 250 250"><defs><symbol overflow="visible" id="69c7c453a"><path d="M184.422-150.578v17.156h-36.75V3.75h-4.344l-14.625-16.438v-9.421c-11.031 7.812-21.867 11.718-32.5 11.718-11.523 0-21.937-2.414-31.25-7.25-9.305-4.832-18.387-12.382-27.25-22.656C28.836-50.578 22.391-59.02 18.36-65.625c-4.023-6.602-6.03-13.93-6.03-21.984 0-7.977 2.534-11.97 7.608-11.97 2.176 0 4.594 1.09 7.25 3.266 2.977 2.493 5.317 3.899 7.016 4.22l1.203-41.329H-.359v-17.156zm-55.719 17.156H50.641l-2.547 39.516c-.719 11.199-5.672 24.25-14.86 39.156C41.61-43.145 49.602-34.96 57.22-30.203c7.613 4.75 16.375 7.125 26.281 7.125 13.54 0 28.61-7.172 45.203-21.516v-17.765c-13.937 11.199-24.695 16.797-32.266 16.797-7.812 0-15.507-3.97-23.078-11.907C65.785-65.406 62-73.44 62-81.579c0-9.1 3.52-16.288 10.563-21.562 7.05-5.28 15.656-7.921 25.812-7.921 9.664 0 19.773 5.277 30.328 15.828zm0 46.766v-2.89c-10.23-4.438-18.773-6.657-25.625-6.657-7.492 0-14.68 2.121-21.562 6.36-6.887 4.23-10.329 9.202-10.329 14.921 0 4.024 1.708 7.445 5.126 10.266 3.425 2.824 7.394 4.234 11.906 4.234 6.445 0 14.804-2.598 25.078-7.797 10.27-5.195 15.406-11.344 15.406-18.437zm0 0"/></symbol></defs><use xlink:href="#69c7c453a" x="34.36279" y="200"/></svg>