<?xml version='1.0' encoding='UTF-8'?>
<svg xmlns="http://www.w3.org/2000/svg" xmlns:xlink="http://www.w3.org/1999/xlink" width="250px" height="250px" viewBox="0 0 250 250" y="0px" x="0px" enable-background="new 0 0 250 250"><defs><symbol overflow="visible" id="fb99acc7a"><path d="M158.75-136.89v15.593h-33.39V3.734h-4.063l-12.969-14.937v-110.094H77.891c.07 7.7.398 18.063.984 31.094.52 12.168.781 19.605.781 22.312 0 9.012-2.183 16.262-6.547 21.75-4.355 5.493-9.464 8.235-15.328 8.235-6.293 0-14.804-5.086-25.531-15.266C21.52-63.348 16.156-70.82 16.156-75.594v-45.703H-.328v-15.594zm-96.344 15.593h-29v56.375c0 3.875 1.207 7.043 3.625 9.5 2.414 2.45 5.414 3.672 9 3.672 3.739 0 7.399-1.297 10.985-3.89 3.593-2.602 5.39-6.102 5.39-10.5zm0 0"/></symbol></defs><use xlink:href="#fb99acc7a" x="47.052" y="187.5"/></svg>