<?xml version='1.0' encoding='UTF-8'?>
<svg xmlns="http://www.w3.org/2000/svg" xmlns:xlink="http://www.w3.org/1999/xlink" width="250px" height="250px" viewBox="0 0 250 250" y="0px" x="0px" enable-background="new 0 0 250 250"><defs><symbol overflow="visible" id="2cfe424ba"><path d="M146.672-136.89v15.593h-33.297V3.734h-4.828L96.125-11.203v-38.781C81.332-40.973 68.957-36.47 59-36.47c-9.23 0-17.09-2.926-23.578-8.781-6.48-5.863-9.719-12.828-9.719-20.89 0-10.395 4.688-18.633 14.063-24.72-10.47-2.124-17.684-4.773-21.641-7.953-3.96-3.187-5.938-7.53-5.938-13.03 0-4.177.954-7.329 2.86-9.454H-.328v-15.594zm-50.547 15.593H44.937c-3.96 0-7.53 1.172-10.718 3.516-3.188 2.344-4.782 5.277-4.782 8.797 0 8.867 6.993 13.296 20.985 13.296l12.312-.328c4.832 1.825 10.582 6.438 17.25 13.844-17.586.438-29.543 2.602-35.875 6.484-6.336 3.876-9.5 9.368-9.5 16.47 0 3.886 1.282 7.058 3.844 9.515 2.563 2.45 6.078 3.672 10.547 3.672 6.813 0 16.367-3.551 28.672-10.657 12.3-7.101 18.453-16.187 18.453-27.25zm0 0"/></symbol></defs><use xlink:href="#2cfe424ba" x="53.09448" y="187.5"/></svg>