<?xml version='1.0' encoding='UTF-8'?>
<svg xmlns="http://www.w3.org/2000/svg" xmlns:xlink="http://www.w3.org/1999/xlink" width="250px" height="250px" viewBox="0 0 250 250" y="0px" x="0px" enable-background="new 0 0 250 250"><defs><symbol overflow="visible" id="a4a982c1a"><path d="M159.64-138.719v15.813h-33.734V3.78h-4.672L108.328-10.25v-70.469H73.36c9.946 10.168 14.922 19.485 14.922 27.953 0 7.793-2.578 14.266-7.734 19.422-5.156 5.157-11.711 7.735-19.656 7.735-9.793 0-19.387-5.727-28.782-17.188C22.723-54.266 14.43-70.094 7.234-90.28l4.454-2.672C26.831-58.961 41.862-41.97 56.78-41.97c4.446 0 8.082-1.351 10.907-4.062 2.82-2.707 4.234-6.29 4.234-10.75 0-3.332-1.246-7.317-3.734-11.953-2.493-4.645-10.747-13.868-24.766-27.672h64.906v-26.5H-.328v-15.813zm0 0"/></symbol></defs><use xlink:href="#a4a982c1a" x="46.625" y="188.25"/></svg>