<?xml version='1.0' encoding='UTF-8'?>
<svg xmlns="http://www.w3.org/2000/svg" xmlns:xlink="http://www.w3.org/1999/xlink" width="250px" height="250px" viewBox="0 0 250 250" y="0px" x="0px" enable-background="new 0 0 250 250"><defs><symbol overflow="visible" id="7bfaae7ba"><path d="M148.313-136.89v15.593H115.03V3.734h-4.953L97.781-10.328v-57.563c-10.406 5.2-18.465 7.797-24.172 7.797-7.906 0-17.101-2.015-27.578-6.047-4.543 9.375-9.156 16.297-13.843 20.766 14.351 17.512 26.734 31.684 37.14 42.516L66.141.875c-21.313-22.55-35.946-39.336-43.891-50.36-7.95-11.03-11.922-19.734-11.922-26.109 0-7.469 3.442-11.203 10.328-11.203 4.032 0 8.645 1.246 13.844 3.734 3.438-5.05 5.156-12.007 5.156-20.874 0-5.415-1.539-11.204-4.61-17.36H-.327v-15.594zM97.78-121.298H49.11c2.563 6.961 3.844 14.434 3.844 22.422 0 5.855-.992 12.922-2.969 21.203 10.625 3.656 19.27 5.484 25.938 5.484 6.656 0 11.96-1.695 15.922-5.093 3.957-3.406 5.937-7.27 5.937-11.594zm0 0"/></symbol></defs><use xlink:href="#7bfaae7ba" x="52.27051" y="187.5"/></svg>