<?xml version='1.0' encoding='UTF-8'?>
<svg xmlns="http://www.w3.org/2000/svg" xmlns:xlink="http://www.w3.org/1999/xlink" width="250px" height="250px" viewBox="0 0 250 250" y="0px" x="0px" enable-background="new 0 0 250 250"><defs><symbol overflow="visible" id="0856c341a"><path d="M179.344-150.578v17.156h-36.735V4.11h-5.328l-13.656-15.828V-69.25c-5.719 1.375-12.648 2.063-20.781 2.063-9.43 0-16.84-.567-22.235-1.704 2.977 5.086 4.47 9.72 4.47 13.907 0 11.843-7.372 23-22.11 33.468L84.719.36l-4.11 3.75L57.531-18C51-15.508 45.195-14.266 40.125-14.266c-7.18 0-12.7-2.234-16.563-6.703-3.867-4.468-5.796-9.082-5.796-13.843 0-8.614 3.785-12.922 11.359-12.922 5.633 0 12.16 4.23 19.578 12.687 19.82-2.894 29.734-11.031 29.734-24.406 0-5.883-2.742-8.828-8.218-8.828-3.387 0-7.938.765-13.656 2.297-8.543 2.261-13.7 3.39-15.47 3.39-6.042 0-12.09-4.086-18.14-12.265-6.043-8.176-9.062-16.016-9.062-23.516 0-9.906 6.242-14.86 18.734-14.86 3.3 0 9.223.282 17.766.844 8.625.48 13.863.72 15.718.72v-21.75H-.359v-17.157zm-55.719 17.156H76.859l2.532 33.484H38.906c-4.343 0-7.968 1.493-10.875 4.47-2.898 2.98-4.343 6.12-4.343 9.421 0 2.18.882 4.195 2.656 6.047 1.77 1.855 4.066 2.781 6.89 2.781 4.914 0 12.328-.406 22.235-1.219 9.832-.8 17.285-1.203 22.36-1.203 26.1 0 41.366-5.8 45.796-17.406zm0 0"/></symbol></defs><use xlink:href="#0856c341a" x="36.96106" y="200"/></svg>