<?xml version='1.0' encoding='UTF-8'?>
<svg xmlns="http://www.w3.org/2000/svg" xmlns:xlink="http://www.w3.org/1999/xlink" width="250px" height="250px" viewBox="0 0 250 250" y="0px" x="0px" enable-background="new 0 0 250 250"><defs><symbol overflow="visible" id="0872443ca"><path d="M160.875-138.719v15.813h-33.844V3.78h-4.687l-12.797-15.14v-50.094c-5.719 2.156-13.774 3.234-24.156 3.234.289 2.074.437 4.11.437 6.11 0 8.617-2.824 15.617-8.469 21-5.636 5.375-12.98 8.062-22.03 8.062-11.731 0-21.825-5.25-30.282-15.75-8.461-10.5-13.617-22.91-15.469-37.234h5.563C17.066-65.195 21.35-56.22 28-49.094c6.645 7.125 14.125 10.688 22.438 10.688 5.414 0 10.46-1.782 15.14-5.344 4.676-3.563 7.016-8.5 7.016-14.813 0-6.082-2.563-10.906-7.688-14.468-5.125-3.563-10.433-5.344-15.922-5.344-2.898 0-7.09.594-12.578 1.781L23.938-91.172c13.656-1.039 24.64-3.77 32.953-8.187 8.312-4.414 12.468-9.743 12.468-15.985 0-3.926-1.687-7.187-5.062-9.781-3.375-2.602-7.438-3.906-12.188-3.906-8.398 0-19.273 3.672-32.625 11.015l-9.906-14.25c10.613-4.3 20.817-6.453 30.61-6.453 11.425 0 20.644 2.883 27.656 8.64 7.02 5.75 10.531 13.376 10.531 22.876 0 10.98-6.977 19.14-20.922 24.484 12.094 5.649 22.188 8.469 30.281 8.469 8.75 0 14.551-1.742 17.407-5.234 2.863-3.489 4.332-8.832 4.406-16.032v-27.39H92.625L80.156-138.72zM176.563 4.016zm-17.47-15.485zM206.517 0zm0 0"/></symbol></defs><use xlink:href="#0872443ca" x="46.06836" y="188.25"/></svg>