<?xml version='1.0' encoding='UTF-8'?>
<svg xmlns="http://www.w3.org/2000/svg" xmlns:xlink="http://www.w3.org/1999/xlink" width="250px" height="250px" viewBox="0 0 250 250" y="0px" x="0px" enable-background="new 0 0 250 250"><defs><symbol overflow="visible" id="d1e978b5a"><path d="M142.969-150.578v17.156h-36.735V4.11h-4.718L87.25-11.969v-48.703c-6.125 5.242-13.375 7.86-21.75 7.86-7.25 0-14.465-2.094-21.64-6.282-7.169-4.187-13.31-9.203-18.422-15.047-5.118-5.843-7.672-12.953-7.672-21.328v-37.953H-.36v-17.156zM87.25-133.422H36.734v47.14c0 10.555 1.973 17.18 5.922 19.876 3.946 2.699 8.582 4.047 13.907 4.047 9.5 0 19.726-6.203 30.687-18.61zm0 0"/></symbol></defs><use xlink:href="#d1e978b5a" x="55.0885" y="200"/></svg>