<?xml version='1.0' encoding='UTF-8'?>
<svg xmlns="http://www.w3.org/2000/svg" xmlns:xlink="http://www.w3.org/1999/xlink" width="250px" height="250px" viewBox="0 0 250 250" y="0px" x="0px" enable-background="new 0 0 250 250"><defs><symbol overflow="visible" id="06369e11a"><path d="M145.063-138.719v15.813H91.172L93.188-86.5h-49.22c-7.937 0-11.906 2.602-11.906 7.797 0 2.887 3.004 7.672 9.016 14.36 5.645-1.782 12.14-2.673 19.484-2.673 10.989 0 19.915 3.528 26.782 10.579 6.863 7.042 10.297 14.203 10.297 21.484 0 7.055-3.383 13.18-10.141 18.375-6.75 5.187-14.355 7.781-22.813 7.781C48.133-8.797 28.984-23.53 7.234-53l5.016-2.328c10.758 13.281 19.273 21.797 25.547 25.547 6.27 3.75 12.41 5.625 18.422 5.625 7.125 0 13.953-2.39 20.484-7.172 6.531-4.79 9.797-9.3 9.797-13.531 0-3.414-1.172-6.11-3.516-8.078-2.336-1.97-4.949-2.954-7.843-2.954-2.743 0-7.23 1.078-13.47 3.235-6.23 2.074-11.054 3.11-14.468 3.11-17.512-19.22-26.266-32.243-26.266-39.079 0-9.125 7.008-13.688 21.032-13.688h36.406v-20.593H-.328v-15.813zm-42.188 72.594l15.688-15.484 15.703 15.484-15.703 15.688zm0 0"/></symbol></defs><use xlink:href="#06369e11a" x="53.91699" y="188.25"/></svg>