<?xml version='1.0' encoding='UTF-8'?>
<svg xmlns="http://www.w3.org/2000/svg" xmlns:xlink="http://www.w3.org/1999/xlink" width="250px" height="250px" viewBox="0 0 250 250" y="0px" x="0px" enable-background="new 0 0 250 250"><defs><symbol overflow="visible" id="d1e978b5a"><path d="M129.969-136.89v15.593H96.563V3.734H92.28L79.328-10.875v-44.281c-5.574 4.761-12.168 7.14-19.781 7.14-6.594 0-13.152-1.898-19.672-5.703-6.512-3.812-12.094-8.367-16.75-13.672-4.648-5.312-6.969-11.78-6.969-19.406v-34.5H-.328v-15.594zm-50.64 15.593H33.405v42.86c0 9.593 1.79 15.62 5.375 18.078 3.594 2.449 7.805 3.672 12.64 3.672 8.634 0 17.938-5.641 27.907-16.922zm0 0"/></symbol></defs><use xlink:href="#d1e978b5a" x="61.44409" y="187.5"/></svg>