<?xml version='1.0' encoding='UTF-8'?>
<svg xmlns="http://www.w3.org/2000/svg" xmlns:xlink="http://www.w3.org/1999/xlink" width="250px" height="250px" viewBox="0 0 250 250" y="0px" x="0px" enable-background="new 0 0 250 250"><defs><symbol overflow="visible" id="2689e936a"><path d="M157.86-138.719v15.813h-33.735V3.234h-4.672l-12.578-14.25v-73.812c-7.719 1.781-19.633 13.172-35.734 34.172L58.219-63.453c2.082-3.125 5.5-7.43 10.25-12.922-7.344-6.977-14.621-10.469-21.828-10.469-4.825 0-9.336 1.969-13.532 5.906-4.187 3.938-6.28 8.579-6.28 13.922 0 5.782 1.91 11.625 5.733 17.532 3.82 5.898 14.118 17.047 30.891 33.453l-3.781 3.453-31.61-31.625C21.445-50.734 16.953-56.332 14.579-61c-2.375-4.676-3.562-9.02-3.562-13.031 0-7.196 2.351-13.172 7.062-17.922 4.719-4.75 10.531-7.125 17.438-7.125 11.062 0 23.195 6.308 36.406 18.922C83.273-91.22 94.926-96.75 106.875-96.75v-26.156H-.328v-15.813zm0 0"/></symbol></defs><use xlink:href="#2689e936a" x="47.51562" y="188.25"/></svg>