<?xml version='1.0' encoding='UTF-8'?>
<svg xmlns="http://www.w3.org/2000/svg" xmlns:xlink="http://www.w3.org/1999/xlink" width="250px" height="250px" viewBox="0 0 250 250" y="0px" x="0px" enable-background="new 0 0 250 250"><defs><symbol overflow="visible" id="749c80cca"><path d="M172.938-150.578v17.156h-36.625V4.468h-4.704l-14.015-16.187v-121.703H71.188c12.406 10.156 18.609 23.652 18.609 40.484 0 12.575-2.781 23.696-8.344 33.36-5.562 9.668-13.418 16.558-23.562 20.672L82.906-7.61l-5.078 2.89-25.984-32.265c-3.543.73-7.008 1.093-10.39 1.093-6.93 0-12.61-1.41-17.048-4.234-4.43-2.82-6.64-6.523-6.64-11.11 0-3.226 1.023-5.89 3.078-7.984 2.05-2.093 4.61-3.14 7.672-3.14 5.406 0 13.18 5.523 23.328 16.562 8.375-4.914 14.617-17.687 18.734-38.312-7.012 5.242-14.508 7.859-22.484 7.859-6.524 0-12.64-2.07-18.36-6.219-5.718-4.156-8.578-10.707-8.578-19.656 0-12.883 7.285-23.316 21.86-31.297H-.36v-17.156zm-109.97 17.156h-9.187c-11.367 3.469-17.047 13.059-17.047 28.766 0 6.605 1.586 11.844 4.766 15.719 3.188 3.867 7.281 5.796 12.281 5.796 12.883 0 19.328-9.187 19.328-27.562 0-11.195-3.382-18.77-10.14-22.719zm0 0"/></symbol></defs><use xlink:href="#749c80cca" x="40.10315" y="200"/></svg>