<?xml version='1.0' encoding='UTF-8'?>
<svg xmlns="http://www.w3.org/2000/svg" xmlns:xlink="http://www.w3.org/1999/xlink" width="250px" height="250px" viewBox="0 0 250 250" y="0px" x="0px" enable-background="new 0 0 250 250"><defs><symbol overflow="visible" id="019d8580a"><path d="M123.39-150.578v17.156H69.61c2.894 7.418 4.343 15.637 4.343 24.656 0 20.063-8.742 37.668-26.219 52.813C62.797-39.36 84.63-21.031 113.234-.97l-3.14 4.469C84.875-13.895 63.582-31.07 46.219-48.031 28.863-65 20.187-77.227 20.187-84.72c0-7.406 4.954-11.11 14.86-11.11 4.75 0 10.469 1.048 17.156 3.141 5.082-6.53 7.625-13.175 7.625-19.937 0-5.238-1.82-12.172-5.453-20.797H-.359v-17.156zm0 0"/></symbol></defs><use xlink:href="#019d8580a" x="64.93774" y="200"/></svg>