<?xml version='1.0' encoding='UTF-8'?>
<svg xmlns="http://www.w3.org/2000/svg" xmlns:xlink="http://www.w3.org/1999/xlink" width="250px" height="250px" viewBox="0 0 250 250" y="0px" x="0px" enable-background="new 0 0 250 250"><defs><symbol overflow="visible" id="a4a982c1a"><path d="M173.297-150.578v17.156h-36.61V4.11h-5.078l-14.015-15.234v-76.484H79.64C90.43-76.58 95.828-66.47 95.828-57.281c0 8.46-2.805 15.492-8.406 21.093-5.594 5.594-12.7 8.391-21.313 8.391-10.636 0-21.054-6.223-31.25-18.672-10.187-12.445-19.187-29.629-27-51.547l4.829-2.89C29.125-64.008 45.44-45.562 61.64-45.562c4.832 0 8.773-1.47 11.828-4.407 3.062-2.937 4.594-6.828 4.594-11.672 0-3.625-1.352-7.953-4.047-12.984-2.7-5.031-11.664-15.04-26.891-30.031h70.469v-28.766H-.36v-17.156zm0 0"/></symbol></defs><use xlink:href="#a4a982c1a" x="39.92188" y="200"/></svg>