<?xml version='1.0' encoding='UTF-8'?>
<svg xmlns="http://www.w3.org/2000/svg" xmlns:xlink="http://www.w3.org/1999/xlink" width="250px" height="250px" viewBox="0 0 250 250" y="0px" x="0px" enable-background="new 0 0 250 250"><defs><symbol overflow="visible" id="ad8d8ed5a"><path d="M160.969-150.578v17.156h-36.735V3.5h-4.953l-14.015-15.219v-44.234c-13.22 11.762-26.153 17.64-38.797 17.64-7.574 0-16.781-4.109-27.625-12.328-10.836-8.218-20.32-17.601-28.453-28.156v-2.531c14.5-.645 26.097-4.55 34.797-11.719 8.707-7.176 13.062-15.07 13.062-23.687 0-5.883-1.777-10.782-5.328-14.688-3.543-3.906-7.61-5.86-12.203-5.86-3.055 0-6.074 1.09-9.063 3.266-2.98 2.168-4.468 5.953-4.468 11.36 0 7.648 4.43 14.172 13.296 19.578l-4.718 3.5c-16.68-6.852-25.016-17.086-25.016-30.703 0-13.051 6.004-19.578 18.016-19.578 8.539 0 18.328 4.96 29.359 14.875 11.04 9.906 16.563 20.015 16.563 30.328 0 6.773-3.79 13.761-11.36 20.969-7.574 7.21-18.773 12.949-33.594 17.218 10.227 9.906 19.813 14.86 28.75 14.86 8.864 0 18.875-4.286 30.032-12.86 11.164-8.582 16.75-17.988 16.75-28.219v-40.734H82.172L65.14-150.578zm0 0"/></symbol></defs><use xlink:href="#ad8d8ed5a" x="46.08521" y="200"/></svg>