<?xml version='1.0' encoding='UTF-8'?>
<svg xmlns="http://www.w3.org/2000/svg" xmlns:xlink="http://www.w3.org/1999/xlink" width="250px" height="250px" viewBox="0 0 250 250" y="0px" x="0px" enable-background="new 0 0 250 250"><defs><symbol overflow="visible" id="0856c341a"><path d="M163.031-136.89v15.593h-33.39V3.734h-4.828l-12.422-14.39v-52.297c-5.2 1.25-11.496 1.875-18.891 1.875-8.574 0-15.313-.516-20.219-1.547 2.707 4.617 4.063 8.828 4.063 12.64 0 10.762-6.703 20.903-20.11 30.422L77.016.328 73.28 3.734 52.297-16.375c-5.938 2.273-11.215 3.406-15.828 3.406-6.512 0-11.528-2.031-15.047-6.094-3.512-4.062-5.266-8.253-5.266-12.578 0-7.832 3.442-11.75 10.328-11.75 5.125 0 11.055 3.844 17.797 11.532 18.008-2.633 27.016-10.032 27.016-22.188 0-5.351-2.492-8.031-7.469-8.031-3.074 0-7.21.7-12.406 2.094-7.774 2.054-12.461 3.078-14.063 3.078-5.5 0-10.996-3.719-16.484-11.157-5.492-7.437-8.234-14.554-8.234-21.359 0-9.008 5.671-13.516 17.015-13.516 3.008 0 8.395.258 16.157.766 7.832.438 12.593.656 14.28.656v-19.78H-.327v-15.595zm-50.64 15.593H69.875l2.313 30.438H35.374c-3.96 0-7.258 1.355-9.89 4.062-2.637 2.711-3.954 5.57-3.954 8.578 0 1.98.805 3.813 2.422 5.5 1.613 1.68 3.703 2.516 6.266 2.516 4.468 0 11.203-.363 20.203-1.094 8.937-.738 15.71-1.11 20.328-1.11 23.727 0 37.61-5.269 41.64-15.812zm0 0"/></symbol></defs><use xlink:href="#0856c341a" x="44.9646" y="187.5"/></svg>