<?xml version='1.0' encoding='UTF-8'?>
<svg xmlns="http://www.w3.org/2000/svg" xmlns:xlink="http://www.w3.org/1999/xlink" width="250px" height="250px" viewBox="0 0 250 250" y="0px" x="0px" enable-background="new 0 0 250 250"><defs><symbol overflow="visible" id="bcc9b7b8a"><path d="M156.86-138.719v15.813h-33.735V3.454h-4.672L105.875-11.36v-43.422c-4.75 2.156-11.84 4.015-21.266 5.578 0 9.055-3.527 16.902-10.578 23.547-7.054 6.636-14.289 9.953-21.703 9.953-12.105 0-22.055-6.27-29.844-18.813-7.793-12.539-11.687-26.492-11.687-41.859l4.906-2.328c1.852 30.125 12.875 45.187 33.063 45.187 15.363 0 23.047-14.062 23.047-42.187 0-7.195-1.266-10.797-3.797-10.797-3.637 0-12.762 4.453-27.375 13.36l-9.016-16.922c10.602-6.977 18.656-10.47 24.156-10.47 6.457 0 12.375 3.844 17.75 11.532 5.383 7.68 8.707 16.75 9.969 27.219 9.57-4.907 17.031-11.516 22.375-19.828v-41.297H-.328v-15.813zm0 0"/></symbol></defs><use xlink:href="#bcc9b7b8a" x="48.0166" y="188.25"/></svg>