<?xml version='1.0' encoding='UTF-8'?>
<svg xmlns="http://www.w3.org/2000/svg" xmlns:xlink="http://www.w3.org/1999/xlink" width="250px" height="250px" viewBox="0 0 250 250" y="0px" x="0px" enable-background="new 0 0 250 250"><defs><symbol overflow="visible" id="0ccf5c0fa"><path d="M134.984-150.578v17.156H76.25v43.031c13.3 1.45 23.898 5.938 31.797 13.47 7.894 7.53 11.844 17.058 11.844 28.577 0 12.25-5.079 22.485-15.235 30.703C94.5-9.42 82.696-5.313 69.25-5.313c-16.281 0-29.68-5.175-40.188-15.53-10.511-10.352-15.765-22.9-15.765-37.641 0-7.895 2.113-14.301 6.344-19.22 4.226-4.913 13.797-9.788 28.703-14.624 5.55-1.77 8.992-3.703 10.328-5.797 1.332-2.094 2-4.797 2-8.11v-27.187H-.36v-17.156zm-60.656 65.5c-4.273 3.625-12.09 7.09-23.453 10.39C38.707-71.3 30.832-67.39 27.25-62.953c-3.586 4.43-5.375 9.703-5.375 15.828 0 7.168 2.797 13.715 8.39 19.64 5.602 5.919 13.52 8.876 23.75 8.876 13.051 0 24.915-3.68 35.594-11.047 10.676-7.375 16.016-16.664 16.016-27.875 0-7.25-2.719-13.41-8.156-18.485-5.438-5.07-13.153-8.093-23.14-9.062zm0 0"/></symbol></defs><use xlink:href="#0ccf5c0fa" x="59.07654" y="200"/></svg>