<?xml version='1.0' encoding='UTF-8'?>
<svg xmlns="http://www.w3.org/2000/svg" xmlns:xlink="http://www.w3.org/1999/xlink" width="250px" height="250px" viewBox="0 0 250 250" y="0px" x="0px" enable-background="new 0 0 250 250"><defs><symbol overflow="visible" id="f055a079a"><path d="M148.047-150.578v17.156h-36.75V4.11h-2.531L92.328-12.328v-38.547c-14.742 9.668-27.914 14.5-39.516 14.5-11.605 0-21.68-4.488-30.218-13.469C14.05-58.832 9.78-69.328 9.78-81.328c20.063 0 30.094-9.348 30.094-28.047 0-5.719-2.137-13.734-6.406-24.047H-.36v-17.156zm-55.719 17.156H45.562c4.426 12.656 6.641 23.496 6.641 32.516 0 10.398-2.86 18.918-8.578 25.562-5.719 6.649-13.531 10.371-23.438 11.172 5.157 11.606 13.41 17.406 24.766 17.406 11.602 0 27.395-9.586 47.375-28.765zm0 0"/></symbol></defs><use xlink:href="#f055a079a" x="52.61108" y="200"/></svg>