<?xml version='1.0' encoding='UTF-8'?>
<svg xmlns="http://www.w3.org/2000/svg" xmlns:xlink="http://www.w3.org/1999/xlink" width="250px" height="250px" viewBox="0 0 250 250" y="0px" x="0px" enable-background="new 0 0 250 250"><defs><symbol overflow="visible" id="7d2c0fdea"><path d="M137.484-138.719v15.813H98.531C108.176-114.375 113-105.656 113-96.75c0 12.992-6.867 22.309-20.594 27.953 13.946 11.875 20.922 23.453 20.922 34.734 0 8.836-3.121 16.422-9.36 22.766-6.23 6.344-14.277 9.516-24.14 9.516-9.21 0-17.71-3.242-25.5-9.735-7.793-6.5-17.734-19.472-29.828-38.922L7.234-78.047l4.672-2.672L28.828-53.89C44.266-29.39 59.11-17.14 73.36-17.14c6.614 0 12.594-2.43 17.938-7.297 5.344-4.863 8.016-11.003 8.016-18.421 0-8.832-4.344-16.586-13.032-23.266-5.492.96-11.242 1.438-17.25 1.438-7.054 0-13.18-.368-18.375-1.11l-2.89-16.922a363.32 363.32 0 0 0 20.375.563c12.02 0 20.754-2.094 26.203-6.281 5.457-4.196 8.187-9.083 8.187-14.657 0-7.57-4.383-14.176-13.14-19.812H-.33v-15.813zm0 0"/></symbol></defs><use xlink:href="#7d2c0fdea" x="57.70215" y="188.25"/></svg>