<?xml version='1.0' encoding='UTF-8'?>
<svg xmlns="http://www.w3.org/2000/svg" xmlns:xlink="http://www.w3.org/1999/xlink" width="250px" height="250px" viewBox="0 0 250 250" y="0px" x="0px" enable-background="new 0 0 250 250"><defs><symbol overflow="visible" id="3501e3aca"><path d="M159.64-138.719v15.813h-33.734V3.454h-5.344L108.439-11.36v-39.625C95.3-41.266 84.163-36.406 75.03-36.406c-8.312 0-15.793-3.524-22.437-10.578-6.637-7.051-9.953-13.844-9.953-20.375 0-3.258 1.148-7.786 3.453-13.579h-31.39L8.233-96.75h100.204v-26.156H-.329v-15.813zm-51.202 57.781H78.483c-7.418 0-13.355 2.493-17.812 7.47C56.222-68.5 54-63.712 54-59.11c0 3.636 1.316 6.734 3.953 9.297 2.633 2.554 5.988 3.828 10.063 3.828 13.437 0 26.91-10.5 40.421-31.5zm0 0"/></symbol></defs><use xlink:href="#3501e3aca" x="46.625" y="188.25"/></svg>