<?xml version='1.0' encoding='UTF-8'?>
<svg xmlns="http://www.w3.org/2000/svg" xmlns:xlink="http://www.w3.org/1999/xlink" width="250px" height="250px" viewBox="0 0 250 250" y="0px" x="0px" enable-background="new 0 0 250 250"><defs><symbol overflow="visible" id="0ccf5c0fa"><path d="M124.36-138.719v15.813H70.25v39.625c12.25 1.344 22.008 5.484 29.281 12.422 7.27 6.937 10.906 15.714 10.906 26.328 0 11.281-4.68 20.71-14.03 28.281C87.062-8.687 76.19-4.906 63.796-4.906c-15 0-27.344-4.766-37.031-14.297-9.68-9.54-14.516-21.102-14.516-34.688 0-7.27 1.945-13.164 5.844-17.687C21.988-76.11 30.8-80.602 44.53-85.062c5.125-1.626 8.297-3.399 9.516-5.329 1.226-1.937 1.844-4.425 1.844-7.468v-25.047H-.33v-15.813zM68.468-78.375c-3.938 3.344-11.137 6.54-21.594 9.578C35.665-65.68 28.41-62.082 25.109-58c-3.304 4.086-4.953 8.945-4.953 14.578 0 6.606 2.578 12.637 7.735 18.094 5.156 5.46 12.445 8.187 21.875 8.187 12.02 0 22.945-3.394 32.78-10.187 9.833-6.79 14.75-15.348 14.75-25.672 0-6.676-2.507-12.352-7.515-17.031-5.011-4.676-12.117-7.457-21.312-8.344zm0 0"/></symbol></defs><use xlink:href="#0ccf5c0fa" x="64.27051" y="188.25"/></svg>