<?xml version='1.0' encoding='UTF-8'?>
<svg xmlns="http://www.w3.org/2000/svg" xmlns:xlink="http://www.w3.org/1999/xlink" width="250px" height="250px" viewBox="0 0 250 250" y="0px" x="0px" enable-background="new 0 0 250 250"><defs><symbol overflow="visible" id="4e920ecca"><path d="M136.234-136.89v15.593h-33.297V3.406h-5.156L85.687-10.875v-110.422H49.11c3.07 36.7 4.61 57.5 4.61 62.406 0 15.024-3.149 22.532-9.438 22.532-2.125 0-4.453-1.114-6.984-3.344-2.524-2.238-7.742-8.555-15.656-18.953-7.907-10.407-11.86-17.11-11.86-20.11 0-3.3 2.125-4.953 6.375-4.953 1.239 0 3.14.149 5.703.438 2.563.293 4.649.437 6.266.437 5.563 0 8.344-2.082 8.344-6.25v-32.203H-.328v-15.594zm0 0"/></symbol></defs><use xlink:href="#4e920ecca" x="58.31299" y="187.5"/></svg>