<?xml version='1.0' encoding='UTF-8'?>
<svg xmlns="http://www.w3.org/2000/svg" xmlns:xlink="http://www.w3.org/1999/xlink" width="250px" height="250px" viewBox="0 0 250 250" y="0px" x="0px" enable-background="new 0 0 250 250"><defs><symbol overflow="visible" id="7bfaae7ba"><path d="M163.14-150.578v17.156h-36.609V4.11h-5.437l-13.531-15.468v-63.328C96.112-68.97 87.25-66.11 80.969-66.11c-8.7 0-18.809-2.211-30.328-6.641-5 10.313-10.078 17.93-15.235 22.844 15.79 19.25 29.407 34.84 40.844 46.765L72.75.97C49.3-23.844 33.207-42.313 24.469-54.438c-8.742-12.124-13.11-21.69-13.11-28.703 0-8.218 3.786-12.328 11.36-12.328 4.426 0 9.504 1.371 15.234 4.11 3.781-5.563 5.672-13.22 5.672-22.97 0-5.956-1.695-12.32-5.078-19.093H-.36v-17.156zm-55.577 17.156H54.016c2.82 7.656 4.234 15.875 4.234 24.656 0 6.45-1.09 14.227-3.266 23.329 11.688 4.03 21.192 6.046 28.516 6.046 7.332 0 13.176-1.875 17.531-5.625 4.352-3.75 6.531-8 6.531-12.75zm0 0"/></symbol></defs><use xlink:href="#7bfaae7ba" x="44.99756" y="200"/></svg>