<?xml version='1.0' encoding='UTF-8'?>
<svg xmlns="http://www.w3.org/2000/svg" xmlns:xlink="http://www.w3.org/1999/xlink" width="250px" height="250px" viewBox="0 0 250 250" y="0px" x="0px" enable-background="new 0 0 250 250"><defs><symbol overflow="visible" id="f5a49c1ba"><path d="M136.016-136.89v15.593h-33.407V3.734h-2.296L85.358-10.875v-29.11c-13.468 8.856-24.78 13.282-33.937 13.282-9.23 0-18.297-4.485-27.203-13.453-8.899-8.969-13.344-17.922-13.344-26.86 0-8.937 4.906-16.39 14.719-22.359 9.812-5.969 19.004-8.953 27.578-8.953 8.133 0 18.863 5.933 32.187 17.797v-40.766H-.328v-15.594zm-93.5 59.546l26.156 27.906c5.488-2.851 9.64-5.69 12.453-8.515 2.82-2.82 4.234-7.86 4.234-15.11-6.96-6.664-14.136-10-21.53-10-7.4 0-14.5 1.907-21.313 5.72zM63.28-46.906l-26.14-28.125C26.586-69.613 21.313-63.5 21.313-56.687c0 4.105 1.937 7.968 5.812 11.593 3.883 3.625 8.36 5.438 13.422 5.438 5.488 0 13.066-2.414 22.734-7.25zm0 0"/></symbol></defs><use xlink:href="#f5a49c1ba" x="58.47778" y="187.5"/></svg>