<?xml version='1.0' encoding='UTF-8'?>
<svg xmlns="http://www.w3.org/2000/svg" xmlns:xlink="http://www.w3.org/1999/xlink" width="250px" height="250px" viewBox="0 0 250 250" y="0px" x="0px" enable-background="new 0 0 250 250"><defs><symbol overflow="visible" id="bcc9b7b8a"><path d="M170.281-150.578v17.156h-36.625V3.75h-5.078l-13.656-16.078v-47.125c-5.156 2.336-12.852 4.344-23.078 6.031 0 9.836-3.828 18.356-11.485 25.563-7.648 7.21-15.5 10.812-23.562 10.812-13.137 0-23.934-6.805-32.39-20.422-8.462-13.613-12.688-28.758-12.688-45.437l5.328-2.531c2.008 32.71 13.973 49.062 35.89 49.062 16.676 0 25.016-15.266 25.016-45.797 0-7.82-1.371-11.734-4.11-11.734-3.948 0-13.859 4.84-29.734 14.515l-9.78-18.375c11.519-7.57 20.257-11.359 26.218-11.359 7.008 0 13.43 4.172 19.266 12.516 5.843 8.336 9.453 18.18 10.828 29.53 10.394-5.312 18.488-12.476 24.28-21.5v-44.843H-.358v-17.156zm0 0"/></symbol></defs><use xlink:href="#bcc9b7b8a" x="41.4325" y="200"/></svg>