<?xml version='1.0' encoding='UTF-8'?>
<svg xmlns="http://www.w3.org/2000/svg" xmlns:xlink="http://www.w3.org/1999/xlink" width="250px" height="250px" viewBox="0 0 250 250" y="0px" x="0px" enable-background="new 0 0 250 250"><defs><symbol overflow="visible" id="ff4d16ffa"><path d="M157.875-136.89v15.593h-33.406V3.734h-5.156l-12.079-14.39V-53.5H67.563c-2.126 20.137-4.797 30.203-8.016 30.203-2.711 0-8.809-6.039-18.297-18.125-9.48-12.082-14.219-20.14-14.219-24.172 0-2.05 1.426-3.078 4.282-3.078h19c1.976-5.05 3.519-11.969 4.624-20.75-3.011.805-6.859 1.203-11.546 1.203-7.543 0-15.215-3.222-23.016-9.672-7.805-6.445-11.703-13.222-11.703-20.328 0-4.976 1.39-9.187 4.172-12.625 2.789-3.445 6.457-5.172 11-5.172 12.008 0 22.629 5.422 31.86 16.266 9.226 10.844 13.843 24.21 13.843 40.094 0 4.031-.184 7.695-.547 10.984h38.234v-52.625H73.281L62.078-136.89zM55.156-94.923c0-9.52-1.761-17.023-5.281-22.516-3.512-5.5-8.164-8.25-13.953-8.25-3.438 0-6.313 1.32-8.625 3.954-2.305 2.636-3.453 5.75-3.453 9.343 0 5.344 1.992 9.829 5.984 13.454C33.816-95.314 39-93.5 45.375-93.5c3.07 0 6.332-.473 9.781-1.422zm0 0"/></symbol></defs><use xlink:href="#ff4d16ffa" x="47.49146" y="187.5"/></svg>