<?xml version='1.0' encoding='UTF-8'?>
<svg xmlns="http://www.w3.org/2000/svg" xmlns:xlink="http://www.w3.org/1999/xlink" width="250px" height="250px" viewBox="0 0 250 250" y="0px" x="0px" enable-background="new 0 0 250 250"><defs><symbol overflow="visible" id="f055a079a"><path d="M136.375-138.719v15.813h-33.844V3.78h-2.328l-15.14-15.14v-35.516c-13.586 8.906-25.72 13.36-36.407 13.36-10.687 0-19.968-4.133-27.843-12.407-7.868-8.281-11.797-17.945-11.797-29 18.476 0 27.718-8.61 27.718-25.828 0-5.27-1.964-12.656-5.89-22.156H-.328v-15.813zm-51.313 15.813H41.97c4.082 11.656 6.125 21.64 6.125 29.953 0 9.574-2.637 17.422-7.907 23.547C34.915-63.29 27.72-59.86 18.595-59.11c4.75 10.687 12.36 16.03 22.828 16.03 10.687 0 25.234-8.831 43.64-26.5zm0 0"/></symbol></defs><use xlink:href="#f055a079a" x="58.31445" y="188.25"/></svg>