<?xml version='1.0' encoding='UTF-8'?>
<svg xmlns="http://www.w3.org/2000/svg" xmlns:xlink="http://www.w3.org/1999/xlink" width="250px" height="250px" viewBox="0 0 250 250" y="0px" x="0px" enable-background="new 0 0 250 250"><defs><symbol overflow="visible" id="ee69b4e4a"><path d="M122.719-136.89v15.593H80.203l2.64 29.563H44.829c-11.648 0-17.469 4.21-17.469 12.625 0 3.812 1.223 7.226 3.672 10.234 2.457 3 5.258 4.5 8.407 4.5 1.175 0 5.863-.953 14.062-2.86 8.133-1.976 13.883-2.968 17.25-2.968 4.758 0 10.488 3.648 17.188 10.937C94.644-51.984 98-45.446 98-39.656c0 10.105-8.023 19.883-24.063 29.328l35.922 35.922h-7.25L68.438-8.016c-5.055 1.907-9.852 2.86-14.391 2.86-7.106 0-13-2.235-17.688-6.703-4.687-4.47-7.03-9.344-7.03-14.625 0-3.29.987-5.977 2.968-8.063 1.976-2.094 4.36-3.14 7.14-3.14 5.5 0 12.676 4.906 21.532 14.718 7.55-.437 13.941-3.144 19.172-8.125C85.379-36.07 88-41.234 88-46.578c0-3.594-1.156-6.598-3.469-9.016-2.304-2.414-5.281-3.625-8.937-3.625-1.617 0-5.54.844-11.766 2.532-6.375 1.761-11.355 2.64-14.937 2.64-7.688 0-15.032-3.77-22.032-11.312-6.992-7.551-10.484-15.461-10.484-23.735 0-9.008 6.922-13.515 20.766-13.515h32.187v-18.688H-.328v-15.594zm0 0"/></symbol></defs><use xlink:href="#ee69b4e4a" x="65.06958" y="187.5"/></svg>