<?xml version='1.0' encoding='UTF-8'?>
<svg xmlns="http://www.w3.org/2000/svg" xmlns:xlink="http://www.w3.org/1999/xlink" width="250px" height="250px" viewBox="0 0 250 250" y="0px" x="0px" enable-background="new 0 0 250 250"><defs><symbol overflow="visible" id="ac2950bfa"><path d="M148.047-150.578v17.156h-36.75V4.11h-5.672L92.328-11.359v-76.25H62.36c-23.043 0-34.562 8.015-34.562 24.046 0 7.97 3.238 16.633 9.719 25.985 6.488 9.344 17.066 21.547 31.734 36.61l-4.11 3.874C44.755-17.082 31.38-32.352 25.017-42.906c-6.368-10.551-9.547-21.145-9.547-31.782 0-19.976 11.281-29.968 33.843-29.968h43.016v-28.766H-.359v-17.156zm0 0"/></symbol></defs><use xlink:href="#ac2950bfa" x="52.55066" y="200"/></svg>