<?xml version='1.0' encoding='UTF-8'?>
<svg xmlns="http://www.w3.org/2000/svg" xmlns:xlink="http://www.w3.org/1999/xlink" width="250px" height="250px" viewBox="0 0 250 250" y="0px" x="0px" enable-background="new 0 0 250 250"><defs><symbol overflow="visible" id="ee69b4e4a"><path d="M134.984-150.578v17.156H88.22l2.906 32.516H49.312c-12.812 0-19.218 4.633-19.218 13.89 0 4.188 1.347 7.938 4.047 11.25 2.695 3.305 5.78 4.954 9.25 4.954 1.28 0 6.437-1.047 15.468-3.141 8.938-2.176 15.258-3.266 18.97-3.266 5.237 0 11.538 4.012 18.905 12.031 7.375 8.012 11.063 15.2 11.063 21.563 0 11.117-8.824 21.871-26.469 32.266l39.516 39.515h-7.969L75.297-8.828c-5.563 2.094-10.844 3.14-15.844 3.14-7.812 0-14.297-2.453-19.453-7.359-5.156-4.914-7.734-10.273-7.734-16.078 0-3.625 1.086-6.582 3.265-8.875 2.176-2.3 4.797-3.453 7.86-3.453 6.039 0 13.937 5.402 23.687 16.203 8.29-.488 15.317-3.473 21.078-8.953 5.758-5.477 8.64-11.156 8.64-17.031 0-3.946-1.273-7.25-3.812-9.907-2.53-2.664-5.812-4-9.843-4-1.774 0-6.079.93-12.922 2.782-7.012 1.937-12.492 2.906-16.438 2.906-8.46 0-16.539-4.149-24.234-12.453C21.847-80.207 18-88.91 18-98.016c0-9.906 7.613-14.859 22.844-14.859H76.25v-20.547H-.36v-17.156zm0 0"/></symbol></defs><use xlink:href="#ee69b4e4a" x="59.07654" y="200"/></svg>