<?xml version='1.0' encoding='UTF-8'?>
<svg xmlns="http://www.w3.org/2000/svg" xmlns:xlink="http://www.w3.org/1999/xlink" width="250px" height="250px" viewBox="0 0 250 250" y="0px" x="0px" enable-background="new 0 0 250 250"><defs><symbol overflow="visible" id="f55884b2a"><path d="M122.016-138.719v15.813H86.5l2.344 37.297h-31.39c-12.106 0-21.497 2.578-28.173 7.734-6.68 5.156-10.015 12.484-10.015 21.984 0 8.762 3.394 17.246 10.187 25.453 6.79 8.2 16.492 12.516 29.11 12.954-5.418-13.133-8.126-23.41-8.126-30.828 0-7.196 1.852-12.688 5.563-16.47 3.707-3.788 8.348-5.687 13.922-5.687 7.863 0 15.707 4.512 23.531 13.531 7.832 9.012 11.75 18.196 11.75 27.547 0 7.649-3.008 14.012-9.016 19.094C90.177-5.21 82.195-2.672 72.25-2.672c-14.844 0-28.89-6.547-42.14-19.64-13.243-13.102-19.86-27.82-19.86-44.157 0-23.3 15.21-34.953 45.64-34.953h17.813v-21.484H-.328v-15.813zM64.125-17.484c9.426-.438 17.29-2.66 23.594-6.672 6.312-4.008 9.43-8.832 9.36-14.469 0-3.719-1.45-7.02-4.345-9.906-2.898-2.895-6.683-4.305-11.359-4.235-5.563 0-10.54 1.618-14.922 4.844-4.375 3.23-6.562 7.774-6.562 13.625 0 4.75 1.41 10.356 4.234 16.813zm0 0"/></symbol></defs><use xlink:href="#f55884b2a" x="65.43945" y="188.25"/></svg>