<?xml version='1.0' encoding='UTF-8'?>
<svg xmlns="http://www.w3.org/2000/svg" xmlns:xlink="http://www.w3.org/1999/xlink" width="250px" height="250px" viewBox="0 0 250 250" y="0px" x="0px" enable-background="new 0 0 250 250"><defs><symbol overflow="visible" id="850100ada"><path d="M122.719-136.89v15.593H91.188l2.203 36.484H60.094c-24.168 0-36.25 8.133-36.25 24.391 0 6.074 2.504 11.621 7.515 16.64 5.02 5.024 11.336 7.532 18.953 7.532 4.32 0 8.172-.77 11.547-2.313-1.543-2.195-2.312-5.238-2.312-9.124 0-3.07 1.476-5.907 4.437-8.5 2.97-2.602 6.649-3.907 11.047-3.907 6.227 0 11.336 1.797 15.328 5.39 3.989 3.587 5.985 8.013 5.985 13.282 0 4.98-3.735 9.961-11.203 14.938L105.797.546l-11.75 2.641-20.11-25.593a36.329 36.329 0 0 1-9.234 1.203c-13.18 0-25.008-5.785-35.484-17.36-10.469-11.57-15.703-23.07-15.703-34.5 0-18.164 14.754-27.25 44.265-27.25h19.563v-20.984H-.328v-15.594zm0 0"/></symbol></defs><use xlink:href="#850100ada" x="65.06958" y="187.5"/></svg>