<?xml version='1.0' encoding='UTF-8'?>
<svg xmlns="http://www.w3.org/2000/svg" xmlns:xlink="http://www.w3.org/1999/xlink" width="250px" height="250px" viewBox="0 0 250 250" y="0px" x="0px" enable-background="new 0 0 250 250"><defs><symbol overflow="visible" id="4e920ecca"><path d="M149.86-150.578v17.156h-36.626V3.75h-5.671L94.266-11.969v-121.453h-40.25c3.382 40.367 5.078 63.246 5.078 68.64C59.094-48.257 55.629-40 48.704-40c-2.337 0-4.892-1.227-7.673-3.688-2.781-2.457-8.527-9.406-17.234-20.843-8.7-11.438-13.047-18.813-13.047-22.125 0-3.625 2.336-5.438 7.016-5.438 1.363 0 3.457.164 6.28.485 2.821.324 5.118.484 6.892.484 6.125 0 9.187-2.297 9.187-6.89v-35.407H-.359v-17.156zm0 0"/></symbol></defs><use xlink:href="#4e920ecca" x="51.64429" y="200"/></svg>