<?xml version='1.0' encoding='UTF-8'?>
<svg xmlns="http://www.w3.org/2000/svg" xmlns:xlink="http://www.w3.org/1999/xlink" width="250px" height="250px" viewBox="0 0 250 250" y="0px" x="0px" enable-background="new 0 0 250 250"><defs><symbol overflow="visible" id="0872443ca"><path d="M174.625-150.578v17.156h-36.734V4.11h-5.078l-13.891-16.437v-54.375c-6.211 2.336-14.953 3.5-26.234 3.5.32 2.25.484 4.465.484 6.64 0 9.344-3.063 16.938-9.188 22.782-6.117 5.843-14.09 8.765-23.921 8.765-12.731 0-23.688-5.695-32.876-17.093-9.18-11.407-14.777-24.883-16.796-40.438h6.046C18.532-70.773 23.18-61.02 30.392-53.28c7.207 7.73 15.328 11.593 24.359 11.593 5.875 0 11.348-1.93 16.422-5.796 5.082-3.875 7.625-9.235 7.625-16.078 0-6.614-2.781-11.852-8.344-15.72-5.562-3.863-11.324-5.796-17.281-5.796-3.149 0-7.7.648-13.656 1.937L25.984-98.969c14.82-1.133 26.743-4.097 35.766-8.89 9.031-4.79 13.547-10.57 13.547-17.344 0-4.27-1.836-7.813-5.5-10.625-3.668-2.82-8.078-4.234-13.234-4.234-9.106 0-20.907 3.992-35.407 11.968l-10.765-15.469c11.52-4.675 22.597-7.015 33.234-7.015 12.406 0 22.414 3.125 30.031 9.375 7.614 6.242 11.422 14.516 11.422 24.828 0 11.918-7.574 20.777-22.719 26.578 13.133 6.125 24.094 9.188 32.875 9.188 9.5 0 15.801-1.891 18.907-5.672 3.101-3.79 4.695-9.594 4.78-17.406v-29.735h-18.374l-13.531-17.156zM191.672 4.344zm-18.984-16.797zM224.172 0zm0 0"/></symbol></defs><use xlink:href="#0872443ca" x="39.31763" y="200"/></svg>