<?xml version='1.0' encoding='UTF-8'?>
<svg xmlns="http://www.w3.org/2000/svg" xmlns:xlink="http://www.w3.org/1999/xlink" width="250px" height="250px" viewBox="0 0 250 250" y="0px" x="0px" enable-background="new 0 0 250 250"><defs><symbol overflow="visible" id="bcc9b7b8a"><path d="M154.797-136.89v15.593h-33.281V3.406h-4.625l-12.407-14.61v-42.843c-4.687 2.125-11.683 3.953-20.984 5.484 0 8.938-3.48 16.688-10.438 23.25-6.96 6.555-14.101 9.829-21.421 9.829-11.938 0-21.758-6.188-29.453-18.563C14.5-46.43 10.655-60.203 10.655-75.359l4.828-2.313c1.832 29.742 12.711 44.61 32.641 44.61 15.156 0 22.734-13.88 22.734-41.641 0-7.102-1.246-10.656-3.734-10.656-3.586 0-12.594 4.39-27.031 13.171l-8.89-16.687c10.468-6.883 18.413-10.328 23.843-10.328 6.363 0 12.203 3.793 17.516 11.375 5.312 7.574 8.585 16.527 9.828 26.86 9.445-4.833 16.812-11.352 22.093-19.563v-40.766H-.328v-15.594zm0 0"/></symbol></defs><use xlink:href="#bcc9b7b8a" x="49.02954" y="187.5"/></svg>