<?xml version='1.0' encoding='UTF-8'?>
<svg xmlns="http://www.w3.org/2000/svg" xmlns:xlink="http://www.w3.org/1999/xlink" width="250px" height="250px" viewBox="0 0 250 250" y="0px" x="0px" enable-background="new 0 0 250 250"><defs><symbol overflow="visible" id="2cfe424ba"><path d="M148.625-138.719v15.813h-33.734V3.78H110l-12.594-15.14v-39.297C82.414-41.531 69.875-36.97 59.781-36.97c-9.355 0-17.32-2.968-23.89-8.906-6.563-5.938-9.844-12.984-9.844-21.14 0-10.54 4.75-18.891 14.25-25.047-10.617-2.157-17.93-4.848-21.938-8.079-4-3.226-6-7.625-6-13.187 0-4.227.961-7.422 2.891-9.578H-.328v-15.813zm-51.219 15.813H45.531c-4.011 0-7.633 1.187-10.86 3.562-3.218 2.375-4.827 5.344-4.827 8.906 0 8.981 7.082 13.47 21.25 13.47l12.468-.329C68.47-95.44 74.297-90.77 81.047-83.28c-17.813.449-29.934 2.64-36.36 6.578-6.417 3.93-9.624 9.496-9.624 16.703 0 3.93 1.296 7.137 3.89 9.625 2.602 2.492 6.172 3.734 10.703 3.734 6.895 0 16.578-3.597 29.047-10.797 12.469-7.207 18.703-16.414 18.703-27.624zm0 0"/></symbol></defs><use xlink:href="#2cfe424ba" x="52.13574" y="188.25"/></svg>