<?xml version='1.0' encoding='UTF-8'?>
<svg xmlns="http://www.w3.org/2000/svg" xmlns:xlink="http://www.w3.org/1999/xlink" width="250px" height="250px" viewBox="0 0 250 250" y="0px" x="0px" enable-background="new 0 0 250 250"><defs><symbol overflow="visible" id="1f91145aa"><path d="M139.75-136.89v15.593h-33.406V3.406h-4.281l-12.97-14.61v-32.515c-7.761 5.782-15.304 8.672-22.624 8.672-12.086 0-23.309-4.375-33.672-13.125C22.43-56.922 17.25-64.926 17.25-72.188v-49.109H-.328v-15.594zm-50.656 15.593H37.906L89.094-60.64zm-4.281 64.61L34.5-116.234v49.765c0 15.012 7.285 22.516 21.86 22.516 8.788 0 18.273-4.242 28.453-12.734zm0 0"/></symbol></defs><use xlink:href="#1f91145aa" x="56.61011" y="187.5"/></svg>