<?xml version='1.0' encoding='UTF-8'?>
<svg xmlns="http://www.w3.org/2000/svg" xmlns:xlink="http://www.w3.org/1999/xlink" width="250px" height="250px" viewBox="0 0 250 250" y="0px" x="0px" enable-background="new 0 0 250 250"><defs><symbol overflow="visible" id="c94042a3a"><path d="M136.375-138.719v15.813h-33.844V3.454h-2.328l-15.14-15.142v-62.015h-34.97c-5.562 0-9.03 1.058-10.406 3.172-1.374 2.117-2.062 6.476-2.062 13.078 0 5.2.129 9.137.39 11.812.258 2.668.462 4.485.61 5.453.082.22.125.22.125 0 0 2.594-1.637 3.891-4.906 3.891-2.668 0-7.383-4.894-14.14-14.687-6.75-9.801-10.126-17.97-10.126-24.5 0-4.157 1.367-7.508 4.11-10.063 2.75-2.562 5.94-3.844 9.578-3.844h61.797v-33.515H-.329v-15.813zm0 0"/></symbol></defs><use xlink:href="#c94042a3a" x="58.31445" y="188.25"/></svg>