<?xml version='1.0' encoding='UTF-8'?>
<svg xmlns="http://www.w3.org/2000/svg" xmlns:xlink="http://www.w3.org/1999/xlink" width="250px" height="250px" viewBox="0 0 250 250" y="0px" x="0px" enable-background="new 0 0 250 250"><defs><symbol overflow="visible" id="cd2228c0a"><path d="M142.172-138.719v15.813h-33.844v58.562c0 6.305-6.016 14.95-18.047 25.938L78.375-50.438c8.313-8.312 12.469-14.023 12.469-17.14v-55.328H40.53v78.375c0 2.156.164 3.867.5 5.125.332 1.261 3.836 3.82 10.516 7.672L101.64-2.672c19.82 11.5 29.734 21.703 29.734 30.61 0 8.312-6.2 13.175-18.594 14.593l-6.469-9.36c3.415-.292 6.254-1.421 8.516-3.39 2.27-1.968 3.406-4.215 3.406-6.734 0-6.836-8.726-15.297-26.171-25.39l-54.438-31.5c-6.156-3.563-10.125-6.864-11.906-9.907-1.782-3.04-2.672-8.348-2.672-15.922v-63.234H-.328v-15.813zm0 0"/></symbol></defs><use xlink:href="#cd2228c0a" x="55.36426" y="188.25"/></svg>