<?xml version='1.0' encoding='UTF-8'?>
<svg xmlns="http://www.w3.org/2000/svg" xmlns:xlink="http://www.w3.org/1999/xlink" width="250px" height="250px" viewBox="0 0 250 250" y="0px" x="0px" enable-background="new 0 0 250 250"><defs><symbol overflow="visible" id="019d8580a"><path d="M112.172-136.89v15.593h-48.89c2.632 6.742 3.952 14.215 3.952 22.422 0 18.242-7.949 34.246-23.843 48.016C57.086-35.773 76.938-19.113 102.938-.875l-2.86 4.063c-22.918-15.82-42.273-31.442-58.062-46.86-15.782-15.414-23.672-26.531-23.672-33.344 0-6.738 4.504-10.109 13.515-10.109 4.32 0 9.524.953 15.61 2.86 4.601-5.938 6.906-11.977 6.906-18.126 0-4.757-1.648-11.062-4.938-18.906H-.328v-15.594zm0 0"/></symbol></defs><use xlink:href="#019d8580a" x="70.39795" y="187.5"/></svg>