<?xml version='1.0' encoding='UTF-8'?>
<svg xmlns="http://www.w3.org/2000/svg" xmlns:xlink="http://www.w3.org/1999/xlink" width="250px" height="250px" viewBox="0 0 250 250" y="0px" x="0px" enable-background="new 0 0 250 250"><defs><symbol overflow="visible" id="7d2c0fdea"><path d="M149.25-150.578v17.156h-42.297c10.469 9.274 15.703 18.742 15.703 28.406 0 14.094-7.449 24.204-22.344 30.329 15.145 12.898 22.72 25.464 22.72 37.703 0 9.593-3.387 17.836-10.157 24.718-6.773 6.887-15.512 10.329-26.219 10.329-10 0-19.23-3.52-27.687-10.563-8.461-7.05-19.25-21.133-32.375-42.25L7.859-84.719l5.079-2.89 18.359 29.125C48.055-31.898 64.172-18.61 79.64-18.61c7.164 0 13.648-2.633 19.453-7.907 5.8-5.28 8.703-11.953 8.703-20.015 0-9.582-4.715-18-14.14-25.25-5.962 1.043-12.204 1.562-18.735 1.562-7.649 0-14.293-.398-19.938-1.203l-3.14-18.375c7.25.406 14.617.61 22.11.61 13.05 0 22.534-2.274 28.452-6.829 5.926-4.55 8.89-9.847 8.89-15.89 0-8.219-4.75-15.39-14.25-21.516H-.358v-17.156zm0 0"/></symbol></defs><use xlink:href="#7d2c0fdea" x="51.94641" y="200"/></svg>