<?xml version='1.0' encoding='UTF-8'?>
<svg xmlns="http://www.w3.org/2000/svg" xmlns:xlink="http://www.w3.org/1999/xlink" width="250px" height="250px" viewBox="0 0 250 250" y="0px" x="0px" enable-background="new 0 0 250 250"><defs><symbol overflow="visible" id="de409a0ea"><path d="M115.906-136.89v15.593H76.141l3.734 48.234H64.922c-29.656 0-44.484 9.231-44.484 27.688 0 7.398 2.671 13.367 8.015 17.906 5.344 4.543 11.754 6.813 19.235 6.813 8.925 0 24.453-5.38 46.578-16.14l10.656 13.827c-17.063 9.532-32.48 14.297-46.25 14.297-12.75 0-24.031-4.906-33.844-14.719C15.016-33.21 10.11-44.02 10.11-55.813c0-21.601 16.477-32.406 49.438-32.406h2.86v-33.078H-.329v-15.594zm0 0"/></symbol></defs><use xlink:href="#de409a0ea" x="68.53027" y="187.5"/></svg>