<?xml version='1.0' encoding='UTF-8'?>
<svg xmlns="http://www.w3.org/2000/svg" xmlns:xlink="http://www.w3.org/1999/xlink" width="250px" height="250px" viewBox="0 0 250 250" y="0px" x="0px" enable-background="new 0 0 250 250"><defs><symbol overflow="visible" id="7bfaae7ba"><path d="M150.297-138.719v15.813h-33.734V3.78h-5.016l-12.469-14.25v-58.328c-10.531 5.274-18.695 7.906-24.484 7.906-8.024 0-17.34-2.039-27.953-6.125-4.594 9.5-9.266 16.512-14.016 21.032C47.165-28.242 59.707-13.88 70.25-2.891L67.016.891c-21.594-22.864-36.418-39.88-44.47-51.047C14.493-61.32 10.47-70.133 10.47-76.594c0-7.57 3.488-11.36 10.469-11.36 4.07 0 8.742 1.263 14.015 3.782 3.488-5.113 5.234-12.16 5.234-21.14 0-5.5-1.558-11.364-4.671-17.594H-.328v-15.813zm-51.219 15.813H49.766c2.593 7.054 3.89 14.62 3.89 22.703 0 5.937-1 13.105-3 21.5 10.758 3.71 19.516 5.562 26.266 5.562 6.758 0 12.14-1.722 16.14-5.171 4.008-3.458 6.016-7.376 6.016-11.75zm0 0"/></symbol></defs><use xlink:href="#7bfaae7ba" x="51.30078" y="188.25"/></svg>