<?xml version='1.0' encoding='UTF-8'?>
<svg xmlns="http://www.w3.org/2000/svg" xmlns:xlink="http://www.w3.org/1999/xlink" width="250px" height="250px" viewBox="0 0 250 250" y="0px" x="0px" enable-background="new 0 0 250 250"><defs><symbol overflow="visible" id="749c80cca"><path d="M159.313-138.719v15.813h-33.735V4.125h-4.344l-12.906-14.922v-112.11h-42.75c11.426 9.356 17.14 21.79 17.14 37.298 0 11.574-2.562 21.812-7.687 30.718-5.117 8.907-12.351 15.258-21.703 19.047L76.375-7.016l-4.672 2.672-23.937-29.718c-3.274.667-6.465 1-9.578 1-6.387 0-11.622-1.297-15.704-3.891-4.086-2.602-6.125-6.02-6.125-10.25 0-2.969.946-5.414 2.844-7.344 1.895-1.937 4.254-2.906 7.078-2.906 4.969 0 12.13 5.09 21.485 15.266 7.718-4.532 13.468-16.297 17.25-35.297-6.461 4.824-13.36 7.234-20.704 7.234-6.011 0-11.652-1.91-16.921-5.734-5.274-3.82-7.907-9.852-7.907-18.094 0-11.875 6.72-21.484 20.157-28.828H-.33v-15.813zM58-122.906h-8.453c-10.469 3.187-15.703 12.023-15.703 26.5 0 6.086 1.46 10.906 4.39 14.469 2.938 3.562 6.707 5.343 11.313 5.343 11.875 0 17.812-8.46 17.812-25.39 0-10.313-3.12-17.286-9.359-20.922zm0 0"/></symbol></defs><use xlink:href="#749c80cca" x="46.79199" y="188.25"/></svg>