<?xml version='1.0' encoding='UTF-8'?>
<svg xmlns="http://www.w3.org/2000/svg" xmlns:xlink="http://www.w3.org/1999/xlink" width="250px" height="250px" viewBox="0 0 250 250" y="0px" x="0px" enable-background="new 0 0 250 250"><defs><symbol overflow="visible" id="f5a49c1ba"><path d="M149.61-150.578v17.156h-36.735V4.11h-2.547L93.906-11.969v-32.015C79.07-34.234 66.625-29.36 56.562-29.36c-10.156 0-20.132-4.93-29.921-14.797-9.782-9.875-14.672-19.727-14.672-29.563 0-9.832 5.394-18.031 16.187-24.594 10.801-6.562 20.91-9.843 30.328-9.843 8.946 0 20.754 6.527 35.422 19.578v-44.844H-.359v-17.156zm-102.844 65.5L75.53-54.375c6.04-3.145 10.614-6.27 13.719-9.375 3.102-3.102 4.656-8.64 4.656-16.61-7.656-7.331-15.554-11-23.687-11-8.137 0-15.953 2.094-23.453 6.282zM69.609-51.61L40.844-82.547c-11.606 5.969-17.407 12.7-17.407 20.188 0 4.511 2.133 8.761 6.407 12.75 4.27 3.992 9.187 5.984 14.75 5.984 6.039 0 14.379-2.66 25.015-7.984zm0 0"/></symbol></defs><use xlink:href="#f5a49c1ba" x="51.82556" y="200"/></svg>