<?xml version='1.0' encoding='UTF-8'?>
<svg xmlns="http://www.w3.org/2000/svg" xmlns:xlink="http://www.w3.org/1999/xlink" width="250px" height="250px" viewBox="0 0 250 250" y="0px" x="0px" enable-background="new 0 0 250 250"><defs><symbol overflow="visible" id="fb99acc7a"><path d="M160.875-138.719v15.813h-33.844V3.78h-4.125l-13.14-15.14v-111.547H78.937c.07 7.793.407 18.293 1 31.5.52 12.324.782 19.86.782 22.61 0 9.124-2.211 16.476-6.625 22.046-4.418 5.563-9.594 8.344-15.531 8.344-6.387 0-15.016-5.157-25.891-15.469-10.875-10.32-16.313-17.895-16.313-22.719v-46.312H-.328v-15.813zm-97.64 15.813H33.843v57.11c0 3.937 1.222 7.151 3.672 9.64 2.445 2.48 5.488 3.718 9.125 3.718 3.789 0 7.504-1.316 11.14-3.953 3.633-2.632 5.453-6.175 5.453-10.625zm0 0"/></symbol></defs><use xlink:href="#fb99acc7a" x="46.0127" y="188.25"/></svg>