<?xml version='1.0' encoding='UTF-8'?>
<svg xmlns="http://www.w3.org/2000/svg" xmlns:xlink="http://www.w3.org/1999/xlink" width="250px" height="250px" viewBox="0 0 250 250" y="0px" x="0px" enable-background="new 0 0 250 250"><defs><symbol overflow="visible" id="de409a0ea"><path d="M117.453-138.719v15.813H77.156l3.781 48.875h-15.14c-30.063 0-45.094 9.351-45.094 28.047 0 7.5 2.707 13.554 8.125 18.156 5.426 4.594 11.922 6.89 19.485 6.89 9.062 0 24.796-5.453 47.203-16.359l10.796 14.031C89.02-13.617 73.398-8.796 59.453-8.796c-12.918 0-24.351-4.97-34.297-14.907-9.937-9.945-14.906-20.899-14.906-32.86 0-21.882 16.695-32.828 50.094-32.828h2.89v-33.515H-.328v-15.813zm0 0"/></symbol></defs><use xlink:href="#de409a0ea" x="67.77734" y="188.25"/></svg>