<?xml version='1.0' encoding='UTF-8'?>
<svg xmlns="http://www.w3.org/2000/svg" xmlns:xlink="http://www.w3.org/1999/xlink" width="250px" height="250px" viewBox="0 0 250 250" y="0px" x="0px" enable-background="new 0 0 250 250"><defs><symbol overflow="visible" id="a4a982c1a"><path d="M157.547-136.89v15.593H124.25V3.734h-4.61l-12.75-13.843v-69.547H72.407c9.813 10.043 14.719 19.234 14.719 27.578 0 7.687-2.547 14.078-7.64 19.172-5.094 5.093-11.56 7.64-19.391 7.64-9.668 0-19.137-5.656-28.407-16.968-9.261-11.32-17.445-26.942-24.546-46.86l4.39-2.64c14.946 33.543 29.782 50.312 44.5 50.312 4.395 0 7.985-1.332 10.766-4 2.781-2.676 4.172-6.21 4.172-10.61 0-3.288-1.23-7.222-3.688-11.796-2.449-4.582-10.594-13.688-24.437-27.313h64.047v-26.156H-.33v-15.594zm0 0"/></symbol></defs><use xlink:href="#a4a982c1a" x="47.65625" y="187.5"/></svg>