<?xml version='1.0' encoding='UTF-8'?>
<svg xmlns="http://www.w3.org/2000/svg" xmlns:xlink="http://www.w3.org/1999/xlink" width="250px" height="250px" viewBox="0 0 250 250" y="0px" x="0px" enable-background="new 0 0 250 250"><defs><symbol overflow="visible" id="0856c341a"><path d="M165.219-138.719v15.813h-33.844V3.78h-4.906L113.89-10.797v-53c-5.274 1.262-11.657 1.89-19.157 1.89-8.68 0-15.507-.515-20.484-1.546 2.75 4.68 4.125 8.945 4.125 12.797 0 10.906-6.793 21.187-20.375 30.843L78.047.328 74.25 3.781 53-16.594c-6.023 2.305-11.367 3.453-16.031 3.453-6.617 0-11.703-2.054-15.266-6.171-3.562-4.125-5.344-8.375-5.344-12.75 0-7.938 3.489-11.907 10.47-11.907 5.194 0 11.206 3.899 18.03 11.688 18.258-2.676 27.391-10.176 27.391-22.5 0-5.414-2.523-8.125-7.563-8.125-3.124 0-7.32.71-12.578 2.125-7.875 2.074-12.625 3.11-14.25 3.11-5.574 0-11.148-3.767-16.718-11.298-5.563-7.531-8.344-14.75-8.344-21.656 0-9.125 5.754-13.688 17.265-13.688 3.04 0 8.493.262 16.36.782 7.945.437 12.77.656 14.469.656v-20.031H-.33v-15.813zm-51.328 15.813H70.812l2.329 30.844H35.844c-4 0-7.34 1.374-10.016 4.124-2.668 2.743-4 5.633-4 8.672 0 2 .813 3.856 2.438 5.563 1.632 1.71 3.75 2.562 6.343 2.562 4.532 0 11.36-.367 20.485-1.109 9.062-.738 15.93-1.11 20.61-1.11 24.038 0 38.1-5.343 42.187-16.03zm0 0"/></symbol></defs><use xlink:href="#0856c341a" x="43.89746" y="188.25"/></svg>