<?xml version='1.0' encoding='UTF-8'?>
<svg xmlns="http://www.w3.org/2000/svg" xmlns:xlink="http://www.w3.org/1999/xlink" width="250px" height="250px" viewBox="0 0 250 250" y="0px" x="0px" enable-background="new 0 0 250 250"><defs><symbol overflow="visible" id="2cfe424ba"><path d="M161.328-150.578v17.156h-36.61V4.11h-5.312L105.75-12.328v-42.656c-16.281 9.906-29.902 14.859-40.86 14.859-10.148 0-18.788-3.219-25.921-9.656C31.844-56.227 28.28-63.883 28.28-72.75c0-11.438 5.157-20.5 15.469-27.188-11.523-2.343-19.46-5.265-23.813-8.765-4.343-3.508-6.515-8.285-6.515-14.328 0-4.582 1.047-8.047 3.14-10.39H-.358v-17.157zm-55.578 17.156H49.422c-4.344 0-8.274 1.293-11.781 3.875-3.5 2.574-5.25 5.793-5.25 9.656 0 9.75 7.691 14.625 23.078 14.625L69-105.625c5.32 2.023 11.648 7.102 18.984 15.234-19.343.48-32.5 2.856-39.468 7.125-6.97 4.274-10.453 10.313-10.453 18.125 0 4.274 1.41 7.758 4.234 10.454 2.82 2.699 6.691 4.046 11.61 4.046 7.488 0 18-3.906 31.53-11.718 13.54-7.813 20.313-17.801 20.313-29.97zm0 0"/></symbol></defs><use xlink:href="#2cfe424ba" x="45.90393" y="200"/></svg>