<?xml version='1.0' encoding='UTF-8'?>
<svg xmlns="http://www.w3.org/2000/svg" xmlns:xlink="http://www.w3.org/1999/xlink" width="250px" height="250px" viewBox="0 0 250 250" y="0px" x="0px" enable-background="new 0 0 250 250"><defs><symbol overflow="visible" id="08e5bce2a"><path d="M127.36-138.719v15.813H98.53v41.969H35.516c-9.5 0-14.25 2.71-14.25 8.124 0 3.043 1.648 7.235 4.953 12.579 3.3 5.343 6.398 9.203 9.297 11.578C46.723-56 57.52-59.672 67.906-59.672c10.164 0 19.07 3.715 26.719 11.14 7.645 7.419 11.469 15.356 11.469 23.813 0 12.25-6.903 23.907-20.703 34.969L72.594-2.344c17.062-11.426 25.594-20.926 25.594-28.5 0-4.375-1.747-7.953-5.235-10.734-3.48-2.781-8.043-4.172-13.687-4.172-9.43 0-19.227 2.992-29.391 8.969-10.168 5.968-15.25 13.777-15.25 23.422 0 10.761 7.883 21.925 23.656 33.5 15.77 11.582 37.313 21.382 64.625 29.406l-1.453 4.672-8.125-2.672c-28.273-9.281-51.168-20.57-68.687-33.86-17.512-13.28-26.266-26.375-26.266-39.28 0-7.946 4.266-15.817 12.797-23.61-11.875-13.8-17.813-25.047-17.813-33.734 0-11.876 9.239-17.813 27.72-17.813h39.858v-26.156H-.328v-15.813zm0 0"/></symbol></defs><use xlink:href="#08e5bce2a" x="62.82324" y="188.25"/></svg>