<?xml version='1.0' encoding='UTF-8'?>
<svg xmlns="http://www.w3.org/2000/svg" xmlns:xlink="http://www.w3.org/1999/xlink" width="250px" height="250px" viewBox="0 0 250 250" y="0px" x="0px" enable-background="new 0 0 250 250"><defs><symbol overflow="visible" id="3501e3aca"><path d="M157.547-136.89v15.593H124.25V3.406h-5.266L107-11.204v-39.108c-12.96 9.593-23.945 14.39-32.953 14.39-8.2 0-15.578-3.476-22.14-10.437-6.555-6.957-9.829-13.66-9.829-20.11 0-3.219 1.133-7.687 3.406-13.406H14.5L8.125-95.469H107v-25.828H-.328v-15.594zM107-79.876H77.453c-7.324 0-13.183 2.453-17.578 7.36-4.398 4.906-6.594 9.632-6.594 14.171 0 3.594 1.297 6.657 3.89 9.188 2.602 2.523 5.923 3.781 9.954 3.781 13.258 0 26.55-10.363 39.875-31.094zm0 0"/></symbol></defs><use xlink:href="#3501e3aca" x="47.65625" y="187.5"/></svg>