<?xml version='1.0' encoding='UTF-8'?>
<svg xmlns="http://www.w3.org/2000/svg" xmlns:xlink="http://www.w3.org/1999/xlink" width="250px" height="250px" viewBox="0 0 250 250" y="0px" x="0px" enable-background="new 0 0 250 250"><defs><symbol overflow="visible" id="69c7c453a"><path d="M167.656-136.89v15.593H134.25V3.406h-3.953L117-11.53v-8.578C106.969-13.004 97.117-9.453 87.453-9.453c-10.48 0-19.95-2.192-28.406-6.578-8.461-4.395-16.719-11.258-24.781-20.594-8.055-9.344-13.914-17.02-17.578-23.031-3.657-6.008-5.485-12.676-5.485-20 0-7.25 2.305-10.875 6.922-10.875 1.977 0 4.176.992 6.594 2.969 2.707 2.273 4.832 3.554 6.375 3.843l1.093-37.578H-.328v-15.594zM117-121.298H46.031L43.72-85.359c-.657 10.18-5.157 22.043-13.5 35.593 7.613 10.543 14.879 17.977 21.797 22.297 6.925 4.324 14.894 6.485 23.906 6.485 12.3 0 25.992-6.52 41.078-19.563v-16.14c-12.668 10.18-22.445 15.265-29.328 15.265-7.106 0-14.102-3.601-20.984-10.812-6.887-7.22-10.329-14.524-10.329-21.922 0-8.281 3.203-14.817 9.61-19.61 6.414-4.8 14.234-7.203 23.453-7.203 8.789 0 17.984 4.797 27.578 14.39zm0 42.531v-2.64c-9.305-4.031-17.063-6.047-23.281-6.047-6.813 0-13.356 1.922-19.625 5.766-6.262 3.843-9.39 8.37-9.39 13.578 0 3.656 1.554 6.765 4.671 9.328 3.113 2.562 6.723 3.843 10.828 3.843 5.852 0 13.445-2.359 22.781-7.078C112.328-66.742 117-72.328 117-78.766zm0 0"/></symbol></defs><use xlink:href="#69c7c453a" x="42.60254" y="187.5"/></svg>