<?xml version='1.0' encoding='UTF-8'?>
<svg xmlns="http://www.w3.org/2000/svg" xmlns:xlink="http://www.w3.org/1999/xlink" width="250px" height="250px" viewBox="0 0 250 250" y="0px" x="0px" enable-background="new 0 0 250 250"><defs><symbol overflow="visible" id="ee92185ba"><path d="M154.969-138.719v15.813H88.625v34.953c4.07-2.375 8.82-3.563 14.25-3.563 7.938 0 15.984 3.528 24.14 10.579 8.165 7.054 12.25 17.632 12.25 31.734 0 9.937-3.117 20.402-9.343 31.39l-12.469-12.25c6.977-12.019 10.469-22.593 10.469-31.718 0-13.364-5.234-20.047-15.703-20.047-7.418 0-15.281 3.672-23.594 11.016V3.78h-4.453L71.14-11.016v-47.547C60.973-49.8 51.32-45.422 42.187-45.422c-9.124 0-16.398-2.91-21.812-8.734-5.418-5.832-8.125-13.239-8.125-22.219 0-7.938 2.504-14.188 7.516-18.75 5.007-4.57 10.851-6.86 17.53-6.86 12.759 0 24.04 5.938 33.845 17.813v-38.734H-.33v-15.813zM71.14-76.703v-2.125C65.42-83.941 58.109-86.5 49.203-86.5c-9.2 0-16.34 1.805-21.422 5.406-5.086 3.594-7.625 7.696-7.625 12.297 0 4 1.317 7.281 3.953 9.844 2.633 2.562 6.25 3.844 10.844 3.844 8.469 0 20.531-7.196 36.188-21.594zm0 0"/></symbol></defs><use xlink:href="#ee92185ba" x="48.96289" y="188.25"/></svg>