<?xml version='1.0' encoding='UTF-8'?>
<svg xmlns="http://www.w3.org/2000/svg" xmlns:xlink="http://www.w3.org/1999/xlink" width="250px" height="250px" viewBox="0 0 250 250" y="0px" x="0px" enable-background="new 0 0 250 250"><defs><symbol overflow="visible" id="91f32951a"><path d="M179.578-150.578v17.156h-41.687l-.97 25.625c12.49 9.024 18.735 22.516 18.735 40.484 0 12.493-3.386 23.649-10.156 33.47 13.05 10.636 19.578 22.761 19.578 36.374 0 10.957-4.633 21.516-13.89 31.672l-12.329-14.016C148.117 8.82 152.75-1.085 152.75-9.547c0-5.957-3.262-12.363-9.781-19.219C127.895-9.348 107.55.36 81.938.36 72.352.36 63.874-1.207 56.5-4.344c-7.375-3.144-13.523-7.515-18.438-13.11-4.906-5.6-7.359-12.112-7.359-19.53 0-8.864 3.258-15.391 9.781-19.578-9.105-.72-16.398-4.301-21.875-10.75-5.48-6.446-8.218-13.536-8.218-21.266 0-16.602 15.953-24.906 47.859-24.906L76.5-94.86h-8.469c-18.605 0-30.484 1.511-35.64 4.53-5.157 3.024-7.735 6.79-7.735 11.298 0 10.71 5.598 16.062 16.797 16.062 1.613 0 12.367-1.89 32.266-5.672l17.406 17.766h-1.578c-17.156 0-28.742 1.953-34.75 5.86-6 3.906-9 9.203-9 15.89 0 6.844 2.297 12.242 6.89 16.188 4.594 3.949 10.555 5.921 17.891 5.921 17.32 0 35.973-11.359 55.953-34.078-15.554-11.113-25.304-19.41-29.25-24.89-3.949-5.477-5.922-10.594-5.922-15.344 0-6.852 2.977-13.602 8.938-20.25 5.969-6.645 13.223-10.531 21.766-11.656l.593-20.188H-.359v-17.156zM130.641-45.797c10.957-12.57 16.437-24.176 16.437-34.812 0-5.477-1.453-10.067-4.36-13.766-2.898-3.707-6.718-5.563-11.468-5.563-5.406 0-10.45 3.325-15.125 9.97-4.668 6.648-7 12.507-7 17.577 0 9.274 7.172 18.137 21.516 26.594zm0 0"/></symbol></defs><use xlink:href="#91f32951a" x="36.77979" y="200"/></svg>