<?xml version='1.0' encoding='UTF-8'?>
<svg xmlns="http://www.w3.org/2000/svg" xmlns:xlink="http://www.w3.org/1999/xlink" width="250px" height="250px" viewBox="0 0 250 250" y="0px" x="0px" enable-background="new 0 0 250 250"><defs><symbol overflow="visible" id="30dd57d8a"><path d="M161.578-150.578v17.156h-36.625V4.468h-4.828l-14.14-16.187v-23.687c-17.157 14.742-32.79 22.11-46.891 22.11-10.719 0-19.766-3.645-27.14-10.938-7.368-7.29-11.048-16.172-11.048-26.641 0-13.375 6.524-25.098 19.578-35.172-11.28-5.633-19.12-11.57-23.515-17.812-4.387-6.25-6.578-13.883-6.578-22.907 0-7.007 2.332-12.609 7-16.796 4.675-4.196 10.8-6.297 18.375-6.297 7.894 0 14.02 2.418 18.375 7.25 4.351 4.836 6.53 9.672 6.53 14.515 0 4.906-1.733 8.977-5.202 12.203-3.461 3.22-7.809 4.829-13.047 4.829-7.742 0-14.07-1.446-18.984-4.344C26.02-99.22 35.163-91.125 50.874-91.125h9.188c4.75 0 9.378.828 13.89 2.484 4.52 1.649 10.766 6.743 18.734 15.282-5.804-.883-12.449-1.329-19.937-1.329-15.148 0-26.168 3.528-33.063 10.579-6.886 7.054-10.328 13.96-10.328 20.718 0 5.325 1.711 9.618 5.141 12.875 3.426 3.262 8.16 4.891 14.203 4.891 9.102 0 20.926-4.55 35.469-13.656 14.539-9.102 21.812-21.188 21.812-36.25v-57.89H78.797l-12.094-17.157zm-138.14 22.484c6.289 6.367 13.019 9.547 20.187 9.547 7.57 0 11.36-3.504 11.36-10.516 0-3.707-1.653-6.89-4.954-9.546-3.304-2.664-7.328-4-12.078-4-8.148 0-12.984 4.84-14.516 14.515zm0 0"/></symbol></defs><use xlink:href="#30dd57d8a" x="45.78308" y="200"/></svg>