<?xml version='1.0' encoding='UTF-8'?>
<svg xmlns="http://www.w3.org/2000/svg" xmlns:xlink="http://www.w3.org/1999/xlink" width="250px" height="250px" viewBox="0 0 250 250" y="0px" x="0px" enable-background="new 0 0 250 250"><defs><symbol overflow="visible" id="f55884b2a"><path d="M132.453-150.578v17.156H93.906l2.531 40.484H62.36c-13.136 0-23.328 2.805-30.578 8.407-7.25 5.594-10.875 13.547-10.875 23.86 0 9.51 3.68 18.718 11.047 27.624 7.375 8.899 17.91 13.59 31.61 14.078-5.876-14.258-8.813-25.422-8.813-33.484 0-7.813 2.008-13.77 6.031-17.875 4.032-4.113 9.067-6.172 15.11-6.172 8.539 0 17.062 4.898 25.562 14.688 8.5 9.792 12.75 19.761 12.75 29.906 0 8.304-3.266 15.215-9.797 20.734-6.523 5.512-15.18 8.266-25.969 8.266-16.117 0-31.367-7.11-45.75-21.328-14.374-14.22-21.562-30.188-21.562-47.907 0-25.3 16.516-37.953 49.547-37.953H80v-23.328H-.36v-17.156zM69.61-18.968c10.227-.489 18.766-2.907 25.61-7.25 6.851-4.352 10.238-9.595 10.156-15.72 0-4.03-1.574-7.613-4.719-10.75-3.136-3.144-7.242-4.675-12.312-4.593-6.043 0-11.446 1.758-16.203 5.265-4.75 3.5-7.125 8.434-7.125 14.797 0 5.157 1.53 11.242 4.593 18.25zm0 0"/></symbol></defs><use xlink:href="#f55884b2a" x="60.34546" y="200"/></svg>