<?xml version='1.0' encoding='UTF-8'?>
<svg xmlns="http://www.w3.org/2000/svg" xmlns:xlink="http://www.w3.org/1999/xlink" width="250px" height="250px" viewBox="0 0 250 250" y="0px" x="0px" enable-background="new 0 0 250 250"><defs><symbol overflow="visible" id="d1e978b5a"><path d="M131.703-138.719v15.813H97.86V3.78h-4.343L80.375-11.016V-55.89c-5.637 4.825-12.313 7.235-20.031 7.235-6.68 0-13.324-1.926-19.938-5.782-6.605-3.863-12.265-8.484-16.984-13.859-4.711-5.383-7.063-11.937-7.063-19.656v-34.953H-.328v-15.813zm-51.328 15.813H33.844v43.422c0 9.718 1.816 15.824 5.453 18.312 3.633 2.48 7.906 3.719 12.812 3.719 8.75 0 18.172-5.711 28.266-17.14zm0 0"/></symbol></defs><use xlink:href="#d1e978b5a" x="60.59668" y="188.25"/></svg>