<?xml version='1.0' encoding='UTF-8'?>
<svg xmlns="http://www.w3.org/2000/svg" xmlns:xlink="http://www.w3.org/1999/xlink" width="250px" height="250px" viewBox="0 0 250 250" y="0px" x="0px" enable-background="new 0 0 250 250"><defs><symbol overflow="visible" id="ff4d16ffa"><path d="M173.656-150.578v17.156h-36.734V4.11h-5.672l-13.297-15.828v-47.14H74.328C71.984-36.703 69.04-25.625 65.5-25.625c-2.98 0-9.688-6.645-20.125-19.938-10.43-13.289-15.64-22.148-15.64-26.578 0-2.257 1.566-3.39 4.703-3.39h20.906c2.176-5.563 3.867-13.176 5.078-22.844-3.305.887-7.531 1.328-12.688 1.328-8.304 0-16.746-3.539-25.328-10.625-8.574-7.094-12.86-14.547-12.86-22.36 0-5.476 1.532-10.109 4.595-13.89 3.062-3.789 7.086-5.687 12.078-5.687 13.218 0 24.898 5.964 35.047 17.89C71.422-119.8 76.5-105.098 76.5-87.609c0 4.43-.203 8.453-.61 12.078h42.063v-57.89H80.61l-12.328-17.157zM60.672-104.422c0-10.469-1.938-18.723-5.813-24.766-3.867-6.039-8.98-9.062-15.343-9.062-3.782 0-6.946 1.453-9.485 4.36-2.543 2.898-3.812 6.32-3.812 10.265 0 5.875 2.191 10.809 6.578 14.797 4.394 3.992 10.098 5.984 17.11 5.984 3.382 0 6.972-.523 10.765-1.578zm0 0"/></symbol></defs><use xlink:href="#ff4d16ffa" x="39.7406" y="200"/></svg>