<?xml version='1.0' encoding='UTF-8'?>
<svg xmlns="http://www.w3.org/2000/svg" xmlns:xlink="http://www.w3.org/1999/xlink" width="250px" height="250px" viewBox="0 0 250 250" y="0px" x="0px" enable-background="new 0 0 250 250"><defs><symbol overflow="visible" id="ad8d8ed5a"><path d="M146.344-136.89v15.593h-33.406V3.187h-4.5l-12.75-13.843V-50.86C83.675-40.172 71.922-34.83 60.422-34.83c-6.887 0-15.258-3.733-25.11-11.202-9.843-7.469-18.464-16-25.859-25.594v-2.313c13.176-.582 23.719-4.132 31.625-10.656 7.914-6.52 11.875-13.695 11.875-21.531 0-5.344-1.617-9.79-4.844-13.344-3.218-3.562-6.914-5.344-11.078-5.344-2.793 0-5.543.993-8.25 2.97-2.71 1.98-4.062 5.421-4.062 10.327 0 6.961 4.023 12.891 12.078 17.797l-4.281 3.188C17.359-96.75 9.78-106.051 9.78-118.437c0-11.864 5.453-17.797 16.36-17.797 7.77 0 16.672 4.507 26.703 13.515 10.031 9.012 15.047 18.203 15.047 27.578 0 6.157-3.446 12.512-10.329 19.063-6.886 6.555-17.062 11.773-30.53 15.656 9.3 9.012 18.015 13.516 26.14 13.516 8.062 0 17.16-3.899 27.297-11.703 10.144-7.801 15.219-16.352 15.219-25.657v-37.03H74.703L59.22-136.892zm0 0"/></symbol></defs><use xlink:href="#ad8d8ed5a" x="53.25928" y="187.5"/></svg>