<?xml version='1.0' encoding='UTF-8'?>
<svg xmlns="http://www.w3.org/2000/svg" xmlns:xlink="http://www.w3.org/1999/xlink" width="250px" height="250px" viewBox="0 0 250 250" y="0px" x="0px" enable-background="new 0 0 250 250"><defs><symbol overflow="visible" id="c94042a3a"><path d="M148.047-150.578v17.156h-36.75V3.75h-2.531L92.328-12.688V-80H54.375c-6.043 0-9.809 1.152-11.297 3.453-1.492 2.293-2.234 7.024-2.234 14.188 0 5.636.14 9.906.422 12.812.28 2.899.504 4.871.672 5.922.082.242.124.242.124 0 0 2.824-1.777 4.234-5.328 4.234-2.898 0-8.011-5.316-15.343-15.953-7.336-10.633-11-19.5-11-26.593 0-4.508 1.488-8.157 4.468-10.938 2.989-2.781 6.454-4.172 10.391-4.172h67.078v-36.375H-.359v-17.156zm0 0"/></symbol></defs><use xlink:href="#c94042a3a" x="52.61108" y="200"/></svg>