<?xml version='1.0' encoding='UTF-8'?>
<svg xmlns="http://www.w3.org/2000/svg" xmlns:xlink="http://www.w3.org/1999/xlink" width="250px" height="250px" viewBox="0 0 250 250" y="0px" x="0px" enable-background="new 0 0 250 250"><defs><symbol overflow="visible" id="1f91145aa"><path d="M153.719-150.578v17.156h-36.735V3.75h-4.718l-14.25-16.078v-35.766c-8.543 6.367-16.844 9.547-24.907 9.547-13.293 0-25.64-4.812-37.046-14.437-11.399-9.633-17.094-18.438-17.094-26.407v-54.03H-.36v-17.157zm-55.703 17.156H41.687l56.329 66.719zm-4.72 71.063l-55.343-65.5v54.75c0 16.511 8.016 24.765 24.047 24.765 9.664 0 20.098-4.672 31.297-14.015zm0 0"/></symbol></defs><use xlink:href="#1f91145aa" x="49.77112" y="200"/></svg>