<?xml version='1.0' encoding='UTF-8'?>
<svg xmlns="http://www.w3.org/2000/svg" xmlns:xlink="http://www.w3.org/1999/xlink" width="250px" height="250px" viewBox="0 0 250 250" y="0px" x="0px" enable-background="new 0 0 250 250"><defs><symbol overflow="visible" id="ee92185ba"><path d="M152.938-136.89v15.593H87.453v34.5c4.031-2.344 8.719-3.516 14.063-3.516 7.832 0 15.773 3.481 23.828 10.438 8.062 6.96 12.094 17.398 12.094 31.313 0 9.812-3.079 20.14-9.235 30.984l-12.297-12.078c6.883-11.875 10.328-22.313 10.328-31.313 0-13.187-5.164-19.781-15.484-19.781-7.336 0-15.102 3.625-23.297 10.875v73.61h-4.39l-12.86-14.61v-46.906c-10.031 8.636-19.555 12.953-28.562 12.953-9.012 0-16.196-2.875-21.547-8.625-5.344-5.75-8.016-13.05-8.016-21.906 0-7.844 2.473-14.016 7.422-18.516 4.945-4.508 10.71-6.766 17.297-6.766 12.601 0 23.738 5.86 33.406 17.579v-38.235H-.328v-15.594zM70.203-75.704v-2.078c-5.637-5.051-12.851-7.578-21.64-7.578-9.086 0-16.137 1.777-21.157 5.328-5.011 3.554-7.515 7.601-7.515 12.14 0 3.95 1.297 7.188 3.89 9.72 2.602 2.53 6.176 3.796 10.719 3.796 8.344 0 20.242-7.11 35.703-21.328zm0 0"/></symbol></defs><use xlink:href="#ee92185ba" x="49.96338" y="187.5"/></svg>