<?xml version='1.0' encoding='UTF-8'?>
<svg xmlns="http://www.w3.org/2000/svg" xmlns:xlink="http://www.w3.org/1999/xlink" width="250px" height="250px" viewBox="0 0 250 250" y="0px" x="0px" enable-background="new 0 0 250 250"><defs><symbol overflow="visible" id="4b2bc157a"><path d="M137.828-138.719v15.813h-33.844V3.454h-4.671L86.5-10.797v-36.97c-12.762 8.762-24.008 13.141-33.734 13.141-8.907 0-17.797-4.43-26.672-13.297-8.867-8.875-13.297-17.281-13.297-25.219 0-8.757 4.82-15.812 14.469-21.156 9.656-5.344 19.492-8.016 29.515-8.016 9.864 0 19.77 4.977 29.719 14.922v-35.515H-.328v-15.813zM86.5-74.25v-5.578c-6.46-4.676-12.84-7.016-19.14-7.016-8.762 0-18.008 2.399-27.735 7.188-9.719 4.793-14.578 10.195-14.578 16.203 0 4.75 1.629 8.703 4.89 11.86 3.27 3.148 7.098 4.718 11.485 4.718 5.039 0 13.644-3.578 25.812-10.734C79.41-64.773 85.832-70.32 86.5-74.25zm0 0"/></symbol></defs><use xlink:href="#4b2bc157a" x="57.59082" y="188.25"/></svg>