<?xml version='1.0' encoding='UTF-8'?>
<svg xmlns="http://www.w3.org/2000/svg" xmlns:xlink="http://www.w3.org/1999/xlink" width="250px" height="250px" viewBox="0 0 250 250" y="0px" x="0px" enable-background="new 0 0 250 250"><defs><symbol overflow="visible" id="ac2950bfa"><path d="M136.375-138.719v15.813h-33.844V3.78h-5.234l-12.234-14.25v-70.25h-27.61c-21.23 0-31.844 7.387-31.844 22.156 0 7.356 2.985 15.34 8.953 23.954C40.54-26.004 50.285-14.766 63.797-.891L60 2.672C41.227-15.734 28.91-29.797 23.047-39.516c-5.867-9.726-8.797-19.488-8.797-29.28 0-18.407 10.39-27.61 31.172-27.61h39.64v-26.5H-.328v-15.813zm0 0"/></symbol></defs><use xlink:href="#ac2950bfa" x="58.25879" y="188.25"/></svg>