<?xml version='1.0' encoding='UTF-8'?>
<svg xmlns="http://www.w3.org/2000/svg" xmlns:xlink="http://www.w3.org/1999/xlink" width="250px" height="250px" viewBox="0 0 250 250" y="0px" x="0px" enable-background="new 0 0 250 250"><defs><symbol overflow="visible" id="1f91145aa"><path d="M141.61-138.719v15.813h-33.844V3.454h-4.344L90.282-11.36v-32.953c-7.868 5.867-15.509 8.796-22.923 8.796-12.25 0-23.625-4.43-34.125-13.297-10.5-8.874-15.75-16.984-15.75-24.328v-49.765H-.328v-15.813zM90.28-122.906H38.406l51.875 61.453zm-4.328 65.453l-51-60.328v50.422c0 15.218 7.383 22.828 22.156 22.828 8.907 0 18.52-4.305 28.844-12.922zm0 0"/></symbol></defs><use xlink:href="#1f91145aa" x="55.69824" y="188.25"/></svg>