<?xml version='1.0' encoding='UTF-8'?>
<svg xmlns="http://www.w3.org/2000/svg" xmlns:xlink="http://www.w3.org/1999/xlink" width="250px" height="250px" viewBox="0 0 250 250" y="0px" x="0px" enable-background="new 0 0 250 250"><defs><symbol overflow="visible" id="bd4ee119a"><path d="M147.313-150.578v17.156h-37.938l2.531 39.766H55.344c-9.106 0-13.657 2.539-13.657 7.61 0 2.335 1.368 5.62 4.11 9.859 2.738 4.23 4.957 6.343 6.656 6.343.32 0 2.656-.484 7-1.453 4.352-.969 8.582-1.453 12.688-1.453 12.894 0 23.39 3.766 31.484 11.297 8.102 7.531 12.156 16.012 12.156 25.437 0 7.094-3.687 13.282-11.062 18.563C97.344-12.18 89.102-9.547 80-9.547c-23.688 0-47.82-19.578-72.39-58.734l5.327-2.531C32.188-40.04 51.282-24.657 70.22-24.657c8.613 0 16.344-2.555 23.187-7.672 6.852-5.113 10.281-10.453 10.281-16.016 0-3.062-.992-5.676-2.968-7.843-1.969-2.176-4.446-3.266-7.422-3.266-3.149 0-9.07 1.125-17.766 3.375-8.699 2.18-13.734 3.266-15.11 3.266-3.304 0-9.308-5.657-18.015-16.97-8.699-11.32-13.047-19.882-13.047-25.687 0-10.226 7.614-15.344 22.844-15.344H94.86v-22.609H-.359v-17.156zm0 0"/></symbol></defs><use xlink:href="#bd4ee119a" x="52.91321" y="200"/></svg>