<?xml version='1.0' encoding='UTF-8'?>
<svg xmlns="http://www.w3.org/2000/svg" xmlns:xlink="http://www.w3.org/1999/xlink" width="250px" height="250px" viewBox="0 0 250 250" y="0px" x="0px" enable-background="new 0 0 250 250"><defs><symbol overflow="visible" id="f55884b2a"><path d="M120.406-136.89v15.593H85.36l2.313 36.813H56.688c-11.938 0-21.204 2.546-27.797 7.64C22.297-71.758 19-64.53 19-55.156c0 8.648 3.348 17.015 10.047 25.11 6.707 8.093 16.285 12.358 28.734 12.796-5.343-12.957-8.015-23.102-8.015-30.438 0-7.101 1.828-12.519 5.484-16.25 3.664-3.738 8.25-5.609 13.75-5.609 7.758 0 15.504 4.453 23.234 13.36 7.727 8.898 11.594 17.96 11.594 27.187 0 7.543-2.969 13.824-8.906 18.844-5.938 5.011-13.813 7.515-23.625 7.515-14.649 0-28.508-6.46-41.578-19.39-13.074-12.926-19.61-27.446-19.61-43.563 0-22.988 15.016-34.484 45.047-34.484h17.578v-21.219H-.328v-15.594zM63.281-17.25c9.301-.438 17.063-2.629 23.282-6.578 6.226-3.957 9.304-8.723 9.234-14.297 0-3.656-1.43-6.91-4.281-9.766-2.856-2.863-6.59-4.257-11.204-4.187-5.492 0-10.398 1.594-14.718 4.781-4.324 3.188-6.485 7.672-6.485 13.453 0 4.688 1.391 10.219 4.172 16.594zm0 0"/></symbol></defs><use xlink:href="#f55884b2a" x="66.22314" y="187.5"/></svg>