<?xml version='1.0' encoding='UTF-8'?>
<svg xmlns="http://www.w3.org/2000/svg" xmlns:xlink="http://www.w3.org/1999/xlink" width="250px" height="250px" viewBox="0 0 250 250" y="0px" x="0px" enable-background="new 0 0 250 250"><defs><symbol overflow="visible" id="7d2c0fdea"><path d="M135.688-136.89v15.593H97.233c9.52 8.43 14.282 17.04 14.282 25.828 0 12.813-6.778 22.008-20.329 27.578 13.77 11.72 20.657 23.141 20.657 34.266 0 8.719-3.078 16.21-9.235 22.469-6.148 6.261-14.093 9.39-23.843 9.39-9.075 0-17.461-3.203-25.157-9.609-7.687-6.406-17.5-19.203-29.437-38.39L7.14-77.016l4.609-2.641 16.703 26.484c15.238 24.168 29.89 36.25 43.953 36.25 6.508 0 12.399-2.394 17.672-7.187C95.36-28.91 98-34.973 98-42.297c0-8.719-4.29-16.375-12.86-22.969-5.417.961-11.093 1.438-17.03 1.438-6.962 0-13-.363-18.126-1.094l-2.859-16.703c6.594.367 13.297.547 20.11.547 11.863 0 20.488-2.067 25.874-6.203 5.383-4.145 8.079-8.961 8.079-14.453 0-7.47-4.325-13.989-12.97-19.563H-.327v-15.594zm0 0"/></symbol></defs><use xlink:href="#7d2c0fdea" x="58.58765" y="187.5"/></svg>