<?xml version='1.0' encoding='UTF-8'?>
<svg xmlns="http://www.w3.org/2000/svg" xmlns:xlink="http://www.w3.org/1999/xlink" width="250px" height="250px" viewBox="0 0 250 250" y="0px" x="0px" enable-background="new 0 0 250 250"><defs><symbol overflow="visible" id="08e5bce2a"><path d="M125.688-136.89v15.593H97.233v41.422H35.047c-9.375 0-14.063 2.68-14.063 8.031 0 3 1.63 7.137 4.891 12.406 3.258 5.274 6.316 9.079 9.172 11.422 11.062-7.25 21.719-10.875 31.969-10.875 10.03 0 18.816 3.664 26.359 10.985 7.55 7.324 11.328 15.164 11.328 23.515 0 12.086-6.812 23.586-20.437 34.5L71.625-2.312c16.852-11.27 25.281-20.645 25.281-28.125 0-4.32-1.726-7.852-5.172-10.594-3.437-2.75-7.945-4.125-13.515-4.125-9.305 0-18.969 2.949-29 8.843-10.032 5.899-15.047 13.606-15.047 23.126 0 10.624 7.781 21.648 23.344 33.078 15.562 11.425 36.82 21.093 63.78 29L119.86 53.5l-8.015-2.64c-27.906-9.15-50.508-20.278-67.797-33.391C26.766 4.352 18.125-8.571 18.125-21.313c0-7.832 4.21-15.597 12.64-23.296-11.718-13.625-17.578-24.72-17.578-33.282 0-11.718 9.118-17.578 27.36-17.578h39.328v-25.828H-.328v-15.594zm0 0"/></symbol></defs><use xlink:href="#08e5bce2a" x="63.64136" y="187.5"/></svg>