<?xml version='1.0' encoding='UTF-8'?>
<svg xmlns="http://www.w3.org/2000/svg" xmlns:xlink="http://www.w3.org/1999/xlink" width="250px" height="250px" viewBox="0 0 250 250" y="0px" x="0px" enable-background="new 0 0 250 250"><defs><symbol overflow="visible" id="37df5ae0a"><path d="M176.203-150.578v17.156h-75.047v43.031c8.696-3.875 16.188-5.812 22.469-5.812 11.926 0 21.453 5.305 28.578 15.906 7.133 10.594 10.703 22.172 10.703 34.734 0 12.086-4.433 25.579-13.297 40.485L132.812-14.5c12.407-20.219 18.61-36.773 18.61-49.672 0-5.719-1.512-10.305-4.531-13.766-3.024-3.468-7.153-5.203-12.391-5.203-5.96 0-17.074 4.512-33.344 13.532V3.75h-5.328L82.172-11.719v-48.953c-8.293 3.149-15.543 4.719-21.75 4.719-12.086 0-22.54-5.113-31.36-15.344-8.824-10.238-13.234-21.035-13.234-32.39v-29.735H-.609v-17.156zm-94.031 17.156h-47.36v47.734C34.813-77.3 36-72 38.376-69.78c2.375 2.21 5.492 3.312 9.36 3.312 6.925 0 18.406-4.953 34.437-14.86zm0 0"/></symbol></defs><use xlink:href="#37df5ae0a" x="38.5321" y="200"/></svg>