<?xml version='1.0' encoding='UTF-8'?>
<svg xmlns="http://www.w3.org/2000/svg" xmlns:xlink="http://www.w3.org/1999/xlink" width="250px" height="250px" viewBox="0 0 250 250" y="0px" x="0px" enable-background="new 0 0 250 250"><defs><symbol overflow="visible" id="0ccf5c0fa"><path d="M122.719-136.89v15.593h-53.39v39.125c12.081 1.313 21.71 5.399 28.89 12.25 7.176 6.844 10.765 15.5 10.765 25.969 0 11.137-4.617 20.445-13.843 27.922C85.91-8.563 75.18-4.828 62.953-4.828c-14.793 0-26.969-4.703-36.531-14.11-9.563-9.414-14.344-20.828-14.344-34.234 0-7.176 1.922-13 5.766-17.469 3.851-4.468 12.554-8.898 26.11-13.296 5.05-1.614 8.179-3.368 9.39-5.266 1.207-1.906 1.812-4.36 1.812-7.36v-24.734H-.328v-15.594zM67.563-77.345c-3.876 3.293-10.981 6.446-21.313 9.453-11.063 3.075-18.227 6.625-21.484 10.657-3.25 4.023-4.875 8.82-4.875 14.39 0 6.524 2.539 12.477 7.625 17.86 5.093 5.375 12.289 8.062 21.593 8.062 11.864 0 22.645-3.348 32.344-10.047 9.707-6.707 14.563-15.148 14.563-25.328 0-6.594-2.477-12.195-7.422-16.812-4.938-4.614-11.95-7.36-21.031-8.235zm0 0"/></symbol></defs><use xlink:href="#0ccf5c0fa" x="65.06958" y="187.5"/></svg>