<?xml version='1.0' encoding='UTF-8'?>
<svg xmlns="http://www.w3.org/2000/svg" xmlns:xlink="http://www.w3.org/1999/xlink" width="250px" height="250px" viewBox="0 0 250 250" y="0px" x="0px" enable-background="new 0 0 250 250"><defs><symbol overflow="visible" id="f055a079a"><path d="M134.578-136.89v15.593h-33.39V3.734h-2.313L83.937-11.203V-46.25c-13.406 8.793-25.382 13.188-35.921 13.188-10.555 0-19.711-4.083-27.47-12.25-7.76-8.165-11.64-17.708-11.64-28.626 18.227 0 27.344-8.492 27.344-25.484 0-5.207-1.938-12.5-5.813-21.875H-.328v-15.594zm-50.64 15.593H41.422c4.031 11.5 6.047 21.356 6.047 29.563 0 9.449-2.606 17.195-7.813 23.234-5.199 6.043-12.304 9.43-21.312 10.156 4.687 10.555 12.195 15.828 22.531 15.828 10.54 0 24.895-8.718 43.063-26.156zm0 0"/></symbol></defs><use xlink:href="#f055a079a" x="59.19189" y="187.5"/></svg>