<?xml version='1.0' encoding='UTF-8'?>
<svg xmlns="http://www.w3.org/2000/svg" xmlns:xlink="http://www.w3.org/1999/xlink" width="250px" height="250px" viewBox="0 0 250 250" y="0px" x="0px" enable-background="new 0 0 250 250"><defs><symbol overflow="visible" id="06369e11a"><path d="M143.156-136.89v15.593H89.984l1.97 35.938H43.39c-7.836 0-11.75 2.562-11.75 7.687 0 2.856 2.968 7.578 8.906 14.172 5.562-1.758 11.969-2.64 19.219-2.64 10.843 0 19.648 3.48 26.422 10.437 6.769 6.96 10.156 14.027 10.156 21.203 0 6.96-3.336 13.008-10 18.14-6.656 5.126-14.164 7.688-22.516 7.688-16.336 0-35.23-14.539-56.687-43.625l4.937-2.312C22.703-41.492 31.11-33.086 37.297-29.391c6.187 3.7 12.25 5.547 18.187 5.547 7.032 0 13.766-2.36 20.203-7.078 6.446-4.726 9.672-9.18 9.672-13.36 0-3.363-1.156-6.015-3.468-7.952-2.305-1.946-4.883-2.922-7.735-2.922-2.71 0-7.14 1.062-13.297 3.187-6.148 2.055-10.906 3.078-14.28 3.078-17.282-18.968-25.923-31.82-25.923-38.562 0-9.008 6.922-13.516 20.766-13.516h35.922v-20.328H-.328v-15.594zm-41.64 71.624L117-80.53l15.5 15.265-15.5 15.5zm0 0"/></symbol></defs><use xlink:href="#06369e11a" x="54.85229" y="187.5"/></svg>