<?xml version='1.0' encoding='UTF-8'?>
<svg xmlns="http://www.w3.org/2000/svg" xmlns:xlink="http://www.w3.org/1999/xlink" width="250px" height="250px" viewBox="0 0 250 250" y="0px" x="0px" enable-background="new 0 0 250 250"><defs><symbol overflow="visible" id="4b2bc157a"><path d="M136.016-136.89v15.593h-33.407V3.406H98L85.36-10.656v-36.469c-12.594 8.637-23.688 12.953-33.282 12.953-8.793 0-17.562-4.375-26.312-13.125S12.64-64.344 12.64-72.187c0-8.633 4.757-15.586 14.28-20.86 9.52-5.281 19.224-7.922 29.11-7.922 9.739 0 19.516 4.906 29.328 14.719v-35.047H-.328v-15.594zM85.359-73.282v-5.485c-6.367-4.613-12.664-6.921-18.89-6.921-8.649 0-17.766 2.367-27.36 7.093-9.593 4.719-14.39 10.043-14.39 15.969 0 4.688 1.61 8.59 4.828 11.703 3.226 3.117 7.004 4.672 11.328 4.672 4.977 0 13.473-3.531 25.484-10.594 12.008-7.07 18.344-12.55 19-16.437zm0 0"/></symbol></defs><use xlink:href="#4b2bc157a" x="58.47778" y="187.5"/></svg>