<?xml version='1.0' encoding='UTF-8'?>
<svg xmlns="http://www.w3.org/2000/svg" xmlns:xlink="http://www.w3.org/1999/xlink" width="250px" height="250px" viewBox="0 0 250 250" y="0px" x="0px" enable-background="new 0 0 250 250"><defs><symbol overflow="visible" id="3501e3aca"><path d="M173.297-150.578v17.156h-36.61V3.75h-5.812l-13.172-16.078v-43.016c-14.262 10.555-26.344 15.828-36.25 15.828-9.023 0-17.14-3.828-24.36-11.484-7.21-7.656-10.812-15.023-10.812-22.11 0-3.55 1.25-8.468 3.75-14.75H15.953l-7.015-17.156h108.765v-28.406H-.359v-17.156zM117.703-87.86h-32.5c-8.062 0-14.512 2.703-19.344 8.109-4.836 5.398-7.25 10.59-7.25 15.578 0 3.95 1.426 7.313 4.282 10.094 2.863 2.781 6.515 4.172 10.953 4.172 14.582 0 29.203-11.399 43.86-34.203zm0 0"/></symbol></defs><use xlink:href="#3501e3aca" x="39.92188" y="200"/></svg>