<?xml version='1.0' encoding='UTF-8'?>
<svg xmlns="http://www.w3.org/2000/svg" xmlns:xlink="http://www.w3.org/1999/xlink" width="250px" height="250px" viewBox="0 0 250 250" y="0px" x="0px" enable-background="new 0 0 250 250"><defs><symbol overflow="visible" id="37df5ae0a"><path d="M162.313-138.719v15.813H93.188v39.625c8.007-3.563 14.91-5.344 20.703-5.344 10.976 0 19.754 4.883 26.328 14.64 6.57 9.762 9.86 20.434 9.86 32.016 0 11.137-4.087 23.57-12.25 37.297l-15.485-8.687C133.78-31.984 139.5-47.234 139.5-59.11c0-5.27-1.398-9.5-4.188-12.688-2.78-3.195-6.585-4.797-11.406-4.797-5.492 0-15.73 4.156-30.719 12.469V3.453h-4.906l-12.578-14.25V-55.89c-7.648 2.899-14.324 4.344-20.031 4.344-11.137 0-20.774-4.71-28.906-14.14-8.125-9.426-12.188-19.368-12.188-29.829v-27.39H-.562v-15.813zm-86.61 15.813h-43.64v43.969c0 7.718 1.093 12.601 3.28 14.64 2.188 2.043 5.063 3.063 8.626 3.063 6.383 0 16.96-4.563 31.734-13.688zm0 0"/></symbol></defs><use xlink:href="#37df5ae0a" x="45.34473" y="188.25"/></svg>