<?xml version='1.0' encoding='UTF-8'?>
<svg xmlns="http://www.w3.org/2000/svg" xmlns:xlink="http://www.w3.org/1999/xlink" width="250px" height="250px" viewBox="0 0 250 250" y="0px" x="0px" enable-background="new 0 0 250 250"><defs><symbol overflow="visible" id="08e5bce2a"><path d="M138.25-150.578v17.156h-31.297v45.563H38.547c-10.313 0-15.469 2.945-15.469 8.828 0 3.304 1.79 7.855 5.375 13.656 3.594 5.805 6.957 9.992 10.094 12.563 12.164-7.977 23.89-11.97 35.172-11.97 11.039 0 20.707 4.032 29 12.094 8.3 8.055 12.453 16.672 12.453 25.86 0 13.293-7.496 25.945-22.484 37.953L78.796-2.531c18.531-12.414 27.797-22.727 27.797-30.938 0-4.758-1.899-8.648-5.688-11.672-3.781-3.02-8.734-4.53-14.86-4.53-10.23 0-20.866 3.245-31.905 9.733C43.098-33.456 37.578-24.977 37.578-14.5c0 11.68 8.563 23.797 25.688 36.36 17.125 12.57 40.507 23.21 70.156 31.921l-1.578 5.078-8.813-2.906C92.332 45.88 67.473 33.63 48.453 19.203 29.441 4.785 19.937-9.426 19.937-23.437c0-8.625 4.633-17.165 13.907-25.625C20.945-64.052 14.5-76.258 14.5-85.689c0-12.882 10.031-19.328 30.094-19.328h43.265v-28.406H-.359v-17.156zm0 0"/></symbol></defs><use xlink:href="#08e5bce2a" x="57.50549" y="200"/></svg>