<?xml version='1.0' encoding='UTF-8'?>
<svg xmlns="http://www.w3.org/2000/svg" xmlns:xlink="http://www.w3.org/1999/xlink" width="250px" height="250px" viewBox="0 0 250 250" y="0px" x="0px" enable-background="new 0 0 250 250"><defs><symbol overflow="visible" id="de409a0ea"><path d="M127.5-150.578v17.156H83.75l4.11 53.063H71.421c-32.625 0-48.938 10.152-48.938 30.453 0 8.136 2.938 14.703 8.813 19.703 5.883 4.992 12.937 7.484 21.156 7.484 9.82 0 26.899-5.922 51.234-17.765l11.72 15.234C96.632-14.781 79.675-9.547 64.53-9.547c-14.023 0-26.43-5.394-37.219-16.187C16.52-36.535 11.125-48.422 11.125-61.391c0-23.77 18.125-35.656 54.375-35.656h3.14v-36.375h-69v-17.156zm0 0"/></symbol></defs><use xlink:href="#de409a0ea" x="62.8833" y="200"/></svg>