<?xml version='1.0' encoding='UTF-8'?>
<svg xmlns="http://www.w3.org/2000/svg" xmlns:xlink="http://www.w3.org/1999/xlink" width="250px" height="250px" viewBox="0 0 250 250" y="0px" x="0px" enable-background="new 0 0 250 250"><defs><symbol overflow="visible" id="06369e11a"><path d="M157.469-150.578v17.156h-58.5l2.187 39.516H47.734c-8.617 0-12.922 2.824-12.922 8.469 0 3.136 3.258 8.335 9.782 15.593C50.719-71.78 57.77-72.75 65.75-72.75c11.914 0 21.598 3.828 29.047 11.484 7.457 7.649 11.187 15.418 11.187 23.313 0 7.656-3.668 14.308-11 19.953-7.336 5.637-15.59 8.453-24.765 8.453-17.969 0-38.758-15.992-62.36-47.984l5.438-2.532C24.973-45.645 34.21-36.398 41.016-32.328c6.812 4.074 13.484 6.11 20.015 6.11 7.727 0 15.14-2.598 22.235-7.798 7.093-5.195 10.64-10.093 10.64-14.687 0-3.707-1.273-6.629-3.812-8.766-2.543-2.133-5.383-3.203-8.516-3.203-2.98 0-7.855 1.172-14.625 3.516-6.773 2.25-12.012 3.375-15.719 3.375C32.223-74.645 22.72-88.785 22.72-96.203c0-9.906 7.613-14.86 22.843-14.86h39.516v-22.359H-.359v-17.156zm-45.797 78.797l17.031-16.797 17.047 16.797-17.047 17.031zm0 0"/></symbol></defs><use xlink:href="#06369e11a" x="47.83752" y="200"/></svg>