<?xml version='1.0' encoding='UTF-8'?>
<svg xmlns="http://www.w3.org/2000/svg" xmlns:xlink="http://www.w3.org/1999/xlink" width="250px" height="250px" viewBox="0 0 250 250" y="0px" x="0px" enable-background="new 0 0 250 250"><defs><symbol overflow="visible" id="fb99acc7a"><path d="M174.625-150.578v17.156h-36.734V4.11h-4.47l-14.265-16.437v-121.094H85.687c.07 8.461.43 19.86 1.079 34.203.562 13.375.843 21.555.843 24.531 0 9.907-2.398 17.887-7.187 23.938-4.793 6.043-10.414 9.063-16.86 9.063-6.93 0-16.292-5.598-28.093-16.797C23.664-69.691 17.766-77.91 17.766-83.141v-50.28H-.36v-17.157zM68.641-133.422H36.734v62c0 4.274 1.328 7.758 3.985 10.453 2.664 2.7 5.972 4.047 9.922 4.047 4.101 0 8.129-1.426 12.078-4.281 3.945-2.863 5.922-6.711 5.922-11.547zm0 0"/></symbol></defs><use xlink:href="#fb99acc7a" x="39.2572" y="200"/></svg>