<?xml version='1.0' encoding='UTF-8'?>
<svg xmlns="http://www.w3.org/2000/svg" xmlns:xlink="http://www.w3.org/1999/xlink" width="250px" height="250px" viewBox="0 0 250 250" y="0px" x="0px" enable-background="new 0 0 250 250"><defs><symbol overflow="visible" id="cd2228c0a"><path d="M140.297-136.89v15.593H106.89V-63.5c0 6.23-5.934 14.762-17.797 25.594l-11.75-11.86c8.207-8.207 12.312-13.847 12.312-16.922v-54.609H39.984v77.344c0 2.125.164 3.812.5 5.062.332 1.243 3.79 3.766 10.375 7.578L100.312-2.64c19.551 11.352 29.329 21.426 29.329 30.22 0 8.194-6.118 12.991-18.344 14.39l-6.375-9.235c3.363-.293 6.16-1.406 8.39-3.343 2.239-1.938 3.36-4.157 3.36-6.657 0-6.73-8.606-15.078-25.813-25.047L37.141-33.406c-6.086-3.508-10.008-6.766-11.766-9.766-1.762-3.008-2.64-8.25-2.64-15.719v-62.406H-.329v-15.594zm0 0"/></symbol></defs><use xlink:href="#cd2228c0a" x="56.28052" y="187.5"/></svg>