<?xml version='1.0' encoding='UTF-8'?>
<svg xmlns="http://www.w3.org/2000/svg" xmlns:xlink="http://www.w3.org/1999/xlink" width="250px" height="250px" viewBox="0 0 250 250" y="0px" x="0px" enable-background="new 0 0 250 250"><defs><symbol overflow="visible" id="bd4ee119a"><path d="M135.703-138.719v15.813H100.75l2.344 36.625h-52.11c-8.386 0-12.578 2.34-12.578 7.015 0 2.157 1.258 5.184 3.782 9.079 2.53 3.898 4.57 5.843 6.124 5.843.301 0 2.458-.445 6.47-1.344 4-.882 7.894-1.328 11.687-1.328 11.875 0 21.539 3.47 29 10.407 7.457 6.937 11.187 14.75 11.187 23.437 0 6.531-3.398 12.23-10.187 17.094-6.793 4.855-14.383 7.281-22.766 7.281-21.824 0-44.055-18.035-66.687-54.11l4.89-2.327C29.645-36.891 47.238-22.72 64.688-22.72c7.937 0 15.054-2.351 21.359-7.062 6.312-4.707 9.469-9.625 9.469-14.75 0-2.82-.914-5.235-2.735-7.235-1.812-2.007-4.09-3.015-6.828-3.015-2.898 0-8.355 1.043-16.375 3.125-8.012 2-12.648 3-13.906 3-3.055 0-8.59-5.211-16.61-15.64-8.011-10.427-12.015-18.313-12.015-23.657 0-9.426 7.015-14.14 21.047-14.14H87.39v-20.813H-.33v-15.813zm0 0"/></symbol></defs><use xlink:href="#bd4ee119a" x="58.59277" y="188.25"/></svg>