<?xml version='1.0' encoding='UTF-8'?>
<svg xmlns="http://www.w3.org/2000/svg" xmlns:xlink="http://www.w3.org/1999/xlink" width="250px" height="250px" viewBox="0 0 250 250" y="0px" x="0px" enable-background="new 0 0 250 250"><defs><symbol overflow="visible" id="91f32951a"><path d="M163.25-136.89v15.593h-37.89L124.468-98C135.82-89.79 141.5-77.52 141.5-61.187c0 11.343-3.074 21.484-9.219 30.421 11.864 9.668 17.797 20.696 17.797 33.078 0 9.958-4.215 19.551-12.64 28.782l-11.204-12.75C134.66 8.02 138.875-.984 138.875-8.672c0-5.426-2.969-11.25-8.906-17.469C116.269-8.492 97.773.33 74.484.33c-8.718 0-16.43-1.427-23.125-4.282-6.699-2.852-12.28-6.828-16.75-11.922-4.468-5.094-6.703-11.008-6.703-17.75 0-8.05 2.961-13.984 8.89-17.797-8.273-.656-14.898-3.91-19.874-9.766C11.942-67.05 9.453-73.5 9.453-80.53c0-15.082 14.5-22.625 43.5-22.625L69.547-86.25h-7.688c-16.93 0-27.734 1.375-32.422 4.125-4.687 2.75-7.03 6.18-7.03 10.281 0 9.742 5.093 14.61 15.28 14.61 1.458 0 11.235-1.723 29.329-5.172L82.844-46.25h-1.438c-15.594 0-26.12 1.777-31.578 5.328-5.46 3.555-8.187 8.367-8.187 14.438 0 6.23 2.082 11.14 6.25 14.734 4.175 3.586 9.597 5.375 16.265 5.375 15.75 0 32.707-10.328 50.875-30.984-14.136-10.102-23-17.645-26.594-22.625-3.585-4.977-5.374-9.63-5.374-13.953 0-6.227 2.707-12.364 8.124-18.407 5.415-6.039 12.008-9.57 19.782-10.594l.547-18.359H-.328v-15.594zm-44.484 95.25c9.957-11.426 14.937-21.973 14.937-31.641 0-4.977-1.32-9.149-3.953-12.516-2.637-3.375-6.117-5.062-10.438-5.062-4.906 0-9.484 3.023-13.734 9.062-4.25 6.043-6.375 11.371-6.375 15.984 0 8.43 6.52 16.485 19.563 24.172zm0 0"/></symbol></defs><use xlink:href="#91f32951a" x="44.7998" y="187.5"/></svg>