<?xml version='1.0' encoding='UTF-8'?>
<svg xmlns="http://www.w3.org/2000/svg" xmlns:xlink="http://www.w3.org/1999/xlink" width="250px" height="250px" viewBox="0 0 250 250" y="0px" x="0px" enable-background="new 0 0 250 250"><defs><symbol overflow="visible" id="ff4d16ffa"><path d="M159.984-138.719v15.813h-33.843V3.78h-5.235l-12.25-14.578v-43.422H68.47c-2.156 20.407-4.867 30.61-8.125 30.61-2.75 0-8.934-6.118-18.547-18.36-9.606-12.25-14.406-20.414-14.406-24.5 0-2.07 1.445-3.11 4.343-3.11h19.25c2.008-5.124 3.57-12.14 4.688-21.046-3.055.824-6.953 1.234-11.703 1.234-7.637 0-15.407-3.265-23.313-9.796-7.906-6.532-11.86-13.399-11.86-20.61 0-5.039 1.407-9.305 4.22-12.797 2.82-3.488 6.535-5.234 11.14-5.234 12.176 0 22.938 5.496 32.282 16.484 9.351 10.98 14.03 24.524 14.03 40.625 0 4.086-.183 7.797-.546 11.14h38.734v-53.327H74.25L62.906-138.72zM55.891-96.188c0-9.644-1.782-17.25-5.344-22.812-3.563-5.57-8.277-8.36-14.14-8.36-3.493 0-6.407 1.34-8.75 4.016-2.337 2.668-3.5 5.82-3.5 9.453 0 5.418 2.019 9.965 6.062 13.641 4.05 3.68 9.304 5.516 15.765 5.516 3.114 0 6.414-.485 9.907-1.454zm0 0"/></symbol></defs><use xlink:href="#ff4d16ffa" x="46.45801" y="188.25"/></svg>