<?xml version='1.0' encoding='UTF-8'?>
<svg xmlns="http://www.w3.org/2000/svg" xmlns:xlink="http://www.w3.org/1999/xlink" width="250px" height="250px" viewBox="0 0 250 250" y="0px" x="0px" enable-background="new 0 0 250 250"><defs><symbol overflow="visible" id="850100ada"><path d="M124.36-138.719v15.813H92.405l2.219 36.953H60.891c-24.493 0-36.735 8.242-36.735 24.719 0 6.168 2.54 11.793 7.625 16.875 5.082 5.086 11.485 7.625 19.203 7.625 4.383 0 8.282-.782 11.688-2.344-1.555-2.227-2.328-5.305-2.328-9.234 0-3.126 1.5-6 4.5-8.626 3.008-2.632 6.738-3.953 11.187-3.953 6.313 0 11.489 1.82 15.531 5.453 4.051 3.637 6.079 8.126 6.079 13.47 0 5.042-3.79 10.09-11.36 15.14L107.203.562 95.297 3.235 74.922-22.719a36.41 36.41 0 0 1-9.344 1.235c-13.367 0-25.355-5.864-35.969-17.594-10.617-11.727-15.922-23.379-15.922-34.953 0-18.406 14.958-27.61 44.876-27.61h19.812v-21.265H-.328v-15.813zm0 0"/></symbol></defs><use xlink:href="#850100ada" x="64.27051" y="188.25"/></svg>