<?xml version='1.0' encoding='UTF-8'?>
<svg xmlns="http://www.w3.org/2000/svg" xmlns:xlink="http://www.w3.org/1999/xlink" width="250px" height="250px" viewBox="0 0 250 250" y="0px" x="0px" enable-background="new 0 0 250 250"><defs><symbol overflow="visible" id="b57f2147a"><path d="M14.781-76.39c6.57-.446 12.692-1.489 18.36-3.126 5.675-1.644 10.566-3.882 14.672-6.718 4.113-2.844 7.363-6.317 9.75-10.422 2.394-4.102 3.593-8.844 3.593-14.219 0-6.57-1.648-11.203-4.937-13.89-3.282-2.688-6.938-4.032-10.969-4.032-4.336 0-7.883 1.309-10.64 3.922-2.762 2.617-4.141 6.086-4.141 10.406 0 3.438.781 6.278 2.343 8.516 1.57 2.242 3.399 3.96 5.485 5.156l-8.953 10.531c-1.938-.75-3.918-1.906-5.938-3.468a29.052 29.052 0 0 1-5.375-5.5c-1.562-2.094-2.836-4.52-3.812-7.282-.969-2.757-1.453-5.78-1.453-9.062 0-3.883.742-7.547 2.234-10.984a26.255 26.255 0 0 1 6.39-8.954c2.758-2.539 6.157-4.554 10.188-6.047 4.031-1.5 8.586-2.25 13.672-2.25 5.227 0 9.93.899 14.11 2.688 4.175 1.793 7.722 4.219 10.64 7.281 2.914 3.063 5.156 6.727 6.719 10.985 1.57 4.25 2.36 8.84 2.36 13.765 0 11.95-4.22 22.14-12.657 30.578-8.438 8.438-21.094 13.778-37.969 16.016 1.633 6.125 5.254 11.168 10.86 15.125 5.601 3.96 13.109 5.938 22.515 5.938 7.613 0 14.664-1.344 21.156-4.032 6.5-2.687 11.47-6.347 14.907-10.984v-84.672h37.625v14.344h-20.157V0H97.891v-36.063c-3.586 2.688-8.368 5.079-14.344 7.172-5.969 2.086-13.063 3.125-21.281 3.125-7.461 0-14.368-1.117-20.72-3.359-6.343-2.238-11.87-5.52-16.577-9.844-4.7-4.332-8.434-9.597-11.203-15.797-2.762-6.195-4.368-13.254-4.813-21.172zm0 0"/></symbol></defs><use xlink:href="#b57f2147a" x="58.50875" y="190"/></svg>