<?xml version='1.0' encoding='UTF-8'?>
<svg xmlns="http://www.w3.org/2000/svg" xmlns:xlink="http://www.w3.org/1999/xlink" width="250px" height="250px" viewBox="0 0 250 250" y="0px" x="0px" enable-background="new 0 0 250 250"><defs><symbol overflow="visible" id="89a4ca63a"><path d="M71.906-77.734c-2.543-2.688-5.719-4.704-9.531-6.047-3.805-1.344-7.273-2.016-10.406-2.016-7.324 0-13.34 2.016-18.047 6.047-4.7 4.031-7.047 10.453-7.047 19.266 0 6.125 1.004 11.617 3.016 16.468a50.049 50.049 0 0 0 8.187 13.328c3.438 4.032 7.43 7.696 11.984 10.985a122.637 122.637 0 0 0 14.454 8.953L53.766 2.016A121.026 121.026 0 0 1 36.39-9.297c-5.45-4.258-10.188-9-14.22-14.219-4.03-5.226-7.245-10.976-9.64-17.25-2.386-6.27-3.578-13.14-3.578-20.609 0-6.875 1.117-12.773 3.36-17.703 2.25-4.926 5.238-8.992 8.968-12.203 3.727-3.207 8.02-5.594 12.875-7.156 4.852-1.57 9.895-2.36 15.125-2.36 5.676 0 11.016 1.086 16.016 3.25 5 2.168 9.367 5.188 13.11 9.063 2.687-3.727 6.304-6.641 10.859-8.735 4.55-2.094 9.441-3.14 14.671-3.14 2.383 0 4.883.187 7.5.562 2.614.375 4.594.938 5.938 1.688v-28.672H-2.235v-14.344h157.25v14.344h-20.171V0h-17.469v-83.781c-1.2-.594-2.656-1.078-4.375-1.453-1.71-.375-3.836-.563-6.375-.563-7.617 0-13.105 3.25-16.469 9.75-3.355 6.5-5.258 16.094-5.703 28.781h-17.25c0-7.164.484-13.25 1.453-18.25.969-5.007 2.051-9.082 3.25-12.218zm0 0"/></symbol></defs><use xlink:href="#89a4ca63a" x="48.7865" y="190"/></svg>