<?xml version='1.0' encoding='UTF-8'?>
<svg xmlns="http://www.w3.org/2000/svg" xmlns:xlink="http://www.w3.org/1999/xlink" width="250px" height="250px" viewBox="0 0 250 250" y="0px" x="0px" enable-background="new 0 0 250 250"><defs><symbol overflow="visible" id="4008422aa"><path d="M83.11-99.906c4.624 1.648 9.175 3.93 13.656 6.844 4.476 2.906 8.507 6.414 12.093 10.515 3.582 4.106 6.457 8.922 8.625 14.453 2.164 5.524 3.25 11.719 3.25 18.594 0 7.617-1.343 14.523-4.03 20.719-2.688 6.199-6.497 11.539-11.423 16.015-4.93 4.48-10.828 7.918-17.703 10.313-6.867 2.387-14.406 3.578-22.625 3.578-7.617 0-14.82-1.156-21.61-3.469-6.792-2.32-12.73-5.687-17.812-10.094-5.074-4.406-9.105-9.742-12.093-16.015-2.993-6.27-4.485-13.438-4.485-21.5 0-6.863 1.117-12.91 3.36-18.14 2.25-5.227 5.273-9.782 9.078-13.657 3.812-3.883 8.18-7.098 13.109-9.64a70.385 70.385 0 0 1 15.672-5.829l15.687-4.031v-25.531H-2.234v-14.344h136.859v14.344H83.109zm19.265 49.953c0-5.07-.79-9.66-2.36-13.766-1.574-4.113-3.632-7.66-6.171-10.64-2.531-2.989-5.403-5.489-8.61-7.5-3.21-2.02-6.382-3.555-9.515-4.61l-12.547 2.922c-11.2 2.531-19.977 6.375-26.328 11.531-6.344 5.157-9.516 12.36-9.516 21.61 0 6.43 1.082 11.918 3.25 16.468 2.164 4.555 5.004 8.25 8.516 11.094 3.508 2.836 7.504 4.922 11.984 6.266 4.477 1.344 8.957 2.015 13.438 2.015 4.78 0 9.445-.671 14-2.015 4.55-1.344 8.582-3.43 12.093-6.266 3.508-2.843 6.348-6.504 8.516-10.984 2.164-4.477 3.25-9.852 3.25-16.125zm0 0"/></symbol></defs><use xlink:href="#4008422aa" x="60.07325" y="190"/></svg>