<?xml version='1.0' encoding='UTF-8'?>
<svg xmlns="http://www.w3.org/2000/svg" xmlns:xlink="http://www.w3.org/1999/xlink" width="250px" height="250px" viewBox="0 0 250 250" y="0px" x="0px" enable-background="new 0 0 250 250"><defs><symbol overflow="visible" id="3e5da85ba"><path d="M67.64-62.5c0-8.957-2.355-15.64-7.062-20.047-4.7-4.406-10.777-6.61-18.234-6.61-3.438 0-6.875.493-10.313 1.47-3.437.968-6.648 2.273-9.625 3.906l-6.281-14.11c3.738-2.093 7.992-3.66 12.766-4.703 4.78-1.039 9.113-1.562 13-1.562 12.988 0 23.03 3.172 30.125 9.515 7.093 6.344 11.382 14.22 12.875 23.625 1.945.45 3.738.715 5.375.797 1.644.074 3.515.11 5.609.11 2.54 0 5.336-.332 8.39-1 3.063-.676 5.641-1.688 7.735-3.032v-52.64H-2.234v-14.344h151.859v14.344h-20.156V0H112v-57.125c-3.281 1.5-7.313 2.25-12.094 2.25-2.687 0-5.23-.258-7.625-.781-2.386-.532-4.625-1.242-6.719-2.14-1.187 11.355-5.48 20.429-12.874 27.218-7.399 6.793-17.368 10.187-29.907 10.187-7.918 0-15.46-1.71-22.625-5.14-7.168-3.438-13.14-8.516-17.922-15.235l11.204-10.312c4.78 5.824 9.332 9.82 13.656 11.984 4.332 2.168 9.488 3.25 15.468 3.25 8.063 0 14.254-2.535 18.579-7.61 4.332-5.081 6.5-11.429 6.5-19.046zm0 0"/></symbol></defs><use xlink:href="#3e5da85ba" x="51.4685" y="190"/></svg>