<?xml version='1.0' encoding='UTF-8'?>
<svg xmlns="http://www.w3.org/2000/svg" xmlns:xlink="http://www.w3.org/1999/xlink" width="250px" height="250px" viewBox="0 0 250 250" y="0px" x="0px" enable-background="new 0 0 250 250"><defs><symbol overflow="visible" id="065f4390a"><path d="M-2.234-126.781v-14.344H157.25v14.344h-36.063v18.594c3.133 1.187 6.083 3.054 8.844 5.593 2.758 2.543 5.145 5.57 7.156 9.078 2.02 3.512 3.63 7.399 4.829 11.657 1.195 4.25 1.797 8.687 1.797 13.312 0 9.856-1.649 18.965-4.938 27.328-3.281 8.367-7.984 15.61-14.11 21.735-6.124 6.125-13.558 10.906-22.296 14.343C93.739-1.71 84 0 73.25 0c-9.406 0-17.883-1.117-25.422-3.36-7.543-2.238-13.965-5.335-19.266-9.296-5.304-3.957-9.34-8.696-12.109-14.219-2.762-5.531-4.14-11.582-4.14-18.156 0-15.07 6.796-25.223 20.39-30.453-6.418-2.54-11.422-6.196-15.016-10.97-3.585-4.78-5.375-10.831-5.375-18.155 0-5.07 1.157-9.508 3.47-13.313 2.32-3.812 5.202-6.766 8.64-8.86zm80.187 45.469c0-4.032.672-7.723 2.016-11.079 1.344-3.363 3.207-6.238 5.594-8.625a27.854 27.854 0 0 1 8.296-5.718c3.133-1.414 6.493-2.274 10.079-2.579v-17.468H45.703c-4.637 1.793-8.375 4.703-11.219 8.734-2.836 4.031-4.25 8.734-4.25 14.11 0 7.167 2.274 12.585 6.828 16.25 4.563 3.656 10.5 5.484 17.813 5.484h7.39v15.234h-4.703c-9.554 0-16.496 2.016-20.828 6.047-4.336 4.031-6.5 9.555-6.5 16.563 0 8.968 3.77 16.03 11.313 21.187 7.539 5.149 17.883 7.719 31.031 7.719 11.945 0 22.14-2.57 30.578-7.719 8.438-5.156 14.594-12.515 18.469-22.078-5.668-.145-11.117-.96-16.344-2.453-5.23-1.5-9.86-3.781-13.89-6.844a36.064 36.064 0 0 1-9.75-11.203c-2.461-4.406-3.688-9.594-3.688-15.563zm47.938 12.093c0-7.914-1.461-14.258-4.375-19.031-2.907-4.781-6.903-7.172-11.985-7.172-4.625 0-8.136 1.344-10.531 4.031-2.387 2.688-3.578 6.2-3.578 10.532 0 3.875.82 7.234 2.469 10.078a21.92 21.92 0 0 0 6.5 7.062c2.687 1.867 5.82 3.282 9.406 4.25 3.582.969 7.312 1.453 11.187 1.453.301-1.789.524-3.582.672-5.375a67.29 67.29 0 0 0 .235-5.828zm0 0"/></symbol></defs><use xlink:href="#065f4390a" x="47.669" y="190"/></svg>