<?xml version='1.0' encoding='UTF-8'?>
<svg xmlns="http://www.w3.org/2000/svg" xmlns:xlink="http://www.w3.org/1999/xlink" width="250px" height="250px" viewBox="0 0 250 250" y="0px" x="0px" enable-background="new 0 0 250 250"><defs><symbol overflow="visible" id="f3f6f1eca"><path d="M72.516 1.188c-7.586 0-15.133-1.184-22.641-3.547-7.5-2.375-14.215-6.051-20.14-11.032-5.919-4.976-10.696-11.257-14.329-18.843-3.636-7.582-5.453-16.508-5.453-26.782 0-16.75 5.25-29.504 15.75-38.265 10.508-8.77 25.328-13.156 44.453-13.156h16.11v-23.704H-2.375v-15.172h136.281v15.172h-29.39v39.578H74.187c-14.855 0-26.039 3.204-33.546 9.61-7.5 6.398-11.25 15.36-11.25 26.89 0 7.899 1.222 14.575 3.672 20.032 2.445 5.449 5.687 9.914 9.718 13.39 4.032 3.47 8.614 5.953 13.75 7.453 5.133 1.5 10.305 2.25 15.516 2.25 1.582 0 2.687-.078 3.312-.234-3.625-2.207-7.023-5.285-10.187-9.234-3.156-3.957-4.734-9.254-4.734-15.89 0-3.946.828-7.618 2.484-11.017 1.656-3.394 3.863-6.273 6.625-8.64 2.77-2.375 6.008-4.234 9.719-5.578 3.718-1.344 7.71-2.016 11.984-2.016 4.738 0 9.082.715 13.031 2.14 3.946 1.419 7.422 3.391 10.422 5.923a26.36 26.36 0 0 1 7 9.125c1.656 3.554 2.484 7.464 2.484 11.734 0 5.523-1.265 10.695-3.796 15.516-2.524 4.824-6.04 9.054-10.547 12.687-4.5 3.625-9.914 6.469-16.235 8.531C87.297.16 80.266 1.188 72.516 1.188zm5.453-40.532c0 4.586 1.066 8.54 3.203 11.86 2.133 3.312 4.941 6.312 8.422 9 4.414-1.426 8.203-3.993 11.36-7.703 3.163-3.72 4.75-7.946 4.75-12.688 0-3.625-1.071-6.938-3.204-9.938-2.137-3.007-5.492-4.515-10.063-4.515-4.585 0-8.14 1.308-10.671 3.922-2.532 2.605-3.797 5.96-3.797 10.062zm0 0"/></symbol></defs><use xlink:href="#f3f6f1eca" x="59.2325" y="200"/></svg>