<?xml version='1.0' encoding='UTF-8'?>
<svg xmlns="http://www.w3.org/2000/svg" xmlns:xlink="http://www.w3.org/1999/xlink" width="250px" height="250px" viewBox="0 0 250 250" y="0px" x="0px" enable-background="new 0 0 250 250"><defs><symbol overflow="visible" id="85a5817aa"><path d="M112.094-10.422c-5.055 3.469-11.336 6.195-18.844 8.172C85.75-.27 77.656.719 68.969.719 61.383.719 54-.348 46.813-2.484c-7.188-2.133-13.547-5.375-19.079-9.72-5.53-4.343-9.96-9.753-13.28-16.233-3.313-6.477-4.97-14.063-4.97-22.75 0-12.801 3.946-23.305 11.844-31.516 7.906-8.219 18.57-13.672 32-16.36l26.297-5.453v-29.625h-82v-15.172h125.14v15.172h-24.89v44.547L68.5-83.656c-5.531 1.105-10.71 2.57-15.531 4.39-4.824 1.813-9.012 4.063-12.563 6.75-3.554 2.68-6.36 5.836-8.422 9.47-2.054 3.636-3.078 7.901-3.078 12.796 0 5.688.989 10.668 2.969 14.938 1.977 4.273 4.742 7.87 8.297 10.796 3.55 2.918 7.738 5.09 12.562 6.516 4.82 1.418 10.157 2.125 16 2.125 5.364 0 11.485-.75 18.36-2.25s13.234-4.066 19.078-7.703zm0 0"/></symbol></defs><use xlink:href="#85a5817aa" x="65.987" y="200"/></svg>