<?xml version='1.0' encoding='UTF-8'?>
<svg xmlns="http://www.w3.org/2000/svg" xmlns:xlink="http://www.w3.org/1999/xlink" width="250px" height="250px" viewBox="0 0 250 250" y="0px" x="0px" enable-background="new 0 0 250 250"><defs><symbol overflow="visible" id="215d845da"><path d="M116.703-126.781H96.547V0H79.078v-53.984c-2.687 2.386-6.277 4.476-10.766 6.265-4.48 1.793-9.855 2.688-16.124 2.688-5.22 0-10.149-.742-14.782-2.235-4.625-1.488-8.73-3.8-12.312-6.937-3.586-3.133-6.422-7.016-8.516-11.64-2.094-4.634-3.14-10.087-3.14-16.36v-44.578H-2.235v-14.344h118.937zM30.906-84c0 8.512 1.942 14.637 5.828 18.375 3.883 3.73 9.41 5.594 16.578 5.594 5.52 0 10.672-1.305 15.454-3.922 4.78-2.613 8.218-5.863 10.312-9.75v-53.078H30.906zm0 0"/></symbol></defs><use xlink:href="#215d845da" x="67.89575" y="190"/></svg>