<?xml version='1.0' encoding='UTF-8'?>
<svg xmlns="http://www.w3.org/2000/svg" xmlns:xlink="http://www.w3.org/1999/xlink" width="250px" height="250px" viewBox="0 0 250 250" y="0px" x="0px" enable-background="new 0 0 250 250"><defs><symbol overflow="visible" id="789c4a60a"><path d="M-2.234-126.781v-14.344H157.03v14.344H136.86V0h-17.468v-126.781H88.92v50.172c0 6.574-.933 12.289-2.796 17.14-1.867 4.856-4.48 8.965-7.844 12.328-3.355 3.356-7.351 5.856-11.984 7.5-4.625 1.637-9.7 2.453-15.219 2.453-10.906 0-19.836-3.32-26.781-9.968C17.359-53.801 13.89-63.617 13.89-76.61v-50.172zm33.593 49.719c0 8.968 1.676 15.359 5.032 19.171 3.363 3.805 8.18 5.703 14.453 5.703 6.718 0 11.832-1.976 15.343-5.937 3.508-3.957 5.266-10.27 5.266-18.938v-49.718H31.36zm0 0"/></symbol></defs><use xlink:href="#789c4a60a" x="47.78075" y="190"/></svg>