<?xml version='1.0' encoding='UTF-8'?>
<svg xmlns="http://www.w3.org/2000/svg" xmlns:xlink="http://www.w3.org/1999/xlink" width="250px" height="250px" viewBox="0 0 250 250" y="0px" x="0px" enable-background="new 0 0 250 250"><defs><symbol overflow="visible" id="f5e26215a"><path d="M54.875-79.75c-9.105 0-15.672 2.32-19.703 6.953-4.031 4.625-6.047 10.524-6.047 17.688 0 8.062 1.676 15.945 5.031 23.64 3.364 7.688 8.18 16.235 14.453 25.64L33.594 2.017C26.875-7.391 21.46-16.68 17.359-25.86c-4.105-9.188-6.156-19.16-6.156-29.922 0-12.54 3.547-22.207 10.64-29 7.095-6.79 16.985-10.188 29.673-10.188h37.859v-31.812h-91.61v-14.344h129.25v14.344h-20.171V0H89.375v-79.75zm0 0"/></symbol></defs><use xlink:href="#f5e26215a" x="62.75525" y="190"/></svg>