<?xml version='1.0' encoding='UTF-8'?>
<svg xmlns="http://www.w3.org/2000/svg" xmlns:xlink="http://www.w3.org/1999/xlink" width="250px" height="250px" viewBox="0 0 250 250" y="0px" x="0px" enable-background="new 0 0 250 250"><defs><symbol overflow="visible" id="a5944519a"><path d="M35.61-.453c-7.012-.895-12.797-3.172-17.36-6.828-4.555-3.657-6.828-7.649-6.828-11.985 0-2.832 1.27-5.406 3.812-7.718 2.54-2.32 5.899-3.485 10.079-3.485l16.125 16.125c5.675 0 11.124-.332 16.343-1 5.227-.676 9.82-1.832 13.782-3.469 3.957-1.644 7.128-3.773 9.515-6.39 2.395-2.613 3.594-5.86 3.594-9.735 0-9.707-7.617-14.562-22.844-14.562-4.031 0-8.742.375-14.125 1.125-5.375.742-11.121 1.934-17.234 3.578a112.065 112.065 0 0 1-7.953-6.828 53.911 53.911 0 0 1-6.953-7.953 39.56 39.56 0 0 1-4.813-9.078c-1.2-3.207-1.797-6.68-1.797-10.422 0-3.727.82-7.195 2.469-10.406 1.644-3.207 3.922-5.97 6.828-8.282 2.914-2.32 6.426-4.156 10.531-5.5 4.102-1.343 8.625-2.015 13.563-2.015h30.453v-21.5H-2.234v-14.344h116.468v14.344H90.047V-90.5h-42.11c-6.124 0-11.167 1.012-15.124 3.031-3.961 2.012-5.938 5.633-5.938 10.86 0 5.23 2.54 10.308 7.625 15.234a136.756 136.756 0 0 1 14.328-2.797c4.781-.676 9.785-1.016 15.016-1.016 6.27 0 11.867.825 16.797 2.47 4.925 1.648 9.03 3.85 12.312 6.609 3.29 2.761 5.797 5.976 7.516 9.64a26.785 26.785 0 0 1 2.578 11.532c0 5.523-1.352 10.374-4.047 14.562-2.688 4.18-6.344 7.688-10.969 10.531C83.406-7.008 77.88-4.77 71.453-3.125 65.035-1.488 58.164-.445 50.843 0L76.61 23.078l-13.89 10.75zm0 0"/></symbol></defs><use xlink:href="#a5944519a" x="69.125" y="190"/></svg>