<?xml version='1.0' encoding='UTF-8'?>
<svg xmlns="http://www.w3.org/2000/svg" xmlns:xlink="http://www.w3.org/1999/xlink" width="250px" height="250px" viewBox="0 0 250 250" y="0px" x="0px" enable-background="new 0 0 250 250"><defs><symbol overflow="visible" id="da9df8c4a"><path d="M108.078-44.313c0 3.626-.793 6.825-2.375 9.594-1.586 2.762-3.246 5.012-4.984 6.75L116.844 9 99.78 15.172 87.453-20.141c-7.586 3.637-16.433 5.453-26.547 5.453-6.156 0-12.32-.988-18.484-2.968-6.156-1.977-11.688-5.02-16.594-9.125-4.898-4.102-8.844-9.235-11.844-15.39-3-6.165-4.5-13.52-4.5-22.063 0-8.207 1.422-15.235 4.266-21.079C16.594-91.163 20.344-95.987 25-99.78c4.664-3.79 10-6.594 16-8.406 6-1.82 12.16-2.735 18.484-2.735H77.97v-23.219H-2.375v-15.172h127.031v15.172H96.22v38.86H65.89c-5.063 0-9.844.594-14.344 1.781-4.5 1.188-8.414 3.09-11.734 5.703-3.313 2.606-5.961 5.883-7.938 9.828-1.98 3.95-2.969 8.688-2.969 14.219 0 5.688.907 10.625 2.719 14.813 1.82 4.187 4.195 7.624 7.125 10.312 2.926 2.68 6.242 4.652 9.953 5.922 3.707 1.262 7.461 1.89 11.266 1.89 9.156 0 16.265-1.816 21.328-5.453l-6.172-19.422c3.79-4.582 8.848-6.874 15.172-6.874 5.687 0 10.07 1.699 13.156 5.093 3.082 3.399 4.625 7.782 4.625 13.157zm0 0"/></symbol></defs><use xlink:href="#da9df8c4a" x="65.039" y="200"/></svg>