<?xml version='1.0' encoding='UTF-8'?>
<svg xmlns="http://www.w3.org/2000/svg" xmlns:xlink="http://www.w3.org/1999/xlink" width="250px" height="250px" viewBox="0 0 250 250" y="0px" x="0px" enable-background="new 0 0 250 250"><defs><symbol overflow="visible" id="09160f13a"><path d="M34.5-2.688c-7.023-.894-12.813-3.171-17.375-6.828-4.555-3.664-6.828-7.66-6.828-11.984 0-2.844 1.344-5.422 4.031-7.734 2.695-2.313 6.582-3.47 11.656-3.47l14.328 16.126c5.676 0 10.942-.332 15.797-1 4.852-.676 9.07-1.832 12.657-3.469 3.582-1.644 6.379-3.773 8.39-6.39 2.02-2.614 3.031-5.864 3.031-9.75 0-9.708-7.617-14.563-22.843-14.563-3.438 0-7.434.188-11.985.563-4.554.374-9.89 1.386-16.015 3.03a126.493 126.493 0 0 1-7.516-6.718 46.674 46.674 0 0 1-6.484-7.844 47.255 47.255 0 0 1-4.594-8.843c-1.2-3.063-1.797-6.313-1.797-9.75 0-3.727.82-7.196 2.469-10.407 1.644-3.219 3.922-5.984 6.828-8.297 2.914-2.312 6.426-4.14 10.531-5.484 4.102-1.344 8.625-2.016 13.563-2.016h29.343v-19.265H-2.234v-14.344h168.89v14.344H146.5V0h-17.469v-51.969c-2.543 1.043-5.383 1.828-8.515 2.36-3.137.523-6.2.78-9.188.78a59.84 59.84 0 0 1-8.281-.562 40.05 40.05 0 0 1-7.844-1.906l-.453.453c2.54 4.18 3.813 8.73 3.813 13.657 0 11.054-4.446 19.417-13.329 25.093-8.886 5.68-20.718 8.965-35.5 9.86l19.703 20.828-15 9.625zm37.625-63.39a162.878 162.878 0 0 0 15.234 1.906c4.926.375 9.707.563 14.344.563 5.52 0 10.707-.485 15.563-1.453 4.851-.977 8.773-2.364 11.765-4.157v-57.562h-40.11v34.047H47.938c-6.124 0-11.167 1.011-15.124 3.03-3.961 2.013-5.938 5.634-5.938 10.86 0 2.836.633 5.414 1.906 7.735a32.084 32.084 0 0 0 4.594 6.375c5.227-1.04 9.895-1.75 14-2.125 4.102-.375 7.945-.563 11.531-.563 2.844 0 5.235.152 7.172.453 1.938.293 3.953.59 6.047.89zm0 0"/></symbol></defs><use xlink:href="#09160f13a" x="42.9755" y="190"/></svg>