<?xml version='1.0' encoding='UTF-8'?>
<svg xmlns="http://www.w3.org/2000/svg" xmlns:xlink="http://www.w3.org/1999/xlink" width="250px" height="250px" viewBox="0 0 250 250" y="0px" x="0px" enable-background="new 0 0 250 250"><defs><symbol overflow="visible" id="ef1b2d6fa"><path d="M134.844-45.703c-1.793 1.2-4.149 2.324-7.063 3.375-2.906 1.043-6.75 1.562-11.531 1.562-4.48 0-8.813-.707-13-2.125a33.884 33.884 0 0 1-11.313-6.5c-3.355-2.914-6.042-6.5-8.062-10.75-2.012-4.257-3.016-9.226-3.016-14.906 0-5.52.93-10.441 2.797-14.766 1.875-4.332 4.453-7.957 7.735-10.874 3.28-2.915 7.125-5.118 11.53-6.61 4.407-1.488 9.15-2.234 14.235-2.234 3.727 0 7.125.414 10.188 1.234 3.062.813 5.562 1.82 7.5 3.016v-21.5h-76.61c2.239 3.281 4.29 7.5 6.157 12.656 1.875 5.148 2.812 10.86 2.812 17.14 0 5.376-.824 10.34-2.469 14.891-1.648 4.555-3.964 8.477-6.953 11.766-2.98 3.281-6.601 5.855-10.86 7.719-4.25 1.867-8.991 2.797-14.218 2.797-2.242 0-4.031-.223-5.375-.672C29.711-53.91 33.035-48.082 37.297-43a60.602 60.602 0 0 0 14.781 12.766c5.602 3.43 11.727 6 18.375 7.718 6.645 1.72 13.695 2.578 21.156 2.578 10.008 0 18.895-1.304 26.657-3.921 7.77-2.614 13.296-5.41 16.578-8.391zm0-12.984v-33.594c-4.324-2.688-9.477-4.031-15.453-4.031-6.125 0-11.32 1.828-15.579 5.484-4.25 3.656-6.374 8.844-6.374 15.562 0 3.887.597 7.211 1.796 9.97 1.196 2.76 2.801 5 4.813 6.718a18.564 18.564 0 0 0 6.828 3.703c2.54.742 5.227 1.11 8.063 1.11 2.539 0 5.378-.407 8.515-1.22 3.133-.82 5.598-2.054 7.39-3.703zm0 43c-4.031 2.542-9.559 5.011-16.578 7.406-7.012 2.386-16.043 3.578-27.094 3.578-9.711 0-19.086-1.344-28.125-4.031-9.031-2.688-17.32-6.79-24.86-12.313-7.542-5.531-14-12.476-19.374-20.844-5.375-8.363-9.258-18.144-11.641-29.343-.156-.594-.352-1.524-.578-2.797-.219-1.27-.328-2.727-.328-4.375 0-3.426 1.379-6.11 4.14-8.047 2.77-1.945 6.172-2.32 10.203-1.125l2.907 6.937c.894 2.387 2.015 4.028 3.359 4.922 1.344.899 2.688 1.344 4.031 1.344 4.633 0 8.852-1.863 12.657-5.594 3.812-3.726 5.718-9.625 5.718-17.687 0-5.227-.71-10.531-2.125-15.906-1.418-5.376-3.324-9.782-5.718-13.22H-2.234v-14.343h174.718v14.344h-20.172V0h-17.468zm0 0"/></symbol></defs><use xlink:href="#ef1b2d6fa" x="40.07" y="190"/></svg>