<?xml version='1.0' encoding='UTF-8'?>
<svg xmlns="http://www.w3.org/2000/svg" xmlns:xlink="http://www.w3.org/1999/xlink" width="250px" height="250px" viewBox="0 0 250 250" y="0px" x="0px" enable-background="new 0 0 250 250"><defs><symbol overflow="visible" id="85a5817aa"><path d="M105.953-9.86c-4.781 3.294-10.719 5.872-17.812 7.735C81.047-.258 73.395.672 65.187.672a73.48 73.48 0 0 1-20.953-3.016c-6.793-2.02-12.804-5.082-18.03-9.187-5.22-4.114-9.403-9.227-12.548-15.344C10.52-33 8.953-40.172 8.953-48.391c0-12.093 3.735-22.02 11.203-29.78 7.469-7.77 17.551-12.923 30.25-15.454l24.86-5.156v-28h-77.5v-14.344H116.03v14.344H92.516v42.11l-27.782 5.593c-5.23 1.055-10.12 2.437-14.671 4.156-4.555 1.711-8.512 3.836-11.876 6.375-3.355 2.543-6.007 5.531-7.953 8.969-1.937 3.43-2.906 7.46-2.906 12.094 0 5.375.93 10.078 2.797 14.109 1.863 4.031 4.477 7.43 7.844 10.188 3.363 2.761 7.32 4.812 11.875 6.156 4.55 1.343 9.586 2.015 15.11 2.015 5.081 0 10.866-.707 17.359-2.125 6.5-1.414 12.515-3.843 18.046-7.28zm0 0"/></symbol></defs><use xlink:href="#85a5817aa" x="69.3485" y="190"/></svg>