<?xml version='1.0' encoding='UTF-8'?>
<svg xmlns="http://www.w3.org/2000/svg" xmlns:xlink="http://www.w3.org/1999/xlink" width="250px" height="250px" viewBox="0 0 250 250" y="0px" x="0px" enable-background="new 0 0 250 250"><defs><symbol overflow="visible" id="4f245582a"><path d="M111.11-126.781H99.687v-14.344h48.828v14.344h-19.938V0H111.11zm-62.954-17.031c6.125 0 11.649 1.011 16.578 3.03 4.926 2.012 9.11 4.852 12.547 8.516 3.438 3.657 6.086 8.028 7.953 13.11 1.864 5.074 2.797 10.746 2.797 17.015 0 7.618-1.156 14.637-3.469 21.063C82.25-74.66 79-68.91 74.813-63.828c-4.18 5.074-9.18 9.437-15 13.094-5.824 3.656-12.171 6.605-19.046 8.843L78.844-8.953 65.406 2.907 25.531-36.517c-5.523-.593-10.414-2.304-14.672-5.14C6.61-44.5 4.484-48.61 4.484-53.984c0-4.332 1.301-7.657 3.907-9.97 2.613-2.312 5.343-3.468 8.187-3.468l12.313 11.875a59.082 59.082 0 0 0 15.125-5.266A48.186 48.186 0 0 0 57-70.453c3.813-3.957 6.875-8.625 9.188-14 2.312-5.375 3.468-11.422 3.468-18.14 0-4.477-.601-8.36-1.797-11.641-1.187-3.29-2.757-6.016-4.703-8.172-1.937-2.164-4.18-3.735-6.718-4.703a21.574 21.574 0 0 0-7.829-1.47c-4.93 0-8.851 1.497-11.765 4.485-2.907 2.992-4.36 6.574-4.36 10.75 0 4.781 1.641 8.594 4.922 11.438 3.29 2.836 7.77 4.699 13.438 5.594l-4.25 13.203c-4.336-.594-8.407-1.672-12.219-3.235-3.805-1.57-7.2-3.664-10.188-6.281-2.98-2.613-5.328-5.75-7.046-9.406-1.72-3.656-2.578-7.875-2.578-12.656 0-4.176.816-8.02 2.453-11.532a28.58 28.58 0 0 1 6.828-9.187c2.914-2.614 6.46-4.664 10.64-6.156 4.188-1.5 8.743-2.25 13.672-2.25zm0 0"/></symbol></defs><use xlink:href="#4f245582a" x="52.02725" y="190"/></svg>