<?xml version='1.0' encoding='UTF-8'?>
<svg xmlns="http://www.w3.org/2000/svg" xmlns:xlink="http://www.w3.org/1999/xlink" width="250px" height="250px" viewBox="0 0 250 250" y="0px" x="0px" enable-background="new 0 0 250 250"><defs><symbol overflow="visible" id="886db692a"><path d="M77.5-80.188c3.29 1.793 6.504 5.043 9.64 9.75 3.133 4.7 4.704 10.704 4.704 18.016 0 5.531-1.012 10.574-3.031 15.125-2.012 4.555-4.81 8.438-8.391 11.656-3.586 3.211-7.844 5.672-12.781 7.391-4.93 1.71-10.227 2.563-15.891 2.563-6.273 0-11.914-.852-16.922-2.563-5-1.719-9.406-4.11-13.219-7.172a52.226 52.226 0 0 1-9.968-10.64 68.227 68.227 0 0 1-7.157-13L17.47-56c3.883 7.762 8.437 13.922 13.656 18.484 5.227 4.555 11.879 6.828 19.953 6.828 2.977 0 5.848-.445 8.61-1.343 2.769-.895 5.195-2.239 7.28-4.032 2.094-1.789 3.774-4.101 5.048-6.937 1.27-2.844 1.906-6.207 1.906-10.094 0-9.406-2.992-16.27-8.969-20.593-5.969-4.333-13.883-6.5-23.734-6.5h-7.39V-94.75h82.421v-32.031H-2.234v-14.344H153.89v14.344h-20.157V0H116.25v-80.188zm0 0"/></symbol></defs><use xlink:href="#886db692a" x="49.34525" y="190"/></svg>