<?xml version='1.0' encoding='UTF-8'?>
<svg xmlns="http://www.w3.org/2000/svg" xmlns:xlink="http://www.w3.org/1999/xlink" width="250px" height="250px" viewBox="0 0 250 250" y="0px" x="0px" enable-background="new 0 0 250 250"><defs><symbol overflow="visible" id="4a2f6e16a"><path d="M76.156-78.844c-3.73-4.031-7.574-6.867-11.531-8.515-3.96-1.645-8.402-2.47-13.328-2.47-3.137 0-6.164.493-9.078 1.47a21.584 21.584 0 0 0-7.719 4.484c-2.242 2.012-4.074 4.512-5.5 7.5-1.418 2.98-2.125 6.484-2.125 10.516 0 8.218 2.203 14.57 6.61 19.046 4.406 4.481 10.117 6.72 17.14 6.72 3.438 0 6.68-.485 9.734-1.454a22.051 22.051 0 0 0 8.172-4.703c2.395-2.164 4.266-4.89 5.61-8.172 1.343-3.289 2.015-7.328 2.015-12.11zM92.953 0H75.937v-36.734c-2.542 3.73-6.167 6.64-10.874 8.734-4.7 2.094-9.887 3.14-15.563 3.14-5.23 0-10.273-.894-15.125-2.687-4.844-1.789-9.172-4.476-12.984-8.062-3.805-3.582-6.828-7.989-9.078-13.22-2.243-5.226-3.36-11.35-3.36-18.374 0-6.27 1.082-11.754 3.25-16.453 2.164-4.707 5.04-8.63 8.625-11.766 3.582-3.133 7.766-5.484 12.547-7.047 4.781-1.57 9.785-2.36 15.016-2.36 11.488 0 20.672 3.884 27.547 11.641v-33.593H-2.234v-14.344h175.156v14.344H92.953v36.515c2.54-4.03 6.461-7.316 11.766-9.859 5.3-2.54 11.16-3.813 17.578-3.813 5.082 0 9.937.79 14.562 2.36 4.633 1.562 8.707 3.914 12.22 7.047 3.507 3.136 6.304 7.023 8.39 11.656 2.094 4.625 3.14 9.93 3.14 15.906 0 6.867-1.12 12.805-3.359 17.813-2.242 5-5.266 9.105-9.078 12.312-3.805 3.211-8.246 5.602-13.328 7.172-5.074 1.563-10.375 2.344-15.906 2.344-1.637 0-3.575-.145-5.813-.438-2.242-.3-3.96-.675-5.156-1.125l3.36-14.343c2.237.449 4.628.672 7.171.672 3.281 0 6.375-.446 9.281-1.344a20.407 20.407 0 0 0 7.735-4.36c2.238-2.02 3.992-4.562 5.265-7.625 1.27-3.062 1.906-6.832 1.906-11.312 0-6.863-2.054-12.195-6.156-16-4.105-3.813-9.594-5.719-16.469-5.719-8.96 0-15.718 2.652-20.28 7.953-4.555 5.293-6.829 12.344-6.829 21.156zm0 0"/></symbol></defs><use xlink:href="#4a2f6e16a" x="40.964" y="190"/></svg>