<?xml version='1.0' encoding='UTF-8'?>
<svg xmlns="http://www.w3.org/2000/svg" xmlns:xlink="http://www.w3.org/1999/xlink" width="250px" height="250px" viewBox="0 0 250 250" y="0px" x="0px" enable-background="new 0 0 250 250"><defs><symbol overflow="visible" id="f5e26215a"><path d="M58.063-84.375c-9.637 0-16.59 2.453-20.86 7.36-4.262 4.898-6.39 11.136-6.39 18.718 0 8.531 1.773 16.867 5.328 25 3.55 8.137 8.644 17.184 15.28 27.14L35.548 2.142C28.44-7.816 22.71-17.656 18.359-27.375c-4.343-9.719-6.515-20.266-6.515-31.64 0-13.27 3.75-23.5 11.25-30.688 7.508-7.188 17.984-10.781 31.422-10.781h40.047v-33.657H-2.376v-15.172h136.75v15.172h-21.328V0H94.563v-84.375zm0 0"/></symbol></defs><use xlink:href="#f5e26215a" x="58.9955" y="200"/></svg>