<?xml version='1.0' encoding='UTF-8'?>
<svg xmlns="http://www.w3.org/2000/svg" xmlns:xlink="http://www.w3.org/1999/xlink" width="250px" height="250px" viewBox="0 0 250 250" y="0px" x="0px" enable-background="new 0 0 250 250"><defs><symbol overflow="visible" id="310fd168a"><path d="M77.5-79.156C85.875-76.79 92.785-72.406 98.234-66c5.446 6.398 8.172 14.809 8.172 25.234 0 5.844-1.148 11.258-3.437 16.235-2.281 4.98-5.516 9.289-9.703 12.922-4.188 3.636-9.211 6.48-15.063 8.53C72.36-1.022 65.883 0 58.781 0 52.613 0 46.844-.906 41.47-2.719c-5.367-1.82-10.262-4.27-14.688-7.344-4.43-3.082-8.304-6.597-11.625-10.546-3.312-3.957-5.996-8.149-8.047-12.578l13.516-9c4.57 8.374 9.898 14.855 15.984 19.437 6.082 4.586 13.157 6.875 21.22 6.875 8.687 0 15.718-2.21 21.093-6.64 5.375-4.426 8.062-10.665 8.062-18.72 0-9.476-3.086-16.742-9.25-21.796-6.156-5.063-14.93-7.594-26.312-7.594H38.625v-15.406H50c9.645 0 17.191-2.25 22.64-6.75 5.446-4.508 8.172-10.867 8.172-19.078 0-6.008-1.976-11.223-5.921-15.641-3.95-4.426-9.637-6.64-17.063-6.64H-2.375v-15.173H123v15.172H87.453c3.477 2.211 6.399 5.45 8.766 9.72 2.375 4.26 3.562 8.921 3.562 13.984 0 8.374-2.094 15.011-6.281 19.906-4.188 4.898-9.523 8.687-16 11.375zm0 0"/></symbol></defs><use xlink:href="#310fd168a" x="64.6835" y="200"/></svg>