<?xml version='1.0' encoding='UTF-8'?>
<svg xmlns="http://www.w3.org/2000/svg" xmlns:xlink="http://www.w3.org/1999/xlink" width="250px" height="250px" viewBox="0 0 250 250" y="0px" x="0px" enable-background="new 0 0 250 250"><defs><symbol overflow="visible" id="ef1b2d6fa"><path d="M142.672-48.344c-1.899 1.262-4.387 2.446-7.469 3.547-3.074 1.106-7.14 1.656-12.203 1.656a42.54 42.54 0 0 1-13.75-2.25 35.75 35.75 0 0 1-11.969-6.859c-3.554-3.082-6.398-6.875-8.531-11.375-2.125-4.508-3.188-9.766-3.188-15.766 0-5.843.985-11.054 2.954-15.64 1.976-4.582 4.703-8.414 8.171-11.5 3.477-3.082 7.547-5.41 12.204-6.985 4.664-1.582 9.687-2.375 15.062-2.375 3.945 0 7.54.438 10.781 1.313 3.239.867 5.883 1.93 7.938 3.187v-22.75H61.625c2.363 3.48 4.531 7.946 6.5 13.391 1.977 5.45 2.969 11.492 2.969 18.125 0 5.688-.871 10.945-2.61 15.766-1.73 4.824-4.18 8.976-7.343 12.453-3.157 3.469-6.993 6.195-11.5 8.172-4.5 1.968-9.512 2.953-15.032 2.953-2.375 0-4.277-.235-5.703-.703 2.532 6.949 6.047 13.109 10.547 18.484A64.103 64.103 0 0 0 55.093-32c5.927 3.637 12.407 6.367 19.438 8.188 7.031 1.812 14.5 2.718 22.406 2.718 10.583 0 19.977-1.379 28.188-4.14 8.219-2.77 14.066-5.735 17.547-8.891zm0-13.75V-97.64c-4.586-2.843-10.031-4.265-16.344-4.265-6.48 0-11.976 1.937-16.484 5.812-4.5 3.867-6.75 9.356-6.75 16.469 0 4.105.629 7.621 1.89 10.547 1.27 2.918 2.97 5.289 5.094 7.11a19.574 19.574 0 0 0 7.234 3.906c2.688.792 5.532 1.187 8.532 1.187 2.687 0 5.687-.43 9-1.297 3.32-.875 5.93-2.18 7.828-3.922zm0 45.5c-4.262 2.688-10.106 5.297-17.531 7.828-7.43 2.524-16.993 3.782-28.688 3.782-10.273 0-20.187-1.422-29.75-4.266-9.555-2.844-18.32-7.188-26.297-13.031-7.98-5.844-14.812-13.188-20.5-22.032-5.687-8.851-9.797-19.203-12.328-31.046-.156-.633-.355-1.625-.594-2.97-.23-1.343-.343-2.882-.343-4.624 0-3.633 1.457-6.477 4.375-8.531 2.925-2.051 6.52-2.446 10.78-1.188l3.095 7.36c.945 2.523 2.129 4.257 3.547 5.203 1.425.949 2.847 1.421 4.265 1.421 4.895 0 9.36-1.972 13.39-5.921 4.032-3.946 6.048-10.188 6.048-18.72 0-5.53-.75-11.14-2.25-16.827-1.5-5.688-3.516-10.348-6.047-13.985H-2.375v-15.172h184.86v15.172h-21.329V0h-18.484zm0 0"/></symbol></defs><use xlink:href="#ef1b2d6fa" x="34.94" y="200"/></svg>