<?xml version='1.0' encoding='UTF-8'?>
<svg xmlns="http://www.w3.org/2000/svg" xmlns:xlink="http://www.w3.org/1999/xlink" width="250px" height="250px" viewBox="0 0 250 250" y="0px" x="0px" enable-background="new 0 0 250 250"><defs><symbol overflow="visible" id="19187067a"><path d="M99.016-141.125h37.625v14.344h-20.157V0H99.016v-32.031c-3.743 2.992-9.196 5.57-16.36 7.734-7.168 2.156-15.008 3.235-23.515 3.235-7.024 0-13.371-.895-19.047-2.688-5.68-1.79-10.496-4.254-14.453-7.39-3.95-3.133-7.008-6.829-9.172-11.079-2.168-4.258-3.25-8.851-3.25-13.781 0-5.969 1.976-10.969 5.937-15 3.957-4.04 8.77-6.734 14.438-8.078-2.688-1.04-5.414-2.531-8.172-4.469-2.762-1.945-5.262-4.3-7.5-7.062-2.242-2.758-4.11-5.93-5.61-9.516-1.492-3.582-2.234-7.613-2.234-12.094 0-4.187.707-8.219 2.125-12.094 1.426-3.882 3.555-7.242 6.39-10.078 2.833-2.843 6.302-5.125 10.407-6.843 4.113-1.72 8.785-2.578 14.016-2.578 5.375 0 10.113.824 14.218 2.468 4.102 1.649 7.5 3.813 10.188 6.5 2.687 2.688 4.738 5.75 6.156 9.188 1.426 3.43 2.14 6.933 2.14 10.515 0 5.68-1.386 10.309-4.156 13.891-2.761 3.586-5.636 6.047-8.624 7.39l-10.75-9.406c1.789-1.195 3.242-2.836 4.359-4.921 1.125-2.094 1.687-4.485 1.687-7.172 0-4.032-1.234-7.317-3.703-9.86-2.46-2.539-6-3.812-10.625-3.812-4.336 0-8.07 1.61-11.203 4.828C29.566-120.993 28-116.63 28-111.11c0 4.336.895 8.218 2.688 11.656 1.789 3.437 4.18 6.351 7.171 8.734 2.989 2.387 6.5 4.215 10.532 5.485 4.03 1.273 8.285 1.906 12.765 1.906H72.36v14.562h-19.5c-7.168 0-12.507 1.309-16.015 3.922-3.512 2.617-5.266 6.086-5.266 10.406 0 5.231 2.313 9.493 6.938 12.782 4.632 3.281 11.582 4.922 20.843 4.922 7.02 0 14.188-1.118 21.5-3.36 7.32-2.238 13.375-5.898 18.157-10.984zm0 0"/></symbol></defs><use xlink:href="#19187067a" x="57.95" y="190"/></svg>