<?xml version='1.0' encoding='UTF-8'?>
<svg xmlns="http://www.w3.org/2000/svg" xmlns:xlink="http://www.w3.org/1999/xlink" width="250px" height="250px" viewBox="0 0 250 250" y="0px" x="0px" enable-background="new 0 0 250 250"><defs><symbol overflow="visible" id="d3a7834fa"><path d="M53.766-105.281c7.906 0 14.359 1.047 19.359 3.14 5.008 2.086 9.531 4.774 13.563 8.063v-32.703H-2.234v-14.344h126.546v14.344h-20.156V0H86.687v-34.047c-2.542 2.543-6.5 5.008-11.874 7.39-5.376 2.387-12.094 3.579-20.157 3.579-5.824 0-11.465-.93-16.922-2.797-5.449-1.863-10.304-4.625-14.562-8.281-4.25-3.657-7.684-8.133-10.297-13.438-2.617-5.3-3.922-11.46-3.922-18.484 0-6.426 1.156-12.063 3.469-16.906 2.32-4.852 5.5-8.922 9.531-12.204 4.031-3.289 8.77-5.796 14.219-7.515 5.457-1.719 11.32-2.578 17.594-2.578zM27.328-65.406c0 4.93.781 9.148 2.344 12.656 1.57 3.512 3.703 6.313 6.39 8.406 2.688 2.086 5.786 3.617 9.297 4.594 3.508.969 7.207 1.453 11.094 1.453 3.727 0 7.61-.598 11.64-1.797L35.392-84c-5.375 4.18-8.063 10.375-8.063 18.594zm59.36-10.75c-2.993-3.883-7.172-7.207-12.547-9.969-5.375-2.758-11.352-4.14-17.922-4.14-3.73 0-7.164.449-10.297 1.343l32.25 43.672c2.539-1.938 4.594-4.176 6.156-6.719 1.57-2.539 2.36-5.379 2.36-8.515zm0 0"/></symbol></defs><use xlink:href="#d3a7834fa" x="64.09625" y="190"/></svg>