<?xml version='1.0' encoding='UTF-8'?>
<svg xmlns="http://www.w3.org/2000/svg" xmlns:xlink="http://www.w3.org/1999/xlink" width="250px" height="250px" viewBox="0 0 250 250" y="0px" x="0px" enable-background="new 0 0 250 250"><defs><symbol overflow="visible" id="f760a29ba"><path d="M79.39 23.219C68.017 21.957 58.22 19.664 50 16.344c-8.21-3.313-14.965-7.34-20.266-12.078-5.293-4.739-9.203-10.07-11.734-16-2.523-5.926-3.781-12.13-3.781-18.61 0-6.156.984-11.406 2.953-15.75 1.976-4.343 4.55-8.097 7.719-11.265a72.364 72.364 0 0 1-9.141-11.72c-2.605-4.187-3.906-9.206-3.906-15.062 0-4.414.828-8.32 2.484-11.718 1.664-3.407 3.879-6.211 6.64-8.422 2.77-2.207 6.009-3.864 9.72-4.969 3.718-1.113 7.628-1.672 11.734-1.672h32.937v-23.219H-2.375v-15.172h124.672v15.172H93.609v38.391H48.83c-4.907 0-9.138.836-12.688 2.5-3.555 1.656-5.328 5.328-5.328 11.016 0 3.156.628 6.078 1.89 8.765 1.27 2.688 2.77 5.137 4.5 7.344 4.113-2.363 8.578-4.02 13.39-4.969a76.793 76.793 0 0 1 14.813-1.422c6.633 0 12.598.95 17.89 2.844 5.302 1.899 9.766 4.508 13.391 7.828 3.633 3.313 6.442 7.14 8.422 11.485 1.977 4.343 2.97 8.964 2.97 13.859 0 5.063-1.032 9.844-3.095 14.344-2.054 4.5-4.656 8.25-7.812 11.25L82.953-21.094c2.05-2.05 3.672-4.3 4.86-6.75 1.187-2.445 1.78-5.254 1.78-8.422 0-2.363-.437-4.77-1.312-7.218-.867-2.446-2.246-4.618-4.14-6.516-1.899-1.895-4.43-3.473-7.594-4.734-3.156-1.27-7.027-1.907-11.61-1.907-9.48 0-17.14 2.493-22.984 7.47-5.844 4.968-8.766 11.405-8.766 19.312 0 4.261.665 8.449 2 12.562 1.344 4.106 3.91 7.856 7.704 11.25 3.789 3.399 9.004 6.36 15.64 8.89 6.645 2.532 15.258 4.348 25.844 5.454zm0 0"/></symbol></defs><use xlink:href="#f760a29ba" x="66.224" y="200"/></svg>