<?xml version='1.0' encoding='UTF-8'?>
<svg xmlns="http://www.w3.org/2000/svg" xmlns:xlink="http://www.w3.org/1999/xlink" width="250px" height="250px" viewBox="0 0 250 250" y="0px" x="0px" enable-background="new 0 0 250 250"><defs><symbol overflow="visible" id="4ee1db38a"><path d="M35.547-71.094c2.687-1.738 4.816-4.781 6.39-9.125 1.583-4.344 2.376-9.125 2.376-14.344 0-7.582-1.543-14.726-4.626-21.437-3.074-6.719-7.218-12.766-12.437-18.14H-2.375v-15.173h137.703v15.172H114V0H95.516v-134.14H46.453c1.895 1.742 3.828 3.952 5.797 6.64 1.977 2.68 3.797 5.836 5.453 9.469 1.664 3.636 3.008 7.668 4.031 12.094 1.032 4.43 1.547 9.246 1.547 14.453 0 7.273-.914 13.671-2.734 19.203-1.813 5.531-4.262 10.156-7.344 13.875-3.086 3.71-6.562 6.511-10.437 8.406-3.868 1.898-7.774 2.844-11.72 2.844-2.843 0-5.53-.473-8.062-1.422a23.172 23.172 0 0 1-6.875-4.031 19.357 19.357 0 0 1-4.859-6.157c-1.18-2.375-1.766-5.062-1.766-8.062 0-4.27 1.38-7.629 4.141-10.078 2.77-2.446 5.89-3.672 9.36-3.672zm0 0"/></symbol></defs><use xlink:href="#4ee1db38a" x="58.5215" y="200"/></svg>