<?xml version='1.0' encoding='UTF-8'?>
<svg xmlns="http://www.w3.org/2000/svg" xmlns:xlink="http://www.w3.org/1999/xlink" width="250px" height="250px" viewBox="0 0 250 250" y="0px" x="0px" enable-background="new 0 0 250 250"><defs><symbol overflow="visible" id="f5169cc3a"><path d="M95.281 0v-34.844c-3.168 2.219-7.836 4.399-14 6.532-6.156 2.125-13.027 3.187-20.61 3.187-7.273 0-13.905-.867-19.905-2.61-6-1.738-11.137-4.265-15.407-7.578-4.273-3.32-7.593-7.312-9.968-11.968-2.368-4.657-3.547-9.91-3.547-15.766 0-7.258 1.738-13.18 5.219-17.766 3.476-4.582 8.769-8.14 15.875-10.671-8.055-2.844-13.586-6.395-16.594-10.657-3-4.27-4.5-9.406-4.5-15.406 0-3.476.789-6.797 2.375-9.953 1.582-3.164 3.398-5.379 5.453-6.64H-2.375v-15.173h137.469v15.172h-21.328V0zM40.047-134.14c-3 1.585-5.293 3.874-6.875 6.874-1.574 3-2.36 6.32-2.36 9.954 0 5.843 2.094 10.624 6.282 14.343 4.187 3.711 10.781 5.563 19.781 5.563h12.563v15.64H58.78c-10.273 0-17.5 1.782-21.687 5.344-4.188 3.555-6.282 8.25-6.282 14.094 0 4.105.786 7.543 2.36 10.312 1.582 2.762 3.676 4.934 6.281 6.516 2.613 1.574 5.656 2.68 9.125 3.313 3.477.636 7.192.953 11.14.953 6.165 0 12.524-1.024 19.079-3.078 6.562-2.063 12.055-5.145 16.484-9.25v-80.579zm0 0"/></symbol></defs><use xlink:href="#f5169cc3a" x="58.64" y="200"/></svg>