<?xml version='1.0' encoding='UTF-8'?>
<svg xmlns="http://www.w3.org/2000/svg" xmlns:xlink="http://www.w3.org/1999/xlink" width="250px" height="250px" viewBox="0 0 250 250" y="0px" x="0px" enable-background="new 0 0 250 250"><defs><symbol overflow="visible" id="3e5da85ba"><path d="M71.578-66.125c0-9.477-2.492-16.547-7.469-21.203-4.98-4.664-11.418-7-19.312-7-3.637 0-7.274.516-10.906 1.547-3.637 1.023-7.032 2.402-10.188 4.14l-6.64-14.921c3.945-2.22 8.445-3.88 13.5-4.985 5.062-1.101 9.644-1.656 13.75-1.656 13.75 0 24.374 3.36 31.874 10.078 7.508 6.71 12.055 15.043 13.641 25 2.05.469 3.945.746 5.688.828 1.738.074 3.71.11 5.921.11 2.688 0 5.649-.352 8.891-1.063 3.238-.707 5.961-1.773 8.172-3.203v-55.688H-2.375v-15.172h160.688v15.172h-21.329V0H118.5v-60.438c-3.48 1.586-7.746 2.376-12.797 2.376-2.844 0-5.531-.274-8.062-.829-2.524-.55-4.891-1.3-7.11-2.25-1.261 12-5.804 21.602-13.625 28.797-7.824 7.188-18.37 10.782-31.64 10.782-8.375 0-16.356-1.817-23.938-5.454-7.586-3.632-13.902-9.007-18.953-16.125l11.844-10.89c5.05 6.156 9.867 10.383 14.453 12.672 4.582 2.293 10.035 3.437 16.36 3.437 8.53 0 15.085-2.68 19.671-8.047 4.582-5.375 6.875-12.093 6.875-20.156zm0 0"/></symbol></defs><use xlink:href="#3e5da85ba" x="47.027" y="200"/></svg>