<?xml version='1.0' encoding='UTF-8'?>
<svg xmlns="http://www.w3.org/2000/svg" xmlns:xlink="http://www.w3.org/1999/xlink" width="250px" height="250px" viewBox="0 0 250 250" y="0px" x="0px" enable-background="new 0 0 250 250"><defs><symbol overflow="visible" id="ad1755d1a"><path d="M33.594-44.36c-6.274-4.32-11.574-9.28-15.907-14.874-4.324-5.602-6.484-11.77-6.484-18.5 0-3.875.633-7.489 1.906-10.844a23.18 23.18 0 0 1 5.813-8.75c2.613-2.469 5.937-4.41 9.969-5.828 4.03-1.414 8.882-2.125 14.562-2.125h31.14v-21.5H-2.233v-14.344h118.046v14.344h-23.75V-90.5H46.594c-5.68 0-10.012 1.234-13 3.703-2.98 2.461-4.469 5.703-4.469 9.734 0 2.993.816 5.793 2.453 8.407a32.035 32.035 0 0 0 6.047 7.062c4.04-1.5 7.96-2.582 11.766-3.25 3.812-.676 7.879-1.015 12.203-1.015 6.125 0 11.687.789 16.687 2.359 5.008 1.563 9.305 3.805 12.89 6.719 3.583 2.906 6.345 6.383 8.282 10.422 1.945 4.03 2.922 8.511 2.922 13.437 0 4.774-1.012 9.25-3.031 13.438-2.024 4.18-4.899 7.797-8.625 10.859-3.73 3.063-8.324 5.453-13.781 7.172-5.45 1.719-11.606 2.578-18.47 2.578C47.864 1.125 38.04-.738 29-4.469 19.969-8.207 12.39-12.69 6.266-17.922l9.421-12.547c5.82 5.086 12.317 9.008 19.485 11.766 7.164 2.762 14.781 4.14 22.844 4.14 8.812 0 15.422-1.601 19.828-4.812 4.406-3.207 6.61-7.8 6.61-13.781 0-5.82-1.981-10.188-5.938-13.094-3.961-2.914-9.746-4.375-17.36-4.375-3.886 0-8.148.484-12.781 1.453-4.625.969-9.555 2.574-14.781 4.813zm0 0"/></symbol></defs><use xlink:href="#ad1755d1a" x="69.46025" y="190"/></svg>