<?xml version='1.0' encoding='UTF-8'?>
<svg xmlns="http://www.w3.org/2000/svg" xmlns:xlink="http://www.w3.org/1999/xlink" width="250px" height="250px" viewBox="0 0 250 250" y="0px" x="0px" enable-background="new 0 0 250 250"><defs><symbol overflow="visible" id="f760a29ba"><path d="M75.047 21.953c-10.762-1.2-20.027-3.367-27.797-6.5-7.762-3.137-14.14-6.945-19.14-11.422-5-4.476-8.7-9.515-11.094-15.11-2.387-5.6-3.578-11.468-3.578-17.593 0-5.82.93-10.785 2.796-14.89 1.875-4.114 4.301-7.66 7.282-10.641a68.548 68.548 0 0 1-8.625-11.094c-2.461-3.957-3.688-8.695-3.688-14.219 0-4.187.781-7.882 2.344-11.093 1.57-3.207 3.664-5.86 6.281-7.954 2.613-2.093 5.672-3.66 9.172-4.703 3.508-1.039 7.207-1.562 11.094-1.562h31.14v-21.953H-2.234v-14.344h117.812v14.344H88.484V-90.5H46.141c-4.625 0-8.621.79-11.985 2.36-3.355 1.562-5.031 5.03-5.031 10.406 0 2.992.594 5.757 1.781 8.296 1.196 2.543 2.617 4.856 4.266 6.938 3.875-2.238 8.086-3.805 12.64-4.703a72.678 72.678 0 0 1 14.016-1.344c6.27 0 11.906.899 16.906 2.688 5 1.793 9.22 4.257 12.657 7.39 3.437 3.137 6.086 6.762 7.953 10.875 1.863 4.106 2.797 8.469 2.797 13.094 0 4.781-.977 9.305-2.922 13.563-1.938 4.25-4.399 7.796-7.375 10.64l-13.438-9.64c1.938-1.938 3.461-4.063 4.578-6.375 1.125-2.32 1.688-4.973 1.688-7.954 0-2.238-.414-4.515-1.234-6.828-.825-2.32-2.133-4.379-3.922-6.172-1.793-1.789-4.184-3.28-7.172-4.468-2.98-1.196-6.637-1.797-10.969-1.797-8.96 0-16.203 2.355-21.734 7.062-5.524 4.7-8.282 10.782-8.282 18.25 0 4.032.633 7.992 1.907 11.875 1.27 3.875 3.695 7.422 7.28 10.64C44.13-2.491 49.056.302 55.329 2.689c6.27 2.382 14.41 4.101 24.422 5.156zm0 0"/></symbol></defs><use xlink:href="#f760a29ba" x="69.572" y="190"/></svg>