<?xml version='1.0' encoding='UTF-8'?>
<svg xmlns="http://www.w3.org/2000/svg" xmlns:xlink="http://www.w3.org/1999/xlink" width="250px" height="250px" viewBox="0 0 250 250" y="0px" x="0px" enable-background="new 0 0 250 250"><defs><symbol overflow="visible" id="886db692a"><path d="M82-84.844c3.477 1.899 6.875 5.336 10.188 10.313 3.32 4.969 4.984 11.328 4.984 19.078 0 5.844-1.07 11.18-3.203 16-2.137 4.812-5.102 8.918-8.89 12.312-3.794 3.399-8.298 6.008-13.516 7.828-5.211 1.813-10.813 2.72-16.813 2.72-6.637 0-12.605-.907-17.906-2.72-5.293-1.82-9.953-4.351-13.985-7.593a54.991 54.991 0 0 1-10.53-11.25c-3-4.27-5.532-8.852-7.595-13.75l13.75-7.344c4.102 8.219 8.922 14.742 14.453 19.563C38.47-34.876 45.5-32.47 54.032-32.47c3.164 0 6.207-.472 9.125-1.422 2.926-.945 5.492-2.367 7.703-4.265 2.22-1.895 3.993-4.344 5.329-7.344 1.343-3 2.015-6.555 2.015-10.672 0-9.945-3.164-17.21-9.484-21.797-6.313-4.582-14.684-6.875-25.11-6.875h-7.828v-15.406H123v-33.89H-2.375v-15.173h165.188v15.172h-21.329V0H123v-84.844zm0 0"/></symbol></defs><use xlink:href="#886db692a" x="44.7755" y="200"/></svg>