<?xml version='1.0' encoding='UTF-8'?>
<svg xmlns="http://www.w3.org/2000/svg" xmlns:xlink="http://www.w3.org/1999/xlink" width="250px" height="250px" viewBox="0 0 250 250" y="0px" x="0px" enable-background="new 0 0 250 250"><defs><symbol overflow="visible" id="157e4356a"><path d="M6.719-86.906v-14.563h74.14v14.563h-7.39c-8.512 0-15.008 2.09-19.485 6.265-4.48 4.18-6.718 9.555-6.718 16.125 0 3.743.672 6.918 2.015 9.532a18.114 18.114 0 0 0 5.594 6.484c2.395 1.719 5.117 2.992 8.172 3.813 3.062.824 6.312 1.234 9.75 1.234 6.57 0 12.656-1.453 18.25-4.36 5.601-2.914 10.348-6.765 14.234-11.546v-67.422H-2.234v-14.344h145.14v14.344H122.75V0h-17.469v-40.984c-1.344 1.492-3.136 2.984-5.375 4.484-2.242 1.492-4.82 2.871-7.734 4.14-2.906 1.262-6.117 2.266-9.625 3.016a51.862 51.862 0 0 1-10.86 1.125c-6.124 0-11.804-.894-17.03-2.687-5.231-1.79-9.75-4.29-13.563-7.5a34.772 34.772 0 0 1-8.953-11.547c-2.168-4.477-3.25-9.477-3.25-15 0-5.082 1.156-9.602 3.468-13.563 2.32-3.957 5.196-6.754 8.625-8.39zm0 0"/></symbol></defs><use xlink:href="#157e4356a" x="54.821" y="190"/></svg>