<?xml version='1.0' encoding='UTF-8'?>
<svg xmlns="http://www.w3.org/2000/svg" xmlns:xlink="http://www.w3.org/1999/xlink" width="250px" height="250px" viewBox="0 0 250 250" y="0px" x="0px" enable-background="new 0 0 250 250"><defs><symbol overflow="visible" id="a52fe830a"><path d="M125.61-149.313v15.172h-18.954v39.344c0 6.48-.636 12.168-1.906 17.063-1.262 4.898-3.156 9.28-5.688 13.156-2.523 3.867-5.683 7.262-9.484 10.187-3.793 2.93-8.215 5.653-13.266 8.172l-11.14-15.64c15.32-6.157 22.984-17.211 22.984-33.172v-39.11H35.078v46.453c0 11.22 1.18 20.743 3.547 28.563C41-51.312 44.754-44.641 49.891-39.109 55.023-33.58 61.5-28.875 69.313-25c7.82 3.867 17.187 7.383 28.093 10.547L89.594 2.14c-12.336-3.32-23.086-7.473-32.25-12.454-9.157-4.976-16.742-11.019-22.75-18.124-6-7.114-10.5-15.41-13.5-24.891-3-9.477-4.5-20.379-4.5-32.703v-48.11H-2.375v-15.172zm0 0"/></symbol></defs><use xlink:href="#a52fe830a" x="63.38" y="200"/></svg>