<?xml version='1.0' encoding='UTF-8'?>
<svg xmlns="http://www.w3.org/2000/svg" xmlns:xlink="http://www.w3.org/1999/xlink" width="250px" height="250px" viewBox="0 0 250 250" y="0px" x="0px" enable-background="new 0 0 250 250"><defs><symbol overflow="visible" id="19187067a"><path d="M104.75-149.313h39.813v15.172h-21.329V0H104.75v-33.89c-3.95 3.156-9.715 5.882-17.297 8.171-7.586 2.293-15.883 3.438-24.89 3.438-7.43 0-14.141-.946-20.141-2.844-6-1.895-11.094-4.5-15.281-7.813-4.188-3.32-7.43-7.234-9.72-11.734-2.292-4.5-3.437-9.36-3.437-14.578 0-6.32 2.094-11.613 6.282-15.875 4.187-4.27 9.28-7.113 15.28-8.531-2.843-1.102-5.73-2.68-8.655-4.735-2.918-2.062-5.563-4.55-7.938-7.468-2.367-2.926-4.34-6.286-5.922-10.079-1.574-3.789-2.36-8.054-2.36-12.796a37 37 0 0 1 2.25-12.797c1.5-4.114 3.75-7.672 6.75-10.672 3-3 6.673-5.406 11.017-7.219 4.343-1.82 9.28-2.734 14.812-2.734 5.688 0 10.703.87 15.047 2.61 4.351 1.741 7.953 4.03 10.797 6.874 2.844 2.844 5.015 6.086 6.515 9.719 1.5 3.637 2.25 7.351 2.25 11.14 0 6-1.464 10.899-4.39 14.688-2.918 3.793-5.961 6.402-9.125 7.828l-11.375-9.953c1.894-1.27 3.437-3.008 4.625-5.219 1.187-2.207 1.781-4.738 1.781-7.594 0-4.257-1.309-7.734-3.922-10.421-2.605-2.688-6.355-4.032-11.25-4.032-4.586 0-8.539 1.7-11.86 5.094-3.312 3.399-4.968 8.024-4.968 13.875 0 4.586.945 8.695 2.844 12.328a28.81 28.81 0 0 0 7.578 9.235c3.164 2.53 6.879 4.468 11.14 5.812 4.27 1.344 8.774 2.016 13.516 2.016h11.844v15.39h-20.61c-7.585 0-13.234 1.387-16.953 4.157-3.71 2.761-5.562 6.433-5.562 11.015 0 5.532 2.445 10.04 7.344 13.516 4.894 3.469 12.242 5.203 22.047 5.203 7.414 0 14.992-1.18 22.734-3.547 7.75-2.375 14.148-6.242 19.203-11.61zm0 0"/></symbol></defs><use xlink:href="#19187067a" x="53.9" y="200"/></svg>