<?xml version='1.0' encoding='UTF-8'?>
<svg xmlns="http://www.w3.org/2000/svg" xmlns:xlink="http://www.w3.org/1999/xlink" width="250px" height="250px" viewBox="0 0 250 250" y="0px" x="0px" enable-background="new 0 0 250 250"><defs><symbol overflow="visible" id="4008422aa"><path d="M87.922-105.703c4.906 1.742 9.726 4.152 14.469 7.234 4.738 3.074 9.004 6.79 12.796 11.14 3.79 4.345 6.833 9.438 9.126 15.282 2.289 5.844 3.437 12.402 3.437 19.672 0 8.055-1.422 15.36-4.266 21.922-2.843 6.555-6.875 12.2-12.093 16.937-5.22 4.743-11.465 8.375-18.735 10.907-7.261 2.53-15.234 3.796-23.922 3.796-8.062 0-15.687-1.222-22.875-3.671-7.187-2.446-13.468-6-18.843-10.657-5.375-4.664-9.641-10.316-12.797-16.953-3.156-6.633-4.735-14.218-4.735-22.75 0-7.27 1.18-13.672 3.547-19.203 2.375-5.531 5.57-10.348 9.594-14.453 4.031-4.113 8.648-7.508 13.86-10.188 5.218-2.687 10.753-4.742 16.609-6.171l16.578-4.266v-27.016H-2.375v-15.172h144.813v15.172H87.922zm20.39 52.86c0-5.376-.835-10.235-2.5-14.579-1.656-4.344-3.828-8.094-6.515-11.25-2.68-3.164-5.719-5.816-9.125-7.953-3.399-2.133-6.75-3.754-10.063-4.86l-13.28 3.079c-11.845 2.687-21.126 6.761-27.845 12.219-6.718 5.449-10.078 13.07-10.078 22.859 0 6.793 1.145 12.601 3.438 17.422 2.289 4.824 5.289 8.734 9 11.734 3.718 3 7.945 5.215 12.687 6.64 4.739 1.419 9.477 2.126 14.219 2.126 5.063 0 10-.707 14.813-2.125 4.82-1.426 9.085-3.64 12.796-6.64 3.72-3 6.723-6.868 9.016-11.61 2.29-4.739 3.438-10.426 3.438-17.063zm0 0"/></symbol></defs><use xlink:href="#4008422aa" x="56.1515" y="200"/></svg>