<?xml version='1.0' encoding='UTF-8'?>
<svg xmlns="http://www.w3.org/2000/svg" xmlns:xlink="http://www.w3.org/1999/xlink" width="250px" height="250px" viewBox="0 0 250 250" y="0px" x="0px" enable-background="new 0 0 250 250"><defs><symbol overflow="visible" id="157e4356a"><path d="M7.11-91.953v-15.406h78.453v15.406h-7.829c-9 0-15.875 2.215-20.625 6.64C52.367-80.894 50-75.207 50-68.25c0 3.95.707 7.309 2.125 10.078a19.217 19.217 0 0 0 5.938 6.875c2.53 1.813 5.414 3.152 8.656 4.016 3.238.867 6.676 1.297 10.312 1.297 6.946 0 13.383-1.536 19.313-4.61 5.926-3.082 10.941-7.156 15.047-12.218v-71.329H-2.375v-15.172h153.578v15.172h-21.328V0h-18.484v-43.375c-1.43 1.586-3.329 3.168-5.704 4.75-2.367 1.574-5.09 3.031-8.171 4.375-3.075 1.344-6.47 2.414-10.188 3.203-3.71.793-7.539 1.188-11.484 1.188-6.48 0-12.485-.946-18.016-2.844-5.531-1.895-10.312-4.54-14.344-7.938a36.618 36.618 0 0 1-9.468-12.203c-2.293-4.75-3.438-10.047-3.438-15.89 0-5.364 1.223-10.141 3.672-14.329 2.445-4.187 5.488-7.148 9.125-8.89zm0 0"/></symbol></defs><use xlink:href="#157e4356a" x="50.582" y="200"/></svg>