<?xml version='1.0' encoding='UTF-8'?>
<svg xmlns="http://www.w3.org/2000/svg" xmlns:xlink="http://www.w3.org/1999/xlink" width="250px" height="250px" viewBox="0 0 250 250" y="0px" x="0px" enable-background="new 0 0 250 250"><defs><symbol overflow="visible" id="156d504ca"><path d="M9.484-141.484c3.633-3 8.61-5.407 14.922-7.22 6.32-1.82 12.485-2.733 18.485-2.733 6.164 0 11.851.828 17.062 2.484 5.219 1.656 9.8 4.07 13.75 7.234 3.945 3.156 7.024 7.106 9.234 11.844 2.22 4.742 3.329 10.195 3.329 16.36 0 7.585-1.743 13.945-5.22 19.078-3.468 5.136-7.495 9.124-12.077 11.968a93.009 93.009 0 0 0 13.984 2.719c4.738.555 9.082.828 13.031.828 4.739 0 9.676-.629 14.813-1.89 5.133-1.27 8.969-2.77 11.5-4.5v-48.829h-21.813v-15.172h61.625v15.172h-21.328V0h-18.484v-66.594c-5.688 2.524-12.563 3.781-20.625 3.781-3.48 0-6.684-.273-9.61-.828-2.917-.55-6.507-1.695-10.765-3.437l-.484.484c2.843 3.313 5.015 6.75 6.515 10.313 1.508 3.554 2.266 7.62 2.266 12.203 0 12.793-4.153 22.789-12.453 29.984C68.848-6.906 57.594-3.313 43.375-3.313a63.07 63.07 0 0 1-10.906-.953 71.095 71.095 0 0 1-10.672-2.718c-3.469-1.188-6.668-2.57-9.594-4.157-2.918-1.582-5.406-3.32-7.469-5.218l7.829-13.5c4.101 3.48 8.566 6.125 13.39 7.937 4.82 1.813 10.235 2.719 16.235 2.719 3.789 0 7.382-.473 10.78-1.422 3.395-.945 6.395-2.445 9-4.5 2.614-2.05 4.708-4.734 6.282-8.047 1.582-3.32 2.375-7.273 2.375-11.86 0-8.05-2.492-14.523-7.469-19.421-4.98-4.906-13.074-7.36-24.281-7.36H24.172v-15.406h12.562c9.32.156 16.75-1.972 22.282-6.39 5.53-4.426 8.297-10.75 8.297-18.97 0-7.737-2.532-13.503-7.594-17.296-5.055-3.79-10.899-5.688-17.532-5.688-3.636 0-7.71.516-12.218 1.547-4.5 1.024-8.805 2.953-12.907 5.797zm0 0"/></symbol></defs><use xlink:href="#156d504ca" x="45.131" y="200"/></svg>