<?xml version='1.0' encoding='UTF-8'?>
<svg xmlns="http://www.w3.org/2000/svg" xmlns:xlink="http://www.w3.org/1999/xlink" width="250px" height="250px" viewBox="0 0 250 250" y="0px" x="0px" enable-background="new 0 0 250 250"><defs><symbol overflow="visible" id="6a20255aa"><path d="M44.797-134.14v58.78h49.062v-58.78zm0 91.25c-.793.949-2.258 1.898-4.39 2.843-2.137.95-4.626 1.422-7.47 1.422-3.156 0-6.12-.594-8.89-1.781a26.062 26.062 0 0 1-7.469-4.86c-2.21-2.05-3.945-4.5-5.203-7.343-1.262-2.844-1.89-5.926-1.89-9.25 0-4.102 1.222-7.38 3.671-9.828 2.446-2.446 5.961-3.672 10.547-3.672h2.844v-58.782H-2.375v-15.172h136.047v15.172h-21.328V0H93.859v-59.969H44.797zm0 0"/></symbol></defs><use xlink:href="#6a20255aa" x="59.351" y="200"/></svg>