<?xml version='1.0' encoding='UTF-8'?>
<svg xmlns="http://www.w3.org/2000/svg" xmlns:xlink="http://www.w3.org/1999/xlink" width="250px" height="250px" viewBox="0 0 250 250" y="0px" x="0px" enable-background="new 0 0 250 250"><defs><symbol overflow="visible" id="215d845da"><path d="M123.484-134.14h-21.343V0H83.656v-57.11c-2.844 2.524-6.636 4.731-11.375 6.626-4.742 1.898-10.43 2.843-17.062 2.843-5.532 0-10.746-.785-15.64-2.359-4.9-1.582-9.243-4.031-13.032-7.344-3.793-3.32-6.797-7.43-9.016-12.328-2.21-4.906-3.312-10.676-3.312-17.312v-47.157H-2.375v-15.172h125.86zm-90.78 45.265c0 9.012 2.05 15.492 6.155 19.438 4.114 3.949 9.961 5.921 17.547 5.921 5.844 0 11.29-1.379 16.344-4.14 5.063-2.77 8.695-6.207 10.906-10.313v-56.172H32.703zm0 0"/></symbol></defs><use xlink:href="#215d845da" x="64.4465" y="200"/></svg>