<?xml version='1.0' encoding='UTF-8'?>
<svg xmlns="http://www.w3.org/2000/svg" xmlns:xlink="http://www.w3.org/1999/xlink" width="250px" height="250px" viewBox="0 0 250 250" y="0px" x="0px" enable-background="new 0 0 250 250"><defs><symbol overflow="visible" id="471bf42ba"><path d="M109.25-77.266c0-3.156 1.223-6.035 3.672-8.64 2.457-2.614 5.582-3.922 9.375-3.922 3.945 0 7.066 1.308 9.36 3.922 2.288 2.605 3.437 5.484 3.437 8.64 0 3.637-1.188 6.68-3.563 9.125-2.367 2.45-5.445 3.672-9.234 3.672-3.793 0-6.918-1.222-9.375-3.672-2.45-2.445-3.672-5.488-3.672-9.125zM35.547-46.922C28.91-51.504 23.3-56.758 18.719-62.688c-4.586-5.925-6.875-12.44-6.875-19.546 0-4.114.672-7.946 2.015-11.5a24.412 24.412 0 0 1 6.157-9.235c2.77-2.613 6.285-4.672 10.547-6.172 4.269-1.5 9.41-2.25 15.421-2.25h32.938v-22.75H-2.375v-15.172h149.313v15.172H97.406v38.391h-48.11c-6 0-10.585 1.309-13.75 3.922-3.155 2.605-4.733 6.039-4.733 10.297 0 3.168.867 6.133 2.609 8.89a34.094 34.094 0 0 0 6.39 7.47c4.27-1.583 8.415-2.727 12.438-3.438 4.031-.707 8.336-1.063 12.922-1.063 6.476 0 12.363.828 17.656 2.484 5.29 1.657 9.832 4.028 13.625 7.11 3.79 3.086 6.711 6.762 8.766 11.031 2.062 4.262 3.094 8.996 3.094 14.203 0 5.063-1.07 9.809-3.204 14.235-2.136 4.418-5.18 8.246-9.125 11.484-3.949 3.242-8.808 5.773-14.578 7.594C75.645.28 69.13 1.187 61.86 1.187c-11.218 0-21.609-1.972-31.172-5.921-9.554-3.957-17.57-8.696-24.046-14.22l9.953-13.28c6.156 5.375 13.023 9.527 20.61 12.453 7.581 2.918 15.644 4.375 24.187 4.375 9.312 0 16.297-1.696 20.953-5.094 4.664-3.395 7-8.254 7-14.578 0-6.156-2.094-10.774-6.281-13.86-4.188-3.082-10.31-4.624-18.36-4.624-4.117 0-8.621.515-13.516 1.546-4.898 1.024-10.109 2.72-15.64 5.094zm0 0"/></symbol></defs><use xlink:href="#471bf42ba" x="52.715" y="200"/></svg>