<?xml version='1.0' encoding='UTF-8'?>
<svg xmlns="http://www.w3.org/2000/svg" xmlns:xlink="http://www.w3.org/1999/xlink" width="250px" height="250px" viewBox="0 0 250 250" y="0px" x="0px" enable-background="new 0 0 250 250"><defs><symbol overflow="visible" id="a5944519a"><path d="M37.688-.469c-7.43-.945-13.555-3.36-18.376-7.234-4.812-3.875-7.218-8.098-7.218-12.672 0-3.008 1.336-5.738 4.015-8.188 2.688-2.445 6.243-3.671 10.672-3.671l17.063 17.062c6 0 11.765-.351 17.297-1.062 5.53-.707 10.39-1.93 14.578-3.672 4.187-1.739 7.547-3.989 10.078-6.75 2.531-2.77 3.797-6.207 3.797-10.313 0-10.27-8.063-15.406-24.188-15.406-4.261 0-9.234.398-14.922 1.188-5.687.792-11.773 2.054-18.25 3.78a116.95 116.95 0 0 1-8.422-7.218 56.582 56.582 0 0 1-7.343-8.406 41.272 41.272 0 0 1-5.094-9.61c-1.262-3.394-1.89-7.066-1.89-11.015 0-3.957.863-7.633 2.593-11.031 1.738-3.395 4.149-6.317 7.235-8.766 3.082-2.445 6.796-4.379 11.14-5.797 4.344-1.426 9.125-2.14 14.344-2.14H77.03v-22.75H-2.375v-15.173h123.25v15.172H95.281v38.391H50.72c-6.48 0-11.813 1.07-16 3.203-4.188 2.137-6.282 5.969-6.282 11.5 0 5.524 2.688 10.89 8.063 16.11a147.955 147.955 0 0 1 15.156-2.954c5.063-.718 10.36-1.078 15.89-1.078 6.634 0 12.556.871 17.766 2.61 5.22 1.742 9.563 4.074 13.032 7 3.476 2.918 6.125 6.312 7.937 10.187a28.313 28.313 0 0 1 2.735 12.203c0 5.844-1.422 10.98-4.266 15.407-2.844 4.417-6.715 8.132-11.61 11.14-4.898 3-10.745 5.371-17.546 7.11C68.8-1.583 61.535-.478 53.797 0l27.25 24.406-14.688 11.375zm0 0"/></symbol></defs><use xlink:href="#a5944519a" x="65.75" y="200"/></svg>