<?xml version='1.0' encoding='UTF-8'?>
<svg xmlns="http://www.w3.org/2000/svg" xmlns:xlink="http://www.w3.org/1999/xlink" width="250px" height="250px" viewBox="0 0 250 250" y="0px" x="0px" enable-background="new 0 0 250 250"><defs><symbol overflow="visible" id="2b5d078da"><path d="M125.844-134.14h-21.328V0H86.03v-54.75c-2.844 2.531-6.636 4.746-11.375 6.64-4.742 1.9-10.43 2.844-17.062 2.844a55.53 55.53 0 0 1-16.125-2.359c-5.211-1.582-9.828-4.035-13.86-7.36-4.03-3.32-7.273-7.43-9.718-12.328-2.45-4.894-3.672-10.66-3.672-17.296v-49.532H-2.375v-15.172h128.219zM32.704-86.5c0 9 2.444 15.48 7.343 19.438 4.906 3.949 11.148 5.921 18.734 5.921 4.582 0 9.047-.75 13.39-2.25 4.345-1.507 7.86-3.601 10.548-6.28l-50.016-47.876zm53.327-47.64H32.703l53.328 51.187zm0 0"/></symbol></defs><use xlink:href="#2b5d078da" x="63.2615" y="200"/></svg>