<?xml version='1.0' encoding='UTF-8'?>
<svg xmlns="http://www.w3.org/2000/svg" xmlns:xlink="http://www.w3.org/1999/xlink" width="250px" height="250px" viewBox="0 0 250 250" y="0px" x="0px" enable-background="new 0 0 250 250"><defs><symbol overflow="visible" id="a52fe830a"><path d="M118.719-141.125v14.344h-17.922v37.187c0 6.117-.602 11.492-1.797 16.125-1.188 4.625-2.98 8.774-5.375 12.438-2.387 3.656-5.371 6.867-8.953 9.625-3.586 2.761-7.766 5.336-12.547 7.718l-10.531-14.78c14.488-5.821 21.734-16.274 21.734-31.36v-36.953H33.156v43.906c0 10.605 1.117 19.605 3.36 27 2.238 7.387 5.785 13.695 10.64 18.922 4.852 5.219 10.973 9.664 18.36 13.328 7.394 3.656 16.242 6.98 26.546 9.969l-7.39 15.672C73.023-1.117 62.867-5.035 54.203-9.734c-8.656-4.707-15.824-10.422-21.5-17.141-5.68-6.719-9.933-14.555-12.766-23.516-2.835-8.968-4.25-19.273-4.25-30.922v-45.468H-2.233v-14.344zm0 0"/></symbol></defs><use xlink:href="#a52fe830a" x="66.89" y="190"/></svg>