<?xml version='1.0' encoding='UTF-8'?>
<svg xmlns="http://www.w3.org/2000/svg" xmlns:xlink="http://www.w3.org/1999/xlink" width="250px" height="250px" viewBox="0 0 250 250" y="0px" x="0px" enable-background="new 0 0 250 250"><defs><symbol overflow="visible" id="da9df8c4a"><path d="M102.14-41.89c0 3.437-.75 6.464-2.25 9.078-1.492 2.617-3.054 4.742-4.687 6.374l15.234 34.954-16.14 5.828-11.64-33.39c-7.169 3.437-15.532 5.155-25.094 5.155-5.825 0-11.649-.93-17.47-2.796-5.823-1.864-11.054-4.739-15.687-8.625-4.625-3.883-8.36-8.739-11.203-14.563-2.836-5.82-4.25-12.766-4.25-20.828 0-7.77 1.344-14.414 4.031-19.938 2.696-5.52 6.243-10.07 10.641-13.656 4.406-3.594 9.445-6.242 15.125-7.953a59.953 59.953 0 0 1 17.469-2.578h17.484v-21.953H-2.234v-14.344h120.062v14.344h-26.89v36.734H62.266c-4.774 0-9.29.563-13.547 1.688-4.25 1.117-7.95 2.906-11.094 5.375-3.137 2.46-5.637 5.558-7.5 9.296-1.867 3.731-2.797 8.211-2.797 13.438 0 5.375.86 10.043 2.578 14 1.719 3.96 3.957 7.21 6.719 9.75a26.32 26.32 0 0 0 9.406 5.594c3.508 1.187 7.055 1.781 10.64 1.781 8.657 0 15.376-1.71 20.157-5.14l-5.812-18.376c3.582-4.332 8.359-6.5 14.328-6.5 5.375 0 9.515 1.61 12.422 4.828 2.914 3.211 4.375 7.352 4.375 12.422zm0 0"/></symbol></defs><use xlink:href="#da9df8c4a" x="68.4545" y="190"/></svg>