<?xml version='1.0' encoding='UTF-8'?>
<svg xmlns="http://www.w3.org/2000/svg" xmlns:xlink="http://www.w3.org/1999/xlink" width="250px" height="250px" viewBox="0 0 250 250" y="0px" x="0px" enable-background="new 0 0 250 250"><defs><symbol overflow="visible" id="518e8186a"><path d="M175.39-126.781H96.095v37.625c3.133-3.875 7.426-6.895 12.875-9.063 5.457-2.164 11.02-3.25 16.687-3.25 5.676 0 10.906.899 15.688 2.688 4.781 1.793 8.883 4.37 12.312 7.734 3.438 3.356 6.086 7.387 7.953 12.094 1.875 4.7 2.813 9.96 2.813 15.781 0 6.574-1.121 12.438-3.36 17.594-2.242 5.148-5.304 9.512-9.187 13.094-3.887 3.586-8.594 6.312-14.125 8.187-5.523 1.867-11.492 2.797-17.906 2.797l-1.125-14.781c2.832-.157 5.89-.79 9.172-1.907a30.691 30.691 0 0 0 9.078-4.937c2.77-2.164 5.05-4.89 6.844-8.172 1.789-3.281 2.687-7.16 2.687-11.64 0-7.626-2.094-13.489-6.281-17.594-4.18-4.102-9.703-6.156-16.578-6.156-5.668 0-10.82 1.496-15.454 4.484-4.624 2.98-8.656 7.308-12.093 12.984V0H79.078v-55.11c-2.242 2.544-5.715 4.86-10.422 6.954-4.71 2.086-10.199 3.125-16.469 3.125-5.218 0-10.183-.742-14.89-2.235-4.711-1.488-8.82-3.8-12.328-6.937-3.5-3.133-6.297-7.016-8.39-11.64-2.095-4.634-3.142-10.087-3.142-16.36v-44.578H-2.233v-14.344H175.39zM30.907-84c0 8.512 1.942 14.637 5.828 18.375 3.883 3.73 9.41 5.594 16.578 5.594 5.52 0 10.555-1.344 15.11-4.032 4.562-2.687 8.113-6.269 10.656-10.75v-51.968H30.906zm0 0"/></symbol></defs><use xlink:href="#518e8186a" x="39.176" y="190"/></svg>