<?xml version='1.0' encoding='UTF-8'?>
<svg xmlns="http://www.w3.org/2000/svg" xmlns:xlink="http://www.w3.org/1999/xlink" width="250px" height="250px" viewBox="0 0 250 250" y="0px" x="0px" enable-background="new 0 0 250 250"><defs><symbol overflow="visible" id="518e8186a"><path d="M185.578-134.14h-83.906v39.812c3.32-4.102 7.863-7.3 13.625-9.594 5.77-2.289 11.656-3.437 17.656-3.437 6.008 0 11.54.949 16.594 2.843 5.05 1.899 9.394 4.621 13.031 8.172 3.633 3.555 6.438 7.82 8.406 12.797 1.977 4.98 2.97 10.555 2.97 16.719 0 6.95-1.188 13.152-3.563 18.61-2.368 5.448-5.602 10.07-9.703 13.859-4.106 3.793-9.086 6.68-14.938 8.656-5.844 1.969-12.164 2.953-18.953 2.953l-1.188-15.64c3-.157 6.239-.829 9.72-2.016a32.347 32.347 0 0 0 9.593-5.219c2.926-2.29 5.336-5.172 7.234-8.64 1.895-3.477 2.844-7.587 2.844-12.329 0-8.062-2.215-14.265-6.64-18.61-4.43-4.343-10.274-6.515-17.532-6.515-6.012 0-11.465 1.586-16.36 4.75-4.898 3.156-9.163 7.735-12.796 13.735V0H83.656v-58.297c-2.367 2.688-6.039 5.137-11.015 7.344-4.98 2.21-10.79 3.312-17.422 3.312-5.532 0-10.79-.785-15.766-2.359-4.969-1.582-9.312-4.031-13.031-7.344-3.711-3.32-6.672-7.43-8.89-12.328-2.212-4.906-3.313-10.676-3.313-17.312v-47.157H-2.375v-15.172h187.953zM32.703-88.876c0 9.012 2.05 15.492 6.156 19.438 4.114 3.949 9.961 5.921 17.547 5.921 5.844 0 11.172-1.422 15.985-4.265 4.82-2.844 8.578-6.633 11.265-11.375v-54.985H32.703zm0 0"/></symbol></defs><use xlink:href="#518e8186a" x="33.992" y="200"/></svg>