<?xml version='1.0' encoding='UTF-8'?>
<svg xmlns="http://www.w3.org/2000/svg" xmlns:xlink="http://www.w3.org/1999/xlink" width="250px" height="250px" viewBox="0 0 250 250" y="0px" x="0px" enable-background="new 0 0 250 250"><defs><symbol overflow="visible" id="4f245582a"><path d="M117.547-134.14h-12.078v-15.173h51.656v15.172h-21.094V0h-18.484zm-66.594-18.016c6.477 0 12.32 1.07 17.531 3.203 5.22 2.137 9.645 5.14 13.282 9.016 3.632 3.867 6.437 8.484 8.406 13.859 1.976 5.367 2.969 11.367 2.969 18 0 8.062-1.227 15.492-3.672 22.281-2.45 6.793-5.887 12.875-10.313 18.25-4.43 5.375-9.726 10-15.89 13.875-6.157 3.867-12.868 6.984-20.125 9.36L83.42-9.484 69.204 3.078 27.016-38.625c-5.844-.633-11.024-2.453-15.532-5.453-4.5-3-6.75-7.344-6.75-13.031 0-4.582 1.38-8.098 4.141-10.547 2.77-2.457 5.656-3.688 8.656-3.688L30.578-58.78c5.531-1.102 10.86-2.957 15.985-5.563 5.132-2.601 9.718-6 13.75-10.187 4.03-4.188 7.269-9.125 9.718-14.813 2.446-5.687 3.672-12.086 3.672-19.203 0-4.738-.633-8.844-1.89-12.312-1.262-3.477-2.922-6.364-4.985-8.657-2.055-2.289-4.422-3.945-7.11-4.968a22.973 22.973 0 0 0-8.296-1.547c-5.211 0-9.356 1.578-12.438 4.734-3.086 3.156-4.625 6.95-4.625 11.375 0 5.055 1.739 9.086 5.22 12.094 3.476 3 8.218 4.976 14.218 5.922l-4.5 13.984c-4.586-.633-8.89-1.781-12.922-3.437-4.023-1.664-7.617-3.88-10.781-6.641-3.157-2.758-5.649-6.078-7.469-9.953-1.813-3.875-2.719-8.336-2.719-13.39 0-4.427.867-8.493 2.61-12.204a30.041 30.041 0 0 1 7.218-9.719c3.082-2.757 6.836-4.93 11.266-6.515 4.426-1.582 9.242-2.375 14.453-2.375zm0 0"/></symbol></defs><use xlink:href="#4f245582a" x="47.6195" y="200"/></svg>