<?xml version='1.0' encoding='UTF-8'?>
<svg xmlns="http://www.w3.org/2000/svg" xmlns:xlink="http://www.w3.org/1999/xlink" width="250px" height="250px" viewBox="0 0 250 250" y="0px" x="0px" enable-background="new 0 0 250 250"><defs><symbol overflow="visible" id="156d504ca"><path d="M8.953-133.734c3.438-2.832 8.14-5.11 14.11-6.828 5.976-1.72 11.804-2.579 17.484-2.579 5.82 0 11.195.79 16.125 2.36 4.926 1.562 9.254 3.84 12.984 6.828 3.739 2.992 6.649 6.726 8.735 11.203 2.093 4.48 3.14 9.633 3.14 15.453 0 7.168-1.64 13.18-4.922 18.031-3.28 4.856-7.09 8.625-11.421 11.313a87.057 87.057 0 0 0 13.218 2.578c4.477.523 8.582.781 12.313.781 4.476 0 9.144-.594 14-1.781 4.851-1.195 8.472-2.617 10.86-4.266v-46.14h-20.61v-14.344h58.25v14.344h-20.156V0h-17.485v-62.938c-5.375 2.387-11.871 3.579-19.484 3.579-3.281 0-6.309-.258-9.078-.782-2.762-.52-6.157-1.601-10.188-3.25l-.437.453c2.687 3.137 4.738 6.387 6.156 9.75 1.414 3.356 2.125 7.2 2.125 11.532 0 12.093-3.922 21.539-11.766 28.328C65.07-6.535 54.43-3.141 40.984-3.141c-3.43 0-6.859-.296-10.297-.89A66.143 66.143 0 0 1 20.61-6.594c-3.28-1.125-6.308-2.43-9.078-3.922-2.761-1.5-5.11-3.144-7.047-4.937l7.391-12.766c3.883 3.282 8.102 5.782 12.656 7.5C29.082-19 34.195-18.14 39.875-18.14c3.582 0 6.977-.445 10.188-1.343 3.207-.895 6.039-2.313 8.5-4.25 2.468-1.946 4.445-4.489 5.937-7.625 1.5-3.133 2.25-6.868 2.25-11.203 0-7.614-2.355-13.735-7.063-18.36-4.699-4.633-12.351-6.953-22.953-6.953h-13.89v-14.563h11.875c8.812.157 15.828-1.851 21.047-6.03 5.226-4.188 7.843-10.165 7.843-17.938 0-7.313-2.39-12.758-7.172-16.344-4.773-3.582-10.292-5.375-16.562-5.375-3.438 0-7.29.484-11.547 1.453-4.25.969-8.32 2.797-12.203 5.484zm0 0"/></symbol></defs><use xlink:href="#156d504ca" x="49.6805" y="190"/></svg>