<?xml version='1.0' encoding='UTF-8'?>
<svg xmlns="http://www.w3.org/2000/svg" xmlns:xlink="http://www.w3.org/1999/xlink" width="250px" height="250px" viewBox="0 0 250 250" y="0px" x="0px" enable-background="new 0 0 250 250"><defs><symbol overflow="visible" id="f3f6f1eca"><path d="M68.547 1.125c-7.168 0-14.297-1.121-21.39-3.36-7.094-2.238-13.446-5.71-19.048-10.421C22.516-17.363 18-23.301 14.562-30.47 11.126-37.633 9.407-46.07 9.407-55.78c0-15.82 4.961-27.88 14.89-36.172 9.938-8.29 23.938-12.438 42-12.438h15.235v-22.39H-2.234v-14.344h128.797v14.344H98.78v37.406H70.11c-14.03 0-24.593 3.027-31.687 9.078-7.094 6.043-10.64 14.516-10.64 25.422 0 7.46 1.155 13.766 3.468 18.922 2.313 5.156 5.367 9.375 9.172 12.656a34.68 34.68 0 0 0 13 7.063c4.851 1.418 9.742 2.125 14.672 2.125 1.5 0 2.547-.079 3.14-.235-3.437-2.082-6.652-4.988-9.64-8.719-2.98-3.738-4.469-8.742-4.469-15.015 0-3.738.781-7.211 2.344-10.422 1.57-3.207 3.66-5.93 6.265-8.172 2.614-2.238 5.676-3.992 9.188-5.266 3.508-1.269 7.281-1.906 11.312-1.906 4.477 0 8.582.672 12.313 2.016 3.738 1.344 7.023 3.215 9.86 5.61a24.733 24.733 0 0 1 6.609 8.624c1.57 3.356 2.359 7.047 2.359 11.078 0 5.23-1.2 10.121-3.594 14.672-2.386 4.555-5.71 8.547-9.969 11.985-4.25 3.437-9.367 6.132-15.343 8.078C82.5.156 75.859 1.125 68.547 1.125zm5.156-38.313c0 4.336 1.004 8.07 3.016 11.204 2.02 3.136 4.672 5.976 7.953 8.515 4.176-1.343 7.758-3.77 10.75-7.281 2.988-3.508 4.484-7.504 4.484-11.984 0-3.438-1.011-6.57-3.031-9.407-2.012-2.843-5.184-4.265-9.516-4.265-4.336 0-7.695 1.234-10.078 3.703-2.386 2.46-3.578 5.633-3.578 9.516zm0 0"/></symbol></defs><use xlink:href="#f3f6f1eca" x="62.97875" y="190"/></svg>