<?xml version='1.0' encoding='UTF-8'?>
<svg xmlns="http://www.w3.org/2000/svg" xmlns:xlink="http://www.w3.org/1999/xlink" width="250px" height="250px" viewBox="0 0 250 250" y="0px" x="0px" enable-background="new 0 0 250 250"><defs><symbol overflow="visible" id="22f0faf7a"><path d="M59.36-36.063c-.75.899-2.094 1.793-4.032 2.688-1.937.898-4.25 1.344-6.937 1.344a24.31 24.31 0 0 1-8.641-1.563 23.522 23.522 0 0 1-7.39-4.484c-2.157-1.938-3.907-4.25-5.25-6.938-1.344-2.695-2.016-5.687-2.016-8.968 0-3.883 1.343-6.985 4.031-9.297 2.688-2.313 6.191-3.469 10.516-3.469h2.468v-46.813c0-4.925-.898-8.734-2.687-11.421-1.793-2.696-4.633-4.047-8.516-4.047-4.031 0-7.281 1.086-9.75 3.25-2.46 2.168-3.687 5.715-3.687 10.64 0 3.887 1.004 7.399 3.015 10.532 2.02 3.136 4.75 5.68 8.188 7.625l-6.5 12.53c-2.688-.894-5.375-2.273-8.063-4.14-2.687-1.863-5.078-4.14-7.171-6.828-2.086-2.687-3.762-5.707-5.032-9.062C.633-107.848 0-111.473 0-115.36c0-4.032.707-7.766 2.125-11.204a27.325 27.325 0 0 1 6.047-9.062c2.613-2.613 5.75-4.629 9.406-6.047 3.664-1.426 7.738-2.14 12.219-2.14 10.156 0 17.617 2.804 22.39 8.406 4.782 5.594 7.172 13.101 7.172 22.515v46.141h39.875v-60.031h-23.75v-14.344h61.375v14.344h-20.156V0H99.234v-52.188H59.36zm0 0"/></symbol></defs><use xlink:href="#22f0faf7a" x="57.83825" y="190"/></svg>