<?xml version='1.0' encoding='UTF-8'?>
<svg xmlns="http://www.w3.org/2000/svg" xmlns:xlink="http://www.w3.org/1999/xlink" width="250px" height="250px" viewBox="0 0 250 250" y="0px" x="0px" enable-background="new 0 0 250 250"><defs><symbol overflow="visible" id="d3a7834fa"><path d="M56.875-111.39c8.375 0 15.207 1.109 20.5 3.328 5.29 2.21 10.07 5.046 14.344 8.515v-34.594H-2.375v-15.172h133.906v15.172h-21.328V0H91.72v-36.031c-2.688 2.687-6.875 5.297-12.563 7.828-5.687 2.531-12.797 3.797-21.328 3.797-6.168 0-12.137-.989-17.906-2.969-5.762-1.977-10.89-4.898-15.39-8.766-4.5-3.875-8.137-8.613-10.907-14.218-2.762-5.614-4.14-12.133-4.14-19.563 0-6.789 1.222-12.754 3.671-17.89 2.446-5.133 5.801-9.438 10.063-12.907 4.27-3.476 9.285-6.125 15.047-7.937 5.77-1.82 11.972-2.735 18.609-2.735zM28.906-69.204c0 5.21.828 9.672 2.485 13.39 1.664 3.711 3.922 6.672 6.765 8.891 2.844 2.211 6.117 3.828 9.828 4.86 3.72 1.023 7.63 1.53 11.735 1.53 3.957 0 8.066-.628 12.328-1.89L37.453-88.875c-5.7 4.43-8.547 10.984-8.547 19.672zM91.72-80.578c-3.156-4.102-7.578-7.617-13.266-10.547-5.687-2.926-12.012-4.39-18.969-4.39-3.949 0-7.586.476-10.906 1.421l34.14 46.219c2.677-2.05 4.844-4.422 6.5-7.11 1.665-2.687 2.5-5.687 2.5-9zm0 0"/></symbol></defs><use xlink:href="#d3a7834fa" x="60.4175" y="200"/></svg>