<?xml version='1.0' encoding='UTF-8'?>
<svg xmlns="http://www.w3.org/2000/svg" xmlns:xlink="http://www.w3.org/1999/xlink" width="250px" height="250px" viewBox="0 0 250 250" y="0px" x="0px" enable-background="new 0 0 250 250"><defs><symbol overflow="visible" id="b57f2147a"><path d="M15.64-80.813c6.946-.476 13.422-1.582 19.422-3.312 6.008-1.738 11.188-4.11 15.532-7.11 4.343-3.007 7.781-6.687 10.312-11.03 2.532-4.344 3.797-9.36 3.797-15.047 0-6.958-1.742-11.86-5.219-14.704-3.48-2.843-7.351-4.265-11.609-4.265-4.586 0-8.34 1.386-11.266 4.156-2.918 2.762-4.375 6.434-4.375 11.016 0 3.636.828 6.64 2.485 9.015 1.656 2.367 3.593 4.18 5.812 5.438l-9.484 11.14c-2.055-.789-4.149-2.015-6.281-3.671a30.192 30.192 0 0 1-5.688-5.797c-1.656-2.22-3-4.786-4.031-7.704-1.024-2.925-1.531-6.128-1.531-9.609 0-4.101.785-7.973 2.359-11.61a27.773 27.773 0 0 1 6.75-9.468c2.926-2.688 6.52-4.82 10.781-6.406 4.27-1.582 9.094-2.375 14.469-2.375 5.531 0 10.504.949 14.922 2.844 4.426 1.898 8.18 4.464 11.266 7.703 3.082 3.242 5.453 7.117 7.109 11.625 1.656 4.5 2.484 9.355 2.484 14.562 0 12.649-4.465 23.434-13.39 32.36-8.93 8.93-22.32 14.574-40.172 16.937 1.738 6.48 5.57 11.813 11.5 16 5.926 4.188 13.863 6.281 23.812 6.281 8.063 0 15.531-1.422 22.406-4.265 6.876-2.844 12.126-6.711 15.75-11.61v-89.594h39.829v15.172h-21.328V0h-18.5v-38.156c-3.793 2.843-8.852 5.375-15.172 7.593-6.313 2.211-13.813 3.313-22.5 3.313-7.907 0-15.22-1.18-21.938-3.547-6.71-2.375-12.555-5.851-17.531-10.437-4.98-4.582-8.934-10.149-11.86-16.703C11.646-64.5 9.954-71.97 9.485-80.344zm0 0"/></symbol></defs><use xlink:href="#b57f2147a" x="54.4925" y="200"/></svg>