<?xml version='1.0' encoding='UTF-8'?>
<svg xmlns="http://www.w3.org/2000/svg" xmlns:xlink="http://www.w3.org/1999/xlink" width="250px" height="250px" viewBox="0 0 250 250" y="0px" x="0px" enable-background="new 0 0 250 250"><defs><symbol overflow="visible" id="89a4ca63a"><path d="M76.078-82.234c-2.687-2.844-6.047-4.973-10.078-6.391-4.023-1.426-7.695-2.14-11.016-2.14-7.742 0-14.101 2.136-19.078 6.406-4.98 4.261-7.468 11.054-7.468 20.375 0 6.48 1.066 12.289 3.203 17.422a53.309 53.309 0 0 0 8.64 14.093c3.633 4.274 7.864 8.149 12.688 11.625a131.63 131.63 0 0 0 15.281 9.469L56.875 2.141A128.926 128.926 0 0 1 38.5-9.83c-5.762-4.507-10.777-9.53-15.047-15.062-4.262-5.53-7.656-11.613-10.187-18.25-2.524-6.632-3.782-13.898-3.782-21.797 0-7.269 1.18-13.507 3.547-18.718 2.375-5.219 5.535-9.524 9.485-12.922 3.945-3.395 8.488-5.922 13.625-7.578 5.132-1.664 10.468-2.5 16-2.5 6 0 11.644 1.148 16.937 3.437 5.3 2.293 9.926 5.496 13.875 9.61 2.844-3.957 6.672-7.04 11.484-9.25 4.82-2.207 10-3.313 15.532-3.313 2.531 0 5.176.2 7.937.594 2.77.398 4.864.984 6.281 1.766v-30.329H-2.374v-15.172H164v15.172h-21.328V0h-18.484v-88.64c-1.262-.633-2.805-1.145-4.626-1.532-1.812-.394-4.062-.594-6.75-.594-8.062 0-13.87 3.438-17.421 10.313-3.555 6.867-5.57 17.016-6.047 30.453h-18.25c0-7.594.515-14.035 1.547-19.328 1.03-5.29 2.175-9.594 3.437-12.906zm0 0"/></symbol></defs><use xlink:href="#89a4ca63a" x="44.183" y="200"/></svg>