<?xml version='1.0' encoding='UTF-8'?>
<svg xmlns="http://www.w3.org/2000/svg" xmlns:xlink="http://www.w3.org/1999/xlink" width="250px" height="250px" viewBox="0 0 250 250" y="0px" x="0px" enable-background="new 0 0 250 250"><defs><symbol overflow="visible" id="25b281ffa"><path d="M75.36-8.297L59.25 2.375 13.516-64.703c-2.532-3.633-4.235-6.438-5.11-8.406-.867-1.977-1.297-3.836-1.297-5.579 0-3.312 1.258-5.835 3.782-7.578 2.53-1.738 5.457-2.609 8.78-2.609l4.97 6.406c1.894 2.524 3.867 4.258 5.922 5.203 2.062.95 4.671 1.422 7.828 1.422 6.164 0 11.379-2.367 15.64-7.11 4.27-4.737 6.407-11.374 6.407-19.905 0-7.102-1.11-13.266-3.329-18.485-2.21-5.219-4.656-9.484-7.343-12.797H-2.375v-15.172H99.547v15.172H68.016c2.53 2.844 5.054 7.153 7.578 12.922 2.531 5.762 3.797 12.2 3.797 19.313 0 6.312-.95 12.039-2.844 17.172-1.899 5.136-4.543 9.523-7.938 13.156-3.398 3.637-7.464 6.445-12.203 8.422-4.742 1.968-9.953 2.953-15.64 2.953h-1.907c-.468 0-1.101-.078-1.89-.234zm0 0"/></symbol></defs><use xlink:href="#25b281ffa" x="76.415" y="200"/></svg>