<?xml version='1.0' encoding='UTF-8'?>
<svg xmlns="http://www.w3.org/2000/svg" xmlns:xlink="http://www.w3.org/1999/xlink" width="250px" height="250px" viewBox="0 0 250 250" y="0px" x="0px" enable-background="new 0 0 250 250"><defs><symbol overflow="visible" id="1a24f95da"><path d="M108.422-126.781V0H90.938v-39.64c-2.532 2.242-6.188 4.328-10.97 6.265-4.78 1.938-11.202 2.906-19.265 2.906-6.574 0-12.922-1.117-19.047-3.36-6.117-2.237-11.562-5.632-16.343-10.187-4.782-4.55-8.668-10.222-11.657-17.015-2.98-6.801-4.547-14.68-4.703-23.64l6.5-.22c11.195-.3 19-2.129 23.406-5.484 4.407-3.363 6.61-8.406 6.61-15.125 0-4.188-.899-8.031-2.688-11.531-1.793-3.508-4.105-6.758-6.937-9.75H-2.234v-14.344h130.812v14.344zM90.938-57.797v-68.984H53.312c2.54 2.543 4.852 5.793 6.938 9.75 2.094 3.949 3.14 8.465 3.14 13.547 0 9.71-3.214 17.367-9.64 22.968-6.418 5.594-15.523 8.762-27.313 9.5 1.489 7.625 5.22 13.75 11.188 18.375 5.977 4.625 13.895 6.938 23.75 6.938 6.27 0 12.055-1.117 17.36-3.36 5.3-2.238 9.367-5.148 12.203-8.734zm0 0"/></symbol></defs><use xlink:href="#1a24f95da" x="61.973" y="190"/></svg>