<?xml version='1.0' encoding='UTF-8'?>
<svg xmlns="http://www.w3.org/2000/svg" xmlns:xlink="http://www.w3.org/1999/xlink" width="250px" height="250px" viewBox="0 0 250 250" y="0px" x="0px" enable-background="new 0 0 250 250"><defs><symbol overflow="visible" id="6a20255aa"><path d="M42.344-126.781v55.547h46.36v-55.547zm0 86.234c-.75.899-2.137 1.793-4.157 2.688-2.011.898-4.359 1.343-7.046 1.343-2.993 0-5.793-.554-8.407-1.672a24.662 24.662 0 0 1-7.062-4.593c-2.086-1.946-3.727-4.266-4.922-6.953-1.2-2.688-1.797-5.598-1.797-8.735 0-3.875 1.156-6.968 3.469-9.281 2.32-2.32 5.648-3.484 9.984-3.484h2.688v-55.547H-2.234v-14.344h128.578v14.344h-20.172V0H88.703v-56.672h-46.36zm0 0"/></symbol></defs><use xlink:href="#6a20255aa" x="63.0905" y="190"/></svg>