<?xml version='1.0' encoding='UTF-8'?>
<svg xmlns="http://www.w3.org/2000/svg" xmlns:xlink="http://www.w3.org/1999/xlink" width="250px" height="250px" viewBox="0 0 250 250" y="0px" x="0px" enable-background="new 0 0 250 250"><defs><symbol overflow="visible" id="4ee1db38a"><path d="M33.594-67.203c2.539-1.633 4.554-4.504 6.047-8.61 1.5-4.113 2.25-8.632 2.25-13.562 0-7.164-1.461-13.922-4.375-20.266-2.907-6.351-6.825-12.066-11.75-17.14h-28v-14.344h130.14v14.344H107.75V0H90.266v-126.781h-46.36c1.79 1.648 3.617 3.742 5.485 6.281 1.863 2.531 3.578 5.516 5.14 8.953 1.57 3.43 2.844 7.234 3.813 11.422.976 4.18 1.468 8.73 1.468 13.656 0 6.875-.859 12.93-2.578 18.156-1.718 5.22-4.039 9.586-6.953 13.094-2.906 3.512-6.195 6.164-9.86 7.953-3.655 1.793-7.35 2.688-11.077 2.688-2.688 0-5.23-.445-7.625-1.344a22.036 22.036 0 0 1-6.5-3.797 18.398 18.398 0 0 1-4.594-5.828c-1.117-2.238-1.672-4.781-1.672-7.625 0-4.031 1.305-7.203 3.922-9.516 2.613-2.312 5.566-3.468 8.86-3.468zm0 0"/></symbol></defs><use xlink:href="#4ee1db38a" x="62.30825" y="190"/></svg>