<?xml version='1.0' encoding='UTF-8'?>
<svg xmlns="http://www.w3.org/2000/svg" xmlns:xlink="http://www.w3.org/1999/xlink" width="250px" height="250px" viewBox="0 0 250 250" y="0px" x="0px" enable-background="new 0 0 250 250"><defs><symbol overflow="visible" id="789c4a60a"><path d="M-2.375-134.14v-15.173h168.516v15.172h-21.328V0h-18.485v-134.14H94.094v53.093c0 6.95-.992 12.992-2.969 18.125-1.98 5.137-4.746 9.48-8.297 13.031-3.555 3.555-7.777 6.2-12.672 7.938-4.898 1.742-10.273 2.61-16.125 2.61-11.531 0-20.976-3.516-28.328-10.548-7.344-7.03-11.015-17.414-11.015-31.156v-53.094zm35.563 52.609c0 9.48 1.773 16.234 5.328 20.265 3.55 4.032 8.644 6.047 15.28 6.047 7.114 0 12.524-2.093 16.235-6.281 3.719-4.188 5.578-10.863 5.578-20.031v-52.61H33.188zm0 0"/></symbol></defs><use xlink:href="#789c4a60a" x="43.1165" y="200"/></svg>