<?xml version='1.0' encoding='UTF-8'?>
<svg xmlns="http://www.w3.org/2000/svg" xmlns:xlink="http://www.w3.org/1999/xlink" width="250px" height="250px" viewBox="0 0 250 250" y="0px" x="0px" enable-background="new 0 0 250 250"><defs><symbol overflow="visible" id="065f4390a"><path d="M-2.375-134.14v-15.173h168.75v15.172h-38.156v19.672c3.312 1.262 6.43 3.235 9.36 5.922 2.925 2.688 5.452 5.89 7.577 9.61 2.133 3.71 3.832 7.812 5.094 12.312 1.27 4.5 1.906 9.203 1.906 14.11 0 10.43-1.742 20.062-5.219 28.906-3.48 8.843-8.46 16.507-14.937 22.984-6.469 6.48-14.328 11.54-23.578 15.172C99.18-1.816 88.875 0 77.5 0c-9.96 0-18.93-1.18-26.906-3.547-7.98-2.375-14.778-5.656-20.39-9.844-5.606-4.187-9.872-9.203-12.798-15.046-2.918-5.844-4.375-12.243-4.375-19.204 0-15.957 7.192-26.703 21.578-32.234-6.804-2.676-12.101-6.54-15.89-11.594-3.793-5.062-5.688-11.46-5.688-19.203 0-5.375 1.223-10.078 3.672-14.11 2.445-4.03 5.488-7.148 9.125-9.359zm84.844 48.109c0-4.27.707-8.18 2.125-11.735 1.426-3.55 3.406-6.586 5.937-9.109a29.488 29.488 0 0 1 8.766-6.047c3.32-1.508 6.879-2.422 10.672-2.734v-18.485H48.344c-4.899 1.899-8.844 4.98-11.844 9.25-3 4.262-4.5 9.235-4.5 14.922 0 7.586 2.406 13.313 7.219 17.188 4.82 3.867 11.101 5.797 18.843 5.797h7.829v16.125h-4.985c-10.117 0-17.465 2.136-22.047 6.406C34.285-60.191 32-54.348 32-46.922c0 9.48 3.988 16.945 11.969 22.39 7.976 5.45 18.914 8.173 32.812 8.173 12.645 0 23.43-2.723 32.36-8.172 8.925-5.446 15.441-13.227 19.546-23.344-6-.156-11.765-1.02-17.296-2.594-5.532-1.582-10.434-3.992-14.704-7.234a38.215 38.215 0 0 1-10.312-11.844c-2.605-4.664-3.906-10.16-3.906-16.484zm50.719 12.797c0-8.375-1.543-15.086-4.625-20.141-3.075-5.063-7.297-7.594-12.672-7.594-4.899 0-8.61 1.422-11.141 4.266-2.523 2.844-3.781 6.558-3.781 11.14 0 4.118.863 7.672 2.594 10.672 1.738 3 4.03 5.493 6.874 7.47 2.844 1.968 6.16 3.468 9.954 4.5 3.789 1.023 7.742 1.53 11.859 1.53.313-1.894.547-3.789.703-5.687.156-1.895.234-3.945.234-6.156zm0 0"/></symbol></defs><use xlink:href="#065f4390a" x="42.998" y="200"/></svg>