<?xml version='1.0' encoding='UTF-8'?>
<svg xmlns="http://www.w3.org/2000/svg" xmlns:xlink="http://www.w3.org/1999/xlink" width="250px" height="250px" viewBox="0 0 250 250" y="0px" x="0px" enable-background="new 0 0 250 250"><defs><symbol overflow="visible" id="f5169cc3a"><path d="M90.047 0v-32.922c-2.992 2.086-7.399 4.137-13.219 6.156-5.824 2.012-12.32 3.016-19.484 3.016-6.867 0-13.137-.816-18.813-2.453-5.68-1.645-10.531-4.035-14.562-7.172-4.032-3.133-7.168-6.906-9.407-11.313-2.242-4.406-3.359-9.367-3.359-14.89 0-6.875 1.64-12.473 4.922-16.797 3.29-4.332 8.297-7.695 15.016-10.094-7.618-2.687-12.844-6.047-15.688-10.078-2.836-4.031-4.25-8.883-4.25-14.562 0-3.282.742-6.41 2.235-9.391 1.5-2.988 3.218-5.082 5.156-6.281H-2.234v-14.344h129.922v14.344h-20.172V0zM37.859-126.781c-2.843 1.492-5.011 3.656-6.5 6.5-1.492 2.836-2.234 5.969-2.234 9.406 0 5.523 1.973 10.04 5.922 13.547 3.957 3.512 10.195 5.266 18.719 5.266h11.859v14.78H55.547c-9.711 0-16.543 1.684-20.5 5.048-3.95 3.355-5.922 7.796-5.922 13.328 0 3.875.742 7.12 2.234 9.734C32.848-46.555 34.82-44.5 37.281-43c2.469 1.492 5.344 2.54 8.625 3.14 3.29.594 6.805.891 10.547.891 5.82 0 11.832-.968 18.031-2.906 6.196-1.945 11.383-4.863 15.563-8.75v-76.156zm0 0"/></symbol></defs><use xlink:href="#f5169cc3a" x="62.42" y="190"/></svg>