<?xml version='1.0' encoding='UTF-8'?>
<svg xmlns="http://www.w3.org/2000/svg" xmlns:xlink="http://www.w3.org/1999/xlink" width="250px" height="250px" viewBox="0 0 250 250" y="0px" x="0px" enable-background="new 0 0 250 250"><defs><symbol overflow="visible" id="2b5d078da"><path d="M118.938-126.781H98.78V0H81.312v-51.75c-2.687 2.398-6.273 4.492-10.75 6.281-4.48 1.793-9.855 2.688-16.124 2.688-5.231 0-10.31-.742-15.235-2.235-4.93-1.5-9.297-3.816-13.11-6.953-3.804-3.133-6.866-7.015-9.187-11.64-2.312-4.633-3.468-10.086-3.468-16.36v-46.812H-2.235v-14.344h121.171zM30.906-81.766c0 8.524 2.313 14.649 6.938 18.375 4.633 3.73 10.535 5.594 17.703 5.594 4.332 0 8.55-.707 12.656-2.125 4.113-1.414 7.438-3.394 9.969-5.937l-47.266-45.25zm50.407-45.015H30.906l50.407 48.375zm0 0"/></symbol></defs><use xlink:href="#2b5d078da" x="66.77825" y="190"/></svg>