<?xml version='1.0' encoding='UTF-8'?>
<svg xmlns="http://www.w3.org/2000/svg" xmlns:xlink="http://www.w3.org/1999/xlink" width="250px" height="250px" viewBox="0 0 250 250" y="0px" x="0px" enable-background="new 0 0 250 250"><defs><symbol overflow="visible" id="4a2f6e16a"><path d="M80.578-83.422c-3.95-4.27-8.016-7.27-12.203-9-4.188-1.738-8.89-2.61-14.11-2.61a30.04 30.04 0 0 0-9.593 1.548c-3.086 1.023-5.813 2.601-8.188 4.734-2.367 2.125-4.297 4.773-5.797 7.938-1.5 3.156-2.25 6.87-2.25 11.14 0 8.688 2.329 15.402 6.985 20.14 4.664 4.743 10.71 7.11 18.14 7.11 3.633 0 7.07-.508 10.313-1.531a23.145 23.145 0 0 0 8.64-4.984c2.532-2.29 4.505-5.176 5.922-8.657 1.426-3.476 2.141-7.742 2.141-12.797zM98.36 0H80.344v-38.875c-2.688 3.96-6.524 7.043-11.5 9.25-4.969 2.21-10.461 3.313-16.469 3.313-5.531 0-10.867-.946-16-2.844-5.137-1.895-9.719-4.739-13.75-8.532-4.023-3.789-7.219-8.453-9.594-13.984-2.367-5.531-3.547-12.004-3.547-19.422 0-6.633 1.145-12.441 3.438-17.422 2.289-4.976 5.332-9.125 9.125-12.437 3.789-3.32 8.21-5.813 13.265-7.469 5.051-1.664 10.344-2.5 15.876-2.5 12.164 0 21.882 4.11 29.156 12.328v-35.547H-2.375v-15.172h185.344v15.172h-84.61v38.625c2.688-4.257 6.832-7.734 12.438-10.421 5.613-2.688 11.816-4.032 18.61-4.032 5.363 0 10.491.836 15.39 2.5 4.906 1.656 9.21 4.149 12.922 7.469 3.719 3.313 6.68 7.418 8.89 12.313 2.207 4.898 3.313 10.507 3.313 16.828 0 7.261-1.188 13.543-3.563 18.843-2.367 5.293-5.562 9.637-9.593 13.032-4.024 3.398-8.72 5.93-14.094 7.593-5.375 1.657-10.984 2.485-16.828 2.485-1.742 0-3.797-.157-6.172-.469-2.367-.32-4.18-.723-5.438-1.203l3.547-15.156c2.375.468 4.906.703 7.594.703 3.477 0 6.754-.473 9.828-1.422a21.54 21.54 0 0 0 8.172-4.61c2.375-2.132 4.234-4.82 5.578-8.062 1.344-3.238 2.016-7.227 2.016-11.969 0-7.27-2.172-12.922-6.516-16.953-4.344-4.031-10.152-6.047-17.422-6.047-9.48 0-16.633 2.809-21.453 8.422-4.812 5.606-7.219 13.07-7.219 22.39zm0 0"/></symbol></defs><use xlink:href="#4a2f6e16a" x="35.888" y="200"/></svg>