<?xml version='1.0' encoding='UTF-8'?>
<svg xmlns="http://www.w3.org/2000/svg" xmlns:xlink="http://www.w3.org/1999/xlink" width="250px" height="250px" viewBox="0 0 250 250" y="0px" x="0px" enable-background="new 0 0 250 250"><defs><symbol overflow="visible" id="22f0faf7a"><path d="M62.813-38.156c-.793.949-2.22 1.898-4.282 2.843-2.054.95-4.5 1.422-7.343 1.422-3.157 0-6.2-.55-9.126-1.656a24.591 24.591 0 0 1-7.812-4.734c-2.293-2.063-4.152-4.516-5.578-7.36-1.418-2.843-2.125-6-2.125-9.468 0-4.114 1.422-7.395 4.265-9.844 2.844-2.445 6.555-3.672 11.141-3.672h2.61v-49.531c0-5.219-.95-9.25-2.844-12.094-1.899-2.844-4.903-4.266-9.016-4.266-4.262 0-7.7 1.149-10.312 3.438-2.606 2.293-3.907 6.047-3.907 11.266 0 4.105 1.067 7.82 3.203 11.14 2.133 3.313 5.02 5.996 8.657 8.047l-6.875 13.281c-2.844-.945-5.688-2.41-8.532-4.39-2.843-1.977-5.374-4.391-7.593-7.235-2.211-2.844-3.985-6.039-5.328-9.594C.672-114.112 0-117.945 0-122.063c0-4.257.75-8.207 2.25-11.843a29.18 29.18 0 0 1 6.39-9.594c2.77-2.77 6.087-4.906 9.954-6.406 3.875-1.5 8.18-2.25 12.922-2.25 10.75 0 18.648 2.965 23.703 8.89 5.062 5.93 7.593 13.868 7.593 23.813v48.828h42.172v-63.516H79.875v-15.172h64.938v15.172h-21.329V0h-18.5v-55.219H62.813zm0 0"/></symbol></defs><use xlink:href="#22f0faf7a" x="53.7815" y="200"/></svg>