<?xml version='1.0' encoding='UTF-8'?>
<svg xmlns="http://www.w3.org/2000/svg" xmlns:xlink="http://www.w3.org/1999/xlink" width="250px" height="250px" viewBox="0 0 250 250" y="0px" x="0px" enable-background="new 0 0 250 250"><defs><symbol overflow="visible" id="09160f13a"><path d="M36.5-2.844c-7.43-.945-13.555-3.351-18.375-7.219-4.813-3.874-7.219-8.101-7.219-12.687 0-3 1.422-5.723 4.266-8.172 2.844-2.457 6.945-3.687 12.312-3.687l15.172 17.078c6.008 0 11.582-.352 16.719-1.063 5.133-.718 9.598-1.945 13.39-3.687 3.79-1.739 6.75-3.989 8.876-6.75 2.132-2.77 3.203-6.207 3.203-10.313 0-10.27-8.059-15.406-24.172-15.406-3.637 0-7.867.2-12.688.594-4.812.398-10.46 1.465-16.937 3.203a126.693 126.693 0 0 1-7.938-7.11 49.552 49.552 0 0 1-6.875-8.296 49.37 49.37 0 0 1-4.859-9.36c-1.262-3.238-1.89-6.676-1.89-10.312 0-3.946.863-7.617 2.593-11.016 1.738-3.394 4.149-6.316 7.235-8.766 3.082-2.457 6.796-4.394 11.14-5.812 4.344-1.426 9.125-2.14 14.344-2.14h31.047v-20.376H-2.375v-15.172h178.703v15.172H155V0h-18.484v-54.984c-2.688 1.105-5.696 1.933-9.016 2.484a58.807 58.807 0 0 1-9.719.828c-3 0-5.922-.191-8.765-.578a42.303 42.303 0 0 1-8.297-2.016l-.469.47c2.688 4.429 4.031 9.245 4.031 14.452 0 11.7-4.703 20.547-14.11 26.547-9.398 6-21.917 9.477-37.562 10.422l20.86 22.047-15.875 10.187zm39.813-67.078c5.53.95 10.898 1.621 16.109 2.016 5.219.398 10.273.594 15.172.594 5.844 0 11.332-.508 16.469-1.532 5.132-1.031 9.285-2.492 12.453-4.39v-60.907H94.094v36.016H50.719c-6.48 0-11.813 1.07-16 3.203-4.188 2.137-6.282 5.969-6.282 11.5 0 3 .672 5.727 2.016 8.172 1.344 2.45 2.961 4.7 4.86 6.75 5.53-1.102 10.468-1.852 14.812-2.25 4.344-.395 8.41-.594 12.203-.594 3 0 5.524.164 7.578.485 2.063.312 4.196.625 6.406.937zm0 0"/></symbol></defs><use xlink:href="#09160f13a" x="38.021" y="200"/></svg>