<?xml version='1.0' encoding='UTF-8'?>
<svg xmlns="http://www.w3.org/2000/svg" xmlns:xlink="http://www.w3.org/1999/xlink" width="250px" height="250px" viewBox="0 0 250 250" y="0px" x="0px" enable-background="new 0 0 250 250"><defs><symbol overflow="visible" id="bbf6ffa1a"><path d="M71.234-7.844L56 2.234l-43.234-63.39c-2.387-3.426-3.993-6.07-4.813-7.938-.824-1.875-1.234-3.633-1.234-5.281 0-3.133 1.191-5.52 3.578-7.156C12.69-83.176 15.457-84 18.594-84l4.703 6.047c1.789 2.387 3.656 4.027 5.594 4.922 1.945.898 4.41 1.344 7.39 1.344 5.832 0 10.766-2.239 14.797-6.72 4.031-4.476 6.047-10.75 6.047-18.812 0-6.719-1.047-12.539-3.14-17.469-2.094-4.925-4.407-8.957-6.938-12.093H-2.234v-14.344H151.64v14.344h-20.157V0h-17.468v-58.016c-5.97 2.993-14.336 4.485-25.094 4.485-5.219 0-10.445-.895-15.672-2.688-5.23-1.789-9.79-4.031-13.672-6.718-5.824 4.03-12.84 6.046-21.047 6.046h-1.797c-.449 0-1.047-.078-1.797-.234zm15.454-61.375c6.269 0 11.68-.742 16.234-2.234 4.562-1.5 8.258-3.367 11.094-5.61v-49.718H64.28c2.395 2.687 4.785 6.758 7.172 12.203 2.395 5.45 3.594 11.539 3.594 18.266 0 9.105-2.094 16.945-6.281 23.515a42.005 42.005 0 0 0 8.28 2.688c2.845.593 6.056.89 9.641.89zm0 0"/></symbol></defs><use xlink:href="#bbf6ffa1a" x="50.46275" y="190"/></svg>