<?xml version='1.0' encoding='UTF-8'?>
<svg xmlns="http://www.w3.org/2000/svg" xmlns:xlink="http://www.w3.org/1999/xlink" width="250px" height="250px" viewBox="0 0 250 250" y="0px" x="0px" enable-background="new 0 0 250 250"><defs><symbol overflow="visible" id="21704a46a"><path d="M52.64-105.281c8.063 0 14.817 1.422 20.266 4.265 5.457 2.836 9.676 5.97 12.656 9.407v-35.172H-2.234v-14.344h125.437v14.344h-20.156V0H85.563v-35.172c-2.688 2.688-6.532 5.375-11.532 8.063-5 2.687-11.758 4.03-20.265 4.03-6.125 0-11.875-.929-17.25-2.796-5.375-1.863-10.121-4.625-14.235-8.281-4.105-3.657-7.355-8.133-9.75-13.438-2.386-5.3-3.578-11.46-3.578-18.484 0-6.426 1.082-12.063 3.25-16.906 2.164-4.852 5.227-8.922 9.188-12.204 3.957-3.289 8.586-5.796 13.89-7.515 5.301-1.719 11.086-2.578 17.36-2.578zm32.922 31.578c-2.53-4.176-6.414-7.977-11.64-11.406-5.23-3.438-11.203-5.157-17.922-5.157-8.512 0-15.418 2.055-20.719 6.157-5.304 4.105-7.953 10.34-7.953 18.703 0 10 2.688 17.023 8.063 21.062 5.375 4.032 12.617 6.047 21.734 6.047 3.875 0 7.531-.633 10.969-1.906 3.437-1.27 6.46-2.988 9.078-5.156 2.613-2.164 4.664-4.739 6.156-7.72 1.488-2.987 2.234-6.202 2.234-9.64zm0 0"/></symbol></defs><use xlink:href="#21704a46a" x="64.655" y="190"/></svg>