<?xml version='1.0' encoding='UTF-8'?>
<svg xmlns="http://www.w3.org/2000/svg" xmlns:xlink="http://www.w3.org/1999/xlink" width="250px" height="250px" viewBox="0 0 250 250" y="0px" x="0px" enable-background="new 0 0 250 250"><defs><symbol overflow="visible" id="bbf6ffa1a"><path d="M75.36-8.297L59.25 2.375 13.516-64.703c-2.532-3.633-4.235-6.438-5.11-8.406-.867-1.977-1.297-3.836-1.297-5.579 0-3.312 1.258-5.835 3.782-7.578 2.53-1.738 5.457-2.609 8.78-2.609l4.97 6.406c1.894 2.524 3.867 4.258 5.922 5.203 2.062.95 4.671 1.422 7.828 1.422 6.164 0 11.379-2.367 15.64-7.11 4.27-4.737 6.407-11.374 6.407-19.905 0-7.102-1.11-13.266-3.329-18.485-2.21-5.219-4.656-9.484-7.343-12.797H-2.375v-15.172h162.828v15.172h-21.328V0h-18.484v-61.39c-6.325 3.167-15.172 4.75-26.547 4.75-5.531 0-11.063-.946-16.594-2.844-5.531-1.895-10.352-4.266-14.453-7.11-6.168 4.262-13.594 6.39-22.281 6.39h-1.907c-.468 0-1.101-.077-1.89-.233zm16.359-64.937c6.633 0 12.36-.786 17.172-2.36 4.82-1.582 8.738-3.562 11.75-5.937v-52.61H68.016c2.53 2.844 5.054 7.153 7.578 12.922 2.531 5.762 3.797 12.2 3.797 19.313 0 9.636-2.211 17.93-6.625 24.875a43.221 43.221 0 0 0 8.765 2.86c3 .624 6.395.937 10.188.937zm0 0"/></symbol></defs><use xlink:href="#bbf6ffa1a" x="45.9605" y="200"/></svg>