<?xml version='1.0' encoding='UTF-8'?>
<svg xmlns="http://www.w3.org/2000/svg" xmlns:xlink="http://www.w3.org/1999/xlink" width="250px" height="250px" viewBox="0 0 250 250" y="0px" x="0px" enable-background="new 0 0 250 250"><defs><symbol overflow="visible" id="310fd168a"><path d="M73.25-74.813c7.914 2.243 14.445 6.387 19.594 12.438 5.156 6.043 7.734 13.992 7.734 23.844 0 5.531-1.086 10.652-3.25 15.36-2.168 4.698-5.23 8.765-9.187 12.202-3.961 3.43-8.704 6.117-14.235 8.063C68.383-.97 62.266 0 55.546 0 49.724 0 44.27-.86 39.189-2.578c-5.075-1.719-9.7-4.031-13.876-6.938-4.18-2.914-7.84-6.238-10.984-9.968-3.137-3.739-5.672-7.696-7.61-11.875l12.766-8.516C23.816-31.957 28.86-25.832 34.61-21.5c5.75 4.324 12.43 6.484 20.047 6.484 8.207 0 14.848-2.086 19.922-6.265 5.082-4.176 7.625-10.07 7.625-17.688 0-8.968-2.914-15.836-8.734-20.61-5.824-4.78-14.11-7.171-24.86-7.171H36.516v-14.563h10.75c9.101 0 16.234-2.124 21.39-6.374 5.156-4.258 7.735-10.274 7.735-18.047 0-5.664-1.871-10.586-5.61-14.766-3.73-4.188-9.105-6.281-16.125-6.281h-56.89v-14.344H116.25v14.344H82.656c3.281 2.094 6.04 5.156 8.281 9.187 2.239 4.031 3.36 8.434 3.36 13.203 0 7.918-1.98 14.196-5.938 18.829-3.949 4.624-8.984 8.21-15.109 10.75zm0 0"/></symbol></defs><use xlink:href="#310fd168a" x="68.11925" y="190"/></svg>