<?xml version='1.0' encoding='UTF-8'?>
<svg xmlns="http://www.w3.org/2000/svg" xmlns:xlink="http://www.w3.org/1999/xlink" width="250px" height="250px" viewBox="0 0 250 250" y="0px" x="0px" enable-background="new 0 0 250 250"><defs><symbol overflow="visible" id="f0d651f3a"><path d="M170.422-152.516H-13.484v2.547l4.656 5.36 6.969 9.984h15.812v48.828c0 12.563 7.906 20.703 18.125 27.672 9.766 6.969 21.172 12.328 31.625 12.328C82.313-45.797 93-57.422 93-74.407v-60.218h36.969v124.156l9.531 5.813 7.203 5.812h3.719v-135.781h31.86v-2.547l-4.891-5.344zM53.703-61.14c-10.219 0-19.297-7.672-19.297-19.765v-53.719h38.36v52.547c0 14.656-7.438 20.937-19.063 20.937zm0 0"/></symbol></defs><use xlink:href="#f0d651f3a" x="38.85875" y="201.75"/></svg>