<?xml version="1.0" encoding="UTF-8"?><svg enable-background="new 0 0 250 250" height="250px" viewBox="0 0 250 250" width="250px" x="0px" xml:space="preserve" xmlns="http://www.w3.org/2000/svg" xmlns:xlink="http://www.w3.org/1999/xlink" y="0px"><defs><symbol overflow="visible"><path d="M29.063 0h69.703v-119.172H29.062zm11.234-108.797H87.72v98.422H40.296zm0 0"/></symbol><symbol id="014bde86a" overflow="visible"><path d="M122.063-98.438v-1.86l-3.407-3.905-5.094-7.313H-9.858v1.86l3.405 3.922 5.094 7.296h85.344v22.954h-44.89l-2.375 3.75c6.624 8.5 12.233 17.843 12.233 26.515 0 6.626-3.906 10.032-9.344 10.032-13.094 0-25.157-18.015-32.64-39.265l-7.986 3.906c10.532 27.875 25.5 49.47 44.532 49.47 10.375 0 18.03-6.97 18.03-18.532 0-8.67-4.937-16.656-8.5-21.765l.157-.672h31.28c0 44.53-.5 54.39-.5 54.39l7.142 4.423L96.39.844h2.547v-99.28zm0 0"/></symbol></defs><use x="67.625" xlink:href="#014bde86a" y="169"/></svg>