<?xml version='1.0' encoding='UTF-8'?>
<svg xmlns="http://www.w3.org/2000/svg" xmlns:xlink="http://www.w3.org/1999/xlink" width="250px" height="250px" viewBox="0 0 250 250" y="0px" x="0px" enable-background="new 0 0 250 250"><defs><symbol overflow="visible" id="feb098a0a"><path d="M41.688-61.344c-4.75-.437-11.235-5.187-11.235-13.828 0-8.203 5.828-13.39 18.14-13.61l27.438-.859c9.5-.437 11.016-3.015 11.016-7.125v-28.296h39.969v56.812c-6.485 2.375-14.266 3.234-20.75 3.234-13.172 0-23.11-2.375-28.5-3.89-1.079-.219-1.954-.438-3.032-.438-10.578 0-28.718 6.703-33.046 8zm47.093 80.36L57.234-5.828v-.656C81.641-5.188 98.72-16.625 98.72-35.422c0-6.703-1.735-12.094-5.844-18.578-.422-.64-.86-1.297-1.297-1.938 6.484 3.016 14.906 5.61 25.063 5.61 3.015 0 7.984-.219 10.796-.86 0 29.376-.64 41.47-.64 41.47l9.062 5.609 6.703 5.187h3.235v-126.14h29.375v-2.376l-4.313-4.968-6.484-9.297H-12.531v2.39l4.328 4.954 6.469 9.297h70.421v21.374c-3.453-.859-12.953-2.374-25.703-2.374-17.28 0-27.437 8.437-27.437 21.609 0 17.703 16.86 35.203 31.11 40.39 0 0 20.734-8.421 30.234-8.421 5.187 0 8 4.093 8 9.5 0 16.843-18.797 24.843-41.266 22.89L22.25-38.016l-8.422 6.703C14.25-14.468 27.438-6.905 41.25-6.047l27.656 32.61zm0 0"/></symbol></defs><use xlink:href="#feb098a0a" x="42.056" y="191.75"/></svg>