<?xml version='1.0' encoding='UTF-8'?>
<svg xmlns="http://www.w3.org/2000/svg" xmlns:xlink="http://www.w3.org/1999/xlink" width="250px" height="250px" viewBox="0 0 250 250" y="0px" x="0px" enable-background="new 0 0 250 250"><defs><symbol overflow="visible" id="5a080e4fa"><path d="M166.938-134.625v-2.547l-4.657-5.344-6.969-10H-13.483v2.547l4.656 5.36 6.969 9.984h116.718v31.39H53.47l-3.25 5.126c9.062 11.625 16.734 24.406 16.734 36.265 0 9.063-5.344 13.719-12.781 13.719-17.906 0-34.406-24.64-44.64-53.703l-10.923 5.344C13.016-58.36 33.484-28.828 59.516-28.828c14.187 0 24.656-9.531 24.656-25.344 0-11.86-6.75-22.781-11.625-29.766l.219-.921h42.78c0 60.906-.687 74.39-.687 74.39l9.766 6.047 7.203 5.578h3.484v-135.781zm0 0"/></symbol></defs><use xlink:href="#5a080e4fa" x="46.53125" y="201.75"/></svg>