<?xml version='1.0' encoding='UTF-8'?>
<svg xmlns="http://www.w3.org/2000/svg" xmlns:xlink="http://www.w3.org/1999/xlink" width="250px" height="250px" viewBox="0 0 250 250" y="0px" x="0px" enable-background="new 0 0 250 250"><defs><symbol overflow="visible" id="872d5793a"><path d="M96.25-46.031c-6.969 5.343-19.75 11.86-37.188 11.86-23.953 0-33.718-13.267-33.718-23.485 0-9.297 5.578-15.11 22.781-21.625l14.188-5.344c18.593-6.75 22.078-11.172 22.078-20.469v-29.531h33.953v-2.547l-4.656-5.344-7.204-10H-13.484v2.547l4.656 5.36 6.969 9.984h65.562v22.797c0 5.344-1.39 6.734-16.5 12.078l-13.266 4.656C13.953-88.344 6.282-79.28 6.282-66.954c0 25.563 32.547 49.75 60.907 49.75 19.296 0 32.093-5.108 40.921-11.155zm0 0"/></symbol></defs><use xlink:href="#872d5793a" x="70.8275" y="201.75"/></svg>