<?xml version="1.0" encoding="UTF-8"?><svg enable-background="new 0 0 250 250" height="250px" viewBox="0 0 250 250" width="250px" x="0px" xml:space="preserve" xmlns="http://www.w3.org/2000/svg" xmlns:xlink="http://www.w3.org/1999/xlink" y="0px"><defs><symbol overflow="visible"><path d="M29.063 0h69.703v-119.172H29.062zm11.234-108.797H87.72v98.422H40.296zm0 0"/></symbol><symbol id="51c08c9fa" overflow="visible"><path d="M36.72-44.875c-6.454 0-10.876-4.422-10.876-10.375v-43.188h37.562v37.235c-7.64 10.547-17.5 16.328-26.687 16.328zM-1.36-98.438h12.407v35.532c0 9.703 3.406 14.797 11.22 20.75 6.796 5.093 13.264 8.672 20.233 8.672 8.5 0 15.984-4.766 21.25-9.188 0 20.906-.844 35.188-.844 35.188l7.297 4.25 5.28 4.078h2.548v-99.28h23.282v-1.86l-3.562-3.907-5.094-7.313H-9.86v1.86l3.407 3.922zm0 0"/></symbol></defs><use x="77.995" xlink:href="#51c08c9fa" y="169"/></svg>