<?xml version="1.0" encoding="UTF-8"?><svg enable-background="new 0 0 250 250" height="250px" viewBox="0 0 250 250" width="250px" x="0px" xml:space="preserve" xmlns="http://www.w3.org/2000/svg" xmlns:xlink="http://www.w3.org/1999/xlink" y="0px"><defs><symbol overflow="visible"><path d="M29.063 0h69.703v-119.172H29.062zm11.234-108.797H87.72v98.422H40.296zm0 0"/></symbol><symbol id="aae14c0ca" overflow="visible"><path d="M32.813-48.28c-3.75-.345-8.844-4.08-8.844-10.876 0-6.47 4.593-10.547 14.28-10.72l21.594-.67c7.468-.345 8.672-2.39 8.672-5.61v-22.28h31.437v44.717c-5.094 1.876-11.22 2.548-16.312 2.548-10.374 0-18.187-1.875-22.437-3.062-.86-.172-1.53-.328-2.39-.328-8.33 0-22.61 5.265-26 6.28zm37.062 63.233L45.047-4.594v-.5c19.22 1.016 32.64-8 32.64-22.78 0-5.282-1.36-9.532-4.593-14.626-.328-.516-.672-1.016-1.016-1.53 5.11 2.374 11.734 4.42 19.72 4.42 2.39 0 6.296-.17 8.5-.687 0 23.125-.5 32.64-.5 32.64l7.14 4.423 5.265 4.078h2.547v-99.28h23.125v-1.86l-3.406-3.907-5.095-7.313H-9.86v1.86l3.407 3.922 5.094 7.296h55.422v16.844c-2.718-.687-10.203-1.875-20.234-1.875-13.594 0-21.594 6.626-21.594 17 0 13.94 13.266 27.704 24.485 31.782 0 0 16.327-6.624 23.796-6.624 4.078 0 6.297 3.234 6.297 7.484 0 13.266-14.797 19.547-32.47 18.016l-16.827-14.11-6.64 5.266c.343 13.265 10.718 19.218 21.593 19.89l21.764 25.672zm0 0"/></symbol></defs><use x="59.72" xlink:href="#aae14c0ca" y="169"/></svg>