<?xml version="1.0" encoding="UTF-8"?><svg enable-background="new 0 0 250 250" height="250px" viewBox="0 0 250 250" width="250px" x="0px" xml:space="preserve" xmlns="http://www.w3.org/2000/svg" xmlns:xlink="http://www.w3.org/1999/xlink" y="0px"><defs><symbol overflow="visible"><path d="M29.063 0h69.703v-119.172H29.062zm11.234-108.797H87.72v98.422H40.296zm0 0"/></symbol><symbol id="f2e00f62a" overflow="visible"><path d="M4.25-25.328c8.5 9.015 23.297 21.422 44.203 21.422 19.203 0 31.28-10.89 31.28-24.485 0-5.094-1.53-11.22-5.608-17.516-4.25-6.453-8.844-8.828-15.813-8.828-5.61 0-19.89 4.25-25.67 5.937-4.94 0-9.86-4.578-9.86-11.22 0-6.967 5.265-10.53 14.452-10.53h25.328c7.485 0 9.172-2.047 9.172-5.266v-22.624h22.282v-1.86l-3.407-3.906-5.094-7.313H-9.86v1.86l3.407 3.922 5.094 7.296h58.313v15.64c-3.578-.155-13.937-1.358-24.14-1.358-13.766 0-21.594 6.64-21.594 17 0 14.625 14.28 29.75 25.843 32.312 0 0 17.67-6.812 25.328-6.812 3.907 0 6.454 2.562 6.454 6.968 0 8.672-7.64 17.688-25.5 17.688C29.062-17 17-24.813 10.374-31.797zm0 0"/></symbol></defs><use x="81.65" xlink:href="#f2e00f62a" y="169"/></svg>