<?xml version='1.0' encoding='UTF-8'?>
<svg xmlns="http://www.w3.org/2000/svg" xmlns:xlink="http://www.w3.org/1999/xlink" width="250px" height="250px" viewBox="0 0 250 250" y="0px" x="0px" enable-background="new 0 0 250 250"><defs><symbol overflow="visible" id="eb5648d3a"><path d="M122.906-141.703H-12.53v2.39l4.328 4.954 6.469 9.297h74.953v19.874c-4.531-.218-17.703-1.734-30.875-1.734-17.282 0-27.438 8.422-27.438 21.61 0 18.14 17.5 37.578 32.828 41.03 0 0 22.688-8.859 32.407-8.859 4.968 0 8.203 3.672 8.203 9.078 0 11.016-9.719 22.47-32.188 22.47-18.36 0-33.687-9.938-42.11-19.016l-8 8.64c10.798 11.453 30.032 27 56.376 27 24.625 0 39.531-13.828 39.531-31.11 0-6.468-1.937-14.03-6.906-22.03-5.406-8.422-11.234-11.438-20.094-11.438-7.125 0-25.484 5.61-33.047 7.766-6.265 0-12.312-6.047-12.312-14.469 0-8.86 6.687-13.39 18.36-13.39H80.14c9.5 0 11.656-2.594 11.656-6.704v-28.719h41.906v-2.374l-4.312-4.97zm-11.234 50.328L96.984-77.109l14.688 14.03 14.687-13.812zm0 0"/></symbol></defs><use xlink:href="#eb5648d3a" x="62.792" y="191.75"/></svg>