<?xml version='1.0' encoding='UTF-8'?>
<svg xmlns="http://www.w3.org/2000/svg" xmlns:xlink="http://www.w3.org/1999/xlink" width="250px" height="250px" viewBox="0 0 250 250" y="0px" x="0px" enable-background="new 0 0 250 250"><defs><symbol overflow="visible" id="82dbc52ea"><path d="M50.219-61.375c-8.828 0-14.875-6.047-14.875-14.188v-59.062h51.375v50.922c-10.453 14.422-23.938 22.328-36.5 22.328zm-52.078-73.25h16.968v48.594c0 13.265 4.657 20.234 15.344 28.375 9.297 6.968 18.14 11.86 27.672 11.86 11.625 0 21.86-6.517 29.063-12.563 0 28.593-1.157 48.125-1.157 48.125l9.985 5.812 7.218 5.578h3.485v-135.781h31.844v-2.547l-4.875-5.344-6.97-10H-13.483v2.547l4.656 5.36zm0 0"/></symbol></defs><use xlink:href="#82dbc52ea" x="60.71375" y="201.75"/></svg>