<?xml version="1.0" encoding="UTF-8"?><svg enable-background="new 0 0 250 250" height="250px" viewBox="0 0 250 250" width="250px" x="0px" xml:space="preserve" xmlns="http://www.w3.org/2000/svg" xmlns:xlink="http://www.w3.org/1999/xlink" y="0px"><defs><symbol overflow="visible"><path d="M29.063 0h69.703v-119.172H29.062zm11.234-108.797H87.72v98.422H40.296zm0 0"/></symbol><symbol id="46d88e6aa" overflow="visible"><path d="M54.234-63.234c0 17.172-7.828 27.53-20.75 27.53-9.86 0-15.797-8.155-15.797-16.483 0-10.376 7.985-15.985 17.5-15.985 2.376 0 5.61.688 7.83 1.188l.67-1.36-7.812-12.406c-2.39-.516-3.578-.688-5.953-.688-13.938 0-24.485 8.344-24.485 23.64 0 8.157 4.422 16.142 9.516 22.267 6.47 7.31 14.625 12.233 22.78 12.233 8.5 0 14.798-4.406 17.86-9-.17 6.797-1.03 15.64-1.187 24.984l6.797 4.25L66.125.845h2.563v-40.797c0-16.656 7.812-27.703 20.734-27.703 9.172 0 15.64 7.14 15.64 15.64 0 10.532-7.484 16.657-17.86 16.657-1.858 0-4.75-.343-6.968-.843l-.67 1.36 7.64 12.234c2.218.516 3.92.516 5.952.516 13.938 0 24.14-8.843 24.14-24.312 0-7.828-4.077-15.64-9.515-21.938-6.296-7.312-14.452-12.062-22.608-12.062-8.5 0-14.28 4.594-17.172 8.844.516-2.89 1.188-12.922 1.188-26.532v-.344h60.86v-1.86l-3.392-3.905-5.28-7.313H-9.86v1.86l3.407 3.922 5.094 7.296h55.594zm0 0"/></symbol></defs><use x="63.63" xlink:href="#46d88e6aa" y="169"/></svg>