<?xml version='1.0' encoding='UTF-8'?>
<svg xmlns="http://www.w3.org/2000/svg" xmlns:xlink="http://www.w3.org/1999/xlink" width="250px" height="250px" viewBox="0 0 250 250" y="0px" x="0px" enable-background="new 0 0 250 250"><defs><symbol overflow="visible" id="eb5648d3a"><path d="M132.297-152.516H-13.484v2.547l4.656 5.36 6.969 9.984h80.671v21.39c-4.874-.218-19.062-1.859-33.25-1.859-18.593 0-29.515 9.078-29.515 23.25 0 19.531 18.828 40.469 35.328 44.188 0 0 24.422-9.532 34.875-9.532 5.36 0 8.844 3.938 8.844 9.75 0 11.86-10.469 24.188-34.64 24.188-19.767 0-36.267-10.688-45.345-20.453l-8.593 9.297C18.14-22.094 38.828-5.344 67.188-5.344c26.515 0 42.546-14.89 42.546-33.484 0-6.969-2.093-15.11-7.437-23.719-5.813-9.062-12.094-12.312-21.625-12.312-7.672 0-27.422 6.046-35.563 8.359-6.75 0-13.25-6.5-13.25-15.578 0-9.531 7.203-14.406 19.75-14.406H86.25c10.234 0 12.563-2.797 12.563-7.204v-30.937h45.109v-2.547l-4.656-5.344zm-12.094 54.172L104.391-83l15.812 15.11 15.813-14.876zm0 0"/></symbol></defs><use xlink:href="#eb5648d3a" x="58.04" y="201.75"/></svg>