<?xml version='1.0' encoding='UTF-8'?>
<svg xmlns="http://www.w3.org/2000/svg" xmlns:xlink="http://www.w3.org/1999/xlink" width="250px" height="250px" viewBox="0 0 250 250" y="0px" x="0px" enable-background="new 0 0 250 250"><defs><symbol overflow="visible" id="f4c74640a"><path d="M35.203-108.219c0-11.015 7.563-17.703 15.984-17.703 9.72 0 19.657 7.766 19.657 26.344 0 6.703-1.297 12.531-3.672 17.719-11.656-1.297-31.969-8.641-31.969-26.36zM76.891-5.609L28.297-43.422c28.297 2.594 59.828-19.86 59.828-49.453 0-12.75-5.61-23.11-14.469-32.188h39.75c0 84.454-.875 115.344-.875 115.344l9.297 5.61 6.688 5.187h3.25v-126.14h29.375v-2.376l-4.328-4.968-6.47-9.297H-12.53v2.39l4.328 4.954 6.469 9.297h22.906c-4.547 4.968-6.485 10.359-6.485 16.624 0 17.063 18.579 29.376 46.657 35.641C53.14-63.5 40.172-58.75 25.704-58.75c-6.688 0-12.313-1.734-16.204-3.031L2.156-50.11C7.125-46.22 17.5-38.656 65.016 2.813zm0 0"/></symbol></defs><use xlink:href="#f4c74640a" x="48.968" y="191.75"/></svg>