<?xml version='1.0' encoding='UTF-8'?>
<svg xmlns="http://www.w3.org/2000/svg" xmlns:xlink="http://www.w3.org/1999/xlink" width="250px" height="250px" viewBox="0 0 250 250" y="0px" x="0px" enable-background="new 0 0 250 250"><defs><symbol overflow="visible" id="872d5793a"><path d="M89.422-42.766c-6.484 4.97-18.36 11.016-34.563 11.016-22.25 0-31.312-12.313-31.312-21.813 0-8.64 5.187-14.046 21.172-20.093l13.172-4.969c17.28-6.266 20.515-10.36 20.515-19v-27.438h31.531v-2.374l-4.312-4.97-6.703-9.296H-12.531v2.39l4.328 4.954 6.469 9.297h60.922v21.171c0 4.97-1.297 6.266-15.344 11.235L31.53-88.344C12.953-82.078 5.828-73.656 5.828-62.204c0 23.75 30.25 46.22 56.594 46.22 17.937 0 29.812-4.75 38.016-10.375zm0 0"/></symbol></defs><use xlink:href="#872d5793a" x="74.672" y="191.75"/></svg>