<?xml version='1.0' encoding='UTF-8'?>
<svg xmlns="http://www.w3.org/2000/svg" xmlns:xlink="http://www.w3.org/1999/xlink" width="250px" height="250px" viewBox="0 0 250 250" y="0px" x="0px" enable-background="new 0 0 250 250"><defs><symbol overflow="visible" id="95020df3a"><path d="M105.625 21.172c4.313-5.625 6.266-12.313 6.266-17.938 0-11.437-6.922-19.656-18.579-26.562L37.578-55.516v-69.547h44.719c.219 8.422.64 21.376.64 38.657 0 10.375-6.046 16.422-19.437 20.531l17.719 10.36c12.094-4.75 20.297-13.829 20.297-30.672v-38.876h28.296v-2.374l-4.53-4.97-6.485-9.296H-12.531v2.39l4.328 4.954 6.469 9.297H18.14v71.28L79.703-18.14c9.281 5.391 14.25 10.578 14.25 17.282 0 5.171-3.016 11.234-7.766 16.203zm0 0"/></symbol></defs><use xlink:href="#95020df3a" x="64.736" y="191.75"/></svg>