<?xml version="1.0" encoding="UTF-8"?><svg enable-background="new 0 0 250 250" height="250px" viewBox="0 0 250 250" width="250px" x="0px" xml:space="preserve" xmlns="http://www.w3.org/2000/svg" xmlns:xlink="http://www.w3.org/1999/xlink" y="0px"><defs><symbol overflow="visible"><path d="M29.063 0h69.703v-119.172H29.062zm11.234-108.797H87.72v98.422H40.296zm0 0"/></symbol><symbol id="68c29728a" overflow="visible"><path d="M54.734-3.234C37.062-21.25 24.812-37.562 24.812-40.454c0-1.53.86-2.046 2.047-2.733 10.374-7.47 13.765-12.063 13.765-21.08v-34.17h23.297v-1.86l-3.406-3.906-5.094-7.313h-65.28v1.86l3.405 3.922 5.094 7.296h27.032v33.5c0 3.235-2.22 5.266-6.47 5.266-2.718 0-5.765-.672-8.5-1.703l-6.108 6.813c2.03 4.578 6.797 13.765 19.89 30.42L45.22 2.204zm0 0"/></symbol></defs><use x="96.695" xlink:href="#68c29728a" y="169"/></svg>