<?xml version='1.0' encoding='UTF-8'?>
<svg xmlns="http://www.w3.org/2000/svg" xmlns:xlink="http://www.w3.org/1999/xlink" width="250px" height="250px" viewBox="0 0 250 250" y="0px" x="0px" enable-background="new 0 0 250 250"><defs><symbol overflow="visible" id="a14bb73ba"><path d="M173.906-134.625v-2.547l-4.64-5.344-7.22-10h-175.53v2.547l4.656 5.36 6.969 9.984h123.453v55.813c-5.11 2.093-12.781 2.78-20.453 2.312-1.172-5.578-3.954-12.078-9.766-18.828-8.61-10.234-17.672-14.64-29.297-14.64s-20.922 6.734-25.344 10.921l14.422 16.969c5.813-6.734 13.719-11.156 20.688-11.156 8.594 0 13.953 6.515 13.953 14.656 0 12.781-10 24.64-26.047 24.64-20 0-38.36-20.921-50.922-48.359l-11.156 6.734C15.578-60.218 39.062-36.03 66.734-36.03c18.594 0 30.922-11.407 34.172-25.578 6.281 1.625 14.188 2.328 21.39 1.39 0 31.625-.702 49.75-.702 49.75l10 6.047 6.969 5.578h3.734v-135.781zm0 0"/></symbol></defs><use xlink:href="#a14bb73ba" x="43.04375" y="201.75"/></svg>