<?xml version='1.0' encoding='UTF-8'?>
<svg xmlns="http://www.w3.org/2000/svg" xmlns:xlink="http://www.w3.org/1999/xlink" width="250px" height="250px" viewBox="0 0 250 250" y="0px" x="0px" enable-background="new 0 0 250 250"><defs><symbol overflow="visible" id="bf908564a"><path d="M145.078-152.516H73.234v2.547l4.657 5.36 6.968 9.984h20v66.734c-6.28 8.141-23.25 22.094-46.265 22.094-18.14 0-25.344-10.469-25.344-18.375 0-10.687 15.11-19.297 48.125-18.828l-7.203-17.438c-8.14 0-15.813.47-23.719 1.626-7.437-3.954-15.11-11.391-15.11-20 0-7.672 4.641-13.72 16.266-21.391l-8.593-12.313h-56.5v2.547l4.656 5.36 6.969 9.984h23.953c-5.36 3.5-8.61 8.375-8.61 14.188 0 11.39 11.391 19.765 23.016 25.578v.921c-15.11 4.422-22.781 12.094-22.781 22.563 0 18.828 29.297 41.844 53.703 41.844 18.375 0 30.922-8.594 38.36-15.11 0 20.235-.923 34.172-.923 34.172l9.532 6.047 7.203 5.578h3.484v-135.781h31.625v-2.547l-4.64-5.344zm0 0"/></symbol></defs><use xlink:href="#bf908564a" x="51.64625" y="201.75"/></svg>