<?xml version="1.0" encoding="UTF-8"?><svg enable-background="new 0 0 250 250" height="250px" viewBox="0 0 250 250" width="250px" x="0px" xml:space="preserve" xmlns="http://www.w3.org/2000/svg" xmlns:xlink="http://www.w3.org/1999/xlink" y="0px"><defs><symbol overflow="visible"><path d="M29.063 0h69.703v-119.172H29.062zm11.234-108.797H87.72v98.422H40.296zm0 0"/></symbol><symbol id="41094dc7a" overflow="visible"><path d="M30.594-62.047V-87.89c0-7.813-4.407-13.094-10.532-18.016-5.11-4.25-9.687-6.297-14.968-6.297-5.782 0-10.188 1.53-14.282 4.422l8.672 14.624c3.407-3.578 7.313-5.61 12.25-5.61 3.22 0 4.25 1.188 4.25 3.22v12.42c0 13.767.844 21.08.844 21.08-6.28 2.89-7.64 4.593-7.64 7.64 0 4.765 4.92 13.61 13.42 21.593h7.986v-16.312h34.172c0 25.828-.844 41.47-.844 41.47l7.312 4.42L76.5.846h2.547v-99.282h23.125v-1.86l-3.406-3.906-5.094-7.313H39.438v1.86l3.406 3.922 5.093 7.296h16.157v36.39zm0 0"/></symbol></defs><use x="77.57" xlink:href="#41094dc7a" y="169"/></svg>