<?xml version="1.0" encoding="UTF-8"?><svg enable-background="new 0 0 250 250" height="250px" viewBox="0 0 250 250" width="250px" x="0px" xml:space="preserve" xmlns="http://www.w3.org/2000/svg" xmlns:xlink="http://www.w3.org/1999/xlink" y="0px"><defs><symbol overflow="visible"><path d="M29.063 0h69.703v-119.172H29.062zm11.234-108.797H87.72v98.422H40.296zm0 0"/></symbol><symbol id="5f11fca7a" overflow="visible"><path d="M70.375-33.656c-5.094 3.906-14.438 8.672-27.188 8.672-17.515 0-24.656-9.703-24.656-17.172 0-6.797 4.08-11.047 16.657-15.813l10.376-3.905c13.593-4.938 16.14-8.172 16.14-14.97v-21.593H86.53v-1.86l-3.405-3.905-5.266-7.313H-9.86v1.86l3.407 3.922 5.094 7.296H46.58v16.672c0 3.907-1.016 4.922-12.062 8.83l-9.703 3.405c-14.61 4.936-20.22 11.56-20.22 20.577 0 18.687 23.798 36.375 44.532 36.375 14.11 0 23.47-3.735 29.922-8.156zm0 0"/></symbol></defs><use x="85.39" xlink:href="#5f11fca7a" y="169"/></svg>