<?xml version="1.0" encoding="UTF-8"?><svg enable-background="new 0 0 250 250" height="250px" viewBox="0 0 250 250" width="250px" x="0px" xml:space="preserve" xmlns="http://www.w3.org/2000/svg" xmlns:xlink="http://www.w3.org/1999/xlink" y="0px"><defs><symbol overflow="visible"><path d="M29.063 0h69.703v-119.172H29.062zm11.234-108.797H87.72v98.422H40.296zm0 0"/></symbol><symbol id="4a59fac1a" overflow="visible"><path d="M127.156-98.438v-1.86l-3.39-3.905-5.282-7.313H-9.86v1.86l3.407 3.922 5.094 7.296h90.266v40.813c-3.734 1.53-9.344 2.03-14.953 1.688-.86-4.08-2.89-8.83-7.14-13.766-6.297-7.484-12.922-10.703-21.422-10.703s-15.296 4.922-18.53 7.984l10.546 12.406c4.25-4.922 10.032-8.156 15.125-8.156 6.282 0 10.204 4.766 10.204 10.72 0 9.343-7.312 18.014-19.047 18.014-14.624 0-28.046-15.296-37.234-35.36l-8.156 4.923c13.094 25.844 30.265 43.53 50.5 43.53 13.594 0 22.61-8.343 24.984-18.702 4.595 1.188 10.376 1.703 15.642 1.016 0 23.124-.516 36.374-.516 36.374l7.313 4.422 5.093 4.078h2.734v-99.28zm0 0"/></symbol></defs><use x="65.075" xlink:href="#4a59fac1a" y="169"/></svg>