<?xml version="1.0" encoding="UTF-8"?><svg enable-background="new 0 0 250 250" height="250px" viewBox="0 0 250 250" width="250px" x="0px" xml:space="preserve" xmlns="http://www.w3.org/2000/svg" xmlns:xlink="http://www.w3.org/1999/xlink" y="0px"><defs><symbol overflow="visible"><path d="M29.063 0h69.703v-119.172H29.062zm11.234-108.797H87.72v98.422H40.296zm0 0"/></symbol><symbol id="fc8bc208a" overflow="visible"><path d="M59.672-3.234L64.938.844h2.546v-99.28H90.61v-1.86l-3.407-3.907-5.266-7.313H-9.86v1.86l3.407 3.922 5.094 7.296h53.89v29.922H9.188c-3.234 0-6.296 2.39-6.296 6.813 0 8.156 4.422 17.844 9.172 23.625l8.172-.688s-.343-4.25-.343-8.5c0-6.625.672-7.812 3.063-7.812h30.25c0 31.28-.672 47.422-.672 47.422zm0 0"/></symbol></defs><use x="83.35" xlink:href="#fc8bc208a" y="169"/></svg>