<?xml version='1.0' encoding='UTF-8'?>
<svg xmlns="http://www.w3.org/2000/svg" xmlns:xlink="http://www.w3.org/1999/xlink" width="250px" height="250px" viewBox="0 0 250 250" y="0px" x="0px" enable-background="new 0 0 250 250"><defs><symbol overflow="visible" id="c999c50ea"><path d="M81.438-14.047C89.858-19.219 94.608-27 94.608-35.203c0-17.281-16.203-31.11-37.796-31.11-5.844 0-11.672 1.079-17.063 3.032-6.703-5.188-9.078-11.016-9.078-15.563 0-6.469 4.75-10.36 13.828-10.36h29.156c10.156 0 13.828-2.812 13.828-8.859v-27h26.125v-2.374l-4.312-4.97-6.484-9.296H-12.531v2.39l4.328 4.954 6.469 9.297h71.718v16.624c0 2.813-1.515 3.47-6.484 3.47-3.672 0-12.953-.438-28.516-.438-14.25 0-22.234 7.344-22.234 17.281 0 12.734 10.578 23.547 18.563 28.938-9.282 5.624-15.766 14.468-15.766 25.28 0 20.735 18.36 39.735 67.828 49.673L88.781 4.75C45.578-1.938 33.484-14.906 33.484-28.516c0-14.03 16.625-23.547 32.828-23.547 9.5 0 14.25 4.11 14.25 9.297 0 5.828-4.75 11.875-14.03 16.625zm0 0"/></symbol></defs><use xlink:href="#c999c50ea" x="72.728" y="191.75"/></svg>