<?xml version='1.0' encoding='UTF-8'?>
<svg xmlns="http://www.w3.org/2000/svg" xmlns:xlink="http://www.w3.org/1999/xlink" width="250px" height="250px" viewBox="0 0 250 250" y="0px" x="0px" enable-background="new 0 0 250 250"><defs><symbol overflow="visible" id="bf908564a"><path d="M134.781-141.703H68.047v2.39l4.312 4.954 6.485 9.297h18.578v61.984c-5.844 7.562-21.61 20.531-42.984 20.531-16.86 0-23.547-9.719-23.547-17.062 0-9.938 14.03-17.938 44.703-17.5l-6.688-16.204c-7.562 0-14.687.438-22.031 1.516-6.922-3.672-14.047-10.594-14.047-18.578 0-7.125 4.328-12.75 15.125-19.875l-8-11.453H-12.53v2.39l4.328 4.954 6.469 9.297h22.25c-4.97 3.234-7.985 7.78-7.985 13.171 0 10.594 10.578 18.36 21.375 23.766v.86C19.875-83.157 12.75-76.032 12.75-66.313c0 17.5 27.203 38.874 49.89 38.874 17.063 0 28.735-7.984 35.641-14.03 0 18.78-.86 31.75-.86 31.75l8.845 5.609 6.703 5.187h3.234v-126.14h29.375v-2.376l-4.312-4.968zm0 0"/></symbol></defs><use xlink:href="#bf908564a" x="56.852" y="191.75"/></svg>