<?xml version="1.0" encoding="UTF-8"?><svg enable-background="new 0 0 250 250" height="250px" viewBox="0 0 250 250" width="250px" x="0px" xml:space="preserve" xmlns="http://www.w3.org/2000/svg" xmlns:xlink="http://www.w3.org/1999/xlink" y="0px"><defs><symbol overflow="visible"><path d="M29.063 0h69.703v-119.172H29.062zm11.234-108.797H87.72v98.422H40.296zm0 0"/></symbol><symbol id="6d0d35f7a" overflow="visible"><path d="M-1.36-98.438h17.844v7.313c0 11.734.688 17.516.688 21.938-6.47 3.39-9.688 4.078-9.688 7.64 0 5.28 8.672 16.156 14.61 22.11h8.843v-59h30.266v90.78l7.14 4.423L73.61.844h2.546v-99.28H99.28v-1.86l-3.405-3.907-5.094-7.313H-9.86v1.86l3.407 3.922zm0 0"/></symbol></defs><use x="78.93" xlink:href="#6d0d35f7a" y="169"/></svg>