<?xml version='1.0' encoding='UTF-8'?>
<svg xmlns="http://www.w3.org/2000/svg" xmlns:xlink="http://www.w3.org/1999/xlink" width="250px" height="250px" viewBox="0 0 250 250" y="0px" x="0px" enable-background="new 0 0 250 250"><defs><symbol overflow="visible" id="f0d651f3a"><path d="M158.328-141.703h-170.86v2.39l4.329 4.954 6.469 9.297h14.687v45.359c0 11.656 7.344 19.219 16.86 25.703 9.062 6.484 19.656 11.453 29.375 11.453 17.28 0 27.218-10.812 27.218-26.578v-55.938h34.344V-9.719l8.844 5.406 6.703 5.391h3.453v-126.14h29.594v-2.376l-4.531-4.968zM49.891-56.813c-9.5 0-17.922-7.124-17.922-18.359v-49.89h35.64v48.812c0 13.61-6.906 19.438-17.718 19.438zm0 0"/></symbol></defs><use xlink:href="#f0d651f3a" x="44.972" y="191.75"/></svg>