<?xml version='1.0' encoding='UTF-8'?>
<svg xmlns="http://www.w3.org/2000/svg" xmlns:xlink="http://www.w3.org/1999/xlink" width="250px" height="250px" viewBox="0 0 250 250" y="0px" x="0px" enable-background="new 0 0 250 250"><defs><symbol overflow="visible" id="6b1f7f34a"><path d="M37.375-78.844v-46.219h42.547v46.22zm90.922-46.219v-2.374l-4.313-4.97-6.703-9.296H-12.53v2.39l4.328 4.954 6.469 9.297h20.53v14.25c0 20.53 1.298 31.968 1.298 31.968-8.438 4.11-9.938 5.828-9.938 9.719 0 6.047 6.266 17.719 17.063 27.656h10.156v-20.953h43.406c0 32.828-1.078 52.703-1.078 52.703l9.281 5.61 6.485 5.187h3.453v-126.14zm0 0"/></symbol></defs><use xlink:href="#6b1f7f34a" x="65.492" y="191.75"/></svg>