<?xml version='1.0' encoding='UTF-8'?>
<svg xmlns="http://www.w3.org/2000/svg" xmlns:xlink="http://www.w3.org/1999/xlink" width="250px" height="250px" viewBox="0 0 250 250" y="0px" x="0px" enable-background="new 0 0 250 250"><defs><symbol overflow="visible" id="6b1f7f34a"><path d="M40.219-84.86v-49.765H86.03v49.766zm97.89-49.765v-2.547l-4.656-5.344-7.203-10H-13.484v2.547l4.656 5.36 6.969 9.984h22.093v15.36c0 22.078 1.391 34.406 1.391 34.406-9.063 4.421-10.703 6.28-10.703 10.453 0 6.515 6.75 19.078 18.375 29.765h10.922v-22.547h46.734c0 35.329-1.156 56.72-1.156 56.72l10 6.046 6.969 5.578h3.718v-135.781zm0 0"/></symbol></defs><use xlink:href="#6b1f7f34a" x="60.94625" y="201.75"/></svg>