<?xml version='1.0' encoding='UTF-8'?>
<svg xmlns="http://www.w3.org/2000/svg" xmlns:xlink="http://www.w3.org/1999/xlink" width="250px" height="250px" viewBox="0 0 250 250" y="0px" x="0px" enable-background="new 0 0 250 250"><defs><symbol overflow="visible" id="90c788c6a"><path d="M-1.734-125.063H62.64c6.703 5.61 11.453 12.954 11.453 21.594 0 12.094-10.156 19.235-29.375 19.235-3.25 0-6.485-.438-9.297-.875l8.203 17.28c2.813.438 5.625.657 8.438.657 6.906 0 12.312-1.297 14.89-2.172 5.844 3.469 12.313 11.453 12.313 22.688 0 11.015-7.985 19.218-20.735 19.218-21.375 0-40.61-21.593-51.625-46.859l-9.937 4.953C11.453-36.5 35.859-10.578 64.156-10.578c20.953 0 32.828-14.485 32.828-30.469 0-17.703-13.171-28.937-21.171-33.687C85.108-79.266 90.5-87.704 90.5-98.281c0-10.156-5.828-19.219-14.031-26.781h42.328v-2.376l-4.531-4.968-6.485-9.297H-12.53v2.39l4.328 4.954zm0 0"/></symbol></defs><use xlink:href="#90c788c6a" x="70.244" y="191.75"/></svg>