<?xml version="1.0" encoding="UTF-8"?><svg enable-background="new 0 0 250 250" height="250px" viewBox="0 0 250 250" width="250px" x="0px" xml:space="preserve" xmlns="http://www.w3.org/2000/svg" xmlns:xlink="http://www.w3.org/1999/xlink" y="0px"><defs><symbol overflow="visible"><path d="M29.063 0h69.703v-119.172H29.062zm11.234-108.797H87.72v98.422H40.296zm0 0"/></symbol><symbol id="af8b52c9a" overflow="visible"><path d="M88.906.844h2.547v-99.28h23.125v-1.86l-3.39-3.907-5.11-7.313H-9.86v1.86l3.407 3.922 5.094 7.296h16.485c-3.734 2.39-5.78 6.297-5.78 10.032 0 7.312 5.108 13.437 17.686 19.562v.672c-11.39 2.72-17 8.844-17 16.656 0 14.11 22.095 30.266 39.095 30.266 13.78 0 22.78-6.297 28.22-11.047 0 13.422-.673 24.64-.673 24.64l6.97 4.423zm-63.062-87.72c0-5.78 3.562-9.515 7.14-11.56h43.688v48.967c-4.594 5.782-17.86 15.986-34.86 15.986-12.75 0-17.843-6.813-17.843-12.422 0-8.157 11.39-14.282 35.53-13.938l-5.266-12.922c-6.968 0-13.093.516-16.828 1.032-7.656-3.922-11.562-9.532-11.562-15.14zm0 0"/></symbol></defs><use x="71.365" xlink:href="#af8b52c9a" y="169"/></svg>