<?xml version='1.0' encoding='UTF-8'?>
<svg xmlns="http://www.w3.org/2000/svg" xmlns:xlink="http://www.w3.org/1999/xlink" width="250px" height="250px" viewBox="0 0 250 250" y="0px" x="0px" enable-background="new 0 0 250 250"><defs><symbol overflow="visible" id="515abbe8a"><path d="M74.172-86.484c0 23.484-10.703 37.656-28.375 37.656-13.484 0-21.61-11.156-21.61-22.547 0-14.188 10.922-21.86 23.938-21.86 3.25 0 7.672.938 10.703 1.626l.922-1.86-10.688-16.969c-3.265-.703-4.89-.937-8.14-.937-19.063 0-33.484 11.406-33.484 32.328 0 11.156 6.046 22.078 13.015 30.453 8.844 10 20 16.735 31.156 16.735 11.625 0 20.235-6.032 24.422-12.313-.234 9.297-1.406 21.39-1.625 34.172l9.297 5.813 6.734 5.343h3.5V-54.64c0-22.78 10.688-37.89 28.36-37.89 12.547 0 21.39 9.765 21.39 21.39 0 14.407-10.234 22.782-24.421 22.782-2.547 0-6.5-.47-9.532-1.157l-.921 1.86 10.453 16.734c3.03.703 5.359.703 8.14.703 19.063 0 33.016-12.093 33.016-33.25 0-10.703-5.578-21.39-13.016-30-8.61-10-19.765-16.5-30.922-16.5-11.625 0-19.53 6.281-23.484 12.094.703-3.953 1.625-17.672 1.625-36.281v-.469h83.234v-2.547l-4.64-5.344-7.219-10H-13.484v2.547l4.656 5.36 6.969 9.984h76.03zm0 0"/></symbol></defs><use xlink:href="#515abbe8a" x="41.0675" y="201.75"/></svg>