<?xml version='1.0' encoding='UTF-8'?>
<svg xmlns="http://www.w3.org/2000/svg" xmlns:xlink="http://www.w3.org/1999/xlink" width="250px" height="250px" viewBox="0 0 250 250" y="0px" x="0px" enable-background="new 0 0 250 250"><defs><symbol overflow="visible" id="3d387059a"><path d="M98.922-45.578c-.203 17.5-1.5 35.86-1.5 35.86l9.281 5.405 6.703 5.391h3.453v-126.14h29.375v-2.376l-4.328-4.968-6.687-9.297H80.14v2.39l4.312 4.954 6.484 9.297h7.344v58.75c-4.328 5.828-20.515 21.593-43.64 21.593-19.438 0-26.563-11.437-26.563-14.89 0-1.735 1.735-2.594 4.328-3.672 13.172-6.063 44.703-20.094 44.703-42.344 0-20.734-19.437-35.86-37.578-35.86-15.125 0-26.781 10.157-26.781 24.407 0 17.281 16.844 27.219 26.125 30.89-11.656 6.266-25.266 10.797-34.766 14.47 6.266 12.312 25.485 42.78 57.453 42.78 21.172 0 34.563-13.187 37.36-16.64zm-68.25-66.531c0-10.141 7.562-15.985 16.625-15.985 7.781 0 14.266 5.844 14.266 14.688 0 9.078-5.829 16.203-14.266 22.25-7.766-3.235-16.625-10.797-16.625-20.953zm0 0"/></symbol></defs><use xlink:href="#3d387059a" x="56.528" y="191.75"/></svg>