<?xml version="1.0" encoding="UTF-8"?><svg enable-background="new 0 0 250 250" height="250px" viewBox="0 0 250 250" width="250px" x="0px" xml:space="preserve" xmlns="http://www.w3.org/2000/svg" xmlns:xlink="http://www.w3.org/1999/xlink" y="0px"><defs><symbol overflow="visible"><path d="M29.063 0h69.703v-119.172H29.062zm11.234-108.797H87.72v98.422H40.296zm0 0"/></symbol><symbol id="a31d6869a" overflow="visible"><path d="M106.078-111.516h-52.53v1.86l3.405 3.922 5.094 7.296h14.625v48.797c-4.594 5.953-17 16.156-33.828 16.156-13.266 0-18.532-7.657-18.532-13.438 0-7.812 11.047-14.11 35.188-13.766l-5.266-12.75c-5.953 0-11.562.344-17.343 1.188-5.437-2.89-11.046-8.328-11.046-14.625 0-5.61 3.39-10.03 11.89-15.64l-6.28-9H-9.86v1.86l3.407 3.92 5.094 7.297h17.516C12.234-95.874 9.86-92.31 9.86-88.06c0 8.328 8.328 14.453 16.828 18.703v.672c-11.047 3.235-16.657 8.844-16.657 16.5 0 13.766 21.423 30.594 39.267 30.594 13.437 0 22.61-6.28 28.047-11.047 0 14.796-.672 24.984-.672 24.984l6.97 4.422L88.905.844h2.547v-99.28h23.125v-1.86l-3.39-3.907zm0 0"/></symbol></defs><use x="71.365" xlink:href="#a31d6869a" y="169"/></svg>