<?xml version='1.0' encoding='UTF-8'?>
<svg xmlns="http://www.w3.org/2000/svg" xmlns:xlink="http://www.w3.org/1999/xlink" width="250px" height="250px" viewBox="0 0 250 250" y="0px" x="0px" enable-background="new 0 0 250 250"><defs><symbol overflow="visible" id="d934f465a"><path d="M112.969 1.078h3.234v-126.14h29.375v-2.376l-4.312-4.968-6.485-9.297H-12.53v2.39l4.328 4.954 6.469 9.297h20.953c-4.75 3.015-7.344 7.984-7.344 12.75 0 9.28 6.484 17.062 22.469 24.828v.875C19.875-83.156 12.75-75.391 12.75-65.453 12.75-47.516 40.828-27 62.422-27c17.5 0 28.953-7.984 35.86-14.047 0 17.078-.86 31.328-.86 31.328l8.844 5.61zm-80.14-111.453c0-7.344 4.546-12.094 9.077-14.688h55.516v62.204c-5.844 7.343-22.688 20.312-44.281 20.312-16.203 0-22.688-8.64-22.688-15.766 0-10.374 14.469-18.156 45.14-17.718l-6.687-16.422c-8.86 0-16.64.656-21.39 1.297-9.72-4.969-14.688-12.094-14.688-19.219zm0 0"/></symbol></defs><use xlink:href="#d934f465a" x="56.852" y="191.75"/></svg>