<?xml version='1.0' encoding='UTF-8'?>
<svg xmlns="http://www.w3.org/2000/svg" xmlns:xlink="http://www.w3.org/1999/xlink" width="250px" height="250px" viewBox="0 0 250 250" y="0px" x="0px" enable-background="new 0 0 250 250"><defs><symbol overflow="visible" id="3af6e87da"><path d="M71.719-11.875c39.515 0 65.219-29.594 65.219-61.563 0-16.64-9.72-30.453-22.672-35.859.437-3.234.859-8.64.859-15.766h39.531v-2.374l-4.531-4.97-6.484-9.296H-12.531v2.39l4.328 4.954 6.469 9.297H8.422c8.64 0 15.125-.657 15.125-.657-4.531 2.813-10.375 9.078-10.375 18.578 0 9.938 7.781 20.532 22.25 28.079v.874c-12.953 3.235-22.469 11.235-22.469 22.672 0 20.735 29.594 43.641 58.766 43.641zm22.453-70.86c0-11.015 6.484-17.062 14.047-17.062 6.687 0 13.61 5.625 13.61 18.36 0 9.937-2.595 19.453-7.345 27.874-10.593-6.484-20.312-16.64-20.312-29.171zM65.016-26.78c-24.407 0-34.344-12.313-34.344-21.813 0-9.515 10.375-19.234 40.172-17.5l-8.422-17.062c-6.047 0-10.36.219-14.688.64-4.75-2.375-15.547-9.937-15.547-21.375 0-9.296 5.61-17.28 13.172-21.171h52.703c0 5.609.22 10.156.438 13.39-12.094 1.516-21.813 10.375-22.469 24.406 0 17.72 15.344 32.188 33.047 41.47-9.719 11.452-24.844 19.015-44.062 19.015zm0 0"/></symbol></defs><use xlink:href="#3af6e87da" x="52.316" y="191.75"/></svg>