<?xml version='1.0' encoding='UTF-8'?>
<svg xmlns="http://www.w3.org/2000/svg" xmlns:xlink="http://www.w3.org/1999/xlink" width="250px" height="250px" viewBox="0 0 250 250" y="0px" x="0px" enable-background="new 0 0 250 250"><defs><symbol overflow="visible" id="6be54ce2a"><path d="M144.5 1.078h3.25v-126.14h29.375v-2.376l-4.328-4.968-6.484-9.297H-12.531v2.39l4.328 4.954 6.469 9.297H31.75v39.312c0 4.313-3.016 7.125-8.64 7.125-3.235 0-7.344-1.297-9.938-2.375l-8.203 8.86c18.797 43.203 50.11 63.937 81 63.937 19.656 0 34.125-6.703 43.844-13.188l-.641 12.11 8.86 5.172zm-25.922-93.734l-6.687-14.703c-3.672-1.72-8.641-3.672-16.844-3.672-17.078 0-28.516 11.672-28.516 27 0 16.422 19.438 38.015 39.735 38.015 12.312 0 20.312-5.609 24.843-9.5 0 0-.422 7.125-.422 13.172v2.594c-7.343 5.844-23.546 15.563-48.39 15.563-36.938 0-51.625-27.22-51.625-30.672 0-1.735.64-2.172 3.031-3.891 13.39-9.938 16.844-14.906 16.844-25.281v-41.031h78.625v52.046c-1.953 3.25-11.89 12.313-27.438 12.313-13.609 0-19.656-8.64-19.656-16.625 0-10.578 8-17.719 20.094-17.719 5.61 0 10.14 1.516 14.906 3.89zm0 0"/></symbol></defs><use xlink:href="#6be54ce2a" x="41.084" y="191.75"/></svg>