<?xml version='1.0' encoding='UTF-8'?>
<svg xmlns="http://www.w3.org/2000/svg" xmlns:xlink="http://www.w3.org/1999/xlink" width="250px" height="250px" viewBox="0 0 250 250" y="0px" x="0px" enable-background="new 0 0 250 250"><defs><symbol overflow="visible" id="335f1666a"><path d="M38.875-78.844v-32.828c0-9.937-5.61-16.625-13.39-22.89-6.47-5.407-12.313-8-19-8-7.344 0-12.97 1.953-18.141 5.625l11.015 18.562c4.313-4.531 9.282-7.125 15.547-7.125 4.11 0 5.39 1.516 5.39 4.11v15.765c0 17.5 1.095 26.781 1.095 26.781-8 3.672-9.735 5.828-9.735 9.719 0 6.047 6.266 17.281 17.078 27.438h10.141v-20.735h43.422c0 32.828-1.078 52.703-1.078 52.703l9.281 5.61 6.703 5.187h3.234v-126.14h29.376v-2.376l-4.313-4.968-6.484-9.297H50.109v2.39l4.328 4.954 6.47 9.297h20.53v46.218zm0 0"/></symbol></defs><use xlink:href="#335f1666a" x="64.736" y="191.75"/></svg>