<?xml version='1.0' encoding='UTF-8'?>
<svg xmlns="http://www.w3.org/2000/svg" xmlns:xlink="http://www.w3.org/1999/xlink" width="250px" height="250px" viewBox="0 0 250 250" y="0px" x="0px" enable-background="new 0 0 250 250"><defs><symbol overflow="visible" id="0fbddbbaa"><path d="M93.938 21.625L59.983-5.344v-.703c26.266 1.39 47.438-11.156 47.438-31.625 0-6.969-1.86-13.937-7.453-23.25-5.344-9.062-11.625-12.312-21.156-12.312-10 0-31.157 6.5-35.797 8.14-4.891-.703-11.625-6.047-11.625-15.344 0-8.843 6.28-14.421 19.53-14.89l32.782-.688c10.234-.703 12.094-3.5 12.094-7.906v-30.703h34.172v-2.547l-4.656-5.344-7.204-10H-13.484v2.547l4.656 5.36 6.969 9.984h77.89v23.484c-3.953-1.156-17.672-2.546-31.39-2.546-18.594 0-29.297 8.828-29.297 23.015 0 11.156 5.344 21.156 12.781 29.297 5.813 6.5 13.5 12.547 20.234 15.11 0 0 23.953-9.297 35.344-9.297 5.578 0 8.828 3.718 8.828 9.53 0 18.594-23.484 27.438-46.969 25.344l-23.25-19.296-9.062 7.203c.703 18.14 14.656 26.265 29.766 27.203l29.53 35.344zm0 0"/></symbol></defs><use xlink:href="#0fbddbbaa" x="65.015" y="201.75"/></svg>