<?xml version="1.0" encoding="UTF-8"?><svg enable-background="new 0 0 250 250" height="250px" viewBox="0 0 250 250" width="250px" x="0px" xml:space="preserve" xmlns="http://www.w3.org/2000/svg" xmlns:xlink="http://www.w3.org/1999/xlink" y="0px"><defs><symbol overflow="visible"><path d="M29.063 0h69.703v-119.172H29.062zm11.234-108.797H87.72v98.422H40.296zm0 0"/></symbol><symbol id="68ce019da" overflow="visible"><path d="M56.438-9.344c31.11 0 51.343-23.297 51.343-48.453 0-13.094-7.655-23.97-17.843-28.22.33-2.546.672-6.796.672-12.42h31.11v-1.86l-3.564-3.906-5.11-7.313H-9.858v1.86l3.407 3.922 5.094 7.296h7.985c6.813 0 11.906-.5 11.906-.5-3.577 2.204-8.155 7.14-8.155 14.626 0 7.812 6.11 16.14 17.5 22.093v.673c-10.188 2.563-17.672 8.844-17.672 17.86 0 16.312 23.28 34.343 46.234 34.343zM74.124-65.11c0-8.67 5.094-13.437 11.047-13.437 5.266 0 10.703 4.422 10.703 14.453 0 7.828-2.03 15.297-5.78 21.938-8.33-5.11-15.97-13.094-15.97-22.953zM51.172-21.077c-19.22 0-27.03-9.688-27.03-17.172s8.155-15.125 31.624-13.766l-6.64-13.437c-4.75 0-8.157.172-11.563.516-3.735-1.876-12.235-7.83-12.235-16.83 0-7.31 4.422-13.608 10.375-16.67h41.484c0 4.42.157 8 .33 10.546C68-86.704 60.343-79.735 59.843-68.688c0 13.953 12.062 25.343 26 32.64-7.64 9.016-19.547 14.97-34.672 14.97zm0 0"/></symbol></defs><use x="67.795" xlink:href="#68ce019da" y="169"/></svg>