<?xml version='1.0' encoding='UTF-8'?>
<svg xmlns="http://www.w3.org/2000/svg" xmlns:xlink="http://www.w3.org/1999/xlink" width="250px" height="250px" viewBox="0 0 250 250" y="0px" x="0px" enable-background="new 0 0 250 250"><defs><symbol overflow="visible" id="d934f465a"><path d="M121.594 1.156h3.484v-135.781h31.625v-2.547l-4.64-5.344-6.985-10H-13.484v2.547l4.656 5.36 6.969 9.984h22.547c-5.11 3.266-7.907 8.61-7.907 13.719 0 10 6.985 18.375 24.188 26.75v.922c-15.578 3.718-23.25 12.093-23.25 22.78 0 19.298 30.218 41.391 53.468 41.391 18.844 0 31.157-8.609 38.594-15.109 0 18.36-.922 33.703-.922 33.703l9.532 6.047zm-86.25-119.969c0-7.906 4.875-13.015 9.765-15.812h59.75v66.969c-6.28 7.906-24.421 21.86-47.671 21.86-17.438 0-24.407-9.313-24.407-16.985 0-11.157 15.578-19.532 48.594-19.063l-7.203-17.672c-9.531 0-17.906.704-23.016 1.407-10.468-5.36-15.812-13.032-15.812-20.704zm0 0"/></symbol></defs><use xlink:href="#d934f465a" x="51.64625" y="201.75"/></svg>