<?xml version="1.0" encoding="UTF-8"?><svg enable-background="new 0 0 250 250" height="250px" viewBox="0 0 250 250" width="250px" x="0px" xml:space="preserve" xmlns="http://www.w3.org/2000/svg" xmlns:xlink="http://www.w3.org/1999/xlink" y="0px"><defs><symbol overflow="visible"><path d="M29.063 0h69.703v-119.172H29.062zm11.234-108.797H87.72v98.422H40.296zm0 0"/></symbol><symbol id="e2af239ba" overflow="visible"><path d="M-1.36-98.438h46.75c1.876 1.532 6.126 5.454 6.126 11.563 0 6.125-3.407 10.203-13.266 13.094l-12.063 3.733C10.876-65.625 5.438-58.14 5.438-48.953c0 18.187 21.594 37.047 45.563 37.047 20.734 0 35.36-12.578 35.36-28.89 0-14.11-10.704-22.267-19.547-29.25-1.532-1.016-3.235-2.376-3.235-4.08 0-3.06 2.22-4.92 2.22-10.186 0-6.985-3.923-12.25-5.61-14.126h38.92v-1.86l-3.405-3.905-5.094-7.313H-9.86v1.86l3.407 3.922zM33.83-58.14c12.578-4.594 19.22-6.297 22.78-6.297 6.126 0 15.642 7.828 15.642 18.874 0 12.922-11.563 22.11-27.875 22.11-16.5 0-25.5-9.53-25.5-19.22 0-6.796 4.578-11.89 14.953-15.468zm0 0"/></symbol></defs><use x="79.1" xlink:href="#e2af239ba" y="169"/></svg>