<?xml version="1.0" encoding="UTF-8"?><svg enable-background="new 0 0 250 250" height="250px" viewBox="0 0 250 250" width="250px" x="0px" xml:space="preserve" xmlns="http://www.w3.org/2000/svg" xmlns:xlink="http://www.w3.org/1999/xlink" y="0px"><defs><symbol overflow="visible"><path d="M29.063 0h69.703v-119.172H29.062zm11.234-108.797H87.72v98.422H40.296zm0 0"/></symbol><symbol id="6d4395e5a" overflow="visible"><path d="M64.094-11.047c6.625-4.078 10.36-10.203 10.36-16.656 0-13.61-12.75-24.485-29.75-24.485-4.58 0-9.173.844-13.423 2.376-5.264-4.08-7.14-8.672-7.14-12.235 0-5.11 3.735-8.156 10.876-8.156H57.97c7.983 0 10.874-2.22 10.874-6.984v-21.25h20.578v-1.86l-3.406-3.906-5.094-7.313h-90.78v1.86l3.405 3.922 5.094 7.296H55.08v13.094c0 2.22-1.187 2.72-5.094 2.72-2.89 0-10.203-.33-22.437-.33-11.235 0-17.516 5.766-17.516 13.595 0 10.032 8.33 18.532 14.626 22.782-7.312 4.422-12.422 11.39-12.422 19.89 0 16.313 14.454 31.282 53.39 39.094l4.25-8.672c-34-5.265-43.53-15.468-43.53-26.172 0-11.046 13.093-18.53 25.843-18.53 7.485 0 11.22 3.234 11.22 7.312 0 4.593-3.735 9.343-11.048 13.093zm0 0"/></symbol></defs><use x="83.86" xlink:href="#6d4395e5a" y="169"/></svg>