<?xml version='1.0' encoding='UTF-8'?>
<svg xmlns="http://www.w3.org/2000/svg" xmlns:xlink="http://www.w3.org/1999/xlink" width="250px" height="250px" viewBox="0 0 250 250" y="0px" x="0px" enable-background="new 0 0 250 250"><defs><symbol overflow="visible" id="4b403f60a"><path d="M74.86-4.422c-24.172-24.64-40.922-46.953-40.922-50.906 0-2.094 1.171-2.797 2.796-3.734 14.188-10.22 18.828-16.5 18.828-28.829v-46.734h31.86v-2.547l-4.656-5.344-6.97-10h-89.28v2.547l4.656 5.36 6.969 9.984h36.968v45.813c0 4.421-3.03 7.203-8.843 7.203-3.72 0-7.891-.922-11.625-2.329l-8.36 9.313c2.782 6.266 9.297 18.828 27.203 41.61l28.36 36.03zm0 0"/></symbol></defs><use xlink:href="#4b403f60a" x="86.28875" y="201.75"/></svg>