<?xml version='1.0' encoding='UTF-8'?>
<svg xmlns="http://www.w3.org/2000/svg" xmlns:xlink="http://www.w3.org/1999/xlink" width="250px" height="250px" viewBox="0 0 250 250" y="0px" x="0px" enable-background="new 0 0 250 250"><defs><symbol overflow="visible" id="515abbe8a"><path d="M68.906-80.36c0 21.829-9.937 35-26.36 35-12.515 0-20.077-10.374-20.077-20.953 0-13.171 10.14-20.296 22.25-20.296 3.015 0 7.125.859 9.922 1.5l.875-1.72-9.938-15.765c-3.031-.656-4.531-.875-7.562-.875-17.72 0-31.11 10.594-31.11 30.031 0 10.36 5.625 20.516 12.11 28.297 8.203 9.282 18.562 15.547 28.937 15.547 10.797 0 18.797-5.61 22.672-11.453-.203 8.64-1.281 19.875-1.5 31.766l8.64 5.39 6.266 4.97h3.235v-51.845c0-21.156 9.937-35.203 26.343-35.203 11.672 0 19.875 9.078 19.875 19.875 0 13.39-9.5 21.172-22.672 21.172-2.374 0-6.046-.437-8.859-1.094l-.86 1.735 9.72 15.547c2.796.656 4.968.656 7.562.656 17.703 0 30.672-11.235 30.672-30.89 0-9.938-5.188-19.876-12.11-27.86-7.984-9.297-18.359-15.344-28.718-15.344-10.797 0-18.14 5.828-21.813 11.234.64-3.671 1.5-16.421 1.5-33.687v-.438h77.328v-2.374l-4.312-4.97-6.703-9.296h-166.75v2.39l4.328 4.954 6.469 9.297h70.64zm0 0"/></symbol></defs><use xlink:href="#515abbe8a" x="47.024" y="191.75"/></svg>