<?xml version="1.0" encoding="UTF-8"?><svg enable-background="new 0 0 250 250" height="250px" viewBox="0 0 250 250" width="250px" x="0px" xml:space="preserve" xmlns="http://www.w3.org/2000/svg" xmlns:xlink="http://www.w3.org/1999/xlink" y="0px"><defs><symbol overflow="visible"><path d="M29.063 0h69.703v-119.172H29.062zm11.234-108.797H87.72v98.422H40.296zm0 0"/></symbol><symbol id="73695c6aa" overflow="visible"><path d="M-1.36-98.438h50.657c5.266 4.422 9.016 10.204 9.016 17 0 9.532-8 15.14-23.126 15.14-2.546 0-5.093-.343-7.312-.686l6.47 13.61c2.202.327 4.42.5 6.624.5 5.436 0 9.686-1.017 11.733-1.688 4.594 2.718 9.688 9 9.688 17.843 0 8.673-6.296 15.126-16.328 15.126-16.828 0-31.953-17-40.624-36.89l-7.813 3.922C9.015-28.735 28.22-8.328 50.485-8.328c16.5 0 25.843-11.39 25.843-23.97 0-13.936-10.375-22.78-16.656-26.514 7.312-3.58 11.562-10.204 11.562-18.532 0-8-4.593-15.14-11.046-21.094H93.5v-1.86l-3.563-3.905-5.11-7.313H-9.858v1.86l3.407 3.922zm0 0"/></symbol></defs><use x="81.905" xlink:href="#73695c6aa" y="169"/></svg>