<?xml version="1.0" encoding="UTF-8"?><svg enable-background="new 0 0 250 250" height="250px" viewBox="0 0 250 250" width="250px" x="0px" xml:space="preserve" xmlns="http://www.w3.org/2000/svg" xmlns:xlink="http://www.w3.org/1999/xlink" y="0px"><defs><symbol overflow="visible"><path d="M29.063 0h69.703v-119.172H29.062zm11.234-108.797H87.72v98.422H40.296zm0 0"/></symbol><symbol id="5a8eb164a" overflow="visible"><path d="M35.875-49.64c-6.47 0-11.22-3.907-11.22-12.235v-36.563H56.61v38.094C51.515-54.062 44.03-49.64 35.874-49.64zm35.016 9.687c0-14.953 8.844-24.813 21.08-24.813 9.514 0 16.155 7.313 16.155 16.14 0 10.892-7.656 17.345-18.188 17.345-1.703 0-4.093-.345-5.953-.845l-.687 1.36 7.828 12.406c1.86.344 3.39.344 5.266.344 13.094 0 24.313-9.015 24.313-24.656 0-8.328-4.422-16.14-9.36-22.094-6.452-8-14.61-13.437-23.11-13.437-9.358 0-15.296 5.11-17.686 8.672 0 0 .516-10.376.516-23.126v-5.78h61.874v-1.86l-3.39-3.907-5.11-7.313H-9.858v1.86l3.407 3.922 5.094 7.296H9.688v30.61c0 10.375 5.782 16.14 13.438 21.922 5.78 4.593 11.72 8 19.72 8 4.92 0 10.03-2.047 14.108-5.11-.172 18.532-.86 35.032-.86 35.032l6.97 4.421 5.28 4.407h2.548zm0 0"/></symbol></defs><use x="62.185" xlink:href="#5a8eb164a" y="169"/></svg>