<?xml version="1.0" encoding="UTF-8"?><svg enable-background="new 0 0 250 250" height="250px" viewBox="0 0 250 250" width="250px" x="0px" xml:space="preserve" xmlns="http://www.w3.org/2000/svg" xmlns:xlink="http://www.w3.org/1999/xlink" y="0px"><defs><symbol overflow="visible"><path d="M29.063 0h69.703v-119.172H29.062zm11.234-108.797H87.72v98.422H40.296zm0 0"/></symbol><symbol id="14c47bbea" overflow="visible"><path d="M81.266.844v-99.28h23.11v-1.86l-3.392-3.907-5.11-7.313H-9.858v1.86l3.407 3.922 5.094 7.296h22.61c3.563 4.094 7.484 9.704 7.484 16.33 0 6.967-5.437 13.764-26.015 21.077 9.514 18.358 22.093 34.17 41.827 34.17 10.875 0 18.687-4.765 22.437-8.843 0 14.797-.86 28.047-.86 28.047l7.314 4.422L78.703.844zM40.126-39.61c-14.282 0-19.392-9.343-19.392-12.75 0-1.015.516-1.874 1.703-2.374 16.657-8.5 20.235-14.97 20.235-22.61 0-6.47-4.25-13.78-10.875-21.094h34.5v45.063c-3.563 6.453-13.25 13.766-26.172 13.766zm0 0"/></symbol></defs><use x="76.38" xlink:href="#14c47bbea" y="169"/></svg>