<?xml version='1.0' encoding='UTF-8'?>
<svg xmlns="http://www.w3.org/2000/svg" xmlns:xlink="http://www.w3.org/1999/xlink" width="250px" height="250px" viewBox="0 0 250 250" y="0px" x="0px" enable-background="new 0 0 250 250"><defs><symbol overflow="visible" id="bda21b38a"><path d="M75.813-4.11l6.703 5.188h3.234v-126.14h29.375v-2.376l-4.313-4.968-6.703-9.297H-12.53v2.39l4.328 4.954 6.469 9.297H66.75v38.015H11.656c-4.094 0-7.984 3.016-7.984 8.64 0 10.36 5.61 22.673 11.672 30.016l10.36-.859s-.438-5.39-.438-10.797c0-8.422.875-9.937 3.89-9.937H67.61c0 39.75-.859 60.265-.859 60.265zm0 0"/></symbol></defs><use xlink:href="#bda21b38a" x="72.08" y="191.75"/></svg>