<?xml version='1.0' encoding='UTF-8'?>
<svg xmlns="http://www.w3.org/2000/svg" xmlns:xlink="http://www.w3.org/1999/xlink" width="250px" height="250px" viewBox="0 0 250 250" y="0px" x="0px" enable-background="new 0 0 250 250"><defs><symbol overflow="visible" id="2464bed5a"><path d="M-1.734-125.063h59.406c2.375 1.938 7.781 6.907 7.781 14.688 0 7.781-4.328 12.953-16.86 16.625l-15.327 4.766c-19.438 5.609-26.36 15.109-26.36 26.78 0 23.11 27.438 47.079 57.89 47.079 26.36 0 44.938-15.984 44.938-36.719 0-17.922-13.609-28.297-24.843-37.14-1.954-1.297-4.11-3.032-4.11-5.188 0-3.89 2.813-6.266 2.813-12.969 0-8.843-4.969-15.546-7.125-17.921h49.453v-2.376l-4.313-4.968-6.484-9.297H-12.531v2.39l4.328 4.954zm44.718 51.188c15.985-5.828 24.407-7.984 28.938-7.984 7.781 0 19.875 9.937 19.875 23.968 0 16.422-14.688 28.078-35.422 28.078-20.953 0-32.406-12.093-32.406-24.406 0-8.64 5.843-15.125 19.015-19.656zm0 0"/></symbol></defs><use xlink:href="#2464bed5a" x="66.68" y="191.75"/></svg>