<?xml version='1.0' encoding='UTF-8'?>
<svg xmlns="http://www.w3.org/2000/svg" xmlns:xlink="http://www.w3.org/1999/xlink" width="250px" height="250px" viewBox="0 0 250 250" y="0px" x="0px" enable-background="new 0 0 250 250"><defs><symbol overflow="visible" id="95020df3a"><path d="M113.688 22.781c4.656-6.047 6.75-13.25 6.75-19.297 0-12.312-7.438-21.156-20-28.593L40.453-59.75v-74.875h48.125c.234 9.078.703 23.031.703 41.625 0 11.156-6.515 17.672-20.922 22.094L87.422-59.75c13.016-5.125 21.86-14.875 21.86-33.016v-41.859h30.452v-2.547l-4.89-5.344-6.969-10h-141.36v2.547l4.657 5.36 6.969 9.984h21.39v76.734l66.266 38.36c10 5.812 15.344 11.39 15.344 18.593 0 5.594-3.266 12.094-8.375 17.438zm0 0"/></symbol></defs><use xlink:href="#95020df3a" x="60.1325" y="201.75"/></svg>