<?xml version='1.0' encoding='UTF-8'?>
<svg xmlns="http://www.w3.org/2000/svg" xmlns:xlink="http://www.w3.org/1999/xlink" width="250px" height="250px" viewBox="0 0 250 250" y="0px" x="0px" enable-background="new 0 0 250 250"><defs><symbol overflow="visible" id="8651d0bba"><path d="M49.063-67.89c-8.844 0-15.344-5.344-15.344-16.735v-50h43.703v52.094c-6.969 8.594-17.203 14.64-28.36 14.64zm47.89 13.25c0-20.454 12.094-33.938 28.828-33.938 13.016 0 22.094 10 22.094 22.078 0 14.89-10.469 23.719-24.875 23.719-2.328 0-5.594-.469-8.14-1.157l-.938 1.86 10.703 16.969c2.547.468 4.64.468 7.203.468 17.906 0 33.25-12.328 33.25-33.718 0-11.391-6.047-22.078-12.797-30.22-8.828-10.937-19.984-18.374-31.61-18.374-12.796 0-20.921 6.984-24.187 11.86 0 0 .704-14.188.704-31.626v-7.906h84.624v-2.547l-4.64-5.344-6.984-10H-13.484v2.547l4.656 5.36 6.969 9.984H13.25v41.86c0 14.187 7.906 22.078 18.375 29.984 7.906 6.281 16.031 10.937 26.969 10.937 6.734 0 13.718-2.797 19.297-6.984-.235 25.344-1.172 47.906-1.172 47.906l9.531 6.047 7.219 6.031h3.484zm0 0"/></symbol></defs><use xlink:href="#8651d0bba" x="39.09125" y="201.75"/></svg>