<?xml version='1.0' encoding='UTF-8'?>
<svg xmlns="http://www.w3.org/2000/svg" xmlns:xlink="http://www.w3.org/1999/xlink" width="250px" height="250px" viewBox="0 0 250 250" y="0px" x="0px" enable-background="new 0 0 250 250"><defs><symbol overflow="visible" id="a14bb73ba"><path d="M161.563-125.063v-2.374l-4.313-4.97-6.703-9.296H-12.531v2.39l4.328 4.954 6.469 9.297h114.703v51.843c-4.75 1.938-11.875 2.594-19.016 2.156-1.078-5.187-3.672-11.234-9.062-17.5-8-9.5-16.422-13.609-27.22-13.609-10.796 0-19.437 6.266-23.546 10.156l13.39 15.766c5.407-6.266 12.75-10.36 19.235-10.36 7.984 0 12.953 6.047 12.953 13.594 0 11.891-9.281 22.907-24.187 22.907-18.578 0-35.641-19.438-47.313-44.938l-10.36 6.266C14.47-55.937 36.282-33.484 61.985-33.484c17.282 0 28.735-10.578 31.766-23.75 5.828 1.5 13.172 2.156 19.86 1.297 0 29.374-.641 46.218-.641 46.218l9.281 5.61 6.484 5.187h3.453v-126.14zm0 0"/></symbol></defs><use xlink:href="#a14bb73ba" x="48.86" y="191.75"/></svg>