<?xml version='1.0' encoding='UTF-8'?>
<svg xmlns="http://www.w3.org/2000/svg" xmlns:xlink="http://www.w3.org/1999/xlink" width="250px" height="250px" viewBox="0 0 250 250" y="0px" x="0px" enable-background="new 0 0 250 250"><defs><symbol overflow="visible" id="1de63614a"><path d="M78.125-80.219c-10 0-17.438-1.156-23.016-2.312.453-1.64.453-3.5.453-5.36v-46.734h48.126v50.234c-7.672 2.782-14.641 4.172-25.563 4.172zM74.172-4.875c-24.188-24.656-40.453-46.5-40.453-50.453 0-2.094 1.39-2.797 2.781-3.734 6.281-4.407 10.703-8.126 13.719-12.079 7.437 3.954 20.234 8.36 34.172 8.36 8.609 0 14.656-1.157 20.468-2.782 0 33.485-1.171 55.094-1.171 55.094l9.765 6.047 7.219 5.578h3.484v-135.781H156v-2.547l-4.875-5.344-6.969-10h-157.64v2.547l4.656 5.36 6.969 9.984h36.968v45.813c0 4.421-3.03 7.203-8.843 7.203-3.72 0-7.891-.922-11.625-2.329l-8.36 9.313c2.782 6.266 9.297 18.828 27.203 41.61L61.141 2.327zm0 0"/></symbol></defs><use xlink:href="#1de63614a" x="51.995" y="201.75"/></svg>