<?xml version='1.0' encoding='UTF-8'?>
<svg xmlns="http://www.w3.org/2000/svg" xmlns:xlink="http://www.w3.org/1999/xlink" width="250px" height="250px" viewBox="0 0 250 250" y="0px" x="0px" enable-background="new 0 0 250 250"><defs><symbol overflow="visible" id="335f1666a"><path d="M41.844-84.86v-35.343c0-10.688-6.032-17.906-14.407-24.64-6.984-5.813-13.25-8.61-20.468-8.61-7.907 0-13.938 2.094-19.532 6.047l11.86 20c4.656-4.89 10-7.672 16.75-7.672 4.406 0 5.812 1.625 5.812 4.406v16.984c0 18.829 1.157 28.829 1.157 28.829-8.594 3.953-10.453 6.28-10.453 10.453 0 6.515 6.734 18.61 18.359 29.531h10.922v-22.313h46.734c0 35.329-1.156 56.72-1.156 56.72l10 6.046 7.203 5.578h3.484v-135.781h31.625v-2.547l-4.656-5.344-6.969-10H53.937v2.547l4.657 5.36 6.968 9.984h22.094v49.766zm0 0"/></symbol></defs><use xlink:href="#335f1666a" x="60.1325" y="201.75"/></svg>