<?xml version="1.0" encoding="UTF-8"?><svg enable-background="new 0 0 250 250" height="250px" viewBox="0 0 250 250" width="250px" x="0px" xml:space="preserve" xmlns="http://www.w3.org/2000/svg" xmlns:xlink="http://www.w3.org/1999/xlink" y="0px"><defs><symbol overflow="visible"><path d="M29.063 0h69.703v-119.172H29.062zm11.234-108.797H87.72v98.422H40.296zm0 0"/></symbol><symbol id="d3d2c8a6a" overflow="visible"><path d="M83.125 16.656c3.406-4.422 4.938-9.687 4.938-14.11 0-9-5.438-15.468-14.626-20.905l-43.86-25.328v-54.75h35.19c.17 6.64.514 16.844.514 30.438 0 8.156-4.764 12.922-15.296 16.156l13.938 8.157c9.516-3.75 15.984-10.876 15.984-24.14v-30.61h22.266v-1.86l-3.578-3.906-5.094-7.313H-9.86v1.86l3.407 3.922 5.094 7.296h15.64v56.11L62.735-14.28c7.313 4.25 11.22 8.327 11.22 13.592 0 4.094-2.39 8.844-6.126 12.75zm0 0"/></symbol></defs><use x="77.57" xlink:href="#d3d2c8a6a" y="169"/></svg>