<?xml version="1.0" encoding="UTF-8"?><svg enable-background="new 0 0 250 250" height="250px" viewBox="0 0 250 250" width="250px" x="0px" xml:space="preserve" xmlns="http://www.w3.org/2000/svg" xmlns:xlink="http://www.w3.org/1999/xlink" y="0px"><defs><symbol overflow="visible"><path d="M29.063 0h69.703v-119.172H29.062zm11.234-108.797H87.72v98.422H40.296zm0 0"/></symbol><symbol id="6a67b20ba" overflow="visible"><path d="M57.125-58.656c-7.313 0-12.75-.844-16.828-1.688.328-1.203.328-2.562.328-3.922v-34.17h35.188v36.733c-5.61 2.03-10.704 3.047-18.688 3.047zm-2.89 55.093c-17.688-18.03-29.58-34-29.58-36.89 0-1.53 1.017-2.047 2.032-2.734 4.594-3.22 7.83-5.938 10.032-8.83 5.436 2.892 14.796 6.11 24.983 6.11 6.297 0 10.72-.843 14.97-2.03 0 24.484-.86 40.28-.86 40.28l7.14 4.423 5.28 4.078h2.548v-99.28h23.282v-1.86l-3.562-3.907-5.094-7.313H-9.86v1.86l3.407 3.922 5.094 7.296h27.032v33.5c0 3.235-2.22 5.266-6.47 5.266-2.718 0-5.765-.672-8.5-1.703l-6.108 6.813c2.03 4.578 6.797 13.765 19.89 30.42l20.22 25.845zm0 0"/></symbol></defs><use x="71.62" xlink:href="#6a67b20ba" y="169"/></svg>