<?xml version='1.0' encoding='UTF-8'?>
<svg xmlns="http://www.w3.org/2000/svg" xmlns:xlink="http://www.w3.org/1999/xlink" width="250px" height="250px" viewBox="0 0 250 250" y="0px" x="0px" enable-background="new 0 0 250 250"><defs><symbol overflow="visible" id="8da576baa"><path d="M42.125-98.5c-21.61 4.969-35 14.266-35 31.328 0 26.781 31.969 48.594 57.25 48.594 6.688 0 12.313-.64 16.844-2.594l12.953 32.188 16.64-4.75-19.656-31.97c5.39-3.233 7.766-7.124 7.766-11.452 0-8.86-9.5-15.11-21.594-21.375l-9.281 5.61 6.047 15.124c-3.031 1.719-8.64 4.094-19.453 4.094-18.36 0-30.235-12.313-30.235-25.047 0-11.453 7.782-18.797 25.485-23.547l16.422-4.531c19.437-5.406 21.593-9.078 21.593-17.5v-20.734h29.813v-2.376l-4.531-4.968-6.485-9.297H-12.53v2.39l4.328 4.954 6.469 9.297h70.859v14.468c0 4.969-1.297 6.047-27 12.094zm0 0"/></symbol></defs><use xlink:href="#8da576baa" x="70.784" y="191.75"/></svg>