<?xml version="1.0" encoding="UTF-8"?><svg enable-background="new 0 0 250 250" height="250px" viewBox="0 0 250 250" width="250px" x="0px" xml:space="preserve" xmlns="http://www.w3.org/2000/svg" xmlns:xlink="http://www.w3.org/1999/xlink" y="0px"><defs><symbol overflow="visible"><path d="M29.063 0h69.703v-119.172H29.062zm11.234-108.797H87.72v98.422H40.296zm0 0"/></symbol><symbol id="69b5deaca" overflow="visible"><path d="M125.97-98.438v-1.86l-3.407-3.905-5.266-7.313h-53.72v1.86l3.407 3.922 5.266 7.296h15.813v26.532c0 8.5-3.235 12.234-14.282 12.234-9.014 0-17.343-3.562-21.936-5.953 6.812-3.906 10.89-9.516 10.89-17 0-13.422-15.812-29.578-34.172-29.578-7.484 0-14.968 1.703-20.75 4.422L18.36-94.517c6.124-2.89 12.578-5.11 19.046-5.11 7.985 0 13.25 3.75 13.25 11.22 0 9.703-12.234 14.797-29.406 18.203l8.844 12.234c5.61-1.186 11.047-2.546 15.64-4.593 4.578 3.75 8.157 9.188 8.157 15.813 0 8.5-5.093 15.125-15.468 15.125-12.406 0-23.97-10.188-32.297-26.516l-7.656 4.25C9.515-31.454 24.983-18.36 42.5-18.36c15.297 0 24.313-9.687 24.313-22.61 0-6.968-3.235-12.405-4.422-14.108 8.5 4.078 13.266 6.28 18.704 6.28 2.375 0 5.094-.327 7.312-1.514 0 16.484-.687 33.312-.687 42.656l7.31 4.422 5.267 4.078h2.547v-99.28zm0 0"/></symbol></defs><use x="65.67" xlink:href="#69b5deaca" y="169"/></svg>