<?xml version='1.0' encoding='UTF-8'?>
<svg xmlns="http://www.w3.org/2000/svg" xmlns:xlink="http://www.w3.org/1999/xlink" width="250px" height="250px" viewBox="0 0 250 250" y="0px" x="0px" enable-background="new 0 0 250 250"><defs><symbol overflow="visible" id="bd71dcc0a"><path d="M160.656-134.625v-2.547L156-142.516l-6.969-10H-13.484v2.547l4.656 5.36 6.969 9.984h110.437v64.172C98.578-56.5 84.86-45.11 67.422-45.11c-16.266 0-23.938-9.766-23.938-20.22 0-12.796 9.985-22.093 21.391-24.655 4.406.234 15.344.703 29.75.703v-2.563l-4.64-5.812-6.75-9.531H-3.954v2.562l4.89 5.578 6.5 9.531h9.766c11.625 0 16.735-.468 16.735-.468-4.876 3.5-9.063 9.312-9.063 18.14 0 10.235 5.813 19.531 15.11 28.14 9.078 8.36 20.234 14.642 33.25 14.642 16.046 0 28.14-6.75 36.5-17.204-.235 20.22-1.391 35.797-1.391 35.797l10 6.047 7.203 5.578h3.484v-135.781zm0 0"/></symbol></defs><use xlink:href="#bd71dcc0a" x="49.67" y="201.75"/></svg>