<?xml version='1.0' encoding='UTF-8'?>
<svg xmlns="http://www.w3.org/2000/svg" xmlns:xlink="http://www.w3.org/1999/xlink" width="250px" height="250px" viewBox="0 0 250 250" y="0px" x="0px" enable-background="new 0 0 250 250"><defs><symbol overflow="visible" id="8da576baa"><path d="M45.344-106.016c-23.25 5.344-37.672 15.344-37.672 33.704C7.672-43.484 42.078-20 69.282-20c7.218 0 13.25-.688 18.14-2.781l13.953 34.64 17.89-5.109L98.11-27.672c5.813-3.484 8.375-7.672 8.375-12.312 0-9.532-10.234-16.282-23.25-23.016l-10 6.031 6.516 16.282c-3.25 1.859-9.297 4.421-20.922 4.421-19.766 0-32.562-13.25-32.562-26.968 0-12.328 8.375-20.235 27.437-25.344l17.672-4.89c20.922-5.813 23.25-9.766 23.25-18.829v-22.328h32.094v-2.547l-4.89-5.344-6.97-10H-13.484v2.547l4.656 5.36 6.969 9.984h76.265v15.578c0 5.36-1.406 6.516-29.062 13.031zm0 0"/></symbol></defs><use xlink:href="#8da576baa" x="66.6425" y="201.75"/></svg>