<?xml version="1.0" encoding="UTF-8"?><svg enable-background="new 0 0 250 250" height="250px" viewBox="0 0 250 250" width="250px" x="0px" xml:space="preserve" xmlns="http://www.w3.org/2000/svg" xmlns:xlink="http://www.w3.org/1999/xlink" y="0px"><defs><symbol overflow="visible"><path d="M29.063 0h69.703v-119.172H29.062zm11.234-108.797H87.72v98.422H40.296zm0 0"/></symbol><symbol id="6ceb9cb8a" overflow="visible"><path d="M124.61-111.516H-9.86v1.86l3.407 3.922 5.094 7.296h11.563v35.704c0 9.187 5.78 15.14 13.25 20.234 7.14 5.094 15.485 9.016 23.125 9.016 13.61 0 21.422-8.5 21.422-20.922v-44.032h27.03v90.782l6.97 4.25 5.266 4.25h2.718v-99.28h23.297v-1.86l-3.577-3.907zM39.265-44.703c-7.47 0-14.11-5.61-14.11-14.453v-39.282h28.047v38.422c0 10.72-5.437 15.313-13.937 15.313zm0 0"/></symbol></defs><use x="62.015" xlink:href="#6ceb9cb8a" y="169"/></svg>