<?xml version='1.0' encoding='UTF-8'?>
<svg xmlns="http://www.w3.org/2000/svg" xmlns:xlink="http://www.w3.org/1999/xlink" width="250px" height="250px" viewBox="0 0 250 250" y="0px" x="0px" enable-background="new 0 0 250 250"><defs><symbol overflow="visible" id="9e4a6f45a"><path d="M98.281 1.078h3.235v-126.14h29.375v-2.376l-4.313-4.968-6.484-9.297H-12.531v2.39l4.328 4.954 6.469 9.297h15.78v45.14c0 12.313 4.095 19.016 14.892 27.438C41.25-43.204 49.03-41.25 56.813-41.25c9.718 0 19.656-5.188 26.78-11.453C83.376-28.078 82.517-9.5 82.517-9.5l9.062 5.39zm-50.11-56.156c-8.64 0-15.343-5.188-15.343-13.61v-13.609c0-16.844-1.078-27.219-1.078-27.219l45.578 41.907c-8.422 8-18.14 12.53-29.156 12.53zM31.97-125.062h51.187v18.578c0 15.328.875 30.89.875 30.89l-52.062-48.61zm0 0"/></symbol></defs><use xlink:href="#9e4a6f45a" x="64.196" y="191.75"/></svg>