<?xml version="1.0" encoding="UTF-8"?><svg enable-background="new 0 0 250 250" height="250px" viewBox="0 0 250 250" width="250px" x="0px" xml:space="preserve" xmlns="http://www.w3.org/2000/svg" xmlns:xlink="http://www.w3.org/1999/xlink" y="0px"><defs><symbol overflow="visible"><path d="M29.063 0h69.703v-119.172H29.062zm11.234-108.797H87.72v98.422H40.296zm0 0"/></symbol><symbol id="241a6219a" overflow="visible"><path d="M33.156-77.516c-17 3.907-27.547 11.22-27.547 24.64 0 21.08 25.156 38.25 45.046 38.25 5.282 0 9.688-.5 13.266-2.03L74.125 8.672l13.078-3.735-15.47-25.17c4.25-2.548 6.126-5.61 6.126-9 0-6.97-7.485-11.908-17-16.83l-7.313 4.407 4.766 11.906c-2.376 1.36-6.797 3.234-15.297 3.234-14.453 0-23.813-9.687-23.813-19.718 0-9.016 6.125-14.797 20.063-18.532l12.922-3.578c15.296-4.25 17-7.14 17-13.765v-16.328h23.468v-1.86l-3.578-3.905-5.094-7.313H-9.86v1.86l3.407 3.922 5.094 7.296h55.766v11.39c0 3.923-1.03 4.767-21.25 9.532zm0 0"/></symbol></defs><use x="82.33" xlink:href="#241a6219a" y="169"/></svg>