<?xml version='1.0' encoding='UTF-8'?>
<svg xmlns="http://www.w3.org/2000/svg" xmlns:xlink="http://www.w3.org/1999/xlink" width="250px" height="250px" viewBox="0 0 250 250" y="0px" x="0px" enable-background="new 0 0 250 250"><defs><symbol overflow="visible" id="bda21b38a"><path d="M81.61-4.422l7.203 5.578h3.484v-135.781h31.625v-2.547l-4.656-5.344-7.204-10H-13.484v2.547l4.656 5.36 6.969 9.984h73.703v40.922H12.563c-4.422 0-8.61 3.266-8.61 9.312C3.953-73.234 10-59.984 16.5-52.078l11.172-.938s-.469-5.812-.469-11.625c0-9.062.922-10.687 4.188-10.687h41.375c0 42.781-.922 64.86-.922 64.86zm0 0"/></symbol></defs><use xlink:href="#bda21b38a" x="68.0375" y="201.75"/></svg>