<?xml version='1.0' encoding='UTF-8'?>
<svg xmlns="http://www.w3.org/2000/svg" xmlns:xlink="http://www.w3.org/1999/xlink" width="250px" height="250px" viewBox="0 0 250 250" y="0px" x="0px" enable-background="new 0 0 250 250"><defs><symbol overflow="visible" id="26b8d492a"><path d="M46.875-82.938l28.516-9.296c11.656-3.891 15.328-7.985 15.328-15.547v-17.281h29.812v-2.376l-4.328-4.968-6.469-9.297H-12.53v2.39l4.328 4.954 6.469 9.297H72.14v11.234c0 3.89-1.297 5.187-11.235 8.203l-22.25 6.703C14.25-92.016 7.344-79.062 7.344-65.875c0 27.219 33.484 56.797 63.718 56.797 22.688 0 35-13.61 35-28.938 0-16.843-16.859-32.406-33.265-32.406-13.61 0-23.766 9.516-23.766 22.469 0 9.719 6.266 18.578 11.016 23.984-20.734-2.39-34.984-17.078-34.984-33.922 0-11.656 6.906-20.078 21.812-25.047zm17.703 44.282c0-9.297 5.625-17.282 15.781-17.282 6.907 0 11.875 5.172 11.875 11.876 0 9.078-6.703 18.796-22.687 20.093-3.016-4.11-4.969-9.734-4.969-14.687zm0 0"/></symbol></defs><use xlink:href="#26b8d492a" x="69.272" y="191.75"/></svg>