<?xml version='1.0' encoding='UTF-8'?>
<svg xmlns="http://www.w3.org/2000/svg" xmlns:xlink="http://www.w3.org/1999/xlink" width="250px" height="250px" viewBox="0 0 250 250" y="0px" x="0px" enable-background="new 0 0 250 250"><defs><symbol overflow="visible" id="5a080e4fa"><path d="M155.094-125.063v-2.374l-4.328-4.97-6.485-9.296H-12.53v2.39l4.328 4.954 6.469 9.297h108.437v29.156H49.687l-3.03 4.75C55.077-80.36 62.202-68.47 62.202-57.453c0 8.422-4.969 12.734-11.875 12.734-16.625 0-31.969-22.89-41.469-49.89l-10.156 4.968c13.39 35.422 32.406 62.86 56.594 62.86 13.172 0 22.89-8.86 22.89-23.547 0-11.016-6.265-21.172-10.796-27.64l.218-.876h39.75c0 56.594-.656 69.125-.656 69.125l9.078 5.61 6.688 5.187h3.25v-126.14zm0 0"/></symbol></defs><use xlink:href="#5a080e4fa" x="52.1" y="191.75"/></svg>