<?xml version='1.0' encoding='UTF-8'?>
<svg xmlns="http://www.w3.org/2000/svg" xmlns:xlink="http://www.w3.org/1999/xlink" width="250px" height="250px" viewBox="0 0 250 250" y="0px" x="0px" enable-background="new 0 0 250 250"><defs><symbol overflow="visible" id="31b62cc4a"><path d="M160.063-125.063v-2.374l-4.329-4.97-6.687-9.296H80.78v2.39l4.328 4.954 6.688 9.297h20.094v33.687c0 10.813-4.11 15.563-18.141 15.563-11.453 0-22.031-4.547-27.875-7.563 8.64-4.969 13.828-12.094 13.828-21.594 0-17.078-20.094-37.594-43.422-37.594-9.5 0-19 2.157-26.343 5.625l13.39 16.844c7.781-3.672 15.985-6.484 24.188-6.484 10.156 0 16.859 4.75 16.859 14.266 0 12.296-15.563 18.78-37.375 23.109l11.234 15.547c7.125-1.516 14.032-3.235 19.875-5.828 5.828 4.75 10.36 11.656 10.36 20.078 0 10.812-6.485 19.234-19.656 19.234-15.766 0-30.454-12.969-41.032-33.703l-9.718 5.406C12.092-39.953 31.75-23.329 54-23.329c19.438 0 30.89-12.312 30.89-28.733 0-8.844-4.109-15.766-5.624-17.922 10.812 5.187 16.859 8 23.765 8 3.031 0 6.485-.438 9.281-1.953 0 20.953-.859 42.343-.859 54.218l9.297 5.61 6.688 5.187h3.25v-126.14zm0 0"/></symbol></defs><use xlink:href="#31b62cc4a" x="49.616" y="191.75"/></svg>