<?xml version="1.0" encoding="UTF-8"?><svg enable-background="new 0 0 250 250" height="250px" viewBox="0 0 250 250" width="250px" x="0px" xml:space="preserve" xmlns="http://www.w3.org/2000/svg" xmlns:xlink="http://www.w3.org/1999/xlink" y="0px"><defs><symbol overflow="visible"><path d="M29.063 0h69.703v-119.172H29.062zm11.234-108.797H87.72v98.422H40.296zm0 0"/></symbol><symbol id="8f12cbc6a" overflow="visible"><path d="M104.547-98.438v-1.86l-3.39-3.905-5.11-7.313H-9.86v1.86l3.407 3.922 5.094 7.296h68.172v37.75c0 8.844-3.75 15.985-9.36 20.907L30.94-70.204c2.218-.86 4.765-1.203 7.312-1.203 6.97 0 11.906 1.703 15.64 3.234l1.188-1.36-6.125-12.577c-3.562-1.53-8.656-3.062-15.125-3.062-15.812 0-28.22 11.39-28.22 26.516 0 9.703 4.595 17.172 10.876 24.14 7.313 8.328 15.985 13.61 26.86 13.61 12.422 0 21.25-6.97 24.484-12.578 0 13.25-1.187 25.828-1.187 25.828l6.97 4.422L78.874.844h2.563v-99.28zM38.767-32.81c-13.267 0-20.923-10.532-20.923-19.89 0-5.782 2.39-10.532 6.125-13.767l26.858 30.94c-3.734 1.702-7.812 2.718-12.062 2.718zm0 0"/></symbol></defs><use x="76.38" xlink:href="#8f12cbc6a" y="169"/></svg>