<?xml version="1.0" encoding="UTF-8"?><svg enable-background="new 0 0 250 250" height="250px" viewBox="0 0 250 250" width="250px" x="0px" xml:space="preserve" xmlns="http://www.w3.org/2000/svg" xmlns:xlink="http://www.w3.org/1999/xlink" y="0px"><defs><symbol overflow="visible"><path d="M29.063 0h69.703v-119.172H29.062zm11.234-108.797H87.72v98.422H40.296zm0 0"/></symbol><symbol id="aeff4516a" overflow="visible"><path d="M29.406-62.047v-36.39h33.5v36.39zm71.578-36.39v-1.86l-3.406-3.906-5.266-7.313H-9.858v1.86l3.405 3.922 5.094 7.296h16.157v11.235c0 16.14 1.015 25.156 1.015 25.156-6.624 3.234-7.828 4.594-7.828 7.64 0 4.766 4.938 13.954 13.438 21.766h7.984v-16.485h34.172c0 25.828-.844 41.47-.844 41.47l7.313 4.42L75.14.846h2.72v-99.282zm0 0"/></symbol></defs><use x="78.165" xlink:href="#aeff4516a" y="169"/></svg>