<?xml version='1.0' encoding='UTF-8'?>
<svg xmlns="http://www.w3.org/2000/svg" xmlns:xlink="http://www.w3.org/1999/xlink" width="250px" height="250px" viewBox="0 0 250 250" y="0px" x="0px" enable-background="new 0 0 250 250"><defs><symbol overflow="visible" id="0fbddbbaa"><path d="M87.266 20.094L55.734-4.97v-.64c24.407 1.296 44.063-10.375 44.063-29.375 0-6.485-1.734-12.97-6.922-21.61-4.969-8.422-10.797-11.453-19.656-11.453-9.281 0-28.938 6.063-33.266 7.563-4.531-.641-10.797-5.61-10.797-14.25 0-8.204 5.828-13.391 18.14-13.829l30.47-.64c9.5-.656 11.218-3.25 11.218-7.344v-28.516h31.766v-2.374l-4.328-4.97-6.688-9.296H-12.53v2.39l4.328 4.954 6.469 9.297h72.359v21.812c-3.672-1.078-16.406-2.375-29.156-2.375-17.282 0-27.219 8.203-27.219 21.39 0 10.36 4.969 19.657 11.89 27.204 5.391 6.062 12.516 11.672 18.782 14.047 0 0 22.25-8.641 32.844-8.641 5.171 0 8.203 3.453 8.203 8.86 0 17.28-21.813 25.484-43.625 23.546l-21.61-17.937-8.422 6.703c.641 16.844 13.61 24.406 27.641 25.265l27.438 32.829zm0 0"/></symbol></defs><use xlink:href="#0fbddbbaa" x="69.272" y="191.75"/></svg>