<?xml version='1.0' encoding='UTF-8'?>
<svg xmlns="http://www.w3.org/2000/svg" xmlns:xlink="http://www.w3.org/1999/xlink" width="250px" height="250px" viewBox="0 0 250 250" y="0px" x="0px" enable-background="new 0 0 250 250"><defs><symbol overflow="visible" id="3d387059a"><path d="M106.484-49.063c-.234 18.844-1.625 38.594-1.625 38.594l10 5.813 7.204 5.812h3.718v-135.781h31.625v-2.547l-4.656-5.344-7.203-10H86.25v2.547l4.656 5.36 6.969 9.984h7.906v63.25c-4.64 6.281-22.078 23.25-46.953 23.25-20.937 0-28.61-12.328-28.61-16.047 0-1.86 1.86-2.781 4.657-3.953C49.063-74.625 83-89.75 83-113.688c0-22.328-20.922-38.593-40.453-38.593-16.281 0-28.828 10.922-28.828 26.265 0 18.594 18.14 29.297 28.125 33.25C29.297-86.03 14.64-81.14 4.422-77.187c6.734 13.25 27.437 46.03 61.844 46.03 22.78 0 37.203-14.187 40.218-17.905zm-73.468-71.609c0-10.922 8.14-17.203 17.906-17.203 8.36 0 15.344 6.281 15.344 15.813 0 9.765-6.282 17.437-15.344 23.953-8.375-3.5-17.906-11.625-17.906-22.563zm0 0"/></symbol></defs><use xlink:href="#3d387059a" x="51.2975" y="201.75"/></svg>