<?xml version='1.0' encoding='UTF-8'?>
<svg xmlns="http://www.w3.org/2000/svg" xmlns:xlink="http://www.w3.org/1999/xlink" width="250px" height="250px" viewBox="0 0 250 250" y="0px" x="0px" enable-background="new 0 0 250 250"><defs><symbol overflow="visible" id="1de63614a"><path d="M72.578-74.516c-9.297 0-16.203-1.078-21.39-2.171.437-1.5.437-3.235.437-4.954v-43.421h44.719v46.656c-7.14 2.594-13.61 3.89-23.766 3.89zM68.906-4.53C46.437-27.438 31.312-47.734 31.312-51.406c0-1.953 1.297-2.594 2.594-3.453 5.844-4.11 9.938-7.563 12.75-11.235 6.907 3.672 18.797 7.781 31.75 7.781 8 0 13.61-1.093 19.016-2.593 0 31.093-1.078 51.187-1.078 51.187l9.062 5.61 6.703 5.187h3.235v-126.14h29.594v-2.376l-4.532-4.968-6.484-9.297H-12.531v2.39l4.328 4.954 6.469 9.297h34.343v42.546c0 4.11-2.797 6.704-8.203 6.704-3.453 0-7.343-.876-10.797-2.157l-7.78 8.625c2.593 5.844 8.64 17.5 25.28 38.672L56.812 2.156zm0 0"/></symbol></defs><use xlink:href="#1de63614a" x="57.176" y="191.75"/></svg>