<?xml version='1.0' encoding='UTF-8'?>
<svg xmlns="http://www.w3.org/2000/svg" xmlns:xlink="http://www.w3.org/1999/xlink" width="250px" height="250px" viewBox="0 0 250 250" y="0px" x="0px" enable-background="new 0 0 250 250"><defs><symbol overflow="visible" id="bd71dcc0a"><path d="M149.25-125.063v-2.374l-4.313-4.97-6.484-9.296H-12.53v2.39l4.328 4.954 6.469 9.297h102.609v59.609c-9.297 12.969-22.031 23.547-38.234 23.547-15.125 0-22.25-9.063-22.25-18.797 0-11.875 9.297-20.516 19.875-22.89 4.109.218 14.25.656 27.64.656v-2.376l-4.312-5.406-6.266-8.86h-81v2.376L.86-92.016l6.047 8.86h9.078c10.797 0 15.547-.438 15.547-.438C27-80.359 23.11-74.954 23.11-66.75c0 9.516 5.407 18.156 14.047 26.14C45.578-32.827 55.938-27 68.046-27c14.891 0 26.126-6.266 33.907-15.984-.219 18.797-1.297 33.265-1.297 33.265l9.281 5.61 6.704 5.187h3.234v-126.14zm0 0"/></symbol></defs><use xlink:href="#bd71dcc0a" x="55.016" y="191.75"/></svg>