<?xml version='1.0' encoding='UTF-8'?>
<svg xmlns="http://www.w3.org/2000/svg" xmlns:xlink="http://www.w3.org/1999/xlink" width="250px" height="250px" viewBox="0 0 250 250" y="0px" x="0px" enable-background="new 0 0 250 250"><defs><symbol overflow="visible" id="ff7e64e0a"><path d="M136.25-134.625v-2.547l-4.656-5.344-6.969-10h-138.11v2.547l4.657 5.36 6.969 9.984h86.25v50.234c0 22.313-15.344 36.266-33.47 36.266-17.671 0-26.28-13.25-26.28-24.875 0-15.125 11.859-23.016 26.28-23.016 5.11 0 10.923 1.157 16.032 3.016l1.406-1.86-9.53-17.437c-4.423-1.86-10.235-2.797-15.345-2.797-19.53 0-35.578 13.031-35.578 33.25 0 12.094 7.203 24.656 15.11 33.485 9.297 10.687 20.234 17.437 33.25 17.437 16.5 0 25.109-8.61 29.297-15.344 0 18.828-1.391 35.797-1.391 35.797l9.766 6.047 7.203 5.578h3.484v-135.781zm0 0"/></symbol></defs><use xlink:href="#ff7e64e0a" x="61.76" y="201.75"/></svg>