<?xml version='1.0' encoding='UTF-8'?>
<svg xmlns="http://www.w3.org/2000/svg" xmlns:xlink="http://www.w3.org/1999/xlink" width="250px" height="250px" viewBox="0 0 250 250" y="0px" x="0px" enable-background="new 0 0 250 250"><defs><symbol overflow="visible" id="8651d0bba"><path d="M45.578-63.078c-8.203 0-14.266-4.969-14.266-15.547v-46.438h40.61v48.376c-6.469 8-15.984 13.609-26.344 13.609zm44.5 12.312c0-19 11.219-31.53 26.781-31.53 12.094 0 20.516 9.28 20.516 20.515 0 13.828-9.719 22.031-23.11 22.031-2.156 0-5.187-.422-7.562-1.078l-.86 1.734 9.938 15.766c2.375.437 4.313.437 6.688.437 16.64 0 30.89-11.453 30.89-31.328 0-10.578-5.609-20.515-11.875-28.078-8.218-10.156-18.578-17.062-29.375-17.062-11.89 0-19.453 6.484-22.468 11.015 0 0 .64-13.172.64-29.375v-7.344h78.625v-2.374l-4.312-4.97-6.485-9.296H-12.53v2.39l4.328 4.954 6.469 9.297h14.046v38.874c0 13.172 7.344 20.532 17.063 27.876 7.344 5.828 14.906 10.14 25.063 10.14 6.265 0 12.734-2.594 17.921-6.469-.218 23.532-1.078 44.485-1.078 44.485l8.86 5.625 6.687 5.61h3.25zm0 0"/></symbol></defs><use xlink:href="#8651d0bba" x="45.188" y="191.75"/></svg>