<?xml version='1.0' encoding='UTF-8'?>
<svg xmlns="http://www.w3.org/2000/svg" xmlns:xlink="http://www.w3.org/1999/xlink" width="250px" height="250px" viewBox="0 0 250 250" y="0px" x="0px" enable-background="new 0 0 250 250"><defs><symbol overflow="visible" id="e06e8d57a"><path d="M92.063-43.016c-2.782-6.28-5.11-13.25-5.11-21.859 0-15.344 9.063-24.875 22.547-24.875 6.516 0 11.625 1.406 15.578 2.797 0 46.734-.922 76.484-.922 76.484l10 6.047 6.969 5.578h3.719v-135.781h31.625v-2.547l-4.656-5.344-7.204-10H-13.484v2.547l4.656 5.36 6.969 9.984h126.015v35.578c-6.515-3.719-14.422-6.047-23.25-6.047-11.86 0-22.781 5.813-27.906 16.516-6.734-7.219-18.36-15.11-32.547-15.11-18.828 0-32.312 13.016-32.312 31.844 0 21.625 16.5 45.344 48.593 69.047l9.063-7.672C43.016-27.437 28.359-46.266 28.359-65.094c0-13.719 9.313-21.39 20.47-21.39 8.14 0 14.405 3.015 19.765 8.593-.469 2.329-.703 5.125-.703 7.907 0 7.437 2.093 15.343 4.875 20.468l18.609 7.203zm0 0"/></symbol></defs><use xlink:href="#e06e8d57a" x="41.765" y="201.75"/></svg>