<?xml version='1.0' encoding='UTF-8'?>
<svg xmlns="http://www.w3.org/2000/svg" xmlns:xlink="http://www.w3.org/1999/xlink" width="250px" height="250px" viewBox="0 0 250 250" y="0px" x="0px" enable-background="new 0 0 250 250"><defs><symbol overflow="visible" id="e06e8d57a"><path d="M85.531-39.953c-2.594-5.844-4.75-12.313-4.75-20.313 0-14.25 8.422-23.109 20.953-23.109 6.047 0 10.797 1.297 14.47 2.594 0 43.406-.86 71.062-.86 71.062l9.281 5.61 6.484 5.187h3.453v-126.14h29.375v-2.376l-4.312-4.968-6.703-9.297H-12.531v2.39l4.328 4.954 6.469 9.297h117.078v33.046c-6.047-3.453-13.39-5.609-21.594-5.609-11.016 0-21.172 5.39-25.922 15.328-6.266-6.687-17.062-14.047-30.25-14.047-17.484 0-30.016 12.11-30.016 29.594 0 20.094 15.329 42.125 45.141 64.156l8.422-7.125C39.953-25.484 26.359-42.984 26.359-60.484c0-12.735 8.625-19.875 19-19.875 7.563 0 13.391 2.812 18.36 8-.438 2.156-.64 4.75-.64 7.343 0 6.907 1.937 14.25 4.53 19l17.282 6.703zm0 0"/></symbol></defs><use xlink:href="#e06e8d57a" x="47.672" y="191.75"/></svg>