<?xml version="1.0" encoding="UTF-8"?><svg enable-background="new 0 0 250 250" height="250px" viewBox="0 0 250 250" width="250px" x="0px" xml:space="preserve" xmlns="http://www.w3.org/2000/svg" xmlns:xlink="http://www.w3.org/1999/xlink" y="0px"><defs><symbol overflow="visible"><path d="M29.063 0h69.703v-119.172H29.062zm11.234-108.797H87.72v98.422H40.296zm0 0"/></symbol><symbol id="a03c7627a" overflow="visible"><path d="M117.47-98.438v-1.86l-3.407-3.905-5.094-7.313H-9.86v1.86l3.407 3.922 5.094 7.296h80.75v46.922C72.08-41.313 62.048-32.984 49.298-32.984c-11.89 0-17.5-7.14-17.5-14.782 0-9.36 7.297-16.156 15.64-18.03 3.22.17 11.22.515 21.75.515v-1.876l-3.39-4.25-4.938-6.97H-2.89v1.876l3.578 4.078 4.75 6.97h7.14c8.5 0 12.235-.345 12.235-.345-3.563 2.563-6.625 6.813-6.625 13.266 0 7.483 4.25 14.28 11.046 20.577 6.64 6.11 14.797 10.703 24.313 10.703 11.734 0 20.578-4.938 26.687-12.578-.17 14.78-1.015 26.172-1.015 26.172l7.31 4.422L91.798.844h2.547v-99.28zm0 0"/></symbol></defs><use x="69.92" xlink:href="#a03c7627a" y="169"/></svg>