<?xml version="1.0" encoding="UTF-8"?><svg enable-background="new 0 0 250 250" height="250px" viewBox="0 0 250 250" width="250px" x="0px" xml:space="preserve" xmlns="http://www.w3.org/2000/svg" xmlns:xlink="http://www.w3.org/1999/xlink" y="0px"><defs><symbol overflow="visible"><path d="M29.063 0h69.703v-119.172H29.062zm11.234-108.797H87.72v98.422H40.296zm0 0"/></symbol><symbol id="5c43822da" overflow="visible"><path d="M36.89-65.28l22.438-7.314c9.188-3.062 12.078-6.28 12.078-12.234v-13.61H94.86v-1.86l-3.407-3.905-5.094-7.313H-9.86v1.86l3.407 3.922 5.094 7.296h58.14v8.844c0 3.063-1.014 4.078-8.843 6.47l-17.5 5.265C11.22-72.42 5.782-62.22 5.782-51.843 5.78-30.437 32.126-7.14 55.938-7.14c17.844 0 27.532-10.704 27.532-22.782 0-13.265-13.267-25.5-26.173-25.5-10.72 0-18.703 7.484-18.703 17.688 0 7.64 4.922 14.61 8.672 18.86-16.328-1.86-27.547-13.423-27.547-26.689 0-9.17 5.436-15.812 17.17-19.718zM50.83-30.438c0-7.297 4.422-13.594 12.406-13.594 5.453 0 9.36 4.077 9.36 9.343 0 7.14-5.28 14.796-17.86 15.812-2.375-3.22-3.906-7.64-3.906-11.563zm0 0"/></symbol></defs><use x="81.14" xlink:href="#5c43822da" y="169"/></svg>