<?xml version='1.0' encoding='UTF-8'?>
<svg xmlns="http://www.w3.org/2000/svg" xmlns:xlink="http://www.w3.org/1999/xlink" width="250px" height="250px" viewBox="0 0 250 250" y="0px" x="0px" enable-background="new 0 0 250 250"><defs><symbol overflow="visible" id="f1facce8a"><path d="M103.25 1.078v-126.14h29.375v-2.376l-4.328-4.968-6.469-9.297h-134.36v2.39l4.329 4.954 6.469 9.297H27c4.531 5.187 9.5 12.312 9.5 20.734 0 8.86-6.906 17.5-33.047 26.781 12.094 23.328 28.078 43.422 53.14 43.422 13.829 0 23.766-6.047 28.516-11.234 0 18.797-1.078 35.64-1.078 35.64l9.281 5.61 6.704 5.187zM50.969-50.328c-18.14 0-24.61-11.875-24.61-16.203 0-1.297.641-2.375 2.157-3.016C49.688-80.359 54.219-88.563 54.219-98.28c0-8.203-5.407-17.5-13.828-26.781h43.843v57.234c-4.53 8.219-16.843 17.5-33.265 17.5zm0 0"/></symbol></defs><use xlink:href="#f1facce8a" x="63.224" y="191.75"/></svg>