<?xml version='1.0' encoding='UTF-8'?>
<svg xmlns="http://www.w3.org/2000/svg" xmlns:xlink="http://www.w3.org/1999/xlink" width="250px" height="250px" viewBox="0 0 250 250" y="0px" x="0px" enable-background="new 0 0 250 250"><defs><symbol overflow="visible" id="26b8d492a"><path d="M50.453-89.281l30.688-10c12.562-4.188 16.515-8.594 16.515-16.735v-18.609h32.078v-2.547l-4.656-5.344-6.969-10H-13.484v2.547l4.656 5.36 6.969 9.984h79.515v12.094c0 4.187-1.39 5.578-12.094 8.844l-23.937 7.203C15.344-99.047 7.906-85.094 7.906-70.906c0 29.281 36.032 61.14 68.594 61.14 24.406 0 37.656-14.64 37.656-31.156 0-18.14-18.14-34.875-35.797-34.875-14.656 0-25.578 10.234-25.578 24.188 0 10.453 6.735 19.984 11.86 25.797-22.329-2.547-37.672-18.36-37.672-36.5 0-12.547 7.437-21.626 23.484-26.97zm19.063 47.656c0-9.984 6.046-18.594 16.968-18.594 7.454 0 12.797 5.578 12.797 12.782 0 9.765-7.219 20.234-24.422 21.624-3.25-4.406-5.343-10.453-5.343-15.812zm0 0"/></symbol></defs><use xlink:href="#26b8d492a" x="65.015" y="201.75"/></svg>