<?xml version="1.0" encoding="UTF-8"?><svg enable-background="new 0 0 250 250" height="250px" viewBox="0 0 250 250" width="250px" x="0px" xml:space="preserve" xmlns="http://www.w3.org/2000/svg" xmlns:xlink="http://www.w3.org/1999/xlink" y="0px"><defs><symbol overflow="visible"><path d="M29.063 0h69.703v-119.172H29.062zm11.234-108.797H87.72v98.422H40.296zm0 0"/></symbol><symbol id="c2e2429ea" overflow="visible"><path d="M77.344.844h2.562v-99.28h23.11v-1.86l-3.39-3.907-5.11-7.313H-9.86v1.86l3.407 3.922 5.094 7.296h12.407v35.532c0 9.703 3.234 14.968 11.734 21.593 9.69 7.313 15.814 8.844 21.923 8.844 7.656 0 15.484-4.077 21.094-9.014-.172 19.39-.86 34-.86 34l7.14 4.25zM37.906-43.344c-6.797 0-12.062-4.093-12.062-10.718v-10.704c0-13.265-.86-21.42-.86-21.42L60.86-53.205c-6.626 6.28-14.282 9.86-22.954 9.86zm-12.75-55.093h40.297v14.624c0 12.08.672 24.313.672 24.313l-40.97-38.25zm0 0"/></symbol></defs><use x="77.145" xlink:href="#c2e2429ea" y="169"/></svg>