<?xml version='1.0' encoding='UTF-8'?>
<svg xmlns="http://www.w3.org/2000/svg" xmlns:xlink="http://www.w3.org/1999/xlink" width="250px" height="250px" viewBox="0 0 250 250" y="0px" x="0px" enable-background="new 0 0 250 250"><defs><symbol overflow="visible" id="82dbc52ea"><path d="M46.656-57.031c-8.203 0-13.828-5.61-13.828-13.172v-54.86h47.734v47.297C70.844-64.375 58.313-57.03 46.657-57.03zm-48.39-68.031h15.78v45.14c0 12.313 4.313 18.797 14.25 26.36C36.939-47.094 45.142-42.547 54-42.547c10.797 0 20.297-6.047 27-11.672C81-27.64 79.922-9.5 79.922-9.5l9.281 5.39 6.703 5.188h3.235v-126.14h29.593v-2.376l-4.53-4.968-6.485-9.297h-130.25v2.39l4.328 4.954zm0 0"/></symbol></defs><use xlink:href="#82dbc52ea" x="65.276" y="191.75"/></svg>