<?xml version='1.0' encoding='UTF-8'?>
<svg xmlns="http://www.w3.org/2000/svg" xmlns:xlink="http://www.w3.org/1999/xlink" width="250px" height="250px" viewBox="0 0 250 250" y="0px" x="0px" enable-background="new 0 0 250 250"><defs><symbol overflow="visible" id="c999c50ea"><path d="M87.656-15.11c9.063-5.578 14.172-13.953 14.172-22.78 0-18.61-17.437-33.485-40.687-33.485-6.266 0-12.547 1.156-18.36 3.25-7.203-5.578-9.765-11.86-9.765-16.734 0-6.985 5.109-11.157 14.875-11.157h31.39c10.922 0 14.875-3.03 14.875-9.546v-29.063h28.14v-2.547l-4.655-5.344-6.97-10H-13.483v2.547l4.656 5.36 6.969 9.984h77.187v17.906c0 3.031-1.625 3.719-6.969 3.719-3.953 0-13.953-.453-30.687-.453-15.36 0-23.953 7.89-23.953 18.594 0 13.718 11.39 25.343 20 31.156-10 6.047-16.985 15.578-16.985 27.203 0 22.313 19.766 42.781 73.016 53.469l5.813-11.86C49.063-2.094 36.03-16.047 36.03-30.688c0-15.109 17.907-25.343 35.344-25.343 10.234 0 15.344 4.422 15.344 10 0 6.281-5.11 12.781-15.11 17.906zm0 0"/></symbol></defs><use xlink:href="#c999c50ea" x="68.735" y="201.75"/></svg>