<?xml version="1.0" encoding="UTF-8"?><svg enable-background="new 0 0 250 250" height="250px" viewBox="0 0 250 250" width="250px" x="0px" xml:space="preserve" xmlns="http://www.w3.org/2000/svg" xmlns:xlink="http://www.w3.org/1999/xlink" y="0px"><defs><symbol overflow="visible"><path d="M29.063 0h69.703v-119.172H29.062zm11.234-108.797H87.72v98.422H40.296zm0 0"/></symbol><symbol id="40c7ca4ca" overflow="visible"><path d="M113.734.844h2.547v-99.28h23.126v-1.86L136-104.204l-5.094-7.313H-9.86v1.86l3.407 3.922 5.094 7.296h26.344v30.954c0 3.39-2.375 5.61-6.797 5.61-2.546 0-5.78-1.032-7.812-1.876l-6.47 6.97c14.798 34 39.44 50.327 63.75 50.327 15.47 0 26.86-5.28 34.517-10.375l-.516 9.515 6.97 4.08zm-20.406-73.78l-5.266-11.548c-2.89-1.36-6.796-2.89-13.265-2.89-13.422 0-22.438 9.17-22.438 21.25 0 12.92 15.296 29.92 31.28 29.92 9.688 0 15.985-4.42 19.547-7.483 0 0-.343 5.61-.343 10.374v2.032c-5.78 4.593-18.53 12.233-38.078 12.233-29.063 0-40.625-21.406-40.625-24.14 0-1.36.516-1.688 2.376-3.047C37.063-54.062 39.78-57.97 39.78-66.124V-98.44h61.876v40.985c-1.53 2.547-9.344 9.687-21.594 9.687-10.703 0-15.468-6.797-15.468-13.093 0-8.328 6.297-13.937 15.812-13.937 4.422 0 8 1.188 11.735 3.063zm0 0"/></symbol></defs><use x="58.955" xlink:href="#40c7ca4ca" y="169"/></svg>