<?xml version='1.0' encoding='UTF-8'?>
<svg xmlns="http://www.w3.org/2000/svg" xmlns:xlink="http://www.w3.org/1999/xlink" width="250px" height="250px" viewBox="0 0 250 250" y="0px" x="0px" enable-background="new 0 0 250 250"><defs><symbol overflow="visible" id="3af6e87da"><path d="M77.188-12.781c42.546 0 70.218-31.86 70.218-66.266 0-17.906-10.469-32.781-24.406-38.594.453-3.484.922-9.296.922-16.984h42.547v-2.547l-4.875-5.344-6.985-10H-13.484v2.547l4.656 5.36 6.969 9.984H9.062c9.313 0 16.282-.688 16.282-.688-4.89 3.016-11.157 9.766-11.157 20 0 10.688 8.36 22.079 23.938 30.22v.921c-13.938 3.5-24.172 12.094-24.172 24.422 0 22.313 31.844 46.969 63.234 46.969zm24.187-76.266c0-11.86 6.969-18.375 15.11-18.375 7.203 0 14.64 6.047 14.64 19.766 0 10.703-2.781 20.922-7.906 30-11.39-6.985-21.844-17.907-21.844-31.39zm-31.39 60.219c-26.282 0-36.97-13.25-36.97-23.485 0-10.234 11.157-20.687 43.25-18.828l-9.078-18.375c-6.5 0-11.156.235-15.812.704-5.11-2.563-16.734-10.704-16.734-23.016 0-10 6.047-18.61 14.187-22.797h56.734c0 6.047.22 10.938.454 14.422C93-118.578 82.53-109.047 81.844-93.937c0 19.078 16.5 34.656 35.562 44.64-10.453 12.328-26.734 20.469-47.422 20.469zm0 0"/></symbol></defs><use xlink:href="#3af6e87da" x="46.76375" y="201.75"/></svg>