<?xml version="1.0" encoding="UTF-8"?><svg enable-background="new 0 0 250 250" height="250px" viewBox="0 0 250 250" width="250px" x="0px" xml:space="preserve" xmlns="http://www.w3.org/2000/svg" xmlns:xlink="http://www.w3.org/1999/xlink" y="0px"><defs><symbol overflow="visible"><path d="M29.063 0h69.703v-119.172H29.062zm11.234-108.797H87.72v98.422H40.296zm0 0"/></symbol><symbol id="8687a3baa" overflow="visible"><path d="M67.313-31.453c-2.032-4.594-3.735-9.688-3.735-15.985 0-11.218 6.625-18.187 16.484-18.187 4.766 0 8.5 1.03 11.39 2.047 0 34.172-.67 55.922-.67 55.922l7.312 4.422 5.094 4.078h2.718v-99.28h23.125v-1.86l-3.405-3.907-5.266-7.313H-9.86v1.86l3.407 3.922 5.094 7.296h92.14v26.016c-4.764-2.72-10.546-4.422-17-4.422-8.67 0-16.655 4.25-20.405 12.078-4.922-5.28-13.422-11.046-23.797-11.046-13.765 0-23.625 9.515-23.625 23.28 0 15.813 12.063 33.157 35.53 50.485l6.626-5.61C31.452-20.06 20.733-33.826 20.733-47.593c0-10.03 6.813-15.64 14.97-15.64 5.952 0 10.53 2.203 14.452 6.28-.343 1.704-.515 3.75-.515 5.782 0 5.438 1.532 11.22 3.563 14.97l13.61 5.264zm0 0"/></symbol></defs><use x="64.14" xlink:href="#8687a3baa" y="169"/></svg>