<?xml version="1.0" encoding="UTF-8"?><svg enable-background="new 0 0 250 250" height="250px" viewBox="0 0 250 250" width="250px" x="0px" xml:space="preserve" xmlns="http://www.w3.org/2000/svg" xmlns:xlink="http://www.w3.org/1999/xlink" y="0px"><defs><symbol overflow="visible"><path d="M29.063 0h69.703v-119.172H29.062zm11.234-108.797H87.72v98.422H40.296zm0 0"/></symbol><symbol id="3fb00055a" overflow="visible"><path d="M27.703-85.172c0-8.672 5.953-13.937 12.594-13.937 7.64 0 15.47 6.126 15.47 20.735 0 5.28-1.033 9.86-2.892 13.938-9.188-1.016-25.172-6.797-25.172-20.735zm32.813 80.75l-38.25-29.75c22.28 2.047 47.093-15.64 47.093-38.922 0-10.03-4.422-18.203-11.39-25.344h31.28c0 66.485-.688 90.782-.688 90.782l7.313 4.422 5.28 4.078h2.548v-99.28h23.11v-1.86l-3.39-3.907-5.11-7.313H-9.86v1.86l3.407 3.922 5.094 7.296h18.016c-3.562 3.922-5.093 8.172-5.093 13.094 0 13.438 14.624 23.125 36.718 28.047-6.468 7.313-16.655 11.063-28.046 11.063-5.28 0-9.687-1.36-12.75-2.39l-5.78 9.187c3.905 3.062 12.062 9 49.468 41.64zm0 0"/></symbol></defs><use x="65.16" xlink:href="#3fb00055a" y="169"/></svg>