<?xml version='1.0' encoding='UTF-8'?>
<svg xmlns="http://www.w3.org/2000/svg" xmlns:xlink="http://www.w3.org/1999/xlink" width="250px" height="250px" viewBox="0 0 250 250" y="0px" x="0px" enable-background="new 0 0 250 250"><defs><symbol overflow="visible" id="3f8580f8a"><path d="M5.813-34.64C17.438-22.313 37.672-5.345 66.266-5.345c26.265 0 42.78-14.89 42.78-33.484 0-6.969-2.093-15.344-7.671-23.953C95.562-71.61 89.281-74.86 79.75-74.86c-7.672 0-27.203 5.812-35.11 8.125-6.75 0-13.484-6.266-13.484-15.344 0-9.531 7.203-14.406 19.766-14.406h34.64c10.235 0 12.547-2.797 12.547-7.204v-30.937h30.47v-2.547l-4.657-5.344-6.969-10H-13.484v2.547l4.656 5.36 6.969 9.984h79.75v21.39c-4.891-.218-19.063-1.859-33.016-1.859-18.828 0-29.531 9.078-29.531 23.25 0 20 19.531 40.688 35.343 44.188 0 0 24.172-9.313 34.641-9.313 5.344 0 8.828 3.5 8.828 9.532 0 11.859-10.453 24.187-34.875 24.187-19.531 0-36.031-10.688-45.093-20.234zm0 0"/></symbol></defs><use xlink:href="#3f8580f8a" x="65.7125" y="201.75"/></svg>