<?xml version="1.0" encoding="UTF-8"?><svg enable-background="new 0 0 250 250" height="250px" viewBox="0 0 250 250" width="250px" x="0px" xml:space="preserve" xmlns="http://www.w3.org/2000/svg" xmlns:xlink="http://www.w3.org/1999/xlink" y="0px"><defs><symbol overflow="visible"><path d="M29.063 0h69.703v-119.172H29.062zm11.234-108.797H87.72v98.422H40.296zm0 0"/></symbol><symbol id="b6ef17cfa" overflow="visible"><path d="M68.688 15.813l-24.83-19.72v-.515c19.205 1.016 34.69-8.156 34.69-23.125 0-5.094-1.36-10.187-5.454-17-3.906-6.625-8.5-9-15.47-9-7.312 0-22.78 4.75-26.17 5.953-3.58-.515-8.5-4.422-8.5-11.218 0-6.47 4.593-10.547 14.28-10.89l23.97-.5c7.483-.517 8.843-2.564 8.843-5.782v-22.454H95.03v-1.86l-3.405-3.905-5.266-7.313H-9.86v1.86l3.407 3.922 5.094 7.296h56.954v17.172c-2.89-.843-12.922-1.86-22.953-1.86-13.593 0-21.42 6.454-21.42 16.83 0 8.155 3.905 15.468 9.342 21.42 4.25 4.75 9.875 9.173 14.797 11.048 0 0 17.515-6.797 25.843-6.797 4.078 0 6.453 2.72 6.453 6.97 0 13.593-17.172 20.06-34.344 18.53l-17-14.11-6.625 5.266c.516 13.267 10.72 19.204 21.766 19.892l21.594 25.844zm0 0"/></symbol></defs><use x="81.14" xlink:href="#b6ef17cfa" y="169"/></svg>