<?xml version='1.0' encoding='UTF-8'?>
<svg xmlns="http://www.w3.org/2000/svg" xmlns:xlink="http://www.w3.org/1999/xlink" width="250px" height="250px" viewBox="0 0 250 250" y="0px" x="0px" enable-background="new 0 0 250 250"><defs><symbol overflow="visible" id="90c788c6a"><path d="M-1.86-134.625h69.282c7.203 6.047 12.328 13.953 12.328 23.25 0 13.031-10.938 20.703-31.625 20.703-3.484 0-6.969-.469-10-.937L46.969-73c3.015.453 6.047.688 9.062.688 7.438 0 13.25-1.391 16.047-2.313 6.281 3.719 13.25 12.313 13.25 24.406 0 11.86-8.61 20.688-22.328 20.688-23.016 0-43.703-23.25-55.563-50.453L-3.25-74.625c15.578 35.328 41.844 63.234 72.297 63.234 22.562 0 35.344-15.578 35.344-32.78 0-19.063-14.188-31.157-22.782-36.267 10-4.89 15.813-13.953 15.813-25.343 0-10.938-6.281-20.703-15.11-28.844h45.563v-2.547L123-142.516l-6.984-10h-129.5v2.547l4.656 5.36zm0 0"/></symbol></defs><use xlink:href="#90c788c6a" x="66.06125" y="201.75"/></svg>