<?xml version='1.0' encoding='UTF-8'?>
<svg xmlns="http://www.w3.org/2000/svg" xmlns:xlink="http://www.w3.org/1999/xlink" width="250px" height="250px" viewBox="0 0 250 250" y="0px" x="0px" enable-background="new 0 0 250 250"><defs><symbol overflow="visible" id="31b62cc4a"><path d="M172.281-134.625v-2.547l-4.656-5.344-7.203-10H86.953v2.547l4.656 5.36 7.204 9.984h21.624v36.281c0 11.625-4.421 16.735-19.53 16.735-12.329 0-23.72-4.875-30-8.141 9.312-5.344 14.89-13.016 14.89-23.25 0-18.36-21.625-40.453-46.734-40.453-10.235 0-20.47 2.328-28.376 6.047l14.422 18.14c8.375-3.953 17.203-6.984 26.047-6.984 10.922 0 18.125 5.125 18.125 15.344 0 13.265-16.734 20.234-40.219 24.89L41.157-79.28c7.672-1.625 15.11-3.485 21.39-6.281C68.814-80.439 73.704-73 73.704-63.939c0 11.626-6.969 20.688-21.156 20.688-16.969 0-32.781-13.938-44.172-36.266l-10.469 5.813C13.016-43.016 34.172-25.11 58.125-25.11c20.922 0 33.25-13.25 33.25-30.922 0-9.532-4.422-16.969-6.047-19.297 11.625 5.578 18.14 8.594 25.578 8.594 3.25 0 6.969-.454 10-2.079 0 22.547-.937 45.563-.937 58.344l10 6.047 7.203 5.578h3.484v-135.781zm0 0"/></symbol></defs><use xlink:href="#31b62cc4a" x="43.8575" y="201.75"/></svg>