<?xml version="1.0" encoding="UTF-8"?><svg enable-background="new 0 0 250 250" height="250px" viewBox="0 0 250 250" width="250px" x="0px" xml:space="preserve" xmlns="http://www.w3.org/2000/svg" xmlns:xlink="http://www.w3.org/1999/xlink" y="0px"><defs><symbol overflow="visible"><path d="M29.063 0h69.703v-119.172H29.062zm11.234-108.797H87.72v98.422H40.296zm0 0"/></symbol><symbol id="8230cdc5a" overflow="visible"><path d="M96.734-111.516H-9.86v1.86l3.407 3.922 5.094 7.296h58.985v15.64c-3.563-.155-13.938-1.358-24.313-1.358-13.593 0-21.578 6.64-21.578 17 0 14.28 13.766 29.594 25.828 32.312 0 0 17.86-6.968 25.5-6.968 3.922 0 6.47 2.874 6.47 7.124C69.53-26.015 61.874-17 44.2-17 29.75-17 17.69-24.813 11.048-31.953l-6.28 6.797c8.5 9 23.624 21.25 44.358 21.25 19.39 0 31.11-10.89 31.11-24.485 0-5.094-1.532-11.047-5.438-17.344-4.25-6.625-8.844-9-15.813-9-5.61 0-20.047 4.422-26 6.11-4.937 0-9.687-4.75-9.687-11.392 0-6.968 5.265-10.53 14.437-10.53h25.328c7.485 0 9.188-2.048 9.188-5.266V-98.44h32.984v-1.86l-3.406-3.905zm-8.843 39.61L76.33-60.686 87.89-49.642l11.563-10.876zm0 0"/></symbol></defs><use x="76.04" xlink:href="#8230cdc5a" y="169"/></svg>