<?xml version='1.0' encoding='UTF-8'?>
<svg xmlns="http://www.w3.org/2000/svg" xmlns:xlink="http://www.w3.org/1999/xlink" width="250px" height="250px" viewBox="0 0 250 250" y="0px" x="0px" enable-background="new 0 0 250 250"><defs><symbol overflow="visible" id="6be54ce2a"><path d="M155.547 1.156h3.484v-135.781h31.625v-2.547L186-142.516l-6.969-10H-13.484v2.547l4.656 5.36 6.969 9.984h36.03v42.328c0 4.64-3.25 7.672-9.296 7.672-3.484 0-7.906-1.406-10.688-2.563l-8.843 9.532C25.578-31.156 59.28-8.828 92.53-8.828c21.156 0 36.735-7.219 47.203-14.188L139.031-10l9.531 5.578zM127.64-99.75l-7.204-15.797c-3.953-1.86-9.296-3.953-18.14-3.953-18.36 0-30.688 12.547-30.688 29.063 0 17.671 20.922 40.921 42.782 40.921 13.25 0 21.859-6.047 26.734-10.234 0 0-.469 7.672-.469 14.188v2.78c-7.906 6.282-25.344 16.735-52.078 16.735-39.75 0-55.562-29.281-55.562-33.016 0-1.859.703-2.312 3.25-4.171 14.422-10.703 18.14-16.047 18.14-27.203v-44.188h84.625v56.047c-2.094 3.484-12.781 13.25-29.531 13.25-14.64 0-21.156-9.297-21.156-17.906 0-11.391 8.61-19.063 21.625-19.063 6.047 0 10.937 1.625 16.047 4.188zm0 0"/></symbol></defs><use xlink:href="#6be54ce2a" x="34.67375" y="201.75"/></svg>