<?xml version='1.0' encoding='UTF-8'?>
<svg xmlns="http://www.w3.org/2000/svg" xmlns:xlink="http://www.w3.org/1999/xlink" width="250px" height="250px" viewBox="0 0 250 250" y="0px" x="0px" enable-background="new 0 0 250 250"><defs><symbol overflow="visible" id="2464bed5a"><path d="M-1.86-134.625h63.938c2.563 2.094 8.375 7.453 8.375 15.813 0 8.374-4.656 13.953-18.14 17.906l-16.5 5.11C14.875-89.75 7.436-79.517 7.436-66.954c0 24.875 29.532 50.672 62.313 50.672 28.36 0 48.36-17.203 48.36-39.516 0-19.297-14.641-30.453-26.735-40-2.094-1.39-4.422-3.25-4.422-5.578 0-4.188 3.031-6.734 3.031-13.938 0-9.546-5.359-16.75-7.671-19.312h53.234v-2.547l-4.656-5.344-6.97-10H-13.483v2.547l4.656 5.36zm48.126 55.11c17.203-6.282 26.28-8.61 31.156-8.61 8.375 0 21.39 10.703 21.39 25.813 0 17.671-15.812 30.234-38.124 30.234-22.563 0-34.876-13.031-34.876-26.281 0-9.297 6.266-16.266 20.454-21.157zm0 0"/></symbol></defs><use xlink:href="#2464bed5a" x="62.225" y="201.75"/></svg>