<?xml version='1.0' encoding='UTF-8'?>
<svg xmlns="http://www.w3.org/2000/svg" xmlns:xlink="http://www.w3.org/1999/xlink" width="250px" height="250px" viewBox="0 0 250 250" y="0px" x="0px" enable-background="new 0 0 250 250"><defs><symbol overflow="visible" id="d01d5eaea"><path d="M48.39-6.906C35.64-22.47 27-39.094 27-53.141c0-13.609 8.422-23.328 27-23.328h22.89c0 47.313-.421 66.75-.421 66.75l9.062 5.61 6.703 5.187h3.235v-126.14h29.375v-2.376l-4.313-4.968-6.703-9.297h-126.36v2.39l4.329 4.954 6.469 9.297h78.203v31.312h-30.25c-22.453 0-36.5 13.188-36.5 32.844 0 21.812 16.422 45.14 27.656 59.61zm0 0"/></symbol></defs><use xlink:href="#d01d5eaea" x="67.22" y="191.75"/></svg>