<?xml version='1.0' encoding='UTF-8'?>
<svg xmlns="http://www.w3.org/2000/svg" xmlns:xlink="http://www.w3.org/1999/xlink" width="250px" height="250px" viewBox="0 0 250 250" y="0px" x="0px" enable-background="new 0 0 250 250"><defs><symbol overflow="visible" id="9e4a6f45a"><path d="M105.781 1.156h3.5v-135.781h31.61v-2.547l-4.641-5.344-6.984-10h-142.75v2.547l4.656 5.36 6.969 9.984h16.968v48.594c0 13.265 4.422 20.469 16.047 29.531 13.25 10 21.625 12.094 29.985 12.094 10.468 0 21.172-5.578 28.843-12.328-.234 26.515-1.171 46.5-1.171 46.5l9.765 5.812zM51.844-59.28c-9.297 0-16.5-5.594-16.5-14.657v-14.64c0-18.14-1.172-29.297-1.172-29.297l49.062 45.11c-9.062 8.593-19.53 13.484-31.39 13.484zm-17.438-75.344h55.11v20c0 16.516.921 33.25.921 33.25l-56.03-52.313zm0 0"/></symbol></defs><use xlink:href="#9e4a6f45a" x="59.55125" y="201.75"/></svg>