<?xml version='1.0' encoding='UTF-8'?>
<svg xmlns="http://www.w3.org/2000/svg" xmlns:xlink="http://www.w3.org/1999/xlink" width="250px" height="250px" viewBox="0 0 250 250" y="0px" x="0px" enable-background="new 0 0 250 250"><defs><symbol overflow="visible" id="f4c74640a"><path d="M37.89-116.484c0-11.86 8.141-19.063 17.22-19.063 10.453 0 21.156 8.375 21.156 28.36 0 7.218-1.407 13.484-3.954 19.062-12.562-1.39-34.421-9.297-34.421-28.36zM82.767-6.047L30.453-46.734C60.922-43.937 94.86-68.125 94.86-99.97c0-13.719-6.046-24.89-15.578-34.656h42.781c0 90.922-.937 124.156-.937 124.156l10 6.047 7.219 5.578h3.484v-135.781h31.61v-2.547l-4.641-5.344-6.984-10H-13.484v2.547l4.656 5.36 6.969 9.984h24.64c-4.875 5.36-6.968 11.172-6.968 17.906 0 18.375 20 31.625 50.218 38.36-8.844 10-22.781 15.125-38.36 15.125-7.218 0-13.25-1.86-17.437-3.266L2.328-53.937c5.344 4.187 16.5 12.312 67.656 56.953zm0 0"/></symbol></defs><use xlink:href="#f4c74640a" x="43.16" y="201.75"/></svg>