<?xml version="1.0" encoding="UTF-8"?><svg enable-background="new 0 0 250 250" height="250px" viewBox="0 0 250 250" width="250px" x="0px" xml:space="preserve" xmlns="http://www.w3.org/2000/svg" xmlns:xlink="http://www.w3.org/1999/xlink" y="0px"><defs><symbol overflow="visible"><path d="M29.063 0h69.703v-119.172H29.062zm11.234-108.797H87.72v98.422H40.296zm0 0"/></symbol><symbol id="31236951a" overflow="visible"><path d="M77.86-35.875c-.172 13.78-1.188 28.22-1.188 28.22l7.312 4.25L89.25.844h2.72v-99.282h23.124v-1.86l-3.406-3.906-5.266-7.313h-43.36v1.86l3.407 3.922 5.093 7.296h5.78v46.25c-3.39 4.594-16.14 17-34.327 17-15.313 0-20.922-9.015-20.922-11.734 0-1.36 1.36-2.03 3.406-2.89 10.375-4.75 35.188-15.813 35.188-33.313 0-16.328-15.297-28.22-29.58-28.22-11.905 0-21.077 7.986-21.077 19.204 0 13.593 13.267 21.42 20.564 24.312-9.172 4.922-19.89 8.5-27.36 11.39C8.156-46.75 23.297-22.78 48.454-22.78c16.655 0 27.202-10.376 29.405-13.095zm-53.72-52.36c0-7.984 5.954-12.578 13.094-12.578 6.11 0 11.22 4.594 11.22 11.563 0 7.14-4.595 12.75-11.22 17.516-6.125-2.563-13.093-8.5-13.093-16.5zm0 0"/></symbol></defs><use x="71.11" xlink:href="#31236951a" y="169"/></svg>