<?xml version="1.0" encoding="UTF-8"?><svg enable-background="new 0 0 250 250" height="250px" viewBox="0 0 250 250" width="250px" x="0px" xml:space="preserve" xmlns="http://www.w3.org/2000/svg" xmlns:xlink="http://www.w3.org/1999/xlink" y="0px"><defs><symbol overflow="visible"><path d="M29.063 0h69.703v-119.172H29.062zm11.234-108.797H87.72v98.422H40.296zm0 0"/></symbol><symbol id="e6475f60a" overflow="visible"><path d="M38.078-5.438C28.048-17.688 21.25-30.765 21.25-41.812c0-10.72 6.625-18.376 21.25-18.376h18.016c0 37.235-.328 52.532-.328 52.532l7.124 4.422L72.594.844h2.547v-99.28h23.126v-1.86l-3.407-3.907-5.266-7.313H-9.86v1.86l3.407 3.922 5.094 7.296h61.547v24.657H36.376c-17.672 0-28.72 10.374-28.72 25.843 0 17.17 12.907 35.53 21.75 46.92zm0 0"/></symbol></defs><use x="79.525" xlink:href="#e6475f60a" y="169"/></svg>