<?xml version='1.0' encoding='UTF-8'?>
<svg xmlns="http://www.w3.org/2000/svg" xmlns:xlink="http://www.w3.org/1999/xlink" width="250px" height="250px" viewBox="0 0 250 250" y="0px" x="0px" enable-background="new 0 0 250 250"><defs><symbol overflow="visible" id="d01d5eaea"><path d="M52.078-7.438c-13.719-16.75-23.016-34.64-23.016-49.75 0-14.656 9.063-25.124 29.063-25.124h24.64c0 50.921-.453 71.843-.453 71.843l9.75 6.047 7.22 5.578h3.484v-135.781h31.625v-2.547l-4.657-5.344-7.203-10H-13.484v2.547l4.656 5.36 6.969 9.984h84.171v33.719H49.75c-24.172 0-39.281 14.187-39.281 35.344 0 23.484 17.656 48.593 29.75 64.171zm0 0"/></symbol></defs><use xlink:href="#d01d5eaea" x="62.80625" y="201.75"/></svg>