<?xml version="1.0" encoding="UTF-8"?><svg enable-background="new 0 0 250 250" height="250px" viewBox="0 0 250 250" width="250px" x="0px" xml:space="preserve" xmlns="http://www.w3.org/2000/svg" xmlns:xlink="http://www.w3.org/1999/xlink" y="0px"><defs><symbol overflow="visible"><path d="M29.063 0h69.703v-119.172H29.062zm11.234-108.797H87.72v98.422H40.296zm0 0"/></symbol><symbol id="7e6ec933a" overflow="visible"><path d="M99.625-98.438v-1.86l-3.406-3.905-5.095-7.313H-9.86v1.86l3.407 3.922 5.094 7.296h63.063v36.735c0 16.312-11.22 26.516-24.47 26.516-12.92 0-19.217-9.688-19.217-18.188 0-11.063 8.672-16.828 19.218-16.828 3.735 0 7.985.844 11.72 2.203l1.03-1.36-6.968-12.75c-3.235-1.36-7.485-2.046-11.22-2.046-14.28 0-26.015 9.53-26.015 24.312C5.78-51 11.048-41.812 16.83-35.36c6.797 7.813 14.797 12.75 24.313 12.75 12.063 0 18.36-6.296 21.422-11.218 0 13.766-1.015 26.172-1.015 26.172l7.14 4.422L73.954.844H76.5v-99.28zm0 0"/></symbol></defs><use x="78.76" xlink:href="#7e6ec933a" y="169"/></svg>