<?xml version='1.0' encoding='UTF-8'?>
<svg xmlns="http://www.w3.org/2000/svg" xmlns:xlink="http://www.w3.org/1999/xlink" width="250px" height="250px" viewBox="0 0 250 250" y="0px" x="0px" enable-background="new 0 0 250 250"><defs><symbol overflow="visible" id="feb098a0a"><path d="M44.875-66.031C39.75-66.5 32.781-71.61 32.781-80.906c0-8.844 6.282-14.422 19.532-14.656l29.53-.922c10.22-.47 11.86-3.266 11.86-7.672v-30.469h43v61.156c-6.969 2.563-15.344 3.485-22.312 3.485-14.188 0-24.875-2.563-30.688-4.188-1.172-.234-2.094-.453-3.266-.453-11.39 0-30.921 7.203-35.562 8.594zm50.688 86.484L61.608-6.28v-.688c26.282 1.39 44.641-10.937 44.641-31.156 0-7.219-1.86-13.031-6.281-20-.453-.703-.922-1.39-1.39-2.094 6.984 3.25 16.046 6.047 26.968 6.047 3.266 0 8.61-.234 11.625-.937 0 31.625-.688 44.64-.688 44.64l9.766 6.047 7.203 5.578h3.484v-135.781h31.625v-2.547l-4.656-5.344-6.969-10H-13.483v2.547l4.656 5.36 6.969 9.984h75.796v23.031c-3.718-.937-13.953-2.562-27.671-2.562-18.594 0-29.532 9.062-29.532 23.25 0 19.062 18.141 37.89 33.485 43.469 0 0 22.328-9.063 32.547-9.063 5.578 0 8.609 4.422 8.609 10.234 0 18.141-20.234 26.735-44.406 24.641L23.953-40.922l-9.078 7.203c.469 18.14 14.656 26.282 29.531 27.203l29.766 35.11zm0 0"/></symbol></defs><use xlink:href="#feb098a0a" x="35.72" y="201.75"/></svg>