<?xml version='1.0' encoding='UTF-8'?>
<svg xmlns="http://www.w3.org/2000/svg" xmlns:xlink="http://www.w3.org/1999/xlink" width="250px" height="250px" viewBox="0 0 250 250" y="0px" x="0px" enable-background="new 0 0 250 250"><defs><symbol overflow="visible" id="dbe6214aa"><path d="M125.188-98.984c-3.5-3.97-10.532-7.72-19.891-7.72-11.703 0-22 7.016-25.5 19.657h-.938c-3.515-11.234-13.578-18.719-28.78-18.719-19.188 0-37.673 14.735-37.673 42.36 0 29.25 18.953 52.875 41.407 65.047L65.75-11C42.828-23.406 30.656-41.656 30.656-62.953c0-18.719 9.828-26.672 21.063-26.672 11.687 0 19.187 7.484 19.187 22.703v22.234h17.078v-22.234c0-15.922 7.954-23.64 19.422-23.64 7.953 0 15.203 4.218 18.719 7.718V0h17.781v-135.25h28.078v-14.984H-5.14v14.984h131.266v36.266zm0 0"/></symbol></defs><use xlink:href="#dbe6214aa" x="41.579" y="199.5"/></svg>