<?xml version='1.0' encoding='UTF-8'?>
<svg xmlns="http://www.w3.org/2000/svg" xmlns:xlink="http://www.w3.org/1999/xlink" width="250px" height="250px" viewBox="0 0 250 250" y="0px" x="0px" enable-background="new 0 0 250 250"><defs><symbol overflow="visible" id="8b710917a"><path d="M142.625-125.281v-13.875H-4.765v13.875h31.421v.86c-4.11 2.171-9.75 8.03-9.75 17.78 0 13.657 9.532 21.235 20.375 22.766v.86c-8.89 2.39-18.86 10.624-18.86 24.703 0 17.124 13.657 32.953 40.75 32.953 22.767 0 35.11-10.844 39.892-17.344h.859V0h16.469v-125.281zM60.906-39.875c-18.422 0-25.14-9.766-25.14-19.078 0-10.406 7.156-17.563 22.328-17.563h12.781v-14.078H57.437c-16.25 0-23.187-7.375-23.187-16.922 0-9.968 6.719-17.765 21.453-17.765h44.438v48.547c0 20.156-14.094 36.859-39.235 36.859zm0 0"/></symbol></defs><use xlink:href="#8b710917a" x="56.18188" y="189.25"/></svg>