<?xml version="1.0" encoding="UTF-8"?><svg enable-background="new 0 0 250 250" height="250px" viewBox="0 0 250 250" width="250px" x="0px" xml:space="preserve" xmlns="http://www.w3.org/2000/svg" xmlns:xlink="http://www.w3.org/1999/xlink" y="0px"><defs><symbol overflow="visible"><path d="M29.922 0H97.75v-119.172H29.922zm10.03-109.813H87.72v100.47H39.952zm0 0"/></symbol><symbol id="82bb4a09a" overflow="visible"><path d="M73.953-35.53V0h12.922v-98.266h20.563v-10.875H-3.734v10.874h28.718c4.422 3.922 7.313 10.032 7.313 16.157 0 10.547-8.844 16.157-24.484 19.547 2.734 24.83 18.375 39.266 38.593 39.266 15.813 0 23.797-8.156 26.86-12.234zM22.61-56.61c13.093-3.062 22.78-11.734 22.78-23.624 0-7.485-2.718-12.922-6.796-17.344v-.688h35.53v35.36c0 17.86-10.89 27.89-25.843 27.89-17 0-24.31-12.422-25.67-21.593zm0 0"/></symbol></defs><use x="73.235" xlink:href="#82bb4a09a" y="169"/></svg>