<?xml version='1.0' encoding='UTF-8'?>
<svg xmlns="http://www.w3.org/2000/svg" xmlns:xlink="http://www.w3.org/1999/xlink" width="250px" height="250px" viewBox="0 0 250 250" y="0px" x="0px" enable-background="new 0 0 250 250"><defs><symbol overflow="visible" id="e9b1c0aaa"><path d="M95.938-13.11c5.859-5.374 11.234-13.796 11.234-24.796 0-16.61-12.406-32.063-38.375-32.063-7.719 0-14.75 1.172-20.828 3.516-7.719-4.453-13.344-11.938-13.344-19.422 0-6.094 3.516-11 14.516-11h49.843v-38.375h24.797v-14.984H-5.14v14.984h87.047v23.156h-36.75c-18.25 0-28.312 10.063-28.312 23.875 0 12.875 7.718 23.406 17.093 29.25-9.593 7.25-14.984 17.547-14.984 28.547 0 29.485 28.313 46.563 73.703 49.844l7.5-15.203C52.656 1.64 36.97-12.875 36.97-29.953c0-13.813 12.64-24.328 32.297-24.328 13.796 0 20.593 7.015 20.593 15.672 0 6.312-3.515 11.937-9.359 16.609zm0 0"/></symbol></defs><use xlink:href="#e9b1c0aaa" x="65.681" y="199.5"/></svg>