<?xml version="1.0" encoding="UTF-8"?><svg enable-background="new 0 0 250 250" height="250px" viewBox="0 0 250 250" width="250px" x="0px" xml:space="preserve" xmlns="http://www.w3.org/2000/svg" xmlns:xlink="http://www.w3.org/1999/xlink" y="0px"><defs><symbol overflow="visible"><path d="M29.922 0H97.75v-119.172H29.922zm10.03-109.813H87.72v100.47H39.952zm0 0"/></symbol><symbol id="15374c60a" overflow="visible"><path d="M48.953-6.97c24.14 0 40.64-15.468 40.64-35.186 0-18.36-13.937-28.735-24.14-33.157v-22.953h35.86v-10.875H-3.734v10.874H52.53v19.39l-19.718 6.11c-16.5 4.938-24.828 13.61-24.828 28.39 0 20.58 17.172 37.407 40.97 37.407zm-1.516-11.733c-17.17 0-26.36-11.89-26.36-23.625 0-9.688 3.407-15.813 19.892-20.578l13.593-4.078c8.343 1.875 22.11 9.187 22.11 23.796 0 12.922-9.19 24.485-29.236 24.485zm0 0"/></symbol></defs><use x="76.21" xlink:href="#15374c60a" y="169"/></svg>