<?xml version='1.0' encoding='UTF-8'?>
<svg xmlns="http://www.w3.org/2000/svg" xmlns:xlink="http://www.w3.org/1999/xlink" width="250px" height="250px" viewBox="0 0 250 250" y="0px" x="0px" enable-background="new 0 0 250 250"><defs><symbol overflow="visible" id="4244462da"><path d="M118.344 0v-125.281h26.234v-13.875h-42.484v59.828c0 22.11-13.219 41.828-40.75 41.828-24.938 0-33.813-20.375-34.907-29.266 4.344-1.078 8.454-2.156 12.797-3.468 27.532-7.579 42.047-20.797 42.047-40.735 0-17.562-12.14-30.36-31.219-30.36-18.421 0-31.203 12.798-31.203 28.188 0 8.454 3.688 14.954 6.938 18.204l15.39-4.547c-3.468-3.032-6.078-8.454-6.078-13.016 0-8.875 6.297-14.078 14.953-14.078 9.329 0 14.97 6.062 14.97 15.172 0 11.922-5.641 20.812-36.204 29.469L6.938-75.86C8.671-45.953 28.172-22.547 60.25-22.547c22.328 0 35.766-11.047 40.969-19.062h.875V0zm0 0"/></symbol></defs><use xlink:href="#4244462da" x="55.09812" y="189.25"/></svg>