<?xml version='1.0' encoding='UTF-8'?>
<svg xmlns="http://www.w3.org/2000/svg" xmlns:xlink="http://www.w3.org/1999/xlink" width="250px" height="250px" viewBox="0 0 250 250" y="0px" x="0px" enable-background="new 0 0 250 250"><defs><symbol overflow="visible" id="37d65cf5a"><path d="M-.938-34.156C5.375-22 21.532-5.375 48.672-5.375c29.953 0 47.266-18.266 47.266-41.656 0-18.25-12.172-30.188-25.735-33.235v-.937c10.766-3.969 19.188-14.969 19.188-28.547 0-14.734-8.188-21.766-12.407-24.094v-1.406h39.313v-14.984H-5.141v14.984h46.094c19.89 0 29.953 7.484 29.953 24.797 0 16.156-12.172 23.172-24.578 23.172H34.391v15.906h14.28c19.188 0 28.782 9.828 28.782 24.11 0 15.203-10.531 25.734-28.781 25.734-16.375 0-28.078-10.063-34.86-22.453zm0 0"/></symbol></defs><use xlink:href="#37d65cf5a" x="69.425" y="199.5"/></svg>