<?xml version="1.0" encoding="UTF-8"?><svg enable-background="new 0 0 250 250" height="250px" viewBox="0 0 250 250" width="250px" x="0px" xml:space="preserve" xmlns="http://www.w3.org/2000/svg" xmlns:xlink="http://www.w3.org/1999/xlink" y="0px"><defs><symbol overflow="visible"><path d="M29.922 0H97.75v-119.172H29.922zm10.03-109.813H87.72v100.47H39.952zm0 0"/></symbol><symbol id="b5d01a30a" overflow="visible"><path d="M38.766-75.656c-6.47-1.53-9.703-6.625-9.703-11.72 0-6.968 4.937-12.25 13.437-12.25 8.156 0 15.984 6.814 15.984 19.72 0 16.5-13.265 26.187-30.78 26.187-5.267 0-11.892-.843-17.5-2.89L2.546-46.233l11.906 10.03 39.094 38.08 10.72-7.313-22.61-21.766c-8.173-7.813-12.25-10.875-17.173-14.953l.328-.688c25.344 1.703 46.922-11.89 46.922-37.218 0-15.813-10.03-30.782-29.406-30.782-15.64 0-26.172 10.72-26.172 23.64 0 9.688 5.266 17.673 14.782 20.39zM92.484 0h12.75v-98.266h20.563v-10.875H92.484zm0 0"/></symbol></defs><use x="63.97" xlink:href="#b5d01a30a" y="169"/></svg>