<?xml version="1.0" encoding="UTF-8"?><svg enable-background="new 0 0 250 250" height="250px" viewBox="0 0 250 250" width="250px" x="0px" xml:space="preserve" xmlns="http://www.w3.org/2000/svg" xmlns:xlink="http://www.w3.org/1999/xlink" y="0px"><defs><symbol overflow="visible"><path d="M29.922 0H97.75v-119.172H29.922zm10.03-109.813H87.72v100.47H39.952zm0 0"/></symbol><symbol id="763ca17ca" overflow="visible"><path d="M63.063-42.844V0h12.593v-44.203C75.656-58.313 84.828-68 97.062-68c10.72 0 17.86 6.97 17.86 17.516 0 12.406-9.188 21.578-24.656 18.687l2.046 11.906c19.547 2.374 35.876-10.376 35.876-30.766 0-17.516-13.094-29.078-28.907-29.078-12.233 0-19.89 6.296-22.952 10.375h-.672v-28.906h63.235v-10.875H-3.733v10.874h18.36v37.75c0 18.016 10.702 27.703 26.515 27.703 11.563 0 18.36-5.437 21.25-10.03zm0-24.812c0 14.11-7.985 23.11-20.563 23.11-9.688 0-15.125-5.095-15.125-17.845v-35.876h35.688zm0 0"/></symbol></defs><use x="57.51" xlink:href="#763ca17ca" y="169"/></svg>