<?xml version="1.0" encoding="UTF-8"?><svg enable-background="new 0 0 250 250" height="250px" viewBox="0 0 250 250" width="250px" x="0px" xml:space="preserve" xmlns="http://www.w3.org/2000/svg" xmlns:xlink="http://www.w3.org/1999/xlink" y="0px"><defs><symbol overflow="visible"><path d="M29.922 0H97.75v-119.172H29.922zm10.03-109.813H87.72v100.47H39.952zm0 0"/></symbol><symbol id="3e214589a" overflow="visible"><path d="M67.656-72.25v-26.016h25v-10.875h-96.39v10.874h58.468v17l-20.39 5.11c-17.516 4.25-26.36 13.594-26.36 28.39 0 18.016 14.97 35.532 38.938 35.532 5.953 0 11.89-1.204 16.484-3.407L75.813 6.796l15.14-3.734-18.875-23.97c3.063-2.718 5.953-7.312 5.953-14.11 0-7.31-4.764-12.077-8.5-13.936l-9.343 3.39v17.344c-2.89 2.548-8.343 4.25-14.968 4.25-14.11.173-24.142-9.858-24.142-22.264 0-9.532 4.938-15.64 19.89-19.563zm0 0"/></symbol></defs><use x="80.545" xlink:href="#3e214589a" y="169"/></svg>