<?xml version='1.0' encoding='UTF-8'?>
<svg xmlns="http://www.w3.org/2000/svg" xmlns:xlink="http://www.w3.org/1999/xlink" width="250px" height="250px" viewBox="0 0 250 250" y="0px" x="0px" enable-background="new 0 0 250 250"><defs><symbol overflow="visible" id="3dc73bc3a"><path d="M80.422-54.625V0h16.031v-56.36c0-17.984 11.703-30.343 27.313-30.343 13.656 0 22.75 8.89 22.75 22.328 0 15.828-11.703 27.531-31.422 23.844l2.594 15.172c24.937 3.03 45.734-13.22 45.734-39.235 0-22.328-16.688-37.062-36.844-37.062-15.61 0-25.36 8.015-29.25 13.219h-.875v-36.844h80.625v-13.875H-4.766v13.875h23.407v48.125c0 22.969 13.656 35.328 33.812 35.328 14.734 0 23.406-6.938 27.094-12.797zm0-31.64c0 17.984-10.188 29.484-26.234 29.484-12.36 0-19.297-6.516-19.297-22.766v-45.734h45.53zm0 0"/></symbol></defs><use xlink:href="#3dc73bc3a" x="38.95025" y="189.25"/></svg>