<?xml version='1.0' encoding='UTF-8'?>
<svg xmlns="http://www.w3.org/2000/svg" xmlns:xlink="http://www.w3.org/1999/xlink" width="250px" height="250px" viewBox="0 0 250 250" y="0px" x="0px" enable-background="new 0 0 250 250"><defs><symbol overflow="visible" id="8054d718a"><path d="M115.75 0v-125.281h26v-13.875H80.844v13.875h18.64v48.125c0 19.281-13.656 37.062-39.656 37.062-18.422 0-24.937-9.765-24.937-19.078 0-10.406 7.156-17.344 22.547-17.344h13.437v-14.296H56.781c-16.25 0-23.187-7.376-23.187-16.704 0-8.453 5.422-14.515 15.828-17.765l-3.25-13.875H-4.766v13.875h31.203v.86c-4.546 2.171-10.187 8.25-10.187 17.78 0 13.657 9.547 21.235 20.375 22.547v.86c-9.094 2.39-18.844 10.625-18.844 24.718 0 16.907 13.438 32.938 40.532 32.938 22.75 0 35.328-11.047 40.093-17.344h.86V0zm0 0"/></symbol></defs><use xlink:href="#8054d718a" x="56.507" y="189.25"/></svg>