<?xml version='1.0' encoding='UTF-8'?>
<svg xmlns="http://www.w3.org/2000/svg" xmlns:xlink="http://www.w3.org/1999/xlink" width="250px" height="250px" viewBox="0 0 250 250" y="0px" x="0px" enable-background="new 0 0 250 250"><defs><symbol overflow="visible" id="57f023e4a"><path d="M151.39-69.5c0 19.422-16.843 26.906-33.687 23.875l2.813 16.14c25.03 3.516 49.14-11.937 49.14-40.25 0-24.328-18.031-40.015-39.312-40.015-16.156 0-25.985 7.484-30.422 13.578h-.938v-39.078h86.344v-14.984H-5.14v14.984h86.579v60.375c0 17.547-11.235 29.484-27.844 29.484-14.75 0-24.578-10.297-24.578-24.343 0-19.657 16.843-26.907 33.703-24.094l-2.813-16.156C34.625-113.25 10.531-97.813 10.531-69.5c0 23.875 18.485 40.016 39.782 40.016 16.374 0 25.734-7.72 30.187-13.344h.938V0h17.546v-64.344c0-17.562 11.235-29.484 27.844-29.484 14.516 0 24.563 9.828 24.563 24.328zm0 0"/></symbol></defs><use xlink:href="#57f023e4a" x="34.91" y="199.5"/></svg>