<?xml version="1.0" encoding="UTF-8"?><svg enable-background="new 0 0 250 250" height="250px" viewBox="0 0 250 250" width="250px" x="0px" xml:space="preserve" xmlns="http://www.w3.org/2000/svg" xmlns:xlink="http://www.w3.org/1999/xlink" y="0px"><defs><symbol overflow="visible"><path d="M29.922 0H97.75v-119.172H29.922zm10.03-109.813H87.72v100.47H39.952zm0 0"/></symbol><symbol id="477c2a23a" overflow="visible"><path d="M69.703-57.453c-6.297 0-12.75-.86-18.187-2.39.5-1.704.672-3.735.672-5.782v-32.64h33.656v38.593c-4.25 1.36-10.03 2.22-16.14 2.22zM26.016-45.39c1.53.515 4.25.515 5.61.515 5.608-.172 10.874-1.875 14.608-5.28 6.297 2.39 15.47 4.093 23.97 4.093 6.812 0 11.734-.516 15.64-1.376V0h12.922v-98.266h20.578v-10.875H-3.734v10.874h43.172v31.625c0 7.828-3.907 11.046-11.22 11.046-7.984 0-12.577-4.25-15.468-7.64l-9.688 7.64 43.86 57.47 10.375-6.813-19.89-25.83c-4.594-6.124-8-9.858-11.735-14.108zm0 0"/></symbol></defs><use x="67.2" xlink:href="#477c2a23a" y="169"/></svg>