<?xml version='1.0' encoding='UTF-8'?>
<svg xmlns="http://www.w3.org/2000/svg" xmlns:xlink="http://www.w3.org/1999/xlink" width="250px" height="250px" viewBox="0 0 250 250" y="0px" x="0px" enable-background="new 0 0 250 250"><defs><symbol overflow="visible" id="489f753da"><path d="M89.39-23.64L37.673-68.329v-66.922h51.953v39.313c0 13.093-6.094 18.953-16.156 23.156l13.578 11.703c13.578-6.781 20.125-17.078 20.125-34.625v-39.547h26.203v-14.984H-5.141v14.984h25.266v74.172l59.438 51.25c5.374 4.453 8.656 9.125 8.656 14.969 0 6.796-3.75 12.875-7.953 17.562v1.172h18.953C102.953 18.953 106 11.703 106 4.453c0-10.765-5.844-18.5-16.61-28.094zm0 0"/></symbol></defs><use xlink:href="#489f753da" x="60.884" y="199.5"/></svg>