<?xml version='1.0' encoding='UTF-8'?>
<svg xmlns="http://www.w3.org/2000/svg" xmlns:xlink="http://www.w3.org/1999/xlink" width="250px" height="250px" viewBox="0 0 250 250" y="0px" x="0px" enable-background="new 0 0 250 250"><defs><symbol overflow="visible" id="f75e172ca"><path d="M101.656-125.281h26.016v-13.875H-4.766v13.875h89.954v57.875c0 5.625-1.313 10.828-3.907 15.39l-43.14-35.547c5-3.25 11.062-4.984 17.562-4.984 4.766 0 9.75.64 14.531 2.375l-.656-15.172c-4.547-1.297-9.75-1.734-14.953-1.734-23.406 0-44.656 16.906-44.656 42.703 0 24.5 18.64 41.828 42.047 41.828 16.687 0 27.312-7.797 32.297-14.078h.874V0h16.47zM54.187-37.062c-17.124 0-27.953-11.922-27.953-27.75 0-5.626 1.516-10.407 3.891-14.516l43.781 35.984c-5.203 3.89-11.922 6.282-19.719 6.282zm0 0"/></symbol></defs><use xlink:href="#f75e172ca" x="63.55138" y="189.25"/></svg>