<?xml version='1.0' encoding='UTF-8'?>
<svg xmlns="http://www.w3.org/2000/svg" xmlns:xlink="http://www.w3.org/1999/xlink" width="250px" height="250px" viewBox="0 0 250 250" y="0px" x="0px" enable-background="new 0 0 250 250"><defs><symbol overflow="visible" id="489f753da"><path d="M82.797-21.89L34.89-63.298v-61.984h48.125v36.406c0 12.14-5.641 17.563-14.954 21.469l12.563 10.828c12.578-6.281 18.64-15.813 18.64-32.078v-36.625h24.282v-13.875H-4.766v13.875h23.407v68.703L73.688-9.11c5 4.125 8.03 8.453 8.03 13.875 0 6.28-3.468 11.921-7.374 16.265v1.078h17.562c3.469-4.547 6.281-11.265 6.281-17.984 0-9.984-5.421-17.125-15.39-26.016zm0 0"/></symbol></defs><use xlink:href="#489f753da" x="65.6105" y="189.25"/></svg>