<?xml version='1.0' encoding='UTF-8'?>
<svg xmlns="http://www.w3.org/2000/svg" xmlns:xlink="http://www.w3.org/1999/xlink" width="250px" height="250px" viewBox="0 0 250 250" y="0px" x="0px" enable-background="new 0 0 250 250"><defs><symbol overflow="visible" id="4c9c5fe6a"><path d="M161.906-139.156h-65.89v13.875h23.203v53.312c-3.906 2.39-9.985 4.563-18.64 4.563-8.673 0-15.391-2.39-20.595-5.422-3.906-3.469-8.453-5.86-12.796-6.938v-.859c6.937-3.469 15.39-13.016 15.39-26.453 0-17.984-13-32.297-34.89-32.297-14.313 0-24.922 6.297-30.782 13.875l11.485 10.406c3.687-5.203 9.547-9.531 18.859-9.531 11.703 0 18.86 7.36 18.86 18.64 0 13-9.11 21.016-22.547 21.016h-6.72v14.531h11.704c15.39 0 23.844 7.141 23.844 19.282 0 12.14-8.016 22.11-24.266 22.11-13.438 0-22.547-7.157-27.75-13.22L9.109-31c6.938 7.156 20.157 16.484 39.016 16.484 25.14 0 40.75-16.265 40.75-36.859 0-1.953-.219-3.672-.438-5.406 4.547 2.156 9.97 3.453 16.25 3.453 6.282 0 11.063-1.516 14.532-3.031V0h16.469v-125.281h26.218zm0 0"/></symbol></defs><use xlink:href="#4c9c5fe6a" x="46.42812" y="189.25"/></svg>