<?xml version='1.0' encoding='UTF-8'?>
<svg xmlns="http://www.w3.org/2000/svg" xmlns:xlink="http://www.w3.org/1999/xlink" width="250px" height="250px" viewBox="0 0 250 250" y="0px" x="0px" enable-background="new 0 0 250 250"><defs><symbol overflow="visible" id="503d6b9da"><path d="M93.125-99.453v-35.797h34.406v-14.984H-5.14v14.984h80.485v23.39l-28.078 7.032C23.172-98.984 11-86.11 11-65.75c0 24.797 20.594 48.906 53.578 48.906 8.203 0 16.39-1.64 22.703-4.687l17.078 30.89 20.829-5.14-25.97-33c4.204-3.75 8.188-10.063 8.188-19.422 0-10.063-6.547-16.61-11.703-19.188l-12.86 4.672v23.875C78.86-35.328 71.376-33 62.25-33c-19.422.234-33.234-13.563-33.234-30.64 0-13.11 6.78-21.532 27.375-26.922zm0 0"/></symbol></defs><use xlink:href="#503d6b9da" x="63.809" y="199.5"/></svg>