<?xml version='1.0' encoding='UTF-8'?>
<svg xmlns="http://www.w3.org/2000/svg" xmlns:xlink="http://www.w3.org/1999/xlink" width="250px" height="250px" viewBox="0 0 250 250" y="0px" x="0px" enable-background="new 0 0 250 250"><defs><symbol overflow="visible" id="87c3af56a"><path d="M101.797-48.906V0h17.781v-135.25h28.313v-14.984H-5.141v14.984h39.532c6.093 5.375 10.062 13.797 10.062 22.234 0 14.5-12.156 22.22-33.687 26.907 3.75 34.156 25.265 54.046 53.109 54.046 21.766 0 32.766-11.234 36.984-16.843zM31.125-77.922c18.016-4.219 31.36-16.14 31.36-32.531 0-10.297-3.75-17.781-9.36-23.86v-.937h48.906v48.672c0 24.562-14.984 38.375-35.578 38.375-23.39 0-33.453-17.078-35.328-29.719zm0 0"/></symbol></defs><use xlink:href="#87c3af56a" x="53.747" y="199.5"/></svg>