<?xml version="1.0" encoding="UTF-8"?><svg enable-background="new 0 0 250 250" height="250px" viewBox="0 0 250 250" width="250px" x="0px" xml:space="preserve" xmlns="http://www.w3.org/2000/svg" xmlns:xlink="http://www.w3.org/1999/xlink" y="0px"><defs><symbol overflow="visible"><path d="M29.922 0H97.75v-119.172H29.922zm10.03-109.813H87.72v100.47H39.952zm0 0"/></symbol><symbol id="75acee4fa" overflow="visible"><path d="M90.78 0v-98.266h20.407v-10.875h-47.78v10.874H78.03v37.75c0 15.125-10.718 29.063-31.108 29.063-14.453 0-19.547-7.64-19.547-14.953 0-8.157 5.61-13.61 17.672-13.61h10.547v-11.218H44.547c-12.75 0-18.203-5.782-18.203-13.08 0-6.64 4.25-11.39 12.422-13.952l-2.563-10.875H-3.734v10.874h24.468v.688c-3.562 1.703-7.984 6.453-7.984 13.937 0 10.703 7.484 16.656 15.984 17.687v.672c-7.14 1.874-14.797 8.327-14.797 19.374 0 13.265 10.547 25.843 31.797 25.843 17.844 0 27.703-8.67 31.453-13.593h.672V0zm0 0"/></symbol></defs><use x="71.28" xlink:href="#75acee4fa" y="169"/></svg>