<?xml version='1.0' encoding='UTF-8'?>
<svg xmlns="http://www.w3.org/2000/svg" xmlns:xlink="http://www.w3.org/1999/xlink" width="250px" height="250px" viewBox="0 0 250 250" y="0px" x="0px" enable-background="new 0 0 250 250"><defs><symbol overflow="visible" id="59bef359a"><path d="M36.031-91.5c4.453-2.797 11-4.906 18.485-4.672 14.515.469 25.047 9.828 25.047 26.438 0 18.484-13.579 28.546-28.547 28.546-18.72 0-29.72-11.234-36.97-22.687L1.876-51.485c7.719 12.172 24.328 26.922 48.906 26.922 25.032 0 44.219-16.39 46.563-40.484 5.375 1.406 11.469 1.86 17.312 2.094 3.047 0 5.86 0 8.656-.453V0h17.563v-135.25h28.313v-14.984H-5.142v14.984h128.453v55.219a92.997 92.997 0 0 1-11.218.703c-5.39 0-10.766-.469-15.688-1.406-4.437-19.891-20.828-32.047-42.594-32.047-11.218.234-18.953 3.265-24.328 6.312zm0 0"/></symbol></defs><use xlink:href="#59bef359a" x="42.983" y="199.5"/></svg>