<?xml version='1.0' encoding='UTF-8'?>
<svg xmlns="http://www.w3.org/2000/svg" xmlns:xlink="http://www.w3.org/1999/xlink" width="250px" height="250px" viewBox="0 0 250 250" y="0px" x="0px" enable-background="new 0 0 250 250"><defs><symbol overflow="visible" id="fb14935ba"><path d="M59.172-81.281c8.234 2.39 19.937 9.75 19.937 23.406 0 10.406-6.937 18-18.859 18-23.188 0-37.063-27.969-38.14-53.984L6.062-87.344c3.046 26 19.734 62.422 55.28 62.422 21.016 0 34.032-14.312 34.032-31.656 0-13-6.5-20.375-10.406-23.625v-.86h37.719V0h16.468v-125.281h26.219v-13.875H-4.765v13.875h127.453v30.125h-56.36l-7.156 12.578zm0 0"/></symbol></defs><use xlink:href="#fb14935ba" x="44.69412" y="189.25"/></svg>