<?xml version="1.0" encoding="UTF-8"?><svg enable-background="new 0 0 250 250" height="250px" viewBox="0 0 250 250" width="250px" x="0px" xml:space="preserve" xmlns="http://www.w3.org/2000/svg" xmlns:xlink="http://www.w3.org/1999/xlink" y="0px"><defs><symbol overflow="visible"><path d="M29.922 0H97.75v-119.172H29.922zm10.03-109.813H87.72v100.47H39.952zm0 0"/></symbol><symbol id="e20e589ea" overflow="visible"><path d="M84.313-61.375c0 4.594 3.406 8.172 8.17 8.172 4.75 0 8.33-3.578 8.33-8.172 0-4.75-3.58-8.328-8.33-8.328-4.592 0-8.17 3.578-8.17 8.328zm-42.657 13.78c-6.125-1.702-10.89-7.655-10.89-13.436 0-5.61 2.39-9.345 12.422-9.345h30.937v-27.89h35.36v-10.876H-3.736v10.874h65.282v16.83H37.063c-12.25 0-19.376 7.31-19.376 17.858 0 12.922 9.688 23.797 21.75 28.047l26.516-5.61c3.406 2.546 4.938 6.296 4.938 10.703 0 10.89-8.67 17.17-21.078 17.17-15.124 0-27.03-9.858-34.17-24.14l-9.517 6.97C14.797-14.11 29.75-2.047 49.813-2.047c20.39 0 33.484-12.75 33.484-28.39 0-10.704-5.78-19.547-13.094-22.938zm0 0"/></symbol></defs><use x="72.13" xlink:href="#e20e589ea" y="169"/></svg>