<?xml version="1.0" encoding="UTF-8"?><svg enable-background="new 0 0 250 250" height="250px" viewBox="0 0 250 250" width="250px" x="0px" xml:space="preserve" xmlns="http://www.w3.org/2000/svg" xmlns:xlink="http://www.w3.org/1999/xlink" y="0px"><defs><symbol overflow="visible"><path d="M29.922 0H97.75v-119.172H29.922zm10.03-109.813H87.72v100.47H39.952zm0 0"/></symbol><symbol id="9763f641a" overflow="visible"><path d="M135.156-98.266v-10.875H-3.734v10.874h61.03v17.172H31.954c-12.234 0-19.547 7.14-19.547 17.516 0 13.266 9.86 24.312 21.938 28.047l26.515-5.44c2.046 1.36 4.765 4.595 4.765 10.204 0 11.22-11.39 16.313-23.125 16.313h-5.78L14.624-29.578c-2.39 1.36-4.766 4.422-4.766 8.844 0 7.984 7.656 16.312 25.328 16.828l26.687 24.14 13.938-7.312-26.86-17.688v-.67c14.28-.345 28.906-8.845 28.906-25.502 0-2.89-.344-5.437-1.016-7.656 3.734 1.188 7.984 2.047 12.406 2.047 4.938 0 9.188-.516 12.75-1.703V0h12.578v-98.266zM65.11-53.376l-28.735 5.938C30.437-48.953 25.5-54.733 25.5-60.688c0-5.437 2.375-9.36 12.406-9.36h31.97v-28.218H102v47.61c-3.734 1.703-9.016 2.89-14.953 2.89-7.313 0-14.28-1.703-18.703-3.578-1.188-.843-2.22-1.53-3.235-2.03zm0 0"/></symbol></defs><use x="59.295" xlink:href="#9763f641a" y="169"/></svg>