<?xml version="1.0" encoding="UTF-8"?><svg enable-background="new 0 0 250 250" height="250px" viewBox="0 0 250 250" width="250px" x="0px" xml:space="preserve" xmlns="http://www.w3.org/2000/svg" xmlns:xlink="http://www.w3.org/1999/xlink" y="0px"><defs><symbol overflow="visible"><path d="M29.922 0H97.75v-119.172H29.922zm10.03-109.813H87.72v100.47H39.952zm0 0"/></symbol><symbol id="a1b0ca18a" overflow="visible"><path d="M50.828-18.016c-18.016 0-29.578-13.265-29.578-26.53 0-9.86 4.078-17.673 19.89-21.75l28.39-7.485v-24.486h23.626v-10.875h-96.89v10.874H56.61v15.47l-23.126 6.64c-15.64 4.25-25.5 15.47-25.5 30.422 0 21.422 19.047 39.28 43.188 39.28 17.516 0 29.578-11.905 29.578-25.843 0-11.562-9.344-20.906-21.594-20.906-13.937 0-20.734 10.53-20.734 19.03l10.375 5.44c-1.03-6.626 2.547-12.75 9.86-12.75 5.61 0 9.515 4.25 9.515 9.358 0 8.156-6.297 14.11-17.344 14.11zm0 0"/></symbol></defs><use x="80.29" xlink:href="#a1b0ca18a" y="169"/></svg>