<?xml version='1.0' encoding='UTF-8'?>
<svg xmlns="http://www.w3.org/2000/svg" xmlns:xlink="http://www.w3.org/1999/xlink" width="250px" height="250px" viewBox="0 0 250 250" y="0px" x="0px" enable-background="new 0 0 250 250"><defs><symbol overflow="visible" id="0b2a1cc9a"><path d="M62.422-8.89c30.781 0 51.812-19.72 51.812-44.86 0-23.406-17.78-36.64-30.78-42.266v-29.265h45.734v-13.875H-4.767v13.875H66.97v24.703l-25.14 7.812c-21.017 6.282-31.642 17.344-31.642 36.188 0 26.234 21.891 47.687 52.235 47.687zm-1.953-14.954c-21.89 0-33.594-15.172-33.594-30.125 0-12.36 4.344-20.156 25.36-26.234l17.343-5.203c10.625 2.39 28.172 11.719 28.172 30.36 0 16.468-11.703 31.202-37.281 31.202zm0 0"/></symbol></defs><use xlink:href="#0b2a1cc9a" x="62.79275" y="189.25"/></svg>