<?xml version='1.0' encoding='UTF-8'?>
<svg xmlns="http://www.w3.org/2000/svg" xmlns:xlink="http://www.w3.org/1999/xlink" width="250px" height="250px" viewBox="0 0 250 250" y="0px" x="0px" enable-background="new 0 0 250 250"><defs><symbol overflow="visible" id="c4c13d92a"><path d="M134.61-28.39V0h15.593v-125.281h26.234v-13.875H-4.766v13.875h55.922v35.984c0 9.313-4.562 12.781-10.843 12.781-8.016 0-12.141-4.328-14.954-9.75L11.047-81.28c4.344 42.484 29.484 75 72.406 75 23.625 0 40.969-10.625 50.281-22.11zm-1.094-71.094c-3.907-3.907-9.97-7.375-21.016-7.375-18.438 0-33.39 13.875-33.39 33.375 0 20.156 15.609 31.437 30.562 32.515l8.672-11.484C103.609-53.11 94.5-61.563 94.5-73.266c0-11.484 8.234-19.28 19.734-19.28 10.829 0 20.797 8.452 20.797 23.843 0 30.125-23.625 47.89-51.156 47.89-26 0-46.813-16.25-52.875-44.64 2.594 1.297 6.063 2.375 11.922 2.375 13.656 0 24.266-9.531 24.266-26.875v-35.328h67.203v25.797zm0 0"/></symbol></defs><use xlink:href="#c4c13d92a" x="39.167" y="189.25"/></svg>