<?xml version="1.0" encoding="UTF-8"?><svg enable-background="new 0 0 250 250" height="250px" viewBox="0 0 250 250" width="250px" x="0px" xml:space="preserve" xmlns="http://www.w3.org/2000/svg" xmlns:xlink="http://www.w3.org/1999/xlink" y="0px"><defs><symbol overflow="visible"><path d="M29.922 0H97.75v-119.172H29.922zm10.03-109.813H87.72v100.47H39.952zm0 0"/></symbol><symbol id="7c3a40e4a" overflow="visible"><path d="M26.188-46.922c1.687.516 4.406.688 5.765.688 10.89-.344 20.578-6.64 20.578-20.75v-31.282H72.08v-10.875H-3.734v10.874H39.78v30.094c0 7.984-3.905 11.22-11.39 11.22-7.828 0-12.578-4.423-15.64-7.986l-9.688 7.64L47.094.517l10.36-6.97-19.72-25.843c-4.578-5.953-7.984-9.86-11.718-14.11zm0 0"/></symbol></defs><use x="90.83" xlink:href="#7c3a40e4a" y="169"/></svg>