<?xml version='1.0' encoding='UTF-8'?>
<svg xmlns="http://www.w3.org/2000/svg" xmlns:xlink="http://www.w3.org/1999/xlink" width="250px" height="250px" viewBox="0 0 250 250" y="0px" x="0px" enable-background="new 0 0 250 250"><defs><symbol overflow="visible" id="5236d563a"><path d="M116.063-84.469c0 6.313 4.687 11.235 11.234 11.235s11.469-4.922 11.469-11.235c0-6.562-4.922-11.469-11.47-11.469-6.312 0-11.234 4.907-11.234 11.47zM57.328-65.516C48.906-67.859 42.36-76.046 42.36-84c0-7.734 3.266-12.875 17.078-12.875h42.594v-38.375h48.672v-14.984H-5.14v14.984h89.844v23.156H51.016c-16.86 0-26.672 10.063-26.672 24.578 0 17.782 13.328 32.766 29.937 38.61l36.516-7.719c4.672 3.5 6.781 8.656 6.781 14.734 0 14.985-11.937 23.641-29.016 23.641-20.828 0-37.203-13.578-47.03-33.234l-13.11 9.593C20.359-19.42 40.953-2.813 68.562-2.813c28.079 0 46.094-17.546 46.094-39.078 0-14.734-7.953-26.906-18.015-31.578zm0 0"/></symbol></defs><use xlink:href="#5236d563a" x="52.226" y="199.5"/></svg>