<?xml version='1.0' encoding='UTF-8'?>
<svg xmlns="http://www.w3.org/2000/svg" xmlns:xlink="http://www.w3.org/1999/xlink" width="250px" height="250px" viewBox="0 0 250 250" y="0px" x="0px" enable-background="new 0 0 250 250"><defs><symbol overflow="visible" id="3dc73bc3a"><path d="M86.813-58.969V0h17.312v-60.844c0-19.422 12.64-32.75 29.484-32.75 14.75 0 24.578 9.594 24.578 24.094 0 17.078-12.64 29.719-33.937 25.734l2.813 16.391c26.906 3.266 49.374-14.281 49.374-42.36 0-24.093-18.015-40.015-39.78-40.015-16.845 0-27.376 8.656-31.595 14.281h-.937v-39.781h87.047v-14.984H-5.141v14.984h25.266v51.953c0 24.797 14.734 38.14 36.5 38.14 15.922 0 25.281-7.5 29.25-13.812zm0-34.156c0 19.422-11 31.813-28.313 31.813-13.344 0-20.828-7.016-20.828-24.563v-49.375h49.14zm0 0"/></symbol></defs><use xlink:href="#3dc73bc3a" x="32.102" y="199.5"/></svg>