<?xml version="1.0" encoding="UTF-8"?><svg enable-background="new 0 0 250 250" height="250px" viewBox="0 0 250 250" width="250px" x="0px" xml:space="preserve" xmlns="http://www.w3.org/2000/svg" xmlns:xlink="http://www.w3.org/1999/xlink" y="0px"><defs><symbol overflow="visible"><path d="M29.922 0H97.75v-119.172H29.922zm10.03-109.813H87.72v100.47H39.952zm0 0"/></symbol><symbol id="58705430a" overflow="visible"><path d="M109.984-50.484c0 14.11-12.234 19.547-24.468 17.328l2.03 11.734c18.188 2.547 35.704-8.672 35.704-29.234 0-17.688-13.094-29.078-28.563-29.078-11.734 0-18.874 5.437-22.093 9.86h-.688v-28.392h62.735v-10.875H-3.733v10.874h62.89v43.86c0 12.75-8.156 21.422-20.218 21.422-10.72 0-17.86-7.47-17.86-17.672 0-14.282 12.235-19.547 24.485-17.516l-2.047-11.734c-18.36-2.375-35.86 8.844-35.86 29.422 0 17.328 13.422 29.062 28.89 29.062 11.907 0 18.704-5.61 21.938-9.687h.672V0h12.75v-46.75c0-12.75 8.156-21.422 20.235-21.422 10.547 0 17.844 7.14 17.844 17.688zm0 0"/></symbol></defs><use x="59.55" xlink:href="#58705430a" y="169"/></svg>