<?xml version='1.0' encoding='UTF-8'?>
<svg xmlns="http://www.w3.org/2000/svg" xmlns:xlink="http://www.w3.org/1999/xlink" width="250px" height="250px" viewBox="0 0 250 250" y="0px" x="0px" enable-background="new 0 0 250 250"><defs><symbol overflow="visible" id="0f52bb78a"><path d="M72.313-9.594c43.984 0 73.703-34.39 73.703-67.39 0-16.375-8.422-29.485-21.766-34.407v-23.859h39.547v-14.984H-5.141v14.984h34.625v.938c-3.75 3.03-11.703 9.828-11.703 24.328 0 13.812 8.89 25.046 22.938 28.546v.938c-9.828 3.75-19.657 13.11-19.657 29.484 0 21.766 18.25 41.422 51.25 41.422zm40.703-59.672c-9.594-1.406-14.97-7.015-14.97-15.437 0-8.188 6.313-13.578 14.048-13.578 9.36 0 16.844 7.484 16.844 21.297 0 28.312-25.75 51.484-56.157 51.484-21.765 0-33.234-11.703-33.234-25.984 0-13.328 9.125-21.75 24.797-21.985h5.39v-15.687h-8.656c-15.687 0-24.578-8.89-24.578-22 0-14.5 10.766-24.094 26.453-24.094h44.453v22C91.5-111.39 80.97-98.984 80.97-84.703c0 13.562 8.656 23.86 21.297 26.906zm0 0"/></symbol></defs><use xlink:href="#0f52bb78a" x="45.674" y="199.5"/></svg>