<?xml version="1.0" encoding="UTF-8"?><svg enable-background="new 0 0 250 250" height="250px" viewBox="0 0 250 250" width="250px" x="0px" xml:space="preserve" xmlns="http://www.w3.org/2000/svg" xmlns:xlink="http://www.w3.org/1999/xlink" y="0px"><defs><symbol overflow="visible"><path d="M29.922 0H97.75v-119.172H29.922zm10.03-109.813H87.72v100.47H39.952zm0 0"/></symbol><symbol id="aee0ae49a" overflow="visible"><path d="M46.406-63.75c6.47 1.875 15.64 7.656 15.64 18.36 0 8.156-5.437 14.11-14.78 14.11-18.203 0-29.078-21.923-29.922-42.33L4.766-68.515C7.14-48.11 20.234-19.546 48.11-19.546c16.484 0 26.687-11.22 26.687-24.83 0-10.187-5.094-15.968-8.156-18.53v-.672h29.58V0h12.92v-98.266h20.563v-10.875H-3.734v10.874H96.22v23.64H52.015l-5.61 9.86zm0 0"/></symbol></defs><use x="62.015" xlink:href="#aee0ae49a" y="169"/></svg>