<?xml version="1.0" encoding="UTF-8"?><svg enable-background="new 0 0 250 250" height="250px" viewBox="0 0 250 250" width="250px" x="0px" xml:space="preserve" xmlns="http://www.w3.org/2000/svg" xmlns:xlink="http://www.w3.org/1999/xlink" y="0px"><defs><symbol overflow="visible"><path d="M29.922 0H97.75v-119.172H29.922zm10.03-109.813H87.72v100.47H39.952zm0 0"/></symbol><symbol id="e920a167a" overflow="visible"><path d="M105.563-22.266V0h12.25v-98.266h20.562v-10.875H-3.735v10.874h43.86v28.22c0 7.312-3.578 10.03-8.5 10.03-6.297 0-9.53-3.39-11.734-7.64L8.673-63.75c3.39 33.313 23.125 58.813 56.78 58.813 18.532 0 32.126-8.33 39.44-17.33zm-.844-55.765c-3.064-3.064-7.814-5.782-16.486-5.782-14.453 0-26.187 10.874-26.187 26.187 0 15.813 12.25 24.64 23.97 25.5l6.796-9.016c-11.547-.516-18.688-7.14-18.688-16.313 0-9.016 6.453-15.14 15.47-15.14 8.5 0 16.31 6.64 16.31 18.702 0 23.624-18.53 37.578-40.108 37.578-20.406 0-36.734-12.75-41.484-35.032 2.03 1.032 4.75 1.875 9.343 1.875 10.72 0 19.047-7.483 19.047-21.077v-27.72h52.703v20.236zm0 0"/></symbol></defs><use x="57.68" xlink:href="#e920a167a" y="169"/></svg>