<?xml version='1.0' encoding='UTF-8'?>
<svg xmlns="http://www.w3.org/2000/svg" xmlns:xlink="http://www.w3.org/1999/xlink" width="250px" height="250px" viewBox="0 0 250 250" y="0px" x="0px" enable-background="new 0 0 250 250"><defs><symbol overflow="visible" id="5236d563a"><path d="M107.516-78.25c0 5.86 4.328 10.406 10.39 10.406 6.078 0 10.625-4.547 10.625-10.406 0-6.063-4.547-10.625-10.625-10.625-5.844 0-10.39 4.563-10.39 10.625zM53.109-60.687c-7.812-2.172-13.875-9.75-13.875-17.126 0-7.156 3.032-11.921 15.813-11.921H94.5v-35.547h45.094v-13.875H-4.766v13.875H78.47v21.453H47.25c-15.61 0-24.703 9.328-24.703 22.766 0 16.468 12.344 30.343 27.734 35.765l33.813-7.156c4.344 3.25 6.297 8.016 6.297 13.656 0 13.875-11.063 21.89-26.891 21.89-19.281 0-34.453-12.577-43.563-30.78l-12.14 8.89C18.859-17.984 37.937-2.594 63.5-2.594c26.016 0 42.703-16.265 42.703-36.203 0-13.656-7.36-24.922-16.687-29.266zm0 0"/></symbol></defs><use xlink:href="#5236d563a" x="57.59075" y="189.25"/></svg>