<?xml version='1.0' encoding='UTF-8'?>
<svg xmlns="http://www.w3.org/2000/svg" xmlns:xlink="http://www.w3.org/1999/xlink" width="250px" height="250px" viewBox="0 0 250 250" y="0px" x="0px" enable-background="new 0 0 250 250"><defs><symbol overflow="visible" id="8b710917a"><path d="M153.969-135.25v-14.984H-5.141v14.984h33.922v.938c-4.437 2.343-10.531 8.656-10.531 19.187 0 14.734 10.297 22.922 22 24.563v.937c-9.594 2.578-20.36 11.469-20.36 26.672 0 18.5 14.735 35.578 43.985 35.578 24.578 0 37.922-11.703 43.063-18.719h.937V0h17.781v-135.25zM65.75-43.062c-19.89 0-27.14-10.532-27.14-20.579 0-11.234 7.718-18.968 24.109-18.968h13.797v-15.204h-14.5c-17.563 0-25.047-7.953-25.047-18.25 0-10.765 7.25-19.187 23.172-19.187h47.968v52.406c0 21.766-15.218 39.781-42.359 39.781zm0 0"/></symbol></defs><use xlink:href="#8b710917a" x="50.705" y="199.5"/></svg>