<?xml version='1.0' encoding='UTF-8'?>
<svg xmlns="http://www.w3.org/2000/svg" xmlns:xlink="http://www.w3.org/1999/xlink" width="250px" height="250px" viewBox="0 0 250 250" y="0px" x="0px" enable-background="new 0 0 250 250"><defs><symbol overflow="visible" id="0f52bb78a"><path d="M66.969-8.89c40.75 0 68.281-31.86 68.281-62.422 0-15.172-7.797-27.313-20.156-31.86v-22.11h36.625v-13.874H-4.766v13.875h32.078v.86c-3.468 2.827-10.843 9.109-10.843 22.546 0 12.797 8.234 23.188 21.25 26.453v.86C28.609-71.094 19.5-62.422 19.5-47.25c0 20.156 16.906 38.36 47.469 38.36zm37.719-55.266c-8.891-1.297-13.876-6.5-13.876-14.313 0-7.578 5.86-12.562 13.016-12.562 8.672 0 15.594 6.937 15.594 19.719 0 26.234-23.828 47.687-52.016 47.687-20.156 0-30.781-10.844-30.781-24.063 0-12.359 8.453-20.156 22.984-20.374h4.985v-14.516h-8.016c-14.531 0-22.766-8.234-22.766-20.375 0-13.438 9.97-22.328 24.5-22.328h41.172v20.375C84.75-103.172 75-91.687 75-78.47c0 12.578 8.016 22.11 19.719 24.938zm0 0"/></symbol></defs><use xlink:href="#0f52bb78a" x="51.52175" y="189.25"/></svg>