<?xml version='1.0' encoding='UTF-8'?>
<svg xmlns="http://www.w3.org/2000/svg" xmlns:xlink="http://www.w3.org/1999/xlink" width="250px" height="250px" viewBox="0 0 250 250" y="0px" x="0px" enable-background="new 0 0 250 250"><defs><symbol overflow="visible" id="d71c0feba"><path d="M93.125-59.672V0h17.563v-135.25H139v-14.984H-5.14v14.984h25.265v52.64c0 25.047 17.547 38.391 39.313 38.391 16.609 0 27.609-7.265 32.765-15.453zm-30.64 0c-14.985 0-25.282-7.016-25.282-24.797v-13.578l-.937-21.531 15.687 15.687 34.625 33.22c-5.375 7.265-13.797 11-24.094 11zm31.109-34.39c0 4.437-.469 8.187-1.625 11.453L37.203-135.25h56.39zm0 0"/></symbol></defs><use xlink:href="#d71c0feba" x="58.076" y="199.5"/></svg>