<?xml version="1.0" encoding="UTF-8"?><svg enable-background="new 0 0 250 250" height="250px" viewBox="0 0 250 250" width="250px" x="0px" xml:space="preserve" xmlns="http://www.w3.org/2000/svg" xmlns:xlink="http://www.w3.org/1999/xlink" y="0px"><defs><symbol overflow="visible"><path d="M29.922 0H97.75v-119.172H29.922zm10.03-109.813H87.72v100.47H39.952zm0 0"/></symbol><symbol id="f42eb667a" overflow="visible"><path d="M79.734-98.266h20.39v-10.875H-3.733v10.874h70.546v45.39c0 4.423-1.015 8.5-3.062 12.08L29.922-68.69c3.906-2.546 8.672-3.906 13.765-3.906 3.75 0 7.657.516 11.39 1.875l-.514-11.905c-3.563-1.016-7.64-1.36-11.72-1.36-18.36 0-35.03 13.266-35.03 33.5 0 19.204 14.625 32.797 32.984 32.797 13.094 0 21.422-6.11 25.328-11.046h.688V0h12.92zM42.5-29.062c-13.438 0-21.938-9.36-21.938-21.766 0-4.422 1.204-8.156 3.063-11.39L57.97-34c-4.08 3.063-9.345 4.938-15.47 4.938zm0 0"/></symbol></defs><use x="76.805" xlink:href="#f42eb667a" y="169"/></svg>