<?xml version='1.0' encoding='UTF-8'?>
<svg xmlns="http://www.w3.org/2000/svg" xmlns:xlink="http://www.w3.org/1999/xlink" width="250px" height="250px" viewBox="0 0 250 250" y="0px" x="0px" enable-background="new 0 0 250 250"><defs><symbol overflow="visible" id="61bc0ad4a"><path d="M109.984-44.922V0h17.547v-135.25h28.313v-14.984H-5.141v14.984h115.125v50.313c0 26.203-16.39 42.109-39.078 42.109-17.547 0-28.312-10.297-28.312-24.094 0-14.516 10.062-24.578 27.843-24.578h18.25v-15.672H3.75v15.906h32.281v.938C31.594-87.047 24.11-79.562 24.11-65.047c0 20.594 17.078 38.375 43.75 38.375 23.172 0 36.032-11 41.188-18.25zm0 0"/></symbol></defs><use xlink:href="#61bc0ad4a" x="49.652" y="199.5"/></svg>