<?xml version='1.0' encoding='UTF-8'?>
<svg xmlns="http://www.w3.org/2000/svg" xmlns:xlink="http://www.w3.org/1999/xlink" width="250px" height="250px" viewBox="0 0 250 250" y="0px" x="0px" enable-background="new 0 0 250 250"><defs><symbol overflow="visible" id="4c9c5fe6a"><path d="M174.797-150.234h-71.14v14.984h25.046v57.563c-4.219 2.578-10.766 4.906-20.125 4.906-9.36 0-16.61-2.563-22.234-5.844-4.203-3.75-9.125-6.313-13.797-7.484v-.938c7.484-3.75 16.61-14.047 16.61-28.547 0-19.422-14.048-34.875-37.673-34.875-15.453 0-26.922 6.797-33.234 14.985l12.406 11.234c3.969-5.625 10.297-10.297 20.36-10.297 12.625 0 20.359 7.953 20.359 20.125 0 14.031-9.828 22.688-24.344 22.688h-7.25v15.687h12.64c16.61 0 25.735 7.719 25.735 20.828 0 13.094-8.656 23.86-26.203 23.86-14.516 0-24.344-7.72-29.953-14.266L9.828-33.469c7.485 7.735 21.766 17.797 42.125 17.797 27.14 0 43.984-17.562 43.984-39.781 0-2.11-.234-3.984-.468-5.86 4.922 2.344 10.765 3.75 17.547 3.75 6.796 0 11.937-1.64 15.687-3.28V0h17.781v-135.25h28.313zm0 0"/></symbol></defs><use xlink:href="#4c9c5fe6a" x="40.175" y="199.5"/></svg>