<?xml version="1.0" encoding="UTF-8"?><svg enable-background="new 0 0 250 250" height="250px" viewBox="0 0 250 250" width="250px" x="0px" xml:space="preserve" xmlns="http://www.w3.org/2000/svg" xmlns:xlink="http://www.w3.org/1999/xlink" y="0px"><defs><symbol overflow="visible"><path d="M29.922 0H97.75v-119.172H29.922zm10.03-109.813H87.72v100.47H39.952zm0 0"/></symbol><symbol id="62b91505a" overflow="visible"><path d="M76.328-98.266h20.578v-10.875H-3.734v10.874h67.312v42.5c0 13.782-8.672 24.657-22.437 24.657-12.078 0-19.89-8.5-19.89-19.718 0-15.125 13.938-22.11 28.22-18.36l-1.19-12.078c-19.046-3.39-40.624 6.47-40.624 30.61 0 18.86 14.61 31.11 31.282 31.11 12.578 0 20.39-5.782 23.968-10.204h.672V0h12.75zm0 0"/></symbol></defs><use x="78.42" xlink:href="#62b91505a" y="169"/></svg>