<?xml version='1.0' encoding='UTF-8'?>
<svg xmlns="http://www.w3.org/2000/svg" xmlns:xlink="http://www.w3.org/1999/xlink" width="250px" height="250px" viewBox="0 0 250 250" y="0px" x="0px" enable-background="new 0 0 250 250"><defs><symbol overflow="visible" id="7c4b72c4a"><path d="M172.313-125.281v-13.875H-4.767v13.875h77.813v21.89H40.75c-15.61 0-24.922 9.11-24.922 22.329 0 16.906 12.563 31 27.953 35.765l33.813-6.937c2.61 1.734 6.078 5.843 6.078 13 0 14.312-14.531 20.812-29.484 20.812h-7.376L18.642-37.719c-3.032 1.735-6.063 5.64-6.063 11.282 0 10.187 9.75 20.796 32.297 21.453l34.016 30.78 17.78-9.327-34.25-22.532v-.875c18.204-.437 36.845-11.265 36.845-32.515 0-3.688-.422-6.938-1.297-9.75 4.765 1.516 10.187 2.61 15.828 2.61 6.281 0 11.703-.657 16.25-2.173V0h16.047v-125.281zM83.016-68.062L46.39-60.47c-7.594-1.953-13.875-9.328-13.875-16.906 0-6.938 3.03-11.922 15.812-11.922h40.75v-35.984h40.969v60.687c-4.766 2.172-11.484 3.688-19.078 3.688-9.313 0-18.203-2.172-23.828-4.547-1.532-1.094-2.829-1.953-4.125-2.61zm0 0"/></symbol></defs><use xlink:href="#7c4b72c4a" x="41.22612" y="189.25"/></svg>