<?xml version="1.0" encoding="UTF-8"?><svg enable-background="new 0 0 250 250" height="250px" viewBox="0 0 250 250" width="250px" x="0px" xml:space="preserve" xmlns="http://www.w3.org/2000/svg" xmlns:xlink="http://www.w3.org/1999/xlink" y="0px"><defs><symbol overflow="visible"><path d="M29.922 0H97.75v-119.172H29.922zm10.03-109.813H87.72v100.47H39.952zm0 0"/></symbol><symbol id="f48b167fa" overflow="visible"><path d="M126.984-109.14h-51.67v10.874H93.5v41.83c-3.063 1.873-7.813 3.56-14.625 3.56-6.797 0-12.063-1.858-16.14-4.25-3.063-2.718-6.64-4.577-10.032-5.437v-.67c5.438-2.72 12.063-10.205 12.063-20.75 0-14.11-10.204-25.33-27.36-25.33-11.218 0-19.562 4.938-24.14 10.876l9 8.17c2.89-4.077 7.484-7.483 14.797-7.483 9.17 0 14.78 5.78 14.78 14.625 0 10.188-7.14 16.484-17.67 16.484h-5.267v11.39h9.172c12.078 0 18.703 5.61 18.703 15.125 0 9.53-6.296 17.344-19.046 17.344-10.53 0-17.672-5.61-21.75-10.376L7.14-24.313c5.438 5.61 15.813 12.922 30.594 12.922 19.72 0 31.97-12.75 31.97-28.907 0-1.516-.173-2.89-.345-4.25 3.578 1.703 7.828 2.734 12.75 2.734 4.937 0 8.67-1.203 11.39-2.39V0h12.922v-98.266h20.562zm0 0"/></symbol></defs><use x="63.375" xlink:href="#f48b167fa" y="169"/></svg>