<?xml version='1.0' encoding='UTF-8'?>
<svg xmlns="http://www.w3.org/2000/svg" xmlns:xlink="http://www.w3.org/1999/xlink" width="250px" height="250px" viewBox="0 0 250 250" y="0px" x="0px" enable-background="new 0 0 250 250"><defs><symbol overflow="visible" id="e9b1c0aaa"><path d="M88.875-12.14c5.406-4.985 10.39-12.782 10.39-22.97 0-15.39-11.484-29.703-35.546-29.703-7.14 0-13.657 1.094-19.282 3.25-7.156-4.109-12.359-11.046-12.359-17.984 0-5.64 3.25-10.187 13.438-10.187h46.172v-35.547h22.968v-13.875H-4.766v13.875H75.86v21.453H41.83c-16.907 0-26.22 9.328-26.22 22.11 0 11.921 7.157 21.671 15.813 27.093-8.875 6.719-13.86 16.266-13.86 26.453 0 27.313 26.22 43.125 68.266 46.156l6.938-14.078c-44-2.39-58.516-15.828-58.516-31.656 0-12.781 11.703-22.531 29.906-22.531 12.797 0 19.078 6.5 19.078 14.515 0 5.86-3.25 11.063-8.671 15.391zm0 0"/></symbol></defs><use xlink:href="#e9b1c0aaa" x="70.05388" y="189.25"/></svg>