<?xml version='1.0' encoding='UTF-8'?>
<svg xmlns="http://www.w3.org/2000/svg" xmlns:xlink="http://www.w3.org/1999/xlink" width="250px" height="250px" viewBox="0 0 250 250" y="0px" x="0px" enable-background="new 0 0 250 250"><defs><symbol overflow="visible" id="fb14935ba"><path d="M63.875-87.75c8.906 2.578 21.531 10.531 21.531 25.266 0 11.234-7.484 19.422-20.36 19.422-25.03 0-40.015-30.172-41.171-58.266L6.547-94.297c3.281 28.078 21.297 67.39 59.672 67.39 22.703 0 36.734-15.452 36.734-34.171 0-14.031-7.016-21.984-11.219-25.5v-.938h40.704V0h17.796v-135.25h28.313v-14.984H-5.141v14.984h137.578v32.531H71.61l-7.734 13.563zm0 0"/></symbol></defs><use xlink:href="#fb14935ba" x="38.303" y="199.5"/></svg>