<?xml version='1.0' encoding='UTF-8'?>
<svg xmlns="http://www.w3.org/2000/svg" xmlns:xlink="http://www.w3.org/1999/xlink" width="250px" height="250px" viewBox="0 0 250 250" y="0px" x="0px" enable-background="new 0 0 250 250"><defs><symbol overflow="visible" id="8054d718a"><path d="M124.953 0v-135.25h28.078v-14.984h-65.75v14.984h20.125v51.953c0 20.813-14.75 40-42.828 40-19.89 0-26.906-10.516-26.906-20.578 0-11.234 7.719-18.734 24.344-18.734h14.5v-15.438H61.312c-17.546 0-25.046-7.953-25.046-18.016 0-9.124 5.859-15.671 17.093-19.187l-3.515-14.984H-5.141v14.984h33.688v.938c-4.906 2.343-11 8.89-11 19.187 0 14.734 10.297 22.922 22 24.328v.938c-9.828 2.578-20.36 11.468-20.36 26.671 0 18.266 14.516 35.579 43.766 35.579 24.563 0 38.14-11.938 43.281-18.72h.938V0zm0 0"/></symbol></defs><use xlink:href="#8054d718a" x="51.056" y="199.5"/></svg>