<?xml version='1.0' encoding='UTF-8'?>
<svg xmlns="http://www.w3.org/2000/svg" xmlns:xlink="http://www.w3.org/1999/xlink" width="250px" height="250px" viewBox="0 0 250 250" y="0px" x="0px" enable-background="new 0 0 250 250"><defs><symbol overflow="visible" id="61bc0ad4a"><path d="M101.875-41.61V0h16.25v-125.281h26.234v-13.875H-4.766v13.875h106.641v46.594c0 24.28-15.172 39.015-36.203 39.015-16.25 0-26.219-9.531-26.219-22.312 0-13.438 9.313-22.766 25.781-22.766h16.907v-14.516H3.469v14.735h29.906v.86c-4.11 3.046-11.047 9.984-11.047 23.421 0 19.063 15.813 35.547 40.531 35.547 21.453 0 33.375-10.188 38.141-16.906zm0 0"/></symbol></defs><use xlink:href="#61bc0ad4a" x="55.2065" y="189.25"/></svg>