<?xml version="1.0" encoding="UTF-8"?><svg enable-background="new 0 0 250 250" height="250px" viewBox="0 0 250 250" width="250px" x="0px" xml:space="preserve" xmlns="http://www.w3.org/2000/svg" xmlns:xlink="http://www.w3.org/1999/xlink" y="0px"><defs><symbol overflow="visible"><path d="M29.922 0H97.75v-119.172H29.922zm10.03-109.813H87.72v100.47H39.952zm0 0"/></symbol><symbol id="958566f5a" overflow="visible"><path d="M-.688-24.813c4.594 8.83 16.33 20.907 36.047 20.907 21.765 0 34.343-13.266 34.343-30.266 0-13.266-8.844-21.922-18.703-24.14v-.672c7.813-2.89 13.938-10.89 13.938-20.75 0-10.704-5.954-15.813-9-17.5v-1.032h28.546v-10.875H-3.734v10.874H29.75c14.453 0 21.766 5.454 21.766 18.032 0 11.718-8.844 16.828-17.86 16.828h-8.672v11.562H35.36c13.937 0 20.906 7.14 20.906 17.5 0 11.047-7.64 18.703-20.907 18.703-11.907 0-20.407-7.313-25.33-16.313zm0 0"/></symbol></defs><use x="84.625" xlink:href="#958566f5a" y="169"/></svg>