<?xml version="1.0" encoding="UTF-8"?><svg enable-background="new 0 0 250 250" height="250px" viewBox="0 0 250 250" width="250px" x="0px" xml:space="preserve" xmlns="http://www.w3.org/2000/svg" xmlns:xlink="http://www.w3.org/1999/xlink" y="0px"><defs><symbol overflow="visible"><path d="M29.922 0H97.75v-119.172H29.922zm10.03-109.813H87.72v100.47H39.952zm0 0"/></symbol><symbol id="67f92baaa" overflow="visible"><path d="M92.813 0v-98.266h20.578v-10.875H80.063v46.92c0 17.345-10.36 32.814-31.953 32.814-19.547 0-26.516-15.985-27.376-22.953 3.407-.843 6.64-1.703 10.032-2.718C52.36-61.03 63.75-71.406 63.75-87.048c0-13.764-9.516-23.796-24.484-23.796-14.453 0-24.47 10.03-24.47 22.11 0 6.625 2.892 11.718 5.438 14.28l12.063-3.577c-2.72-2.376-4.75-6.626-4.75-10.204 0-6.97 4.922-11.047 11.72-11.047C46.576-99.28 51-94.517 51-87.376c0 9.344-4.422 16.313-28.39 23.11L5.437-59.5c1.36 23.453 16.656 41.813 41.828 41.813 17.5 0 28.047-8.657 32.125-14.954h.672V0zm0 0"/></symbol></defs><use x="70.175" xlink:href="#67f92baaa" y="169"/></svg>