<?xml version='1.0' encoding='UTF-8'?>
<svg xmlns="http://www.w3.org/2000/svg" xmlns:xlink="http://www.w3.org/1999/xlink" width="250px" height="250px" viewBox="0 0 250 250" y="0px" x="0px" enable-background="new 0 0 250 250"><defs><symbol overflow="visible" id="22b4bd3da"><path d="M64.813-22.969c-22.985 0-37.72-16.906-37.72-33.812 0-12.578 5.204-22.547 25.36-27.75l36.203-9.531v-31.22h30.125v-13.874H-4.766v13.875h76.938v19.719L42.703-97.11c-19.937 5.421-32.516 19.734-32.516 38.796C10.188-31 34.47-8.233 65.234-8.233c22.329 0 37.72-15.172 37.72-32.953 0-14.735-11.923-26.657-27.532-26.657-17.766 0-26.438 13.438-26.438 24.281l13.22 6.938c-1.298-8.453 3.25-16.266 12.577-16.266 7.156 0 12.14 5.422 12.14 11.922 0 10.407-8.03 18-22.109 18zm0 0"/></symbol></defs><use xlink:href="#22b4bd3da" x="67.99475" y="189.25"/></svg>