<?xml version="1.0" encoding="UTF-8"?><svg enable-background="new 0 0 250 250" height="250px" viewBox="0 0 250 250" width="250px" x="0px" xml:space="preserve" xmlns="http://www.w3.org/2000/svg" xmlns:xlink="http://www.w3.org/1999/xlink" y="0px"><defs><symbol overflow="visible"><path d="M29.922 0H97.75v-119.172H29.922zm10.03-109.813H87.72v100.47H39.952zm0 0"/></symbol><symbol id="1fcfabf5a" overflow="visible"><path d="M79.906-32.64V0h12.75v-98.266h20.563v-10.875H-3.735v10.874h83.64v36.563c0 19.03-11.906 30.594-28.39 30.594-12.75 0-20.578-7.484-20.578-17.515 0-10.53 7.312-17.844 20.234-17.844h13.266v-11.39H2.718v11.563h23.47v.672c-3.235 2.39-8.672 7.828-8.672 18.36 0 14.968 12.406 27.89 31.78 27.89 16.83 0 26.188-8 29.923-13.266zm0 0"/></symbol></defs><use x="70.26" xlink:href="#1fcfabf5a" y="169"/></svg>