<?xml version='1.0' encoding='UTF-8'?>
<svg xmlns="http://www.w3.org/2000/svg" xmlns:xlink="http://www.w3.org/1999/xlink" width="250px" height="250px" viewBox="0 0 250 250" y="0px" x="0px" enable-background="new 0 0 250 250"><defs><symbol overflow="visible" id="0b2a1cc9a"><path d="M67.39-9.594c33.235 0 55.922-21.297 55.922-48.437 0-25.266-19.187-39.547-33.218-45.625v-31.594h49.375v-14.984H-5.141v14.984h77.454v26.672l-27.157 8.422C22.47-93.36 11-81.437 11-61.078 11-32.766 34.625-9.594 67.39-9.594zm-2.109-16.14c-23.625 0-36.265-16.391-36.265-32.532 0-13.343 4.687-21.765 27.375-28.312l18.718-5.625c11.47 2.578 30.422 12.64 30.422 32.766 0 17.78-12.64 33.703-40.25 33.703zm0 0"/></symbol></defs><use xlink:href="#0b2a1cc9a" x="57.842" y="199.5"/></svg>