<?xml version='1.0' encoding='UTF-8'?>
<svg xmlns="http://www.w3.org/2000/svg" xmlns:xlink="http://www.w3.org/1999/xlink" width="250px" height="250px" viewBox="0 0 250 250" y="0px" x="0px" enable-background="new 0 0 250 250"><defs><symbol overflow="visible" id="57f023e4a"><path d="M140.234-64.375c0 17.984-15.609 24.922-31.203 22.11l2.594 14.953c23.188 3.25 45.516-11.047 45.516-37.282 0-22.547-16.688-37.062-36.407-37.062-14.953 0-24.062 6.937-28.187 12.578h-.86v-36.203h79.985v-13.875H-4.766v13.875h80.188v55.922c0 16.25-10.39 27.312-25.781 27.312-13.657 0-22.766-9.547-22.766-22.547 0-18.203 15.61-24.922 31.219-22.328l-2.61-14.953C32.078-104.906 9.75-90.594 9.75-64.375c0 22.11 17.125 37.063 36.844 37.063 15.187 0 23.843-7.157 27.968-12.36h.86V0h16.266v-59.61c0-16.25 10.406-27.312 25.796-27.312 13.438 0 22.75 9.11 22.75 22.547zm0 0"/></symbol></defs><use xlink:href="#57f023e4a" x="41.55125" y="189.25"/></svg>