<?xml version="1.0" encoding="UTF-8"?><svg enable-background="new 0 0 250 250" height="250px" viewBox="0 0 250 250" width="250px" x="0px" xml:space="preserve" xmlns="http://www.w3.org/2000/svg" xmlns:xlink="http://www.w3.org/1999/xlink" y="0px"><defs><symbol overflow="visible"><path d="M29.922 0H97.75v-119.172H29.922zm10.03-109.813H87.72v100.47H39.952zm0 0"/></symbol><symbol id="50dd5169a" overflow="visible"><path d="M90.953-71.906c-2.547-2.89-7.656-5.61-14.453-5.61-8.5 0-15.984 5.094-18.53 14.282h-.673c-2.563-8.172-9.86-13.61-20.922-13.61-13.938 0-27.36 10.72-27.36 30.78 0 21.252 13.766 38.408 30.08 47.252l8.67-9.172c-16.656-9.016-25.5-22.282-25.5-37.75 0-13.594 7.14-19.375 15.297-19.375 8.5 0 13.954 5.438 13.954 16.485v16.156h12.406v-16.155c0-11.563 5.78-17.172 14.11-17.172 5.78 0 11.046 3.063 13.593 5.61V0h12.922v-98.266h20.406v-10.875H-3.734v10.874h95.36v26.36zm0 0"/></symbol></defs><use x="64.395" xlink:href="#50dd5169a" y="169"/></svg>