<?xml version='1.0' encoding='UTF-8'?>
<svg xmlns="http://www.w3.org/2000/svg" xmlns:xlink="http://www.w3.org/1999/xlink" width="250px" height="250px" viewBox="0 0 250 250" y="0px" x="0px" enable-background="new 0 0 250 250"><defs><symbol overflow="visible" id="37d65cf5a"><path d="M-.86-31.64C4.985-20.376 19.938-4.985 45.079-4.985c27.75 0 43.797-16.907 43.797-38.578 0-16.907-11.281-27.97-23.844-30.782v-.875C75-78.89 82.797-89.079 82.797-101.656c0-13.656-7.578-20.156-11.484-22.328v-1.297h36.406v-13.875H-4.766v13.875h42.703c18.422 0 27.735 6.937 27.735 22.969 0 14.968-11.266 21.468-22.75 21.468H31.859v14.735h13.22c17.78 0 26.671 9.109 26.671 22.328 0 14.093-9.766 23.843-26.672 23.843-15.172 0-26-9.328-32.297-20.812zm0 0"/></symbol></defs><use xlink:href="#37d65cf5a" x="73.52187" y="189.25"/></svg>