<?xml version='1.0' encoding='UTF-8'?>
<svg xmlns="http://www.w3.org/2000/svg" xmlns:xlink="http://www.w3.org/1999/xlink" width="250px" height="250px" viewBox="0 0 250 250" y="0px" x="0px" enable-background="new 0 0 250 250"><defs><symbol overflow="visible" id="0d3061f9a"><path d="M49.422-96.453c-8.234-1.953-12.36-8.453-12.36-14.953 0-8.89 6.282-15.61 17.126-15.61 10.406 0 20.374 8.672 20.374 25.141 0 21.031-16.906 33.375-39.234 33.375-6.719 0-15.172-1.078-22.328-3.672L3.25-58.953l15.172 12.781 49.86 48.563 13.656-9.329-28.829-27.75C42.703-44.656 37.5-48.547 31.22-53.75l.422-.875c32.297 2.172 59.828-15.172 59.828-47.469 0-20.156-12.781-39.234-37.5-39.234-19.938 0-33.375 13.656-33.375 30.14 0 12.344 6.718 22.532 18.86 26zM117.906 0h16.266v-125.281h26.219v-13.875h-42.485zm0 0"/></symbol></defs><use xlink:href="#0d3061f9a" x="47.18675" y="189.25"/></svg>