<?xml version='1.0' encoding='UTF-8'?>
<svg xmlns="http://www.w3.org/2000/svg" xmlns:xlink="http://www.w3.org/1999/xlink" width="250px" height="250px" viewBox="0 0 250 250" y="0px" x="0px" enable-background="new 0 0 250 250"><defs><symbol overflow="visible" id="c771caeca"><path d="M88.875-73.266c-8.031 0-16.266-1.078-23.203-3.03.656-2.173.875-4.766.875-7.376v-41.61h42.906v49.204c-5.406 1.734-12.781 2.812-20.578 2.812zM33.156-57.875c1.953.656 5.422.656 7.157.656 7.156-.218 13.874-2.39 18.64-6.718 8.016 3.03 19.734 5.203 30.563 5.203 8.671 0 14.953-.657 19.937-1.735V0h16.484v-125.281h26.22v-13.875H-4.767v13.875h55.047v40.312c0 9.969-4.984 14.094-14.297 14.094-10.187 0-16.047-5.422-19.734-9.75l-12.344 9.75L59.828 2.391l13.219-8.672-25.36-32.953C41.828-47.031 37.5-51.797 32.734-57.22zm0 0"/></symbol></defs><use xlink:href="#c771caeca" x="51.305" y="189.25"/></svg>