<?xml version='1.0' encoding='UTF-8'?>
<svg xmlns="http://www.w3.org/2000/svg" xmlns:xlink="http://www.w3.org/1999/xlink" width="250px" height="250px" viewBox="0 0 250 250" y="0px" x="0px" enable-background="new 0 0 250 250"><defs><symbol overflow="visible" id="dbe6214aa"><path d="M115.969-91.688c-3.266-3.687-9.766-7.156-18.438-7.156-10.828 0-20.375 6.516-23.625 18.219h-.86c-3.25-10.406-12.577-17.344-26.655-17.344-17.782 0-34.907 13.656-34.907 39.235 0 27.093 17.563 48.984 38.375 60.25l11.047-11.704c-21.234-11.484-32.515-28.39-32.515-48.124 0-17.329 9.109-24.704 19.515-24.704 10.828 0 17.766 6.938 17.766 21.032v20.578H81.5v-20.578c0-14.75 7.375-21.891 17.984-21.891 7.375 0 14.094 3.89 17.344 7.14V0h16.469v-125.281h26.016v-13.875H-4.767v13.875h121.594v33.594zm0 0"/></symbol></defs><use xlink:href="#dbe6214aa" x="47.72862" y="189.25"/></svg>