<?xml version='1.0' encoding='UTF-8'?>
<svg xmlns="http://www.w3.org/2000/svg" xmlns:xlink="http://www.w3.org/1999/xlink" width="250px" height="250px" viewBox="0 0 250 250" y="0px" x="0px" enable-background="new 0 0 250 250"><defs><symbol overflow="visible" id="f75e172ca"><path d="M109.75-135.25h28.078v-14.984H-5.14v14.984h97.11v62.469c0 6.094-1.406 11.703-4.219 16.625L41.187-94.531c5.376-3.516 11.938-5.39 18.954-5.39 5.14 0 10.53.702 15.672 2.577l-.704-16.375c-4.906-1.406-10.53-1.875-16.14-1.875-25.266 0-48.203 18.25-48.203 46.094 0 26.438 20.125 45.156 45.39 45.156 18.016 0 29.485-8.422 34.875-15.203h.938V0h17.781zM58.5-40.016c-18.484 0-30.188-12.875-30.188-29.953 0-6.078 1.641-11.234 4.22-15.672l47.265 38.844c-5.625 4.203-12.875 6.781-21.297 6.781zm0 0"/></symbol></defs><use xlink:href="#f75e172ca" x="58.661" y="199.5"/></svg>