<?xml version='1.0' encoding='UTF-8'?>
<svg xmlns="http://www.w3.org/2000/svg" xmlns:xlink="http://www.w3.org/1999/xlink" width="250px" height="250px" viewBox="0 0 250 250" y="0px" x="0px" enable-background="new 0 0 250 250"><defs><symbol overflow="visible" id="d71c0feba"><path d="M86.266-55.266V0h16.25v-125.281h26.234v-13.875H-4.766v13.875h23.407v48.765c0 23.188 16.25 35.547 36.406 35.547 15.39 0 25.578-6.718 30.36-14.297zm-28.391 0C44-55.266 34.469-61.78 34.469-78.25v-12.563l-.875-19.953 14.531 14.532 32.078 30.78c-4.984 6.72-12.797 10.188-22.328 10.188zM86.703-87.14c0 4.125-.437 7.594-1.516 10.625L34.47-125.28h52.234zm0 0"/></symbol></defs><use xlink:href="#d71c0feba" x="63.0095" y="189.25"/></svg>