<?xml version='1.0' encoding='UTF-8'?>
<svg xmlns="http://www.w3.org/2000/svg" xmlns:xlink="http://www.w3.org/1999/xlink" width="250px" height="250px" viewBox="0 0 250 250" y="0px" x="0px" enable-background="new 0 0 250 250"><defs><symbol overflow="visible" id="22b4bd3da"><path d="M69.969-24.797c-24.813 0-40.719-18.265-40.719-36.516 0-13.562 5.61-24.328 27.375-29.953l39.078-10.296v-33.688h32.531v-14.984H-5.14v14.984h83.063v21.297l-31.828 9.125C24.562-98.984 11-83.531 11-62.953 11-33.47 37.203-8.891 70.438-8.891c24.093 0 40.718-16.375 40.718-35.562 0-15.922-12.875-28.781-29.719-28.781-19.187 0-28.546 14.5-28.546 26.203l14.265 7.484c-1.406-9.125 3.516-17.547 13.578-17.547 7.72 0 13.094 5.844 13.094 12.875 0 11.219-8.656 19.422-23.86 19.422zm0 0"/></symbol></defs><use xlink:href="#22b4bd3da" x="63.458" y="199.5"/></svg>