<?xml version='1.0' encoding='UTF-8'?>
<svg xmlns="http://www.w3.org/2000/svg" xmlns:xlink="http://www.w3.org/1999/xlink" width="250px" height="250px" viewBox="0 0 250 250" y="0px" x="0px" enable-background="new 0 0 250 250"><defs><symbol overflow="visible" id="87c3af56a"><path d="M94.281-45.297V0h16.485v-125.281h26.218v-13.875H-4.766v13.875H31.86c5.641 4.984 9.328 12.781 9.328 20.594 0 13.437-11.28 20.593-31.218 24.921 3.469 31.641 23.406 50.079 49.203 50.079 20.156 0 30.344-10.407 34.25-15.61zM28.828-72.172c16.688-3.906 29.047-14.969 29.047-30.14 0-9.532-3.469-16.47-8.672-22.11v-.86H94.5v45.079c0 22.766-13.875 35.547-32.938 35.547-21.687 0-31-15.813-32.734-27.516zm0 0"/></symbol></defs><use xlink:href="#87c3af56a" x="58.99962" y="189.25"/></svg>