<?xml version="1.0" encoding="UTF-8"?><svg enable-background="new 0 0 250 250" height="250px" viewBox="0 0 250 250" width="250px" x="0px" xml:space="preserve" xmlns="http://www.w3.org/2000/svg" xmlns:xlink="http://www.w3.org/1999/xlink" y="0px"><defs><symbol overflow="visible"><path d="M29.922 0H97.75v-119.172H29.922zm10.03-109.813H87.72v100.47H39.952zm0 0"/></symbol><symbol id="7d13e3bca" overflow="visible"><path d="M132.266-98.266v-10.875h-136v10.874h18.187v39.954c0 18.36 11.39 28.218 27.703 28.218 16.5 0 28.047-10.03 28.047-28.218v-39.954h28.734V0h12.75v-98.266zm-89.938 56.61c-9.687 0-15.125-5.938-15.125-17v-39.61h30.25v39.61c0 10.89-5.266 17-15.125 17zm0 0"/></symbol></defs><use x="60.74" xlink:href="#7d13e3bca" y="169"/></svg>