<?xml version="1.0" encoding="UTF-8"?><svg enable-background="new 0 0 250 250" height="250px" viewBox="0 0 250 250" width="250px" x="0px" xml:space="preserve" xmlns="http://www.w3.org/2000/svg" xmlns:xlink="http://www.w3.org/1999/xlink" y="0px"><defs><symbol overflow="visible"><path d="M29.922 0H97.75v-119.172H29.922zm10.03-109.813H87.72v100.47H39.952zm0 0"/></symbol><symbol id="95bfd066a" overflow="visible"><path d="M69.703-9.516c4.25-3.921 8.156-10.03 8.156-18.03 0-12.063-9.016-23.282-27.876-23.282-5.61 0-10.718.844-15.14 2.547-5.61-3.236-9.688-8.673-9.688-14.11 0-4.422 2.547-7.985 10.547-7.985h36.203v-27.89h18.03v-10.876h-93.67v10.874H59.5v16.83H32.812c-13.265 0-20.578 7.31-20.578 17.342 0 9.36 5.61 17 12.422 21.25-6.968 5.282-10.89 12.75-10.89 20.75 0 21.407 20.578 33.828 53.547 36.203l5.453-11.047C38.25 1.187 26.86-9.345 26.86-21.767c0-10.03 9.187-17.67 23.453-17.67 10.03 0 14.968 5.093 14.968 11.39 0 4.594-2.546 8.672-6.796 12.063zm0 0"/></symbol></defs><use x="81.905" xlink:href="#95bfd066a" y="169"/></svg>