<?xml version='1.0' encoding='UTF-8'?>
<svg xmlns="http://www.w3.org/2000/svg" xmlns:xlink="http://www.w3.org/1999/xlink" width="250px" height="250px" viewBox="0 0 250 250" y="0px" x="0px" enable-background="new 0 0 250 250"><defs><symbol overflow="visible" id="e5f3c2e5a"><path d="M67.156-7.484c19.422-.47 40.016-11.235 40.016-35.11 0-17.312-11-27.61-17.781-30.875L49.844-65.28c-8.188-2.11-14.985-10.063-14.985-18.25 0-7.5 3.282-12.875 16.86-12.875h44.218v-38.844h33.47v-14.984H-5.142v14.984h83.766v23.625H43.531c-16.86 0-26.922 9.828-26.922 24.11 0 18.25 13.813 33.468 30.422 38.609l36.266-7.485c2.812 1.875 6.562 6.313 6.562 14.032 0 15.453-15.453 22.468-31.593 22.468h-7.953L19.89-40.719c-3.282 1.875-6.782 6.094-6.782 12.172 0 11 10.532 22.469 34.86 23.172l36.968 33.219 18.954-10.063L67.156-6.547zm0 0"/></symbol></defs><use xlink:href="#e5f3c2e5a" x="62.873" y="199.5"/></svg>