<?xml version='1.0' encoding='UTF-8'?>
<svg xmlns="http://www.w3.org/2000/svg" xmlns:xlink="http://www.w3.org/1999/xlink" width="250px" height="250px" viewBox="0 0 250 250" y="0px" x="0px" enable-background="new 0 0 250 250"><defs><symbol overflow="visible" id="c771caeca"><path d="M95.938-79.094c-8.657 0-17.547-1.172-25.032-3.281.703-2.328.938-5.14.938-7.953v-44.922h46.328v53.11c-5.86 1.874-13.813 3.046-22.234 3.046zm-60.141 16.61c2.11.703 5.86.703 7.734.703 7.719-.235 14.969-2.563 20.11-7.25 8.672 3.281 21.297 5.625 33 5.625 9.359 0 16.14-.703 21.53-1.875V0h17.782v-135.25h28.313v-14.984H-5.141v14.984h59.422v43.516c0 10.765-5.375 15.218-15.437 15.218-11 0-17.313-5.859-21.297-10.53L4.219-76.517l60.36 79.094 14.28-9.36-27.375-35.577c-6.328-8.422-11-13.563-16.156-19.422zm0 0"/></symbol></defs><use xlink:href="#c771caeca" x="45.44" y="199.5"/></svg>