<?xml version="1.0" encoding="UTF-8"?><svg enable-background="new 0 0 250 250" height="250px" viewBox="0 0 250 250" width="250px" x="0px" xml:space="preserve" xmlns="http://www.w3.org/2000/svg" xmlns:xlink="http://www.w3.org/1999/xlink" y="0px"><defs><symbol overflow="visible"><path d="M29.922 0H97.75v-119.172H29.922zm10.03-109.813H87.72v100.47H39.952zm0 0"/></symbol><symbol id="44aaeac3a" overflow="visible"><path d="M52.53-6.97c31.954 0 53.548-24.983 53.548-48.968 0-11.89-6.125-21.406-15.812-24.984v-17.344H119v-10.875H-3.734v10.874h25.156v.688c-2.72 2.203-8.5 7.14-8.5 17.672 0 10.03 6.453 18.203 16.656 20.75v.672c-7.14 2.718-14.28 9.53-14.28 21.422C15.297-21.25 28.56-6.97 52.53-6.97zm29.58-43.343c-6.97-1.03-10.876-5.11-10.876-11.234 0-5.937 4.58-9.86 10.204-9.86 6.796 0 12.234 5.454 12.234 15.47 0 20.578-18.703 37.406-40.797 37.406-15.813 0-24.14-8.5-24.14-18.876 0-9.688 6.624-15.797 18.015-15.97h3.906v-11.39h-6.28c-11.392 0-17.86-6.468-17.86-15.984 0-10.547 7.828-17.516 19.218-17.516H78.03v15.985c-11.56 1.358-19.218 10.374-19.218 20.733 0 9.86 6.297 17.344 15.485 19.563zm0 0"/></symbol></defs><use x="67.37" xlink:href="#44aaeac3a" y="169"/></svg>