<?xml version='1.0' encoding='UTF-8'?>
<svg xmlns="http://www.w3.org/2000/svg" xmlns:xlink="http://www.w3.org/1999/xlink" width="250px" height="250px" viewBox="0 0 250 250" y="0px" x="0px" enable-background="new 0 0 250 250"><defs><symbol overflow="visible" id="1f95d824a"><path d="M53.11-60.688c-7.813-2.171-13.876-9.75-13.876-17.124 0-7.157 3.032-11.922 15.813-11.922H94.5v-35.547h28.188v-13.875H-4.766v13.875H78.47v21.453H47.25c-15.61 0-24.703 9.328-24.703 22.766 0 16.468 12.344 30.343 27.734 35.765l33.813-7.156c4.344 3.25 6.297 8.016 6.297 13.656 0 13.875-11.063 21.89-26.891 21.89-19.281 0-34.453-12.577-43.563-30.78l-12.14 8.89C18.859-17.984 37.937-2.594 63.5-2.594c26.016 0 42.703-16.265 42.703-36.203 0-13.656-7.36-24.922-16.687-29.266zm0 0"/></symbol></defs><use xlink:href="#1f95d824a" x="66.044" y="189.25"/></svg>