<?xml version="1.0" encoding="UTF-8"?><svg enable-background="new 0 0 250 250" height="250px" viewBox="0 0 250 250" width="250px" x="0px" xml:space="preserve" xmlns="http://www.w3.org/2000/svg" xmlns:xlink="http://www.w3.org/1999/xlink" y="0px"><defs><symbol overflow="visible"><path d="M29.922 0H97.75v-119.172H29.922zm10.03-109.813H87.72v100.47H39.952zm0 0"/></symbol><symbol id="1ab2e97ea" overflow="visible"><path d="M64.938-17.172l-37.563-32.47v-48.624H65.11v28.563c0 9.516-4.422 13.766-11.735 16.828l9.86 8.5c9.86-4.922 14.624-12.406 14.624-25.156v-28.736h19.046v-10.875H-3.734v10.874h18.36v53.89L57.795-7.14c3.907 3.234 6.298 6.624 6.298 10.874 0 4.938-2.72 9.36-5.78 12.75l-.002.86H72.08c2.72-3.578 4.938-8.844 4.938-14.11 0-7.828-4.25-13.437-12.08-20.406zm0 0"/></symbol></defs><use x="78.42" xlink:href="#1ab2e97ea" y="169"/></svg>