<?xml version='1.0' encoding='UTF-8'?>
<svg xmlns="http://www.w3.org/2000/svg" xmlns:xlink="http://www.w3.org/1999/xlink" width="250px" height="250px" viewBox="0 0 250 250" y="0px" x="0px" enable-background="new 0 0 250 250"><defs><symbol overflow="visible" id="c4c13d92a"><path d="M145.313-30.656V0h16.843v-135.25h28.313v-14.984H-5.141v14.984h60.36v38.844c0 10.062-4.907 13.797-11.688 13.797-8.672 0-13.11-4.672-16.156-10.516L11.937-87.75C16.61-41.89 43.767-6.781 90.094-6.781c25.5 0 44.219-11.469 54.281-23.875zm-1.172-76.75c-4.203-4.219-10.766-7.953-22.688-7.953-19.89 0-36.047 14.968-36.047 36.03 0 21.766 16.86 33.938 33 35.11l9.36-12.406c-15.907-.703-25.735-9.828-25.735-22.469 0-12.406 8.89-20.828 21.281-20.828 11.704 0 22.47 9.125 22.47 25.75 0 32.516-25.5 51.703-55.22 51.703-28.078 0-50.546-17.547-57.093-48.203 2.797 1.406 6.547 2.578 12.86 2.578 14.75 0 26.218-10.297 26.218-29.015v-38.141h72.531v27.844zm0 0"/></symbol></defs><use xlink:href="#c4c13d92a" x="32.336" y="199.5"/></svg>