<?xml version='1.0' encoding='UTF-8'?>
<svg xmlns="http://www.w3.org/2000/svg" xmlns:xlink="http://www.w3.org/1999/xlink" width="250px" height="250px" viewBox="0 0 250 250" y="0px" x="0px" enable-background="new 0 0 250 250"><defs><symbol overflow="visible" id="503d6b9da"><path d="M86.266-92.125v-33.156h31.859v-13.875H-4.765v13.875h74.562v21.672l-26.016 6.5c-22.328 5.421-33.593 17.343-33.593 36.203 0 22.968 19.078 45.297 49.64 45.297 7.578 0 15.172-1.516 21.016-4.329l15.828 28.61 19.297-4.766-24.063-30.562c3.89-3.469 7.578-9.328 7.578-18 0-9.313-6.062-15.39-10.828-17.766l-11.922 4.328v22.11c-3.687 3.25-10.625 5.422-19.078 5.422-17.984.218-30.781-12.579-30.781-28.391 0-12.14 6.281-19.938 25.36-24.922zm0 0"/></symbol></defs><use xlink:href="#503d6b9da" x="68.31987" y="189.25"/></svg>