<?xml version="1.0" encoding="UTF-8"?><svg enable-background="new 0 0 250 250" height="250px" viewBox="0 0 250 250" width="250px" x="0px" xml:space="preserve" xmlns="http://www.w3.org/2000/svg" xmlns:xlink="http://www.w3.org/1999/xlink" y="0px"><defs><symbol overflow="visible"><path d="M29.922 0H97.75v-119.172H29.922zm10.03-109.813H87.72v100.47H39.952zm0 0"/></symbol><symbol id="a2c83d6ea" overflow="visible"><path d="M67.656-43.344V0h12.75v-98.266h20.578v-10.875H-3.734v10.874h18.36v38.25c0 18.203 12.75 27.89 28.562 27.89 12.062 0 20.046-5.28 23.796-11.218zm-22.265 0c-10.874 0-18.36-5.11-18.36-18.03v-9.86l-.686-15.64 11.39 11.39 25.172 24.14c-3.922 5.282-10.03 8-17.515 8zm22.61-25c0 3.235-.344 5.953-1.188 8.328l-39.78-38.25H68zm0 0"/></symbol></defs><use x="76.38" xlink:href="#a2c83d6ea" y="169"/></svg>