<?xml version="1.0" encoding="UTF-8"?><svg enable-background="new 0 0 250 250" height="250px" viewBox="0 0 250 250" width="250px" x="0px" xml:space="preserve" xmlns="http://www.w3.org/2000/svg" xmlns:xlink="http://www.w3.org/1999/xlink" y="0px"><defs><symbol overflow="visible"><path d="M29.922 0H97.75v-119.172H29.922zm10.03-109.813H87.72v100.47H39.952zm0 0"/></symbol><symbol id="d475f335a" overflow="visible"><path d="M-3.734-98.266h56.61v19.22l-20.063 6.11C16.313-67.83 8.328-59.33 8.328-44.704c0 19.72 17.344 37.734 41.484 37.734 12.063 0 23.97-3.577 32.64-12.233l-7.14-10.375c-6.296 6.797-14.453 10.875-27.03 10.875-17 0-26.86-11.89-26.86-23.625 0-9.688 3.39-15.64 19.72-20.578l24.655-7.14v-28.22h23.625v-10.875H-3.734zm0 0"/></symbol></defs><use x="82.245" xlink:href="#d475f335a" y="169"/></svg>