<?xml version='1.0' encoding='UTF-8'?>
<svg xmlns="http://www.w3.org/2000/svg" xmlns:xlink="http://www.w3.org/1999/xlink" width="250px" height="250px" viewBox="0 0 250 250" y="0px" x="0px" enable-background="new 0 0 250 250"><defs><symbol overflow="visible" id="7c4b72c4a"><path d="M186.031-135.25v-14.984H-5.14v14.984h84v23.625H43.984c-16.843 0-26.906 9.828-26.906 24.11 0 18.25 13.578 33.468 30.188 38.609l36.5-7.485c2.812 1.875 6.562 6.313 6.562 14.032 0 15.453-15.687 22.468-31.828 22.468h-7.953L20.125-40.719c-3.281 1.875-6.547 6.094-6.547 12.172 0 11 10.531 22.469 34.86 23.172l36.734 33.219 19.187-10.063L67.391-6.547v-.937c19.656-.47 39.78-12.172 39.78-35.11 0-3.968-.468-7.484-1.405-10.531 5.156 1.64 11 2.813 17.078 2.813 6.797 0 12.64-.704 17.562-2.344V0h17.313v-135.25zM89.625-73.469L50.078-65.28c-8.187-2.11-14.984-10.063-14.984-18.25 0-7.5 3.281-12.875 17.093-12.875h43.985v-38.844h44.234v65.516C135.25-67.391 128-65.75 119.812-65.75c-10.062 0-19.656-2.344-25.75-4.922-1.624-1.172-3.03-2.11-4.437-2.797zm0 0"/></symbol></defs><use xlink:href="#7c4b72c4a" x="34.559" y="199.5"/></svg>