<?xml version="1.0" encoding="UTF-8"?><svg enable-background="new 0 0 250 250" height="250px" viewBox="0 0 250 250" width="250px" x="0px" xml:space="preserve" xmlns="http://www.w3.org/2000/svg" xmlns:xlink="http://www.w3.org/1999/xlink" y="0px"><defs><symbol overflow="visible"><path d="M29.922 0H97.75v-119.172H29.922zm10.03-109.813H87.72v100.47H39.952zm0 0"/></symbol><symbol id="80f5291ea" overflow="visible"><path d="M26.188-66.47c3.218-2.046 7.984-3.577 13.42-3.405 10.548.344 18.19 7.14 18.19 19.22 0 13.42-9.86 20.733-20.736 20.733-13.61 0-21.593-8.156-26.86-16.484l-8.843 9c5.61 8.843 17.687 19.562 35.53 19.562 18.188 0 32.126-11.906 33.83-29.422 3.905 1.032 8.327 1.36 12.577 1.532 2.22 0 4.25 0 6.297-.328V0h12.75v-98.266h20.562v-10.875H-3.734v10.874h93.328v40.125c-2.72.343-5.61.515-8.156.515-3.922 0-7.83-.344-11.39-1.03-3.236-14.44-15.142-23.282-30.954-23.282-8.157.17-13.766 2.374-17.672 4.593zm0 0"/></symbol></defs><use x="65.415" xlink:href="#80f5291ea" y="169"/></svg>