<?xml version='1.0' encoding='UTF-8'?>
<svg xmlns="http://www.w3.org/2000/svg" xmlns:xlink="http://www.w3.org/1999/xlink" width="250px" height="250px" viewBox="0 0 250 250" y="0px" x="0px" enable-background="new 0 0 250 250"><defs><symbol overflow="visible" id="e5f3c2e5a"><path d="M62.203-6.938c18-.437 37.063-10.406 37.063-32.515 0-16.031-10.188-25.578-16.47-28.61l-36.624 7.594c-7.594-1.953-13.875-9.328-13.875-16.906 0-6.938 3.031-11.922 15.61-11.922h40.968v-35.984h30.984v-13.875H-4.766v13.875h77.594v21.89H40.312c-15.609 0-24.921 9.11-24.921 22.329 0 16.906 12.78 31 28.172 35.765l33.593-6.937c2.61 1.734 6.078 5.843 6.078 13 0 14.312-14.312 20.812-29.265 20.812h-7.375L18.422-37.719c-3.031 1.735-6.281 5.64-6.281 11.282 0 10.187 9.75 20.796 32.297 21.453l34.25 30.78 17.546-9.327-34.03-22.532zm0 0"/></symbol></defs><use xlink:href="#e5f3c2e5a" x="67.45288" y="189.25"/></svg>