<?xml version="1.0" encoding="UTF-8"?><svg enable-background="new 0 0 250 250" height="250px" viewBox="0 0 250 250" width="250px" x="0px" xml:space="preserve" xmlns="http://www.w3.org/2000/svg" xmlns:xlink="http://www.w3.org/1999/xlink" y="0px"><defs><symbol overflow="visible"><path d="M29.922 0H97.75v-119.172H29.922zm10.03-109.813H87.72v100.47H39.952zm0 0"/></symbol><symbol id="cdb019a2a" overflow="visible"><path d="M111.86-98.266v-10.875H-3.735v10.874h24.64v.688c-3.218 1.703-7.64 6.28-7.64 13.937 0 10.703 7.468 16.656 15.968 17.843v.688c-6.968 1.876-14.78 8.33-14.78 19.376 0 13.437 10.702 25.843 31.952 25.843 17.86 0 27.547-8.5 31.282-13.594h.687V0h12.922v-98.266zM47.765-31.28c-14.453 0-19.72-7.657-19.72-14.954 0-8.172 5.61-13.782 17.517-13.782h10.03v-11.047H45.048c-12.75 0-18.188-5.78-18.188-13.25 0-7.828 5.265-13.953 16.828-13.953h34.86v38.08c0 15.81-11.064 28.905-30.782 28.905zm0 0"/></symbol></defs><use x="71.025" xlink:href="#cdb019a2a" y="169"/></svg>