<?xml version='1.0' encoding='UTF-8'?>
<svg xmlns="http://www.w3.org/2000/svg" xmlns:xlink="http://www.w3.org/1999/xlink" width="250px" height="250px" viewBox="0 0 250 250" y="0px" x="0px" enable-background="new 0 0 250 250"><defs><symbol overflow="visible" id="0d3061f9a"><path d="M53.36-104.125c-8.907-2.11-13.344-9.125-13.344-16.156 0-9.594 6.78-16.844 18.484-16.844 11.234 0 22 9.36 22 27.14 0 22.704-18.25 36.047-42.36 36.047-7.25 0-16.374-1.171-24.093-3.984L3.516-63.64 19.89-49.844 73.703 2.578l14.75-10.062-31.125-29.953C46.094-48.203 40.484-52.422 33.703-58.032l.453-.938c34.875 2.344 64.594-16.375 64.594-51.25 0-21.75-13.813-42.344-40.484-42.344-21.532 0-36.032 14.735-36.032 32.516 0 13.344 7.25 24.344 20.36 28.078zM127.296 0h17.547v-135.25h28.312v-14.984h-45.86zm0 0"/></symbol></defs><use xlink:href="#0d3061f9a" x="40.994" y="199.5"/></svg>