<?xml version='1.0' encoding='UTF-8'?>
<svg xmlns="http://www.w3.org/2000/svg" xmlns:xlink="http://www.w3.org/1999/xlink" width="250px" height="250px" viewBox="0 0 250 250" y="0px" x="0px" enable-background="new 0 0 250 250"><defs><symbol overflow="visible" id="59bef359a"><path d="M33.375-84.75c4.125-2.594 10.188-4.547 17.125-4.328 13.438.422 23.188 9.094 23.188 24.484 0 17.125-12.563 26.453-26.438 26.453-17.344 0-27.531-10.406-34.25-21.03L1.734-47.689c7.157 11.282 22.547 24.922 45.297 24.922 23.203 0 40.969-15.172 43.14-37.484 4.985 1.297 10.61 1.734 16.032 1.938 2.828 0 5.422 0 8.031-.422V0h16.25v-125.281h26.22v-13.875H-4.767v13.875h119v51.156c-3.468.438-7.156.64-10.406.64-4.984 0-9.969-.421-14.531-1.296-4.11-18.422-19.281-29.688-39.438-29.688-10.406.219-17.562 3.031-22.547 5.844zm0 0"/></symbol></defs><use xlink:href="#59bef359a" x="49.02913" y="189.25"/></svg>