<?xml version='1.0' encoding='UTF-8'?>
<svg xmlns="http://www.w3.org/2000/svg" xmlns:xlink="http://www.w3.org/1999/xlink" width="250px" height="250px" viewBox="0 0 250 250" y="0px" x="0px" enable-background="new 0 0 250 250"><defs><symbol overflow="visible" id="dfd1fab1a"><path d="M65.188-9.922c-11.25 0-22.153-4.672-32.704-14.015-10.543-9.352-19.75-22.47-27.625-39.344l10.329-5.907c6.75 14.344 14.484 25.493 23.203 33.438 8.718 7.938 17.648 11.906 26.797 11.906 5.757 0 10.71-2.14 14.859-6.422 4.156-4.289 6.234-9.53 6.234-15.718 0-7.594-2.36-13.989-7.078-19.188-4.71-5.207-10.297-7.812-16.766-7.812-2.105 0-4.32.214-6.64.64-2.324.418-4.82 1.117-7.484 2.094l-5.704-12.656c8.438-.696 15.891-3.614 22.36-8.75 6.469-5.133 9.703-10.656 9.703-16.563 0-5.344-1.621-9.945-4.86-13.812-3.23-3.864-7.093-5.797-11.593-5.797-5.48 0-11.172 1.726-17.078 5.172-5.907 3.437-11.465 8.25-16.672 14.437l-9.907-9.703c4.915-7.164 11.208-12.719 18.876-16.656 7.664-3.938 15.925-5.906 24.78-5.906 8.583 0 15.86 3.132 21.829 9.39 5.976 6.25 8.969 13.875 8.969 22.875 0 4.781-1.125 9.356-3.375 13.719-2.25 4.355-5.344 8.219-9.282 11.594 7.176 4.086 13.504 7.215 18.985 9.39 5.488 2.18 9.922 3.266 13.297 3.266 2.101 0 4.703-.594 7.796-1.781 3.094-1.196 6.61-2.922 10.547-5.172v-50.625h-25.312v-12.656h63.281v12.656h-24.047V0h-13.922v-63.281c-2.25 1.968-4.539 3.414-6.859 4.328a19.736 19.736 0 0 1-7.266 1.36c-3.937 0-7.492-.384-10.656-1.157-3.168-.77-5.664-1.79-7.484-3.063 1.82 1.555 3.191 3.668 4.11 6.344.913 2.668 1.374 5.688 1.374 9.063 0 10.125-3.414 18.742-10.234 25.843-6.824 7.094-15.086 10.641-24.781 10.641zm0 0"/></symbol></defs><use xlink:href="#dfd1fab1a" x="44" y="190.5"/></svg>