<?xml version='1.0' encoding='UTF-8'?>
<svg xmlns="http://www.w3.org/2000/svg" xmlns:xlink="http://www.w3.org/1999/xlink" width="250px" height="250px" viewBox="0 0 250 250" y="0px" x="0px" enable-background="new 0 0 250 250"><defs><symbol overflow="visible" id="7fd65812a"><path d="M137.531-70.25c-2.668 0-5.058-.984-7.172-2.953-2.105-1.969-3.156-4.285-3.156-6.953 0-2.531 1.05-4.781 3.156-6.75 2.114-1.969 4.504-2.953 7.172-2.953 3.094 0 5.66.984 7.703 2.953 2.04 1.969 3.063 4.219 3.063 6.75 0 2.668-1.024 4.984-3.063 6.953-2.043 1.969-4.609 2.953-7.703 2.953zM-2.75-127.828v-12.656h156.953v12.656h-42.406v35.219H64.125c-1.969 0-3.656.562-5.063 1.687-1.406 1.125-2.109 2.39-2.109 3.797 0 3.938 2.633 8.898 7.906 14.875 5.282 5.98 9.676 8.969 13.188 8.969 3.238 0 7.703-1.16 13.39-3.485 5.696-2.32 10.165-3.484 13.407-3.484 5.758 0 10.71 2.219 14.86 6.656 4.155 4.43 6.234 9.735 6.234 15.922 0 12.375-4.153 22.961-12.454 31.75C105.191-7.14 95.281-2.75 83.75-2.75c-13.5 0-27.422-5.656-41.766-16.969-14.343-11.32-27.14-26.758-38.39-46.312l11.39-8.438C25.242-56.602 36.488-42.535 48.72-32.266 60.957-22.004 72.633-16.875 83.75-16.875c7.594 0 14.164-2.988 19.719-8.969 5.55-5.976 8.328-13.254 8.328-21.828 0-2.25-.703-4.219-2.11-5.906-1.406-1.688-3.023-2.531-4.843-2.531-3.242 0-7.711 1.164-13.406 3.484-5.688 2.313-10.153 3.469-13.391 3.469-5.762 0-13.04-4.782-21.828-14.344-8.793-9.563-13.188-17.438-13.188-23.625 0-5.063 2.035-9.348 6.11-12.86 4.082-3.519 9.078-5.28 14.984-5.28h33.547v-22.563zm0 0"/></symbol></defs><use xlink:href="#7fd65812a" x="49.37891" y="190.5"/></svg>