<?xml version='1.0' encoding='UTF-8'?>
<svg xmlns="http://www.w3.org/2000/svg" xmlns:xlink="http://www.w3.org/1999/xlink" width="250px" height="250px" viewBox="0 0 250 250" y="0px" x="0px" enable-background="new 0 0 250 250"><defs><symbol overflow="visible" id="01daa9dba"><path d="M-2.938-136.703v-13.531h166.032v13.53h-25.485V0H122.5v-72.188H58.422c-4.055 3.012-8.715 4.516-13.984 4.516-1.2 0-2.368-.148-3.5-.453-1.126-.3-1.993-.602-2.594-.906L83.469-6.094 71.516 1.578 3.828-94.516l12.188-9.03c3.156 6.773 6.875 12.187 11.156 16.25 4.289 4.054 8.539 6.077 12.75 6.077 4.219 0 7.789-1.426 10.719-4.281 2.937-2.852 4.406-6.383 4.406-10.594v-40.61zm71.516 49.625H122.5v-49.625H69.937v40.61c0 3.156-.453 6.163-1.359 9.015zm0 0"/></symbol></defs><use xlink:href="#01daa9dba" x="45.02979" y="200"/></svg>