<?xml version='1.0' encoding='UTF-8'?>
<svg xmlns="http://www.w3.org/2000/svg" xmlns:xlink="http://www.w3.org/1999/xlink" width="250px" height="250px" viewBox="0 0 250 250" y="0px" x="0px" enable-background="new 0 0 250 250"><defs><symbol overflow="visible" id="94f38852a"><path d="M-2.938-136.703v-13.531h175.063v13.53H92.719v40.61c3.3-5.57 7.734-9.972 13.297-13.203 5.57-3.226 11.664-4.844 18.28-4.844 9.626 0 17.782 3.95 24.47 11.844 6.695 7.899 10.047 17.48 10.047 28.75 0 9.625-2.485 19.14-7.454 28.547-4.96 9.398-11.949 17.855-20.968 25.375l-13.532-9.031c8.414-5.864 15.032-12.782 19.844-20.75 4.813-7.969 7.219-16.016 7.219-24.14 0-7.063-1.918-13.071-5.75-18.032-3.836-4.969-8.461-7.453-13.875-7.453-6.918 0-13.352 2.636-19.297 7.906-5.938 5.262-10.031 12.102-12.281 20.516V0h-14.89v-45.125c-3.618 4.219-8.016 7.531-13.204 9.938-5.188 2.406-10.79 3.609-16.797 3.609-10.836 0-20.047-3.797-27.64-11.39C12.593-50.563 8.796-59.774 8.796-70.61c0-12.032 4.394-22.29 13.187-30.782 8.801-8.5 19.368-12.75 31.703-12.75 3.614 0 6.735.266 9.36.797 2.633.524 4.55 1.23 5.75 2.125l-2.922 15.125a19.892 19.892 0 0 0-5.75-2.25c-2.031-.457-4.18-.687-6.438-.687-8.117 0-15.148 2.781-21.093 8.344-5.938 5.562-8.907 12.257-8.907 20.078 0 6.617 2.368 12.293 7.11 17.03 4.738 4.743 10.414 7.11 17.031 7.11 5.707 0 11.27-1.765 16.688-5.297 5.414-3.539 9.851-8.316 13.312-14.328v-70.61zm0 0"/></symbol></defs><use xlink:href="#94f38852a" x="40.51807" y="200"/></svg>