<?xml version='1.0' encoding='UTF-8'?>
<svg xmlns="http://www.w3.org/2000/svg" xmlns:xlink="http://www.w3.org/1999/xlink" width="250px" height="250px" viewBox="0 0 250 250" y="0px" x="0px" enable-background="new 0 0 250 250"><defs><symbol overflow="visible" id="dfd1fab1a"><path d="M69.703-10.61c-12.031 0-23.687-5-34.969-15-11.273-10-21.12-24.019-29.547-42.062L16.25-74c7.219 15.344 15.488 27.266 24.813 35.766 9.32 8.5 18.867 12.75 28.64 12.75 6.164 0 11.469-2.29 15.906-6.875 4.438-4.594 6.657-10.196 6.657-16.813 0-8.125-2.524-14.969-7.563-20.531-5.031-5.563-11.008-8.344-17.922-8.344-2.261 0-4.633.227-7.11.672-2.48.45-5.151 1.2-8.015 2.25l-6.093-13.531c9.03-.75 17.003-3.867 23.921-9.36 6.914-5.488 10.375-11.39 10.375-17.703 0-5.719-1.73-10.644-5.187-14.781-3.461-4.133-7.594-6.203-12.406-6.203-5.868 0-11.961 1.844-18.282 5.531-6.312 3.68-12.25 8.828-17.812 15.453l-10.61-10.39c5.27-7.664 12-13.602 20.188-17.813 8.195-4.207 17.035-6.312 26.516-6.312 9.164 0 16.945 3.351 23.343 10.047 6.395 6.687 9.594 14.843 9.594 24.468 0 5.106-1.203 9.992-3.61 14.656-2.406 4.668-5.718 8.805-9.937 12.407 7.676 4.367 14.446 7.715 20.313 10.047 5.863 2.324 10.597 3.484 14.203 3.484 2.258 0 5.039-.633 8.344-1.906 3.312-1.281 7.07-3.125 11.28-5.531v-54.141h-27.062v-13.531h67.672v13.53h-25.719V0h-14.89v-67.672c-2.406 2.106-4.852 3.649-7.328 4.625a20.976 20.976 0 0 1-7.781 1.469c-4.211 0-8.008-.41-11.391-1.234-3.387-.833-6.059-1.926-8.016-3.282 1.957 1.656 3.426 3.914 4.406 6.766.977 2.855 1.47 6.09 1.47 9.703 0 10.824-3.653 20.031-10.954 27.625-7.293 7.594-16.125 11.39-26.5 11.39zm0 0"/></symbol></defs><use xlink:href="#dfd1fab1a" x="38.375" y="200"/></svg>