<?xml version='1.0' encoding='UTF-8'?>
<svg xmlns="http://www.w3.org/2000/svg" xmlns:xlink="http://www.w3.org/1999/xlink" width="250px" height="250px" viewBox="0 0 250 250" y="0px" x="0px" enable-background="new 0 0 250 250"><defs><symbol overflow="visible" id="49bbd671a"><path d="M86.844-2.938c-15.781 0-31.156-5.972-46.125-17.921C25.75-32.816 13.602-48.875 4.28-69.031l11.969-7.672c8.414 17.898 18.977 32.148 31.688 42.75 12.707 10.605 25.675 15.906 38.906 15.906 8.125 0 15.156-3.082 21.094-9.25 5.945-6.164 8.921-13.61 8.921-22.328 0-2.406-.757-4.508-2.265-6.313-1.5-1.812-3.23-2.718-5.188-2.718-3.304 0-7.851 1.015-13.64 3.047-5.793 2.03-10.266 3.047-13.422 3.047-7.68 0-16.106-4.813-25.281-14.438-9.168-9.625-13.75-18.348-13.75-26.172 0-5.406 1.878-9.988 5.64-13.75 3.758-3.758 8.348-5.64 13.766-5.64h40.593v-24.141H-2.938v-13.531h148.22v13.53h-26.845v39.032H62.72c-1.211 0-2.266.453-3.172 1.36-.899.898-1.344 1.945-1.344 3.14 0 4.219 3.004 9.527 9.016 15.922 6.02 6.387 11.062 9.578 15.125 9.578 3.156 0 7.629-.976 13.422-2.937 5.789-1.957 10.336-2.938 13.64-2.938 6.164 0 11.469 2.336 15.906 7 4.438 4.656 6.657 10.297 6.657 16.922 0 12.93-4.438 23.945-13.313 33.047-8.875 9.094-19.48 13.64-31.812 13.64zm0 0"/></symbol></defs><use xlink:href="#49bbd671a" x="53.82764" y="200"/></svg>