<?xml version='1.0' encoding='UTF-8'?>
<svg xmlns="http://www.w3.org/2000/svg" xmlns:xlink="http://www.w3.org/1999/xlink" width="250px" height="250px" viewBox="0 0 250 250" y="0px" x="0px" enable-background="new 0 0 250 250"><defs><symbol overflow="visible" id="16bdd07aa"><path d="M49.86-63.172c5.863 0 11.425-1.426 16.687-4.281 5.258-2.852 9.695-6.91 13.312-12.172v-57.078H27.297v52.562c0 5.868 2.219 10.829 6.656 14.891 4.438 4.055 9.738 6.078 15.906 6.078zM12.405-84.14v-52.562H-2.938v-13.531h180.704v13.53H94.969v42.188c3.914-4.812 8.656-8.535 14.219-11.171 5.562-2.633 11.347-3.954 17.359-3.954 10.383 0 19.223 4.102 26.516 12.297 7.289 8.2 10.937 18.09 10.937 29.672 0 9.024-1.695 17.899-5.078 26.625-3.387 8.719-8.234 16.914-14.547 24.578l-13.313-7.672c5.72-5.707 10.118-12.32 13.204-19.843 3.082-7.52 4.625-15.414 4.625-23.688 0-7.375-2.184-13.691-6.547-18.953-4.367-5.258-9.633-7.89-15.797-7.89-5.262 0-10.637 1.542-16.125 4.624-5.492 3.086-10.64 7.48-15.453 13.188V0h-15.11v-60c-3.761 3.762-8.234 6.695-13.421 8.797-5.188 2.105-10.715 3.156-16.579 3.156-10.375 0-19.214-3.492-26.515-10.484-7.293-7-10.938-15.535-10.938-25.61zm0 0"/></symbol></defs><use xlink:href="#16bdd07aa" x="37.69824" y="200"/></svg>