<?xml version='1.0' encoding='UTF-8'?>
<svg xmlns="http://www.w3.org/2000/svg" xmlns:xlink="http://www.w3.org/1999/xlink" width="250px" height="250px" viewBox="0 0 250 250" y="0px" x="0px" enable-background="new 0 0 250 250"><defs><symbol overflow="visible" id="1bc72012a"><path d="M83.328-16.875c4.914-.988 8.957-3.414 12.125-7.281 3.164-3.864 4.75-8.469 4.75-13.813 0-3.937-1.34-7.238-4.016-9.906-2.667-2.676-5.968-4.016-9.906-4.016-3.523 0-6.511 1.2-8.969 3.594-2.46 2.387-3.687 5.406-3.687 9.063 0 4.5.844 8.683 2.531 12.547 1.688 3.867 4.078 7.136 7.172 9.812zM-2.75-127.828v-12.656h127.844v12.656h-29.11v42.187h-54.64c-5.063 0-9.387 2.184-12.969 6.547C24.789-74.738 23-69.469 23-63.28c0 10.968 4.883 21.449 14.656 31.437 9.77 9.98 20.352 15.461 31.75 16.438-3.242-2.664-5.703-6.11-7.39-10.328-1.688-4.22-2.532-8.72-2.532-13.5 0-7.313 2.633-13.602 7.907-18.875 5.28-5.282 11.578-7.922 18.89-7.922 7.594 0 14.164 2.781 19.719 8.344 5.55 5.554 8.328 12.124 8.328 19.718 0 9.7-4.398 17.996-13.187 24.89C92.359-6.19 81.78-2.75 69.406-2.75c-15.054 0-28.87-6.328-41.453-18.984C15.367-34.391 9.078-48.238 9.078-63.281c0-10.125 3.125-18.739 9.375-25.844 6.258-7.102 13.89-10.656 22.89-10.656h40.72v-28.047zm0 0"/></symbol></defs><use xlink:href="#1bc72012a" x="63.93359" y="190.5"/></svg>