<?xml version='1.0' encoding='UTF-8'?>
<svg xmlns="http://www.w3.org/2000/svg" xmlns:xlink="http://www.w3.org/1999/xlink" width="250px" height="250px" viewBox="0 0 250 250" y="0px" x="0px" enable-background="new 0 0 250 250"><defs><symbol overflow="visible" id="71666c5ba"><path d="M50.531-50.984c5.414 0 10.004-2.22 13.766-6.657 3.758-4.437 5.64-9.738 5.64-15.906v-63.156H29.328v63.156c0 6.168 2.067 11.469 6.203 15.906 4.133 4.438 9.133 6.657 15 6.657zm0 14.89c-10.074 0-18.61-3.644-25.61-10.937-6.991-7.29-10.483-16.13-10.483-26.516v-63.156H-2.939v-13.531h157.016v13.53h-25.5V0h-15.11v-136.703H85.048v63.156c0 10.387-3.422 19.227-10.266 26.516-6.844 7.293-14.93 10.937-24.25 10.937zm0 0"/></symbol></defs><use xlink:href="#71666c5ba" x="49.5415" y="200"/></svg>