<?xml version='1.0' encoding='UTF-8'?>
<svg xmlns="http://www.w3.org/2000/svg" xmlns:xlink="http://www.w3.org/1999/xlink" width="250px" height="250px" viewBox="0 0 250 250" y="0px" x="0px" enable-background="new 0 0 250 250"><defs><symbol overflow="visible" id="b9ebe509a"><path d="M49.172-27.078c-7.813 0-15.711-2.477-23.688-7.438C17.516-39.473 10.445-46.469 4.281-55.5l10.375-10.594c4.219 7.367 9.446 13.23 15.688 17.594 6.238 4.367 12.515 6.547 18.828 6.547 7.82 0 14.55-2.969 20.187-8.906 5.645-5.946 8.47-13.055 8.47-21.328 0-6.915-2.372-12.891-7.11-17.922-4.742-5.04-10.418-7.563-17.031-7.563-4.813 0-9.477 1.055-13.985 3.156-4.512 2.106-8.344 5.04-11.5 8.797L17.828-97.672c4.813-4.812 10.297-8.492 16.453-11.047 6.164-2.562 12.633-3.844 19.407-3.844 9.019 0 17.175 2.934 24.468 8.797 7.301 5.868 12.156 13.383 14.563 22.547 1.195 1.512 3.113 2.64 5.75 3.39 2.633.75 5.754 1.126 9.36 1.126 4.362 0 8.347-.484 11.952-1.453 3.614-.977 6.625-2.446 9.031-4.406v-54.141H-2.938v-13.531h172.36v13.53h-25.5V0h-15.11v-66.094c-3.917 1.356-7.683 2.45-11.296 3.281-3.606.825-6.836 1.235-9.688 1.235-2.406 0-4.851-.41-7.328-1.234-2.48-.833-5.074-1.926-7.781-3.282-1.961 11.281-7.04 20.606-15.235 27.969-8.199 7.367-17.636 11.047-28.312 11.047zm0 0"/></symbol></defs><use xlink:href="#b9ebe509a" x="41.87158" y="200"/></svg>