<?xml version='1.0' encoding='UTF-8'?>
<svg xmlns="http://www.w3.org/2000/svg" xmlns:xlink="http://www.w3.org/1999/xlink" width="250px" height="250px" viewBox="0 0 250 250" y="0px" x="0px" enable-background="new 0 0 250 250"><defs><symbol overflow="visible" id="d8a713d9a"><path d="M83.234-87.078v-49.625H30.688zM51.656-60c6.164 0 11.957-.898 17.375-2.703 5.414-1.813 10.149-4.445 14.203-7.906L27.75-121.594v37.453c0 6.618 2.328 12.293 6.984 17.032C39.398-62.367 45.04-60 51.656-60zm-54.593-76.703v-13.531h126.78v13.53H98.126V0h-14.89v-54.14c-4.212 3.011-9.024 5.265-14.438 6.765-5.406 1.5-11.121 2.25-17.14 2.25-10.825 0-20.032-3.797-27.626-11.39-7.593-7.594-11.39-16.801-11.39-27.626v-52.562zm0 0"/></symbol></defs><use xlink:href="#d8a713d9a" x="64.65576" y="200"/></svg>