<?xml version='1.0' encoding='UTF-8'?>
<svg xmlns="http://www.w3.org/2000/svg" xmlns:xlink="http://www.w3.org/1999/xlink" width="250px" height="250px" viewBox="0 0 250 250" y="0px" x="0px" enable-background="new 0 0 250 250"><defs><symbol overflow="visible" id="a0757981a"><path d="M65.188-16.875c-10.126 0-20.672-6.785-31.641-20.36-10.969-13.57-20.531-31.609-28.688-54.109l12.657-5.484c7.164 19.969 15.109 35.969 23.828 48 8.718 12.023 16.664 18.031 23.843 18.031 4.633 0 8.602-1.789 11.907-5.375 3.312-3.594 4.969-7.922 4.969-12.984 0-8.008-2.079-16.27-6.235-24.782-4.148-8.507-10.016-16.628-17.61-24.359h60.329v-29.531H-2.75v-12.656h159.266v12.656h-23.828V0h-14.141v-84.172h-33.75c3.8 5.211 6.613 10.805 8.437 16.781a61.81 61.81 0 0 1 2.75 18.235c0 9-2.992 16.633-8.968 22.89-5.98 6.262-13.258 9.391-21.829 9.391zm0 0"/></symbol></defs><use xlink:href="#a0757981a" x="48.21875" y="190.5"/></svg>