<?xml version='1.0' encoding='UTF-8'?>
<svg xmlns="http://www.w3.org/2000/svg" xmlns:xlink="http://www.w3.org/1999/xlink" width="250px" height="250px" viewBox="0 0 250 250" y="0px" x="0px" enable-background="new 0 0 250 250"><defs><symbol overflow="visible" id="0dac2c92a"><path d="M-2.938-136.703v-13.531h115.5v13.53H94.517v43.985c0 8.125-1.618 15.235-4.844 21.328-3.23 6.086-7.555 9.883-12.969 11.391l-9.031-10.61c3.613-1.05 6.508-3.68 8.687-7.89 2.176-4.219 3.266-9.11 3.266-14.672v-43.531H28.656v57.078c0 3.75.633 7.36 1.907 10.828 1.28 3.461 3.125 6.39 5.53 8.797l52.563 49.39c3.758 3.313 6.692 6.512 8.797 9.594 2.102 3.082 3.156 5.899 3.156 8.454 0 4.519-1.656 8.656-4.968 12.406-3.305 3.758-7.664 6.695-13.079 8.812L70.61 18.046c4.063-.605 7.332-1.921 9.813-3.952 2.476-2.031 3.719-4.25 3.719-6.656 0-1.344-.493-2.922-1.47-4.735-.968-1.805-2.51-3.68-4.624-5.64L22.563-54.142c-2.868-2.707-5.09-6.28-6.672-10.718-1.575-4.438-2.36-9.133-2.36-14.094v-57.75zm0 0"/></symbol></defs><use xlink:href="#0dac2c92a" x="70.18262" y="200"/></svg>