<?xml version='1.0' encoding='UTF-8'?>
<svg xmlns="http://www.w3.org/2000/svg" xmlns:xlink="http://www.w3.org/1999/xlink" width="250px" height="250px" viewBox="0 0 250 250" y="0px" x="0px" enable-background="new 0 0 250 250"><defs><symbol overflow="visible" id="82a5ca07a"><path d="M107.828-69.031c2.258 0 5.04-.524 8.344-1.578 3.312-1.051 7.07-2.555 11.281-4.516v-61.578H85.266v36.094H32.703c-1.95 0-3.68.453-5.187 1.359-1.5.898-2.25 1.95-2.25 3.156 0 3.762 2.254 8.461 6.765 14.094 4.508 5.637 8.27 8.453 11.282 8.453 3.007 0 7.257-1.008 12.75-3.031 5.488-2.031 9.734-3.047 12.734-3.047 2.863 0 5.57.414 8.125 1.234 2.562.825 4.894 1.914 7 3.266 2.707 1.96 6.129 3.465 10.266 4.516 4.132 1.054 8.68 1.578 13.64 1.578zm-36.094 79.64C65.117 7.598 59.066 4.172 53.578.33 48.086-3.505 43.16-7.599 38.797-11.954c-7.813 0-14.543-1.766-20.188-5.297-5.636-3.54-8.453-7.79-8.453-12.75 0-3.457 1.16-6.313 3.485-8.563 2.332-2.257 5.226-3.39 8.687-3.39 4.219 0 8.469 1.277 12.75 3.828 4.29 2.555 8.016 6.234 11.172 11.047 8.57-1.5 15.71-4.914 21.422-10.25C73.39-42.672 76.25-48.727 76.25-55.5c0-2.406-.758-4.508-2.266-6.313-1.5-1.8-3.23-2.703-5.187-2.703-3 0-7.246.98-12.734 2.938-5.493 1.95-9.743 2.922-12.75 2.922-5.418 0-12.297-4.696-20.641-14.094-8.344-9.395-12.516-17.176-12.516-23.344 0-5.414 2.219-10.039 6.656-13.875 4.438-3.832 9.735-5.75 15.891-5.75h37.688v-20.984H-2.938v-13.531h170.782v13.53h-25.5V0h-14.89v-60a71.29 71.29 0 0 1-9.923 3.266c-3.312.824-6.547 1.234-9.703 1.234-2.855 0-5.637-.258-8.344-.781a47.525 47.525 0 0 1-8.125-2.375c0 11.281-3.308 20.61-9.921 27.984-6.618 7.367-15.868 12.102-27.75 14.203C58.8-12.258 63.5-8.766 67.78-5.984c4.29 2.78 8.164 4.777 11.625 5.984zm0 0"/></symbol></defs><use xlink:href="#82a5ca07a" x="42.54834" y="200"/></svg>