<?xml version='1.0' encoding='UTF-8'?>
<svg xmlns="http://www.w3.org/2000/svg" xmlns:xlink="http://www.w3.org/1999/xlink" width="250px" height="250px" viewBox="0 0 250 250" y="0px" x="0px" enable-background="new 0 0 250 250"><defs><symbol overflow="visible" id="67ea750da"><path d="M-2.75-127.828v-12.656h97.672v12.656H75.938v32.266c0 8.718-2.918 16.07-8.75 22.046-5.836 5.98-12.762 8.97-20.782 8.97-1.125 0-2.636-.243-4.531-.735-1.898-.5-4.184-1.239-6.86-2.219 6.051 10.543 13.188 20.633 21.407 30.266 8.226 9.636 17.476 18.742 27.75 27.312L75.938 0c-15.043-12.52-28.61-26.758-40.704-42.719C23.141-58.676 12.801-75.797 4.22-94.079l12.656-6.968c2.395 6.75 6.297 12.168 11.703 16.25 5.414 4.074 11.36 6.11 17.828 6.11 4.219 0 7.836-1.614 10.86-4.844 3.03-3.239 4.547-7.25 4.547-12.031v-32.266zm0 0"/></symbol></defs><use xlink:href="#67ea750da" x="79.01562" y="190.5"/></svg>