<?xml version='1.0' encoding='UTF-8'?>
<svg xmlns="http://www.w3.org/2000/svg" xmlns:xlink="http://www.w3.org/1999/xlink" width="250px" height="250px" viewBox="0 0 250 250" y="0px" x="0px" enable-background="new 0 0 250 250"><defs><symbol overflow="visible" id="67ea750da"><path d="M-2.938-136.703v-13.531h104.454v13.53H81.219v34.517c0 9.324-3.125 17.183-9.375 23.578-6.242 6.386-13.649 9.578-22.219 9.578-1.2 0-2.813-.258-4.844-.781-2.031-.532-4.476-1.32-7.328-2.376 6.457 11.282 14.086 22.075 22.89 32.376 8.802 10.304 18.692 20.039 29.673 29.203L81.219 0c-16.094-13.383-30.61-28.61-43.547-45.672-12.938-17.07-23.992-35.383-33.156-54.937l13.53-7.454c2.552 7.22 6.724 13.012 12.517 17.376 5.789 4.367 12.144 6.546 19.062 6.546 4.508 0 8.379-1.726 11.61-5.187 3.238-3.457 4.859-7.742 4.859-12.86v-34.515zm0 0"/></symbol></defs><use xlink:href="#67ea750da" x="75.82227" y="200"/></svg>