<?xml version='1.0' encoding='UTF-8'?>
<svg xmlns="http://www.w3.org/2000/svg" xmlns:xlink="http://www.w3.org/1999/xlink" width="250px" height="250px" viewBox="0 0 250 250" y="0px" x="0px" enable-background="new 0 0 250 250"><defs><symbol overflow="visible" id="a0757981a"><path d="M69.703-18.047c-10.824 0-22.105-7.254-33.844-21.765C24.13-54.32 13.906-73.61 5.187-97.672l13.532-5.875c7.676 21.356 16.176 38.465 25.5 51.328 9.32 12.856 17.816 19.282 25.484 19.282 4.969 0 9.219-1.915 12.75-5.75 3.531-3.833 5.297-8.458 5.297-13.876 0-8.57-2.219-17.406-6.656-26.5-4.438-9.101-10.715-17.789-18.828-26.062h64.515v-31.578H-2.938v-13.531h170.329v13.53h-25.5V0h-15.11v-90.016H90.687c4.063 5.575 7.067 11.559 9.016 17.954a66.204 66.204 0 0 1 2.938 19.5c0 9.624-3.2 17.789-9.594 24.484-6.387 6.687-14.168 10.031-23.344 10.031zm0 0"/></symbol></defs><use xlink:href="#a0757981a" x="42.88672" y="200"/></svg>