<?xml version='1.0' encoding='UTF-8'?>
<svg xmlns="http://www.w3.org/2000/svg" xmlns:xlink="http://www.w3.org/1999/xlink" width="250px" height="250px" viewBox="0 0 250 250" y="0px" x="0px" enable-background="new 0 0 250 250"><defs><symbol overflow="visible" id="1d86ae37a"><path d="M-2.938-136.703v-13.531h122.72v13.53H94.296V0h-14.89v-136.703H41.733v73.531c0 2.406-.757 4.516-2.265 6.328-1.5 1.805-3.227 2.703-5.172 2.703-3.762 0-9.703-4.695-17.828-14.093C8.344-77.641 4.28-84.445 4.28-88.656c0-1.5.598-2.848 1.797-4.047 1.207-1.207 2.567-1.813 4.078-1.813H20.75c1.656 0 3.082-.75 4.281-2.25 1.207-1.507 1.813-3.316 1.813-5.421v-34.516zm0 0"/></symbol></defs><use xlink:href="#1d86ae37a" x="66.68604" y="200"/></svg>