<?xml version='1.0' encoding='UTF-8'?>
<svg xmlns="http://www.w3.org/2000/svg" xmlns:xlink="http://www.w3.org/1999/xlink" width="250px" height="250px" viewBox="0 0 250 250" y="0px" x="0px" enable-background="new 0 0 250 250"><defs><symbol overflow="visible" id="3f8c5937a"><path d="M-4.734-136.703v-13.531h129.937v13.53h-23.922v39.032h-58.64c-5.868 0-10.828 2.07-14.891 6.203-4.063 4.137-6.094 9.059-6.094 14.766 0 10.836 5.711 20.086 17.14 27.75 11.438 7.668 25.274 11.5 41.517 11.5 0-7.063 1.578-13.113 4.734-18.156 3.156-5.04 7.066-7.563 11.734-7.563 3.301 0 6.117 1.168 8.453 3.5 2.332 2.336 3.5 5.23 3.5 8.688 0 3.906-1.203 7.89-3.609 11.953-2.406 4.062-5.715 7.523-9.922 10.375L111.672 0 98.125 6.094 81.656-24.141c-20.75 0-38.46-5.148-53.125-15.453-14.656-10.3-21.984-22.672-21.984-37.11 0-9.925 3.492-18.382 10.484-25.374 6.989-6.988 15.524-10.484 25.61-10.484h43.53v-24.141zm0 0"/></symbol></defs><use xlink:href="#3f8c5937a" x="63.979" y="200"/></svg>