<?xml version='1.0' encoding='UTF-8'?>
<svg xmlns="http://www.w3.org/2000/svg" xmlns:xlink="http://www.w3.org/1999/xlink" width="250px" height="250px" viewBox="0 0 250 250" y="0px" x="0px" enable-background="new 0 0 250 250"><defs><symbol overflow="visible" id="71666c5ba"><path d="M47.25-47.672c5.063 0 9.348-2.07 12.86-6.219 3.519-4.156 5.28-9.113 5.28-14.875v-59.062H27.423v59.062c0 5.762 1.93 10.72 5.797 14.875 3.875 4.149 8.55 6.22 14.031 6.22zm0 13.922c-9.418 0-17.398-3.41-23.938-10.234-6.542-6.82-9.812-15.082-9.812-24.782v-59.062H-2.75v-12.656h146.828v12.656h-23.844V0H106.11v-127.828H79.531v59.062c0 9.7-3.203 17.961-9.61 24.782C63.524-37.16 55.97-33.75 47.25-33.75zm0 0"/></symbol></defs><use xlink:href="#71666c5ba" x="54.44141" y="190.5"/></svg>