<?xml version='1.0' encoding='UTF-8'?>
<svg xmlns="http://www.w3.org/2000/svg" xmlns:xlink="http://www.w3.org/1999/xlink" width="250px" height="250px" viewBox="0 0 250 250" y="0px" x="0px" enable-background="new 0 0 250 250"><defs><symbol overflow="visible" id="00fea77ca"><path d="M4.516-90.016c0-2.101 1.05-3.906 3.156-5.406 2.101-1.5 4.582-2.25 7.437-2.25h79.407v-39.031H-2.938v-13.531h138.063v13.53h-25.484V0H94.516v-82.563H50.984c-2.406 0-4.515.606-6.328 1.813-1.804 1.2-2.703 2.547-2.703 4.047v15.125c0 2.406-.75 4.512-2.25 6.312-1.5 1.805-3.23 2.703-5.187 2.703-3.461 0-9.325-5.222-17.594-15.671C8.648-78.691 4.516-85.954 4.516-90.016zm0 0"/></symbol></defs><use xlink:href="#00fea77ca" x="59.01611" y="200"/></svg>