<?xml version='1.0' encoding='UTF-8'?>
<svg xmlns="http://www.w3.org/2000/svg" xmlns:xlink="http://www.w3.org/1999/xlink" width="250px" height="250px" viewBox="0 0 250 250" y="0px" x="0px" enable-background="new 0 0 250 250"><defs><symbol overflow="visible" id="27ee7eb6a"><path d="M36.5-81.422h50.625v-46.406H36.5zm-39.25-46.406v-12.656h127.844v12.656h-24.047V0H87.125v-67.5H36.5v9.906c0 2.25-.422 4.219-1.266 5.907-.843 1.687-1.828 2.53-2.953 2.53-3.242 0-8.73-3.515-16.468-10.546C8.082-66.734 4.219-71.656 4.219-74.47c0-1.82.703-3.437 2.11-4.844 1.405-1.406 3.023-2.109 4.859-2.109h11.39v-46.406zm0 0"/></symbol></defs><use xlink:href="#27ee7eb6a" x="63.93359" y="190.5"/></svg>