<?xml version='1.0' encoding='UTF-8'?>
<svg xmlns="http://www.w3.org/2000/svg" xmlns:xlink="http://www.w3.org/1999/xlink" width="250px" height="250px" viewBox="0 0 250 250" y="0px" x="0px" enable-background="new 0 0 250 250"><defs><symbol overflow="visible" id="a797625fa"><path d="M9.078-68.766c0-9 2.879-16.629 8.64-22.89 5.77-6.258 12.66-9.39 20.673-9.39h54.843v-26.782H-2.75v-12.656h133.953v12.656h-23.828V0h-14.14v-87.125H38.39c-4.22 0-7.84 1.797-10.86 5.39C24.508-78.147 23-73.827 23-68.764c0 9 3.195 18.636 9.594 28.906 6.394 10.261 15.36 20.242 26.89 29.937L51.047 0C37.828-11.25 27.523-22.848 20.14-34.797 12.766-46.754 9.078-58.078 9.078-68.766zm0 0"/></symbol></defs><use xlink:href="#a797625fa" x="60.875" y="190.5"/></svg>