<?xml version='1.0' encoding='UTF-8'?>
<svg xmlns="http://www.w3.org/2000/svg" xmlns:xlink="http://www.w3.org/1999/xlink" width="250px" height="250px" viewBox="0 0 250 250" y="0px" x="0px" enable-background="new 0 0 250 250"><defs><symbol overflow="visible" id="e7e6d3e7a"><path d="M50.75-48.047c3.613 0 6.922-.488 9.922-1.469a23.025 23.025 0 0 0 8.125-4.625L28.203-87.078c-1.355 1.805-2.45 3.95-3.281 6.437-.824 2.48-1.235 5.297-1.235 8.454 0 6.617 2.665 12.292 8 17.03 5.344 4.743 11.696 7.11 19.063 7.11zM8.797-72.187c0-11.883 4.394-22.11 13.187-30.672 8.801-8.57 19.368-12.86 31.703-12.86 3.915 0 7.524.414 10.829 1.235 3.312.824 6.242 1.914 8.796 3.265L68.797-99.03a32.603 32.603 0 0 0-7.11-2.36c-2.48-.53-5.148-.796-8-.796-4.367 0-8.09.562-11.171 1.687-3.075 1.125-5.368 2.594-6.875 4.406l43.765 32.922 4.516-5.86v-67.671h-86.86v-13.531h127.235v13.53H98.813V0H83.921v-48.047c-4.813 4.813-10.078 8.54-15.797 11.172-5.71 2.625-11.5 3.938-17.375 3.938-11.574 0-21.46-3.833-29.656-11.5-8.2-7.676-12.297-16.926-12.297-27.75zm0 0"/></symbol></defs><use xlink:href="#e7e6d3e7a" x="64.43018" y="200"/></svg>