<?xml version='1.0' encoding='UTF-8'?>
<svg xmlns="http://www.w3.org/2000/svg" xmlns:xlink="http://www.w3.org/1999/xlink" width="250px" height="250px" viewBox="0 0 250 250" y="0px" x="0px" enable-background="new 0 0 250 250"><defs><symbol overflow="visible" id="b7951c16a"><path d="M-2.75-127.828v-12.656h158.844v12.656h-23.828V0h-13.922v-84.172c-8.156 0-15.75 3.625-22.781 10.875-7.032 7.242-12.094 16.695-15.188 28.36l-12.656-4.22c.695-4.5 1.816-8.577 3.36-12.234 1.55-3.656 3.241-6.609 5.077-8.859-2.96-4.5-6.687-7.941-11.187-10.328-4.5-2.395-9.211-3.594-14.125-3.594-7.742 0-14.356 2.746-19.844 8.234-5.48 5.481-8.219 12.09-8.219 19.829 0 8.437 4.254 16.773 12.766 25 8.508 8.218 19.723 14.859 33.64 19.922L63.5 1.483c-16.46-6.05-29.715-14.347-39.766-24.89C13.68-33.957 8.656-44.86 8.656-56.11c0-11.676 4.11-21.625 12.328-29.844 8.227-8.227 18.18-12.344 29.86-12.344 6.883 0 13.422 1.371 19.61 4.11 6.187 2.742 11.32 6.5 15.405 11.28 4.22-4.78 9.141-8.538 14.766-11.28 5.625-2.739 11.531-4.11 17.719-4.11v-29.531zm0 0"/></symbol></defs><use xlink:href="#b7951c16a" x="48.32422" y="190.5"/></svg>