<?xml version='1.0' encoding='UTF-8'?>
<svg xmlns="http://www.w3.org/2000/svg" xmlns:xlink="http://www.w3.org/1999/xlink" width="250px" height="250px" viewBox="0 0 250 250" y="0px" x="0px" enable-background="new 0 0 250 250"><defs><symbol overflow="visible" id="3b89e739a"><path d="M-2.75-127.828v-12.656h138.594v12.656H105.89c2.812 3.23 4.921 6.812 6.328 10.75 1.406 3.937 2.11 7.875 2.11 11.812 0 6.188-1.266 11.782-3.798 16.782-2.531 4.992-5.976 8.75-10.328 11.28 6.04 1.97 10.852 6.048 14.438 12.235 3.593 6.188 5.39 13.36 5.39 21.516 0 10.824-3.73 20.07-11.187 27.734-7.45 7.668-16.375 11.5-26.781 11.5-14.493 0-28.45-7.629-41.876-22.89C26.758-42.367 14.985-63.781 4.86-91.344l11.391-5.062c9 24.75 19.266 43.949 30.797 57.594C58.578-25.177 70.25-18.36 82.063-18.36c6.468 0 12.054-2.457 16.765-7.375 4.707-4.926 7.063-10.832 7.063-17.72 0-7.737-2.215-14.382-6.641-19.937-4.43-5.55-9.734-8.328-15.922-8.328H55.266L49.78-84.172h30.797c5.488 0 10.129-2.07 13.922-6.219 3.8-4.144 5.703-9.101 5.703-14.875 0-3.937-1.125-7.875-3.375-11.812-2.25-3.938-5.344-7.52-9.281-10.75zm0 0"/></symbol></defs><use xlink:href="#3b89e739a" x="58.44922" y="190.5"/></svg>