<?xml version='1.0' encoding='UTF-8'?>
<svg xmlns="http://www.w3.org/2000/svg" xmlns:xlink="http://www.w3.org/1999/xlink" width="250px" height="250px" viewBox="0 0 250 250" y="0px" x="0px" enable-background="new 0 0 250 250"><defs><symbol overflow="visible" id="c302c08ba"><path d="M26.844-73.547c0-1.644.71-3.066 2.14-4.266 1.426-1.207 3.196-1.812 5.313-1.812H46.25v-43.547c0-4.207-1.32-7.773-3.953-10.703-2.637-2.938-5.836-4.406-9.594-4.406-3.75 0-6.945 1.054-9.578 3.156-2.637 2.105-3.953 4.586-3.953 7.438 0 3.46 1.316 6.32 3.953 8.578 2.633 2.261 5.828 3.39 9.578 3.39v15.11c-7.812 0-14.508-2.664-20.078-8-5.563-5.344-8.344-11.704-8.344-19.079 0-7.062 2.782-13.07 8.344-18.03 5.57-4.97 12.266-7.454 20.078-7.454 7.82 0 14.55 2.934 20.188 8.797 5.644 5.867 8.468 12.934 8.468 21.203v43.547h49.407v-57.078H71.734v-13.531h79.641v13.53h-25.5V0h-15.11v-64.516H61.36v11.954c0 1.656-.757 3.09-2.265 4.296-1.5 1.2-3.305 1.797-5.407 1.797-3.011 0-8.242-3.758-15.687-11.281-7.438-7.52-11.156-12.785-11.156-15.797zm0 0"/></symbol></defs><use xlink:href="#c302c08ba" x="50.89502" y="200"/></svg>