<?xml version='1.0' encoding='UTF-8'?>
<svg xmlns="http://www.w3.org/2000/svg" xmlns:xlink="http://www.w3.org/1999/xlink" width="250px" height="250px" viewBox="0 0 250 250" y="0px" x="0px" enable-background="new 0 0 250 250"><defs><symbol overflow="visible" id="b7951c16a"><path d="M-2.938-136.703v-13.531h169.875v13.53h-25.5V0h-14.89v-90.016c-8.719 0-16.84 3.875-24.36 11.625-7.523 7.743-12.933 17.856-16.234 30.344l-13.547-4.516c.758-4.812 1.961-9.171 3.61-13.078 1.656-3.914 3.46-7.078 5.421-9.484-3.156-4.813-7.14-8.492-11.953-11.047-4.812-2.562-9.855-3.844-15.125-3.844-8.273 0-15.34 2.938-21.203 8.813C27.29-75.336 24.36-68.27 24.36-60c0 9.023 4.547 17.934 13.641 26.734 9.102 8.793 21.102 15.899 36 21.313L67.906 1.578C50.312-4.89 36.133-13.758 25.375-25.032 14.625-36.311 9.25-47.968 9.25-60c0-12.488 4.395-23.129 13.188-31.922 8.8-8.8 19.44-13.203 31.921-13.203 7.375 0 14.368 1.469 20.985 4.406 6.613 2.93 12.101 6.95 16.469 12.063 4.507-5.114 9.769-9.133 15.78-12.063 6.02-2.937 12.337-4.406 18.954-4.406v-31.578zm0 0"/></symbol></defs><use xlink:href="#b7951c16a" x="42.99951" y="200"/></svg>