<?xml version='1.0' encoding='UTF-8'?>
<svg xmlns="http://www.w3.org/2000/svg" xmlns:xlink="http://www.w3.org/1999/xlink" width="250px" height="250px" viewBox="0 0 250 250" y="0px" x="0px" enable-background="new 0 0 250 250"><defs><symbol overflow="visible" id="7fd65812a"><path d="M147.078-75.125c-2.855 0-5.414-1.05-7.672-3.156-2.25-2.102-3.375-4.582-3.375-7.438 0-2.707 1.125-5.113 3.375-7.219 2.258-2.101 4.817-3.156 7.672-3.156 3.313 0 6.055 1.055 8.234 3.156 2.188 2.106 3.282 4.512 3.282 7.22 0 2.855-1.094 5.335-3.281 7.437-2.18 2.105-4.922 3.156-8.235 3.156zM-2.938-136.703v-13.531h167.844v13.53h-45.344v37.673H68.578c-2.105 0-3.914.605-5.422 1.812-1.5 1.2-2.25 2.547-2.25 4.047 0 4.219 2.817 9.527 8.453 15.922 5.645 6.387 10.348 9.578 14.11 9.578 3.457 0 8.226-1.238 14.312-3.719 6.094-2.488 10.867-3.734 14.328-3.734 6.164 0 11.47 2.371 15.907 7.11 4.437 4.742 6.656 10.417 6.656 17.03 0 13.243-4.438 24.56-13.313 33.954-8.867 9.398-19.464 14.093-31.796 14.093-14.438 0-29.329-6.05-44.672-18.156-15.344-12.101-29.032-28.61-41.063-49.515l12.188-9.016c10.976 19.094 23.007 34.133 36.093 45.11 13.082 10.98 25.567 16.468 37.453 16.468 8.114 0 15.141-3.191 21.079-9.578 5.945-6.395 8.921-14.18 8.921-23.36 0-2.406-.757-4.507-2.265-6.312-1.5-1.8-3.23-2.703-5.188-2.703-3.46 0-8.234 1.242-14.328 3.719-6.086 2.48-10.855 3.718-14.312 3.718-6.168 0-13.953-5.109-23.36-15.328-9.398-10.226-14.093-18.656-14.093-25.28 0-5.407 2.18-9.99 6.547-13.75 4.363-3.759 9.703-5.641 16.015-5.641h35.875v-24.141zm0 0"/></symbol></defs><use xlink:href="#7fd65812a" x="44.12744" y="200"/></svg>