<?xml version='1.0' encoding='UTF-8'?>
<svg xmlns="http://www.w3.org/2000/svg" xmlns:xlink="http://www.w3.org/1999/xlink" width="250px" height="250px" viewBox="0 0 250 250" y="0px" x="0px" enable-background="new 0 0 250 250"><defs><symbol overflow="visible" id="42da6d47a"><path d="M91.594-13.531c11.27 0 22.02-3.192 32.25-9.578 10.226-6.395 18.5-15.235 24.812-26.516v-11.953c-3.906 3.46-7.93 6.09-12.062 7.89-4.137 1.805-8.086 2.704-11.844 2.704-10.074 0-18.61-3.157-25.61-9.47-6.992-6.32-10.484-13.913-10.484-22.78 0-9.032 3.492-16.704 10.485-23.016 7-6.313 15.535-9.469 25.609-9.469 3.758 0 7.29.414 10.594 1.235 3.312.824 6.25 1.914 8.812 3.265v15.125c-3.918-1.351-7.531-2.441-10.844-3.265-3.304-.832-6.156-1.25-8.562-1.25-5.867 0-10.867 1.695-15 5.078-4.137 3.386-6.203 7.484-6.203 12.297 0 4.812 2.066 8.875 6.203 12.187 4.133 3.305 9.133 4.953 15 4.953 3.156 0 6.8-1.05 10.938-3.156 4.132-2.102 8.457-5.035 12.968-8.797v-58.656H66.094v33.156c0 9.625-2.672 17.79-8.016 24.484-5.336 6.688-11.683 10.032-19.047 10.032-1.355 0-2.71-.149-4.062-.453-1.356-.301-2.485-.676-3.39-1.125 6.163 17.293 14.773 31.132 25.827 41.515C68.47-18.719 79.863-13.53 91.594-13.53zM-2.937-136.703v-13.531h192.203v13.53H163.78V0h-15.125v-30c-6.617 9.324-14.965 16.656-25.047 22-10.074 5.336-20.746 8-32.015 8-17.45 0-34.106-9.207-49.969-27.625-15.867-18.426-27.71-42.227-35.531-71.406l11.953-6.094c2.258 6.469 5.305 11.586 9.14 15.344 3.833 3.761 7.782 5.64 11.844 5.64 3.457 0 6.313-1.879 8.563-5.64 2.258-3.758 3.39-8.348 3.39-13.766v-33.156zm0 0"/></symbol></defs><use xlink:href="#42da6d47a" x="31.9458" y="200"/></svg>