<?xml version='1.0' encoding='UTF-8'?>
<svg xmlns="http://www.w3.org/2000/svg" xmlns:xlink="http://www.w3.org/1999/xlink" width="250px" height="250px" viewBox="0 0 250 250" y="0px" x="0px" enable-background="new 0 0 250 250"><defs><symbol overflow="visible" id="42da6d47a"><path d="M85.64-12.656c10.551 0 20.61-2.989 30.172-8.969 9.563-5.977 17.297-14.238 23.204-24.781v-11.188c-3.657 3.242-7.422 5.703-11.297 7.39-3.867 1.688-7.555 2.532-11.063 2.532-9.43 0-17.414-2.953-23.953-8.86-6.531-5.906-9.797-13.007-9.797-21.312 0-8.437 3.266-15.61 9.797-21.515 6.54-5.907 14.524-8.86 23.953-8.86 3.508 0 6.813.39 9.906 1.172 3.094.774 5.836 1.79 8.235 3.047v14.14c-3.656-1.269-7.031-2.288-10.125-3.062-3.094-.77-5.766-1.156-8.016-1.156-5.492 0-10.168 1.586-14.031 4.75-3.867 3.156-5.797 6.984-5.797 11.484s1.93 8.297 5.797 11.39c3.863 3.095 8.54 4.641 14.031 4.641 2.946 0 6.352-.984 10.219-2.953 3.875-1.968 7.922-4.707 12.14-8.218v-54.844H61.814v31c0 9-2.5 16.633-7.5 22.89-4.993 6.262-10.93 9.391-17.813 9.391a17.57 17.57 0 0 1-3.813-.422c-1.261-.281-2.312-.633-3.156-1.062 5.77 16.18 13.82 29.12 24.157 38.828 10.332 9.7 20.984 14.547 31.953 14.547zM-2.75-127.828v-12.656h179.734v12.656h-23.843V0h-14.125v-28.063c-6.188 8.72-13.996 15.579-23.422 20.579C106.176-2.492 96.19 0 85.64 0 69.328 0 53.754-8.613 38.92-25.844 24.087-43.07 13.017-65.328 5.704-92.609l11.172-5.688c2.113 6.043 4.96 10.824 8.547 14.344 3.582 3.512 7.273 5.266 11.078 5.266 3.227 0 5.895-1.754 8-5.266 2.113-3.52 3.172-7.813 3.172-12.875v-31zm0 0"/></symbol></defs><use xlink:href="#42da6d47a" x="37.98828" y="190.5"/></svg>