<?xml version='1.0' encoding='UTF-8'?>
<svg xmlns="http://www.w3.org/2000/svg" xmlns:xlink="http://www.w3.org/1999/xlink" width="250px" height="250px" viewBox="0 0 250 250" y="0px" x="0px" enable-background="new 0 0 250 250"><defs><symbol overflow="visible" id="c4728daba"><path d="M57.969-43.531c7.82 0 15.226-2.14 22.218-6.422 7-4.29 12.602-10.195 16.813-17.719v-69.031H46.016c3.757 4.656 6.691 9.586 8.797 14.781 2.101 5.188 3.156 10.262 3.156 15.219 0 8.719-3.422 16.465-10.266 23.234-6.836 6.774-15.445 11.059-25.828 12.86 1.508 7.824 5.645 14.293 12.406 19.406 6.77 5.117 14.664 7.672 23.688 7.672zm-60.907-93.172v-13.531H137.61v13.53h-25.5V0H97v-46.469c-5.867 5.711-12.148 10.106-18.844 13.188-6.687 3.086-13.418 4.625-20.187 4.625-14.438 0-26.809-5.223-37.11-15.672C10.566-54.773 5.422-67.52 5.422-82.562c11.426 0 20.52-2.22 27.281-6.657 6.77-4.437 10.156-10.265 10.156-17.484 0-4.813-1.28-9.813-3.843-15-2.555-5.188-6.235-10.188-11.047-15zm0 0"/></symbol></defs><use xlink:href="#c4728daba" x="57.77539" y="200"/></svg>