<?xml version='1.0' encoding='UTF-8'?>
<svg xmlns="http://www.w3.org/2000/svg" xmlns:xlink="http://www.w3.org/1999/xlink" width="250px" height="250px" viewBox="0 0 250 250" y="0px" x="0px" enable-background="new 0 0 250 250"><defs><symbol overflow="visible" id="360bd641a"><path d="M-2.938-136.703v-13.531H146.86v13.53h-25.5V0H106.25v-54.14c-6.012 8.417-12.555 15.03-19.625 19.843-7.074 4.813-13.992 7.219-20.75 7.219-10.086 0-18.621-3.492-25.61-10.485-6.992-6.988-10.484-15.523-10.484-25.609 0-7.219 1.426-13.758 4.282-19.625 2.851-5.863 6.914-10.297 12.187-13.297H2.703v-15.125H91.36v15.125H70.391c-7.68 2.856-13.887 7.25-18.625 13.188-4.73 5.937-7.094 12.515-7.094 19.734 0 5.875 2.066 10.883 6.203 15.016 4.133 4.136 9.133 6.203 15 6.203 6.313 0 13.078-3.117 20.297-9.36 7.219-6.25 13.91-14.71 20.078-25.39v-60zm0 0"/></symbol></defs><use xlink:href="#360bd641a" x="53.15088" y="200"/></svg>