<?xml version='1.0' encoding='UTF-8'?>
<svg xmlns="http://www.w3.org/2000/svg" xmlns:xlink="http://www.w3.org/1999/xlink" width="250px" height="250px" viewBox="0 0 250 250" y="0px" x="0px" enable-background="new 0 0 250 250"><defs><symbol overflow="visible" id="1bc72012a"><path d="M89.11-18.047c5.257-1.05 9.581-3.644 12.968-7.781 3.383-4.133 5.078-9.063 5.078-14.781 0-4.207-1.433-7.739-4.297-10.594-2.855-2.863-6.386-4.297-10.593-4.297-3.762 0-6.961 1.281-9.594 3.844-2.625 2.554-3.938 5.789-3.938 9.703 0 4.812.899 9.289 2.704 13.422 1.8 4.136 4.359 7.633 7.671 10.484zM-2.938-136.703v-13.531h136.703v13.53H102.64v45.11H44.219c-5.418 0-10.043 2.336-13.875 7-3.836 4.656-5.75 10.297-5.75 16.922 0 11.73 5.222 22.934 15.672 33.61C50.723-23.383 62.039-17.52 74.219-16.47c-3.461-2.851-6.094-6.535-7.906-11.047-1.805-4.52-2.704-9.332-2.704-14.437 0-7.82 2.817-14.55 8.453-20.188 5.645-5.644 12.38-8.468 20.204-8.468 8.125 0 15.156 2.976 21.093 8.921 5.938 5.938 8.907 12.965 8.907 21.079 0 10.375-4.704 19.25-14.11 26.625C98.758-6.617 87.446-2.938 74.22-2.938c-16.094 0-30.871-6.765-44.328-20.296C16.43-36.766 9.703-51.578 9.703-67.672c0-10.832 3.344-20.047 10.031-27.64 6.696-7.594 14.86-11.391 24.485-11.391H87.75v-30zm0 0"/></symbol></defs><use xlink:href="#1bc72012a" x="59.69287" y="200"/></svg>