<?xml version='1.0' encoding='UTF-8'?>
<svg xmlns="http://www.w3.org/2000/svg" xmlns:xlink="http://www.w3.org/1999/xlink" width="250px" height="250px" viewBox="0 0 250 250" y="0px" x="0px" enable-background="new 0 0 250 250"><defs><symbol overflow="visible" id="360bd641a"><path d="M-2.75-127.828v-12.656h140.078v12.656h-23.844V0H99.36v-50.625C93.734-42.75 87.613-36.562 81-32.062c-6.605 4.5-13.074 6.75-19.406 6.75-9.418 0-17.399-3.27-23.938-9.813-6.543-6.54-9.812-14.52-9.812-23.938 0-6.75 1.332-12.863 4-18.343 2.676-5.489 6.476-9.64 11.406-12.453H2.531V-104h82.906v14.14H65.814c-7.168 2.669-12.97 6.782-17.407 12.344-4.43 5.555-6.64 11.704-6.64 18.454 0 5.48 1.93 10.156 5.797 14.03 3.874 3.868 8.55 5.798 14.03 5.798 5.907 0 12.235-2.914 18.985-8.75 6.75-5.844 13.008-13.754 18.781-23.735v-56.11zm0 0"/></symbol></defs><use xlink:href="#360bd641a" x="57.81641" y="190.5"/></svg>