<?xml version='1.0' encoding='UTF-8'?>
<svg xmlns="http://www.w3.org/2000/svg" xmlns:xlink="http://www.w3.org/1999/xlink" width="250px" height="250px" viewBox="0 0 250 250" y="0px" x="0px" enable-background="new 0 0 250 250"><defs><symbol overflow="visible" id="ac8a3910a"><path d="M55.688-37.969c7.03 0 14.343-2.176 21.937-6.531 7.594-4.363 14.766-10.625 21.516-18.781v-64.547H34.594c-3.094 1.687-5.524 4.078-7.282 7.172-1.75 3.094-2.625 6.328-2.625 9.703 0 5.062 2.352 9.387 7.063 12.969 4.707 3.586 10.297 5.375 16.766 5.375h18.359l4.219 12.453H58.438c-8.024 0-14.95 2.074-20.782 6.219-5.836 4.148-8.75 9.105-8.75 14.874 0 5.907 2.633 10.903 7.907 14.985 5.269 4.074 11.562 6.11 18.874 6.11zm-58.438-89.86v-12.655h139.86v12.656H113.28V0h-14.14v-44.938c-6.75 6.75-13.922 11.954-21.516 15.61-7.594 3.656-14.906 5.484-21.938 5.484-11.25 0-20.851-3.406-28.796-10.218-7.938-6.82-11.907-15.157-11.907-25 0-5.063 1.332-9.844 4-14.344 2.676-4.5 6.473-8.086 11.391-10.766-6.043-2.101-10.824-5.648-14.344-10.64-3.511-5-5.265-10.38-5.265-16.141 0-2.813.593-5.66 1.78-8.547 1.196-2.883 2.923-5.66 5.173-8.328zm0 0"/></symbol></defs><use xlink:href="#ac8a3910a" x="57.92188" y="190.5"/></svg>