<?xml version='1.0' encoding='UTF-8'?>
<svg xmlns="http://www.w3.org/2000/svg" xmlns:xlink="http://www.w3.org/1999/xlink" width="250px" height="250px" viewBox="0 0 250 250" y="0px" x="0px" enable-background="new 0 0 250 250"><defs><symbol overflow="visible" id="49bbd671a"><path d="M81.219-2.75c-14.774 0-29.153-5.586-43.14-16.766C24.085-30.69 12.733-45.703 4.015-64.546l11.171-7.173c7.876 16.73 17.754 30.055 29.641 39.969 11.883 9.918 24.016 14.875 36.39 14.875 7.594 0 14.165-2.879 19.72-8.64 5.55-5.77 8.328-12.735 8.328-20.891 0-2.25-.704-4.219-2.11-5.907-1.406-1.687-3.023-2.53-4.844-2.53-3.093 0-7.351.948-12.765 2.843-5.418 1.898-9.602 2.844-12.547 2.844-7.18 0-15.059-4.5-23.64-13.5-8.575-9-12.86-17.157-12.86-24.469 0-5.063 1.754-9.348 5.266-12.86 3.52-3.519 7.812-5.28 12.875-5.28h37.968v-22.563H-2.75v-12.656h138.594v12.656H110.75v36.484H58.64c-1.124 0-2.109.422-2.953 1.266-.843.844-1.265 1.828-1.265 2.953 0 3.938 2.812 8.898 8.437 14.875 5.625 5.98 10.336 8.969 14.141 8.969 2.945 0 7.129-.91 12.547-2.735 5.414-1.832 9.672-2.75 12.766-2.75 5.757 0 10.71 2.184 14.859 6.547 4.156 4.356 6.234 9.625 6.234 15.813 0 12.093-4.152 22.398-12.453 30.906C102.66-7 92.75-2.75 81.22-2.75zm0 0"/></symbol></defs><use xlink:href="#49bbd671a" x="58.44922" y="190.5"/></svg>