<?xml version='1.0' encoding='UTF-8'?>
<svg xmlns="http://www.w3.org/2000/svg" xmlns:xlink="http://www.w3.org/1999/xlink" width="250px" height="250px" viewBox="0 0 250 250" y="0px" x="0px" enable-background="new 0 0 250 250"><defs><symbol overflow="visible" id="ddcaa179a"><path d="M63.281-28.063c-13.355 0-25.234-4.64-35.64-13.921-10.407-9.282-16.809-21.02-19.203-35.22 1.55.563 3.906.919 7.062 1.063 3.164.137 7.844.204 14.031.204 10.125 0 18.739-2.88 25.844-8.641 7.102-5.77 10.656-12.664 10.656-20.688 0-7.03-2.219-13.004-6.656-17.921-4.43-4.926-9.734-7.391-15.922-7.391-5.344 0-9.95 1.48-13.812 4.437-3.868 2.95-5.797 6.606-5.797 10.97 0 3.51 1.648 6.5 4.953 8.968 3.3 2.46 7.273 3.687 11.922 3.687v14.125c-9.282 0-16.735-2.457-22.36-7.375-5.625-4.925-8.437-11.394-8.437-19.406 0-8.02 3.265-14.945 9.797-20.781 6.539-5.832 14.453-8.75 23.734-8.75 10.125 0 18.77 3.836 25.938 11.5 7.175 7.656 10.765 16.969 10.765 27.937 0 11.961-5.062 22.196-15.187 30.704-10.125 8.5-22.43 12.75-36.906 12.75 2.812 6.054 7.414 10.84 13.812 14.359 6.395 3.512 13.531 5.266 21.406 5.266 7.594 0 15.43-2.317 23.516-6.954 8.094-4.644 15.656-11.187 22.687-19.625v-59.062H95.563v-12.656h51.89v12.656H123.61V0h-14.125v-50.625c-7.03 7.168-14.593 12.719-22.687 16.656-8.086 3.938-15.922 5.907-23.516 5.907zm0 0"/></symbol></defs><use xlink:href="#ddcaa179a" x="52.75391" y="190.5"/></svg>