<?xml version='1.0' encoding='UTF-8'?>
<svg xmlns="http://www.w3.org/2000/svg" xmlns:xlink="http://www.w3.org/1999/xlink" width="250px" height="250px" viewBox="0 0 250 250" y="0px" x="0px" enable-background="new 0 0 250 250"><defs><symbol overflow="visible" id="c6ea405ea"><path d="M110.328-46.406c5.344-3.657 9.488-8.223 12.438-13.703 2.957-5.489 4.437-11.188 4.437-17.094 0-4.363-1.621-8.02-4.86-10.969-3.23-2.957-7.234-4.437-12.015-4.437-4.219 0-7.844 1.62-10.875 4.859-3.023 3.23-4.531 7.168-4.531 11.813 0 5.906 1.367 11.464 4.11 16.671 2.75 5.2 6.515 9.485 11.296 12.86zM65.391-21.094c6.05 0 12.062-1.191 18.03-3.578 5.977-2.394 11.712-5.844 17.204-10.344-6.469-6.468-11.36-13.218-14.672-20.25C82.648-62.296 81-69.188 81-75.938c0-7.738 2.07-14.523 6.219-20.359 4.156-5.832 9.535-9.312 16.14-10.437v-21.094h-67.5c-3.511 2.95-6.25 6.25-8.218 9.906-1.97 3.656-2.953 7.387-2.953 11.188 0 5.48 2.492 10.12 7.484 13.921C37.16-89.02 43.102-87.124 50-87.124h15.39v14.14H54.22c-6.188 0-11.5 2.606-15.938 7.813-4.43 5.2-6.64 11.453-6.64 18.766 0 7.031 3.3 13.011 9.906 17.937 6.613 4.918 14.562 7.375 23.844 7.375zm0 14.125c-13.075 0-24.29-3.828-33.641-11.484-9.355-7.664-14.031-16.985-14.031-27.953 0-6.75 1.367-12.973 4.11-18.672 2.75-5.695 6.515-10.234 11.296-13.61-6.898-3.093-12.352-7.171-16.36-12.234-4-5.062-6-10.332-6-15.812 0-4.645.735-8.864 2.204-12.657 1.476-3.8 3.554-6.613 6.234-8.437H-2.75v-12.656h155.266v12.656H117.5v21.094c6.883 1.261 12.578 4.671 17.078 10.234 4.5 5.555 6.75 11.984 6.75 19.297 0 16.45-8.195 32.266-24.578 47.453C100.375-14.562 83.254-6.969 65.39-6.969zm0 0"/></symbol></defs><use xlink:href="#c6ea405ea" x="50.22266" y="190.5"/></svg>