<?xml version='1.0' encoding='UTF-8'?>
<svg xmlns="http://www.w3.org/2000/svg" xmlns:xlink="http://www.w3.org/1999/xlink" width="250px" height="250px" viewBox="0 0 250 250" y="0px" x="0px" enable-background="new 0 0 250 250"><defs><symbol overflow="visible" id="0dac2c92a"><path d="M-2.75-127.828v-12.656h108.016v12.656H88.39v41.125c0 7.594-1.516 14.242-4.547 19.937-3.024 5.7-7.063 9.25-12.125 10.657l-8.438-9.922c3.375-.977 6.082-3.438 8.125-7.375 2.04-3.938 3.063-8.508 3.063-13.719v-40.703H26.797v53.36c0 3.523.594 6.902 1.781 10.14 1.195 3.23 2.922 5.969 5.172 8.219L82.906-9.922c3.508 3.094 6.25 6.086 8.219 8.969 1.969 2.883 2.953 5.523 2.953 7.922 0 4.218-1.547 8.082-4.64 11.593-3.094 3.52-7.172 6.266-12.235 8.235l-11.172-9.922c3.79-.563 6.848-1.793 9.172-3.688 2.32-1.898 3.484-3.968 3.484-6.218 0-1.274-.46-2.75-1.374-4.438-.918-1.687-2.36-3.445-4.329-5.281l-51.89-47.875c-2.668-2.531-4.742-5.867-6.219-10.016-1.48-4.156-2.219-8.55-2.219-13.187v-54zm0 0"/></symbol></defs><use xlink:href="#0dac2c92a" x="73.74219" y="190.5"/></svg>