<?xml version='1.0' encoding='UTF-8'?>
<svg xmlns="http://www.w3.org/2000/svg" xmlns:xlink="http://www.w3.org/1999/xlink" width="250px" height="250px" viewBox="0 0 250 250" y="0px" x="0px" enable-background="new 0 0 250 250"><defs><symbol overflow="visible" id="b9ebe509a"><path d="M45.984-25.313c-7.312 0-14.699-2.316-22.156-6.953C16.378-36.91 9.773-43.453 4.016-51.89l9.703-9.922c3.937 6.899 8.82 12.387 14.656 16.47 5.832 4.073 11.703 6.109 17.61 6.109 7.312 0 13.6-2.774 18.874-8.328 5.282-5.563 7.922-12.208 7.922-19.938 0-6.469-2.219-12.055-6.656-16.766-4.43-4.718-9.734-7.078-15.922-7.078-4.5 0-8.86.985-13.078 2.953-4.219 1.97-7.805 4.715-10.75 8.235l-9.703-11.188c4.5-4.5 9.629-7.941 15.39-10.328 5.77-2.394 11.817-3.594 18.141-3.594 8.438 0 16.067 2.746 22.89 8.235 6.821 5.48 11.36 12.511 13.61 21.094 1.125 1.406 2.914 2.464 5.375 3.171 2.457.7 5.375 1.047 8.75 1.047 4.082 0 7.813-.457 11.188-1.375 3.375-.914 6.187-2.285 8.437-4.11v-50.624H-2.75v-12.656h161.172v12.656h-23.844V0h-14.125v-61.813c-3.656 1.274-7.172 2.293-10.547 3.063-3.375.773-6.402 1.156-9.078 1.156-2.25 0-4.539-.383-6.86-1.156-2.312-.77-4.734-1.79-7.265-3.063-1.836 10.555-6.586 19.278-14.25 26.172-7.656 6.887-16.48 10.328-26.469 10.328zm0 0"/></symbol></defs><use xlink:href="#b9ebe509a" x="47.26953" y="190.5"/></svg>