<?xml version='1.0' encoding='UTF-8'?>
<svg xmlns="http://www.w3.org/2000/svg" xmlns:xlink="http://www.w3.org/1999/xlink" width="250px" height="250px" viewBox="0 0 250 250" y="0px" x="0px" enable-background="new 0 0 250 250"><defs><symbol overflow="visible" id="8af80567a"><path d="M-2.938-136.703v-13.531h128.594v13.53H99.937V0h-14.89v-48.047c-4.063 4.813-8.84 8.54-14.328 11.172-5.492 2.625-11.242 3.938-17.25 3.938-12.492 0-23.137-3.985-31.938-11.954-8.793-7.968-13.187-17.52-13.187-28.656 0-11.27 4.394-20.851 13.187-28.75 8.801-7.894 19.446-11.844 31.938-11.844 3.601 0 7.054.493 10.36 1.47 3.312.968 6.398 2.507 9.265 4.609l-7.672 11.968c-1.805-1.351-3.684-2.441-5.64-3.265-1.962-.832-4.063-1.25-6.313-1.25-8.274 0-15.34 2.632-21.203 7.89-5.868 5.262-8.797 11.653-8.797 19.172 0 6.918 2.93 12.899 8.797 17.938 5.863 5.043 12.93 7.562 21.203 7.562 5.863 0 11.578-1.988 17.14-5.969 5.563-3.988 10.375-9.52 14.438-16.593v-66.094zm0 0"/></symbol></defs><use xlink:href="#8af80567a" x="63.75342" y="200"/></svg>