<?xml version='1.0' encoding='UTF-8'?>
<svg xmlns="http://www.w3.org/2000/svg" xmlns:xlink="http://www.w3.org/1999/xlink" width="250px" height="250px" viewBox="0 0 250 250" y="0px" x="0px" enable-background="new 0 0 250 250"><defs><symbol overflow="visible" id="ddcaa179a"><path d="M67.672-30C53.39-30 40.68-34.96 29.547-44.89 18.422-54.817 11.582-67.376 9.03-82.563c1.645.605 4.16.98 7.547 1.124 3.383.149 8.383.22 15 .22 10.832 0 20.047-3.079 27.64-9.235 7.594-6.164 11.391-13.535 11.391-22.11 0-7.519-2.37-13.91-7.109-19.171-4.742-5.27-10.418-7.907-17.031-7.907-5.711 0-10.637 1.586-14.782 4.75-4.136 3.157-6.203 7.063-6.203 11.72 0 3.76 1.766 6.96 5.297 9.593 3.54 2.625 7.79 3.937 12.75 3.937v15.125c-9.918 0-17.886-2.629-23.906-7.89-6.012-5.27-9.016-12.192-9.016-20.766 0-8.57 3.493-15.976 10.485-22.219 6.988-6.238 15.445-9.359 25.375-9.359 10.832 0 20.082 4.102 27.75 12.297 7.664 8.2 11.5 18.164 11.5 29.89 0 12.782-5.418 23.727-16.25 32.829-10.824 9.093-23.98 13.64-39.469 13.64 3.008 6.469 7.938 11.586 14.781 15.344 6.844 3.75 14.473 5.625 22.89 5.625 8.126 0 16.509-2.477 25.157-7.438 8.645-4.957 16.727-11.953 24.25-20.984v-63.156h-14.89v-13.531h55.5v13.53h-25.5V0h-15.11v-54.14c-7.523 7.667-15.605 13.609-24.25 17.828C84.18-32.102 75.797-30 67.672-30zm0 0"/></symbol></defs><use xlink:href="#ddcaa179a" x="47.73682" y="200"/></svg>