<?xml version='1.0' encoding='UTF-8'?>
<svg xmlns="http://www.w3.org/2000/svg" xmlns:xlink="http://www.w3.org/1999/xlink" width="250px" height="250px" viewBox="0 0 250 250" y="0px" x="0px" enable-background="new 0 0 250 250"><defs><symbol overflow="visible" id="70bcc3f3a"><path d="M-2.938-136.703v-13.531h119.563v13.53H90.453v39.032h-54.14c-2.407 0-4.512.606-6.313 1.813-1.805 1.199-2.703 2.62-2.703 4.265 0 3.168 3.191 7.95 9.578 14.344 6.395 6.387 11.242 9.578 14.547 9.578 3.312 0 8.273-1.238 14.89-3.719 6.626-2.488 11.665-3.734 15.126-3.734 5.718 0 10.644 2.523 14.78 7.563 4.134 5.042 6.204 11.023 6.204 17.937 0 12.48-3.805 23.121-11.406 31.922C83.422-8.91 74.21-4.516 63.39-4.516 67.148.898 72.188 6.016 78.5 10.828c6.32 4.813 13.77 9.25 22.344 13.313L93.39 36.094c-10.825-6.168-20.297-12.711-28.422-19.625C56.844 9.55 50.3 2.555 45.344-4.516c-10.074 0-18.61-1.914-25.61-5.75C12.742-14.098 9.25-18.723 9.25-24.14c0-4.062 1.46-7.554 4.39-10.484 2.938-2.938 6.508-4.406 10.72-4.406 5.718 0 11.394 1.996 17.03 5.984 5.645 3.98 10.5 9.508 14.563 16.578 8.563 0 15.926-3.27 22.094-9.812 6.164-6.54 9.25-14.32 9.25-23.344 0-2.707-.563-5.113-1.688-7.219C84.484-58.945 83.094-60 81.438-60c-3.461 0-8.5 1.242-15.126 3.719-6.617 2.48-11.574 3.718-14.874 3.718-6.47 0-14.668-4.921-24.594-14.765-9.93-9.852-14.89-17.942-14.89-24.266 0-5.863 2.405-10.82 7.218-14.875 4.812-4.062 10.601-6.094 17.375-6.094H74v-24.14zm0 0"/></symbol></defs><use xlink:href="#70bcc3f3a" x="68.26514" y="200"/></svg>