<?xml version='1.0' encoding='UTF-8'?>
<svg xmlns="http://www.w3.org/2000/svg" xmlns:xlink="http://www.w3.org/1999/xlink" width="250px" height="250px" viewBox="0 0 250 250" y="0px" x="0px" enable-background="new 0 0 250 250"><defs><symbol overflow="visible" id="0e2ff7a0a"><path d="M-2.75-127.828v-12.656h116.875v12.656H91.547v33.75H33.969c-1.836 0-3.453.422-4.86 1.266C27.703-91.97 27-90.984 27-89.86c0 3.793 1.406 7.449 4.219 10.968 2.812 3.512 6.539 6.391 11.187 8.641 2.946-1.258 6.211-2.273 9.797-3.047 3.594-.781 7.36-1.172 11.297-1.172 10.54 0 19.504 2.992 26.89 8.969 7.383 5.98 11.079 13.328 11.079 22.047 0 4.781-.985 9.18-2.953 13.187-1.97 4-4.782 7.059-8.438 9.172l-11.187-9.703c2.675-1.55 4.75-3.453 6.218-5.703 1.477-2.25 2.22-4.566 2.22-6.953 0-4.781-2.325-8.785-6.97-12.016-4.636-3.238-10.257-4.86-16.859-4.86-10.125 0-18.742 2.325-25.844 6.97C30.551-48.723 27-43.102 27-36.5c0 8.586 6.047 15.867 18.14 21.844 12.094 5.969 26.65 8.953 43.672 8.953L85.86 6.969c-20.117 0-37.308-4.258-51.578-12.766C20.008-14.305 12.875-24.539 12.875-36.5c0-5.477 1.367-10.61 4.11-15.39 2.738-4.782 6.5-8.579 11.28-11.391-4.78-4.082-8.542-8.442-11.28-13.078-2.743-4.645-4.11-9.145-4.11-13.5 0-5.063 2.07-9.383 6.219-12.97 4.144-3.593 9.101-5.39 14.875-5.39h43.656v-19.61zm0 0"/></symbol></defs><use xlink:href="#0e2ff7a0a" x="69.41797" y="190.5"/></svg>