<?xml version='1.0' encoding='UTF-8'?>
<svg xmlns="http://www.w3.org/2000/svg" xmlns:xlink="http://www.w3.org/1999/xlink" width="250px" height="250px" viewBox="0 0 250 250" y="0px" x="0px" enable-background="new 0 0 250 250"><defs><symbol overflow="visible" id="8af80567a"><path d="M-2.75-127.828v-12.656H117.5v12.656H93.453V0H79.531v-44.938c-3.804 4.5-8.273 7.985-13.406 10.454C61-32.024 55.625-30.797 50-30.797c-11.68 0-21.633-3.723-29.86-11.172-8.218-7.457-12.328-16.39-12.328-26.797 0-10.55 4.11-19.515 12.329-26.89 8.226-7.383 18.18-11.078 29.859-11.078 3.375 0 6.61.46 9.703 1.375 3.094.906 5.973 2.343 8.64 4.312l-7.171 11.188a24.853 24.853 0 0 0-5.281-3.063c-1.825-.77-3.79-1.156-5.891-1.156-7.742 0-14.355 2.465-19.844 7.39-5.48 4.918-8.218 10.891-8.218 17.922 0 6.47 2.738 12.059 8.218 16.766 5.489 4.71 12.102 7.063 19.844 7.063 5.477 0 10.816-1.86 16.016-5.579 5.207-3.726 9.71-8.898 13.515-15.515v-61.797zm0 0"/></symbol></defs><use xlink:href="#8af80567a" x="67.73047" y="190.5"/></svg>