<?xml version='1.0' encoding='UTF-8'?>
<svg xmlns="http://www.w3.org/2000/svg" xmlns:xlink="http://www.w3.org/1999/xlink" width="250px" height="250px" viewBox="0 0 250 250" y="0px" x="0px" enable-background="new 0 0 250 250"><defs><symbol overflow="visible" id="c6ea405ea"><path d="M117.984-49.625c5.707-3.914 10.141-8.805 13.297-14.672 3.164-5.863 4.75-11.953 4.75-18.266 0-4.664-1.73-8.578-5.187-11.734-3.461-3.156-7.746-4.734-12.86-4.734-4.511 0-8.386 1.73-11.625 5.187-3.23 3.461-4.843 7.668-4.843 12.625 0 6.324 1.46 12.266 4.39 17.828 2.938 5.563 6.961 10.153 12.078 13.766zM69.938-22.562c6.457 0 12.882-1.274 19.28-3.829 6.395-2.562 12.524-6.25 18.391-11.062-6.918-6.914-12.148-14.133-15.687-21.656C88.39-66.63 86.625-74 86.625-81.22c0-8.27 2.219-15.523 6.656-21.765 4.438-6.239 10.188-9.957 17.25-11.157v-22.562H38.344c-3.762 3.156-6.696 6.695-8.797 10.61-2.106 3.906-3.156 7.89-3.156 11.952 0 5.868 2.664 10.829 8 14.891 5.343 4.055 11.703 6.078 19.078 6.078h16.468v15.125H57.97c-6.617 0-12.293 2.781-17.032 8.344-4.73 5.562-7.093 12.258-7.093 20.078 0 7.523 3.531 13.914 10.593 19.172 7.07 5.262 15.57 7.89 25.5 7.89zm0 15.125c-13.993 0-25.985-4.098-35.985-12.297-10-8.196-15-18.16-15-29.891 0-7.219 1.461-13.875 4.39-19.969 2.938-6.094 6.962-10.941 12.079-14.547-7.375-3.312-13.211-7.671-17.5-13.078-4.281-5.414-6.422-11.054-6.422-16.922 0-4.968.79-9.476 2.375-13.53 1.582-4.063 3.8-7.071 6.656-9.032H-2.937v-13.531h166.03v13.53h-37.437v22.563c7.364 1.356 13.453 5 18.266 10.938 4.812 5.937 7.219 12.82 7.219 20.64 0 17.594-8.762 34.516-26.282 50.766-17.523 16.242-35.828 24.36-54.921 24.36zm0 0"/></symbol></defs><use xlink:href="#c6ea405ea" x="45.02979" y="200"/></svg>