<?xml version='1.0' encoding='UTF-8'?>
<svg xmlns="http://www.w3.org/2000/svg" xmlns:xlink="http://www.w3.org/1999/xlink" width="250px" height="250px" viewBox="0 0 250 250" y="0px" x="0px" enable-background="new 0 0 250 250"><defs><symbol overflow="visible" id="16bdd07aa"><path d="M46.625-59.063c5.477 0 10.676-1.332 15.594-4 4.926-2.675 9.078-6.476 12.453-11.406v-53.36h-49.14v49.141c0 5.493 2.07 10.137 6.218 13.938 4.145 3.793 9.102 5.688 14.875 5.688zM11.609-78.686v-49.141H-2.75v-12.656h168.969v12.656H88.813v39.437c3.656-4.5 8.082-7.976 13.28-10.437 5.208-2.457 10.626-3.688 16.25-3.688 9.696 0 17.958 3.836 24.782 11.5 6.82 7.657 10.234 16.903 10.234 27.735 0 8.437-1.586 16.734-4.75 24.89-3.168 8.157-7.703 15.82-13.609 22.985l-12.438-7.172c5.344-5.344 9.454-11.531 12.329-18.563 2.882-7.03 4.328-14.41 4.328-22.14 0-6.895-2.043-12.801-6.125-17.719-4.074-4.926-8.992-7.39-14.75-7.39-4.93 0-9.961 1.445-15.094 4.328-5.125 2.886-9.938 7-14.438 12.343V0h-14.14v-56.11c-3.512 3.512-7.695 6.25-12.547 8.22-4.855 1.968-10.023 2.953-15.5 2.953-9.71 0-17.977-3.266-24.797-9.797-6.812-6.54-10.219-14.524-10.219-23.953zm0 0"/></symbol></defs><use xlink:href="#16bdd07aa" x="43.36719" y="190.5"/></svg>