<?xml version='1.0' encoding='UTF-8'?>
<svg xmlns="http://www.w3.org/2000/svg" xmlns:xlink="http://www.w3.org/1999/xlink" width="250px" height="250px" viewBox="0 0 250 250" y="0px" x="0px" enable-background="new 0 0 250 250"><defs><symbol overflow="visible" id="70bcc3f3a"><path d="M-2.75-127.828v-12.656h111.813v12.656h-24.47v36.484H33.97c-2.25 0-4.219.563-5.907 1.688-1.687 1.125-2.53 2.465-2.53 4.015 0 2.95 2.984 7.414 8.952 13.391 5.977 5.98 10.516 8.969 13.61 8.969 3.093 0 7.734-1.16 13.922-3.485 6.187-2.32 10.898-3.484 14.14-3.484 5.344 0 9.946 2.36 13.813 7.078 3.863 4.711 5.797 10.297 5.797 16.766 0 11.668-3.555 21.617-10.657 29.843C78.016-8.332 69.406-4.219 59.281-4.219 62.79.844 67.5 5.625 73.406 10.125c5.906 4.5 12.867 8.648 20.89 12.453L87.329 33.75C77.203 27.988 68.344 21.875 60.75 15.406 53.156 8.937 47.04 2.395 42.406-4.219c-9.43 0-17.414-1.789-23.953-5.375-6.531-3.594-9.797-7.922-9.797-12.984 0-3.79 1.367-7.055 4.11-9.797 2.738-2.75 6.078-4.125 10.015-4.125 5.344 0 10.649 1.867 15.922 5.594 5.281 3.73 9.817 8.898 13.61 15.5 8.019 0 14.91-3.055 20.671-9.172 5.77-6.113 8.657-13.39 8.657-21.828 0-2.532-.532-4.782-1.594-6.75-1.055-1.969-2.352-2.953-3.89-2.953-3.243 0-7.954 1.164-14.141 3.484-6.188 2.313-10.828 3.469-13.922 3.469-6.043 0-13.703-4.602-22.985-13.813-9.28-9.207-13.922-16.765-13.922-22.672 0-5.488 2.25-10.129 6.75-13.921 4.5-3.801 9.91-5.704 16.235-5.704h35.016v-22.562zm0 0"/></symbol></defs><use xlink:href="#70bcc3f3a" x="71.94922" y="190.5"/></svg>