<?xml version='1.0' encoding='UTF-8'?>
<svg xmlns="http://www.w3.org/2000/svg" xmlns:xlink="http://www.w3.org/1999/xlink" width="250px" height="250px" viewBox="0 0 250 250" y="0px" x="0px" enable-background="new 0 0 250 250"><defs><symbol overflow="visible" id="0e2ff7a0a"><path d="M-2.938-136.703v-13.531h124.985v13.53h-24.14v36.095H36.312c-1.95 0-3.68.453-5.188 1.359-1.5.898-2.25 1.95-2.25 3.156 0 4.055 1.504 7.961 4.516 11.719 3.007 3.762 6.992 6.844 11.953 9.25 3.156-1.352 6.648-2.441 10.484-3.266 3.832-.82 7.86-1.234 12.078-1.234 11.281 0 20.864 3.2 28.75 9.594C104.551-63.645 108.5-55.79 108.5-46.47c0 5.117-1.055 9.82-3.156 14.11-2.106 4.28-5.11 7.547-9.016 9.797L84.375-32.938c2.852-1.657 5.066-3.688 6.64-6.094 1.583-2.407 2.376-4.883 2.376-7.438 0-5.113-2.485-9.398-7.454-12.86-4.96-3.456-10.968-5.187-18.03-5.187-10.837 0-20.048 2.485-27.641 7.454-7.594 4.96-11.391 10.968-11.391 18.03 0 9.18 6.46 16.966 19.39 23.36C61.204-9.285 76.77-6.094 94.97-6.094L91.813 7.438c-21.5 0-39.887-4.547-55.157-13.641-15.261-9.102-22.89-20.047-22.89-32.828 0-5.864 1.46-11.352 4.39-16.469 2.938-5.113 6.961-9.172 12.078-12.172-5.117-4.363-9.14-9.023-12.078-13.984-2.93-4.969-4.39-9.781-4.39-14.438 0-5.414 2.218-10.039 6.656-13.875 4.437-3.832 9.734-5.75 15.89-5.75h46.704v-20.984zm0 0"/></symbol></defs><use xlink:href="#0e2ff7a0a" x="65.55811" y="200"/></svg>