<?xml version='1.0' encoding='UTF-8'?>
<svg xmlns="http://www.w3.org/2000/svg" xmlns:xlink="http://www.w3.org/1999/xlink" width="250px" height="250px" viewBox="0 0 250 250" y="0px" x="0px" enable-background="new 0 0 250 250"><defs><symbol overflow="visible" id="3b89e739a"><path d="M-2.938-136.703v-13.531h148.22v13.53H113.25c3 3.462 5.25 7.294 6.75 11.5 1.508 4.212 2.266 8.423 2.266 12.641 0 6.618-1.356 12.594-4.063 17.938-2.71 5.336-6.39 9.355-11.047 12.063 6.469 2.105 11.617 6.464 15.453 13.078 3.832 6.617 5.75 14.289 5.75 23.015 0 11.586-3.984 21.477-11.953 29.672C108.437-8.609 98.883-4.516 87.75-4.516c-15.492 0-30.418-8.156-44.781-24.468-14.356-16.32-26.95-39.22-37.782-68.688l12.188-5.422C27-76.625 37.973-56.094 50.297-41.5 62.629-26.914 75.113-19.625 87.75-19.625c6.914 0 12.895-2.629 17.938-7.89 5.039-5.27 7.562-11.587 7.562-18.954 0-8.27-2.371-15.375-7.11-21.312-4.742-5.946-10.417-8.922-17.03-8.922h-30l-5.876-13.313h32.938c5.863 0 10.828-2.21 14.89-6.64 4.063-4.438 6.094-9.739 6.094-15.906 0-4.22-1.203-8.43-3.61-12.641-2.405-4.207-5.714-8.04-9.921-11.5zm0 0"/></symbol></defs><use xlink:href="#3b89e739a" x="53.82764" y="200"/></svg>