<?xml version='1.0' encoding='UTF-8'?>
<svg xmlns="http://www.w3.org/2000/svg" xmlns:xlink="http://www.w3.org/1999/xlink" width="250px" height="250px" viewBox="0 0 250 250" y="0px" x="0px" enable-background="new 0 0 250 250"><defs><symbol overflow="visible" id="00fea77ca"><path d="M4.219-84.172c0-1.969.984-3.656 2.953-5.062 1.969-1.407 4.289-2.11 6.969-2.11h74.25v-36.484H-2.75v-12.656h129.11v12.656h-23.844V0H88.39v-77.203H47.67c-2.25 0-4.218.562-5.905 1.687-1.688 1.125-2.532 2.391-2.532 3.797v14.125c0 2.25-.703 4.219-2.109 5.907-1.406 1.687-3.023 2.53-4.844 2.53-3.242 0-8.73-4.882-16.468-14.656C8.082-73.582 4.219-80.367 4.219-84.172zm0 0"/></symbol></defs><use xlink:href="#00fea77ca" x="63.30078" y="190.5"/></svg>