<?xml version='1.0' encoding='UTF-8'?>
<svg xmlns="http://www.w3.org/2000/svg" xmlns:xlink="http://www.w3.org/1999/xlink" width="250px" height="250px" viewBox="0 0 250 250" y="0px" x="0px" enable-background="new 0 0 250 250"><defs><symbol overflow="visible" id="0859ec09a"><path d="M73.094-1.578c-15.649 0-30.09-6.727-43.328-20.188C16.536-35.223 9.922-50 9.922-66.094c0-11.582 3.797-21.472 11.39-29.672 7.594-8.195 16.805-12.296 27.641-12.296h37.672v-28.641H-2.938v-13.531H134v13.53h-32.484v43.532H48.953c-6.617 0-12.258 2.672-16.922 8.016-4.656 5.336-6.984 11.687-6.984 19.062 0 12.18 5.035 23.496 15.11 33.953 10.07 10.45 21.05 15.672 32.937 15.672 8.57 0 15.941-3.191 22.11-9.578 6.163-6.394 9.25-14.254 9.25-23.578 0-5.563-1.544-11.238-4.626-17.031-3.086-5.79-7.484-11.094-13.203-15.906l11.953-9.032c6.613 5.574 11.766 12.008 15.453 19.297 3.688 7.293 5.531 14.852 5.531 22.672 0 13.23-4.554 24.547-13.656 33.953C96.812-6.273 85.875-1.578 73.094-1.578zm0 0"/></symbol></defs><use xlink:href="#0859ec09a" x="59.58008" y="200"/></svg>