<?xml version='1.0' encoding='UTF-8'?>
<svg xmlns="http://www.w3.org/2000/svg" xmlns:xlink="http://www.w3.org/1999/xlink" width="250px" height="250px" viewBox="0 0 250 250" y="0px" x="0px" enable-background="new 0 0 250 250"><defs><symbol overflow="visible" id="94f38852a"><path d="M-2.75-127.828v-12.656h163.703v12.656h-74.25v37.969c3.094-5.207 7.238-9.32 12.438-12.344 5.207-3.02 10.906-4.531 17.093-4.531 9 0 16.625 3.695 22.875 11.078 6.258 7.375 9.391 16.34 9.391 26.89 0 9-2.324 17.899-6.969 26.688-4.636 8.781-11.172 16.687-19.61 23.719l-12.655-8.438c7.875-5.476 14.062-11.941 18.562-19.39 4.5-7.458 6.75-14.985 6.75-22.579 0-6.613-1.793-12.238-5.375-16.875-3.586-4.644-7.906-6.968-12.969-6.968-6.468 0-12.484 2.464-18.046 7.39-5.555 4.918-9.383 11.313-11.485 19.188V0H72.781v-42.188c-3.375 3.938-7.492 7.032-12.344 9.282-4.855 2.25-10.093 3.375-15.718 3.375-10.125 0-18.742-3.551-25.844-10.657-7.094-7.101-10.64-15.718-10.64-25.843 0-11.25 4.109-20.844 12.328-28.781 8.226-7.946 18.109-11.922 29.64-11.922 3.375 0 6.29.246 8.75.734 2.469.492 4.266 1.156 5.39 2l-2.75 14.14a18.437 18.437 0 0 0-5.374-2.109c-1.899-.426-3.903-.64-6.016-.64-7.594 0-14.168 2.605-19.719 7.812-5.554 5.2-8.328 11.453-8.328 18.766 0 6.187 2.211 11.5 6.64 15.937 4.427 4.43 9.735 6.64 15.923 6.64 5.343 0 10.547-1.648 15.61-4.952 5.062-3.313 9.21-7.782 12.452-13.407v-66.015zm0 0"/></symbol></defs><use xlink:href="#94f38852a" x="46.00391" y="190.5"/></svg>