<?xml version='1.0' encoding='UTF-8'?>
<svg xmlns="http://www.w3.org/2000/svg" xmlns:xlink="http://www.w3.org/1999/xlink" width="250px" height="250px" viewBox="0 0 250 250" y="0px" x="0px" enable-background="new 0 0 250 250"><defs><symbol overflow="visible" id="ac8a3910a"><path d="M59.563-40.61c7.507 0 15.328-2.328 23.453-6.984 8.125-4.664 15.796-11.36 23.015-20.078v-69.031H37c-3.313 1.805-5.914 4.36-7.797 7.672-1.875 3.304-2.812 6.761-2.812 10.375 0 5.418 2.52 10.043 7.562 13.875 5.04 3.836 11.02 5.75 17.938 5.75h19.625l4.5 13.312H62.484c-8.574 0-15.98 2.219-22.218 6.656-6.243 4.438-9.36 9.735-9.36 15.891 0 6.324 2.817 11.668 8.453 16.031 5.645 4.356 12.38 6.532 20.203 6.532zm-62.5-96.093v-13.531h149.562v13.53h-25.484V0h-15.11v-48.047c-7.219 7.219-14.89 12.79-23.015 16.703-8.125 3.907-15.946 5.86-23.454 5.86-12.03 0-22.296-3.645-30.796-10.938-8.5-7.3-12.75-16.219-12.75-26.75 0-5.406 1.425-10.516 4.28-15.328 2.864-4.813 6.927-8.648 12.188-11.516-6.468-2.25-11.586-6.039-15.343-11.375-3.762-5.343-5.641-11.097-5.641-17.265 0-3.008.64-6.055 1.922-9.14 1.281-3.083 3.125-6.052 5.531-8.907zm0 0"/></symbol></defs><use xlink:href="#ac8a3910a" x="53.26367" y="200"/></svg>