<?xml version='1.0' encoding='UTF-8'?>
<svg xmlns="http://www.w3.org/2000/svg" xmlns:xlink="http://www.w3.org/1999/xlink" width="250px" height="250px" viewBox="0 0 250 250" y="0px" x="0px" enable-background="new 0 0 250 250"><defs><symbol overflow="visible" id="82a5ca07a"><path d="M100.828-64.547c2.113 0 4.719-.488 7.813-1.469 3.093-.988 6.609-2.398 10.546-4.234v-57.578H79.734v33.75h-49.14c-1.836 0-3.453.422-4.86 1.266-1.406.843-2.109 1.828-2.109 2.953 0 3.511 2.11 7.906 6.328 13.187 4.219 5.274 7.735 7.906 10.547 7.906 2.813 0 6.785-.945 11.922-2.843 5.133-1.907 9.11-2.86 11.922-2.86 2.664 0 5.191.39 7.578 1.172 2.394.774 4.578 1.79 6.547 3.047 2.531 1.836 5.726 3.246 9.594 4.234 3.874.98 8.128 1.47 12.765 1.47zM67.078 9.922C60.891 7.109 55.227 3.906 50.094.312c-5.125-3.582-9.73-7.414-13.813-11.5-7.312 0-13.605-1.648-18.875-4.953-5.273-3.3-7.906-7.273-7.906-11.922 0-3.226 1.086-5.894 3.266-8 2.175-2.113 4.882-3.171 8.125-3.171 3.937 0 7.906 1.199 11.906 3.593 4.008 2.387 7.492 5.828 10.453 10.328 8.008-1.406 14.688-4.601 20.031-9.593 5.344-5 8.016-10.66 8.016-16.985 0-2.25-.703-4.218-2.11-5.906-1.406-1.687-3.023-2.531-4.843-2.531-2.813 0-6.79.918-11.922 2.75-5.137 1.824-9.11 2.734-11.922 2.734-5.063 0-11.496-4.394-19.297-13.187C13.398-76.821 9.5-84.098 9.5-89.86c0-5.063 2.07-9.383 6.219-12.97 4.144-3.593 9.101-5.39 14.875-5.39h35.218v-19.61H-2.75v-12.655h159.688v12.656h-23.829V0h-13.922v-56.11a69.86 69.86 0 0 1-9.28 3.063c-3.094.774-6.122 1.156-9.079 1.156-2.668 0-5.266-.242-7.797-.734a45.316 45.316 0 0 1-7.594-2.219c0 10.543-3.093 19.262-9.28 26.157-6.188 6.886-14.84 11.312-25.954 13.28 4.781 3.938 9.176 7.212 13.188 9.813C67.398-2.988 71.02-1.125 74.25 0zm0 0"/></symbol></defs><use xlink:href="#82a5ca07a" x="47.90234" y="190.5"/></svg>