<?xml version='1.0' encoding='UTF-8'?>
<svg xmlns="http://www.w3.org/2000/svg" xmlns:xlink="http://www.w3.org/1999/xlink" width="250px" height="250px" viewBox="0 0 250 250" y="0px" x="0px" enable-background="new 0 0 250 250"><defs><symbol overflow="visible" id="27ee7eb6a"><path d="M39.031-87.078h54.14v-49.625h-54.14zm-41.968-49.625v-13.531h136.703v13.53h-25.703V0H93.171v-72.188h-54.14v10.61c0 2.406-.454 4.512-1.36 6.312-.906 1.805-1.961 2.703-3.156 2.703-3.461 0-9.325-3.757-17.594-11.28-8.274-7.52-12.406-12.782-12.406-15.782 0-1.957.75-3.688 2.25-5.188 1.507-1.507 3.238-2.265 5.187-2.265h12.188v-49.625zm0 0"/></symbol></defs><use xlink:href="#27ee7eb6a" x="59.69287" y="200"/></svg>