<?xml version='1.0' encoding='UTF-8'?>
<svg xmlns="http://www.w3.org/2000/svg" xmlns:xlink="http://www.w3.org/1999/xlink" width="250px" height="250px" viewBox="0 0 250 250" y="0px" x="0px" enable-background="new 0 0 250 250"><defs><symbol overflow="visible" id="e4d0875ca"><path d="M79.531-127.828v-12.656h66.016v12.656h-23.828V0h-14.14v-127.828zM41.562-95.562c4.633 0 8.989-1.407 13.063-4.22 4.082-2.812 7.25-6.534 9.5-11.171-2.105-5.488-4.953-9.922-8.547-13.297-3.586-3.375-7.344-5.063-11.281-5.063-4.637 0-8.61 1.797-11.922 5.391-3.305 3.586-4.953 7.906-4.953 12.969 0 4.355 1.367 8.012 4.11 10.969 2.75 2.949 6.093 4.421 10.03 4.421zM69.61 0L6.547-53.375l6.953-9.906c4.082 3.375 7.316 5.87 9.703 7.484 2.395 1.617 4.297 2.422 5.703 2.422 10.54 0 19.504-4.11 26.89-12.328 7.384-8.227 11.079-18.18 11.079-29.86-2.398 4.368-5.918 7.813-10.563 10.344-4.636 2.531-9.554 3.797-14.75 3.797-7.742 0-14.355-2.914-19.843-8.75-5.48-5.844-8.219-12.77-8.219-20.781 0-9 2.988-16.629 8.969-22.89 5.976-6.259 13.254-9.391 21.828-9.391 10.125 0 18.77 4.68 25.937 14.03C77.41-119.847 81-108.632 81-95.561c0 14.492-4.293 26.796-12.875 36.921-8.574 10.125-18.836 15.188-30.781 15.188L78.047-9.922zm0 0"/></symbol></defs><use xlink:href="#e4d0875ca" x="53.70312" y="190.5"/></svg>