<?xml version='1.0' encoding='UTF-8'?>
<svg xmlns="http://www.w3.org/2000/svg" xmlns:xlink="http://www.w3.org/1999/xlink" width="250px" height="250px" viewBox="0 0 250 250" y="0px" x="0px" enable-background="new 0 0 250 250"><defs><symbol overflow="visible" id="d8a713d9a"><path d="M77.844-81.422v-46.406H28.688zM48.313-56.109c5.757 0 11.171-.844 16.234-2.532 5.062-1.687 9.492-4.148 13.297-7.39l-51.89-47.672v35.016c0 6.187 2.175 11.5 6.53 15.937 4.364 4.43 9.641 6.64 15.828 6.64zM-2.75-127.83v-12.655h118.563v12.656H91.766V0H77.844v-50.625c-3.938 2.813-8.438 4.922-13.5 6.328-5.063 1.406-10.406 2.11-16.031 2.11-10.126 0-18.743-3.551-25.844-10.657-7.106-7.101-10.657-15.718-10.657-25.843v-49.141zm0 0"/></symbol></defs><use xlink:href="#d8a713d9a" x="68.57422" y="190.5"/></svg>