<?xml version='1.0' encoding='UTF-8'?>
<svg xmlns="http://www.w3.org/2000/svg" xmlns:xlink="http://www.w3.org/1999/xlink" width="250px" height="250px" viewBox="0 0 250 250" y="0px" x="0px" enable-background="new 0 0 250 250"><defs><symbol overflow="visible" id="f353bf54a"><path d="M73.313-2.938c-17.45 0-32.34-6.16-44.672-18.484-12.325-12.332-18.485-27.223-18.485-44.672 0-11.281 3.492-20.867 10.485-28.765 6.988-7.895 15.523-11.844 25.609-11.844h40.594v-30H-2.937v-13.531h133.546v13.53h-28.875v45.11H46.25c-5.867 0-10.828 2.485-14.89 7.453-4.063 4.961-6.094 10.977-6.094 18.047 0 13.23 4.695 24.547 14.093 33.953 9.407 9.399 20.723 14.094 33.953 14.094 8.426 0 16.098-1.879 23.016-5.64 6.914-3.758 12.254-8.875 16.016-15.344l11.953 10.375c-4.512 7.824-11.356 14.07-20.531 18.734-9.168 4.656-19.32 6.985-30.454 6.985zm0 0"/></symbol></defs><use xlink:href="#f353bf54a" x="61.27197" y="200"/></svg>