<?xml version='1.0' encoding='UTF-8'?>
<svg xmlns="http://www.w3.org/2000/svg" xmlns:xlink="http://www.w3.org/1999/xlink" width="250px" height="250px" viewBox="0 0 250 250" y="0px" x="0px" enable-background="new 0 0 250 250"><defs><symbol overflow="visible" id="dd14c538a"><path d="M50-54.844c5.758 0 11.172-1.754 16.234-5.265 5.063-3.52 9-8.305 11.813-14.36v-53.36h-51.89v50.626c0 6.187 2.316 11.465 6.952 15.828C37.754-57.02 43.383-54.844 50-54.844zm-37.969-22.36v-50.624H-2.75v-12.656h118.766v12.656H92.187V0h-14.14v-53.375c-4.074 4.086-8.54 7.215-13.39 9.39-4.856 2.18-9.743 3.266-14.657 3.266-10.555 0-19.523-3.547-26.906-10.64-7.375-7.102-11.063-15.72-11.063-25.844zm0 0"/></symbol></defs><use xlink:href="#dd14c538a" x="68.46875" y="190.5"/></svg>