<?xml version='1.0' encoding='UTF-8'?>
<svg xmlns="http://www.w3.org/2000/svg" xmlns:xlink="http://www.w3.org/1999/xlink" width="250px" height="250px" viewBox="0 0 250 250" y="0px" x="0px" enable-background="new 0 0 250 250"><defs><symbol overflow="visible" id="c4728daba"><path d="M54.219-40.719c7.312 0 14.234-2 20.765-6 6.54-4.008 11.782-9.531 15.72-16.562v-64.547H43.03c3.52 4.355 6.266 8.96 8.235 13.812 1.968 4.856 2.953 9.602 2.953 14.235 0 8.156-3.203 15.402-9.61 21.734-6.398 6.324-14.445 10.328-24.14 12.016 1.406 7.312 5.27 13.36 11.593 18.14 6.333 4.782 13.72 7.172 22.157 7.172zm-56.969-87.11v-12.655h131.422v12.656h-23.828V0h-14.14v-43.453c-5.481 5.344-11.352 9.46-17.61 12.344-6.262 2.875-12.555 4.312-18.875 4.312-13.5 0-25.07-4.883-34.703-14.656-9.637-9.77-14.453-21.688-14.453-35.75 10.687 0 19.19-2.07 25.515-6.219 6.332-4.156 9.5-9.61 9.5-16.36 0-4.5-1.2-9.171-3.594-14.015-2.386-4.851-5.828-9.531-10.328-14.031zm0 0"/></symbol></defs><use xlink:href="#c4728daba" x="62.14062" y="190.5"/></svg>