<?xml version='1.0' encoding='UTF-8'?>
<svg xmlns="http://www.w3.org/2000/svg" xmlns:xlink="http://www.w3.org/1999/xlink" width="250px" height="250px" viewBox="0 0 250 250" y="0px" x="0px" enable-background="new 0 0 250 250"><defs><symbol overflow="visible" id="fa205920a"><path d="M58.219-23.844c-10.543 0-19.508-2.914-26.89-8.75C23.94-38.426 20.25-45.352 20.25-53.375c0-5.063.984-9.703 2.953-13.922 1.969-4.219 4.711-7.52 8.235-9.906-7.461-5.207-13.297-11.188-17.516-17.938-4.219-6.75-6.328-13.425-6.328-20.03 0-8.02 2.773-14.946 8.328-20.782 5.562-5.832 12.14-8.75 19.734-8.75 8.008 0 14.473 2.148 19.39 6.437 4.927 4.282 7.392 10.078 7.392 17.391 0 6.188-2.497 11.5-7.485 15.938-4.992 4.43-10.933 6.64-17.828 6.64v-14.14c3.094 0 5.727-.844 7.906-2.532 2.188-1.687 3.282-3.656 3.282-5.906 0-2.531-1.235-4.781-3.704-6.75-2.46-1.969-5.445-2.953-8.953-2.953-3.937 0-7.246 1.48-9.922 4.437-2.668 2.95-4 6.606-4 10.97 0 5.48 1.86 10.823 5.578 16.03 3.727 5.2 8.829 9.7 15.297 13.5 3.094-1.27 6.395-2.289 9.907-3.062 3.52-.77 7.25-1.156 11.187-1.156h8.438l8.437 13.921h-15.39c-8.586 0-15.903 2.215-21.954 6.641-6.043 4.43-9.062 9.734-9.062 15.922 0 4.367 2.351 8.027 7.062 10.984 4.72 2.95 10.38 4.422 16.985 4.422 7.457 0 15.015-2.457 22.672-7.375 7.664-4.926 14.593-11.82 20.78-20.687v-61.797H70.876v-12.656h68.766v12.656h-23.828V0h-14.141v-46.406c-6.043 7.168-12.828 12.718-20.36 16.656-7.523 3.938-15.218 5.906-23.093 5.906zm0 0"/></symbol></defs><use xlink:href="#fa205920a" x="56.65625" y="190.5"/></svg>