<?xml version='1.0' encoding='UTF-8'?>
<svg xmlns="http://www.w3.org/2000/svg" xmlns:xlink="http://www.w3.org/1999/xlink" width="250px" height="250px" viewBox="0 0 250 250" y="0px" x="0px" enable-background="new 0 0 250 250"><defs><symbol overflow="visible" id="f353bf54a"><path d="M68.563-2.75c-16.313 0-30.235-5.766-41.766-17.297C15.266-31.578 9.5-45.5 9.5-61.813c0-10.539 3.266-19.503 9.797-26.89 6.539-7.383 14.523-11.078 23.953-11.078h37.969v-28.047H-2.75v-12.656h124.89v12.656h-27v42.187H43.25c-5.492 0-10.137 2.325-13.938 6.97-3.792 4.636-5.687 10.257-5.687 16.859 0 12.374 4.395 22.96 13.188 31.75 8.789 8.792 19.374 13.187 31.75 13.187 7.874 0 15.046-1.754 21.515-5.266 6.469-3.52 11.457-8.304 14.969-14.359l11.187 9.703c-4.218 7.313-10.62 13.152-19.203 17.516C88.457-4.926 78.97-2.75 68.562-2.75zm0 0"/></symbol></defs><use xlink:href="#f353bf54a" x="65.41016" y="190.5"/></svg>