<?xml version='1.0' encoding='UTF-8'?>
<svg xmlns="http://www.w3.org/2000/svg" xmlns:xlink="http://www.w3.org/1999/xlink" width="250px" height="250px" viewBox="0 0 250 250" y="0px" x="0px" enable-background="new 0 0 250 250"><defs><symbol overflow="visible" id="e7e6d3e7a"><path d="M47.469-44.938c3.375 0 6.468-.453 9.281-1.359a21.537 21.537 0 0 0 7.594-4.328L26.375-81.422c-1.273 1.688-2.293 3.695-3.063 6.016-.773 2.312-1.156 4.949-1.156 7.906 0 6.188 2.492 11.496 7.485 15.922 4.988 4.43 10.93 6.64 17.828 6.64zM8.234-67.5c0-11.113 4.11-20.676 12.329-28.688 8.226-8.019 18.109-12.03 29.64-12.03 3.656 0 7.031.39 10.125 1.171 3.094.774 5.836 1.79 8.234 3.047l-4.218 11.39a31.39 31.39 0 0 0-6.656-2.203c-2.313-.5-4.81-.75-7.485-.75-4.074 0-7.555.532-10.437 1.594-2.887 1.055-5.032 2.422-6.438 4.11L74.25-59.063l4.219-5.484v-63.281H-2.75v-12.656h118.984v12.656H92.391V0H78.469v-44.938c-4.5 4.5-9.422 7.985-14.766 10.454-5.344 2.46-10.758 3.687-16.234 3.687-10.836 0-20.086-3.582-27.75-10.75C12.062-48.723 8.234-57.375 8.234-67.5zm0 0"/></symbol></defs><use xlink:href="#e7e6d3e7a" x="68.36328" y="190.5"/></svg>