<?xml version='1.0' encoding='UTF-8'?>
<svg xmlns="http://www.w3.org/2000/svg" xmlns:xlink="http://www.w3.org/1999/xlink" width="250px" height="250px" viewBox="0 0 250 250" y="0px" x="0px" enable-background="new 0 0 250 250"><defs><symbol overflow="visible" id="01daa9dba"><path d="M-2.75-127.828v-12.656h155.266v12.656h-23.844V0h-14.125v-67.5H54.64c-3.805 2.813-8.164 4.219-13.078 4.219-1.126 0-2.22-.14-3.282-.422-1.054-.281-1.86-.563-2.422-.844L78.047-5.703 66.875 1.484 3.594-88.39l11.39-8.437c2.946 6.336 6.426 11.402 10.438 15.203 4.008 3.793 7.984 5.688 11.922 5.688 3.937 0 7.273-1.333 10.015-4 2.739-2.676 4.11-5.985 4.11-9.922v-37.97zm66.875 46.406h50.422v-46.406H65.39v37.969c0 2.949-.422 5.761-1.266 8.437zm0 0"/></symbol></defs><use xlink:href="#01daa9dba" x="50.22266" y="190.5"/></svg>