<?xml version='1.0' encoding='UTF-8'?>
<svg xmlns="http://www.w3.org/2000/svg" xmlns:xlink="http://www.w3.org/1999/xlink" width="250px" height="250px" viewBox="0 0 250 250" y="0px" x="0px" enable-background="new 0 0 250 250"><defs><symbol overflow="visible" id="c302c08ba"><path d="M25.11-68.766c0-1.55.663-2.89 2-4.015 1.331-1.125 2.984-1.688 4.953-1.688H43.25v-40.703c0-3.937-1.234-7.273-3.703-10.016-2.461-2.75-5.45-4.124-8.969-4.124-3.512 0-6.496.984-8.953 2.953-2.46 1.968-3.688 4.293-3.688 6.968 0 3.23 1.227 5.903 3.688 8.016 2.457 2.105 5.445 3.156 8.969 3.156v14.14c-7.313 0-13.574-2.491-18.782-7.484-5.199-5-7.796-10.94-7.796-17.828 0-6.613 2.597-12.238 7.796-16.875 5.208-4.644 11.47-6.968 18.782-6.968 7.312 0 13.601 2.746 18.875 8.234 5.27 5.48 7.906 12.09 7.906 19.828v40.703h46.203v-53.36h-36.5v-12.655h74.469v12.656h-23.844V0h-14.125v-60.328H57.375v11.172c0 1.554-.703 2.89-2.11 4.015-1.406 1.125-3.093 1.688-5.062 1.688-2.812 0-7.7-3.516-14.656-10.547-6.961-7.031-10.438-11.953-10.438-14.766zm0 0"/></symbol></defs><use xlink:href="#c302c08ba" x="55.70703" y="190.5"/></svg>