<?xml version='1.0' encoding='UTF-8'?>
<svg xmlns="http://www.w3.org/2000/svg" xmlns:xlink="http://www.w3.org/1999/xlink" width="250px" height="250px" viewBox="0 0 250 250" y="0px" x="0px" enable-background="new 0 0 250 250"><defs><symbol overflow="visible" id="1d86ae37a"><path d="M-2.75-127.828v-12.656h114.766v12.656H88.172V0H74.25v-127.828H39.031v68.766c0 2.25-.703 4.218-2.11 5.906-1.405 1.687-3.026 2.531-4.858 2.531-3.512 0-9.063-4.395-16.657-13.188-7.594-8.789-11.39-15.156-11.39-19.093 0-1.406.562-2.672 1.687-3.797s2.39-1.688 3.797-1.688h9.906c1.551 0 2.89-.703 4.016-2.109 1.125-1.406 1.687-3.094 1.687-5.063v-32.265zm0 0"/></symbol></defs><use xlink:href="#1d86ae37a" x="70.47266" y="190.5"/></svg>