<?xml version='1.0' encoding='UTF-8'?>
<svg xmlns="http://www.w3.org/2000/svg" xmlns:xlink="http://www.w3.org/1999/xlink" width="250px" height="250px" viewBox="0 0 250 250" y="0px" x="0px" enable-background="new 0 0 250 250"><defs><symbol overflow="visible" id="e4d0875ca"><path d="M85.047-136.703v-13.531h70.61v13.53h-25.5V0h-15.11v-136.703zm-40.61 34.516c4.97 0 9.63-1.504 13.985-4.516 4.363-3.008 7.75-6.992 10.156-11.953-2.262-5.864-5.308-10.598-9.14-14.203-3.836-3.614-7.856-5.422-12.063-5.422-4.969 0-9.219 1.918-12.75 5.75-3.531 3.836-5.297 8.46-5.297 13.875 0 4.656 1.461 8.57 4.39 11.734 2.938 3.156 6.509 4.734 10.72 4.734zM74.438 0L7-57.078l7.438-10.594c4.363 3.606 7.82 6.274 10.374 8 2.563 1.73 4.594 2.594 6.094 2.594 11.282 0 20.867-4.395 28.766-13.188 7.894-8.8 11.844-19.441 11.844-31.921-2.563 4.656-6.329 8.34-11.297 11.046C55.258-88.43 50-87.078 44.437-87.078c-8.273 0-15.34-3.117-21.203-9.36-5.867-6.238-8.797-13.644-8.797-22.218 0-9.625 3.192-17.781 9.579-24.469 6.394-6.695 14.18-10.047 23.359-10.047 10.82 0 20.066 5 27.734 15 7.676 10 11.516 21.996 11.516 35.984 0 15.493-4.59 28.653-13.766 39.485C63.691-51.88 52.711-46.47 39.922-46.47l43.547 35.86zm0 0"/></symbol></defs><use xlink:href="#e4d0875ca" x="48.75195" y="200"/></svg>