<?xml version='1.0' encoding='UTF-8'?>
<svg xmlns="http://www.w3.org/2000/svg" xmlns:xlink="http://www.w3.org/1999/xlink" width="250px" height="250px" viewBox="0 0 250 250" y="0px" x="0px" enable-background="new 0 0 250 250"><defs><symbol overflow="visible" id="dd14c538a"><path d="M53.469-58.656c6.164 0 11.953-1.88 17.36-5.64 5.413-3.759 9.628-8.868 12.64-15.329v-57.078h-55.5v54.14c0 6.618 2.476 12.258 7.437 16.922 4.969 4.657 10.989 6.985 18.063 6.985zm-40.61-23.907v-54.14H-2.937v-13.531h127.015v13.53h-25.5V0h-15.11v-57.078c-4.366 4.367-9.14 7.715-14.327 10.047-5.188 2.336-10.414 3.5-15.672 3.5-11.282 0-20.871-3.797-28.766-11.39-7.898-7.602-11.844-16.817-11.844-27.642zm0 0"/></symbol></defs><use xlink:href="#dd14c538a" x="64.54297" y="200"/></svg>