<?xml version='1.0' encoding='UTF-8'?>
<svg xmlns="http://www.w3.org/2000/svg" xmlns:xlink="http://www.w3.org/1999/xlink" width="250px" height="250px" viewBox="0 0 250 250" y="0px" x="0px" enable-background="new 0 0 250 250"><defs><symbol overflow="visible" id="0859ec09a"><path d="M68.344-1.484c-14.625 0-28.125-6.29-40.5-18.875C15.469-32.941 9.28-46.758 9.28-61.812c0-10.82 3.551-20.067 10.656-27.735 7.102-7.664 15.72-11.5 25.844-11.5H81v-26.781H-2.75v-12.656h128.047v12.656H94.922v40.703h-49.14c-6.188 0-11.466 2.5-15.829 7.5-4.355 4.992-6.531 10.93-6.531 17.813 0 11.398 4.707 21.98 14.125 31.75 9.426 9.773 19.691 14.656 30.797 14.656 8.02 0 14.91-2.985 20.672-8.953 5.77-5.977 8.656-13.328 8.656-22.047 0-5.207-1.445-10.516-4.328-15.922-2.887-5.414-7-10.375-12.344-14.875l11.188-8.438c6.187 5.2 11 11.211 14.437 18.032 3.445 6.824 5.172 13.89 5.172 21.203 0 12.375-4.258 22.96-12.766 31.75-8.5 8.781-18.73 13.172-30.687 13.172zm0 0"/></symbol></defs><use xlink:href="#0859ec09a" x="63.82812" y="190.5"/></svg>