<?xml version='1.0' encoding='UTF-8'?>
<svg xmlns="http://www.w3.org/2000/svg" xmlns:xlink="http://www.w3.org/1999/xlink" width="250px" height="250px" viewBox="0 0 250 250" y="0px" x="0px" enable-background="new 0 0 250 250"><defs><symbol overflow="visible" id="3f8c5937a"><path d="M-4.438-127.828v-12.656h121.516v12.656h-22.36v36.484H39.876c-5.492 0-10.137 1.938-13.938 5.813-3.792 3.867-5.687 8.469-5.687 13.812 0 10.125 5.344 18.778 16.031 25.953 10.688 7.168 23.625 10.75 38.813 10.75 0-6.613 1.472-12.273 4.422-16.984 2.957-4.707 6.617-7.063 10.984-7.063 3.094 0 5.727 1.09 7.906 3.266 2.176 2.18 3.266 4.887 3.266 8.125 0 3.656-1.125 7.387-3.375 11.188-2.25 3.793-5.344 7.023-9.281 9.687L104.422 0 91.766 5.703 76.359-22.578c-19.406 0-35.964-4.813-49.671-14.438C12.976-46.648 6.125-58.219 6.125-71.719c0-9.281 3.266-17.191 9.797-23.734 6.539-6.54 14.523-9.813 23.953-9.813h40.703v-22.562zm0 0"/></symbol></defs><use xlink:href="#3f8c5937a" x="67.94141" y="190.5"/></svg>