<?xml version='1.0' encoding='UTF-8'?>
<svg xmlns="http://www.w3.org/2000/svg" xmlns:xlink="http://www.w3.org/1999/xlink" width="250px" height="250px" viewBox="0 0 250 250" y="0px" x="0px" enable-background="new 0 0 250 250"><defs><symbol overflow="visible" id="a797625fa"><path d="M9.703-73.547c0-9.625 3.082-17.781 9.25-24.469 6.164-6.695 13.535-10.046 22.11-10.046h58.64v-28.641H-2.937v-13.531h143.25v13.53h-25.485V0H99.703v-93.172h-58.64c-4.512 0-8.387 1.922-11.626 5.766-3.23 3.836-4.843 8.453-4.843 13.86 0 9.624 3.422 19.929 10.265 30.905 6.844 10.98 16.426 21.657 28.75 32.032L54.594 0C40.457-12.031 29.44-24.438 21.547-37.219 13.648-50 9.703-62.109 9.703-73.547zm0 0"/></symbol></defs><use xlink:href="#a797625fa" x="56.42188" y="200"/></svg>