<?xml version='1.0' encoding='UTF-8'?>
<svg xmlns="http://www.w3.org/2000/svg" xmlns:xlink="http://www.w3.org/1999/xlink" width="250px" height="250px" viewBox="0 0 250 250" y="0px" x="0px" enable-background="new 0 0 250 250"><defs><symbol overflow="visible" id="fa205920a"><path d="M62.266-25.484c-11.282 0-20.871-3.118-28.766-9.36-7.898-6.25-11.844-13.66-11.844-22.234 0-5.406 1.051-10.363 3.157-14.875 2.101-4.52 5.035-8.055 8.796-10.61-7.968-5.562-14.21-11.953-18.718-19.171-4.512-7.22-6.766-14.364-6.766-21.438 0-8.57 2.969-15.976 8.906-22.219 5.938-6.238 12.969-9.359 21.094-9.359 8.57 0 15.488 2.297 20.75 6.89 5.27 4.587 7.906 10.782 7.906 18.594 0 6.625-2.672 12.309-8.015 17.047-5.344 4.73-11.7 7.094-19.063 7.094v-15.11c3.313 0 6.129-.898 8.453-2.703 2.332-1.812 3.5-3.921 3.5-6.328 0-2.707-1.32-5.113-3.953-7.218-2.625-2.102-5.82-3.157-9.578-3.157-4.21 0-7.746 1.586-10.61 4.75-2.855 3.157-4.28 7.063-4.28 11.72 0 5.866 1.988 11.585 5.968 17.155 3.988 5.563 9.442 10.371 16.36 14.422 3.312-1.351 6.847-2.441 10.609-3.265 3.758-.82 7.742-1.235 11.953-1.235h9.031l9.016 14.875H69.703c-9.168 0-16.984 2.371-23.453 7.11-6.469 4.742-9.703 10.418-9.703 17.03 0 4.669 2.516 8.579 7.547 11.735 5.039 3.157 11.097 4.735 18.172 4.735 7.968 0 16.05-2.63 24.25-7.891 8.195-5.258 15.601-12.629 22.218-22.11v-66.093H75.797v-13.531h73.547v13.53h-25.5V0h-15.11v-49.625c-6.468 7.668-13.73 13.61-21.78 17.828-8.044 4.211-16.274 6.313-24.688 6.313zm0 0"/></symbol></defs><use xlink:href="#fa205920a" x="51.91016" y="200"/></svg>