<?xml version='1.0' encoding='UTF-8'?>
<svg xmlns="http://www.w3.org/2000/svg" xmlns:xlink="http://www.w3.org/1999/xlink" width="250px" height="250px" viewBox="0 0 250 250" y="0px" x="0px" enable-background="new 0 0 250 250"><defs><symbol overflow="visible" id="d2828d2fa"><path d="M71.828-94.469c-2.062-7.547-7.328-18.984-26.078-18.984-17.61 0-33.39 9.375-33.39 25.844 0 10.984 7.078 20.812 21.953 31.109-3.891 4.344-6.172 9.156-6.172 14.406C28.14-24.25 52.844-2.28 82.578-2.28c34.766 0 75.719-29.516 75.719-68.172 0-21.969-13.266-37.75-29.047-42.547v-11.672h48.953v-2.281l-7.781-14.875H-6.406v2.297l7.781 14.86h109.344v11.218c-11.438 2.969-19.906 12.11-19.906 25.156 0 21.266 23.562 36.594 36.828 45.297-13.954 16-35 26.531-53.985 26.531-14.187 0-28.36-6.172-28.36-17.156 0-10.531 12.345-18.766 37.97-21.047l-6.172-17.61c-14.422 1.376-26.547 4.798-35 9.829C35-67.031 29.28-72.75 29.28-80.297c0-10.969 11.672-16 25.157-16 5.953 0 13.5.906 17.39 1.828zm38.203 11.656c0-11.437 6.86-18.75 16.235-18.75 8.234 0 16.703 5.72 16.703 21.735 0 10.516-3.656 20.36-9.61 29.281-16.468-9.61-23.328-20.594-23.328-32.266zm0 0"/></symbol></defs><use xlink:href="#d2828d2fa" x="39.10437" y="191.75"/></svg>