<?xml version='1.0' encoding='UTF-8'?>
<svg xmlns="http://www.w3.org/2000/svg" xmlns:xlink="http://www.w3.org/1999/xlink" width="250px" height="250px" viewBox="0 0 250 250" y="0px" x="0px" enable-background="new 0 0 250 250"><defs><symbol overflow="visible" id="d490d543a"><path d="M124.656-132.438h28.438v-2.421l-8.266-15.797H-6.797v2.422l8.25 15.797H104.25L104-86.75h-.234c-10.938-18.469-26.735-26.734-46.657-26.734-26 0-47.14 14.343-47.14 35.484 0 18.703 17 46.89 52.234 46.89 14.828 0 31.11-4.859 41.078-17.984h.235l-.235 38.89L122.72 2.439h2.422zM27.22-68.53c0-8.75 5.343-16.281 12.64-20.656l31.578 39.609c-5.343 1.703-10.937 2.922-16.515 2.922-15.563 0-27.703-8.985-27.703-21.875zm37.906-27.203c14.828 0 28.188 5.093 28.188 19.187 0 8.75-4.86 16.766-12.391 21.875l-31.11-38.89c4.86-1.688 10.454-2.172 15.313-2.172zm0 0"/></symbol></defs><use xlink:href="#d490d543a" x="51.857" y="200.25"/></svg>