<?xml version='1.0' encoding='UTF-8'?>
<svg xmlns="http://www.w3.org/2000/svg" xmlns:xlink="http://www.w3.org/1999/xlink" width="250px" height="250px" viewBox="0 0 250 250" y="0px" x="0px" enable-background="new 0 0 250 250"><defs><symbol overflow="visible" id="89c97e09a"><path d="M100.656 27.672C54.22 15.562 40.72-2.968 40.72-19.218c0-17.61 16.234-35.454 37.75-35.454 10.75 0 17.156 3.89 17.156 12.813 0 10.75-8.703 17.609-18.766 22.422L87.61-4.126c15.782-6.625 24.016-16.688 24.016-29.047 0-12.812-9.828-34.766-38.656-34.766-14.86 0-28.14 5.485-37.516 14.407-4.11-4.11-7.547-10.516-7.547-16.469 0-12.344 10.532-18.063 28.594-18.063h43l2.75-1.843c0-10.75-.234-23.328-.453-34.766h26.297v-2.281l-7.766-14.875H-6.406v2.297l7.781 14.86h81.89v19.452H52.392c-28.375 0-41.188 10.969-41.188 27.219 0 12.125 7.781 24.703 17.39 32.703-4.124 6.406-6.64 13.734-6.64 21.734 0 23.329 21.281 47.579 76.188 61.079zm0 0"/></symbol></defs><use xlink:href="#89c97e09a" x="64.1525" y="191.75"/></svg>