<?xml version='1.0' encoding='UTF-8'?>
<svg xmlns="http://www.w3.org/2000/svg" xmlns:xlink="http://www.w3.org/1999/xlink" width="250px" height="250px" viewBox="0 0 250 250" y="0px" x="0px" enable-background="new 0 0 250 250"><defs><symbol overflow="visible" id="06963b90a"><path d="M98.422-10.203l19.437 12.64h2.422l-.484-134.875h28.437v-2.421l-8.265-15.797H-6.797v2.422l8.25 15.797H39.36c4.86 8.015 7.047 13.859 7.047 18.468 0 10.938-11.422 17.735-36.687 23.813 5.828 32.078 31.593 57.11 60.515 57.11 9.72 0 19.672-2.923 28.422-8.75zM60.75-48.36c-16.531 0-29.406-12.391-29.89-26.97 23.578-6.562 33.046-15.796 33.046-28.187 0-8.015-3.89-16.765-10.937-28.921H99.39l-.485 66.828C85.531-54.438 72.172-48.36 60.75-48.36zm0 0"/></symbol></defs><use xlink:href="#06963b90a" x="54.287" y="200.25"/></svg>