<?xml version='1.0' encoding='UTF-8'?>
<svg xmlns="http://www.w3.org/2000/svg" xmlns:xlink="http://www.w3.org/1999/xlink" width="250px" height="250px" viewBox="0 0 250 250" y="0px" x="0px" enable-background="new 0 0 250 250"><defs><symbol overflow="visible" id="69c29f65a"><path d="M147.016-132.438v-2.421l-8.266-15.797H-6.797v2.422l8.25 15.797h80.438v14.578c0 10.703-1.22 11.421-7.782 11.421-45.437 0-62.203 15.313-62.203 37.672 0 28.907 29.89 59.782 66.344 59.782 28.422 0 51.266-19.688 51.266-43.985 0-17.5-11.657-33.297-28.188-44.468.25-2.438.484-5.344.484-9 0-16.032-.484-22.11-.484-26zm-36.688 72.422c0 19.672-20.906 33.766-43.016 33.766-19.687 0-36.937-10.688-36.937-31.578 0-20.906 15.063-30.375 56.625-30.375 2.906 0 5.344 0 7.281-.484 7.531 4.609 16.047 16.03 16.047 28.671zm0 0"/></symbol></defs><use xlink:href="#69c29f65a" x="54.8945" y="200.25"/></svg>