<?xml version='1.0' encoding='UTF-8'?>
<svg xmlns="http://www.w3.org/2000/svg" xmlns:xlink="http://www.w3.org/1999/xlink" width="250px" height="250px" viewBox="0 0 250 250" y="0px" x="0px" enable-background="new 0 0 250 250"><defs><symbol overflow="visible" id="e6e37762a"><path d="M83.594-34.016c-4.86 2.907-12.156 3.891-17.985 3.891-17.015 0-34.015-13.125-34.015-36.219 0-16.515 13.36-24.531 34.015-24.531h34.266l2.906-1.953c0-11.422-.234-27.453-.484-39.61h32.562v-2.421l-8.25-15.797H-6.797v2.422l8.25 15.797h81.172v23.328H64.391c-30.61 0-51.032 7.046-51.032 32.328 0 32.797 31.594 63.422 65.125 63.422 6.079 0 11.188-.735 15.313-1.954l22.36 39.126h2.187l12.64-8.016-26.25-36.453c7.532-5.828 10.688-13.36 10.688-17.985 0-11.422-18.953-22.109-29.89-22.109-5.094 0-8.5 2.438-8.5 7.781 0 5.094 2.921 12.14 6.562 18.953zm0 0"/></symbol></defs><use xlink:href="#e6e37762a" x="60.9695" y="200.25"/></svg>