<?xml version='1.0' encoding='UTF-8'?>
<svg xmlns="http://www.w3.org/2000/svg" xmlns:xlink="http://www.w3.org/1999/xlink" width="250px" height="250px" viewBox="0 0 250 250" y="0px" x="0px" enable-background="new 0 0 250 250"><defs><symbol overflow="visible" id="fa99af84a"><path d="M110.484-124.672h26.766v-2.281l-7.781-14.875H-6.406v2.297l7.781 14.86h15.547c0 12.577-.219 25.39-.219 35.921 0 3.422 0 8 .219 12.125.469 15.781 25.39 41.172 49.187 41.172 7.782 0 16.235-2.063 24.47-7.328l-.22 33.172 18.297 11.89h2.281zM55.125-50.328c-7.313 0-18.063-6.406-18.297-21.047l-.453-41.406L86.922-63.36C74.578-55.125 63.14-50.33 55.125-50.33zm36.14-74.344l-.453 51.703-52.374-51.703zm0 0"/></symbol></defs><use xlink:href="#fa99af84a" x="59.5775" y="191.75"/></svg>