<?xml version='1.0' encoding='UTF-8'?>
<svg xmlns="http://www.w3.org/2000/svg" xmlns:xlink="http://www.w3.org/1999/xlink" width="250px" height="250px" viewBox="0 0 250 250" y="0px" x="0px" enable-background="new 0 0 250 250"><defs><symbol overflow="visible" id="2ab291b5a"><path d="M89.906-110.078H63.672c-30.625 0-51.281 8.5-51.281 34.5 0 42.047 41.062 71.453 73.875 71.453 23.078 0 39.125-14.594 39.125-32.813 0-26.25-22.36-37.421-38.391-37.421-14.594 0-28.922 11.171-28.922 26.484 0 7.531 1.938 16.047 5.344 24.063-20.406-4.625-32.797-18.22-32.797-38.641 0-19.688 13.11-29.406 33.766-29.406h42.765l2.922-1.938c0-11.422-.234-26.484-.484-38.64h32.797v-2.422l-8.25-15.797H-6.797v2.422l8.25 15.797h88.453zm-17.5 79.219c0-15.547 9-27.22 24.063-27.22 8.265 0 15.312 5.345 15.312 13.126 0 10.937-12.39 22.594-32.812 22.594-1.688 0-2.906 0-5.344-.235-.969-3.172-1.219-5.11-1.219-8.265zm0 0"/></symbol></defs><use xlink:href="#2ab291b5a" x="57.203" y="200.25"/></svg>