<?xml version='1.0' encoding='UTF-8'?>
<svg xmlns="http://www.w3.org/2000/svg" xmlns:xlink="http://www.w3.org/1999/xlink" width="250px" height="250px" viewBox="0 0 250 250" y="0px" x="0px" enable-background="new 0 0 250 250"><defs><symbol overflow="visible" id="fc555f6ea"><path d="M84.563-103.031c0-23.578-21.376-50.781-45.922-50.781-12.391 0-25.766 8.015-25.766 23.078 0 14.828 10.938 28.187 29.656 28.187.235 0 1.453 0 4.86-.484v-2.672c-7.297-3.89-15.563-9-15.563-17.5 0-8.266 7.781-13.61 15.797-13.61 11.188 0 17.25 6.079 17.25 27.704 0 13.859-.969 23.578-2.188 33.78h-17c-4.374 0-6.078 2.673-6.078 5.829 0 12.156 23.078 35.969 33.782 35.969 6.078 0 6.796-6.328 8.984-23.578h48.844l-.235 46.906 19.438 12.64h2.422l-.485-134.875h28.438v-2.421l-8.266-15.797h-82.86v2.422l8.25 15.797h34.032l-.484 57.109H83.594c.734-10.938.969-21.625.969-27.703zm0 0"/></symbol></defs><use xlink:href="#fc555f6ea" x="38.006" y="200.25"/></svg>