<?xml version='1.0' encoding='UTF-8'?>
<svg xmlns="http://www.w3.org/2000/svg" xmlns:xlink="http://www.w3.org/1999/xlink" width="250px" height="250px" viewBox="0 0 250 250" y="0px" x="0px" enable-background="new 0 0 250 250"><defs><symbol overflow="visible" id="12782573a"><path d="M44.953-106.188l10.453 18.704c8.75-4.125 19.438-8.25 28.672-8.25 12.156 0 18.219 7.28 18.219 20.156 0 20.422-14.328 28.672-29.64 28.672-23.813 0-40.829-20.64-57.11-48.594l-9.235 5.594C32.563-43.984 53.22-28.437 78-28.437c20.172 0 39.375-10.438 40.578-33.532l.984-.484c3.876 3.89 11.657 9.719 20.407 9.719 1.703 0 3.89-.235 5.594-.72l-.25 43.25L164.75 2.439h2.438l-.485-134.875h28.422v-2.422l-8.266-15.797H-6.797v2.422l8.25 15.797h144.828L145.797-78c-4.61 4.125-9.719 6.313-16.516 6.313-5.344 0-8.75-1.454-11.906-3.157-4.14-19.203-18.953-39.36-42.047-39.36-8.5 0-19.687 2.673-30.375 8.016zm0 0"/></symbol></defs><use xlink:href="#12782573a" x="30.8375" y="200.25"/></svg>