<?xml version='1.0' encoding='UTF-8'?>
<svg xmlns="http://www.w3.org/2000/svg" xmlns:xlink="http://www.w3.org/1999/xlink" width="250px" height="250px" viewBox="0 0 250 250" y="0px" x="0px" enable-background="new 0 0 250 250"><defs><symbol overflow="visible" id="9a401ffca"><path d="M95.156-124.672h28.375L122.61-9.609l18.297 11.89h2.297l-.469-126.953H169.5v-2.281l-7.781-14.875H-6.406v2.297l7.781 14.86h15.547c0 12.812-.219 25.39-.219 36.374 0 3.438 0 7.094.219 11.203.922 15.781 22.422 40.953 45.531 40.953 22.406 0 32.703-18.078 32.703-34.312zM75.937-74.578c0 15.797-10.28 23.562-21.953 23.562-10.062 0-16.922-6.406-17.156-21.047l-.453-52.609h39.563zm0 0"/></symbol></defs><use xlink:href="#9a401ffca" x="43.45063" y="191.75"/></svg>