<?xml version='1.0' encoding='UTF-8'?>
<svg xmlns="http://www.w3.org/2000/svg" xmlns:xlink="http://www.w3.org/1999/xlink" width="250px" height="250px" viewBox="0 0 250 250" y="0px" x="0px" enable-background="new 0 0 250 250"><defs><symbol overflow="visible" id="758af7a4a"><path d="M109.594-64.39c11.656-9.235 29.406-20.422 38.39-20.422 6.328 0 12.641 5.343 12.641 12.89 0 11.172-8.5 28.906-19.922 42.281l16.766 14.328h1.937c10.938-15.062 16.766-27.937 16.766-43 0-29.171-24.547-44.718-36.453-44.718-8.25 0-21.14 7.297-30.375 13.844l-.235-43.25h85.297v-2.422l-8.265-15.797H-6.797v2.422l8.25 15.797H18.22c0 13.125-.235 25.03-.235 36.203 0 3.656 0 7.546.235 11.906.5 17.266 25.031 43.5 48.125 43.5 8.015 0 13.36-2.422 21.86-8.016l-.235 38.157 19.437 13.124h2.438zm-54.438 7.765c-7.281 0-15.547-7.047-15.797-22.344l-.484-53.469h50.063l-.485 58.079C74.36-63.422 64.391-56.625 55.156-56.625zm0 0"/></symbol></defs><use xlink:href="#758af7a4a" x="31.202" y="200.25"/></svg>