<?xml version='1.0' encoding='UTF-8'?>
<svg xmlns="http://www.w3.org/2000/svg" xmlns:xlink="http://www.w3.org/1999/xlink" width="250px" height="250px" viewBox="0 0 250 250" y="0px" x="0px" enable-background="new 0 0 250 250"><defs><symbol overflow="visible" id="f87072b2a"><path d="M78.25 4.86L90.64-5.345l-50.78-52.25c17.734-3.89 26.718-17 26.718-56.86 0-3.155-.234-13.124-.719-17.984h36.688v-2.421l-8.266-15.797H-6.797v2.422l8.25 15.797h44.234c0 2.671.485 7.296.485 15.312 0 8.016-.25 19.688-1.953 27.703-5.828-.734-16.032-1.453-20.64-1.453-8.75 0-12.407 2.422-12.407 7.766 0 5.593 4.625 14.343 16.531 28.921L75.813 4.86zm0 0"/></symbol></defs><use xlink:href="#f87072b2a" x="77.129" y="200.25"/></svg>