<?xml version='1.0' encoding='UTF-8'?>
<svg xmlns="http://www.w3.org/2000/svg" xmlns:xlink="http://www.w3.org/1999/xlink" width="250px" height="250px" viewBox="0 0 250 250" y="0px" x="0px" enable-background="new 0 0 250 250"><defs><symbol overflow="visible" id="ab0d210aa"><path d="M122.375-124.672l-.906 116.203 18.297 11.906h2.28l-.452-128.109h26.765v-2.281l-7.78-14.875H-6.407v2.297l7.781 14.86h24.25c-2.75 4.343-3.89 8.921-3.89 13.5 0 16.468 14.171 30.874 42.765 41.859-5.719 4.578-13.031 8.234-21.719 10.53-8.015-5.265-17.39-10.296-25.86-10.296-5.718 0-7.765 2.281-7.765 5.719 0 8.687 11.656 22.875 27.438 22.875 2.515 0 5.265-.235 8.015-.688l37.047 45.75h2.297l11.672-9.61-38.89-39.577C76.858-52.156 98.14-70.22 98.14-95.391c0-8.921-2.75-19.906-11.907-29.28zm-63.125-1.594c8.922 0 21.266 4.579 21.266 23.782 0 10.296-3.657 20.359-8.922 26.078-21.5-9.61-30.422-19.89-30.422-31.328 0-8.704 4.812-18.532 18.078-18.532zm0 0"/></symbol></defs><use xlink:href="#ab0d210aa" x="44.0225" y="191.75"/></svg>