<?xml version='1.0' encoding='UTF-8'?>
<svg xmlns="http://www.w3.org/2000/svg" xmlns:xlink="http://www.w3.org/1999/xlink" width="250px" height="250px" viewBox="0 0 250 250" y="0px" x="0px" enable-background="new 0 0 250 250"><defs><symbol overflow="visible" id="eb0a865ba"><path d="M88.984-124.672c.235 15.563.454 26.531.454 41.406 0 20.36-5.72 25.157-16.016 32.25L87.156-36.14c15.094-10.53 21.047-16.25 21.047-43.468 0-10.063-.469-32.016-.687-45.063H134.5v-2.281l-7.766-14.875H-6.406v2.297l7.781 14.86h18.297c-.235 19.671-.453 34.546-.453 58.796 0 19.672 2.968 22.875 44.61 50.094C94.015 3.89 99.968 8.234 99.968 14.187c0 3.204-1.61 5.72-5.719 8.688l13.484 14.64c8.016-5.03 12.594-11.203 12.594-18.078 0-10.062-7.094-16.468-47.578-43-31.797-20.812-34.094-24.25-34.094-39.343 0-24.938 0-37.282.235-61.766zm0 0"/></symbol></defs><use xlink:href="#eb0a865ba" x="60.95" y="191.75"/></svg>