<?xml version='1.0' encoding='UTF-8'?>
<svg xmlns="http://www.w3.org/2000/svg" xmlns:xlink="http://www.w3.org/1999/xlink" width="250px" height="250px" viewBox="0 0 250 250" y="0px" x="0px" enable-background="new 0 0 250 250"><defs><symbol overflow="visible" id="c958e153a"><path d="M65.656-112.313h2.047c.234-1.828.469-3.89.469-6.187 0-13.266-7.547-26.297-27-26.297-16.703 0-28.813 9.61-28.813 24.703 0 14.406 11.438 26.531 24.703 33.625-5.953 5.266-8.015 11.438-8.015 16.922 0 16.938 18.765 42.328 48.734 42.328 9.375 0 20.36-2.515 31.797-9.61l-.234 27.454 18.062 11.656h2.297l-.453-126.953H156v-2.281l-7.766-14.875H82.125v2.297l7.781 14.86h20.344l-.453 64.28C91.266-46.203 77.78-42.094 68.39-42.094c-12.125 0-22.641-6.86-22.641-17.375 0-10.984 10.75-20.36 43.234-23.562l-8.468-17.844c-13.72 1.375-22.641 5.484-31.329 5.484-9.843 0-20.14-5.484-20.14-17.39 0-9.594 7.094-16.235 17.625-16.235 8.922 0 15.094 4.344 18.984 16.703zm0 0"/></symbol></defs><use xlink:href="#c958e153a" x="50.19875" y="191.75"/></svg>