<?xml version='1.0' encoding='UTF-8'?>
<svg xmlns="http://www.w3.org/2000/svg" xmlns:xlink="http://www.w3.org/1999/xlink" width="250px" height="250px" viewBox="0 0 250 250" y="0px" x="0px" enable-background="new 0 0 250 250"><defs><symbol overflow="visible" id="a957e634a"><path d="M109.594-132.438h82.625v-2.421l-8.266-15.797H-6.797v2.422l8.25 15.797h88.219l-.484 43.5c-9.72-11.907-23.329-21.626-39.86-21.626-19.203 0-38.39 12.876-38.39 33.782 0 20.156 18.468 43.25 43.5 43.25 12.874 0 21.374-5.828 34.5-15.797l-.485 38.64 19.438 13.126h2.437l-.25-67.079c10.938-9.468 26.969-20.406 36.688-20.406 6.078 0 11.672 4.61 11.672 12.875 0 10.688-9.235 27.953-20.407 41.313l16.766 14.328h1.937c10.938-15.063 17.25-27.453 17.25-42.516 0-29.156-23.562-44.234-35.234-44.234-8.016 0-19.922 7.047-28.906 13.86zM44.719-49.094c-8.75 0-16.282-5.828-16.282-18.218 0-15.797 13.36-24.547 27.204-24.547 12.64 0 24.797 7.296 33.297 16.28v1.954c-14.829 11.422-31.594 24.531-44.22 24.531zm0 0"/></symbol></defs><use xlink:href="#a957e634a" x="32.2955" y="200.25"/></svg>