<?xml version='1.0' encoding='UTF-8'?>
<svg xmlns="http://www.w3.org/2000/svg" xmlns:xlink="http://www.w3.org/1999/xlink" width="250px" height="250px" viewBox="0 0 250 250" y="0px" x="0px" enable-background="new 0 0 250 250"><defs><symbol overflow="visible" id="c569605ea"><path d="M87.719-76.781c12.39 0 21.14 13.36 21.14 26.234 0 17.016-14.578 27.469-32.312 27.469-30.625 0-47.14-31.594-59.047-54.438l-9.234 5.344c17.5 34.5 37.656 67.063 74.359 67.063 27.219 0 43.984-17.97 43.984-38.625 0-16.047-10.453-31.594-25.765-43.016 5.344-5.344 9-12.64 9-20.656 0-8.5-4.14-18.219-7.781-25.031h42.03v-2.422l-8.25-15.797H-6.796v2.422l8.25 15.797H87.97c3.156 6.562 4.61 12.39 4.61 17.5 0 13.359-10.204 19.437-47.86 26.968v1.453L54.922-69.5c17.734-2.906 25.516-7.281 32.797-7.281zm0 0"/></symbol></defs><use xlink:href="#c569605ea" x="56.3525" y="200.25"/></svg>