<?xml version='1.0' encoding='UTF-8'?>
<svg xmlns="http://www.w3.org/2000/svg" xmlns:xlink="http://www.w3.org/1999/xlink" width="250px" height="250px" viewBox="0 0 250 250" y="0px" x="0px" enable-background="new 0 0 250 250"><defs><symbol overflow="visible" id="bf1a4c23a"><path d="M116.203-124.672h26.766v-2.281l-7.781-14.875H-6.406v2.297l7.781 14.86h95.61l-.454 40.484c-10.515-12.344-26.078-22.641-45.062-22.641-22.64 0-42.094 13.953-42.094 33.172 0 17.844 16.469 43.234 48.047 43.234 14.64 0 23.094-5.031 38.875-15.562L96.078-9.61l18.297 11.89h2.281zm-68.625 79.61c-11.672 0-21.5-6.407-21.5-18.766 0-16.234 13.719-25.156 30.422-25.156 14.64 0 30.203 8 40.031 17.39v1.828C72.516-51.234 59.016-45.062 47.578-45.062zm0 0"/></symbol></defs><use xlink:href="#bf1a4c23a" x="56.71813" y="191.75"/></svg>