<?xml version='1.0' encoding='UTF-8'?>
<svg xmlns="http://www.w3.org/2000/svg" xmlns:xlink="http://www.w3.org/1999/xlink" width="250px" height="250px" viewBox="0 0 250 250" y="0px" x="0px" enable-background="new 0 0 250 250"><defs><symbol overflow="visible" id="a519a031a"><path d="M122.234-132.438l-.484 63.672c-22.36 18.47-36.219 22.11-45.453 22.11-11.656 0-22.594-5.594-22.594-20.657 0-21.374 22.594-23.328 43.984-23.328 3.407 0 4.86 0 10.204.25v-2.437l-8.016-15.547H8.985v2.422L17.5-89.906h23.078c-2.906 4.61-4.375 9.469-4.375 14.578 0 18.953 18.719 44.219 51.516 44.219 9.719 0 19.203-1.938 33.781-12.625l-.25 33.53 19.453 12.642h2.422l-.484-134.875h28.437v-2.422l-8.266-15.797H-6.797v2.422l8.25 15.797zm0 0"/></symbol></defs><use xlink:href="#a519a031a" x="42.866" y="200.25"/></svg>