<?xml version='1.0' encoding='UTF-8'?>
<svg xmlns="http://www.w3.org/2000/svg" xmlns:xlink="http://www.w3.org/1999/xlink" width="250px" height="250px" viewBox="0 0 250 250" y="0px" x="0px" enable-background="new 0 0 250 250"><defs><symbol overflow="visible" id="c8558676a"><path d="M102.25-9.61l18.297 11.891h2.297l-.469-126.953h26.766v-2.281l-7.766-14.875H-6.406v2.297l7.781 14.86h14.64c-2.062 2.984-3.203 6.64-3.203 10.53 0 12.579 11.438 21.954 21.954 30.188-2.735 3.437-4.344 7.547-4.344 12.36 0 16.687 17.844 41.171 43.469 41.171 9.14 0 19.671-3.203 28.593-8.469zM83.031-79.14l-9.14-18.766c-11.907.922-22.657 3.203-30.422 7.094-7.563-5.72-10.297-13.047-10.297-18.079 0-8 6.172-13.265 16.234-15.78h53.766l-.469 62C85.781-49.876 72.97-45.298 64.97-45.298c-10.063 0-17.625-6.86-17.625-15.547 0-9.61 9.843-17.843 35.687-18.297zm0 0"/></symbol></defs><use xlink:href="#c8558676a" x="53.63" y="191.75"/></svg>