<?xml version='1.0' encoding='UTF-8'?>
<svg xmlns="http://www.w3.org/2000/svg" xmlns:xlink="http://www.w3.org/1999/xlink" width="250px" height="250px" viewBox="0 0 250 250" y="0px" x="0px" enable-background="new 0 0 250 250"><defs><symbol overflow="visible" id="a569e753a"><path d="M169.61-132.438h28.437v-2.421l-8.266-15.797h-74.844v2.422l8.266 15.797h26l-.484 48.843c-5.594 4.625-14.094 8.016-22.61 8.016-19.437 0-24.53-11.656-28.906-15.297 6.078-6.813 7.047-12.406 7.047-17.75 0-15.313-11.422-45.188-41.063-45.188-10.453 0-25.765 3.875-40.109 12.141l10.703 18.234c13.36-8.265 28.907-12.89 38.14-12.89 11.188 0 16.282 6.328 16.282 14.578 0 7.781-4.61 15.797-13.36 21.39h-2.187c-10.937 0-21.875 4.626-30.625 9.485l10.453 17.734c7.532-3.64 17.985-8.265 26.985-8.265 10.687 0 19.922 6.312 19.922 18.219 0 17.015-15.563 28.203-31.594 28.203-25.266 0-37.172-22.844-49.813-45.938L8.75-75.578C25.516-43.5 43.5-17.25 75.094-17.25c23.562 0 41.297-14.578 41.297-34.516 0-4.375-.72-8.984-2.672-13.593l.984-.5c6.547 4.14 15.781 8.03 25.016 8.03 3.172 0 6.078-.25 8.75-1.218l-.235 48.844 19.438 12.64h2.422zm0 0"/></symbol></defs><use xlink:href="#a569e753a" x="29.3795" y="200.25"/></svg>