<?xml version='1.0' encoding='UTF-8'?>
<svg xmlns="http://www.w3.org/2000/svg" xmlns:xlink="http://www.w3.org/1999/xlink" width="250px" height="250px" viewBox="0 0 250 250" y="0px" x="0px" enable-background="new 0 0 250 250"><defs><symbol overflow="visible" id="93ffe7eca"><path d="M78.25 4.86L90.64-5.345l-50.78-52.25c16.28-3.89 25.265-17 25.265-56.86 0-3.155-.25-13.124-.734-17.984H156l-.484 40.579c-9.235-12.391-22.36-20.657-38.875-20.657-19.922 0-37.172 12.407-37.172 32.079 0 23.093 21.375 42.765 42.281 42.765 12.625 0 19.922-3.156 33.531-13.36l-.25 40.829 19.438 12.64h2.437l-.484-134.875h28.422v-2.421l-8.25-15.797H-6.796v2.422l8.25 15.797h42.765c0 2.671.5 7.296.5 15.312 0 8.016-.25 19.688-1.953 27.703-5.828-.734-14.578-1.453-19.188-1.453-8.75 0-12.406 2.422-12.406 7.766 0 5.593 4.625 14.343 16.531 28.921L75.813 4.86zm36.688-57.594c-9.72 0-17.985-5.344-17.985-17.5 0-16.516 11.422-24.297 25.516-24.297 12.156 0 24.797 6.562 33.047 15.797v2.921c-20.172 18.704-31.094 23.079-40.578 23.079zm0 0"/></symbol></defs><use xlink:href="#93ffe7eca" x="25.9775" y="200.25"/></svg>