<?xml version='1.0' encoding='UTF-8'?>
<svg xmlns="http://www.w3.org/2000/svg" xmlns:xlink="http://www.w3.org/1999/xlink" width="250px" height="250px" viewBox="0 0 250 250" y="0px" x="0px" enable-background="new 0 0 250 250"><defs><symbol overflow="visible" id="c3298e98a"><path d="M140.219-99.875l-16.781 17.016 16.78 16.515 17-16.515zM6.313-62.937C25.03-23.328 54.922-1.703 86.266-1.703c31.593 0 43.984-18.953 43.984-31.594 0-19.922-18.719-39.11-32.078-39.11-9.719 0-34.75 6.063-40.344 6.063-5.828 0-12.875-6.062-12.875-16.031 0-7.531 5.594-11.188 15.797-11.188h49.578l2.906-1.937c0-11.422-.234-24.781-.484-36.938h52.734v-2.421l-8.265-15.797H-6.797v2.422l8.25 15.797h91.61v20.656H56.374c-19.922 0-28.922 8.015-28.922 19.922 0 20.656 22.36 43.015 38.406 43.015 8.25 0 29.157-5.828 38.625-5.828 5.844 0 9.235 3.89 9.235 9.234 0 10.454-6.313 25.516-33.281 25.516-32.813 0-51.766-22.61-64.891-48.36zm0 0"/></symbol></defs><use xlink:href="#c3298e98a" x="45.6605" y="200.25"/></svg>