<?xml version='1.0' encoding='UTF-8'?>
<svg xmlns="http://www.w3.org/2000/svg" xmlns:xlink="http://www.w3.org/1999/xlink" width="250px" height="250px" viewBox="0 0 250 250" y="0px" x="0px" enable-background="new 0 0 250 250"><defs><symbol overflow="visible" id="69c29f65a"><path d="M138.39-124.672v-2.281l-7.78-14.875H-6.407v2.297l7.781 14.86h75.719v13.734c0 10.062-1.156 10.75-7.328 10.75-42.766 0-58.563 14.406-58.563 35.453 0 27.218 28.14 56.265 62.453 56.265 26.766 0 48.266-18.531 48.266-41.406 0-16.469-10.984-31.328-26.531-41.86.234-2.28.453-5.03.453-8.453 0-15.109-.453-20.828-.453-24.484zM103.86-56.5c0 18.531-19.672 31.797-40.5 31.797-18.532 0-34.766-10.063-34.766-29.735 0-19.671 14.187-28.593 53.297-28.593 2.75 0 5.03 0 6.859-.469 7.094 4.36 15.11 15.11 15.11 27zm0 0"/></symbol></defs><use xlink:href="#69c29f65a" x="59.00562" y="191.75"/></svg>