<?xml version='1.0' encoding='UTF-8'?>
<svg xmlns="http://www.w3.org/2000/svg" xmlns:xlink="http://www.w3.org/1999/xlink" width="250px" height="250px" viewBox="0 0 250 250" y="0px" x="0px" enable-background="new 0 0 250 250"><defs><symbol overflow="visible" id="81255996a"><path d="M127.64-9.61l18.297 11.891h2.297l-.468-126.953h26.765v-2.281l-7.765-14.875H-6.406v2.297l7.781 14.86h127.188l-.235 26.312h-68.86v2.515l6.188 13.266c14.86 6.64 22.406 16.469 22.406 26.312 0 10.063-7.546 18.297-19.89 18.297-20.36 0-37.984-22.656-53.766-56.047l-9.375 4.11c16.922 36.375 38.203 70.469 69.313 70.469 16.922 0 31.797-10.297 31.797-28.141 0-11.672-6.407-21.047-18.532-33.625h40.485zm0 0"/></symbol></defs><use xlink:href="#81255996a" x="40.93438" y="191.75"/></svg>