<?xml version='1.0' encoding='UTF-8'?>
<svg xmlns="http://www.w3.org/2000/svg" xmlns:xlink="http://www.w3.org/1999/xlink" width="250px" height="250px" viewBox="0 0 250 250" y="0px" x="0px" enable-background="new 0 0 250 250"><defs><symbol overflow="visible" id="bf1a4c23a"><path d="M123.438-132.438h28.437v-2.421l-8.266-15.797H-6.797v2.422l8.25 15.797h101.578l-.484 43.015c-11.172-13.125-27.703-24.062-47.875-24.062-24.047 0-44.703 14.828-44.703 35.234 0 18.953 17.484 45.938 51.031 45.938 15.547 0 24.531-5.36 41.297-16.532l-.234 38.64L121.5 2.439h2.438zM50.546-47.874c-12.39 0-22.844-6.797-22.844-19.922 0-17.25 14.578-26.734 32.313-26.734 15.562 0 32.078 8.515 42.53 18.469v1.953c-25.515 19.671-39.859 26.234-52 26.234zm0 0"/></symbol></defs><use xlink:href="#bf1a4c23a" x="52.4645" y="200.25"/></svg>