<?xml version='1.0' encoding='UTF-8'?>
<svg xmlns="http://www.w3.org/2000/svg" xmlns:xlink="http://www.w3.org/1999/xlink" width="250px" height="250px" viewBox="0 0 250 250" y="0px" x="0px" enable-background="new 0 0 250 250"><defs><symbol overflow="visible" id="d2828d2fa"><path d="M76.297-100.36c-2.188-8.015-7.766-20.171-27.703-20.171-18.703 0-35.469 9.969-35.469 27.469 0 11.656 7.531 22.109 23.328 33.046-4.14 4.61-6.562 9.72-6.562 15.297 0 18.953 26.25 42.282 57.828 42.282 36.937 0 80.437-31.344 80.437-72.407 0-23.328-14.094-40.094-30.86-45.203v-12.39h52v-2.422l-8.265-15.797H-6.797v2.422l8.25 15.797H117.61v11.906c-12.14 3.156-21.14 12.875-21.14 26.734 0 22.594 25.031 38.875 39.125 48.11C120.766-28.672 98.422-17.5 78.25-17.5c-15.063 0-30.14-6.563-30.14-18.219 0-11.187 13.124-19.922 40.343-22.36L81.891-76.78c-15.313 1.453-28.188 5.094-37.172 10.437-7.547-4.86-13.61-10.937-13.61-18.953 0-11.656 12.391-17 26.72-17 6.327 0 14.343.969 18.468 1.938zm40.594 12.391c0-12.14 7.28-19.922 17.25-19.922 8.75 0 17.734 6.079 17.734 23.079 0 11.187-3.89 21.624-10.203 31.109-17.5-10.203-24.781-21.875-24.781-34.266zm0 0"/></symbol></defs><use xlink:href="#d2828d2fa" x="33.7535" y="200.25"/></svg>