<?xml version='1.0' encoding='UTF-8'?>
<svg xmlns="http://www.w3.org/2000/svg" xmlns:xlink="http://www.w3.org/1999/xlink" width="250px" height="250px" viewBox="0 0 250 250" y="0px" x="0px" enable-background="new 0 0 250 250"><defs><symbol overflow="visible" id="ab0d210aa"><path d="M130-132.438l-.969 123.454L148.47 3.64h2.437l-.484-136.078h28.422v-2.422l-8.25-15.797H-6.796v2.422l8.25 15.797h25.765c-2.922 4.625-4.14 9.484-4.14 14.343 0 17.485 15.077 32.797 45.452 44.469-6.078 4.86-13.86 8.75-23.094 11.172-8.5-5.594-18.468-10.938-27.453-10.938-6.078 0-8.265 2.438-8.265 6.079 0 9.234 12.39 24.296 29.156 24.296 2.672 0 5.594-.234 8.516-.718L86.75 4.859h2.438l12.39-10.203L60.266-47.39c21.375-8.015 43.984-27.203 43.984-53.937 0-9.484-2.922-21.14-12.64-31.11zm-67.063-1.703c9.47 0 22.594 4.86 22.594 25.282 0 10.937-3.89 21.625-9.469 27.703-22.843-10.219-32.328-21.14-32.328-33.297 0-9.234 5.11-19.688 19.203-19.688zm0 0"/></symbol></defs><use xlink:href="#ab0d210aa" x="38.978" y="200.25"/></svg>