<?xml version='1.0' encoding='UTF-8'?>
<svg xmlns="http://www.w3.org/2000/svg" xmlns:xlink="http://www.w3.org/1999/xlink" width="250px" height="250px" viewBox="0 0 250 250" y="0px" x="0px" enable-background="new 0 0 250 250"><defs><symbol overflow="visible" id="b03e6e1ca"><path d="M93.781-124.672h35.922v-2.281l-7.781-14.875H-6.406v2.297l7.781 14.86h73.89V-99.5H61.532c-29.281 0-49.172 7.547-49.172 33.39 0 32.72 32.25 57.641 61.985 57.641 16.469 0 31.344-7.547 43.234-20.36L103.86-42.78c-10.53 10.297-23.562 17.39-40.03 17.39-18.767 0-34.313-9.375-34.313-29.28 0-18.532 13.265-27.673 32.703-27.673H91.5l2.75-1.844c0-10.75-.234-29.046-.469-40.484zm0 0"/></symbol></defs><use xlink:href="#b03e6e1ca" x="63.35187" y="191.75"/></svg>