<?xml version='1.0' encoding='UTF-8'?>
<svg xmlns="http://www.w3.org/2000/svg" xmlns:xlink="http://www.w3.org/1999/xlink" width="250px" height="250px" viewBox="0 0 250 250" y="0px" x="0px" enable-background="new 0 0 250 250"><defs><symbol overflow="visible" id="c569605ea"><path d="M82.578-72.281c11.672 0 19.906 12.578 19.906 24.703 0 16.016-13.734 25.844-30.421 25.844-28.829 0-44.391-29.735-55.594-51.235L7.78-67.938c16.469 32.485 35.453 63.141 70 63.141 25.61 0 41.39-16.937 41.39-36.375 0-15.094-9.827-29.734-24.234-40.484 5.032-5.047 8.454-11.906 8.454-19.453 0-8-3.891-17.157-7.313-23.563h39.578v-2.281l-7.781-14.875H-6.406v2.297l7.781 14.86h81.438c2.968 6.171 4.343 11.671 4.343 16.468 0 12.578-9.61 18.297-45.062 25.39v1.376l9.61 16.015c16.687-2.75 24.015-6.86 30.874-6.86zm0 0"/></symbol></defs><use xlink:href="#c569605ea" x="60.37812" y="191.75"/></svg>