<?xml version='1.0' encoding='UTF-8'?>
<svg xmlns="http://www.w3.org/2000/svg" xmlns:xlink="http://www.w3.org/1999/xlink" width="250px" height="250px" viewBox="0 0 250 250" y="0px" x="0px" enable-background="new 0 0 250 250"><defs><symbol overflow="visible" id="2ab291b5a"><path d="M84.64-103.625H59.938c-28.828 0-48.265 8-48.265 32.484 0 39.579 38.656 67.25 69.531 67.25 21.734 0 36.828-13.718 36.828-30.875C118.031-59.469 96.984-70 81.891-70c-13.72 0-27.22 10.531-27.22 24.938 0 7.093 1.829 15.093 5.032 22.64-19.219-4.344-30.875-17.156-30.875-36.36 0-18.53 12.344-27.687 31.797-27.687h40.25l2.75-1.828c0-10.75-.234-24.937-.453-36.375h30.875v-2.281l-7.781-14.875H-6.406v2.297l7.781 14.86h83.266zM68.173-29.047c0-14.64 8.453-25.625 22.64-25.625 7.782 0 14.407 5.031 14.407 12.36 0 10.28-11.656 21.265-30.875 21.265-1.594 0-2.75 0-5.031-.234-.922-2.969-1.141-4.797-1.141-7.766zm0 0"/></symbol></defs><use xlink:href="#2ab291b5a" x="61.17875" y="191.75"/></svg>