<?xml version='1.0' encoding='UTF-8'?>
<svg xmlns="http://www.w3.org/2000/svg" xmlns:xlink="http://www.w3.org/1999/xlink" width="250px" height="250px" viewBox="0 0 250 250" y="0px" x="0px" enable-background="new 0 0 250 250"><defs><symbol overflow="visible" id="fa99af84a"><path d="M117.375-132.438h28.422v-2.421l-8.266-15.797H-6.797v2.422l8.25 15.797h16.531c0 13.375-.25 26.968-.25 38.156 0 3.64 0 8.5.25 12.875.485 16.765 26.97 43.734 52.25 43.734 8.25 0 17.25-2.187 26-7.766l-.25 35.235 19.438 12.64h2.437zM58.562-53.453c-7.78 0-19.203-6.813-19.437-22.36l-.484-43.984 53.703 52.484c-13.125 8.75-25.281 13.86-33.781 13.86zm38.391-78.984l-.484 54.921-55.64-54.921zm0 0"/></symbol></defs><use xlink:href="#fa99af84a" x="55.502" y="200.25"/></svg>