<?xml version='1.0' encoding='UTF-8'?>
<svg xmlns="http://www.w3.org/2000/svg" xmlns:xlink="http://www.w3.org/1999/xlink" width="250px" height="250px" viewBox="0 0 250 250" y="0px" x="0px" enable-background="new 0 0 250 250"><defs><symbol overflow="visible" id="0b3c8ec0a"><path d="M76.781 4.86L89.187-5.345l-50.546-52.25c9.718-1.937 16.03-5.343 20.656-13.61 18.469 14.829 33.047 16.766 42.031 16.766a61.935 61.935 0 0 0 20.906-3.64l-.25 47.875 19.438 12.64h2.437l-.484-134.875h28.422v-2.421l-8.266-15.797H-6.797v2.422l8.25 15.797h44.469c.25 2.671.484 7.296.484 15.312 0 8.016-.234 19.688-1.937 27.703-5.828-.734-16.282-1.453-20.89-1.453-8.75 0-12.407 2.422-12.407 7.766 0 7.046 4.14 15.796 20.172 35.484L74.359 4.859zM66.344-114.454c0-3.156-.25-13.125-.735-17.984h57.344l-.484 50.062c-5.344 4.61-16.031 9.234-27.453 9.234-10.938 0-25.766-4.14-31.829-7.78 1.938-8.266 3.157-19.923 3.157-33.532zm0 0"/></symbol></defs><use xlink:href="#0b3c8ec0a" x="42.5015" y="200.25"/></svg>