<?xml version='1.0' encoding='UTF-8'?>
<svg xmlns="http://www.w3.org/2000/svg" xmlns:xlink="http://www.w3.org/1999/xlink" width="250px" height="250px" viewBox="0 0 250 250" y="0px" x="0px" enable-background="new 0 0 250 250"><defs><symbol overflow="visible" id="89c97e09a"><path d="M106.922 29.406C57.594 16.531 43.25-3.156 43.25-20.406c0-18.719 17.25-37.672 40.094-37.672 11.422 0 18.234 4.125 18.234 13.61 0 11.421-9.234 18.702-19.937 23.812L93.062-4.375c16.782-7.047 25.516-17.734 25.516-30.86 0-13.609-10.437-36.937-41.062-36.937-15.797 0-29.891 5.828-39.844 15.313-4.375-4.375-8.031-11.188-8.031-17.5 0-13.125 11.187-19.204 30.375-19.204h45.687l2.922-1.937c0-11.422-.25-24.781-.484-36.938h27.937v-2.421l-8.266-15.797H-6.797v2.422l8.25 15.797h87v20.656H55.641c-30.125 0-43.735 11.672-43.735 28.922 0 12.875 8.266 26.234 18.469 34.75-4.375 6.797-7.047 14.578-7.047 23.078 0 24.781 22.594 50.547 80.922 64.89zm0 0"/></symbol></defs><use xlink:href="#89c97e09a" x="60.362" y="200.25"/></svg>