<?xml version='1.0' encoding='UTF-8'?>
<svg xmlns="http://www.w3.org/2000/svg" xmlns:xlink="http://www.w3.org/1999/xlink" width="250px" height="250px" viewBox="0 0 250 250" y="0px" x="0px" enable-background="new 0 0 250 250"><defs><symbol overflow="visible" id="0b3c8ec0a"><path d="M72.281 4.578l11.672-9.61-47.578-49.187c9.14-1.828 15.094-5.031 19.438-12.812 17.39 13.969 31.109 15.797 39.578 15.797 6.625 0 13.265-1.157 19.671-3.438l-.234 45.063 18.297 11.89h2.297l-.453-126.953h26.75v-2.281l-7.766-14.875H-6.407v2.297l7.782 14.86h41.86c.234 2.515.453 6.859.453 14.421 0 7.547-.22 18.516-1.829 26.063-5.484-.672-15.328-1.36-19.672-1.36-8.234 0-11.671 2.281-11.671 7.313 0 6.64 3.89 14.875 19 33.406L70 4.578zm-9.828-112.312c0-2.985-.234-12.36-.687-16.938h53.984l-.453 47.125c-5.047 4.344-15.11 8.688-25.86 8.688-10.296 0-24.25-3.891-29.968-7.313 1.843-7.781 2.984-18.766 2.984-31.562zm0 0"/></symbol></defs><use xlink:href="#0b3c8ec0a" x="47.33938" y="191.75"/></svg>