<?xml version='1.0' encoding='UTF-8'?>
<svg xmlns="http://www.w3.org/2000/svg" xmlns:xlink="http://www.w3.org/1999/xlink" width="250px" height="250px" viewBox="0 0 250 250" y="0px" x="0px" enable-background="new 0 0 250 250"><defs><symbol overflow="visible" id="dfbe21d2a"><path d="M113.719-132.438h28.437v-2.421l-8.265-15.797H-6.797v2.422l8.25 15.797h16.531c0 13.609-.25 24.546-.25 36.203 0 3.656 0 7.546.25 11.906.485 16.531 24.547 43.5 49.563 43.5 8.75 0 15.797-2.188 25.031-7.766l-.234 38.39L111.78 2.439h2.422zM55.89-56.624c-8.016 0-16.532-6.797-16.766-22.344l-.484-53.469h54.672v58.079C77.766-63.188 65.608-56.625 55.89-56.625zm0 0"/></symbol></defs><use xlink:href="#dfbe21d2a" x="57.3245" y="200.25"/></svg>