<?xml version='1.0' encoding='UTF-8'?>
<svg xmlns="http://www.w3.org/2000/svg" xmlns:xlink="http://www.w3.org/1999/xlink" width="250px" height="250px" viewBox="0 0 250 250" y="0px" x="0px" enable-background="new 0 0 250 250"><defs><symbol overflow="visible" id="eb0a865ba"><path d="M94.531-132.438c.235 16.532.485 28.188.485 43.985 0 21.625-6.079 26.734-17.016 34.266l14.578 15.796c16.047-11.187 22.36-17.25 22.36-46.172 0-10.687-.485-34.015-.735-47.874h28.688v-2.422l-8.266-15.797H-6.797v2.422l8.25 15.797h19.438c-.235 20.906-.485 36.703-.485 62.453 0 20.89 3.172 24.296 47.39 53.218C99.876 4.125 106.188 8.75 106.188 15.062c0 3.407-1.703 6.079-6.078 9.235l14.344 15.562c8.5-5.359 13.36-11.922 13.36-19.203 0-10.687-7.532-17.5-50.532-45.687-33.781-22.11-36.219-25.75-36.219-41.797 0-26.484 0-39.61.25-65.61zm0 0"/></symbol></defs><use xlink:href="#eb0a865ba" x="56.96" y="200.25"/></svg>