<?xml version='1.0' encoding='UTF-8'?>
<svg xmlns="http://www.w3.org/2000/svg" xmlns:xlink="http://www.w3.org/1999/xlink" width="250px" height="250px" viewBox="0 0 250 250" y="0px" x="0px" enable-background="new 0 0 250 250"><defs><symbol overflow="visible" id="93ffe7eca"><path d="M73.656 4.578l11.672-9.61-47.812-49.187c15.328-3.656 23.797-16 23.797-53.515 0-2.985-.235-12.36-.688-16.938h86.234l-.453 38.203c-8.703-11.672-21.047-19.437-36.61-19.437-18.75 0-35 11.656-35 30.187 0 21.735 20.141 40.266 39.813 40.266 11.891 0 18.75-2.984 31.563-12.578l-.234 38.422L164.25 2.28h2.281l-.453-126.953h26.766v-2.281l-7.781-14.875H-6.407v2.297l7.782 14.86h40.25c0 2.515.469 6.859.469 14.421 0 7.547-.235 18.516-1.828 26.063-5.5-.672-13.735-1.36-18.078-1.36-8.235 0-11.672 2.281-11.672 7.313 0 5.265 4.359 13.5 15.562 27.218L71.375 4.578zm34.547-54.219c-9.156 0-16.937-5.03-16.937-16.468 0-15.547 10.75-22.875 24.03-22.875 11.438 0 23.329 6.171 31.11 14.875v2.734c-19 17.625-29.281 21.734-38.203 21.734zm0 0"/></symbol></defs><use xlink:href="#93ffe7eca" x="31.78437" y="191.75"/></svg>