<?xml version='1.0' encoding='UTF-8'?>
<svg xmlns="http://www.w3.org/2000/svg" xmlns:xlink="http://www.w3.org/1999/xlink" width="250px" height="250px" viewBox="0 0 250 250" y="0px" x="0px" enable-background="new 0 0 250 250"><defs><symbol overflow="visible" id="c8558676a"><path d="M108.625-10.203l19.438 12.64h2.421L130-132.438h28.438v-2.421l-8.266-15.797H-6.797v2.422l8.25 15.797h15.563c-2.188 3.156-3.407 7.046-3.407 11.187 0 13.36 12.157 23.328 23.328 32.063-2.921 3.656-4.624 8.03-4.624 13.124 0 17.75 18.953 43.75 46.171 43.75 9.72 0 20.907-3.406 30.375-9zM88.203-84.078L78.484-104c-12.625.969-24.046 3.39-32.312 7.531-8.016-6.078-10.938-13.86-10.938-19.203 0-8.5 6.563-14.094 17.25-16.766h57.11l-.485 65.86C91.125-52.968 77.516-48.11 69.016-48.11c-10.704 0-18.72-7.297-18.72-16.532 0-10.203 10.454-18.953 37.907-19.437zm0 0"/></symbol></defs><use xlink:href="#c8558676a" x="49.184" y="200.25"/></svg>