<?xml version='1.0' encoding='UTF-8'?>
<svg xmlns="http://www.w3.org/2000/svg" xmlns:xlink="http://www.w3.org/1999/xlink" width="250px" height="250px" viewBox="0 0 250 250" y="0px" x="0px" enable-background="new 0 0 250 250"><defs><symbol overflow="visible" id="26ef3ff1a"><path d="M123.688-10.203l19.437 12.64h2.438l-.485-134.875H173.5v-2.421l-8.266-15.797H-6.796v2.422l8.25 15.797h123.202l-.234 31.828c-6.078-4.125-12.406-6.063-17.75-6.063-11.172 0-20.406 7.281-27.938 16.281-8.5-9.718-18.468-18.953-33.296-18.953-20.891 0-33.532 16.516-33.532 36.688 0 25.75 19.688 45.922 49.813 75.094h2.437l10.438-8.516c-33.766-26.485-43.25-40.578-43.25-58.313 0-17.25 9.484-26.984 22.61-26.984 7.53 0 14.327 3.656 19.437 8.75-4.141 6.563-7.297 13.125-9.485 18.719l18.719 9.234c11.906-25.766 21.625-36.203 34.266-36.203 2.671 0 5.093.719 7.28 1.453zm0 0"/></symbol></defs><use xlink:href="#26ef3ff1a" x="41.651" y="200.25"/></svg>