<?xml version='1.0' encoding='UTF-8'?>
<svg xmlns="http://www.w3.org/2000/svg" xmlns:xlink="http://www.w3.org/1999/xlink" width="250px" height="250px" viewBox="0 0 250 250" y="0px" x="0px" enable-background="new 0 0 250 250"><defs><symbol overflow="visible" id="1d33c8a6a"><path d="M43.984-104.969c-6.312-3.172-11.906-7.047-11.906-14.094 0-10.703 11.906-17.5 22.844-17.5 8.984 0 16.516 4.125 16.516 15.063 0 17.734-18.47 26-47.86 34.5 6.313 29.89 29.64 54.688 58.797 54.688 12.156 0 22.11-3.891 33.297-12.157l-.25 34.266 19.437 12.64h2.438l-.484-134.875h28.421v-2.421l-8.25-15.797H90.641v2.422l8.265 15.797h17.485l-.485 62.937c-9.953 10.453-26.969 21.625-42.765 21.625-14.329 0-27.704-9.469-27.704-24.047 25.282-9 43.016-18.469 43.016-38.406 0-19.438-17.984-43.484-43.25-43.484-19.203 0-32.078 12.875-32.078 27.937 0 12.875 9.469 24.063 24.781 24.063 1.953 0 2.922 0 6.078-.485zm0 0"/></symbol></defs><use xlink:href="#1d33c8a6a" x="45.782" y="200.25"/></svg>