<?xml version='1.0' encoding='UTF-8'?>
<svg xmlns="http://www.w3.org/2000/svg" xmlns:xlink="http://www.w3.org/1999/xlink" width="250px" height="250px" viewBox="0 0 250 250" y="0px" x="0px" enable-background="new 0 0 250 250"><defs><symbol overflow="visible" id="f6db7db3a"><path d="M5.953-59.25c17.61 37.297 45.75 57.656 75.25 57.656 29.734 0 41.406-17.843 41.406-29.75 0-18.75-17.609-36.828-30.187-36.828-9.156 0-32.719 5.719-37.984 5.719-5.485 0-12.126-5.719-12.126-15.094 0-7.094 5.266-10.516 14.876-10.516h48.265l2.75-1.843c0-10.75-.234-23.328-.469-34.766h30.657v-2.281l-7.782-14.875H-6.406v2.297l7.781 14.86h87.844v19.452H53.063c-18.75 0-27.22 7.547-27.22 18.75 0 19.438 21.048 40.485 36.141 40.485 7.782 0 27.453-5.485 36.375-5.485 5.5 0 8.704 3.657 8.704 8.688 0 9.843-5.954 24.031-31.344 24.031-30.89 0-48.719-21.281-61.078-45.531zm0 0"/></symbol></defs><use xlink:href="#f6db7db3a" x="59.00562" y="191.75"/></svg>