<?xml version='1.0' encoding='UTF-8'?>
<svg xmlns="http://www.w3.org/2000/svg" xmlns:xlink="http://www.w3.org/1999/xlink" width="250px" height="250px" viewBox="0 0 250 250" y="0px" x="0px" enable-background="new 0 0 250 250"><defs><symbol overflow="visible" id="78579cb2a"><path d="M135.11-132.438v-2.421l-8.266-15.797H-6.796v2.422l8.25 15.797H85.78v18.468H46.406c-22.343 0-34.984 5.11-34.984 20.406 0 17.5 16.765 40.11 37.422 40.11 11.172 0 31.343-6.563 40.093-6.563 5.344 0 10.938 2.188 10.938 11.172 0 16.532-20.406 26.969-40.828 27.703-11.172-14.828-22.11-21.875-28.672-21.875-5.828 0-8.75 5.844-8.75 12.391 0 17.5 19.922 23.828 33.531 25.516l24.547 42.78h2.188l12.64-8.03L69.5-5.11c18.953-2.188 46.406-14.094 46.406-34.5 0-14.828-14.812-37.907-30.86-37.907-9.234 0-34.5 6.797-43.984 6.797-9.234 0-13.359-7.047-13.359-13.36 0-6.312 3.89-11.905 25.266-11.905h49.578l2.922-1.938c0-10.703-.25-24.062-.5-34.516zm0 0"/></symbol></defs><use xlink:href="#78579cb2a" x="60.848" y="200.25"/></svg>