<?xml version='1.0' encoding='UTF-8'?>
<svg xmlns="http://www.w3.org/2000/svg" xmlns:xlink="http://www.w3.org/1999/xlink" width="250px" height="250px" viewBox="0 0 250 250" y="0px" x="0px" enable-background="new 0 0 250 250"><defs><symbol overflow="visible" id="9a401ffca"><path d="M101.094-132.438h30.125l-.969 122.235 19.438 12.64h2.437l-.5-134.875h28.438v-2.421l-8.266-15.797H-6.797v2.422l8.25 15.797h16.531c0 13.609-.25 26.968-.25 38.64 0 3.64 0 7.531.25 11.906.97 16.766 23.813 43.5 48.36 43.5 23.812 0 34.75-19.203 34.75-36.453zm-20.422 53.22c0 16.765-10.938 25.03-23.328 25.03-10.688 0-17.985-6.812-18.219-22.359l-.484-55.89h42.03zm0 0"/></symbol></defs><use xlink:href="#9a401ffca" x="38.3705" y="200.25"/></svg>