<?xml version='1.0' encoding='UTF-8'?>
<svg xmlns="http://www.w3.org/2000/svg" xmlns:xlink="http://www.w3.org/1999/xlink" width="250px" height="250px" viewBox="0 0 250 250" y="0px" x="0px" enable-background="new 0 0 250 250"><defs><symbol overflow="visible" id="78579cb2a"><path d="M127.188-124.672v-2.281l-7.782-14.875H-6.406v2.297l7.781 14.86H80.75v17.39H43.687c-21.046 0-32.937 4.797-32.937 19.219 0 16.468 15.781 37.734 35.234 37.734 10.516 0 29.5-6.172 37.735-6.172 5.031 0 10.297 2.063 10.297 10.516 0 15.562-19.22 25.39-38.422 26.078-10.532-13.953-20.828-20.578-27-20.578-5.485 0-8.235 5.484-8.235 11.656 0 16.469 18.75 22.422 31.563 24.031l23.11 40.25h2.062l11.89-7.547L65.422-4.797c17.844-2.062 43.687-13.281 43.687-32.484 0-13.953-13.953-35.688-29.046-35.688-8.688 0-32.485 6.406-41.407 6.406-8.687 0-12.578-6.64-12.578-12.578 0-5.953 3.656-11.218 23.797-11.218h46.656l2.75-1.829c0-10.062-.234-22.64-.469-32.484zm0 0"/></symbol></defs><use xlink:href="#78579cb2a" x="64.61" y="191.75"/></svg>