<?xml version='1.0' encoding='UTF-8'?>
<svg xmlns="http://www.w3.org/2000/svg" xmlns:xlink="http://www.w3.org/1999/xlink" width="250px" height="250px" viewBox="0 0 250 250" y="0px" x="0px" enable-background="new 0 0 250 250"><defs><symbol overflow="visible" id="fc555f6ea"><path d="M79.61-96.984c0-22.188-20.141-47.813-43.235-47.813-11.672 0-24.25 7.547-24.25 21.734 0 13.954 10.297 26.532 27.906 26.532.235 0 1.375 0 4.578-.453V-99.5c-6.859-3.672-14.64-8.469-14.64-16.469 0-7.781 7.312-12.812 14.86-12.812 10.53 0 16.25 5.719 16.25 26.078 0 13.031-.923 22.187-2.063 31.797H43c-4.11 0-5.719 2.515-5.719 5.484 0 11.438 21.735 33.86 31.797 33.86 5.719 0 6.406-5.954 8.469-22.188h45.984l-.234 44.14 18.297 11.891h2.297l-.47-126.953h26.767v-2.281l-7.782-14.875h-78v2.297l7.781 14.86h32.032l-.469 53.765H78.687c.688-10.297.922-20.36.922-26.078zm0 0"/></symbol></defs><use xlink:href="#fc555f6ea" x="43.1075" y="191.75"/></svg>