<?xml version='1.0' encoding='UTF-8'?>
<svg xmlns="http://www.w3.org/2000/svg" xmlns:xlink="http://www.w3.org/1999/xlink" width="250px" height="250px" viewBox="0 0 250 250" y="0px" x="0px" enable-background="new 0 0 250 250"><defs><symbol overflow="visible" id="a957e634a"><path d="M103.172-124.672h77.766v-2.281l-7.782-14.875H-6.406v2.297l7.781 14.86h83.031l-.453 40.952c-9.156-11.219-21.969-20.36-37.516-20.36-18.078 0-36.14 12.126-36.14 31.798 0 18.984 17.375 40.719 40.937 40.719 12.125 0 20.141-5.5 32.485-14.875l-.453 36.374 18.296 12.344h2.297l-.234-63.125c10.297-8.922 25.39-19.218 34.547-19.218 5.719 0 10.969 4.343 10.969 12.124 0 10.063-8.688 26.313-19.203 38.891l15.78 13.485h1.829c10.297-14.172 16.234-25.844 16.234-40.032 0-27.437-22.187-41.625-33.172-41.625-7.547 0-18.75 6.64-27.218 13.031zM42.094-46.203c-8.235 0-15.328-5.5-15.328-17.156 0-14.875 12.578-23.11 25.625-23.11 11.89 0 23.328 6.86 31.328 15.328v1.829c-13.953 10.75-29.735 23.109-41.625 23.109zm0 0"/></symbol></defs><use xlink:href="#a957e634a" x="37.73188" y="191.75"/></svg>