<?xml version='1.0' encoding='UTF-8'?>
<svg xmlns="http://www.w3.org/2000/svg" xmlns:xlink="http://www.w3.org/1999/xlink" width="250px" height="250px" viewBox="0 0 250 250" y="0px" x="0px" enable-background="new 0 0 250 250"><defs><symbol overflow="visible" id="d490d543a"><path d="M117.344-124.672h26.765v-2.281l-7.78-14.875H-6.407v2.297l7.781 14.86h96.766l-.235 43.015h-.234c-10.297-17.39-25.156-25.172-43.922-25.172-24.469 0-44.375 13.5-44.375 33.406 0 17.61 16.016 44.14 49.188 44.14 13.953 0 29.28-4.577 38.656-16.921h.234L97.22-9.61l18.297 11.89h2.296zM25.625-64.5c0-8.25 5.031-15.328 11.89-19.453L67.25-46.672c-5.031 1.61-10.297 2.75-15.547 2.75-14.64 0-26.078-8.469-26.078-20.578zm35.688-25.625c13.953 0 26.53 4.797 26.53 18.063 0 8.234-4.577 15.796-11.671 20.593L46.89-88.062c4.578-1.61 9.843-2.063 14.422-2.063zm0 0"/></symbol></defs><use xlink:href="#d490d543a" x="56.14625" y="191.75"/></svg>