<?xml version='1.0' encoding='UTF-8'?>
<svg xmlns="http://www.w3.org/2000/svg" xmlns:xlink="http://www.w3.org/1999/xlink" width="250px" height="250px" viewBox="0 0 250 250" y="0px" x="0px" enable-background="new 0 0 250 250"><defs><symbol overflow="visible" id="12782573a"><path d="M42.313-99.969l9.843 17.625c8.235-3.89 18.297-7.781 26.985-7.781 11.437 0 17.156 6.86 17.156 18.984 0 19.22-13.484 26.985-27.906 26.985-22.407 0-38.422-19.438-53.75-45.75l-8.688 5.265c24.703 43.235 44.14 57.875 67.469 57.875 19 0 37.062-9.828 38.203-31.562l.922-.453c3.656 3.656 10.984 9.14 19.219 9.14 1.593 0 3.656-.234 5.25-.687l-.22 40.719 18.298 11.89h2.281l-.453-126.953h26.766v-2.281l-7.782-14.875H-6.406v2.297l7.781 14.86h136.328l-.453 51.25c-4.344 3.874-9.156 5.937-15.563 5.937-5.03 0-8.234-1.375-11.203-2.97-3.89-18.077-17.843-37.062-39.578-37.062-8 0-18.515 2.516-28.594 7.547zm0 0"/></symbol></defs><use xlink:href="#12782573a" x="36.35938" y="191.75"/></svg>