<?xml version='1.0' encoding='UTF-8'?>
<svg xmlns="http://www.w3.org/2000/svg" xmlns:xlink="http://www.w3.org/1999/xlink" width="250px" height="250px" viewBox="0 0 250 250" y="0px" x="0px" enable-background="new 0 0 250 250"><defs><symbol overflow="visible" id="1d33c8a6a"><path d="M41.406-98.813c-5.953-2.984-11.218-6.64-11.218-13.28 0-10.063 11.218-16.47 21.515-16.47 8.453 0 15.547 3.891 15.547 14.188 0 16.703-17.375 24.469-45.063 32.484 5.954 28.141 27.907 51.47 55.36 51.47 11.437 0 20.812-3.657 31.344-11.438l-.235 32.25 18.297 11.89h2.297l-.469-126.953h26.766v-2.281l-7.781-14.875H85.328v2.297l7.766 14.86h16.484l-.469 59.25c-9.375 9.827-25.39 20.359-40.25 20.359-13.5 0-26.078-8.922-26.078-22.641 23.782-8.469 40.485-17.39 40.485-36.156 0-18.297-16.922-40.938-40.72-40.938-18.077 0-30.187 12.125-30.187 26.297 0 12.125 8.922 22.656 23.328 22.656 1.829 0 2.75 0 5.72-.453zm0 0"/></symbol></defs><use xlink:href="#1d33c8a6a" x="50.4275" y="191.75"/></svg>