<?xml version='1.0' encoding='UTF-8'?>
<svg xmlns="http://www.w3.org/2000/svg" xmlns:xlink="http://www.w3.org/1999/xlink" width="250px" height="250px" viewBox="0 0 250 250" y="0px" x="0px" enable-background="new 0 0 250 250"><defs><symbol overflow="visible" id="a569e753a"><path d="M159.672-124.672h26.766v-2.281l-7.782-14.875h-70.453v2.297l7.766 14.86h24.484L140-78.688c-5.266 4.343-13.266 7.546-21.281 7.546-18.297 0-23.094-10.984-27.219-14.406 5.719-6.406 6.64-11.672 6.64-16.703 0-14.406-10.765-42.547-38.671-42.547-9.828 0-24.235 3.656-37.735 11.438l10.063 17.156c12.578-7.781 27.219-12.125 35.906-12.125 10.531 0 15.328 5.953 15.328 13.719 0 7.328-4.344 14.875-12.578 20.14h-2.062c-10.282 0-20.579 4.344-28.813 8.922l9.828 16.688c7.094-3.422 16.938-7.766 25.39-7.766 10.063 0 18.766 5.938 18.766 17.156 0 16-14.64 26.532-29.734 26.532-23.797 0-35-21.5-46.906-43.235L8.234-71.14c15.782 30.188 32.72 54.907 62.453 54.907 22.188 0 38.891-13.735 38.891-32.485 0-4.125-.687-8.468-2.516-12.812l.907-.453c6.172 3.875 14.875 7.547 23.562 7.547 2.969 0 5.719-.235 8.235-1.157l-.235 45.985 18.313 11.89h2.281zm0 0"/></symbol></defs><use xlink:href="#a569e753a" x="34.98687" y="191.75"/></svg>