<?xml version='1.0' encoding='UTF-8'?>
<svg xmlns="http://www.w3.org/2000/svg" xmlns:xlink="http://www.w3.org/1999/xlink" width="250px" height="250px" viewBox="0 0 250 250" y="0px" x="0px" enable-background="new 0 0 250 250"><defs><symbol overflow="visible" id="b03e6e1ca"><path d="M99.625-132.438h38.156v-2.421l-8.265-15.797H-6.797v2.422l8.25 15.797h78.5v26.734H65.36c-31.093 0-52.234 8.016-52.234 35.469 0 34.75 34.266 61.25 65.844 61.25 17.5 0 33.297-8.032 45.937-21.641l-14.578-14.813C99.141-34.5 85.297-26.968 67.797-26.968c-19.922 0-36.453-9.97-36.453-31.11 0-19.688 14.093-29.406 34.75-29.406h31.11l2.905-1.938c0-11.422-.234-30.86-.484-43.016zm0 0"/></symbol></defs><use xlink:href="#b03e6e1ca" x="59.5115" y="200.25"/></svg>