<?xml version='1.0' encoding='UTF-8'?>
<svg xmlns="http://www.w3.org/2000/svg" xmlns:xlink="http://www.w3.org/1999/xlink" width="250px" height="250px" viewBox="0 0 250 250" y="0px" x="0px" enable-background="new 0 0 250 250"><defs><symbol overflow="visible" id="26ef3ff1a"><path d="M116.438-9.61l18.296 11.891h2.282l-.453-126.953h26.765v-2.281l-7.781-14.875H-6.406v2.297l7.781 14.86h115.969l-.219 29.968c-5.719-3.89-11.672-5.719-16.703-5.719-10.516 0-19.219 6.86-26.313 15.328-8-9.156-17.375-17.844-31.328-17.844-19.672 0-31.578 15.563-31.578 34.547 0 24.235 18.531 43.235 46.906 70.672h2.282l9.828-8C38.438-30.656 29.516-43.922 29.516-60.625c0-16.234 8.922-25.39 21.265-25.39 7.094 0 13.5 3.437 18.297 8.234-3.89 6.187-6.86 12.36-8.922 17.625l17.625 8.687c11.203-24.25 20.36-34.078 32.25-34.078 2.516 0 4.797.688 6.86 1.36zm0 0"/></symbol></defs><use xlink:href="#26ef3ff1a" x="46.53875" y="191.75"/></svg>