<?xml version='1.0' encoding='UTF-8'?>
<svg xmlns="http://www.w3.org/2000/svg" xmlns:xlink="http://www.w3.org/1999/xlink" width="250px" height="250px" viewBox="0 0 250 250" y="0px" x="0px" enable-background="new 0 0 250 250"><defs><symbol overflow="visible" id="e6e37762a"><path d="M78.688-32.031c-4.579 2.75-11.438 3.672-16.922 3.672-16.016 0-32.032-12.36-32.032-34.094 0-15.547 12.578-23.094 32.032-23.094h32.25l2.75-1.828c0-10.766-.235-25.86-.47-37.297h30.657v-2.281l-7.781-14.875H-6.406v2.297l7.781 14.86h76.406v21.968H60.625c-28.828 0-48.047 6.625-48.047 30.422 0 30.875 29.735 59.703 61.313 59.703 5.718 0 10.515-.688 14.406-1.828l21.047 36.828h2.062l11.89-7.547-24.702-34.313c7.094-5.5 10.062-12.593 10.062-16.937 0-10.75-17.844-20.813-28.14-20.813-4.797 0-8 2.282-8 7.313 0 4.813 2.75 11.438 6.171 17.844zm0 0"/></symbol></defs><use xlink:href="#e6e37762a" x="64.72437" y="191.75"/></svg>