<?xml version='1.0' encoding='UTF-8'?>
<svg xmlns="http://www.w3.org/2000/svg" xmlns:xlink="http://www.w3.org/1999/xlink" width="250px" height="250px" viewBox="0 0 250 250" y="0px" x="0px" enable-background="new 0 0 250 250"><defs><symbol overflow="visible" id="a519a031a"><path d="M115.063-124.672l-.454 59.938c-21.046 17.39-34.093 20.812-42.78 20.812-10.985 0-21.282-5.266-21.282-19.437 0-20.141 21.281-21.97 41.406-21.97 3.203 0 4.578 0 9.61.235v-2.281l-7.547-14.64H8.469v2.28l8 15.094h21.734c-2.75 4.344-4.125 8.922-4.125 13.735 0 17.844 17.625 41.625 48.5 41.625 9.156 0 18.078-1.828 31.797-11.89l-.234 31.562 18.312 11.89h2.281l-.453-126.953h26.766v-2.281l-7.781-14.875H-6.406v2.297l7.781 14.86zm0 0"/></symbol></defs><use xlink:href="#a519a031a" x="47.6825" y="191.75"/></svg>