<?xml version='1.0' encoding='UTF-8'?>
<svg xmlns="http://www.w3.org/2000/svg" xmlns:xlink="http://www.w3.org/1999/xlink" width="250px" height="250px" viewBox="0 0 250 250" y="0px" x="0px" enable-background="new 0 0 250 250"><defs><symbol overflow="visible" id="758af7a4a"><path d="M103.172-60.625c10.969-8.688 27.672-19.203 36.14-19.203 5.938 0 11.891 5.031 11.891 12.125 0 10.516-8 27.219-18.75 39.797l15.781 13.5h1.828c10.297-14.188 15.782-26.313 15.782-40.5 0-27.438-23.11-42.078-34.313-42.078-7.781 0-19.906 6.859-28.594 13.03l-.234-40.718H183v-2.281l-7.781-14.875H-6.406v2.297l7.781 14.86h15.781c0 12.359-.234 23.562-.234 34.093 0 3.422 0 7.078.234 11.203.453 16.234 23.563 40.938 45.297 40.938 7.547 0 12.578-2.282 20.578-7.547l-.219 35.922L101.11 2.28h2.282zm-51.25 7.328c-6.86 0-14.64-6.64-14.86-21.047l-.468-50.328h47.125L83.266-70C70-59.703 60.625-53.297 51.922-53.297zm0 0"/></symbol></defs><use xlink:href="#758af7a4a" x="36.7025" y="191.75"/></svg>