<?xml version='1.0' encoding='UTF-8'?>
<svg xmlns="http://www.w3.org/2000/svg" xmlns:xlink="http://www.w3.org/1999/xlink" width="250px" height="250px" viewBox="0 0 250 250" y="0px" x="0px" enable-background="new 0 0 250 250"><defs><symbol overflow="visible" id="06963b90a"><path d="M92.64-9.61l18.297 11.891h2.297l-.453-126.953h26.75v-2.281l-7.765-14.875H-6.406v2.297l7.781 14.86h35.688c4.562 7.546 6.624 13.046 6.624 17.39 0 10.297-10.75 16.703-34.53 22.422C14.64-54.672 38.89-31.11 66.108-31.11c9.157 0 18.532-2.75 26.766-8.235zM57.188-45.515c-15.562 0-27.671-11.672-28.14-25.39 22.187-6.188 31.11-14.875 31.11-26.547 0-7.547-3.657-15.781-10.282-27.219h43.688l-.47 62.906c-12.577 10.532-25.156 16.25-35.906 16.25zm0 0"/></symbol></defs><use xlink:href="#06963b90a" x="58.43375" y="191.75"/></svg>