<?xml version='1.0' encoding='UTF-8'?>
<svg xmlns="http://www.w3.org/2000/svg" xmlns:xlink="http://www.w3.org/1999/xlink" width="250px" height="250px" viewBox="0 0 250 250" y="0px" x="0px" enable-background="new 0 0 250 250"><defs><symbol overflow="visible" id="dfbe21d2a"><path d="M107.063-124.672h26.75v-2.281l-7.766-14.875H-6.406v2.297l7.781 14.86h15.547c0 12.812-.219 23.109-.219 34.093 0 3.422 0 7.078.219 11.203.469 15.547 23.11 40.938 46.672 40.938 8.234 0 14.875-2.047 23.562-7.313l-.234 36.14 18.297 11.891h2.297zM52.608-53.297c-7.547 0-15.547-6.406-15.78-21.047l-.454-50.328h51.469V-70c-14.64 10.531-26.078 16.703-35.235 16.703zm0 0"/></symbol></defs><use xlink:href="#dfbe21d2a" x="61.29312" y="191.75"/></svg>