<?xml version='1.0' encoding='UTF-8'?>
<svg xmlns="http://www.w3.org/2000/svg" xmlns:xlink="http://www.w3.org/1999/xlink" width="250px" height="250px" viewBox="0 0 250 250" y="0px" x="0px" enable-background="new 0 0 250 250"><defs><symbol overflow="visible" id="f87072b2a"><path d="M73.656 4.578l11.672-9.61-47.812-49.187c16.703-3.656 25.156-16 25.156-53.515 0-2.985-.219-12.36-.688-16.938h34.547v-2.281l-7.781-14.875H-6.406v2.297l7.781 14.86H43c0 2.515.469 6.859.469 14.421 0 7.547-.235 18.516-1.844 26.063-5.484-.672-15.094-1.36-19.438-1.36-8.234 0-11.671 2.281-11.671 7.313 0 5.265 4.359 13.5 15.562 27.218L71.375 4.578zm0 0"/></symbol></defs><use xlink:href="#f87072b2a" x="79.93625" y="191.75"/></svg>