<?xml version='1.0' encoding='UTF-8'?>
<svg xmlns="http://www.w3.org/2000/svg" xmlns:xlink="http://www.w3.org/1999/xlink" width="250px" height="250px" viewBox="0 0 250 250" y="0px" x="0px" enable-background="new 0 0 250 250"><defs><symbol overflow="visible" id="81255996a"><path d="M135.594-10.203l19.437 12.64h2.438l-.485-134.875h28.422v-2.421l-8.265-15.797H-6.797v2.422l8.25 15.797h135.11l-.235 27.953h-73.14v2.671l6.546 14.094c15.797 7.047 23.829 17.485 23.829 27.938 0 10.687-8.032 19.437-21.157 19.437-21.625 0-40.328-24.047-57.094-59.531L5.345-95.5c17.984 38.64 40.578 74.844 73.625 74.844 17.984 0 33.781-10.938 33.781-29.89 0-12.392-6.797-22.36-19.688-35.72h43.016zm0 0"/></symbol></defs><use xlink:href="#81255996a" x="35.6975" y="200.25"/></svg>