<?xml version='1.0' encoding='UTF-8'?>
<svg xmlns="http://www.w3.org/2000/svg" xmlns:xlink="http://www.w3.org/1999/xlink" width="250px" height="250px" viewBox="0 0 250 250" y="0px" x="0px" enable-background="new 0 0 250 250"><defs><symbol overflow="visible" id="c958e153a"><path d="M69.734-119.313h2.188c.25-1.937.484-4.124.484-6.562 0-14.094-8.015-27.938-28.672-27.938-17.734 0-30.609 10.204-30.609 26.235 0 15.312 12.14 28.187 26.234 35.719-6.312 5.593-8.5 12.156-8.5 17.984 0 17.984 19.922 44.953 51.766 44.953 9.953 0 21.625-2.672 33.766-10.203l-.235 29.156 19.188 12.406h2.437l-.484-134.875h28.422v-2.421l-8.25-15.797H87.234v2.422l8.266 15.797h21.625l-.484 68.28C96.953-49.093 82.625-44.718 72.656-44.718c-12.875 0-24.062-7.281-24.062-18.468 0-11.657 11.422-21.626 45.937-25.016l-9-18.953c-14.578 1.453-24.047 5.828-33.281 5.828-10.453 0-21.39-5.828-21.39-18.469 0-10.203 7.53-17.25 18.718-17.25 9.469 0 16.031 4.61 20.156 17.734zm0 0"/></symbol></defs><use xlink:href="#c958e153a" x="45.539" y="200.25"/></svg>