<?xml version='1.0' encoding='UTF-8'?>
<svg xmlns="http://www.w3.org/2000/svg" xmlns:xlink="http://www.w3.org/1999/xlink" width="250px" height="250px" viewBox="0 0 250 250" y="0px" x="0px" enable-background="new 0 0 250 250"><defs><symbol overflow="visible" id="1ebb3a56a"><path d="M137.36-85.516c0-3.832 1.124-6.945 3.374-9.343 2.258-2.395 5.211-3.594 8.86-3.594a11.7 11.7 0 0 1 4.797 1.016c1.52.68 2.851 1.605 4 2.78a12.673 12.673 0 0 1 2.672 4.141c.632 1.586.953 3.32.953 5.204 0 3.843-1.133 6.949-3.391 9.312-2.25 2.355-5.195 3.531-8.828 3.531-1.75 0-3.387-.316-4.906-.953a11.562 11.562 0 0 1-3.953-2.734c-1.106-1.176-1.981-2.555-2.625-4.14-.637-1.583-.954-3.321-.954-5.22zm35.077-50.328h-50.953v37.297H70.86c-4.992 0-8.449.711-10.375 2.125-1.918 1.418-2.875 3.711-2.875 6.875 0 1.617.203 3.297.61 5.047a13.867 13.867 0 0 0 2.218 4.906c1.083 1.512 2.551 2.758 4.407 3.735 1.851.98 4.226 1.468 7.125 1.468h28.594c5.937 0 10.94.809 15.015 2.422 4.07 1.617 7.336 3.84 9.797 6.672 2.469 2.836 4.238 6.172 5.313 10.016 1.082 3.836 1.625 7.945 1.625 12.328 0 5.992-.997 11.715-2.985 17.172-1.992 5.46-4.937 10.281-8.844 14.468-3.906 4.18-8.777 7.512-14.609 10-5.836 2.489-12.621 3.735-20.36 3.735-8.43 0-16.5-1.563-24.218-4.688-7.711-3.132-14.781-7.5-21.219-13.093-6.437-5.594-12.101-12.227-16.984-19.907-4.887-7.687-8.711-16.113-11.469-25.28l14.047-5.563c2.351 6.949 5.484 13.625 9.39 20.03 3.915 6.4 8.454 12.056 13.61 16.97 5.156 4.918 10.832 8.843 17.031 11.78 6.195 2.93 12.734 4.392 19.61 4.392 4.843 0 9.164-.708 12.968-2.126 3.813-1.414 7.067-3.437 9.766-6.062 2.695-2.625 4.754-5.77 6.172-9.438 1.414-3.675 2.125-7.804 2.125-12.39 0-3.238-.375-5.883-1.125-7.938-.742-2.05-1.903-3.648-3.485-4.797-1.586-1.144-3.59-1.937-6.015-2.374-2.43-.438-5.324-.657-8.688-.657H70.547c-4.98 0-9.293-1.078-12.938-3.234-3.636-2.156-6.652-4.883-9.047-8.188-2.386-3.3-4.152-6.957-5.296-10.968-1.149-4.008-1.72-7.868-1.72-11.579 0-3.976.634-7.296 1.907-9.953 1.281-2.664 3.031-4.789 5.25-6.375 2.227-1.582 4.875-2.707 7.938-3.375 3.07-.675 6.394-1.015 9.968-1.015h38.313v-22.438H-3.531v-14.86h175.969zm0 0"/></symbol></defs><use xlink:href="#1ebb3a56a" x="40.55249" y="200"/></svg>