<?xml version='1.0' encoding='UTF-8'?>
<svg xmlns="http://www.w3.org/2000/svg" xmlns:xlink="http://www.w3.org/1999/xlink" width="250px" height="250px" viewBox="0 0 250 250" y="0px" x="0px" enable-background="new 0 0 250 250"><defs><symbol overflow="visible" id="73ec9f8ca"><path d="M98.953-135.844H66.61c3.438 5.93 6.211 11.977 8.329 18.14 2.124 6.169 3.187 12.419 3.187 18.75 0 4.782-.727 9.384-2.172 13.798-1.45 4.418-3.574 8.36-6.375 11.828-2.793 3.469-6.262 6.305-10.406 8.5-4.137 2.187-8.902 3.414-14.297 3.672l-.203.515a209.24 209.24 0 0 0 20.406 26.735C72.628-25.52 81.36-17.551 91.266-10L80.453 2.422A166.729 166.729 0 0 1 64.125-11.36a233.4 233.4 0 0 1-14.594-15.375 241.9 241.9 0 0 1-12.797-16.063c-3.937-5.426-7.543-10.719-10.812-15.875-3.262-5.156-6.172-10.11-8.735-14.86-2.562-4.75-4.757-9.077-6.578-12.984L24.453-94c2.426 5.262 5.172 9.39 8.235 12.39 3.07 2.993 6.628 4.485 10.671 4.485 2.895 0 5.489-.738 7.782-2.219 2.289-1.476 4.21-3.379 5.765-5.703 1.551-2.332 2.727-4.894 3.532-7.687.812-2.801 1.218-5.547 1.218-8.235a36.3 36.3 0 0 0-1.218-9.344 61.052 61.052 0 0 0-3.126-9 87.8 87.8 0 0 0-4.296-8.546c-1.586-2.758-3.118-5.422-4.594-7.985H-3.531v-14.86H98.953zm0 0"/></symbol></defs><use xlink:href="#73ec9f8ca" x="77.29297" y="200"/></svg>