<?xml version='1.0' encoding='UTF-8'?>
<svg xmlns="http://www.w3.org/2000/svg" xmlns:xlink="http://www.w3.org/1999/xlink" width="250px" height="250px" viewBox="0 0 250 250" y="0px" x="0px" enable-background="new 0 0 250 250"><defs><symbol overflow="visible" id="fb0f5a71a"><path d="M126.64-135.844h-28.5v44.375H64.079c-10.574 0-18.558 2.61-23.953 7.828-5.387 5.22-8.078 12.715-8.078 22.485 0 5.531.89 10.422 2.672 14.672 1.781 4.242 4.238 7.793 7.375 10.656 3.133 2.867 6.86 5.039 11.172 6.516 4.312 1.48 8.992 2.218 14.047 2.218 5.32 0 9.601-.804 12.843-2.422a80.187 80.187 0 0 1-.61-4.437 36.198 36.198 0 0 1-.202-3.844c0-2.832.351-5.75 1.062-8.75.707-3 1.785-5.726 3.235-8.187 1.445-2.457 3.296-4.461 5.546-6.016 2.258-1.55 4.973-2.328 8.141-2.328 1.957 0 3.813.34 5.563 1.016a12.51 12.51 0 0 1 4.593 3.093c1.32 1.375 2.368 3.11 3.141 5.203.77 2.086 1.156 4.508 1.156 7.266 0 2.773-.37 5.32-1.11 7.64a31.452 31.452 0 0 1-2.874 6.47 38.223 38.223 0 0 1-4 5.562 88.877 88.877 0 0 1-4.344 4.687c1.488 3.243 3.055 6.141 4.703 8.703 1.656 2.555 3.375 4.844 5.156 6.876a61.578 61.578 0 0 0 5.407 5.453c1.82 1.613 3.64 3.129 5.453 4.546L107.75 16.47c-3.574-3.168-6.625-6.32-9.156-9.453-2.524-3.125-4.64-6.07-6.36-8.829-1.718-2.769-3.12-5.265-4.203-7.484a383.484 383.484 0 0 0-2.625-5.36c-4.648 1.825-10.375 2.735-17.187 2.735-8.762 0-16.406-1.43-22.938-4.297-6.531-2.863-11.976-6.703-16.328-11.515-4.344-4.82-7.594-10.332-9.75-16.532-2.156-6.195-3.234-12.632-3.234-19.312 0-6.938 1.11-13.05 3.328-18.344 2.226-5.289 5.328-9.738 9.297-13.344 3.976-3.601 8.71-6.332 14.203-8.187 5.5-1.852 11.516-2.781 18.047-2.781h20.718v-29.61H-3.53v-14.86H126.64zm0 0"/></symbol></defs><use xlink:href="#fb0f5a71a" x="63.4458" y="200"/></svg>