<?xml version='1.0' encoding='UTF-8'?>
<svg xmlns="http://www.w3.org/2000/svg" xmlns:xlink="http://www.w3.org/1999/xlink" width="250px" height="250px" viewBox="0 0 250 250" y="0px" x="0px" enable-background="new 0 0 250 250"><defs><symbol overflow="visible" id="3a6fa4d9a"><path d="M82.078-86.922c0-4.039.484-7.676 1.453-10.906.977-3.238 2.313-6.086 4-8.547 1.688-2.457 3.692-4.508 6.016-6.156a27.517 27.517 0 0 1 7.625-3.813v-19.5H-3.531v-14.86h165.047v14.86H117.75v18.906c3.977.876 7.703 2.512 11.172 4.907 3.469 2.386 6.46 5.449 8.984 9.187 2.531 3.742 4.52 8.137 5.969 13.188 1.445 5.054 2.172 10.715 2.172 16.984 0 6.668-.844 13.152-2.531 19.453-1.68 6.305-4.07 12.235-7.172 17.797a77.772 77.772 0 0 1-11.172 15.313 70.361 70.361 0 0 1-14.656 11.968c-5.418 3.336-11.278 5.93-17.579 7.782-6.304 1.851-12.921 2.78-19.859 2.78-7.48 0-13.969-1.026-19.469-3.077-5.492-2.051-10.054-4.742-13.687-8.078-3.637-3.344-6.352-7.149-8.14-11.422-1.782-4.282-2.673-8.614-2.673-13 0-3.301.504-6.633 1.516-10a29.825 29.825 0 0 1 4.656-9.297l-.203-.516c-5.125-1.883-9.121-4.273-11.984-7.172-2.867-2.894-5.008-5.82-6.422-8.78-1.406-2.97-2.266-5.75-2.578-8.345-.305-2.593-.453-4.53-.453-5.812 0-4.852.804-9.098 2.421-12.734 1.625-3.645 3.833-6.676 6.625-9.094 2.801-2.426 6.036-4.242 9.704-5.453 3.675-1.22 7.535-1.829 11.578-1.829 3.226 0 6.426.387 9.593 1.157 3.165.773 6.301 2 9.407 3.687v14.766a52.67 52.67 0 0 0-8.547-2.984c-2.992-.782-5.902-1.172-8.734-1.172-2.157 0-4.215.273-6.172.812-1.95.543-3.649 1.402-5.094 2.578-1.45 1.18-2.594 2.696-3.438 4.547-.843 1.856-1.265 4.094-1.265 6.719 0 3.031.535 5.68 1.61 7.937 1.081 2.262 2.483 4.153 4.202 5.672a18.149 18.149 0 0 0 5.75 3.438c2.125.773 4.196 1.156 6.219 1.156 2.5 0 5.363-.438 8.594-1.313a167.85 167.85 0 0 0 9.703-2.937l4.25 14.25c-4.45.875-8.258 2.074-11.422 3.594-3.168 1.511-5.73 3.246-7.688 5.203-1.949 1.96-3.382 4.07-4.296 6.328-.907 2.25-1.36 4.555-1.36 6.906 0 2.7.586 5.196 1.766 7.485 1.176 2.293 2.875 4.28 5.094 5.968 2.226 1.68 4.976 2.993 8.25 3.938 3.27.95 6.992 1.422 11.172 1.422 5.593 0 11.066-.875 16.421-2.625a60.728 60.728 0 0 0 15-7.328c4.657-3.133 8.852-6.875 12.594-11.22a61.877 61.877 0 0 0 9.25-14.405c-6.875-.07-12.976-1.051-18.297-2.938-5.324-1.883-9.808-4.508-13.453-7.875-3.637-3.375-6.383-7.398-8.234-12.078-1.844-4.688-2.766-9.828-2.766-15.422zm48 14.453c0-4.312-.476-8.219-1.422-11.719-.937-3.507-2.215-6.507-3.828-9-1.617-2.5-3.539-4.421-5.766-5.765-2.218-1.344-4.609-2.016-7.171-2.016-1.961 0-3.782.387-5.47 1.156a13.144 13.144 0 0 0-4.39 3.282c-1.242 1.418-2.215 3.12-2.922 5.11-.71 1.991-1.062 4.198-1.062 6.624 0 3.438.723 6.453 2.172 9.047 1.445 2.594 3.535 4.79 6.265 6.578 2.727 1.781 6.008 3.149 9.844 4.094 3.844.937 8.192 1.476 13.047 1.61.195-1.489.363-2.973.5-4.454a50.73 50.73 0 0 0 .203-4.547zm0 0"/></symbol></defs><use xlink:href="#3a6fa4d9a" x="46.0105" y="200"/></svg>