<?xml version='1.0' encoding='UTF-8'?>
<svg xmlns="http://www.w3.org/2000/svg" xmlns:xlink="http://www.w3.org/1999/xlink" width="250px" height="250px" viewBox="0 0 250 250" y="0px" x="0px" enable-background="new 0 0 250 250"><defs><symbol overflow="visible" id="d33406d6a"><path d="M123.313-135.844h-15.47V0H91.267v-48.719l-.407-.093c-4.71 4.042-9.914 6.992-15.609 8.843-5.7 1.844-11.406 2.766-17.125 2.766-5.805 0-11.094-.836-15.875-2.516-4.781-1.687-8.89-4.265-12.328-7.734-3.438-3.469-6.121-7.848-8.047-13.14C19.957-65.884 19-72.165 19-79.438v-56.407H-3.531v-14.86h126.844zM80.953-61.25l-45.172-63.469-.406.094v44.266c0 4.25.352 8.062 1.063 11.437.707 3.367 1.921 6.23 3.64 8.594 1.719 2.355 3.988 4.156 6.813 5.406 2.832 1.242 6.375 1.86 10.625 1.86 4.644 0 8.906-.672 12.78-2.016a40.695 40.695 0 0 0 10.766-5.672zm10.313-74.594H45.687v.297L90.767-70.25l.5-.703zm0 0"/></symbol></defs><use xlink:href="#d33406d6a" x="65.11353" y="200"/></svg>