<?xml version='1.0' encoding='UTF-8'?>
<svg xmlns="http://www.w3.org/2000/svg" xmlns:xlink="http://www.w3.org/1999/xlink" width="250px" height="250px" viewBox="0 0 250 250" y="0px" x="0px" enable-background="new 0 0 250 250"><defs><symbol overflow="visible" id="8ab0ef3ca"><path d="M115.156-126.656h-14.422V0H85.188v-72.656H41.093c0 4.148-.047 7.699-.14 10.656-.095 2.95-.368 5.383-.813 7.297-.438 1.918-1.102 3.32-1.985 4.203-.875.875-2.101 1.313-3.672 1.313-3.261 0-6.355-1.067-9.28-3.204-2.919-2.132-5.493-4.707-7.72-7.718-2.23-3.02-4.007-6.164-5.328-9.438-1.324-3.27-1.984-6.035-1.984-8.297 0-2.008.437-3.578 1.312-4.703.883-1.133 2.051-1.984 3.5-2.547 1.446-.57 3.098-.922 4.954-1.047a83.082 83.082 0 0 1 5.593-.187h59.657v-40.328H-3.297v-13.86h118.453zm0 0"/></symbol></defs><use xlink:href="#8ab0ef3ca" x="69.14203" y="190"/></svg>