<?xml version='1.0' encoding='UTF-8'?>
<svg xmlns="http://www.w3.org/2000/svg" xmlns:xlink="http://www.w3.org/1999/xlink" width="250px" height="250px" viewBox="0 0 250 250" y="0px" x="0px" enable-background="new 0 0 250 250"><defs><symbol overflow="visible" id="a1021749a"><path d="M121.656-126.656H93.203v41.469H61.828c-5.406 0-10.105.867-14.094 2.593-3.992 1.719-7.308 4.09-9.953 7.11-2.636 3.011-4.617 6.593-5.937 10.75-1.313 4.148-1.969 8.605-1.969 13.375 0 9.43 2.273 17.422 6.828 23.984C41.253-20.812 48.023-16.02 57.016-13l.187-.375c-1.637-3.02-2.836-6.05-3.594-9.094a37.98 37.98 0 0 1-1.125-9.093c0-3.895.645-7.586 1.938-11.079 1.289-3.488 3.129-6.55 5.516-9.187 2.382-2.645 5.285-4.734 8.703-6.266 3.425-1.539 7.312-2.312 11.656-2.312 4.332 0 8.238.804 11.719 2.406 3.488 1.605 6.472 3.742 8.953 6.406 2.488 2.668 4.406 5.778 5.75 9.328 1.351 3.555 2.031 7.278 2.031 11.172 0 3.899-.727 7.824-2.172 11.782-1.437 3.96-3.683 7.542-6.734 10.75C96.8-5.364 92.922-2.758 88.204-.75c-4.712 2.008-10.329 3.016-16.86 3.016-4.086 0-8.297-.446-12.64-1.329-4.337-.875-8.606-2.253-12.813-4.14-4.211-1.883-8.184-4.3-11.922-7.25-3.742-2.957-7.024-6.492-9.844-10.61-2.824-4.113-5.07-8.835-6.734-14.171-1.668-5.344-2.5-11.348-2.5-18.016 0-7.531 1.082-14.156 3.25-19.875 2.164-5.719 5.18-10.492 9.047-14.328 3.863-3.832 8.445-6.707 13.75-8.625 5.312-1.914 11.109-2.875 17.39-2.875H77.75v-27.703H-3.297v-13.86h124.953zM70.97-11.125c4.082 0 7.566-.625 10.453-1.875 2.883-1.258 5.238-2.863 7.062-4.813 1.82-1.945 3.157-4.128 4-6.546.852-2.414 1.282-4.754 1.282-7.016 0-2.27-.368-4.313-1.094-6.125-.719-1.82-1.711-3.348-2.969-4.578a12.986 12.986 0 0 0-4.375-2.828 14.123 14.123 0 0 0-5.219-.985c-4.148 0-7.527 1.512-10.14 4.532-2.606 3.011-3.906 7.28-3.906 12.812 0 5.711 1.632 11.516 4.906 17.422zm0 0"/></symbol></defs><use xlink:href="#a1021749a" x="65.89502" y="190"/></svg>