<?xml version='1.0' encoding='UTF-8'?>
<svg xmlns="http://www.w3.org/2000/svg" xmlns:xlink="http://www.w3.org/1999/xlink" width="250px" height="250px" viewBox="0 0 250 250" y="0px" x="0px" enable-background="new 0 0 250 250"><defs><symbol overflow="visible" id="b2b008d5a"><path d="M136.922-140.516v13.86h-14.406V0h-15.657v-63.328H52.297c-3.324 2.2-7.313 3.516-11.969 3.953l-.187.469c6.093 9.554 12.785 18.445 20.078 26.672 7.289 8.23 15.582 15.867 24.875 22.906L75.016 2.266A160.594 160.594 0 0 1 59.78-10.547 201.5 201.5 0 0 1 46.22-24.828a248.617 248.617 0 0 1-11.922-14.985c-3.7-5.062-7.09-10.039-10.172-14.937-3.086-4.906-5.852-9.633-8.297-14.188-2.45-4.55-4.586-8.773-6.406-12.671l12.906-6.97c1.195 2.763 2.375 5.071 3.531 6.923 1.164 1.855 2.344 3.336 3.532 4.437 1.195 1.094 2.457 1.875 3.78 2.344 1.321.469 2.735.703 4.235.703 4.344 0 7.535-1.691 9.578-5.078 2.04-3.395 3.063-7.86 3.063-13.39 0-3.258-.32-6.477-.953-9.657a73.485 73.485 0 0 0-2.407-9.14 94.328 94.328 0 0 0-3.156-8.235 186.686 186.686 0 0 0-3.203-6.984H-3.297v-13.86zm-30.063 13.86H56.641c2.632 5.719 4.707 11.469 6.218 17.25 1.508 5.781 2.266 11.527 2.266 17.234 0 2.649-.21 5.242-.625 7.781a31.798 31.798 0 0 1-2.016 7.204l.188.187h44.187zm0 0"/></symbol></defs><use xlink:href="#b2b008d5a" x="58.27161" y="190"/></svg>