<?xml version='1.0' encoding='UTF-8'?>
<svg xmlns="http://www.w3.org/2000/svg" xmlns:xlink="http://www.w3.org/1999/xlink" width="250px" height="250px" viewBox="0 0 250 250" y="0px" x="0px" enable-background="new 0 0 250 250"><defs><symbol overflow="visible" id="0919052ca"><path d="M133.906-126.656h-25.344c1.82 3.46 3.22 6.98 4.188 10.562.977 3.574 1.469 7.153 1.469 10.735 0 3.023-.383 5.976-1.14 8.859a34.478 34.478 0 0 1-3.298 8.203c-1.437 2.574-3.258 4.93-5.453 7.063-2.2 2.136-4.746 3.96-7.64 5.468v.563c6.53 3.836 11.726 8.89 15.593 15.172 3.864 6.281 5.797 13.761 5.797 22.437 0 5.086-.758 10.032-2.266 14.844-1.5 4.805-3.84 9.059-7.015 12.766-3.168 3.71-7.234 6.68-12.203 8.906-4.961 2.226-10.867 3.344-17.719 3.344-7.48 0-14.281-1.32-20.406-3.954-6.125-2.644-11.621-6.132-16.485-10.468-4.867-4.332-9.152-9.297-12.859-14.89-3.71-5.595-6.871-11.36-9.484-17.298-2.606-5.937-4.727-11.789-6.36-17.562-1.625-5.782-2.82-11.032-3.578-15.75l12.344-5.656c.883 5.28 2.187 10.718 3.906 16.312a125.15 125.15 0 0 0 6.313 16.313 110.336 110.336 0 0 0 8.53 14.968c3.208 4.711 6.743 8.824 10.61 12.344 3.864 3.523 8.04 6.305 12.532 8.344 4.488 2.043 9.25 3.062 14.28 3.062 3.009 0 5.989-.422 8.938-1.265a20.023 20.023 0 0 0 7.875-4.344c2.301-2.04 4.172-4.754 5.61-8.14 1.445-3.395 2.171-7.61 2.171-12.641 0-9.989-2.906-17.508-8.718-22.563-5.813-5.062-14.434-7.594-25.86-7.594a76.65 76.65 0 0 0-3.593.094 95.433 95.433 0 0 0-4.047.281v-14.312c.5 0 1.203.031 2.11.094.913.062 2.16.093 3.733.093 5.907 0 10.93-.629 15.079-1.89 4.144-1.258 7.52-3.004 10.125-5.235 2.613-2.226 4.515-4.816 5.703-7.765 1.195-2.957 1.797-6.13 1.797-9.516 0-3.77-.618-7.32-1.844-10.656a40.838 40.838 0 0 0-4.844-9.328h-95.75v-13.86h137.203zm0 0"/></symbol></defs><use xlink:href="#0919052ca" x="59.77747" y="190"/></svg>