<?xml version='1.0' encoding='UTF-8'?>
<svg xmlns="http://www.w3.org/2000/svg" xmlns:xlink="http://www.w3.org/1999/xlink" width="250px" height="250px" viewBox="0 0 250 250" y="0px" x="0px" enable-background="new 0 0 250 250"><defs><symbol overflow="visible" id="7400a8e9a"><path d="M118.172-126.656H103.75V0H88.297v-33.36l-.375-.093c-1.387 1.187-3.008 2.414-4.86 3.672-1.843 1.261-3.98 2.43-6.406 3.5-2.418 1.062-5.136 1.937-8.156 2.625-3.012.687-6.34 1.031-9.984 1.031-6.844 0-13.094-1.207-18.75-3.625-5.657-2.414-10.512-5.648-14.563-9.703a44.302 44.302 0 0 1-9.469-13.938 41.159 41.159 0 0 1-3.39-16.453c0-5.781 1.129-11.148 3.39-16.11 2.258-4.968 5.352-9.253 9.282-12.859 3.925-3.613 8.492-6.457 13.703-8.53 5.218-2.071 10.781-3.11 16.687-3.11 1.82 0 3.989.14 6.5.422 2.52.281 5.207.898 8.063 1.844 2.863.937 5.832 2.273 8.906 4 3.082 1.718 6.098 4.027 9.047 6.921l.375-.093v-32.797H-3.297v-13.86h121.469zm-90.75 61.812c0 3.461.594 6.856 1.781 10.188a26.535 26.535 0 0 0 5.375 8.953c2.395 2.637 5.348 4.758 8.86 6.36 3.519 1.605 7.64 2.406 12.359 2.406 4.207 0 8.226-.692 12.062-2.079L36.75-85.75c-2.887 2.387-5.164 5.402-6.828 9.047-1.668 3.637-2.5 7.59-2.5 11.86zm61.25-11.39a80.974 80.974 0 0 0-6.922-6.704 43.781 43.781 0 0 0-7.5-5.171 39.03 39.03 0 0 0-8.344-3.391c-2.918-.82-6.039-1.234-9.36-1.234-1.448 0-2.835.093-4.155.28a48.161 48.161 0 0 0-4.047.766l30.625 45.985c3.082-2.77 5.469-5.832 7.156-9.188 1.695-3.363 2.547-6.644 2.547-9.843zm0 0"/></symbol></defs><use xlink:href="#7400a8e9a" x="67.63617" y="190"/></svg>