<?xml version='1.0' encoding='UTF-8'?>
<svg xmlns="http://www.w3.org/2000/svg" xmlns:xlink="http://www.w3.org/1999/xlink" width="250px" height="250px" viewBox="0 0 250 250" y="0px" x="0px" enable-background="new 0 0 250 250"><defs><symbol overflow="visible" id="fd90f446a"><path d="M67.828-8.094v.516a92.15 92.15 0 0 0 9.797 9.234c3.438 2.801 6.754 5.282 9.953 7.438 3.195 2.156 6.16 3.972 8.89 5.453 2.727 1.488 4.973 2.601 6.735 3.344l-7.187 12.64c-4.243-2.23-8.47-4.828-12.688-7.797-4.21-2.96-8.289-6.058-12.234-9.297a175.95 175.95 0 0 1-11.11-9.906C56.516.164 53.398-3.03 50.641-6.063c-5.793-.539-10.696-1.582-14.703-3.125-4.012-1.55-7.282-3.406-9.813-5.562-2.523-2.156-4.355-4.477-5.5-6.969-1.148-2.5-1.719-4.93-1.719-7.297 0-1.675.285-3.289.86-4.843.57-1.551 1.41-2.899 2.515-4.047 1.114-1.145 2.492-2.051 4.14-2.719 1.657-.676 3.563-1.016 5.72-1.016 2.289 0 4.734.407 7.328 1.22 2.593.804 5.133 2.015 7.625 3.64 2.5 1.617 4.894 3.652 7.187 6.11 2.29 2.46 4.313 5.339 6.063 8.64 8.414-1.414 14.781-4.266 19.093-8.547 4.313-4.281 6.47-9.89 6.47-16.828 0-2.696-.356-4.883-1.063-6.563-.7-1.687-1.758-3-3.172-3.937-1.418-.946-3.188-1.57-5.313-1.875-2.125-.301-4.601-.453-7.421-.453H41.14c-4.993 0-9.309-1.063-12.953-3.188-3.637-2.125-6.653-4.816-9.047-8.078a34.55 34.55 0 0 1-5.297-10.813c-1.149-3.945-1.719-7.742-1.719-11.39 0-3.969.64-7.281 1.922-9.938 1.281-2.664 3.031-4.789 5.25-6.375 2.226-1.582 4.875-2.71 7.937-3.39 3.07-.676 6.395-1.016 9.97-1.016h35.265v-21.422h-76v-14.86h159.797v14.86h-15.47V0H124.22v-60.64l-.406-.11c-1.95 1.281-3.82 2.328-5.61 3.14a34.74 34.74 0 0 1-5.36 1.922c-1.78.47-3.616.79-5.5.954-1.886.168-3.906.25-6.062.25.406 2.23.61 4.59.61 7.078 0 4.781-.68 9.265-2.032 13.453a34.722 34.722 0 0 1-6.171 11.375c-2.762 3.398-6.282 6.324-10.563 8.781-4.273 2.461-9.371 4.36-15.297 5.703zm21.219-91.469h-47.61c-5.054 0-8.523.711-10.406 2.126-1.886 1.417-2.828 3.71-2.828 6.874 0 1.481.195 3.079.594 4.797a12.843 12.843 0 0 0 2.219 4.75c1.082 1.45 2.55 2.664 4.406 3.641 1.851.98 4.226 1.469 7.125 1.469H70.75c5.727 0 10.563.68 14.5 2.031 3.945 1.344 7.133 3.262 9.563 5.75 2.488 0 4.91-.082 7.265-.25a32.139 32.139 0 0 0 7.078-1.313c2.364-.707 4.79-1.75 7.281-3.124 2.489-1.383 5.083-3.29 7.782-5.72v-57.312H89.047zm0 0"/></symbol></defs><use xlink:href="#fd90f446a" x="48.63843" y="200"/></svg>