<?xml version='1.0' encoding='UTF-8'?>
<svg xmlns="http://www.w3.org/2000/svg" xmlns:xlink="http://www.w3.org/1999/xlink" width="250px" height="250px" viewBox="0 0 250 250" y="0px" x="0px" enable-background="new 0 0 250 250"><defs><symbol overflow="visible" id="efc1beffa"><path d="M67.719-8.094v.516a93.674 93.674 0 0 0 9.797 9.234c3.437 2.801 6.754 5.282 9.953 7.438 3.207 2.156 6.176 3.972 8.906 5.453 2.727 1.488 4.969 2.601 6.719 3.344l-7.172 12.64c-4.25-2.23-8.48-4.828-12.688-7.797-4.21-2.96-8.289-6.058-12.234-9.297a175.95 175.95 0 0 1-11.11-9.906C56.423.164 53.3-3.03 50.532-6.063c-5.793-.539-10.695-1.582-14.703-3.125-4.012-1.55-7.281-3.406-9.812-5.562-2.524-2.156-4.356-4.477-5.5-6.969-1.149-2.5-1.72-4.93-1.72-7.297 0-1.675.286-3.289.86-4.843a11.344 11.344 0 0 1 2.532-4.047c1.113-1.145 2.492-2.051 4.14-2.719 1.656-.676 3.563-1.016 5.719-1.016 2.289 0 4.734.407 7.328 1.22 2.594.804 5.133 2.015 7.625 3.64 2.488 1.617 4.879 3.652 7.172 6.11 2.289 2.46 4.312 5.339 6.062 8.64 8.426-1.414 14.797-4.266 19.11-8.547 4.312-4.281 6.469-9.89 6.469-16.828 0-2.696-.356-4.883-1.063-6.563-.71-1.687-1.773-3-3.188-3.937-1.417-.946-3.187-1.57-5.312-1.875-2.117-.301-4.59-.453-7.422-.453H41.031c-4.98 0-9.293-1.063-12.937-3.188-3.637-2.125-6.653-4.816-9.047-8.078a34.55 34.55 0 0 1-5.297-10.813c-1.148-3.945-1.719-7.742-1.719-11.39 0-3.969.64-7.281 1.922-9.938 1.281-2.664 3.031-4.789 5.25-6.375 2.227-1.582 4.875-2.71 7.938-3.39 3.062-.676 6.379-1.016 9.953-1.016h35.281v-21.422H-3.641v-14.86h118.657v14.86H88.953v36.281h-47.61c-5.054 0-8.527.711-10.421 2.126-1.887 1.417-2.828 3.71-2.828 6.874 0 1.481.203 3.079.61 4.797a12.843 12.843 0 0 0 2.218 4.75c1.082 1.45 2.55 2.664 4.406 3.641 1.852.98 4.227 1.469 7.125 1.469h28.203c5.79 0 10.672.71 14.64 2.125 3.977 1.418 7.18 3.39 9.61 5.922 2.426 2.523 4.176 5.539 5.25 9.046 1.082 3.5 1.625 7.305 1.625 11.407 0 4.781-.68 9.265-2.031 13.453a34.9 34.9 0 0 1-6.156 11.375c-2.762 3.398-6.281 6.324-10.563 8.781-4.281 2.461-9.386 4.36-15.312 5.703zm0 0"/></symbol></defs><use xlink:href="#efc1beffa" x="69.25757" y="200"/></svg>