<?xml version='1.0' encoding='UTF-8'?>
<svg xmlns="http://www.w3.org/2000/svg" xmlns:xlink="http://www.w3.org/1999/xlink" width="250px" height="250px" viewBox="0 0 250 250" y="0px" x="0px" enable-background="new 0 0 250 250"><defs><symbol overflow="visible" id="7400a8e9a"><path d="M126.75-135.844h-15.469V0H94.703v-35.781l-.406-.094c-1.48 1.273-3.215 2.586-5.203 3.938-1.992 1.343-4.281 2.59-6.875 3.734-2.594 1.148-5.512 2.09-8.75 2.828-3.23.742-6.797 1.11-10.703 1.11-7.344 0-14.047-1.297-20.11-3.891-6.062-2.594-11.273-6.063-15.625-10.407a47.654 47.654 0 0 1-10.156-14.953 44.022 44.022 0 0 1-3.64-17.64c0-6.196 1.21-11.957 3.64-17.281 2.426-5.32 5.742-9.922 9.953-13.797 4.219-3.875 9.125-6.922 14.719-9.141 5.594-2.227 11.555-3.344 17.89-3.344 1.946 0 4.27.153 6.97.453 2.695.305 5.577.961 8.64 1.97 3.062 1.01 6.242 2.444 9.547 4.296 3.3 1.855 6.535 4.336 9.703 7.438l.406-.11v-35.172H-3.53v-14.86H126.75zM29.406-69.547c0 3.711.64 7.352 1.922 10.922a28.552 28.552 0 0 0 5.766 9.61c2.562 2.824 5.726 5.093 9.5 6.812 3.77 1.719 8.187 2.578 13.25 2.578 4.508 0 8.82-.738 12.937-2.219l-33.36-50.14c-3.105 2.562-5.554 5.804-7.343 9.718-1.781 3.907-2.672 8.149-2.672 12.72zM95.11-81.766c-2.43-2.632-4.906-5.03-7.437-7.187A46.826 46.826 0 0 0 79.64-94.5a41.963 41.963 0 0 0-8.938-3.64c-3.137-.876-6.492-1.313-10.062-1.313-1.555 0-3.04.105-4.453.312a56.13 56.13 0 0 0-4.344.797l32.86 49.328c3.3-2.968 5.859-6.254 7.671-9.859 1.82-3.602 2.734-7.125 2.734-10.563zm0 0"/></symbol></defs><use xlink:href="#7400a8e9a" x="63.39526" y="200"/></svg>