<?xml version='1.0' encoding='UTF-8'?>
<svg xmlns="http://www.w3.org/2000/svg" xmlns:xlink="http://www.w3.org/1999/xlink" width="250px" height="250px" viewBox="0 0 250 250" y="0px" x="0px" enable-background="new 0 0 250 250"><defs><symbol overflow="visible" id="a1021749a"><path d="M130.484-135.844H99.97v44.469H66.313c-5.805 0-10.844.93-15.126 2.781-4.273 1.856-7.824 4.403-10.656 7.64-2.836 3.231-4.96 7.071-6.375 11.516-1.406 4.45-2.11 9.235-2.11 14.36 0 10.105 2.442 18.68 7.329 25.719 4.883 7.043 12.145 12.18 21.781 15.406l.203-.406c-1.761-3.227-3.047-6.477-3.859-9.75a40.669 40.669 0 0 1-1.203-9.75c0-4.176.687-8.133 2.062-11.875 1.383-3.739 3.36-7.024 5.922-9.86 2.563-2.832 5.676-5.07 9.344-6.718 3.676-1.645 7.836-2.47 12.484-2.47 4.657 0 8.852.86 12.594 2.579 3.738 1.71 6.938 3.996 9.594 6.86 2.664 2.866 4.723 6.202 6.172 10.015 1.445 3.805 2.172 7.793 2.172 11.969 0 4.18-.778 8.39-2.329 12.64-1.554 4.242-3.964 8.078-7.234 11.516-3.262 3.437-7.418 6.234-12.469 8.39-5.054 2.157-11.086 3.235-18.093 3.235-4.387 0-8.903-.477-13.547-1.422-4.649-.938-9.23-2.414-13.75-4.438-4.512-2.019-8.774-4.613-12.782-7.78-4.011-3.165-7.53-6.954-10.562-11.36-3.031-4.414-5.445-9.488-7.234-15.219-1.782-5.726-2.672-12.164-2.672-19.312 0-8.082 1.16-15.188 3.484-21.313 2.32-6.133 5.555-11.258 9.703-15.375 4.145-4.113 9.063-7.195 14.75-9.25 5.696-2.05 11.914-3.078 18.657-3.078H83.39v-29.719H-3.531v-14.86h134.015zM76.11-11.922c4.375 0 8.114-.672 11.22-2.015 3.1-1.352 5.628-3.07 7.577-5.157 1.957-2.093 3.39-4.437 4.297-7.031.906-2.594 1.36-5.102 1.36-7.531 0-2.426-.387-4.614-1.157-6.563-.773-1.957-1.836-3.593-3.187-4.906a14.112 14.112 0 0 0-4.703-3.031 15.072 15.072 0 0 0-5.61-1.063c-4.437 0-8.058 1.621-10.86 4.86-2.792 3.23-4.187 7.808-4.187 13.734 0 6.137 1.75 12.371 5.25 18.703zm0 0"/></symbol></defs><use xlink:href="#a1021749a" x="61.52539" y="200"/></svg>