<?xml version='1.0' encoding='UTF-8'?>
<svg xmlns="http://www.w3.org/2000/svg" xmlns:xlink="http://www.w3.org/1999/xlink" width="250px" height="250px" viewBox="0 0 250 250" y="0px" x="0px" enable-background="new 0 0 250 250"><defs><symbol overflow="visible" id="68b9ff1fa"><path d="M136.266-126.656h-14.422V0H106.39v-52.875H56.92v13.484c0 .938-.077 1.946-.233 3.016a9.314 9.314 0 0 1-.954 2.969 6.662 6.662 0 0 1-1.89 2.265c-.782.594-1.766.891-2.953.891-1.45 0-3.164-.453-5.141-1.36-1.98-.913-4.023-2.14-6.125-3.671a58.52 58.52 0 0 1-6.219-5.282 51.986 51.986 0 0 1-5.468-6.171c-1.606-2.145-2.915-4.286-3.922-6.422-1-2.133-1.5-4.114-1.5-5.938 0-2.633.941-4.547 2.828-5.734 1.883-1.195 4.367-1.797 7.453-1.797h9.14v-51.734c0-3.27-.789-5.77-2.359-7.5-1.574-1.727-3.555-2.594-5.937-2.594-2.637 0-4.852.976-6.641 2.922-1.793 1.949-2.688 4.433-2.688 7.453 0 .562.063 1.258.188 2.078.125.813.438 1.742.938 2.781.507 1.031 1.265 2.196 2.265 3.485 1.008 1.28 2.363 2.648 4.063 4.093l-8.391 10.266c-2.898-1.563-5.258-3.3-7.078-5.219-1.813-1.914-3.227-3.879-4.235-5.89-1-2.008-1.695-3.973-2.078-5.891-.375-1.914-.562-3.691-.562-5.328 0-3.02.515-5.988 1.547-8.906a24.137 24.137 0 0 1 4.672-7.907c2.07-2.363 4.66-4.265 7.765-5.703 3.114-1.445 6.742-2.172 10.89-2.172 3.645 0 6.88.602 9.704 1.797 2.832 1.188 5.207 2.899 7.125 5.125 1.914 2.23 3.36 4.903 4.328 8.016.977 3.105 1.469 6.574 1.469 10.406v50.422h49.469v-73.89h29.875zm0 0"/></symbol></defs><use xlink:href="#68b9ff1fa" x="58.60101" y="190"/></svg>