<?xml version='1.0' encoding='UTF-8'?>
<svg xmlns="http://www.w3.org/2000/svg" xmlns:xlink="http://www.w3.org/1999/xlink" width="250px" height="250px" viewBox="0 0 250 250" y="0px" x="0px" enable-background="new 0 0 250 250"><defs><symbol overflow="visible" id="6b7a724da"><path d="M118.266-126.656h-14.422V0H88.39v-126.656h-42.5v73.125c0 1.011-.063 2.18-.188 3.5a14.488 14.488 0 0 1-.89 3.812c-.47 1.219-1.149 2.258-2.032 3.11-.875.843-2.101 1.265-3.672 1.265-1.699 0-3.57-.547-5.609-1.64-2.043-1.102-4.133-2.551-6.266-4.344a55.752 55.752 0 0 1-6.172-6.078 63.538 63.538 0 0 1-5.328-6.969c-1.574-2.383-2.828-4.707-3.765-6.969-.938-2.27-1.406-4.285-1.406-6.047 0-1.562.39-2.812 1.171-3.75.782-.945 1.88-1.671 3.297-2.171 1.414-.508 3.145-.829 5.188-.954 2.039-.125 4.285-.187 6.734-.187h3.297v-45.703H-3.297v-13.86h121.563zm0 0"/></symbol></defs><use xlink:href="#6b7a724da" x="67.58911" y="190"/></svg>