<?xml version='1.0' encoding='UTF-8'?>
<svg xmlns="http://www.w3.org/2000/svg" xmlns:xlink="http://www.w3.org/1999/xlink" width="250px" height="250px" viewBox="0 0 250 250" y="0px" x="0px" enable-background="new 0 0 250 250"><defs><symbol overflow="visible" id="39f88168a"><path d="M119.469-135.844H104V0H87.422v-36.078l-.39-.11c-1.356 1.282-2.946 2.618-4.766 4-1.813 1.376-3.903 2.622-6.266 3.735-2.355 1.117-5 2.043-7.938 2.781-2.93.742-6.21 1.11-9.843 1.11-6.668 0-12.75-1.282-18.25-3.844-5.492-2.563-10.227-5.977-14.203-10.25-3.97-4.282-7.055-9.196-9.25-14.75-2.188-5.563-3.282-11.38-3.282-17.453 0-6.063 1.094-11.704 3.282-16.922 2.195-5.219 5.21-9.75 9.047-13.594 3.843-3.844 8.328-6.86 13.453-9.047 5.125-2.187 10.613-3.281 16.468-3.281 1.625 0 3.664.137 6.125.406 2.457.262 5.098.867 7.922 1.813 2.832.949 5.766 2.312 8.797 4.093 3.031 1.782 5.93 4.188 8.703 7.22l.39-.095v-35.578H-3.53v-14.86h123zm-31.64 54.485c-4.243-5.125-8.856-9.254-13.845-12.391-4.992-3.133-10.652-4.703-16.984-4.703-4.98 0-9.21.95-12.688 2.844-3.468 1.886-6.32 4.261-8.546 7.125a28.218 28.218 0 0 0-4.844 9.546c-1.012 3.5-1.516 6.872-1.516 10.11 0 3.5.57 6.969 1.719 10.406 1.145 3.438 2.848 6.524 5.11 9.25 2.257 2.73 5.07 4.953 8.437 6.672 3.375 1.719 7.316 2.578 11.828 2.578 4.645 0 8.89-.89 12.734-2.672 3.844-1.789 7.145-4.066 9.907-6.828 2.757-2.758 4.894-5.86 6.406-9.297 1.52-3.437 2.281-6.773 2.281-10.015zm0 0"/></symbol></defs><use xlink:href="#39f88168a" x="67.03394" y="200"/></svg>