<?xml version='1.0' encoding='UTF-8'?>
<svg xmlns="http://www.w3.org/2000/svg" xmlns:xlink="http://www.w3.org/1999/xlink" width="250px" height="250px" viewBox="0 0 250 250" y="0px" x="0px" enable-background="new 0 0 250 250"><defs><symbol overflow="visible" id="68b9ff1fa"><path d="M146.156-135.844h-15.469V0H114.11v-56.703H61.047v14.453c0 1.012-.086 2.09-.25 3.234a9.99 9.99 0 0 1-1.016 3.188 7.051 7.051 0 0 1-2.015 2.437c-.844.637-1.907.953-3.188.953-1.555 0-3.39-.488-5.516-1.468-2.117-.977-4.304-2.29-6.562-3.938-2.262-1.656-4.484-3.547-6.672-5.672a57.298 57.298 0 0 1-5.86-6.609c-1.718-2.29-3.12-4.582-4.202-6.875-1.075-2.29-1.61-4.414-1.61-6.375 0-2.832 1.008-4.883 3.032-6.156 2.019-1.281 4.68-1.922 7.984-1.922h9.812v-55.5c0-3.5-.843-6.176-2.53-8.031-1.688-1.852-3.813-2.782-6.376-2.782-2.824 0-5.2 1.047-7.125 3.141-1.918 2.086-2.875 4.746-2.875 7.984 0 .606.067 1.344.203 2.22.133.874.469 1.87 1 2.984.54 1.117 1.348 2.367 2.422 3.75 1.082 1.374 2.535 2.84 4.36 4.39l-9 11.016c-3.094-1.688-5.622-3.555-7.579-5.61-1.949-2.062-3.464-4.171-4.547-6.328-1.074-2.156-1.812-4.258-2.218-6.312-.406-2.051-.61-3.953-.61-5.703 0-3.239.551-6.426 1.657-9.563a25.858 25.858 0 0 1 5-8.484c2.226-2.531 5.007-4.567 8.343-6.11 3.344-1.55 7.239-2.328 11.688-2.328 3.906 0 7.375.64 10.406 1.922 3.031 1.281 5.57 3.121 7.625 5.516 2.063 2.386 3.613 5.246 4.656 8.578 1.04 3.336 1.563 7.058 1.563 11.172v54.078h53.062v-79.25h32.047zm0 0"/></symbol></defs><use xlink:href="#68b9ff1fa" x="53.69214" y="200"/></svg>