<?xml version='1.0' encoding='UTF-8'?>
<svg xmlns="http://www.w3.org/2000/svg" xmlns:xlink="http://www.w3.org/1999/xlink" width="250px" height="250px" viewBox="0 0 250 250" y="0px" x="0px" enable-background="new 0 0 250 250"><defs><symbol overflow="visible" id="fd90f446a"><path d="M63.234-7.547v.484a85.634 85.634 0 0 0 9.141 8.61c3.207 2.613 6.3 4.926 9.281 6.937 2.989 2.008 5.754 3.704 8.297 5.079 2.54 1.382 4.629 2.425 6.266 3.124L89.53 28.453c-3.96-2.074-7.902-4.492-11.828-7.25a190.744 190.744 0 0 1-11.406-8.672 163.806 163.806 0 0 1-10.375-9.234C52.692.16 49.789-2.82 47.219-5.656c-5.407-.5-9.98-1.473-13.719-2.922-3.742-1.445-6.79-3.176-9.14-5.188-2.356-2.007-4.07-4.175-5.141-6.5-1.063-2.32-1.594-4.582-1.594-6.78 0-1.571.266-3.079.797-4.517a10.579 10.579 0 0 1 2.344-3.765c1.039-1.07 2.332-1.922 3.875-2.547 1.539-.633 3.316-.953 5.328-.953 2.133 0 4.41.383 6.828 1.14 2.414.75 4.785 1.883 7.11 3.391 2.331 1.5 4.566 3.402 6.702 5.703 2.133 2.293 4.02 4.977 5.657 8.047 7.851-1.312 13.789-3.96 17.812-7.953 4.02-3.988 6.031-9.223 6.031-15.703 0-2.508-.336-4.547-1-6.11-.656-1.57-1.648-2.796-2.968-3.671-1.313-.883-2.961-1.47-4.938-1.75-1.98-.29-4.293-.438-6.937-.438H38.359c-4.656 0-8.683-.988-12.078-2.969-3.386-1.976-6.195-4.488-8.422-7.53a32.25 32.25 0 0 1-4.953-10.079c-1.062-3.676-1.594-7.21-1.594-10.61 0-3.706.594-6.8 1.782-9.28 1.195-2.477 2.832-4.458 4.906-5.938 2.07-1.477 4.535-2.531 7.39-3.156 2.864-.625 5.962-.938 9.297-.938h32.876v-19.984h-70.86v-13.86h148.984v13.86h-14.406V0h-15.469v-56.547l-.374-.094c-1.825 1.2-3.57 2.18-5.235 2.938a31.504 31.504 0 0 1-4.984 1.781 31.077 31.077 0 0 1-5.14.89 64.202 64.202 0 0 1-5.657.235c.383 2.074.578 4.274.578 6.594 0 4.469-.633 8.652-1.89 12.547a32.8 32.8 0 0 1-5.75 10.593c-2.575 3.18-5.856 5.915-9.844 8.204-3.993 2.293-8.75 4.062-14.282 5.312zm19.797-85.281h-44.39c-4.72 0-7.961.664-9.72 1.984-1.75 1.324-2.624 3.461-2.624 6.406 0 1.387.187 2.883.562 4.485a11.99 11.99 0 0 0 2.063 4.422c1.008 1.355 2.379 2.492 4.11 3.406 1.726.906 3.94 1.36 6.64 1.36h26.297c5.344 0 9.847.632 13.515 1.89 3.676 1.25 6.645 3.04 8.907 5.36 2.32 0 4.582-.079 6.78-.235a30.622 30.622 0 0 0 6.61-1.219c2.196-.664 4.457-1.64 6.781-2.922 2.32-1.289 4.739-3.066 7.25-5.328v-53.437h-32.78zm0 0"/></symbol></defs><use xlink:href="#fd90f446a" x="53.8952" y="190"/></svg>