<?xml version='1.0' encoding='UTF-8'?>
<svg xmlns="http://www.w3.org/2000/svg" xmlns:xlink="http://www.w3.org/1999/xlink" width="250px" height="250px" viewBox="0 0 250 250" y="0px" x="0px" enable-background="new 0 0 250 250"><defs><symbol overflow="visible" id="957fc670a"><path d="M114.125-126.656H99.703V0H84.156v-45.047l-.375-.094c-4.21 3.774-8.922 6.461-14.14 8.063-5.211 1.594-10.36 2.39-15.454 2.39-5.406 0-10.34-.78-14.796-2.343-4.461-1.57-8.293-3.973-11.5-7.203-3.2-3.239-5.696-7.32-7.485-12.25-1.793-4.938-2.687-10.801-2.687-17.594v-52.578H-3.297v-13.86h117.422zm-29.969 0H32.984v51.734c0 3.961.328 7.512.985 10.656.664 3.137 1.797 5.805 3.39 8 1.602 2.2 3.723 3.883 6.36 5.047 2.644 1.168 5.945 1.75 9.906 1.75 6.469 0 12.305-1.52 17.516-4.562 5.218-3.051 9.554-7.063 13.015-12.032zm0 0"/></symbol></defs><use xlink:href="#957fc670a" x="69.65967" y="190"/></svg>