<?xml version='1.0' encoding='UTF-8'?>
<svg xmlns="http://www.w3.org/2000/svg" xmlns:xlink="http://www.w3.org/1999/xlink" width="250px" height="250px" viewBox="0 0 250 250" y="0px" x="0px" enable-background="new 0 0 250 250"><defs><symbol overflow="visible" id="487466b1a"><path d="M124.422-135.844h-15.469V0H92.484v-88.75H59.641c-4.524 0-8.602.29-12.235.86-3.636.574-6.734 1.718-9.297 3.437-2.562 1.719-4.539 4.117-5.922 7.187-1.374 3.063-2.062 7.09-2.062 12.079 0 6.468 1.055 12.433 3.172 17.89 2.125 5.461 4.836 10.465 8.14 15.016a93.458 93.458 0 0 0 10.97 12.578 342.155 342.155 0 0 0 11.577 10.61L53.875 2.421c-.605-.336-2.04-1.324-4.297-2.969-2.262-1.656-4.89-3.894-7.89-6.719-2.993-2.832-6.157-6.27-9.5-10.312-3.336-4.05-6.403-8.617-9.204-13.703-2.793-5.082-5.117-10.692-6.968-16.828-1.856-6.133-2.782-12.739-2.782-19.813 0-7.008.993-12.82 2.985-17.437 1.988-4.614 4.8-8.286 8.437-11.016 3.645-2.727 8.063-4.629 13.25-5.703 5.188-1.082 10.977-1.625 17.375-1.625h37.203v-32.14H-3.53v-14.86h127.953zm0 0"/></symbol></defs><use xlink:href="#487466b1a" x="64.55762" y="200"/></svg>