<?xml version='1.0' encoding='UTF-8'?>
<svg xmlns="http://www.w3.org/2000/svg" xmlns:xlink="http://www.w3.org/1999/xlink" width="250px" height="250px" viewBox="0 0 250 250" y="0px" x="0px" enable-background="new 0 0 250 250"><defs><symbol overflow="visible" id="d33406d6a"><path d="M114.969-126.656h-14.422V0H85.094v-45.422l-.375-.094c-4.399 3.774-9.25 6.524-14.563 8.25-5.304 1.72-10.625 2.578-15.969 2.578-5.406 0-10.34-.78-14.796-2.343-4.461-1.57-8.293-3.973-11.5-7.203-3.2-3.239-5.696-7.32-7.485-12.25-1.793-4.938-2.687-10.801-2.687-17.594v-52.578H-3.297v-13.86H114.97zM75.484-57.11L33.36-116.297l-.375.094v41.281c0 3.961.328 7.512.985 10.656.664 3.137 1.797 5.805 3.39 8 1.602 2.2 3.723 3.883 6.36 5.047 2.644 1.168 5.945 1.75 9.906 1.75 4.332 0 8.305-.629 11.922-1.89a37.81 37.81 0 0 0 10.031-5.282zm9.61-69.547h-42.5v.281L84.625-65.5l.469-.656zm0 0"/></symbol></defs><use xlink:href="#d33406d6a" x="69.23615" y="190"/></svg>