<?xml version='1.0' encoding='UTF-8'?>
<svg xmlns="http://www.w3.org/2000/svg" xmlns:xlink="http://www.w3.org/1999/xlink" width="250px" height="250px" viewBox="0 0 250 250" y="0px" x="0px" enable-background="new 0 0 250 250"><defs><symbol overflow="visible" id="172c54ada"><path d="M78.125-126.656H33.359v67.469c0 4.593.578 8.417 1.735 11.468 1.164 3.043 3.035 5.742 5.61 8.094 2.581 2.355 5.898 4.617 9.952 6.781 4.051 2.168 8.969 4.7 14.75 7.594a603.93 603.93 0 0 1 14.922 7.625c4.625 2.45 8.629 5.027 12.016 7.734 3.394 2.7 6.066 5.621 8.015 8.766 1.946 3.133 2.922 6.71 2.922 10.734 0 3.082-.633 6.176-1.89 9.282-1.25 3.113-3.07 6.082-5.454 8.906L83.22 20.078a59.052 59.052 0 0 0 2.672-4.812c.851-1.7 1.28-3.461 1.28-5.282 0-2.449-.835-4.726-2.5-6.828-1.667-2.105-3.882-4.113-6.64-6.031-2.761-1.914-5.933-3.785-9.515-5.61a673.439 673.439 0 0 0-11.22-5.562c-6.593-3.195-12.343-6.082-17.25-8.656-4.898-2.582-8.995-5.395-12.296-8.438-3.293-3.05-5.758-6.617-7.39-10.703-1.637-4.082-2.454-9.203-2.454-15.36v-69.452H-3.297v-13.86H108v13.86H93.578v59.75c0 4.836-.68 8.84-2.031 12.015-1.344 3.168-3.07 5.664-5.172 7.485-2.105 1.824-4.434 3.101-6.984 3.828C76.848-42.86 74.383-42.5 72-42.5c-2.387 0-4.746-.266-7.078-.797a40.299 40.299 0 0 1-6.594-2.125v-15.36c1.383.813 3.082 1.524 5.094 2.126 2.008.593 4.02.89 6.031.89 1.883 0 3.39-.312 4.516-.937 1.133-.633 2.015-1.578 2.64-2.828.633-1.258 1.047-2.801 1.235-4.625.187-1.82.281-3.926.281-6.313zm0 0"/></symbol></defs><use xlink:href="#172c54ada" x="72.71844" y="190"/></svg>