<?xml version='1.0' encoding='UTF-8'?>
<svg xmlns="http://www.w3.org/2000/svg" xmlns:xlink="http://www.w3.org/1999/xlink" width="250px" height="250px" viewBox="0 0 250 250" y="0px" x="0px" enable-background="new 0 0 250 250"><defs><symbol overflow="visible" id="606769cea"><path d="M23.547-89.344a297.496 297.496 0 0 0 3.531 10.36 115.79 115.79 0 0 0 4.813 11.328 102.379 102.379 0 0 0 6.265 11.062c2.32 3.563 4.985 6.73 7.985 9.5 3 2.762 6.316 4.969 9.953 6.625C59.727-38.82 63.77-38 68.219-38c4.383 0 8.094-.64 11.125-1.922 3.031-1.281 5.488-3 7.375-5.156 1.883-2.156 3.25-4.68 4.094-7.578.843-2.895 1.265-5.926 1.265-9.094 0-6.945-2.512-12.375-7.531-16.281-5.024-3.906-12.281-5.86-21.781-5.86-1.149 0-2.293.04-3.438.11a56.389 56.389 0 0 0-3.437.297v-15.36c.539.063 1.03.094 1.468.094h.766c4.707 0 8.895-.586 12.563-1.766 3.675-1.175 6.757-2.773 9.25-4.796 2.5-2.032 4.39-4.391 5.671-7.079a19.57 19.57 0 0 0 1.922-8.5c0-2.687-.476-5.07-1.422-7.156-.937-2.094-2.218-3.848-3.843-5.266-1.618-1.414-3.54-2.476-5.766-3.187-2.219-.707-4.64-1.063-7.266-1.063-1.824 0-3.578.122-5.265.36-1.68.23-3.461.601-5.344 1.11-1.887.5-3.89 1.155-6.016 1.968-2.125.813-4.539 1.824-7.234 3.031l-5.75-13.844c5.25-2.562 10.3-4.5 15.156-5.812a56.652 56.652 0 0 1 14.86-1.969c4.851 0 9.347.778 13.484 2.328 4.145 1.543 7.719 3.68 10.719 6.407 3 2.73 5.344 5.984 7.031 9.765 1.688 3.774 2.531 7.844 2.531 12.219 0 12.063-5.765 21.766-17.297 29.11v.406c4.52 1.886 8.297 4.21 11.329 6.968 1.945.344 4.015.621 6.203.829 2.195.199 4.207.296 6.03.296 1.884 0 3.868-.132 5.954-.406 2.094-.27 4.234-.773 6.422-1.516 2.187-.738 4.41-1.78 6.672-3.124 2.258-1.352 4.535-3.11 6.828-5.266v-56h32.031v14.86H152.11V0h-16.562v-76.813l-.406-.109c-3.844 2.563-7.453 4.25-10.828 5.063a44.614 44.614 0 0 1-10.407 1.203c-1.148 0-2.328-.047-3.547-.14a158.47 158.47 0 0 1-3.718-.36l-.11.406c1.082 2.762 1.625 6.164 1.625 10.203 0 5.461-.914 10.516-2.734 15.172-1.824 4.648-4.438 8.672-7.844 12.078-3.398 3.399-7.508 6.04-12.328 7.922-4.813 1.887-10.219 2.828-16.219 2.828-6.398 0-12.172-1.125-17.328-3.375-5.156-2.258-9.808-5.176-13.953-8.75A63.742 63.742 0 0 1 26.875-46.75c-3.094-4.477-5.758-8.973-7.984-13.484-2.22-4.52-4.04-8.817-5.453-12.891-1.407-4.082-2.45-7.469-3.126-10.156zm0 0"/></symbol></defs><use xlink:href="#606769cea" x="42.67505" y="200"/></svg>