<?xml version='1.0' encoding='UTF-8'?>
<svg xmlns="http://www.w3.org/2000/svg" xmlns:xlink="http://www.w3.org/1999/xlink" width="250px" height="250px" viewBox="0 0 250 250" y="0px" x="0px" enable-background="new 0 0 250 250"><defs><symbol overflow="visible" id="74cf1942a"><path d="M176.469-135.844h-79.64v39.828l.5.204c3.437-4.72 7.718-8.508 12.843-11.376 5.125-2.863 10.75-4.296 16.875-4.296 4.851 0 9.351.996 13.5 2.984a33.322 33.322 0 0 1 10.766 8.188c3.03 3.468 5.406 7.562 7.125 12.28 1.718 4.72 2.578 9.805 2.578 15.25 0 6.212-1.078 11.923-3.235 17.141-2.156 5.22-4.922 9.953-8.297 14.203a65.614 65.614 0 0 1-11.422 11.266c-4.242 3.274-8.417 6.055-12.53 8.344l-9-15.563c1.35-.75 3.003-1.726 4.952-2.937 1.957-1.207 4-2.617 6.125-4.234a62.99 62.99 0 0 0 6.266-5.516 47.257 47.257 0 0 0 5.547-6.719 34.451 34.451 0 0 0 4-7.89c1.008-2.833 1.516-5.833 1.516-9 0-2.895-.454-5.657-1.36-8.282-.906-2.625-2.172-4.914-3.797-6.875a18.116 18.116 0 0 0-5.812-4.656c-2.25-1.145-4.727-1.719-7.422-1.719-3.5 0-6.902.914-10.203 2.735a39.333 39.333 0 0 0-9 6.828c-2.7 2.73-4.977 5.648-6.828 8.75-1.856 3.094-3.086 5.953-3.688 8.578V0H80.25v-38.719l-.406-.187A148.473 148.473 0 0 1 76-35.72c-1.543 1.242-3.414 2.434-5.61 3.578-2.187 1.149-4.714 2.125-7.578 2.938-2.867.805-6.078 1.203-9.64 1.203-5.938 0-11.418-1.145-16.438-3.438-5.023-2.289-9.37-5.406-13.047-9.343-3.667-3.946-6.546-8.582-8.64-13.907-2.086-5.32-3.125-11.015-3.125-17.078 0-5.789.957-11.144 2.875-16.062 1.926-4.926 4.555-9.156 7.89-12.688a35.822 35.822 0 0 1 11.72-8.28c4.488-1.99 9.327-2.985 14.515-2.985 3.633 0 7.02.453 10.156 1.36 3.133.905 6 2.015 8.594 3.327 2.594 1.313 4.914 2.73 6.969 4.25 2.05 1.524 3.785 2.887 5.203 4.094l.406-.094v-37H-3.531v-14.86h180zM51.344-96.016c-3.844 0-7.23.793-10.157 2.375-2.93 1.586-5.37 3.606-7.328 6.063-1.96 2.46-3.43 5.226-4.406 8.297C28.484-76.22 28-73.207 28-70.25c0 3.242.57 6.46 1.719 9.656 1.144 3.2 2.773 6.078 4.89 8.64a25.261 25.261 0 0 0 7.641 6.22c2.969 1.586 6.234 2.375 9.797 2.375 3.039 0 6.226-.618 9.562-1.86 3.332-1.25 6.395-3.187 9.188-5.812 2.8-2.633 5.11-5.989 6.922-10.063 1.82-4.082 2.734-8.953 2.734-14.61v-4.952c-1.617-2.02-3.523-3.957-5.719-5.813a44.878 44.878 0 0 0-7.078-4.906 39.742 39.742 0 0 0-7.922-3.375 28.569 28.569 0 0 0-8.39-1.266zm0 0"/></symbol></defs><use xlink:href="#74cf1942a" x="38.53101" y="200"/></svg>