<?xml version='1.0' encoding='UTF-8'?>
<svg xmlns="http://www.w3.org/2000/svg" xmlns:xlink="http://www.w3.org/1999/xlink" width="250px" height="250px" viewBox="0 0 250 250" y="0px" x="0px" enable-background="new 0 0 250 250"><defs><symbol overflow="visible" id="606769cea"><path d="M21.953-83.313c.945 2.961 2.047 6.184 3.297 9.672a107.499 107.499 0 0 0 4.484 10.547 95.147 95.147 0 0 0 5.844 10.328c2.164 3.325 4.645 6.278 7.438 8.86 2.8 2.574 5.894 4.633 9.28 6.172 3.395 1.53 7.165 2.297 11.313 2.297 4.082 0 7.536-.594 10.36-1.782 2.832-1.195 5.129-2.8 6.89-4.812 1.758-2.008 3.032-4.364 3.813-7.063.781-2.707 1.172-5.535 1.172-8.484 0-6.469-2.34-11.524-7.016-15.172-4.68-3.645-11.45-5.469-20.312-5.469a55.003 55.003 0 0 0-6.407.375v-14.328c.508.063.97.094 1.375.094h.703c4.395 0 8.305-.547 11.735-1.64 3.426-1.102 6.3-2.598 8.625-4.485 2.32-1.883 4.078-4.082 5.266-6.594a18.163 18.163 0 0 0 1.796-7.906c0-2.52-.445-4.754-1.328-6.703-.875-1.946-2.07-3.578-3.578-4.89-1.5-1.321-3.289-2.313-5.36-2.97-2.073-.664-4.34-1-6.796-1-1.688 0-3.32.118-4.89.344a41.808 41.808 0 0 0-5 1.031 55.962 55.962 0 0 0-5.61 1.844c-1.98.75-4.227 1.688-6.734 2.813l-5.376-12.907c4.907-2.382 9.618-4.187 14.141-5.406a52.692 52.692 0 0 1 13.86-1.844c4.519 0 8.71.727 12.578 2.172 3.863 1.438 7.191 3.434 9.984 5.985 2.79 2.543 4.973 5.574 6.547 9.093 1.57 3.512 2.36 7.309 2.36 11.391 0 11.25-5.372 20.297-16.11 27.14v.376c4.207 1.761 7.723 3.933 10.547 6.515a74.64 74.64 0 0 0 5.797.75c2.039.188 3.91.281 5.609.281 1.758 0 3.613-.124 5.563-.374 1.945-.25 3.94-.72 5.984-1.407 2.039-.695 4.113-1.672 6.219-2.922 2.101-1.257 4.222-2.894 6.359-4.906v-52.219h29.875v13.86h-14.422V0h-15.453v-71.625l-.375-.094c-3.586 2.387-6.95 3.961-10.094 4.719a41.581 41.581 0 0 1-13 .984c-1.125-.093-2.289-.203-3.484-.328l-.094.375c1 2.574 1.5 5.746 1.5 9.516 0 5.094-.851 9.808-2.547 14.14-1.687 4.336-4.12 8.09-7.297 11.266-3.168 3.168-7 5.633-11.5 7.39-4.492 1.762-9.53 2.641-15.125 2.641-5.968 0-11.355-1.05-16.156-3.156-4.805-2.101-9.137-4.816-13-8.14a59.607 59.607 0 0 1-10.14-11.266c-2.887-4.188-5.368-8.383-7.438-12.594-2.074-4.207-3.773-8.21-5.094-12.016-1.312-3.8-2.289-6.957-2.922-9.468zm0 0"/></symbol></defs><use xlink:href="#606769cea" x="48.34235" y="190"/></svg>