<?xml version='1.0' encoding='UTF-8'?>
<svg xmlns="http://www.w3.org/2000/svg" xmlns:xlink="http://www.w3.org/1999/xlink" width="250px" height="250px" viewBox="0 0 250 250" y="0px" x="0px" enable-background="new 0 0 250 250"><defs><symbol overflow="visible" id="48da179ea"><path d="M61.156-75.39c-1.125.124-2.195.234-3.203.328-1 .093-2.039.14-3.11.14-5.085 0-9.683-.91-13.796-2.734-4.117-1.82-7.637-4.27-10.563-7.344-2.918-3.082-5.164-6.648-6.734-10.703-1.574-4.05-2.36-8.305-2.36-12.766 0-3.207.438-6.316 1.313-9.328.883-3.02 2.27-5.848 4.156-8.484l-.093-.375H-3.297v-13.86h152.188v13.86h-14.407V0h-15.468v-126.656H83.5l-.094.375c1.625 1.636 3.13 3.601 4.516 5.89 1.383 2.293 2.562 4.793 3.531 7.5.977 2.7 1.75 5.528 2.313 8.485.562 2.949.843 5.93.843 8.937 0 4.906-.773 9.653-2.312 14.235-1.531 4.586-3.7 8.918-6.5 13-2.793 4.086-6.152 7.87-10.078 11.359-3.93 3.492-8.278 6.586-13.047 9.281v.375c3.133 2.461 6.492 5.403 10.078 8.828a298.78 298.78 0 0 1 10.64 10.688c3.52 3.71 6.852 7.402 10 11.078 3.145 3.668 5.848 7.012 8.11 10.031L90.844 2.36a572.75 572.75 0 0 0-7.36-9c-2.949-3.55-6.246-7.257-9.89-11.125a214.388 214.388 0 0 0-11.828-11.593 122.04 122.04 0 0 0-13.235-10.5 31.592 31.592 0 0 1-7.11 2.359c-2.48.5-4.948.75-7.405.75-2.825 0-5.543-.344-8.157-1.031-2.605-.696-4.93-1.703-6.968-3.016-2.043-1.32-3.664-2.941-4.86-4.86-1.187-1.913-1.781-4.128-1.781-6.64 0-3.957 1.457-7.02 4.375-9.187 2.926-2.164 6.742-3.25 11.453-3.25 3.457 0 6.961.617 10.516 1.843 3.55 1.22 7.02 3.055 10.406 5.5 1.758-.375 3.738-1.047 5.938-2.015 2.195-.977 4.44-2.239 6.734-3.782 2.3-1.539 4.535-3.363 6.703-5.468 2.164-2.102 4.094-4.504 5.781-7.203 1.696-2.707 3.063-5.676 4.094-8.907 1.04-3.238 1.563-6.742 1.563-10.515 0-3.758-.555-7.461-1.657-11.11-1.094-3.644-2.71-6.894-4.844-9.75-2.136-2.863-4.808-5.175-8.015-6.937-3.2-1.758-6.902-2.64-11.11-2.64-3.335 0-6.101.523-8.296 1.562-2.2 1.031-3.993 2.367-5.375 4-1.375 1.636-2.352 3.445-2.922 5.422-.563 1.98-.844 3.914-.844 5.796 0 2.45.438 4.852 1.313 7.204a18.857 18.857 0 0 0 3.921 6.312c1.727 1.856 3.88 3.352 6.453 4.484 2.57 1.126 5.524 1.688 8.86 1.688 1.07 0 2.36-.094 3.86-.281zm0 0"/></symbol></defs><use xlink:href="#48da179ea" x="52.29523" y="190"/></svg>