<?xml version='1.0' encoding='UTF-8'?>
<svg xmlns="http://www.w3.org/2000/svg" xmlns:xlink="http://www.w3.org/1999/xlink" width="250px" height="250px" viewBox="0 0 250 250" y="0px" x="0px" enable-background="new 0 0 250 250"><defs><symbol overflow="visible" id="48da179ea"><path d="M65.594-80.86c-1.211.137-2.356.258-3.438.36-1.074.094-2.183.14-3.328.14-5.46 0-10.398-.972-14.812-2.921-4.418-1.957-8.196-4.586-11.328-7.89-3.126-3.302-5.532-7.126-7.22-11.47-1.687-4.343-2.53-8.91-2.53-13.703 0-3.426.472-6.754 1.421-9.984.946-3.238 2.43-6.274 4.453-9.11l-.109-.406H-3.53v-14.86h163.234v14.86h-15.469V0h-16.578v-135.844h-38.11l-.093.406c1.75 1.75 3.363 3.856 4.844 6.313 1.488 2.46 2.754 5.14 3.797 8.047a60.728 60.728 0 0 1 2.469 9.094c.613 3.168.921 6.367.921 9.593 0 5.262-.828 10.352-2.484 15.266-1.648 4.918-3.969 9.57-6.969 13.953-3 4.375-6.61 8.434-10.828 12.172-4.21 3.742-8.871 7.059-13.984 9.953v.406c3.363 2.625 6.969 5.778 10.812 9.453a337.41 337.41 0 0 1 11.422 11.485c3.77 3.969 7.336 7.93 10.703 11.875 3.375 3.937 6.274 7.523 8.703 10.75l-11.421 9.61C95.344-.103 92.71-3.32 89.546-7.126c-3.168-3.813-6.703-7.785-10.61-11.922-3.906-4.144-8.136-8.289-12.687-12.437A129.5 129.5 0 0 0 52.047-42.75a32.927 32.927 0 0 1-7.625 2.531 40.406 40.406 0 0 1-7.938.797c-3.03 0-5.949-.367-8.75-1.11-2.793-.738-5.28-1.816-7.468-3.234-2.188-1.414-3.922-3.148-5.203-5.203-1.282-2.05-1.922-4.426-1.922-7.125 0-4.25 1.566-7.535 4.703-9.86 3.133-2.32 7.226-3.484 12.281-3.484 3.695 0 7.445.657 11.25 1.97 3.813 1.312 7.54 3.288 11.188 5.921 1.882-.406 4.003-1.129 6.359-2.172 2.363-1.05 4.773-2.398 7.234-4.047 2.457-1.656 4.848-3.609 7.172-5.859 2.32-2.258 4.395-4.836 6.219-7.734 1.82-2.907 3.285-6.094 4.39-9.563 1.114-3.469 1.672-7.223 1.672-11.266 0-4.039-.59-8.015-1.765-11.921-1.18-3.907-2.914-7.391-5.203-10.454-2.293-3.07-5.157-5.55-8.594-7.437-3.438-1.883-7.414-2.828-11.922-2.828-3.574 0-6.543.558-8.906 1.672-2.356 1.105-4.278 2.539-5.766 4.297-1.48 1.75-2.523 3.687-3.125 5.812-.605 2.117-.906 4.184-.906 6.203 0 2.625.469 5.203 1.406 7.735a20.221 20.221 0 0 0 4.203 6.78c1.852 1.981 4.16 3.579 6.922 4.798 2.758 1.21 5.926 1.812 9.5 1.812 1.145 0 2.524-.097 4.14-.297zm0 0"/></symbol></defs><use xlink:href="#48da179ea" x="46.92017" y="200"/></svg>