<?xml version='1.0' encoding='UTF-8'?>
<svg xmlns="http://www.w3.org/2000/svg" xmlns:xlink="http://www.w3.org/1999/xlink" width="250px" height="250px" viewBox="0 0 250 250" y="0px" x="0px" enable-background="new 0 0 250 250"><defs><symbol overflow="visible" id="efc1beffa"><path d="M63.14-7.547v.484a85.634 85.634 0 0 0 9.141 8.61c3.207 2.613 6.301 4.926 9.281 6.937 2.989 2.008 5.754 3.704 8.297 5.079 2.54 1.382 4.63 2.425 6.266 3.124l-6.688 11.766c-3.96-2.074-7.902-4.492-11.828-7.25a190.744 190.744 0 0 1-11.406-8.672 163.806 163.806 0 0 1-10.375-9.234C52.598.16 49.695-2.82 47.125-5.656c-5.406-.5-9.98-1.473-13.719-2.922-3.742-1.445-6.789-3.176-9.14-5.188-2.356-2.007-4.07-4.175-5.141-6.5-1.063-2.32-1.594-4.582-1.594-6.78 0-1.571.266-3.079.797-4.517a10.579 10.579 0 0 1 2.344-3.765c1.039-1.07 2.332-1.922 3.875-2.547 1.539-.633 3.316-.953 5.328-.953 2.133 0 4.41.383 6.828 1.14 2.414.75 4.785 1.883 7.11 3.391 2.332 1.5 4.566 3.402 6.703 5.703 2.132 2.293 4.02 4.977 5.656 8.047 7.851-1.312 13.789-3.96 17.812-7.953 4.02-3.988 6.032-9.223 6.032-15.703 0-2.508-.336-4.547-1-6.11-.657-1.57-1.649-2.796-2.97-3.671-1.312-.883-2.96-1.47-4.937-1.75-1.98-.29-4.293-.438-6.937-.438H38.266c-4.657 0-8.684-.988-12.078-2.969-3.387-1.976-6.196-4.488-8.422-7.53a32.25 32.25 0 0 1-4.953-10.079c-1.063-3.676-1.594-7.21-1.594-10.61 0-3.706.594-6.8 1.781-9.28 1.195-2.477 2.832-4.458 4.906-5.938 2.07-1.477 4.535-2.531 7.39-3.156 2.864-.625 5.958-.938 9.282-.938h32.89v-19.984H-3.39v-13.86H107.25v13.86H82.937v33.828h-44.39c-4.719 0-7.961.664-9.719 1.984-1.75 1.324-2.625 3.461-2.625 6.406 0 1.387.188 2.883.563 4.485a11.99 11.99 0 0 0 2.062 4.422c1.008 1.355 2.379 2.492 4.11 3.406 1.726.906 3.94 1.36 6.64 1.36h26.297c5.406 0 9.957.663 13.656 1.984 3.707 1.312 6.692 3.148 8.953 5.5 2.258 2.355 3.891 5.168 4.891 8.437 1.008 3.262 1.516 6.809 1.516 10.64 0 4.47-.633 8.653-1.891 12.548a32.538 32.538 0 0 1-5.734 10.593c-2.575 3.18-5.856 5.915-9.844 8.204-3.992 2.293-8.75 4.062-14.281 5.312zm0 0"/></symbol></defs><use xlink:href="#efc1beffa" x="73.09491" y="190"/></svg>