<?xml version='1.0' encoding='UTF-8'?>
<svg xmlns="http://www.w3.org/2000/svg" xmlns:xlink="http://www.w3.org/1999/xlink" width="250px" height="250px" viewBox="0 0 250 250" y="0px" x="0px" enable-background="new 0 0 250 250"><defs><symbol overflow="visible" id="e1a6412aa"><path d="M140.984-126.656h-14.422V0H111.11v-126.656H87.734v58.328c0 6.543-.898 12.168-2.687 16.875-1.793 4.71-4.246 8.605-7.36 11.687a29.2 29.2 0 0 1-10.874 6.828c-4.149 1.481-8.606 2.22-13.376 2.22-5.343 0-10.167-.848-14.468-2.548-4.305-1.695-7.965-4.207-10.985-7.53-3.011-3.333-5.336-7.462-6.968-12.392-1.637-4.937-2.453-10.609-2.453-17.015v-56.453h-21.86v-13.86h144.281zm-106.78 0v59.375c0 2.886.327 5.668.983 8.344.665 2.667 1.735 5.039 3.204 7.109 1.476 2.074 3.425 3.742 5.843 5 2.426 1.25 5.399 1.875 8.922 1.875 3.57 0 6.567-.625 8.985-1.875 2.425-1.258 4.39-2.926 5.89-5 1.508-2.07 2.594-4.442 3.25-7.11.664-2.675 1-5.457 1-8.343v-59.375zm0 0"/></symbol></defs><use xlink:href="#e1a6412aa" x="56.24811" y="190"/></svg>