<?xml version='1.0' encoding='UTF-8'?>
<svg xmlns="http://www.w3.org/2000/svg" xmlns:xlink="http://www.w3.org/1999/xlink" width="250px" height="250px" viewBox="0 0 250 250" y="0px" x="0px" enable-background="new 0 0 250 250"><defs><symbol overflow="visible" id="fb0f5a71a"><path d="M118.078-126.656H91.5v41.375H59.75c-9.867 0-17.313 2.437-22.344 7.312-5.023 4.867-7.531 11.852-7.531 20.953 0 5.157.832 9.715 2.5 13.672 1.664 3.961 3.957 7.274 6.875 9.938 2.914 2.668 6.383 4.695 10.406 6.078 4.02 1.387 8.39 2.078 13.11 2.078 4.957 0 8.945-.754 11.968-2.266a80.076 80.076 0 0 1-.562-4.14 34.548 34.548 0 0 1-.188-3.594c0-2.633.329-5.348.985-8.14.656-2.801 1.66-5.348 3.015-7.641 1.352-2.29 3.082-4.16 5.188-5.61 2.101-1.445 4.629-2.172 7.578-2.172 1.82 0 3.55.32 5.188.954a11.48 11.48 0 0 1 4.28 2.875c1.227 1.28 2.204 2.898 2.923 4.843.726 1.95 1.093 4.215 1.093 6.797 0 2.574-.351 4.946-1.046 7.11a28.754 28.754 0 0 1-2.688 6.03 35.54 35.54 0 0 1-3.719 5.188 90.179 90.179 0 0 1-4.047 4.375c1.375 3.024 2.832 5.727 4.375 8.11 1.54 2.386 3.145 4.523 4.813 6.406a60.4 60.4 0 0 0 5.031 5.094c1.695 1.5 3.395 2.91 5.094 4.234L100.453 15.36c-3.324-2.949-6.168-5.886-8.531-8.812-2.356-2.918-4.336-5.664-5.938-8.235-1.593-2.582-2.898-4.91-3.906-6.984-1-2.07-1.82-3.738-2.453-5-4.336 1.7-9.672 2.547-16.016 2.547-8.168 0-15.297-1.332-21.39-4C36.125-17.789 31.05-21.367 27-25.859c-4.055-4.5-7.086-9.641-9.094-15.422-2.011-5.782-3.015-11.782-3.015-18 0-6.469 1.035-12.164 3.109-17.094 2.07-4.938 4.96-9.082 8.672-12.438 3.707-3.363 8.117-5.91 13.234-7.64 5.125-1.727 10.735-2.594 16.828-2.594h19.313v-27.61H-3.297v-13.859h121.375zm0 0"/></symbol></defs><use xlink:href="#fb0f5a71a" x="67.68323" y="190"/></svg>