<?xml version='1.0' encoding='UTF-8'?>
<svg xmlns="http://www.w3.org/2000/svg" xmlns:xlink="http://www.w3.org/1999/xlink" width="250px" height="250px" viewBox="0 0 250 250" y="0px" x="0px" enable-background="new 0 0 250 250"><defs><symbol overflow="visible" id="6b7a724da"><path d="M126.844-135.844H111.39V0H94.812v-135.844H49.22v78.438c0 1.074-.07 2.32-.203 3.734a15.378 15.378 0 0 1-.97 4.094c-.5 1.312-1.226 2.43-2.171 3.344-.938.906-2.246 1.359-3.922 1.359-1.824 0-3.836-.586-6.031-1.766-2.188-1.187-4.43-2.738-6.719-4.656-2.281-1.914-4.484-4.086-6.61-6.516a68.743 68.743 0 0 1-5.718-7.484c-1.68-2.562-3.023-5.05-4.031-7.469-1.012-2.425-1.516-4.586-1.516-6.484 0-1.676.414-3.02 1.25-4.031.844-1.008 2.02-1.785 3.531-2.328 1.52-.54 3.375-.88 5.563-1.016a120.35 120.35 0 0 1 7.234-.203h3.532v-49.016h-35.97v-14.86h130.376zm0 0"/></symbol></defs><use xlink:href="#6b7a724da" x="63.34473" y="200"/></svg>