<?xml version='1.0' encoding='UTF-8'?>
<svg xmlns="http://www.w3.org/2000/svg" xmlns:xlink="http://www.w3.org/1999/xlink" width="250px" height="250px" viewBox="0 0 250 250" y="0px" x="0px" enable-background="new 0 0 250 250"><defs><symbol overflow="visible" id="a1147b8fa"><path d="M121.844-126.656h-14.406V0H91.983v-36.375l-.39-.094c-5.086 5.532-10.297 9.43-15.64 11.688-5.337 2.261-10.766 3.39-16.298 3.39-5.093 0-9.808-.832-14.14-2.5-4.336-1.664-8.09-3.988-11.266-6.968-3.168-2.989-5.648-6.555-7.438-10.703-1.792-4.145-2.687-8.727-2.687-13.75 0-4.532.863-8.739 2.594-12.626 1.726-3.894 4.758-7.539 9.093-10.937l-.093-.375c-3.711-.945-7.012-2.395-9.907-4.344-2.886-1.945-5.32-4.254-7.296-6.922a30.306 30.306 0 0 1-4.532-8.812 32.114 32.114 0 0 1-1.546-9.89c0-2.833.359-5.833 1.078-9 .726-3.177 1.879-5.989 3.453-8.438H-3.297v-13.86h125.14zm-88.953 0c-1.825 2.261-3.18 4.87-4.063 7.828-.875 2.95-1.312 5.742-1.312 8.375 0 2.773.468 5.367 1.406 7.781a17.993 17.993 0 0 0 4.203 6.36c1.852 1.824 4.129 3.273 6.828 4.343 2.707 1.063 5.817 1.594 9.328 1.594 2.707 0 5.301-.234 7.782-.703 2.476-.469 4.535-.926 6.171-1.375l2.547 14.516c-1.011.124-2.367.382-4.062.765-1.688.375-3.524.922-5.5 1.64-1.98.72-3.992 1.665-6.032 2.829a24.119 24.119 0 0 0-5.515 4.281c-1.637 1.7-2.977 3.711-4.016 6.031-1.031 2.325-1.547 4.996-1.547 8.016 0 2.887.485 5.48 1.453 7.781.977 2.293 2.348 4.242 4.11 5.844 1.758 1.594 3.848 2.82 6.266 3.672 2.414.844 5.101 1.266 8.062 1.266 4.207 0 8.066-.797 11.578-2.391 3.52-1.602 6.66-3.582 9.422-5.938 2.77-2.363 5.16-4.91 7.172-7.64 2.008-2.739 3.613-5.207 4.812-7.407v-67.468zm0 0"/></symbol></defs><use xlink:href="#a1147b8fa" x="65.8009" y="190"/></svg>