<?xml version='1.0' encoding='UTF-8'?>
<svg xmlns="http://www.w3.org/2000/svg" xmlns:xlink="http://www.w3.org/1999/xlink" width="250px" height="250px" viewBox="0 0 250 250" y="0px" x="0px" enable-background="new 0 0 250 250"><defs><symbol overflow="visible" id="f2b99206a"><path d="M119.594-2.078c-2.899 1.074-6.45 1.984-10.656 2.734-4.211.758-8.985 1.14-14.329 1.14-9.992 0-18.914-1.73-26.765-5.187C60-6.848 52.727-11.906 46.03-18.562 39.344-25.22 32.97-33.445 26.906-43.25c-6.062-9.8-12.297-21.02-18.703-33.656l12.531-7.156c2.383 4.523 4.63 7.742 6.735 9.656 2.101 1.918 4.441 2.875 7.015 2.875 2.145 0 4.016-.594 5.61-1.781 1.601-1.196 2.922-2.754 3.953-4.672 1.039-1.914 1.828-4.098 2.36-6.547.538-2.446.812-4.895.812-7.344 0-2.832-.32-5.785-.953-8.86a67.098 67.098 0 0 0-2.547-9.14A78.735 78.735 0 0 0 40-118.688c-1.406-2.863-2.898-5.488-4.469-7.874v-.094H-3.297v-13.86h164.438v13.86h-14.407V0h-15.453v-45.797l-.39-.094c-3.45 3.387-7.278 5.899-11.485 7.532-4.21 1.636-8.39 2.453-12.547 2.453-5.148 0-9.886-1.067-14.218-3.203-4.336-2.133-8.075-4.961-11.22-8.485-3.148-3.52-5.6-7.539-7.359-12.062a38.528 38.528 0 0 1-2.624-14.032c0-4.593.796-9.023 2.39-13.296 1.602-4.27 3.832-8.051 6.688-11.344a32.426 32.426 0 0 1 10.187-7.875c3.926-1.945 8.242-2.922 12.953-2.922 2.707 0 5.285.313 7.735.938 2.445.624 4.8 1.507 7.062 2.64a44.427 44.427 0 0 1 6.5 4.016 68.225 68.225 0 0 1 5.938 4.937l.39-.094v-29.968H52.016c3.207 6.094 5.722 12.047 7.547 17.86 1.82 5.812 2.734 11.671 2.734 17.577 0 4.024-.508 8.012-1.516 11.969-1 3.96-2.554 7.543-4.656 10.75-2.105 3.2-4.793 5.867-8.063 8-3.273 2.137-7.167 3.39-11.687 3.766v.468c4.332 8.493 8.867 15.485 13.61 20.985 4.75 5.492 9.57 9.84 14.468 13.047 4.906 3.199 9.82 5.43 14.75 6.687 4.938 1.25 9.758 1.875 14.469 1.875 5.344 0 10.148-.547 14.422-1.64 4.27-1.102 8.101-2.344 11.5-3.72zm11.781-76.984c-1.137-1.446-2.54-3.098-4.203-4.954a42.944 42.944 0 0 0-5.656-5.218 32.469 32.469 0 0 0-6.97-4.11c-2.542-1.101-5.292-1.656-8.25-1.656-3.01 0-5.73.617-8.155 1.844a20.76 20.76 0 0 0-6.266 4.86c-1.75 2.01-3.102 4.35-4.047 7.015a24.984 24.984 0 0 0-1.406 8.344c0 3.011.5 5.886 1.5 8.624 1.008 2.731 2.406 5.133 4.187 7.204a20.037 20.037 0 0 0 6.454 4.953c2.519 1.218 5.285 1.828 8.296 1.828 2.332 0 4.926-.438 7.782-1.313 2.851-.882 5.52-2.332 8-4.343 2.488-2.008 4.566-4.676 6.234-8 1.664-3.332 2.5-7.446 2.5-12.344zm0 0"/></symbol></defs><use xlink:href="#f2b99206a" x="46.17767" y="190"/></svg>