<?xml version='1.0' encoding='UTF-8'?>
<svg xmlns="http://www.w3.org/2000/svg" xmlns:xlink="http://www.w3.org/1999/xlink" width="250px" height="250px" viewBox="0 0 250 250" y="0px" x="0px" enable-background="new 0 0 250 250"><defs><symbol overflow="visible" id="73ec9f8ca"><path d="M92.266-126.656H62.109c3.196 5.531 5.786 11.172 7.766 16.922 1.977 5.742 2.969 11.562 2.969 17.468 0 4.47-.68 8.762-2.031 12.875-1.344 4.118-3.325 7.793-5.938 11.032-2.605 3.23-5.84 5.867-9.703 7.906-3.867 2.043-8.309 3.187-13.328 3.437l-.188.47c5.657 8.804 12 17.116 19.032 24.937 7.039 7.812 15.175 15.242 24.406 22.28L75.016 2.267a156.548 156.548 0 0 1-15.235-12.86 217.834 217.834 0 0 1-13.61-14.328A226.137 226.137 0 0 1 34.25-39.906c-3.668-5.063-7.027-9.992-10.078-14.797-3.043-4.813-5.762-9.43-8.156-13.86-2.387-4.425-4.43-8.46-6.125-12.109l12.921-6.969c2.258 4.899 4.817 8.746 7.672 11.547 2.864 2.793 6.176 4.188 9.938 4.188 2.707 0 5.129-.688 7.266-2.063a18.378 18.378 0 0 0 5.359-5.328 25.504 25.504 0 0 0 3.297-7.156c.758-2.613 1.14-5.176 1.14-7.688 0-2.957-.382-5.863-1.14-8.718a56.77 56.77 0 0 0-2.922-8.391 80.925 80.925 0 0 0-4-7.953 1081.331 1081.331 0 0 0-4.281-7.453H-3.297v-13.86h95.563zm0 0"/></symbol></defs><use xlink:href="#73ec9f8ca" x="80.57715" y="190"/></svg>