<?xml version='1.0' encoding='UTF-8'?>
<svg xmlns="http://www.w3.org/2000/svg" xmlns:xlink="http://www.w3.org/1999/xlink" width="250px" height="250px" viewBox="0 0 250 250" y="0px" x="0px" enable-background="new 0 0 250 250"><defs><symbol overflow="visible" id="e2ea7ed8a"><path d="M106.828-16.672A68.125 68.125 0 0 1 89.453-9.39c-6.137 1.618-12.266 2.422-18.39 2.422-8.368 0-15.934-1.394-22.704-4.187-6.773-2.801-12.57-6.676-17.39-11.625-4.813-4.957-8.516-10.77-11.11-17.438-2.593-6.676-3.89-13.922-3.89-21.734 0-7.414 1.16-13.883 3.484-19.406 2.32-5.532 5.504-10.13 9.547-13.797 4.05-3.676 8.82-6.422 14.313-8.235 5.488-1.82 11.398-2.734 17.734-2.734h19.719v-29.719H-3.531v-14.86h123.61v14.86h-22.75v44.469H64.687c-4.856 0-9.29.68-13.297 2.031-4.012 1.344-7.45 3.336-10.313 5.969-2.855 2.625-5.074 5.875-6.656 9.75-1.586 3.867-2.375 8.36-2.375 13.484 0 5.594.922 10.684 2.766 15.266 1.851 4.586 4.445 8.527 7.78 11.828 3.344 3.305 7.321 5.867 11.938 7.688 4.614 1.812 9.68 2.718 15.203 2.718 3.301 0 6.633-.332 10-1a67.795 67.795 0 0 0 9.813-2.734 82.36 82.36 0 0 0 9.14-3.938 74.766 74.766 0 0 0 8.141-4.765zm0 0"/></symbol></defs><use xlink:href="#e2ea7ed8a" x="66.73071" y="200"/></svg>