<?xml version='1.0' encoding='UTF-8'?>
<svg xmlns="http://www.w3.org/2000/svg" xmlns:xlink="http://www.w3.org/1999/xlink" width="250px" height="250px" viewBox="0 0 250 250" y="0px" x="0px" enable-background="new 0 0 250 250"><defs><symbol overflow="visible" id="487466b1a"><path d="M116-126.656h-14.406V0h-15.36v-82.734h-30.64c-4.211 0-8.012.265-11.407.796-3.386.532-6.273 1.602-8.656 3.204-2.386 1.605-4.226 3.84-5.515 6.703-1.293 2.855-1.938 6.605-1.938 11.25 0 6.031.988 11.593 2.969 16.687 1.976 5.086 4.504 9.746 7.578 13.985a86.935 86.935 0 0 0 10.234 11.734 298.843 298.843 0 0 0 10.797 9.89l-9.422 10.75c-.574-.312-1.914-1.242-4.015-2.78-2.106-1.54-4.555-3.63-7.344-6.266-2.793-2.645-5.746-5.848-8.86-9.61-3.117-3.77-5.976-8.023-8.578-12.765-2.605-4.75-4.773-9.985-6.5-15.703-1.73-5.72-2.593-11.875-2.593-18.47 0-6.53.926-11.944 2.781-16.25 1.852-4.312 4.473-7.737 7.86-10.28 3.394-2.54 7.507-4.313 12.343-5.313 4.844-1.008 10.25-1.516 16.219-1.516h34.687v-29.968h-89.53v-13.86H116zm0 0"/></symbol></defs><use xlink:href="#487466b1a" x="68.71851" y="190"/></svg>