<?xml version='1.0' encoding='UTF-8'?>
<svg xmlns="http://www.w3.org/2000/svg" xmlns:xlink="http://www.w3.org/1999/xlink" width="250px" height="250px" viewBox="0 0 250 250" y="0px" x="0px" enable-background="new 0 0 250 250"><defs><symbol overflow="visible" id="957fc670a"><path d="M122.406-135.844h-15.469V0H90.267v-48.313l-.407-.109c-4.523 4.055-9.578 6.938-15.171 8.656-5.586 1.711-11.106 2.563-16.563 2.563-5.805 0-11.094-.836-15.875-2.516-4.781-1.687-8.89-4.265-12.328-7.734-3.438-3.469-6.121-7.848-8.047-13.14C19.957-65.884 19-72.165 19-79.438v-56.407H-3.531v-14.86h125.937zm-32.14 0H35.375v55.485c0 4.25.352 8.062 1.063 11.437.707 3.367 1.921 6.23 3.64 8.594 1.719 2.355 3.988 4.156 6.813 5.406 2.832 1.242 6.375 1.86 10.625 1.86 6.937 0 13.203-1.633 18.797-4.907 5.593-3.27 10.242-7.566 13.953-12.89zm0 0"/></symbol></defs><use xlink:href="#957fc670a" x="65.56836" y="200"/></svg>