<?xml version='1.0' encoding='UTF-8'?>
<svg xmlns="http://www.w3.org/2000/svg" xmlns:xlink="http://www.w3.org/1999/xlink" width="250px" height="250px" viewBox="0 0 250 250" y="0px" x="0px" enable-background="new 0 0 250 250"><defs><symbol overflow="visible" id="68794151a"><path d="M47.875-75.297L39.953-88.39c4.145-3.02 8.695-5.425 13.656-7.218 4.97-1.79 9.938-2.688 14.907-2.688 4.582 0 8.82.805 12.718 2.406 3.895 1.606 7.27 3.825 10.125 6.657 2.864 2.824 5.141 6.136 6.829 9.937 1.695 3.805 2.675 7.902 2.937 12.297 4.52 0 8.332-.625 11.438-1.875 3.113-1.258 5.8-2.832 8.062-4.719v-53.062H-3.297v-13.86H150.5v13.86h-14.422V0h-15.453v-57.016l-.469-.093a30.202 30.202 0 0 1-4.297 2.172 27.257 27.257 0 0 1-4.609 1.359 46.107 46.107 0 0 1-5.422.766c-1.95.156-4.18.234-6.687.234-1.2 3.324-2.852 6.324-4.954 9a33.19 33.19 0 0 1-7.453 6.922c-2.855 1.949-6.058 3.445-9.609 4.484-3.543 1.031-7.355 1.547-11.438 1.547-6.343 0-12.328-1.223-17.953-3.672-5.625-2.457-10.843-5.68-15.656-9.672-4.805-3.988-9.2-8.539-13.187-13.656-3.993-5.125-7.524-10.32-10.594-15.594l11.594-8.11c3.132 5.282 6.445 10.138 9.937 14.563 3.488 4.43 7.113 8.278 10.875 11.547 3.77 3.262 7.68 5.805 11.734 7.625 4.051 1.824 8.22 2.735 12.5 2.735 3.383 0 6.395-.563 9.032-1.688 2.644-1.133 4.879-2.676 6.703-4.625 1.82-1.945 3.219-4.207 4.187-6.781.977-2.582 1.47-5.348 1.47-8.297 0-2.508-.384-4.848-1.141-7.016-.75-2.164-1.836-4.05-3.25-5.656-1.418-1.601-3.149-2.844-5.188-3.719-2.043-.882-4.352-1.328-6.922-1.328-2.2 0-4.336.29-6.406.86a39.436 39.436 0 0 0-5.938 2.125 45.107 45.107 0 0 0-5.28 2.78c-1.626 1-3.071 1.97-4.329 2.907zm0 0"/></symbol></defs><use xlink:href="#68794151a" x="51.49524" y="190"/></svg>