<?xml version='1.0' encoding='UTF-8'?>
<svg xmlns="http://www.w3.org/2000/svg" xmlns:xlink="http://www.w3.org/1999/xlink" width="250px" height="250px" viewBox="0 0 250 250" y="0px" x="0px" enable-background="new 0 0 250 250"><defs><symbol overflow="visible" id="b880a40fa"><path d="M127.875-126.656h-14.406V0H98.016v-52.875H46.172v11.219c0 1.949-.078 3.68-.234 5.187-.157 1.512-.5 2.774-1.032 3.782a5.49 5.49 0 0 1-2.265 2.296c-.97.532-2.274.797-3.907.797-1.636 0-3.46-.484-5.468-1.453-2.012-.976-4.055-2.297-6.125-3.953a55.621 55.621 0 0 1-6.032-5.656 54.785 54.785 0 0 1-5.234-6.61c-1.531-2.289-2.773-4.566-3.719-6.828-.937-2.258-1.406-4.332-1.406-6.218 0-1.32.234-2.407.703-3.25a4.661 4.661 0 0 1 1.969-1.938c.851-.438 1.875-.734 3.062-.89 1.196-.157 2.551-.235 4.063-.235h10.172v-60.031H-3.297v-13.86h131.172zm-81.703 0v60.031h51.844v-60.031zm0 0"/></symbol></defs><use xlink:href="#b880a40fa" x="62.78918" y="190"/></svg>