<?xml version='1.0' encoding='UTF-8'?>
<svg xmlns="http://www.w3.org/2000/svg" xmlns:xlink="http://www.w3.org/1999/xlink" width="250px" height="250px" viewBox="0 0 250 250" y="0px" x="0px" enable-background="new 0 0 250 250"><defs><symbol overflow="visible" id="daf9b1bda"><path d="M67.828-12.938c5.582 0 10.766-1.007 15.547-3.03 4.79-2.02 8.922-4.817 12.39-8.391 3.47-3.57 6.176-7.801 8.126-12.688 1.957-4.883 2.937-10.223 2.937-16.016 0-4.851-.656-9.113-1.969-12.78-1.312-3.677-2.996-6.86-5.046-9.548-2.055-2.695-4.313-4.957-6.782-6.78-2.46-1.821-4.836-3.306-7.125-4.454-2.281-1.145-4.32-1.984-6.11-2.516-1.78-.539-3.042-.879-3.78-1.015-1.762.804-3.938 1.594-6.532 2.375a334.4 334.4 0 0 0-8.234 2.578c-3.367 1.148-6.766 2.594-10.203 4.344-3.438 1.75-6.543 4.043-9.313 6.875-2.761 2.836-5 6.34-6.718 10.515-1.72 4.18-2.578 9.23-2.578 15.157 0 5.187.874 9.953 2.624 14.296 1.758 4.344 4.204 8.086 7.329 11.22 3.132 3.136 6.859 5.562 11.172 7.28 4.312 1.72 9.066 2.579 14.265 2.579zm70.547-122.906H94.906v16.375c0 3.305-.543 6.742-1.625 10.313-1.074 3.574-2.652 6.605-4.734 9.094 5.32 1.886 10.086 4.464 14.297 7.734 4.207 3.273 7.773 7.047 10.703 11.328 2.937 4.273 5.195 8.969 6.781 14.094 1.582 5.117 2.375 10.469 2.375 16.062 0 7.418-1.351 14.36-4.047 20.828-2.687 6.47-6.445 12.118-11.265 16.938-4.813 4.812-10.559 8.601-17.235 11.36-6.668 2.757-13.98 4.14-21.937 4.14-8.418 0-15.86-1.496-22.328-4.485-6.47-3-11.899-6.992-16.282-11.984-4.375-4.988-7.71-10.68-10-17.078-2.293-6.406-3.437-13.047-3.437-19.922 0-7.207 1.062-13.504 3.187-18.89 2.125-5.395 5.036-10.063 8.735-14 3.707-3.946 8.101-7.235 13.187-9.86 5.094-2.625 10.64-4.781 16.64-6.469a320.269 320.269 0 0 0 7.876-2.421c2.5-.813 4.672-1.958 6.516-3.438 1.851-1.488 3.316-3.426 4.39-5.813 1.082-2.394 1.625-5.515 1.625-9.359v-14.547h-81.86v-14.86h141.907zm0 0"/></symbol></defs><use xlink:href="#daf9b1bda" x="57.5835" y="200"/></svg>