<?xml version='1.0' encoding='UTF-8'?>
<svg xmlns="http://www.w3.org/2000/svg" xmlns:xlink="http://www.w3.org/1999/xlink" width="250px" height="250px" viewBox="0 0 250 250" y="0px" x="0px" enable-background="new 0 0 250 250"><defs><symbol overflow="visible" id="e85de3b9a"><path d="M135.797-126.656h-14.422V.094h-15.453v-88.297C102.586-89.398 99.445-90 96.5-90c-2.95 0-5.527.555-7.734 1.656-2.2 1.094-4.04 2.555-5.516 4.375-1.469 1.824-2.586 3.961-3.344 6.406-.75 2.45-1.125 5.028-1.125 7.735 0 1.062.047 2.148.14 3.25.095 1.094.204 2.18.329 3.25H64.844a191.544 191.544 0 0 0-1.75-10.453c-.657-3.332-1.602-6.254-2.828-8.766-1.23-2.52-2.82-4.516-4.766-5.984-1.95-1.477-4.46-2.219-7.531-2.219-2.961 0-5.492.602-7.594 1.797-2.105 1.187-3.852 2.851-5.234 4.984-1.375 2.137-2.399 4.637-3.063 7.5-.656 2.856-.984 5.95-.984 9.281 0 7.157 1.222 13.579 3.672 19.266a53.819 53.819 0 0 0 9.953 15.313c4.176 4.523 9.008 8.558 14.5 12.109a161.353 161.353 0 0 0 17.39 9.75L68.984 2.266c-2.261-1.012-5.168-2.52-8.718-4.532-3.555-2.007-7.325-4.488-11.313-7.437-3.992-2.957-7.996-6.414-12.016-10.375-4.023-3.957-7.652-8.383-10.89-13.281-3.23-4.907-5.852-10.305-7.86-16.203-2.011-5.907-3.015-12.286-3.015-19.141 0-5.27.754-10.18 2.265-14.734 1.508-4.563 3.66-8.52 6.454-11.876a29.96 29.96 0 0 1 10.125-7.921c3.957-1.914 8.359-2.875 13.203-2.875 3.633 0 6.77.523 9.406 1.562 2.645 1.031 4.926 2.32 6.844 3.86 1.914 1.53 3.5 3.195 4.75 4.984a89.297 89.297 0 0 1 3.312 5.047L72-90.75c1.188-2.633 2.613-4.863 4.281-6.688 1.664-1.82 3.489-3.296 5.469-4.421a23.776 23.776 0 0 1 6.266-2.5 27.574 27.574 0 0 1 6.593-.813c1.946 0 3.88.172 5.797.516a34.15 34.15 0 0 1 5.516 1.469v-23.47H-3.297v-13.859h139.094zm0 0"/></symbol></defs><use xlink:href="#e85de3b9a" x="58.8363" y="190"/></svg>