<?xml version='1.0' encoding='UTF-8'?>
<svg xmlns="http://www.w3.org/2000/svg" xmlns:xlink="http://www.w3.org/1999/xlink" width="250px" height="250px" viewBox="0 0 250 250" y="0px" x="0px" enable-background="new 0 0 250 250"><defs><symbol overflow="visible" id="312bd23fa"><path d="M60.406-111.766c0 4.524-.57 8.856-1.703 13-1.125 4.149-2.82 7.965-5.078 11.454-2.262 3.492-5.074 6.601-8.438 9.328-3.367 2.73-7.308 4.976-11.828 6.734.946 4.273 2.266 7.902 3.953 10.89 1.696 2.981 3.708 5.446 6.032 7.391 2.332 1.95 4.91 3.367 7.734 4.25 2.82.875 5.805 1.313 8.953 1.313 6.282 0 12.102-1.442 17.469-4.328 5.375-2.895 9.883-6.883 13.531-11.97v-76.812h29.875v13.86h-14.422V0H91.031v-44.11l-.375-.093c-1.636 1.387-3.586 2.758-5.844 4.11-2.261 1.343-4.761 2.538-7.5 3.577-2.73 1.032-5.667 1.883-8.812 2.547-3.137.657-6.402.985-9.797.985-7.031 0-13.047-1.364-18.047-4.094-4.992-2.738-9.168-6.336-12.531-10.797-3.355-4.457-5.992-9.531-7.906-15.219a95.13 95.13 0 0 1-4.11-17.484c5.532-1.125 10.164-2.754 13.907-4.89 3.738-2.134 6.738-4.598 9-7.391 2.257-2.801 3.875-5.817 4.843-9.047a33.97 33.97 0 0 0 1.47-9.86c0-5.53-1.087-9.691-3.25-12.484-2.169-2.8-4.888-4.203-8.157-4.203-2.887 0-5.211.976-6.969 2.922-1.762 1.949-2.64 4.433-2.64 7.453 0 .562.062 1.258.187 2.078.125.813.438 1.742.938 2.781.507 1.031 1.265 2.196 2.265 3.485 1.008 1.28 2.363 2.648 4.063 4.093l-8.391 10.266c-2.898-1.563-5.258-3.3-7.078-5.219-1.813-1.914-3.227-3.879-4.235-5.89-1-2.008-1.695-3.973-2.078-5.891-.375-1.914-.562-3.691-.562-5.328 0-3.02.515-5.988 1.547-8.906a24.137 24.137 0 0 1 4.672-7.907c2.07-2.363 4.675-4.265 7.812-5.703 3.145-1.445 6.82-2.172 11.031-2.172 4.22 0 7.926.758 11.125 2.266 3.207 1.5 5.91 3.605 8.11 6.313 2.195 2.699 3.86 5.917 4.984 9.656 1.133 3.742 1.703 7.87 1.703 12.39zm0 0"/></symbol></defs><use xlink:href="#312bd23fa" x="66.27148" y="190"/></svg>