<?xml version='1.0' encoding='UTF-8'?>
<svg xmlns="http://www.w3.org/2000/svg" xmlns:xlink="http://www.w3.org/1999/xlink" width="250px" height="250px" viewBox="0 0 250 250" y="0px" x="0px" enable-background="new 0 0 250 250"><defs><symbol overflow="visible" id="398f3f49a"><path d="M49.328-116.531c.738-1.082 1.426-2.446 2.063-4.094.644-1.656.968-3.523.968-5.61 0-1.894-.34-3.546-1.015-4.953-.68-1.414-1.54-2.562-2.578-3.437a10.62 10.62 0 0 0-3.594-1.969 12.755 12.755 0 0 0-4.031-.672c-1.618 0-3.215.325-4.797.97-1.586.636-3 1.663-4.25 3.077-1.25 1.418-2.282 3.219-3.094 5.406-.805 2.188-1.203 4.805-1.203 7.844 0 3.305.488 6.418 1.469 9.344.976 2.93 2.492 5.492 4.547 7.688 2.05 2.187 4.644 3.921 7.78 5.203 3.134 1.28 6.891 1.921 11.266 1.921 3.032 0 5.828-.25 8.391-.75a129.025 129.025 0 0 0 6.672-1.484l2.734 15.563c-1.086.136-2.539.39-4.36.765-1.812.375-3.78.95-5.905 1.719a44.776 44.776 0 0 0-6.47 2.984 25.736 25.736 0 0 0-5.921 4.5c-1.75 1.782-3.184 3.887-4.297 6.313-1.105 2.43-1.656 5.258-1.656 8.484 0 3.032.504 5.73 1.516 8.094 1.007 2.355 2.421 4.375 4.234 6.063 1.82 1.687 4.016 2.968 6.578 3.843 2.563.875 5.36 1.313 8.39 1.313 4.313 0 8.286-.805 11.922-2.422 3.645-1.625 6.915-3.629 9.813-6.016 2.895-2.394 5.383-4.972 7.469-7.734 2.094-2.758 3.75-5.285 4.969-7.578v-88.547h32.03v14.86H113.5V0H96.937v-37.797l-.406-.11c-2.5 2.762-5.133 5.09-7.89 6.985-2.762 1.887-5.575 3.418-8.438 4.594a43.703 43.703 0 0 1-8.64 2.578c-2.899.543-5.696.813-8.391.813-5.324 0-10.262-.875-14.813-2.625-4.543-1.758-8.464-4.223-11.765-7.391-3.305-3.164-5.903-6.922-7.797-11.266-1.887-4.343-2.828-9.144-2.828-14.406 0-4.852.926-9.3 2.781-13.344 1.852-4.039 5.11-7.879 9.766-11.515l-.11-.407c-4.586-1.218-8.543-3.07-11.875-5.562-3.336-2.488-6.101-5.348-8.297-8.578a36.659 36.659 0 0 1-4.906-10.563 42.164 42.164 0 0 1-1.61-11.484c0-4.719.755-9.063 2.266-13.031 1.52-3.977 3.645-7.414 6.375-10.313 2.727-2.894 5.946-5.164 9.657-6.812 3.707-1.657 7.785-2.485 12.234-2.485 4.645 0 8.633.809 11.969 2.422 3.343 1.617 6.07 3.672 8.187 6.172 2.125 2.492 3.692 5.234 4.703 8.234 1.008 3 1.516 5.844 1.516 8.532 0 1.886-.203 3.742-.61 5.562a36.284 36.284 0 0 1-1.515 5.156 39.452 39.452 0 0 1-1.969 4.454 50.46 50.46 0 0 1-1.969 3.437zm0 0"/></symbol></defs><use xlink:href="#398f3f49a" x="62.28345" y="200"/></svg>