<?xml version='1.0' encoding='UTF-8'?>
<svg xmlns="http://www.w3.org/2000/svg" xmlns:xlink="http://www.w3.org/1999/xlink" width="250px" height="250px" viewBox="0 0 250 250" y="0px" x="0px" enable-background="new 0 0 250 250"><defs><symbol overflow="visible" id="68794151a"><path d="M51.344-80.766l-8.485-14.046c4.446-3.227 9.332-5.801 14.657-7.72 5.32-1.925 10.644-2.89 15.968-2.89 4.914 0 9.461.86 13.641 2.578 4.176 1.719 7.797 4.094 10.86 7.125 3.07 3.031 5.515 6.59 7.328 10.672 1.82 4.074 2.867 8.469 3.14 13.188 4.852 0 8.945-.672 12.281-2.016 3.332-1.352 6.211-3.04 8.641-5.063v-56.906H-3.531v-14.86h164.953v14.86h-15.469V0h-16.578v-61.156l-.5-.094a32.524 32.524 0 0 1-4.61 2.328c-1.511.606-3.163 1.094-4.953 1.469-1.78.367-3.718.633-5.812.797-2.086.168-4.477.25-7.172.25-1.281 3.574-3.055 6.793-5.312 9.656-2.25 2.867-4.914 5.344-7.985 7.438-3.062 2.085-6.5 3.683-10.312 4.796-3.805 1.118-7.89 1.672-12.266 1.672-6.812 0-13.234-1.312-19.266-3.937-6.03-2.633-11.624-6.086-16.78-10.36-5.15-4.28-9.86-9.164-14.141-14.656-4.282-5.5-8.075-11.078-11.375-16.734l12.437-8.703c3.363 5.668 6.914 10.875 10.656 15.625 3.739 4.75 7.63 8.882 11.672 12.39 4.051 3.5 8.25 6.23 12.594 8.188 4.344 1.949 8.805 2.922 13.39 2.922 3.633 0 6.868-.602 9.704-1.813 2.832-1.219 5.222-2.867 7.172-4.953 1.957-2.094 3.457-4.52 4.5-7.281 1.039-2.77 1.562-5.739 1.562-8.907 0-2.687-.406-5.19-1.219-7.515-.804-2.332-1.964-4.36-3.484-6.078-1.512-1.719-3.36-3.047-5.547-3.985-2.187-.945-4.668-1.421-7.437-1.421a25.78 25.78 0 0 0-6.875.921 43.442 43.442 0 0 0-6.36 2.266A48.198 48.198 0 0 0 56-83.891a62.685 62.685 0 0 0-4.656 3.125zm0 0"/></symbol></defs><use xlink:href="#68794151a" x="46.06104" y="200"/></svg>