<?xml version='1.0' encoding='UTF-8'?>
<svg xmlns="http://www.w3.org/2000/svg" xmlns:xlink="http://www.w3.org/1999/xlink" width="250px" height="250px" viewBox="0 0 250 250" y="0px" x="0px" enable-background="new 0 0 250 250"><defs><symbol overflow="visible" id="ba633f64a"><path d="M170.578-126.656H94.61v36.187l.485.188a35.862 35.862 0 0 1 5.594-5.985 36.208 36.208 0 0 1 6.874-4.609 36.158 36.158 0 0 1 7.829-2.969 33.776 33.776 0 0 1 8.343-1.047c4.645 0 8.946.93 12.907 2.782a31.55 31.55 0 0 1 10.265 7.64c2.895 3.23 5.16 7.047 6.797 11.453 1.633 4.399 2.453 9.168 2.453 14.313 0 5.781-.992 11.094-2.969 15.937-1.98 4.836-4.527 9.23-7.64 13.188a63.29 63.29 0 0 1-10.406 10.516c-3.836 3.042-7.637 5.632-11.407 7.765l-8.39-14.515a115.802 115.802 0 0 0 4.437-2.72 71.846 71.846 0 0 0 5.516-3.968 59.31 59.31 0 0 0 5.687-5.14 42.943 42.943 0 0 0 5.094-6.266 33.9 33.9 0 0 0 3.672-7.25c.945-2.582 1.422-5.348 1.422-8.297 0-2.82-.445-5.457-1.328-7.906-.875-2.457-2.086-4.598-3.625-6.422a17.088 17.088 0 0 0-5.563-4.328c-2.168-1.07-4.539-1.61-7.11-1.61-3.335 0-6.605.852-9.812 2.547-3.199 1.7-6.117 3.82-8.75 6.36-2.636 2.542-4.882 5.261-6.734 8.156-1.855 2.886-3.07 5.558-3.64 8.015V0H79.155v-44.766l-.281-.093c-3.898 3.586-8.105 6.18-12.625 7.78-4.523 1.595-9.234 2.392-14.14 2.392-5.087 0-9.731-.782-13.938-2.344-4.211-1.57-7.824-3.973-10.844-7.203-3.012-3.239-5.367-7.32-7.062-12.25-1.7-4.938-2.547-10.801-2.547-17.594v-52.578H-3.297v-13.86h173.875zm-91.422 0H32.984v51.734c0 3.961.297 7.512.891 10.656.602 3.137 1.64 5.805 3.11 8a14.545 14.545 0 0 0 5.796 5.047c2.383 1.168 5.367 1.75 8.953 1.75 3.02 0 5.832-.422 8.438-1.265a30.709 30.709 0 0 0 7.297-3.5 34.025 34.025 0 0 0 6.312-5.328 52.387 52.387 0 0 0 5.375-6.782zm0 0"/></symbol></defs><use xlink:href="#ba633f64a" x="41.47186" y="190"/></svg>