<?xml version='1.0' encoding='UTF-8'?>
<svg xmlns="http://www.w3.org/2000/svg" xmlns:xlink="http://www.w3.org/1999/xlink" width="250px" height="250px" viewBox="0 0 250 250" y="0px" x="0px" enable-background="new 0 0 250 250"><defs><symbol overflow="visible" id="1ebb3a56a"><path d="M128.063-79.719c0-3.582 1.05-6.488 3.156-8.719 2.113-2.226 4.863-3.343 8.25-3.343 1.57 0 3.062.312 4.469.937a11.884 11.884 0 0 1 3.734 2.594 11.703 11.703 0 0 1 2.5 3.86c.594 1.48.89 3.1.89 4.859 0 3.574-1.054 6.465-3.156 8.672-2.105 2.199-4.855 3.296-8.25 3.296-1.625 0-3.148-.296-4.562-.89A10.908 10.908 0 0 1 131.406-71a12.497 12.497 0 0 1-2.453-3.875c-.594-1.477-.89-3.094-.89-4.844zm32.703-46.937H113.28v34.781H66.062c-4.648 0-7.867.664-9.656 1.984-1.793 1.313-2.687 3.446-2.687 6.391 0 1.512.187 3.086.562 4.719a12.832 12.832 0 0 0 2.063 4.578c1.008 1.406 2.379 2.57 4.11 3.484 1.726.906 3.94 1.36 6.64 1.36h26.672c5.53 0 10.195.757 14 2.265 3.8 1.5 6.847 3.574 9.14 6.219 2.29 2.637 3.938 5.746 4.938 9.328 1.008 3.586 1.515 7.418 1.515 11.5 0 5.586-.93 10.922-2.78 16.016-1.856 5.093-4.606 9.59-8.25 13.484-3.65 3.887-8.188 6.996-13.626 9.328-5.43 2.32-11.758 3.485-18.984 3.485-7.844 0-15.367-1.461-22.563-4.375C49.957-5.035 43.36-9.102 37.36-14.313c-6-5.218-11.277-11.406-15.828-18.562-4.554-7.164-8.117-15.023-10.687-23.578l13.094-5.172c2.195 6.469 5.117 12.688 8.765 18.656C36.348-37 40.57-31.723 45.375-27.14c4.8 4.586 10.094 8.246 15.875 10.985 5.781 2.73 11.875 4.093 18.281 4.093 4.531 0 8.567-.656 12.11-1.968 3.55-1.32 6.582-3.207 9.093-5.656 2.52-2.458 4.438-5.395 5.75-8.813 1.32-3.426 1.985-7.273 1.985-11.547 0-3.02-.352-5.488-1.047-7.406-.688-1.914-1.774-3.406-3.25-4.469-1.469-1.07-3.336-1.812-5.594-2.219-2.262-.406-4.965-.609-8.11-.609H65.782c-4.648 0-8.668-1.004-12.062-3.016-3.399-2.007-6.211-4.55-8.438-7.625-2.23-3.082-3.883-6.492-4.953-10.234-1.062-3.738-1.594-7.336-1.594-10.797 0-3.707.594-6.8 1.782-9.281 1.195-2.477 2.832-4.453 4.906-5.922 2.07-1.477 4.535-2.531 7.39-3.156 2.864-.633 5.961-.953 9.297-.953h35.703v-20.922H-3.296v-13.86h164.063zm0 0"/></symbol></defs><use xlink:href="#1ebb3a56a" x="46.36591" y="190"/></svg>