<?xml version='1.0' encoding='UTF-8'?>
<svg xmlns="http://www.w3.org/2000/svg" xmlns:xlink="http://www.w3.org/1999/xlink" width="250px" height="250px" viewBox="0 0 250 250" y="0px" x="0px" enable-background="new 0 0 250 250"><defs><symbol overflow="visible" id="a9e72a80a"><path d="M128.453-126.656h-14.422V0h-15.64v-39.672l-.375-.281c-3.461 3.137-6.84 5.601-10.141 7.39-3.293 1.793-6.371 3.149-9.234 4.063-2.856.906-5.45 1.484-7.782 1.734-2.324.25-4.234.375-5.734.375-5.781 0-10.906-.91-15.375-2.734-4.46-1.82-8.2-4.223-11.219-7.203-3.011-2.988-5.304-6.41-6.875-10.266a31.752 31.752 0 0 1-2.343-12.015c0-4.344.894-8.649 2.687-12.922 1.79-4.27 4.598-8.102 8.422-11.5l-.094-.375H10.453V-97.25h75.781v13.844h-9.718c-6.47 0-11.778.851-15.922 2.547-4.149 1.699-7.414 3.773-9.797 6.218-2.387 2.45-4.04 5.075-4.953 7.875-.907 2.793-1.36 5.32-1.36 7.579 0 1.886.313 3.914.938 6.078.625 2.168 1.676 4.164 3.156 5.984 1.477 1.824 3.457 3.336 5.938 4.531 2.476 1.188 5.601 1.782 9.375 1.782 3.957 0 7.648-.641 11.078-1.922a40.723 40.723 0 0 0 9.469-5.047 49.442 49.442 0 0 0 7.859-7.016c2.363-2.601 4.394-5.195 6.094-7.781v-64.078H-3.297v-13.86h131.75zm0 0"/></symbol></defs><use xlink:href="#a9e72a80a" x="62.50684" y="190"/></svg>