<?xml version='1.0' encoding='UTF-8'?>
<svg xmlns="http://www.w3.org/2000/svg" xmlns:xlink="http://www.w3.org/1999/xlink" width="250px" height="250px" viewBox="0 0 250 250" y="0px" x="0px" enable-background="new 0 0 250 250"><defs><symbol overflow="visible" id="085e70f7a"><path d="M152.719-135.844h-15.453V0h-16.578v-87.734H88.14l-.11.406c.813.95 2.024 2.383 3.64 4.297 1.614 1.918 3.227 4.277 4.845 7.078 1.625 2.793 3.039 5.96 4.25 9.5 1.218 3.531 1.828 7.355 1.828 11.469 0 4.117-.696 8.18-2.078 12.187-1.375 4-3.43 7.606-6.157 10.813-2.73 3.199-6.187 5.777-10.375 7.734-4.18 1.95-9.027 2.922-14.546 2.922-5.461 0-10.465-.957-15.016-2.875A46.85 46.85 0 0 1 42-31.938c-3.742-3.238-7.094-6.976-10.063-11.218-2.96-4.25-5.605-8.75-7.937-13.5a134.076 134.076 0 0 1-6.063-14.453c-1.718-4.883-3.187-9.567-4.406-14.047-1.21-4.477-2.183-8.602-2.922-12.375-.742-3.781-1.312-6.914-1.718-9.406l14.968-2.938c2.22 12.137 4.926 22.773 8.125 31.906 3.207 9.125 6.766 16.758 10.672 22.89 3.907 6.126 8.114 10.727 12.625 13.798 4.52 3.062 9.239 4.593 14.157 4.593 3.5 0 6.328-.687 8.484-2.062 2.156-1.383 3.836-3.07 5.047-5.063 1.219-1.988 2.047-4.046 2.484-6.171.438-2.125.656-3.957.656-5.5 0-2.77-.558-5.72-1.671-8.844-1.106-3.133-2.72-6.27-4.844-9.406-2.125-3.133-4.774-6.149-7.938-9.047-3.168-2.895-6.804-5.52-10.906-7.875v-11.828h59.938v-33.36H-3.532v-14.86h156.25zm0 0"/></symbol></defs><use xlink:href="#085e70f7a" x="50.40723" y="200"/></svg>