<?xml version='1.0' encoding='UTF-8'?>
<svg xmlns="http://www.w3.org/2000/svg" xmlns:xlink="http://www.w3.org/1999/xlink" width="250px" height="250px" viewBox="0 0 250 250" y="0px" x="0px" enable-background="new 0 0 250 250"><defs><symbol overflow="visible" id="398f3f49a"><path d="M45.984-108.656c.696-1.008 1.344-2.281 1.938-3.813.594-1.539.89-3.285.89-5.234 0-1.758-.312-3.297-.937-4.61-.625-1.32-1.43-2.39-2.406-3.203a9.771 9.771 0 0 0-3.344-1.843 12.224 12.224 0 0 0-3.766-.61c-1.511 0-3.007.297-4.484.89-1.469.595-2.79 1.556-3.953 2.876-1.168 1.312-2.125 2.992-2.875 5.031-.75 2.043-1.125 4.48-1.125 7.313 0 3.074.453 5.98 1.36 8.718.913 2.73 2.327 5.118 4.234 7.157 1.914 2.043 4.332 3.664 7.25 4.859 2.925 1.188 6.43 1.781 10.515 1.781 2.832 0 5.442-.234 7.828-.703 2.383-.469 4.457-.922 6.22-1.36l2.546 14.5c-1.012.137-2.367.376-4.063.72-1.687.343-3.523.882-5.5 1.609-1.98.719-3.992 1.648-6.03 2.781a23.727 23.727 0 0 0-5.516 4.188c-1.637 1.656-2.977 3.62-4.016 5.89-1.031 2.262-1.547 4.899-1.547 7.907 0 2.835.469 5.351 1.406 7.546.946 2.2 2.27 4.086 3.97 5.657 1.694 1.562 3.737 2.757 6.124 3.578 2.383.812 4.988 1.218 7.813 1.218 4.02 0 7.726-.75 11.125-2.25 3.394-1.507 6.441-3.378 9.14-5.609 2.696-2.238 5.02-4.644 6.969-7.219 1.945-2.57 3.488-4.925 4.625-7.062v-82.563h29.875v13.86h-14.422V0H90.375v-35.25L90-35.344c-2.324 2.586-4.777 4.758-7.36 6.516-2.574 1.75-5.199 3.18-7.874 4.281a41.41 41.41 0 0 1-8.047 2.406c-2.7.5-5.305.75-7.813.75-4.968 0-9.574-.816-13.812-2.453-4.242-1.633-7.903-3.926-10.985-6.875-3.074-2.957-5.492-6.46-7.25-10.515-1.761-4.051-2.64-8.524-2.64-13.422 0-4.52.863-8.664 2.593-12.438 1.727-3.77 4.758-7.351 9.094-10.75l-.093-.375c-4.274-1.133-7.965-2.863-11.079-5.187-3.105-2.32-5.68-4.989-7.718-8a34.104 34.104 0 0 1-4.578-9.844c-1-3.55-1.5-7.117-1.5-10.703 0-4.395.703-8.445 2.109-12.156 1.414-3.707 3.394-6.91 5.937-9.61a27.652 27.652 0 0 1 9-6.36c3.457-1.538 7.258-2.312 11.407-2.312 4.332 0 8.05.758 11.156 2.266 3.113 1.5 5.66 3.418 7.64 5.75 1.977 2.324 3.438 4.883 4.376 7.672.945 2.793 1.421 5.45 1.421 7.969 0 1.75-.187 3.476-.562 5.171A34.784 34.784 0 0 1 62-108.75a36.543 36.543 0 0 1-1.828 4.156 39.665 39.665 0 0 1-1.844 3.188zm0 0"/></symbol></defs><use xlink:href="#398f3f49a" x="66.60089" y="190"/></svg>