<?xml version='1.0' encoding='UTF-8'?>
<svg xmlns="http://www.w3.org/2000/svg" xmlns:xlink="http://www.w3.org/1999/xlink" width="250px" height="250px" viewBox="0 0 250 250" y="0px" x="0px" enable-background="new 0 0 250 250"><defs><symbol overflow="visible" id="b880a40fa"><path d="M137.156-135.844h-15.469V0h-16.562v-56.703H49.531v12.031c0 2.086-.09 3.938-.265 5.563-.168 1.617-.54 2.964-1.11 4.047a5.95 5.95 0 0 1-2.422 2.468c-1.043.574-2.437.86-4.187.86-1.762 0-3.719-.52-5.875-1.563-2.156-1.05-4.344-2.469-6.563-4.25-2.218-1.789-4.375-3.812-6.468-6.062a56.936 56.936 0 0 1-5.61-7.078c-1.648-2.458-2.98-4.899-4-7.329-1.011-2.425-1.515-4.648-1.515-6.672 0-1.414.25-2.578.75-3.484a5.045 5.045 0 0 1 2.125-2.078c.914-.469 2.015-.785 3.296-.953 1.282-.164 2.727-.25 4.344-.25h10.922v-64.39H-3.53v-14.86h140.687zm-87.625 0v64.39h55.594v-64.39zm0 0"/></symbol></defs><use xlink:href="#b880a40fa" x="58.18994" y="200"/></svg>