<?xml version='1.0' encoding='UTF-8'?>
<svg xmlns="http://www.w3.org/2000/svg" xmlns:xlink="http://www.w3.org/1999/xlink" width="250px" height="250px" viewBox="0 0 250 250" y="0px" x="0px" enable-background="new 0 0 250 250"><defs><symbol overflow="visible" id="57d0b520a"><path d="M69.078-26.578a48.183 48.183 0 0 0 6.172-2.344c2.04-.945 3.863-2.094 5.469-3.437a16.69 16.69 0 0 0 3.906-4.766c1.008-1.82 1.516-3.957 1.516-6.406 0-5.219-2.172-9.285-6.516-12.203-4.336-2.926-10.492-4.391-18.469-4.391-3.199 0-6.48.336-9.843 1-3.368.656-6.43 1.852-9.188 3.578-2.762 1.719-5.023 4.074-6.781 7.063-1.762 2.98-2.64 6.765-2.64 11.359 0 4.648.91 8.965 2.733 12.953a44.817 44.817 0 0 0 7.11 10.985 63.863 63.863 0 0 0 9.844 9.046c3.644 2.7 7.273 5.082 10.89 7.157 3.614 2.07 7.02 3.812 10.219 5.218 3.207 1.414 5.879 2.536 8.016 3.36l-6.22 13a303.23 303.23 0 0 1-13.437-6.172 144.928 144.928 0 0 1-13.234-7.36A101.684 101.684 0 0 1 36.562 2.25C32.79-.945 29.505-4.492 26.703-8.39c-2.793-3.895-4.992-8.165-6.594-12.813-1.593-4.645-2.39-9.703-2.39-15.172 0-5.344.703-10.008 2.11-14 1.413-3.988 3.382-7.488 5.905-10.5-3.46-3.957-6.007-7.945-7.64-11.969-1.637-4.02-2.453-8.39-2.453-13.11 0-2.694.328-5.237.984-7.624a14.5 14.5 0 0 1 3.594-6.266c1.726-1.789 4.129-3.219 7.203-4.281 3.082-1.07 7.07-1.61 11.969-1.61h42.687v-20.921H-3.297v-13.86h117.422v13.86H97.531v34.672H43.344c-2.45 0-4.508.21-6.172.625-1.656.406-2.992 1.023-4 1.843a6.59 6.59 0 0 0-2.125 3.063c-.406 1.219-.61 2.648-.61 4.281 0 2.2.375 4.336 1.125 6.406.758 2.075 2.176 4.399 4.25 6.97 3.645-1.884 7.649-3.282 12.016-4.188 4.363-.914 8.93-1.375 13.703-1.375 5.532 0 10.696.632 15.5 1.89 4.813 1.262 8.989 3.164 12.531 5.703 3.551 2.543 6.348 5.778 8.391 9.704 2.05 3.93 3.078 8.53 3.078 13.812 0 5.086-.867 9.387-2.594 12.906-1.73 3.524-3.902 6.477-6.515 8.86-2.606 2.386-5.45 4.32-8.531 5.797-3.075 1.48-5.93 2.687-8.563 3.624zm0 0"/></symbol></defs><use xlink:href="#57d0b520a" x="69.65967" y="190"/></svg>