<?xml version='1.0' encoding='UTF-8'?>
<svg xmlns="http://www.w3.org/2000/svg" xmlns:xlink="http://www.w3.org/1999/xlink" width="250px" height="250px" viewBox="0 0 250 250" y="0px" x="0px" enable-background="new 0 0 250 250"><defs><symbol overflow="visible" id="3a6fa4d9a"><path d="M76.516-81.047c0-3.77.453-7.16 1.359-10.172.914-3.02 2.16-5.676 3.734-7.969 1.57-2.289 3.442-4.207 5.61-5.75a25.366 25.366 0 0 1 7.11-3.53v-18.188H-3.298v-13.86h153.89v13.86h-40.812v17.625c3.707.812 7.176 2.336 10.406 4.562 3.239 2.23 6.036 5.09 8.391 8.578 2.363 3.493 4.219 7.594 5.563 12.313 1.351 4.71 2.03 9.984 2.03 15.828 0 6.219-.788 12.266-2.358 18.14a71.786 71.786 0 0 1-6.688 16.579 72.32 72.32 0 0 1-10.406 14.281 65.878 65.878 0 0 1-13.672 11.172c-5.055 3.105-10.516 5.523-16.39 7.25C80.78 1.398 74.608 2.266 68.14 2.266c-6.98 0-13.032-.961-18.157-2.875-5.117-1.914-9.37-4.426-12.765-7.532-3.387-3.113-5.914-6.664-7.578-10.656-1.668-3.988-2.5-8.023-2.5-12.11 0-3.081.468-6.19 1.406-9.327a28.083 28.083 0 0 1 4.344-8.672l-.188-.469c-4.781-1.758-8.508-3.988-11.172-6.688-2.668-2.707-4.664-5.44-5.984-8.203-1.313-2.77-2.117-5.363-2.406-7.78-.282-2.415-.422-4.224-.422-5.423 0-4.52.754-8.472 2.265-11.86 1.508-3.394 3.567-6.222 6.172-8.484 2.602-2.269 5.617-3.968 9.047-5.093 3.426-1.133 7.024-1.703 10.797-1.703 3.008 0 5.988.367 8.938 1.093 2.957.72 5.878 1.868 8.765 3.438v13.75a49.64 49.64 0 0 0-7.969-2.766c-2.793-.726-5.507-1.094-8.14-1.094-2.012 0-3.93.258-5.75.766-1.824.5-3.414 1.305-4.766 2.406-1.344 1.094-2.414 2.508-3.203 4.235-.781 1.719-1.172 3.808-1.172 6.265 0 2.825.5 5.29 1.5 7.391 1.008 2.105 2.317 3.867 3.922 5.281A16.572 16.572 0 0 0 38.5-60.64c1.977.72 3.91 1.078 5.797 1.078 2.32 0 4.988-.406 8-1.218 3.02-.82 6.035-1.735 9.047-2.735l3.968 13.282c-4.148.824-7.699 1.945-10.656 3.359-2.949 1.406-5.336 3.023-7.156 4.844-1.824 1.824-3.164 3.789-4.016 5.89a17.21 17.21 0 0 0-1.265 6.453c0 2.512.547 4.84 1.64 6.985 1.102 2.137 2.692 3.992 4.766 5.562 2.07 1.563 4.629 2.79 7.672 3.672 3.05.875 6.523 1.313 10.422 1.313 5.219 0 10.32-.817 15.312-2.453 5-1.633 9.664-3.91 14-6.829 4.332-2.925 8.239-6.414 11.719-10.468a57.654 57.654 0 0 0 8.64-13.422c-6.417-.063-12.109-.973-17.078-2.734-4.96-1.758-9.136-4.208-12.53-7.344-3.387-3.145-5.946-6.899-7.673-11.266-1.73-4.363-2.593-9.156-2.593-14.375zm44.765 13.484c0-4.019-.445-7.664-1.328-10.937-.875-3.27-2.07-6.066-3.578-8.39-1.5-2.32-3.29-4.11-5.36-5.36-2.074-1.258-4.304-1.89-6.687-1.89-1.824 0-3.523.359-5.094 1.078A12.172 12.172 0 0 0 95.125-90c-1.156 1.324-2.07 2.914-2.734 4.766-.657 1.855-.985 3.914-.985 6.171 0 3.2.676 6.012 2.031 8.438 1.352 2.418 3.301 4.46 5.844 6.125 2.54 1.656 5.602 2.93 9.188 3.813 3.582.874 7.633 1.374 12.156 1.5.188-1.376.344-2.754.469-4.141.125-1.383.187-2.797.187-4.234zm0 0"/></symbol></defs><use xlink:href="#3a6fa4d9a" x="51.44818" y="190"/></svg>