<?xml version='1.0' encoding='UTF-8'?>
<svg xmlns="http://www.w3.org/2000/svg" xmlns:xlink="http://www.w3.org/1999/xlink" width="250px" height="250px" viewBox="0 0 250 250" y="0px" x="0px" enable-background="new 0 0 250 250"><defs><symbol overflow="visible" id="e2ea7ed8a"><path d="M99.61-15.547a63.337 63.337 0 0 1-16.204 6.781C77.687-7.254 71.97-6.5 66.25-6.5c-7.793 0-14.844-1.3-21.156-3.906-6.313-2.614-11.719-6.227-16.219-10.844-4.492-4.613-7.945-10.031-10.36-16.25-2.417-6.227-3.624-12.984-3.624-20.266 0-6.914 1.082-12.945 3.25-18.093 2.164-5.157 5.132-9.442 8.906-12.86 3.77-3.426 8.21-5.988 13.328-7.687 5.125-1.696 10.64-2.547 16.547-2.547h18.375v-27.703H-3.297v-13.86h115.25v13.86H90.75v41.469H60.312c-4.523 0-8.652.632-12.39 1.89-3.742 1.25-6.95 3.102-9.625 5.547-2.668 2.45-4.742 5.48-6.219 9.094-1.469 3.617-2.203 7.808-2.203 12.578 0 5.219.863 9.965 2.594 14.234 1.726 4.274 4.144 7.95 7.25 11.032 3.113 3.074 6.82 5.46 11.125 7.156 4.3 1.699 9.031 2.547 14.187 2.547 3.07 0 6.176-.313 9.313-.938a64.443 64.443 0 0 0 9.14-2.547 77.9 77.9 0 0 0 8.532-3.672 68.95 68.95 0 0 0 7.593-4.437zm0 0"/></symbol></defs><use xlink:href="#e2ea7ed8a" x="70.742" y="190"/></svg>