<?xml version='1.0' encoding='UTF-8'?>
<svg xmlns="http://www.w3.org/2000/svg" xmlns:xlink="http://www.w3.org/1999/xlink" width="250px" height="250px" viewBox="0 0 250 250" y="0px" x="0px" enable-background="new 0 0 250 250"><defs><symbol overflow="visible" id="f2b99206a"><path d="M128.266-2.219C125.16-1.07 121.348-.098 116.828.703c-4.512.813-9.625 1.219-15.344 1.219-10.718 0-20.293-1.856-28.718-5.563-8.418-3.707-16.215-9.129-23.391-16.265-7.18-7.145-14.016-15.973-20.516-26.485-6.5-10.507-13.187-22.539-20.062-36.093l13.437-7.672c2.563 4.855 4.97 8.308 7.22 10.36C31.71-77.743 34.226-76.72 37-76.72c2.29 0 4.29-.64 6-1.922 1.719-1.28 3.133-2.945 4.25-5 1.113-2.05 1.957-4.39 2.531-7.015a37.2 37.2 0 0 0 .86-7.89c0-3.032-.34-6.196-1.016-9.5-.68-3.302-1.59-6.567-2.734-9.798a83.396 83.396 0 0 0-3.985-9.453c-1.523-3.07-3.12-5.89-4.797-8.453v-.094H-3.53v-14.86h176.375v14.86h-15.469V0h-16.578v-49.125l-.406-.094c-3.711 3.637-7.82 6.328-12.328 8.078-4.512 1.75-8.993 2.625-13.438 2.625-5.531 0-10.625-1.14-15.281-3.422-4.649-2.289-8.653-5.32-12.016-9.093-3.367-3.782-5.996-8.094-7.89-12.938a41.251 41.251 0 0 1-2.829-15.078c0-4.914.86-9.664 2.579-14.25 1.718-4.582 4.109-8.64 7.171-12.172a34.718 34.718 0 0 1 10.922-8.437c4.207-2.094 8.844-3.14 13.906-3.14 2.895 0 5.657.339 8.282 1.015a38.887 38.887 0 0 1 7.578 2.828 45.9 45.9 0 0 1 6.969 4.297 71.997 71.997 0 0 1 6.375 5.312l.406-.11v-32.14h-85c3.437 6.531 6.129 12.918 8.078 19.156 1.957 6.231 2.938 12.512 2.938 18.844 0 4.313-.543 8.594-1.626 12.844-1.074 4.242-2.742 8.078-5 11.516-2.261 3.437-5.14 6.304-8.64 8.593-3.5 2.293-7.68 3.641-12.531 4.047v.5c4.644 9.094 9.507 16.59 14.593 22.485 5.094 5.898 10.266 10.562 15.516 14 5.258 3.437 10.535 5.836 15.828 7.187 5.29 1.344 10.461 2.016 15.516 2.016 5.726 0 10.883-.586 15.469-1.766 4.582-1.176 8.69-2.508 12.328-4zm12.625-82.578c-1.211-1.55-2.711-3.32-4.5-5.312-1.782-1.989-3.805-3.86-6.063-5.61-2.25-1.75-4.742-3.21-7.469-4.39-2.73-1.188-5.68-1.782-8.843-1.782-3.243 0-6.157.664-8.75 1.985a22.042 22.042 0 0 0-6.72 5.203c-1.886 2.156-3.335 4.668-4.343 7.531a26.65 26.65 0 0 0-1.516 8.938c0 3.242.536 6.324 1.61 9.25 1.082 2.93 2.582 5.507 4.5 7.734a21.791 21.791 0 0 0 6.922 5.313c2.695 1.312 5.664 1.968 8.906 1.968 2.488 0 5.266-.468 8.328-1.406 3.07-.945 5.938-2.5 8.594-4.656 2.664-2.157 4.89-5.02 6.672-8.594 1.781-3.57 2.672-7.988 2.672-13.25zm0 0"/></symbol></defs><use xlink:href="#f2b99206a" x="40.35034" y="200"/></svg>