<?xml version='1.0' encoding='UTF-8'?>
<svg xmlns="http://www.w3.org/2000/svg" xmlns:xlink="http://www.w3.org/1999/xlink" width="250px" height="250px" viewBox="0 0 250 250" y="0px" x="0px" enable-background="new 0 0 250 250"><defs><symbol overflow="visible" id="57d0b520a"><path d="M74.094-28.5a51.448 51.448 0 0 0 6.61-2.531c2.194-1.008 4.148-2.239 5.859-3.688a17.874 17.874 0 0 0 4.187-5.093c1.082-1.958 1.625-4.254 1.625-6.891 0-5.582-2.324-9.942-6.969-13.078-4.648-3.133-11.25-4.703-19.812-4.703-3.438 0-6.961.355-10.563 1.062-3.605.711-6.89 1.992-9.86 3.844-2.96 1.855-5.382 4.383-7.265 7.578-1.886 3.2-2.828 7.258-2.828 12.172 0 4.992.973 9.625 2.922 13.906a48.285 48.285 0 0 0 7.625 11.781 68.314 68.314 0 0 0 10.563 9.704C60.102-1.54 64 1.016 67.874 3.234c3.875 2.22 7.531 4.086 10.969 5.61 3.437 1.52 6.297 2.719 8.578 3.594l-6.656 13.937a312.007 312.007 0 0 1-14.407-6.625 155.836 155.836 0 0 1-14.203-7.875A109.425 109.425 0 0 1 39.22 2.422C35.176-1.016 31.656-4.82 28.656-9c-3-4.176-5.36-8.754-7.078-13.734C19.86-27.723 19-33.148 19-39.016c0-5.726.754-10.726 2.266-15 1.52-4.28 3.629-8.039 6.328-11.28-3.711-4.24-6.438-8.516-8.188-12.829-1.75-4.313-2.625-9-2.625-14.063 0-2.894.352-5.617 1.063-8.171a15.498 15.498 0 0 1 3.828-6.72c1.851-1.925 4.43-3.46 7.734-4.609 3.301-1.144 7.582-1.718 12.844-1.718h45.781v-22.438H-3.53v-14.86h125.937v14.86H104.61v37.188H46.5c-2.637 0-4.844.226-6.625.672-1.781.437-3.215 1.093-4.297 1.968a7.092 7.092 0 0 0-2.281 3.282c-.438 1.312-.656 2.843-.656 4.593 0 2.368.406 4.664 1.218 6.891.813 2.219 2.328 4.71 4.547 7.469 3.907-2.02 8.196-3.52 12.875-4.5C55.97-79.258 60.875-79.75 66-79.75c5.926 0 11.469.68 16.625 2.031 5.156 1.344 9.633 3.383 13.438 6.11 3.812 2.73 6.812 6.199 9 10.406 2.195 4.21 3.296 9.148 3.296 14.812 0 5.461-.93 10.075-2.78 13.844-1.856 3.774-4.184 6.938-6.985 9.5-2.793 2.563-5.84 4.637-9.14 6.219-3.306 1.586-6.372 2.883-9.204 3.89zm0 0"/></symbol></defs><use xlink:href="#57d0b520a" x="65.56836" y="200"/></svg>