<?xml version='1.0' encoding='UTF-8'?>
<svg xmlns="http://www.w3.org/2000/svg" xmlns:xlink="http://www.w3.org/1999/xlink" width="250px" height="250px" viewBox="0 0 250 250" y="0px" x="0px" enable-background="new 0 0 250 250"><defs><symbol overflow="visible" id="0919052ca"><path d="M143.625-135.844h-27.188c1.958 3.711 3.458 7.485 4.5 11.328 1.04 3.836 1.563 7.672 1.563 11.516 0 3.23-.406 6.398-1.219 9.5a36.595 36.595 0 0 1-3.531 8.797c-1.555 2.762-3.508 5.289-5.86 7.578-2.355 2.293-5.085 4.246-8.187 5.86v.609c7.008 4.117 12.582 9.543 16.719 16.281 4.144 6.73 6.219 14.746 6.219 24.047a53 53 0 0 1-2.422 15.922c-1.617 5.156-4.125 9.726-7.531 13.703-3.399 3.969-7.762 7.152-13.094 9.547-5.324 2.383-11.656 3.578-19 3.578-8.012 0-15.305-1.414-21.875-4.235C56.145-4.644 50.25-8.383 45.03-13.03c-5.218-4.656-9.82-9.977-13.797-15.969-3.98-6-7.37-12.18-10.172-18.547-2.792-6.375-5.062-12.66-6.812-18.86-1.75-6.195-3.031-11.82-3.844-16.874l13.25-6.063c.938 5.656 2.332 11.485 4.188 17.485a135.003 135.003 0 0 0 6.765 17.484 117.434 117.434 0 0 0 9.157 16.063c3.437 5.054 7.226 9.468 11.375 13.25 4.144 3.773 8.625 6.75 13.437 8.937 4.82 2.188 9.926 3.281 15.313 3.281 3.238 0 6.441-.453 9.609-1.36a21.423 21.423 0 0 0 8.438-4.64c2.457-2.195 4.457-5.113 6-8.75 1.55-3.633 2.328-8.148 2.328-13.547 0-10.707-3.118-18.773-9.344-24.203-6.23-5.426-15.48-8.14-27.75-8.14-1.149 0-2.43.039-3.844.109a97.87 97.87 0 0 0-4.344.297v-15.36c.54 0 1.301.04 2.282.11.976.062 2.304.094 3.984.094 6.344 0 11.734-.672 16.172-2.016 4.445-1.352 8.066-3.223 10.86-5.61 2.8-2.394 4.843-5.175 6.124-8.343 1.281-3.164 1.922-6.57 1.922-10.219 0-4.039-.656-7.844-1.969-11.406a44.272 44.272 0 0 0-5.203-10.016H-3.53v-14.86h147.156zm0 0"/></symbol></defs><use xlink:href="#0919052ca" x="54.95557" y="200"/></svg>