<?xml version='1.0' encoding='UTF-8'?>
<svg xmlns="http://www.w3.org/2000/svg" xmlns:xlink="http://www.w3.org/1999/xlink" width="250px" height="250px" viewBox="0 0 250 250" y="0px" x="0px" enable-background="new 0 0 250 250"><defs><symbol overflow="visible" id="312bd23fa"><path d="M64.781-119.875c0 4.855-.605 9.508-1.812 13.953-1.211 4.45-3.028 8.543-5.453 12.281-2.43 3.743-5.446 7.075-9.047 10-3.606 2.93-7.836 5.34-12.688 7.235 1.008 4.574 2.422 8.465 4.235 11.672 1.82 3.199 3.976 5.843 6.468 7.937 2.5 2.086 5.266 3.602 8.297 4.547 3.032.938 6.235 1.406 9.61 1.406 6.726 0 12.972-1.547 18.734-4.64 5.77-3.102 10.61-7.383 14.516-12.844v-82.375h32.03v14.86H114.22V0H97.64v-47.297l-.407-.11c-1.75 1.481-3.84 2.95-6.265 4.407-2.43 1.45-5.11 2.73-8.047 3.844-2.93 1.105-6.078 2.011-9.453 2.718-3.367.711-6.867 1.063-10.5 1.063-7.543 0-13.996-1.46-19.36-4.39-5.355-2.938-9.836-6.797-13.437-11.579-3.606-4.781-6.438-10.218-8.5-16.312a101.87 101.87 0 0 1-4.39-18.766c5.925-1.207 10.894-2.957 14.905-5.25 4.008-2.289 7.227-4.937 9.657-7.937 2.426-3 4.16-6.235 5.203-9.704a36.62 36.62 0 0 0 1.562-10.562c0-5.926-1.164-10.39-3.484-13.39-2.324-3-5.234-4.5-8.734-4.5-3.106 0-5.602 1.046-7.485 3.14-1.886 2.086-2.828 4.746-2.828 7.984 0 .606.067 1.344.203 2.22.133.874.469 1.87 1 2.984.54 1.117 1.348 2.367 2.422 3.75 1.082 1.374 2.535 2.84 4.36 4.39l-9 11.016c-3.094-1.688-5.622-3.555-7.579-5.61-1.949-2.062-3.464-4.171-4.547-6.328-1.074-2.156-1.812-4.258-2.218-6.312-.406-2.051-.61-3.953-.61-5.703 0-3.239.551-6.426 1.657-9.563a25.858 25.858 0 0 1 5-8.484c2.226-2.531 5.023-4.567 8.39-6.11 3.375-1.55 7.32-2.328 11.844-2.328 4.508 0 8.484.809 11.922 2.422 3.437 1.617 6.332 3.875 8.687 6.781 2.364 2.899 4.149 6.352 5.36 10.36 1.207 4 1.812 8.43 1.812 13.281zm0 0"/></symbol></defs><use xlink:href="#312bd23fa" x="61.92969" y="200"/></svg>