<?xml version='1.0' encoding='UTF-8'?>
<svg xmlns="http://www.w3.org/2000/svg" xmlns:xlink="http://www.w3.org/1999/xlink" width="250px" height="250px" viewBox="0 0 250 250" y="0px" x="0px" enable-background="new 0 0 250 250"><defs><symbol overflow="visible" id="172c54ada"><path d="M83.797-135.844H35.78v72.375c0 4.918.617 9.012 1.86 12.282 1.25 3.261 3.254 6.156 6.015 8.687 2.77 2.523 6.328 4.95 10.672 7.281 4.344 2.324 9.613 5.032 15.813 8.125a621.15 621.15 0 0 1 16.015 8.203c4.957 2.625 9.254 5.387 12.89 8.282 3.645 2.898 6.509 6.03 8.595 9.406 2.093 3.363 3.14 7.203 3.14 11.515 0 3.301-.68 6.618-2.031 9.954-1.344 3.332-3.297 6.515-5.86 9.547L89.25 21.53a61.938 61.938 0 0 0 2.875-5.156c.914-1.824 1.375-3.71 1.375-5.656 0-2.637-.898-5.086-2.688-7.344-1.78-2.25-4.156-4.398-7.124-6.453-2.961-2.063-6.36-4.067-10.204-6.016a682.474 682.474 0 0 0-12.03-5.969c-7.075-3.437-13.243-6.535-18.5-9.296-5.25-2.758-9.65-5.774-13.188-9.047-3.543-3.27-6.188-7.094-7.938-11.469-1.75-4.383-2.625-9.879-2.625-16.484v-74.485H-3.53v-14.86h119.36v14.86h-15.47v64.078c0 5.188-.726 9.485-2.171 12.891-1.45 3.406-3.305 6.09-5.563 8.047-2.25 1.95-4.742 3.312-7.469 4.094-2.73.773-5.375 1.156-7.937 1.156a33.6 33.6 0 0 1-7.578-.86 41.77 41.77 0 0 1-7.079-2.28v-16.47c1.477.876 3.297 1.637 5.454 2.282a22.74 22.74 0 0 0 6.468.953c2.032 0 3.649-.336 4.86-1.016 1.207-.676 2.148-1.687 2.828-3.031.676-1.344 1.113-2.992 1.312-4.953.207-1.957.313-4.211.313-6.766zm0 0"/></symbol></defs><use xlink:href="#172c54ada" x="68.85327" y="200"/></svg>