<?xml version='1.0' encoding='UTF-8'?>
<svg xmlns="http://www.w3.org/2000/svg" xmlns:xlink="http://www.w3.org/1999/xlink" width="250px" height="250px" viewBox="0 0 250 250" y="0px" x="0px" enable-background="new 0 0 250 250"><defs><symbol overflow="visible" id="00573a94a"><path d="M126.547-135.844h-15.469V0H94.5v-47.297l-.406-.11c-1.813 1.481-3.985 2.95-6.516 4.407-2.523 1.45-5.336 2.73-8.437 3.844-3.106 1.105-6.446 2.011-10.016 2.718-3.563.711-7.297 1.063-11.203 1.063-7.824 0-14.516-1.41-20.078-4.234-5.555-2.832-10.2-6.625-13.938-11.375-3.742-4.758-6.687-10.188-8.843-16.282-2.157-6.093-3.711-12.441-4.657-19.046 4.446-.614 8.254-1.66 11.422-3.141 3.164-1.477 5.723-3.242 7.672-5.297 1.957-2.063 3.39-4.305 4.297-6.734.914-2.426 1.375-4.848 1.375-7.266 0-1.625-.152-3.445-.453-5.469-.305-2.02-.824-4.191-1.563-6.515-.742-2.32-1.718-4.766-2.937-7.329-1.211-2.562-2.727-5.156-4.547-7.78H-3.531v-14.86h130.078zm-82.984 0c2.425 4.117 4.328 8.617 5.703 13.5 1.382 4.887 2.078 9.684 2.078 14.39 0 3.438-.461 6.778-1.375 10.016a31.255 31.255 0 0 1-4.188 9.047c-1.886 2.793-4.23 5.29-7.031 7.485-2.793 2.187-6.04 3.922-9.734 5.203 1.07 4.512 2.55 8.367 4.437 11.562 1.883 3.2 4.11 5.829 6.672 7.891a25.06 25.06 0 0 0 8.594 4.5c3.164.938 6.566 1.406 10.203 1.406 3.508 0 6.96-.398 10.36-1.203a45.904 45.904 0 0 0 9.702-3.484 44.566 44.566 0 0 0 8.547-5.516 41.953 41.953 0 0 0 6.969-7.281v-67.516zm0 0"/></symbol></defs><use xlink:href="#00573a94a" x="63.49634" y="200"/></svg>