<?xml version='1.0' encoding='UTF-8'?>
<svg xmlns="http://www.w3.org/2000/svg" xmlns:xlink="http://www.w3.org/1999/xlink" width="250px" height="250px" viewBox="0 0 250 250" y="0px" x="0px" enable-background="new 0 0 250 250"><defs><symbol overflow="visible" id="085e70f7a"><path d="M142.39-126.656H127.97V0h-15.453v-81.797H82.172l-.094.375c.758.875 1.89 2.211 3.39 4 1.509 1.793 3.02 3.996 4.532 6.61 1.508 2.605 2.828 5.558 3.953 8.859 1.133 3.293 1.703 6.855 1.703 10.687 0 3.836-.648 7.621-1.937 11.36a31.17 31.17 0 0 1-5.75 10.093c-2.543 2.981-5.762 5.383-9.656 7.204-3.899 1.812-8.422 2.718-13.579 2.718-5.086 0-9.746-.89-13.984-2.672a43.502 43.502 0 0 1-11.594-7.203c-3.492-3.02-6.617-6.507-9.375-10.468a95.5 95.5 0 0 1-7.406-12.578 125.663 125.663 0 0 1-5.656-13.485c-1.594-4.55-2.961-8.914-4.094-13.094-1.125-4.175-2.04-8.023-2.734-11.546-.688-3.52-1.22-6.442-1.594-8.766l13.937-2.734c2.07 11.312 4.598 21.226 7.578 29.734 2.989 8.512 6.305 15.625 9.954 21.344 3.644 5.718 7.57 10.011 11.78 12.875 4.208 2.855 8.602 4.28 13.188 4.28 3.27 0 5.91-.644 7.922-1.937 2.008-1.289 3.578-2.859 4.703-4.703 1.133-1.851 1.907-3.77 2.313-5.75.414-1.976.625-3.691.625-5.14 0-2.57-.524-5.317-1.563-8.235-1.03-2.926-2.539-5.847-4.515-8.765-1.98-2.926-4.45-5.739-7.406-8.438-2.95-2.707-6.34-5.16-10.172-7.36v-11.03h55.875v-31.094H-3.297v-13.86h145.688zm0 0"/></symbol></defs><use xlink:href="#085e70f7a" x="55.54224" y="190"/></svg>