<?xml version='1.0' encoding='UTF-8'?>
<svg xmlns="http://www.w3.org/2000/svg" xmlns:xlink="http://www.w3.org/1999/xlink" width="250px" height="250px" viewBox="0 0 250 250" y="0px" x="0px" enable-background="new 0 0 250 250"><defs><symbol overflow="visible" id="00573a94a"><path d="M117.984-126.656h-14.421V0H88.108v-44.11l-.375-.093c-1.699 1.387-3.726 2.758-6.078 4.11-2.355 1.343-4.98 2.538-7.875 3.577-2.886 1.032-5.996 1.883-9.328 2.547-3.324.657-6.808.985-10.453.985-7.293 0-13.531-1.317-18.719-3.953-5.18-2.645-9.511-6.18-13-10.61-3.48-4.426-6.226-9.484-8.234-15.172-2.012-5.687-3.461-11.61-4.344-17.765 4.145-.563 7.692-1.532 10.64-2.907 2.958-1.382 5.348-3.035 7.173-4.953 1.82-1.914 3.156-4.004 4-6.265.851-2.27 1.28-4.536 1.28-6.797 0-1.5-.14-3.192-.421-5.078-.281-1.883-.773-3.91-1.469-6.079-.687-2.164-1.601-4.44-2.734-6.828-1.125-2.394-2.54-4.816-4.235-7.265H-3.297v-13.86h121.281zm-77.375 0c2.27 3.836 4.047 8.027 5.328 12.578 1.29 4.555 1.938 9.031 1.938 13.437 0 3.2-.43 6.309-1.281 9.329a29.094 29.094 0 0 1-3.907 8.437c-1.761 2.605-3.945 4.93-6.546 6.969-2.606 2.043-5.637 3.656-9.094 4.844 1 4.218 2.379 7.82 4.14 10.796 1.758 2.98 3.833 5.43 6.22 7.344a23.472 23.472 0 0 0 8.015 4.203c2.957.875 6.129 1.313 9.516 1.313 3.269 0 6.488-.375 9.656-1.125a41.936 41.936 0 0 0 9.047-3.25 41.386 41.386 0 0 0 7.968-5.14 39.255 39.255 0 0 0 6.5-6.782v-62.953zm0 0"/></symbol></defs><use xlink:href="#00573a94a" x="67.73029" y="190"/></svg>