<?xml version='1.0' encoding='UTF-8'?>
<svg xmlns="http://www.w3.org/2000/svg" xmlns:xlink="http://www.w3.org/1999/xlink" width="250px" height="250px" viewBox="0 0 250 250" y="0px" x="0px" enable-background="new 0 0 250 250"><defs><symbol overflow="visible" id="b2b008d5a"><path d="M146.86-150.703v14.86h-15.47V0h-16.765v-67.922H56.094c-3.574 2.356-7.852 3.774-12.828 4.25l-.203.5c6.53 10.242 13.703 19.777 21.515 28.61C72.398-25.739 81.297-17.552 91.266-10L80.453 2.422a170.712 170.712 0 0 1-16.328-13.735 219.392 219.392 0 0 1-14.547-15.312 260.78 260.78 0 0 1-12.797-16.078C32.813-48.13 29.176-53.47 25.875-58.72c-3.305-5.258-6.273-10.332-8.906-15.218-2.625-4.883-4.914-9.415-6.86-13.594l13.844-7.485c1.281 2.97 2.54 5.45 3.781 7.438 1.25 1.992 2.516 3.574 3.797 4.75 1.282 1.18 2.63 2.023 4.047 2.531 1.414.5 2.93.75 4.547.75 4.645 0 8.063-1.816 10.25-5.453 2.195-3.645 3.297-8.43 3.297-14.36 0-3.5-.34-6.953-1.016-10.359a77.503 77.503 0 0 0-2.578-9.797 100.695 100.695 0 0 0-3.39-8.843 222.677 222.677 0 0 0-3.422-7.485H-3.531v-14.86zm-32.235 14.86H60.75c2.82 6.136 5.04 12.304 6.656 18.5 1.625 6.198 2.438 12.366 2.438 18.5 0 2.823-.219 5.6-.656 8.327a34.181 34.181 0 0 1-2.172 7.735l.203.203h47.406zm0 0"/></symbol></defs><use xlink:href="#b2b008d5a" x="53.33838" y="200"/></svg>