<?xml version='1.0' encoding='UTF-8'?>
<svg xmlns="http://www.w3.org/2000/svg" xmlns:xlink="http://www.w3.org/1999/xlink" width="250px" height="250px" viewBox="0 0 250 250" y="0px" x="0px" enable-background="new 0 0 250 250"><defs><symbol overflow="visible" id="a9e72a80a"><path d="M137.766-135.844h-15.47V0h-16.78v-42.547l-.391-.312c-3.71 3.375-7.336 6.023-10.875 7.937-3.531 1.918-6.836 3.367-9.906 4.344-3.063.98-5.844 1.605-8.344 1.875-2.492.273-4.543.406-6.156.406-6.2 0-11.696-.973-16.485-2.922-4.78-1.957-8.793-4.535-12.03-7.734-3.231-3.207-5.688-6.883-7.376-11.031a34.005 34.005 0 0 1-2.516-12.891c0-4.645.958-9.258 2.875-13.844 1.926-4.582 4.942-8.691 9.047-12.328l-.093-.406H11.219v-14.86h81.265v14.86H82.078c-6.95 0-12.648.914-17.094 2.734-4.449 1.813-7.953 4.04-10.515 6.672-2.555 2.625-4.32 5.438-5.297 8.438-.98 3-1.469 5.714-1.469 8.14 0 2.024.336 4.196 1.016 6.516.676 2.324 1.804 4.465 3.39 6.422 1.582 1.949 3.703 3.562 6.36 4.843 2.664 1.282 6.02 1.922 10.062 1.922 4.239 0 8.192-.687 11.86-2.062a44.162 44.162 0 0 0 10.171-5.406A52.95 52.95 0 0 0 99-58.766c2.531-2.8 4.703-5.582 6.516-8.343v-68.735H-3.531v-14.86h141.297zm0 0"/></symbol></defs><use xlink:href="#a9e72a80a" x="57.88672" y="200"/></svg>