<?xml version='1.0' encoding='UTF-8'?>
<svg xmlns="http://www.w3.org/2000/svg" xmlns:xlink="http://www.w3.org/1999/xlink" width="250px" height="250px" viewBox="0 0 250 250" y="0px" x="0px" enable-background="new 0 0 250 250"><defs><symbol overflow="visible" id="8ab0ef3ca"><path d="M123.516-135.844h-15.47V0H91.376v-77.922H44.062c0 4.45-.054 8.258-.156 11.422-.093 3.168-.383 5.777-.86 7.828-.468 2.055-1.179 3.555-2.124 4.5-.938.938-2.246 1.406-3.922 1.406-3.512 0-6.836-1.144-9.969-3.437-3.125-2.29-5.886-5.05-8.281-8.281-2.398-3.239-4.305-6.61-5.719-10.11-1.406-3.5-2.11-6.46-2.11-8.89 0-2.157.47-3.836 1.407-5.047.945-1.219 2.192-2.13 3.735-2.735 1.55-.613 3.32-.984 5.312-1.109a90.198 90.198 0 0 1 6.016-.203h63.984v-43.266H-3.531v-14.86h127.047zm0 0"/></symbol></defs><use xlink:href="#8ab0ef3ca" x="65.01245" y="200"/></svg>