<?xml version='1.0' encoding='UTF-8'?>
<svg xmlns="http://www.w3.org/2000/svg" xmlns:xlink="http://www.w3.org/1999/xlink" width="250px" height="250px" viewBox="0 0 250 250" y="0px" x="0px" enable-background="new 0 0 250 250"><defs><symbol overflow="visible" id="a1147b8fa"><path d="M130.688-135.844h-15.47V0H98.657v-39.016l-.406-.093c-5.46 5.93-11.055 10.105-16.781 12.53-5.73 2.43-11.559 3.642-17.485 3.642-5.46 0-10.515-.891-15.172-2.672-4.648-1.79-8.671-4.286-12.078-7.485-3.398-3.207-6.058-7.035-7.984-11.484-1.918-4.445-2.875-9.363-2.875-14.75 0-4.852.926-9.367 2.781-13.547 1.852-4.176 5.102-8.082 9.75-11.719L38.313-85c-3.981-1.008-7.524-2.555-10.626-4.64-3.093-2.094-5.703-4.57-7.828-7.438A32.617 32.617 0 0 1 15-106.531a34.436 34.436 0 0 1-1.656-10.61c0-3.03.383-6.25 1.156-9.656.781-3.406 2.008-6.422 3.688-9.047h-21.72v-14.86h134.22zm-95.407 0c-1.96 2.43-3.414 5.227-4.36 8.39-.937 3.169-1.405 6.169-1.405 9 0 2.962.504 5.735 1.515 8.329a19.234 19.234 0 0 0 4.5 6.828c1.989 1.961 4.43 3.512 7.328 4.656 2.895 1.137 6.227 1.704 10 1.704 2.895 0 5.672-.25 8.328-.75 2.665-.508 4.88-1 6.641-1.47l2.719 15.563c-1.074.137-2.524.406-4.344.813-1.824.406-3.797 1-5.922 1.781-2.117.773-4.273 1.781-6.468 3.031a25.879 25.879 0 0 0-5.907 4.594c-1.75 1.813-3.183 3.969-4.297 6.469-1.105 2.492-1.656 5.355-1.656 8.594 0 3.093.52 5.87 1.563 8.328 1.039 2.46 2.504 4.547 4.39 6.265 1.883 1.719 4.125 3.04 6.719 3.953 2.594.907 5.473 1.36 8.64 1.36 4.52 0 8.665-.86 12.438-2.578 3.77-1.72 7.14-3.836 10.11-6.36 2.968-2.531 5.53-5.258 7.687-8.187 2.156-2.938 3.875-5.582 5.156-7.938v-72.375zm0 0"/></symbol></defs><use xlink:href="#a1147b8fa" x="61.42432" y="200"/></svg>