<?xml version='1.0' encoding='UTF-8'?>
<svg xmlns="http://www.w3.org/2000/svg" xmlns:xlink="http://www.w3.org/1999/xlink" width="250px" height="250px" viewBox="0 0 250 250" y="0px" x="0px" enable-background="new 0 0 250 250"><defs><symbol overflow="visible" id="74cf1942a"><path d="M164.547-126.656H90.28v37.125l.469.187c3.207-4.394 7.195-7.926 11.969-10.594 4.77-2.664 10.015-4 15.734-4 4.531 0 8.723.93 12.578 2.782a30.759 30.759 0 0 1 10.031 7.625c2.833 3.242 5.051 7.058 6.657 11.453 1.601 4.398 2.406 9.137 2.406 14.219 0 5.78-1.008 11.109-3.016 15.984-2.011 4.867-4.59 9.277-7.734 13.234a61.178 61.178 0 0 1-10.64 10.516c-3.962 3.043-7.856 5.633-11.688 7.766l-8.39-14.516c1.257-.688 2.796-1.594 4.609-2.719a73.24 73.24 0 0 0 5.703-3.968 59.584 59.584 0 0 0 5.844-5.126A43.55 43.55 0 0 0 130-52.953a32.391 32.391 0 0 0 3.719-7.36c.945-2.632 1.422-5.43 1.422-8.39 0-2.695-.43-5.27-1.282-7.719-.843-2.457-2.023-4.594-3.53-6.406a16.887 16.887 0 0 0-5.423-4.328c-2.105-1.07-4.414-1.61-6.922-1.61-3.261 0-6.433.852-9.515 2.547a35.816 35.816 0 0 0-8.39 6.36c-2.513 2.543-4.634 5.261-6.36 8.156-1.73 2.887-2.875 5.555-3.438 8V0H74.828v-36.094l-.375-.187a159.74 159.74 0 0 1-3.594 2.968c-1.437 1.168-3.18 2.29-5.218 3.36-2.043 1.062-4.403 1.969-7.079 2.719-2.667.75-5.667 1.125-9 1.125-5.523 0-10.624-1.067-15.312-3.203-4.68-2.133-8.73-5.036-12.156-8.704-3.418-3.675-6.102-7.992-8.047-12.953-1.95-4.968-2.922-10.281-2.922-15.937 0-5.406.89-10.399 2.672-14.985 1.789-4.582 4.242-8.523 7.36-11.828a33.646 33.646 0 0 1 10.937-7.734c4.176-1.852 8.68-2.781 13.515-2.781 3.395 0 6.551.43 9.47 1.28 2.925.845 5.597 1.884 8.015 3.11 2.414 1.219 4.582 2.54 6.5 3.953 1.914 1.418 3.535 2.688 4.86 3.813l.374-.094v-34.484H-3.297v-13.86h167.844zM47.875-89.531c-3.586 0-6.746.742-9.484 2.219-2.73 1.48-5.008 3.367-6.828 5.656a24.26 24.26 0 0 0-4.094 7.734c-.907 2.856-1.36 5.664-1.36 8.422 0 3.023.532 6.027 1.594 9.016a26.496 26.496 0 0 0 4.578 8.047 23.569 23.569 0 0 0 7.11 5.796c2.757 1.48 5.804 2.22 9.14 2.22 2.832 0 5.801-.583 8.907-1.75 3.113-1.165 5.972-2.974 8.578-5.423 2.601-2.445 4.754-5.57 6.453-9.375 1.695-3.8 2.547-8.336 2.547-13.61v-4.624c-1.512-1.883-3.29-3.692-5.329-5.422a41.623 41.623 0 0 0-6.593-4.563 37.058 37.058 0 0 0-7.407-3.156 26.532 26.532 0 0 0-7.812-1.187zm0 0"/></symbol></defs><use xlink:href="#74cf1942a" x="44.48358" y="190"/></svg>