<?xml version='1.0' encoding='UTF-8'?>
<svg xmlns="http://www.w3.org/2000/svg" xmlns:xlink="http://www.w3.org/1999/xlink" width="250px" height="250px" viewBox="0 0 250 250" y="0px" x="0px" enable-background="new 0 0 250 250"><defs><symbol overflow="visible" id="e85de3b9a"><path d="M145.64-135.844h-15.452V.094h-16.579V-94.61c-3.574-1.282-6.945-1.922-10.109-1.922-3.168 0-5.934.594-8.297 1.781-2.355 1.18-4.324 2.746-5.906 4.703-1.586 1.95-2.781 4.234-3.594 6.86-.805 2.624-1.203 5.39-1.203 8.296 0 1.149.047 2.309.14 3.485.102 1.18.223 2.34.36 3.484H69.547a199.109 199.109 0 0 0-1.875-11.219c-.711-3.57-1.719-6.703-3.031-9.39-1.313-2.696-3.016-4.836-5.11-6.422-2.086-1.582-4.777-2.375-8.078-2.375-3.168 0-5.883.64-8.14 1.922-2.262 1.273-4.133 3.054-5.61 5.344-1.48 2.292-2.574 4.976-3.281 8.046-.711 3.063-1.063 6.383-1.063 9.954 0 7.68 1.313 14.57 3.938 20.671a57.635 57.635 0 0 0 10.656 16.422c4.488 4.856 9.68 9.188 15.578 13a175.108 175.108 0 0 0 18.64 10.453L73.985 2.422c-2.43-1.074-5.546-2.688-9.359-4.844-3.805-2.156-7.844-4.816-12.125-7.984-4.273-3.164-8.563-6.867-12.875-11.11-4.313-4.25-8.21-9.004-11.688-14.265-3.468-5.258-6.28-11.055-8.437-17.39-2.156-6.333-3.234-13.173-3.234-20.517 0-5.656.804-10.925 2.422-15.812 1.625-4.883 3.937-9.129 6.937-12.734 3-3.602 6.617-6.43 10.86-8.485 4.25-2.062 8.968-3.094 14.156-3.094 3.906 0 7.27.56 10.093 1.672 2.832 1.118 5.274 2.5 7.328 4.157 2.063 1.648 3.766 3.43 5.11 5.343a88.215 88.215 0 0 1 3.547 5.407l.5-.094c1.281-2.832 2.812-5.223 4.594-7.172 1.789-1.957 3.742-3.54 5.859-4.75a25.646 25.646 0 0 1 6.719-2.688c2.363-.57 4.726-.859 7.093-.859 2.082 0 4.149.188 6.204.563 2.062.367 4.035.886 5.921 1.562v-25.172H-3.53v-14.86H145.64zm0 0"/></symbol></defs><use xlink:href="#e85de3b9a" x="53.94482" y="200"/></svg>