<?xml version='1.0' encoding='UTF-8'?>
<svg xmlns="http://www.w3.org/2000/svg" xmlns:xlink="http://www.w3.org/1999/xlink" width="250px" height="250px" viewBox="0 0 250 250" y="0px" x="0px" enable-background="new 0 0 250 250"><defs><symbol overflow="visible" id="39f88168a"><path d="M111.39-126.656H96.97V0H81.516v-33.64l-.375-.094c-1.262 1.187-2.743 2.43-4.438 3.718-1.687 1.293-3.637 2.461-5.844 3.5-2.199 1.032-4.664 1.891-7.39 2.578-2.73.688-5.793 1.032-9.188 1.032-6.218 0-11.89-1.192-17.015-3.578-5.118-2.383-9.528-5.57-13.235-9.563-3.71-3.988-6.586-8.57-8.625-13.75-2.043-5.187-3.062-10.61-3.062-16.266 0-5.656 1.02-10.914 3.062-15.78 2.04-4.876 4.852-9.098 8.438-12.673 3.582-3.582 7.758-6.394 12.531-8.437 4.77-2.04 9.89-3.063 15.36-3.063 1.507 0 3.41.125 5.703.375 2.289.25 4.753.82 7.39 1.704 2.645.874 5.379 2.148 8.203 3.812 2.832 1.668 5.535 3.914 8.11 6.734l.375-.093v-33.172H-3.297v-13.86h114.688zM81.89-75.86c-3.96-4.782-8.261-8.63-12.906-11.547-4.648-2.914-9.921-4.375-15.828-4.375-4.656 0-8.605.883-11.843 2.64-3.231 1.75-5.883 3.965-7.954 6.641a26.265 26.265 0 0 0-4.53 8.906c-.938 3.262-1.407 6.403-1.407 9.422 0 3.262.531 6.496 1.594 9.703 1.07 3.211 2.66 6.086 4.765 8.625 2.102 2.543 4.723 4.617 7.86 6.219 3.144 1.605 6.82 2.406 11.03 2.406 4.345 0 8.302-.832 11.876-2.5 3.582-1.664 6.66-3.785 9.234-6.36 2.582-2.581 4.578-5.472 5.985-8.671 1.414-3.207 2.125-6.316 2.125-9.328zm0 0"/></symbol></defs><use xlink:href="#39f88168a" x="71.02435" y="190"/></svg>