<?xml version='1.0' encoding='UTF-8'?>
<svg xmlns="http://www.w3.org/2000/svg" xmlns:xlink="http://www.w3.org/1999/xlink" width="250px" height="250px" viewBox="0 0 250 250" y="0px" x="0px" enable-background="new 0 0 250 250"><defs><symbol overflow="visible" id="ba633f64a"><path d="M182.938-135.844h-81.454v38.813l.5.203a38.556 38.556 0 0 1 6.016-6.406 38.851 38.851 0 0 1 7.375-4.954 38.87 38.87 0 0 1 8.39-3.187 35.859 35.859 0 0 1 8.938-1.125c4.988 0 9.602.996 13.844 2.984 4.25 1.993 7.922 4.72 11.016 8.188 3.101 3.469 5.53 7.562 7.28 12.281 1.759 4.719 2.641 9.84 2.641 15.36 0 6.199-1.062 11.898-3.187 17.093-2.125 5.188-4.856 9.907-8.188 14.157-3.336 4.242-7.058 7.996-11.172 11.265-4.105 3.262-8.183 6.04-12.234 8.328l-8.984-15.562c1.281-.739 2.863-1.711 4.75-2.922a79.06 79.06 0 0 0 5.906-4.25 65.585 65.585 0 0 0 6.125-5.516 45.386 45.386 0 0 0 5.453-6.718 36.952 36.952 0 0 0 3.938-7.782c1.007-2.758 1.515-5.722 1.515-8.89 0-3.04-.476-5.875-1.422-8.5-.937-2.625-2.234-4.91-3.89-6.86a18.316 18.316 0 0 0-5.953-4.656c-2.325-1.145-4.868-1.719-7.625-1.719-3.575 0-7.078.914-10.516 2.735a41.25 41.25 0 0 0-9.406 6.812c-2.824 2.73-5.23 5.649-7.219 8.75-1.992 3.094-3.29 5.953-3.89 8.578V0H84.905v-48.016l-.312-.093c-4.18 3.843-8.696 6.625-13.547 8.343-4.844 1.711-9.899 2.563-15.156 2.563-5.461 0-10.45-.836-14.97-2.516-4.51-1.687-8.386-4.265-11.624-7.734-3.23-3.469-5.758-7.848-7.578-13.14C19.906-65.884 19-72.165 19-79.438v-56.407H-3.531v-14.86h186.469zm-98.032 0H35.375v55.485c0 4.25.316 8.062.953 11.437.645 3.367 1.758 6.23 3.344 8.594 1.582 2.355 3.656 4.156 6.219 5.406 2.562 1.242 5.757 1.86 9.593 1.86 3.239 0 6.254-.454 9.047-1.36a33.026 33.026 0 0 0 7.844-3.75c2.426-1.582 4.68-3.484 6.766-5.703a55.726 55.726 0 0 0 5.765-7.281zm0 0"/></symbol></defs><use xlink:href="#ba633f64a" x="35.29663" y="200"/></svg>