<?xml version='1.0' encoding='UTF-8'?>
<svg xmlns="http://www.w3.org/2000/svg" xmlns:xlink="http://www.w3.org/1999/xlink" width="250px" height="250px" viewBox="0 0 250 250" y="0px" x="0px" enable-background="new 0 0 250 250"><defs><symbol overflow="visible" id="daf9b1bda"><path d="M63.234-12.063c5.22 0 10.055-.94 14.516-2.828 4.457-1.882 8.3-4.488 11.531-7.812 3.239-3.332 5.77-7.274 7.594-11.828 1.82-4.563 2.734-9.54 2.734-14.938 0-4.531-.617-8.504-1.843-11.922-1.22-3.425-2.79-6.394-4.704-8.906-1.917-2.52-4.023-4.625-6.312-6.312-2.293-1.696-4.508-3.079-6.64-4.141-2.137-1.07-4.04-1.86-5.704-2.36-1.668-.507-2.844-.828-3.531-.953-1.637.75-3.668 1.493-6.094 2.22a292.783 292.783 0 0 0-7.672 2.406c-3.148 1.062-6.324 2.414-9.53 4.046-3.2 1.637-6.087 3.774-8.657 6.407-2.574 2.636-4.664 5.902-6.266 9.796-1.605 3.899-2.406 8.61-2.406 14.141 0 4.836.816 9.277 2.453 13.328 1.633 4.055 3.91 7.543 6.828 10.469 2.926 2.918 6.399 5.18 10.422 6.781 4.02 1.606 8.445 2.406 13.281 2.406zm65.782-114.593H88.484v15.265c0 3.086-.507 6.293-1.515 9.625-1 3.325-2.477 6.149-4.422 8.47 4.969 1.76 9.414 4.167 13.344 7.218 3.925 3.043 7.254 6.558 9.984 10.547 2.727 3.992 4.832 8.375 6.313 13.156 1.476 4.773 2.218 9.762 2.218 14.969 0 6.918-1.261 13.39-3.781 19.422-2.512 6.03-6.012 11.293-10.5 15.78-4.492 4.493-9.844 8.028-16.063 10.61-6.218 2.57-13.039 3.86-20.453 3.86-7.855 0-14.797-1.399-20.828-4.188-6.031-2.8-11.09-6.523-15.172-11.172-4.086-4.656-7.195-9.969-9.328-15.937-2.136-5.969-3.203-12.157-3.203-18.563 0-6.718.988-12.586 2.969-17.61 1.976-5.03 4.691-9.382 8.14-13.062 3.458-3.675 7.555-6.738 12.297-9.187 4.75-2.445 9.922-4.457 15.516-6.031 2.57-.75 5.02-1.5 7.344-2.25 2.332-.758 4.36-1.832 6.078-3.22 1.726-1.382 3.094-3.19 4.094-5.421 1.007-2.227 1.515-5.133 1.515-8.719v-13.562H-3.297v-13.86h132.313zm0 0"/></symbol></defs><use xlink:href="#daf9b1bda" x="62.22449" y="190"/></svg>