<?xml version='1.0' encoding='UTF-8'?>
<svg xmlns="http://www.w3.org/2000/svg" xmlns:xlink="http://www.w3.org/1999/xlink" width="250px" height="250px" viewBox="0 0 250 250" y="0px" x="0px" enable-background="new 0 0 250 250"><defs><symbol overflow="visible" id="e1a6412aa"><path d="M151.203-135.844H135.75V0h-16.578v-135.844H94.094v62.563c0 7.011-.961 13.043-2.875 18.094-1.918 5.054-4.547 9.23-7.89 12.53-3.337 3.305-7.227 5.747-11.673 7.329-4.449 1.586-9.23 2.375-14.344 2.375-5.73 0-10.902-.906-15.515-2.719-4.617-1.82-8.543-4.52-11.781-8.094-3.23-3.57-5.727-8-7.485-13.28-1.75-5.29-2.625-11.376-2.625-18.25v-60.548H-3.53v-14.86h154.734zm-114.516 0v63.672c0 3.106.352 6.09 1.063 8.953.707 2.867 1.852 5.414 3.438 7.64 1.582 2.22 3.671 4 6.265 5.345 2.594 1.343 5.774 2.015 9.547 2.015 3.844 0 7.063-.672 9.656-2.015 2.594-1.344 4.696-3.125 6.313-5.344 1.625-2.227 2.789-4.774 3.5-7.64.707-2.864 1.062-5.848 1.062-8.954v-63.672zm0 0"/></symbol></defs><use xlink:href="#e1a6412aa" x="51.16528" y="200"/></svg>