<?xml version="1.0" encoding="UTF-8"?><svg enable-background="new 0 0 250 250" height="250px" viewBox="0 0 250 250" width="250px" x="0px" xml:space="preserve" xmlns="http://www.w3.org/2000/svg" xmlns:xlink="http://www.w3.org/1999/xlink" y="0px"><defs><symbol id="d697233fa" overflow="visible"><path d="M11.078 33.39V-87.124h13.453v11.328c3.164-4.426 6.742-7.75 10.735-9.969 4-2.218 8.843-3.328 14.53-3.328 7.438 0 14 1.918 19.688 5.75 5.688 3.824 9.977 9.227 12.875 16.203 2.895 6.97 4.344 14.61 4.344 22.922 0 8.918-1.601 16.946-4.797 24.078-3.199 7.137-7.851 12.606-13.953 16.407-6.094 3.8-12.5 5.703-19.219 5.703-4.93 0-9.351-1.04-13.265-3.11-3.907-2.082-7.117-4.71-9.625-7.89V33.39zm13.375-76.453c0 11.211 2.266 19.497 6.797 24.86 4.54 5.355 10.04 8.031 16.5 8.031 6.563 0 12.176-2.773 16.844-8.328 4.676-5.55 7.015-14.148 7.015-25.797 0-11.101-2.28-19.414-6.843-24.937-4.563-5.52-10.016-8.282-16.36-8.282-6.293 0-11.86 2.938-16.703 8.813-4.836 5.875-7.25 14.422-7.25 25.64zm0 0"/></symbol></defs><use x="78.346" xlink:href="#d697233fa" y="169"/></svg>