<?xml version="1.0" encoding="UTF-8"?><svg enable-background="new 0 0 250 250" height="250px" viewBox="0 0 250 250" width="250px" x="0px" xml:space="preserve" xmlns="http://www.w3.org/2000/svg" xmlns:xlink="http://www.w3.org/1999/xlink" y="0px"><defs><symbol id="55749b04a" overflow="visible"><path d="M8.375 7.219l14.344 2.14c.601 4.426 2.273 7.649 5.015 9.672 3.657 2.739 8.657 4.11 15 4.11 6.844 0 12.125-1.371 15.844-4.11 3.719-2.73 6.234-6.558 7.547-11.484.758-3.012 1.113-9.328 1.063-18.953C60.727-3.801 52.688 0 43.061 0 31.095 0 21.828-4.316 15.267-12.953c-6.563-8.645-9.844-19.008-9.844-31.094 0-8.312 1.5-15.984 4.5-23.016C12.93-74.093 17.289-79.52 23-83.343c5.719-3.833 12.438-5.75 20.156-5.75 10.282 0 18.754 4.156 25.422 12.468v-10.5h13.625v75.313c0 13.562-1.387 23.171-4.156 28.828-2.762 5.664-7.137 10.14-13.125 13.422-5.98 3.28-13.344 4.921-22.094 4.921-10.398 0-18.793-2.34-25.187-7.015-6.399-4.68-9.485-11.719-9.266-21.125zm12.219-52.344c0 11.438 2.265 19.781 6.797 25.031 4.539 5.25 10.234 7.875 17.078 7.875 6.781 0 12.468-2.61 17.062-7.828 4.594-5.226 6.89-13.422 6.89-24.578 0-10.664-2.37-18.703-7.109-24.11-4.73-5.413-10.43-8.124-17.093-8.124-6.563 0-12.14 2.668-16.735 8-4.593 5.324-6.89 13.234-6.89 23.734zm0 0"/></symbol></defs><use x="78.346" xlink:href="#55749b04a" y="169"/></svg>