<?xml version="1.0" encoding="UTF-8"?><svg enable-background="new 0 0 250 250" height="250px" viewBox="0 0 250 250" width="250px" x="0px" xml:space="preserve" xmlns="http://www.w3.org/2000/svg" xmlns:xlink="http://www.w3.org/1999/xlink" y="0px"><defs><symbol id="077a629ea" overflow="visible"><path d="M24.688 0H11v-120.266h14.766v42.907c6.226-7.82 14.18-11.735 23.859-11.735 5.363 0 10.438 1.086 15.219 3.25 4.789 2.156 8.726 5.196 11.812 9.11 3.094 3.906 5.516 8.62 7.266 14.14 1.75 5.524 2.625 11.43 2.625 17.719 0 14.93-3.695 26.469-11.078 34.625C68.082-2.102 59.223 1.969 48.89 1.969c-10.282 0-18.352-4.29-24.203-12.875zm-.157-44.219c0 10.45 1.422 17.996 4.266 22.64 4.644 7.606 10.93 11.407 18.86 11.407 6.456 0 12.034-2.8 16.734-8.406 4.707-5.602 7.062-13.957 7.062-25.063 0-11.375-2.258-19.77-6.766-25.187-4.511-5.414-9.968-8.125-16.374-8.125-6.45 0-12.028 2.808-16.735 8.422-4.7 5.605-7.047 13.71-7.047 24.312zm0 0"/></symbol></defs><use x="78.346" xlink:href="#077a629ea" y="169"/></svg>