<?xml version="1.0" encoding="UTF-8"?><svg enable-background="new 0 0 250 250" height="250px" viewBox="0 0 250 250" width="250px" x="0px" xml:space="preserve" xmlns="http://www.w3.org/2000/svg" xmlns:xlink="http://www.w3.org/1999/xlink" y="0px"><defs><symbol id="27e5f8d2a" overflow="visible"><path d="M11.078 0v-87.125H24.36v12.39c6.407-9.57 15.649-14.359 27.735-14.359 5.25 0 10.07.95 14.468 2.844 4.407 1.887 7.704 4.36 9.891 7.422 2.188 3.062 3.719 6.7 4.594 10.906.55 2.73.828 7.516.828 14.36V0H67.109v-53c0-6.008-.578-10.504-1.734-13.484-1.148-2.977-3.184-5.36-6.11-7.141-2.93-1.781-6.359-2.672-10.296-2.672-6.282 0-11.711 2-16.282 6-4.562 3.992-6.843 11.563-6.843 22.719V0zm0 0"/></symbol></defs><use x="78.346" xlink:href="#27e5f8d2a" y="169"/></svg>