<?xml version="1.0" encoding="UTF-8"?><svg enable-background="new 0 0 250 250" height="250px" viewBox="0 0 250 250" width="250px" x="0px" xml:space="preserve" xmlns="http://www.w3.org/2000/svg" xmlns:xlink="http://www.w3.org/1999/xlink" y="0px"><defs><symbol id="559dc1b8a" overflow="visible"><path d="M43.313-13.203l2.14 13.031c-4.156.883-7.875 1.328-11.156 1.328-5.367 0-9.527-.851-12.484-2.547-2.95-1.695-5.028-3.925-6.235-6.687-1.2-2.758-1.797-8.57-1.797-17.438V-75.64H2.953v-11.484h10.828v-21.563l14.688-8.859v30.422h14.843v11.484H28.47v50.954c0 4.21.258 6.917.781 8.125.52 1.199 1.363 2.152 2.531 2.859 1.176.71 2.86 1.062 5.047 1.062 1.645 0 3.805-.187 6.484-.562zm0 0"/></symbol></defs><use x="101.694" xlink:href="#559dc1b8a" y="169"/></svg>