<?xml version="1.0" encoding="UTF-8"?><svg enable-background="new 0 0 250 250" height="250px" viewBox="0 0 250 250" width="250px" x="0px" xml:space="preserve" xmlns="http://www.w3.org/2000/svg" xmlns:xlink="http://www.w3.org/1999/xlink" y="0px"><defs><symbol id="e5f7251ca" overflow="visible"><path d="M68.172 0v-12.797C61.39-2.953 52.176 1.97 40.532 1.97c-5.15 0-9.95-.985-14.407-2.953-4.46-1.97-7.766-4.442-9.922-7.422-2.156-2.977-3.672-6.63-4.547-10.953-.605-2.895-.906-7.489-.906-13.782v-53.984h14.766v48.328c0 7.711.3 12.902.906 15.578.926 3.887 2.89 6.938 5.89 9.157 3.008 2.21 6.735 3.312 11.172 3.312 4.426 0 8.578-1.133 12.453-3.406 3.883-2.27 6.633-5.36 8.25-9.266C65.802-27.328 66.61-33 66.61-40.437v-46.688h14.766V0zm0 0"/></symbol></defs><use x="78.346" xlink:href="#e5f7251ca" y="169"/></svg>