<?xml version="1.0" encoding="UTF-8"?><svg enable-background="new 0 0 250 250" height="250px" viewBox="0 0 250 250" width="250px" x="0px" xml:space="preserve" xmlns="http://www.w3.org/2000/svg" xmlns:xlink="http://www.w3.org/1999/xlink" y="0px"><defs><symbol id="122680f6a" overflow="visible"><path d="M67.922-31.906l14.516 1.875C80.852-20.02 76.788-12.18 70.25-6.516 63.719-.859 55.695 1.97 46.187 1.97c-11.93 0-21.515-3.895-28.765-11.688-7.242-7.789-10.86-18.96-10.86-33.515 0-9.407 1.555-17.633 4.672-24.688 3.125-7.05 7.868-12.344 14.235-15.875 6.375-3.531 13.304-5.297 20.797-5.297 9.457 0 17.191 2.399 23.203 7.188 6.02 4.781 9.879 11.574 11.578 20.375l-14.36 2.218c-1.367-5.851-3.789-10.253-7.265-13.203-3.469-2.957-7.664-4.437-12.578-4.437-7.438 0-13.485 2.668-18.14 8-4.65 5.336-6.97 13.773-6.97 25.312 0 11.7 2.239 20.203 6.72 25.516 4.487 5.305 10.343 7.953 17.562 7.953 5.8 0 10.64-1.773 14.515-5.328 3.883-3.563 6.348-9.031 7.39-16.406zm0 0"/></symbol></defs><use x="83.056" xlink:href="#122680f6a" y="169"/></svg>