<?xml version="1.0" encoding="UTF-8"?><svg enable-background="new 0 0 250 250" height="250px" viewBox="0 0 250 250" width="250px" x="0px" xml:space="preserve" xmlns="http://www.w3.org/2000/svg" xmlns:xlink="http://www.w3.org/1999/xlink" y="0px"><defs><symbol id="b239856ca" overflow="visible"><path d="M66.61 33.39V-9.265c-2.294 3.22-5.508 5.899-9.641 8.032-4.125 2.132-8.512 3.203-13.157 3.203-10.343 0-19.25-4.13-26.718-12.39C9.633-18.68 5.906-30 5.906-44.376c0-8.75 1.516-16.598 4.547-23.547 3.04-6.945 7.445-12.21 13.219-15.797 5.77-3.582 12.098-5.375 18.984-5.375 10.77 0 19.25 4.543 25.438 13.625v-11.656h13.281V33.391zM21.077-43.812c0 11.22 2.348 19.633 7.047 25.235 4.707 5.605 10.344 8.406 16.906 8.406 6.29 0 11.707-2.664 16.25-8 4.54-5.332 6.813-13.441 6.813-24.328 0-11.594-2.399-20.313-7.188-26.156-4.781-5.852-10.402-8.781-16.86-8.781-6.398 0-11.823 2.726-16.28 8.171-4.461 5.438-6.688 13.922-6.688 25.454zm0 0"/></symbol></defs><use x="78.346" xlink:href="#b239856ca" y="169"/></svg>