<?xml version="1.0" encoding="UTF-8"?><svg enable-background="new 0 0 250 250" height="250px" viewBox="0 0 250 250" width="250px" x="0px" xml:space="preserve" xmlns="http://www.w3.org/2000/svg" xmlns:xlink="http://www.w3.org/1999/xlink" y="0px"><defs><symbol id="635b6503a" overflow="visible"><path d="M11.078 0v-87.125h13.203v12.234c2.739-4.27 6.375-7.703 10.907-10.296 4.539-2.602 9.71-3.907 15.515-3.907 6.445 0 11.734 1.344 15.86 4.031 4.132 2.68 7.05 6.422 8.75 11.235 6.882-10.176 15.851-15.266 26.906-15.266 8.633 0 15.273 2.399 19.922 7.188 4.656 4.781 6.984 12.152 6.984 22.11V0h-14.688v-54.875c0-5.906-.48-10.156-1.437-12.75-.96-2.602-2.7-4.695-5.219-6.281-2.511-1.594-5.46-2.39-8.844-2.39-6.124 0-11.214 2.042-15.265 6.124-4.043 4.074-6.063 10.594-6.063 19.563V0H62.844v-56.61c0-6.562-1.203-11.484-3.61-14.765-2.406-3.281-6.343-4.922-11.812-4.922-4.156 0-8 1.094-11.531 3.281-3.532 2.188-6.09 5.391-7.672 9.61-1.586 4.21-2.375 10.277-2.375 18.203V0zm0 0"/></symbol></defs><use x="55.121" xlink:href="#635b6503a" y="169"/></svg>