<?xml version="1.0" encoding="UTF-8"?><svg enable-background="new 0 0 250 250" height="250px" viewBox="0 0 250 250" width="250px" x="0px" xml:space="preserve" xmlns="http://www.w3.org/2000/svg" xmlns:xlink="http://www.w3.org/1999/xlink" y="0px"><defs><symbol id="d03e59dda" overflow="visible"><path d="M11.078 0v-120.266h14.766v43.157c6.883-7.989 15.578-11.985 26.078-11.985 6.457 0 12.062 1.278 16.812 3.828 4.758 2.543 8.164 6.059 10.22 10.547 2.05 4.48 3.077 10.985 3.077 19.516V0H67.266v-55.203c0-7.383-1.602-12.758-4.797-16.125-3.2-3.363-7.727-5.047-13.578-5.047-4.375 0-8.493 1.137-12.344 3.406-3.856 2.274-6.606 5.352-8.25 9.235-1.637 3.875-2.453 9.234-2.453 16.078V0zm0 0"/></symbol></defs><use x="78.346" xlink:href="#d03e59dda" y="169"/></svg>