<?xml version="1.0" encoding="UTF-8"?><svg enable-background="new 0 0 250 250" height="250px" viewBox="0 0 250 250" width="250px" x="0px" xml:space="preserve" xmlns="http://www.w3.org/2000/svg" xmlns:xlink="http://www.w3.org/1999/xlink" y="0px"><defs><symbol id="5c2abf19a" overflow="visible"><path d="M14.61 0v-75.64H1.562v-11.485h13.046v-9.266c0-5.851.516-10.203 1.547-13.046 1.426-3.82 3.93-6.922 7.516-9.297 3.582-2.383 8.598-3.579 15.047-3.579 4.156 0 8.75.497 13.781 1.485l-2.219 12.875c-3.062-.55-5.96-.828-8.687-.828-4.492 0-7.668.96-9.532 2.875-1.855 1.918-2.78 5.5-2.78 10.75v8.031h16.984v11.484H29.28V0zm0 0"/></symbol></defs><use x="101.694" xlink:href="#5c2abf19a" y="169"/></svg>