<?xml version="1.0" encoding="UTF-8"?><svg enable-background="new 0 0 250 250" height="250px" viewBox="0 0 250 250" width="250px" x="0px" xml:space="preserve" xmlns="http://www.w3.org/2000/svg" xmlns:xlink="http://www.w3.org/1999/xlink" y="0px"><defs><symbol id="b38771eea" overflow="visible"><path d="M67.594 0v-11C62.07-2.352 53.954 1.969 43.234 1.969c-6.949 0-13.336-1.914-19.156-5.735-5.824-3.832-10.336-9.18-13.531-16.047-3.2-6.863-4.797-14.753-4.797-23.671 0-8.688 1.445-16.57 4.344-23.657 2.894-7.082 7.238-12.507 13.031-16.28 5.8-3.782 12.285-5.673 19.453-5.673 5.25 0 9.922 1.11 14.016 3.328 4.101 2.22 7.441 5.106 10.015 8.657v-43.157h14.688V0zM20.922-43.484c0 11.156 2.348 19.5 7.047 25.03 4.707 5.524 10.258 8.282 16.656 8.282 6.457 0 11.941-2.633 16.453-7.906 4.508-5.281 6.766-13.336 6.766-24.172 0-11.914-2.297-20.66-6.89-26.234-4.595-5.582-10.259-8.375-16.985-8.375-6.563 0-12.047 2.683-16.453 8.046-4.399 5.356-6.594 13.797-6.594 25.329zm0 0"/></symbol></defs><use x="78.346" xlink:href="#b38771eea" y="169"/></svg>