<?xml version="1.0" encoding="UTF-8"?><svg enable-background="new 0 0 250 250" height="250px" viewBox="0 0 250 250" width="250px" x="0px" xml:space="preserve" xmlns="http://www.w3.org/2000/svg" xmlns:xlink="http://www.w3.org/1999/xlink" y="0px"><defs><symbol id="36564051a" overflow="visible"><path d="M10.422 33.547l-1.64-13.86c3.226.875 6.046 1.313 8.452 1.313 3.282 0 5.907-.547 7.875-1.64 1.97-1.094 3.578-2.626 4.828-4.594.938-1.48 2.442-5.141 4.516-10.985.27-.824.707-2.027 1.313-3.61L2.703-87.124h15.922L36.75-36.672c2.352 6.399 4.457 13.125 6.313 20.188a198.45 198.45 0 0 1 6.078-19.86l18.625-50.781H82.53l-33.14 88.61c-3.563 9.562-6.328 16.148-8.297 19.765-2.625 4.863-5.637 8.43-9.032 10.703-3.386 2.27-7.43 3.406-12.124 3.406-2.844 0-6.016-.605-9.516-1.812zm0 0"/></symbol></defs><use x="83.056" xlink:href="#36564051a" y="169"/></svg>