<?xml version="1.0" encoding="UTF-8"?><svg enable-background="new 0 0 250 250" height="250px" viewBox="0 0 250 250" width="250px" x="0px" xml:space="preserve" xmlns="http://www.w3.org/2000/svg" xmlns:xlink="http://www.w3.org/1999/xlink" y="0px"><defs><symbol id="44a100fca" overflow="visible"><path d="M5.172-26l14.594-2.297c.82 5.844 3.101 10.328 6.843 13.453 3.75 3.117 8.989 4.672 15.72 4.672 6.78 0 11.812-1.379 15.093-4.14 3.281-2.758 4.922-6 4.922-9.72 0-3.343-1.45-5.968-4.344-7.874-2.023-1.313-7.055-2.985-15.094-5.016C32.07-39.648 24.563-42.008 20.375-44c-4.18-2-7.352-4.766-9.516-8.297-2.156-3.531-3.234-7.426-3.234-11.687 0-3.883.89-7.477 2.672-10.782a23.946 23.946 0 0 1 7.265-8.25c2.29-1.695 5.415-3.132 9.375-4.312 3.97-1.176 8.223-1.766 12.766-1.766 6.832 0 12.832.985 18 2.953 5.176 1.97 8.992 4.637 11.453 8 2.457 3.368 4.149 7.868 5.078 13.5l-14.437 1.97c-.656-4.49-2.559-7.99-5.703-10.5-3.137-2.52-7.578-3.782-13.328-3.782-6.782 0-11.621 1.125-14.516 3.375-2.898 2.242-4.344 4.867-4.344 7.875 0 1.906.598 3.625 1.797 5.156 1.207 1.594 3.098 2.906 5.672 3.938 1.469.554 5.813 1.812 13.031 3.78 10.446 2.794 17.735 5.079 21.86 6.86 4.132 1.774 7.375 4.356 9.718 7.75 2.352 3.387 3.532 7.594 3.532 12.625 0 4.918-1.438 9.555-4.313 13.907-2.867 4.343-7.008 7.71-12.422 10.093C55.375.781 49.25 1.97 42.406 1.97c-11.312 0-19.937-2.348-25.875-7.047C10.594-9.785 6.805-16.758 5.171-26zm0 0"/></symbol></defs><use x="83.056" xlink:href="#44a100fca" y="169"/></svg>