<?xml version='1.0' encoding='UTF-8'?>
<svg xmlns="http://www.w3.org/2000/svg" xmlns:xlink="http://www.w3.org/1999/xlink" width="250px" height="250px" viewBox="0 0 250 250" y="0px" x="0px" enable-background="new 0 0 250 250"><defs><symbol overflow="visible" id="75e1ff6aa"><path d="M79.61-82.828c0 .242-.016.496-.047.766a7.363 7.363 0 0 1-.126.843c-.062.293-.14.621-.234.985-.086.355-.183.742-.297 1.156L51.47-2.688c-.242.657-.555 1.196-.938 1.61-.386.418-.968.746-1.75.984-.773.239-1.758.399-2.953.485-1.187.093-2.672.14-4.453.14-1.793 0-3.29-.062-4.484-.187C35.703.227 34.738.054 34-.172c-.742-.238-1.324-.566-1.75-.984a4.191 4.191 0 0 1-.969-1.532L3.938-79.078a50.611 50.611 0 0 1-.594-1.875c-.149-.54-.235-.942-.266-1.203a6.009 6.009 0 0 1-.047-.672c0-.477.117-.895.36-1.25.238-.363.64-.649 1.203-.86.57-.207 1.316-.335 2.234-.39a52.782 52.782 0 0 1 3.453-.094c1.727 0 3.114.047 4.156.14 1.04.087 1.844.247 2.407.485.562.242.976.54 1.25.89.27.356.523.805.765 1.344l22.688 66.297.36 1.078.265-1.078 22.437-66.297c.114-.539.317-.988.61-1.343.3-.352.734-.649 1.297-.89.57-.24 1.347-.4 2.328-.485.988-.094 2.285-.14 3.89-.14 1.375 0 2.504.03 3.391.093.895.055 1.594.2 2.094.437.508.243.867.528 1.078.86.207.324.312.726.312 1.203zm0 0"/></symbol></defs><use xlink:href="#75e1ff6aa" x="83.73077" y="169"/></svg>