<?xml version='1.0' encoding='UTF-8'?>
<svg xmlns="http://www.w3.org/2000/svg" xmlns:xlink="http://www.w3.org/1999/xlink" width="250px" height="250px" viewBox="0 0 250 250" y="0px" x="0px" enable-background="new 0 0 250 250"><defs><symbol overflow="visible" id="ef6ef0e2a"><path d="M126.172-82.828c0 .418-.063.922-.188 1.516-.117.593-.324 1.34-.625 2.234l-23.671 76.39c-.18.657-.465 1.196-.86 1.61-.387.418-.922.746-1.61.984-.679.239-1.616.399-2.812.485-1.187.093-2.672.14-4.453.14-1.855 0-3.406-.062-4.656-.187-1.25-.117-2.25-.29-3-.516-.742-.238-1.29-.566-1.64-.984-.356-.414-.626-.926-.813-1.532L64.969-61.03l-.188-.797-.172.797L48.97-2.688c-.18.657-.465 1.196-.86 1.61-.386.418-.964.746-1.734.984-.773.239-1.773.399-3 .485-1.219.093-2.719.14-4.5.14-1.855 0-3.367-.062-4.531-.187-1.157-.117-2.11-.29-2.86-.516-.742-.238-1.289-.566-1.64-.984-.356-.414-.621-.926-.797-1.532l-23.5-76.39a19.826 19.826 0 0 1-.64-2.234 7.976 7.976 0 0 1-.173-1.516c0-.54.118-.973.36-1.297.238-.332.64-.602 1.203-.813.57-.207 1.332-.335 2.281-.39a54.682 54.682 0 0 1 3.485-.094c1.664 0 3.003.047 4.015.14 1.02.087 1.797.231 2.328.438.54.211.926.508 1.157.89.238.388.445.852.625 1.391l19.39 66.297.188.813.172-.813 17.78-66.297c.126-.539.317-1.003.579-1.39.27-.383.672-.68 1.203-.89.54-.208 1.27-.352 2.188-.438.925-.094 2.132-.14 3.624-.14 1.438 0 2.614.046 3.532.14.926.086 1.656.23 2.187.437.54.211.93.496 1.172.86.238.355.414.765.531 1.234l19.22 66.484.171.813.094-.813 19.125-66.297c.113-.539.3-1.003.562-1.39.27-.383.688-.68 1.25-.89.57-.208 1.348-.352 2.328-.438.989-.094 2.258-.14 3.813-.14 1.426 0 2.57.03 3.437.093.864.055 1.547.2 2.047.437.508.243.867.512 1.078.813.207.293.313.71.313 1.25zm0 0"/></symbol></defs><use xlink:href="#ef6ef0e2a" x="59.68308" y="169"/></svg>