<?xml version='1.0' encoding='UTF-8'?>
<svg xmlns="http://www.w3.org/2000/svg" xmlns:xlink="http://www.w3.org/1999/xlink" width="250px" height="250px" viewBox="0 0 250 250" y="0px" x="0px" enable-background="new 0 0 250 250"><defs><symbol overflow="visible" id="8e1cbdb1a"><path d="M55.484-8.125c0 1.719-.12 3.09-.359 4.11-.23 1.011-.586 1.757-1.063 2.234-.48.468-1.199.914-2.156 1.328-.949.418-2.031.758-3.25 1.031-1.218.27-2.515.492-3.89.672a32.164 32.164 0 0 1-4.11.266c-4.168 0-7.742-.547-10.718-1.641-2.981-1.102-5.422-2.77-7.329-5-1.906-2.238-3.293-5.07-4.156-8.5-.867-3.426-1.297-7.46-1.297-12.11v-47H5.891c-.887 0-1.602-.472-2.141-1.421-.531-.957-.797-2.508-.797-4.656 0-1.133.07-2.086.219-2.86.144-.77.336-1.41.578-1.922.238-.508.55-.867.938-1.078a2.687 2.687 0 0 1 1.296-.312h11.172v-19.11c0-.414.102-.8.313-1.156.207-.363.593-.676 1.156-.938.57-.269 1.332-.46 2.281-.578.957-.125 2.149-.187 3.578-.187 1.489 0 2.707.062 3.657.187.957.118 1.703.309 2.234.579.54.261.93.574 1.172.937.238.355.36.742.36 1.156v19.11h20.64c.469 0 .879.105 1.234.312.364.211.676.57.938 1.078.27.512.46 1.153.578 1.922.125.774.187 1.727.187 2.86 0 2.148-.273 3.699-.812 4.656-.531.949-1.242 1.422-2.125 1.422h-20.64v44.859c0 5.543.816 9.73 2.452 12.563 1.633 2.824 4.567 4.234 8.797 4.234 1.375 0 2.598-.133 3.672-.406 1.07-.27 2.024-.551 2.86-.844.832-.3 1.546-.582 2.14-.844.594-.27 1.129-.406 1.61-.406.289 0 .57.074.843.219.27.148.477.43.625.843.145.418.274.985.39 1.704.126.718.188 1.617.188 2.687zm0 0"/></symbol></defs><use xlink:href="#8e1cbdb1a" x="94.39385" y="169"/></svg>