<?xml version='1.0' encoding='UTF-8'?>
<svg xmlns="http://www.w3.org/2000/svg" xmlns:xlink="http://www.w3.org/1999/xlink" width="250px" height="250px" viewBox="0 0 250 250" y="0px" x="0px" enable-background="new 0 0 250 250"><defs><symbol overflow="visible" id="46afaf4da"><path d="M64.969-6.25c0 1.125-.094 2.094-.281 2.906-.18.805-.387 1.461-.626 1.969-.242.5-.57.855-.984 1.063A2.9 2.9 0 0 1 61.75 0H12.234c-1.25 0-2.277-.414-3.078-1.25-.804-.832-1.203-2.234-1.203-4.203v-3.031c0-.832.055-1.579.172-2.235.125-.656.305-1.312.547-1.969.238-.656.566-1.351.984-2.093.414-.75.922-1.598 1.516-2.547L46.64-72.562H12.234c-.949 0-1.71-.489-2.28-1.47-.563-.976-.845-2.57-.845-4.78 0-1.07.055-2.008.172-2.813.125-.8.32-1.457.594-1.969.27-.508.598-.867.984-1.078.383-.207.844-.312 1.375-.312h46.11c.656 0 1.234.093 1.734.28.508.18.942.477 1.297.891.363.418.648.954.86 1.61.206.656.312 1.492.312 2.5v2.86c0 .835-.063 1.609-.188 2.327-.117.711-.293 1.407-.53 2.094-.231.688-.56 1.418-.985 2.188a50.68 50.68 0 0 1-1.516 2.593L24.031-12.42H61.75c.469 0 .895.105 1.281.312.395.21.723.554.985 1.03.27.481.492 1.122.671 1.923.188.804.282 1.773.282 2.906zm0 0"/></symbol></defs><use xlink:href="#46afaf4da" x="88.90615" y="169"/></svg>