<?xml version='1.0' encoding='UTF-8'?>
<svg xmlns="http://www.w3.org/2000/svg" xmlns:xlink="http://www.w3.org/1999/xlink" width="250px" height="250px" viewBox="0 0 250 250" y="0px" x="0px" enable-background="new 0 0 250 250"><defs><symbol overflow="visible" id="0cafd000a"><path d="M74.61-3.938c.476.836.718 1.54.718 2.11 0 .562-.289 1.027-.86 1.39-.562.356-1.429.602-2.593.75-1.156.145-2.656.22-4.5.22-1.793 0-3.21-.048-4.25-.141-1.043-.086-1.875-.23-2.5-.438C60-.254 59.52-.52 59.187-.844a5.501 5.501 0 0 1-.843-1.125l-19.297-31.89L19.844-1.97a5.43 5.43 0 0 1-.86 1.125c-.324.324-.797.59-1.422.797-.625.207-1.449.352-2.468.438-1.012.093-2.352.14-4.016.14-1.73 0-3.148-.074-4.25-.219C5.734.165 4.93-.082 4.422-.438c-.512-.363-.75-.828-.719-1.39.031-.57.317-1.274.86-2.11l25.015-39.218L5.891-80.953c-.47-.832-.72-1.531-.75-2.094-.032-.57.234-1.05.796-1.437.57-.383 1.438-.633 2.594-.75 1.164-.125 2.703-.188 4.61-.188 1.726 0 3.113.047 4.156.14 1.039.087 1.86.216 2.453.391.594.18 1.035.418 1.328.72.3.304.57.663.813 1.077l18.312 29.922 18.594-29.922c.238-.363.504-.691.797-.984.3-.3.703-.555 1.203-.766.508-.207 1.226-.351 2.156-.437.926-.094 2.192-.14 3.797-.14 1.727 0 3.14.062 4.234.187 1.102.117 1.922.34 2.454.671.539.325.78.782.718 1.376-.054.593-.351 1.34-.89 2.234l-23.5 37.344zm0 0"/></symbol></defs><use xlink:href="#0cafd000a" x="85.42615" y="169"/></svg>