<?xml version='1.0' encoding='UTF-8'?>
<svg xmlns="http://www.w3.org/2000/svg" xmlns:xlink="http://www.w3.org/1999/xlink" width="250px" height="250px" viewBox="0 0 250 250" y="0px" x="0px" enable-background="new 0 0 250 250"><defs><symbol overflow="visible" id="d80fbe56a"><path d="M57.719-115.719c0 1.137-.063 2.047-.188 2.735-.117.68-.246 1.226-.39 1.64-.149.418-.34.703-.578.86-.243.148-.54.218-.891.218-.418 0-.938-.129-1.563-.39a42.18 42.18 0 0 0-2.28-.89c-.9-.333-1.954-.634-3.173-.907-1.218-.27-2.636-.406-4.25-.406-2.199 0-4.074.359-5.625 1.078-1.554.71-2.808 1.824-3.765 3.344-.95 1.523-1.633 3.492-2.047 5.906-.418 2.406-.625 5.34-.625 8.797v8.75h17.968c.47 0 .864.105 1.188.312.332.211.633.57.906 1.078.27.512.477 1.153.625 1.922.145.774.219 1.727.219 2.86 0 2.148-.273 3.699-.813 4.656-.53.949-1.242 1.422-2.124 1.422h-17.97v70.5c0 .48-.12.886-.359 1.218-.242.325-.64.606-1.203.844-.562.227-1.324.399-2.281.516-.95.125-2.137.187-3.563.187-1.437 0-2.636-.062-3.593-.187-.95-.117-1.703-.29-2.266-.516-.562-.238-.965-.52-1.203-.844-.242-.332-.36-.738-.36-1.218v-70.5H6.173c-.961 0-1.68-.473-2.156-1.422-.47-.957-.704-2.508-.704-4.656 0-1.133.055-2.086.172-2.86.114-.77.29-1.41.532-1.922.238-.508.535-.867.89-1.078a2.513 2.513 0 0 1 1.266-.312h11.344v-8.297c0-5.602.52-10.414 1.562-14.438 1.04-4.02 2.633-7.312 4.781-9.875 2.145-2.562 4.836-4.453 8.078-5.672 3.25-1.218 7.079-1.828 11.485-1.828 2.082 0 4.11.196 6.078.578 1.969.387 3.488.805 4.563 1.25 1.07.45 1.785.852 2.14 1.204.352.355.649.82.89 1.39.239.563.4 1.25.485 2.063.094.804.14 1.765.14 2.89zm0 0"/></symbol></defs><use xlink:href="#d80fbe56a" x="97.11538" y="169"/></svg>