<?xml version='1.0' encoding='UTF-8'?>
<svg xmlns="http://www.w3.org/2000/svg" xmlns:xlink="http://www.w3.org/1999/xlink" width="250px" height="250px" viewBox="0 0 250 250" y="0px" x="0px" enable-background="new 0 0 250 250"><defs><symbol overflow="visible" id="9694c2b1a"><path d="M82.922-2.234c0 .48-.121.886-.36 1.218-.242.325-.632.606-1.171.844-.532.227-1.278.399-2.235.516-.949.125-2.136.187-3.562.187-1.492 0-2.715-.062-3.672-.187-.95-.117-1.695-.29-2.234-.516-.532-.238-.918-.52-1.157-.844-.242-.332-.36-.738-.36-1.218v-47.094c0-4.582-.359-8.274-1.077-11.078-.711-2.801-1.75-5.211-3.125-7.235-1.367-2.03-3.137-3.578-5.313-4.64-2.168-1.07-4.683-1.61-7.547-1.61-3.687 0-7.382 1.313-11.078 3.938-3.699 2.617-7.57 6.453-11.61 11.516v56.203c0 .48-.12.886-.358 1.218-.243.325-.633.606-1.172.844-.532.227-1.278.399-2.235.516C23.707.469 22.488.53 21 .53c-1.43 0-2.621-.062-3.578-.187-.95-.117-1.711-.29-2.281-.516-.563-.238-.95-.52-1.157-.844-.21-.332-.312-.738-.312-1.218v-80.422c0-.477.086-.88.265-1.203.176-.332.532-.63 1.063-.891.54-.27 1.227-.445 2.063-.531.832-.094 1.937-.14 3.312-.14 1.313 0 2.398.046 3.266.14.863.086 1.53.261 2 .531.476.262.82.559 1.03.89.208.325.313.727.313 1.204v10.64c4.532-5.062 9.04-8.77 13.532-11.125 4.5-2.351 9.047-3.53 13.64-3.53 5.352 0 9.864.913 13.532 2.734 3.664 1.812 6.628 4.242 8.89 7.28 2.258 3.032 3.879 6.59 4.86 10.673.988 4.074 1.484 8.968 1.484 14.687zm0 0"/></symbol></defs><use xlink:href="#9694c2b1a" x="76.99385" y="169"/></svg>