<?xml version='1.0' encoding='UTF-8'?>
<svg xmlns="http://www.w3.org/2000/svg" xmlns:xlink="http://www.w3.org/1999/xlink" width="250px" height="250px" viewBox="0 0 250 250" y="0px" x="0px" enable-background="new 0 0 250 250"><defs><symbol overflow="visible" id="01f3365aa"><path d="M80.86-78.984c0 2.086-.282 3.59-.844 4.515-.563.918-1.293 1.375-2.188 1.375H66.297c2.082 2.149 3.539 4.516 4.375 7.11a25.87 25.87 0 0 1 1.266 8.078c0 4.648-.747 8.761-2.235 12.343-1.492 3.575-3.621 6.594-6.39 9.063-2.774 2.469-6.063 4.36-9.876 5.672-3.812 1.312-8.042 1.969-12.687 1.969-3.281 0-6.398-.43-9.344-1.297-2.949-.864-5.226-1.953-6.828-3.266a14.02 14.02 0 0 0-2.64 3.672c-.688 1.367-1.032 2.945-1.032 4.734 0 2.086.969 3.813 2.907 5.188 1.937 1.367 4.515 2.105 7.734 2.219l21 .906c3.988.117 7.648.668 10.984 1.656 3.332.98 6.219 2.383 8.657 4.203 2.445 1.813 4.351 4.047 5.718 6.703 1.375 2.649 2.063 5.723 2.063 9.235 0 3.695-.778 7.21-2.328 10.547-1.543 3.332-3.907 6.265-7.094 8.796-3.188 2.532-7.258 4.524-12.203 5.985-4.938 1.457-10.778 2.187-17.516 2.187-6.492 0-12.016-.554-16.578-1.656-4.555-1.094-8.29-2.594-11.203-4.5-2.918-1.906-5.031-4.187-6.344-6.844-1.312-2.648-1.969-5.523-1.969-8.625 0-1.96.239-3.867.72-5.718A20.384 20.384 0 0 1 7.64 0c.976-1.664 2.195-3.258 3.656-4.781 1.469-1.52 3.156-3.024 5.062-4.516-2.93-1.488-5.09-3.363-6.484-5.625-1.398-2.258-2.094-4.703-2.094-7.328 0-3.633.739-6.879 2.219-9.734a32.11 32.11 0 0 1 5.547-7.688 26.365 26.365 0 0 1-4.375-7.469c-1.074-2.77-1.61-6.117-1.61-10.047 0-4.582.77-8.69 2.313-12.328 1.55-3.632 3.695-6.703 6.438-9.203 2.738-2.5 6.03-4.422 9.875-5.765 3.843-1.344 8.03-2.016 12.562-2.016 2.438 0 4.71.137 6.828.406 2.113.274 4.098.64 5.953 1.11h24.297c1.008 0 1.766.496 2.266 1.484.508.98.765 2.484.765 4.516zM57.812-57.813c0-5.476-1.508-9.75-4.516-12.812-3.012-3.07-7.281-4.61-12.813-4.61-2.867 0-5.355.481-7.468 1.438-2.118.95-3.875 2.258-5.282 3.922-1.398 1.668-2.437 3.59-3.125 5.766-.68 2.18-1.015 4.453-1.015 6.828 0 5.304 1.5 9.476 4.5 12.515 3.008 3.043 7.226 4.563 12.656 4.563 2.914 0 5.445-.461 7.594-1.39 2.144-.927 3.914-2.208 5.312-3.844 1.407-1.633 2.446-3.524 3.125-5.672a21.822 21.822 0 0 0 1.032-6.703zm7.421 63.704c0-3.45-1.418-6.11-4.25-7.985-2.836-1.883-6.664-2.883-11.484-3l-20.813-.718c-1.906 1.492-3.476 2.906-4.703 4.25-1.218 1.343-2.187 2.625-2.906 3.843-.71 1.219-1.2 2.422-1.469 3.61a17.134 17.134 0 0 0-.39 3.671c0 3.876 1.96 6.805 5.89 8.797 3.926 2 9.407 3 16.438 3 4.469 0 8.207-.433 11.219-1.297 3.007-.867 5.437-2.015 7.28-3.453 1.845-1.43 3.165-3.062 3.97-4.906a14.259 14.259 0 0 0 1.218-5.812zm0 0"/></symbol></defs><use xlink:href="#01f3365aa" x="81.99077" y="169"/></svg>