<?xml version='1.0' encoding='UTF-8'?>
<svg xmlns="http://www.w3.org/2000/svg" xmlns:xlink="http://www.w3.org/1999/xlink" width="250px" height="250px" viewBox="0 0 250 250" y="0px" x="0px" enable-background="new 0 0 250 250"><defs><symbol overflow="visible" id="8748de37a"><path d="M82.922-2.234c0 .48-.121.886-.36 1.218-.242.325-.632.606-1.171.844-.532.227-1.278.399-2.235.516-.949.125-2.136.187-3.562.187-1.492 0-2.715-.062-3.672-.187-.95-.117-1.695-.29-2.234-.516-.532-.238-.918-.52-1.157-.844-.242-.332-.36-.738-.36-1.218v-47.094c0-4.582-.359-8.274-1.077-11.078-.711-2.801-1.75-5.211-3.125-7.235-1.367-2.03-3.137-3.578-5.313-4.64-2.168-1.07-4.683-1.61-7.547-1.61-3.687 0-7.382 1.313-11.078 3.938-3.699 2.617-7.57 6.453-11.61 11.516v56.203c0 .48-.12.886-.358 1.218-.243.325-.633.606-1.172.844-.532.227-1.278.399-2.235.516C23.707.469 22.488.53 21 .53c-1.43 0-2.621-.062-3.578-.187-.95-.117-1.711-.29-2.281-.516-.563-.238-.95-.52-1.157-.844-.21-.332-.312-.738-.312-1.218V-121.61c0-.477.101-.895.312-1.25.207-.364.594-.66 1.157-.891.57-.238 1.332-.414 2.28-.531.958-.125 2.15-.188 3.579-.188 1.488 0 2.707.063 3.656.188.957.117 1.703.293 2.235.531.539.23.93.527 1.172.89.238.356.359.774.359 1.25v48.157c4.226-4.469 8.484-7.785 12.765-9.953 4.29-2.176 8.614-3.266 12.97-3.266 5.35 0 9.863.914 13.53 2.734 3.665 1.813 6.63 4.243 8.891 7.282 2.258 3.031 3.879 6.59 4.86 10.672.988 4.074 1.484 9 1.484 14.78zm0 0"/></symbol></defs><use xlink:href="#8748de37a" x="76.99385" y="169"/></svg>