<?xml version='1.0' encoding='UTF-8'?>
<svg xmlns="http://www.w3.org/2000/svg" xmlns:xlink="http://www.w3.org/1999/xlink" width="250px" height="250px" viewBox="0 0 250 250" y="0px" x="0px" enable-background="new 0 0 250 250"><defs><symbol overflow="visible" id="b1ff5deda"><path d="M50.313 0L39.578 29.578c-.355.945-1.262 1.676-2.719 2.188-1.46.507-3.68.765-6.656.765-1.555 0-2.808-.078-3.765-.234-.95-.149-1.68-.402-2.188-.766-.5-.355-.781-.828-.844-1.422-.054-.593.098-1.308.453-2.14L34.937 0c-.53-.238-1.039-.625-1.515-1.156-.48-.54-.809-1.11-.984-1.703L3.75-79.703c-.48-1.25-.719-2.227-.719-2.938 0-.718.239-1.285.719-1.703.477-.426 1.254-.71 2.328-.86 1.07-.144 2.5-.218 4.281-.218 1.79 0 3.192.047 4.204.14 1.007.087 1.812.247 2.406.485.601.242 1.035.586 1.297 1.031.27.45.554 1.059.859 1.829l22.969 64.515h.265l22.157-64.875c.351-1.133.78-1.863 1.28-2.187.509-.332 1.27-.57 2.282-.72 1.02-.144 2.484-.218 4.39-.218 1.665 0 3.036.074 4.11.219 1.07.148 1.86.433 2.36.86.507.417.765.984.765 1.702 0 .711-.18 1.602-.531 2.672zm0 0"/></symbol></defs><use xlink:href="#b1ff5deda" x="83.64154" y="169"/></svg>