<?xml version='1.0' encoding='UTF-8'?>
<svg xmlns="http://www.w3.org/2000/svg" xmlns:xlink="http://www.w3.org/1999/xlink" width="250px" height="250px" viewBox="0 0 250 250" y="0px" x="0px" enable-background="new 0 0 250 250"><defs><symbol overflow="visible" id="e3c20bbea"><path d="M87.656-43.516c0 6.97-.761 13.243-2.281 18.813-1.523 5.562-3.758 10.312-6.703 14.25-2.95 3.93-6.57 6.937-10.86 9.031-4.28 2.082-9.195 3.125-14.734 3.125-2.562 0-4.933-.258-7.11-.766-2.167-.511-4.296-1.328-6.39-2.453-2.086-1.132-4.168-2.566-6.25-4.296-2.086-1.727-4.289-3.813-6.61-6.25v9.828c0 .48-.12.898-.359 1.25-.242.355-.632.636-1.172.843-.53.207-1.199.368-2 .485-.804.125-1.828.187-3.078.187-1.199 0-2.214-.062-3.047-.187C16.227.227 15.54.066 15-.141c-.531-.207-.887-.488-1.063-.843-.18-.352-.265-.77-.265-1.25V-121.61c0-.477.101-.895.312-1.25.207-.364.594-.66 1.157-.891.57-.238 1.332-.414 2.28-.531.958-.125 2.15-.188 3.579-.188 1.488 0 2.707.063 3.656.188.957.117 1.703.293 2.235.531.539.23.93.527 1.172.89.238.356.359.774.359 1.25v48.157c2.375-2.438 4.676-4.488 6.906-6.156 2.238-1.676 4.43-3.036 6.578-4.079 2.145-1.039 4.29-1.796 6.438-2.265 2.144-.477 4.406-.719 6.781-.719 5.844 0 10.832 1.164 14.969 3.484 4.144 2.325 7.508 5.438 10.094 9.344 2.593 3.899 4.484 8.469 5.671 13.719 1.196 5.242 1.797 10.777 1.797 16.61zM72.11-41.813c0-4.113-.312-8.101-.937-11.968-.625-3.875-1.715-7.301-3.266-10.282-1.543-2.976-3.594-5.374-6.156-7.187-2.563-1.82-5.75-2.734-9.563-2.734-1.906 0-3.789.273-5.64.812-1.844.531-3.719 1.422-5.625 2.672-1.906 1.25-3.887 2.86-5.938 4.828-2.054 1.961-4.242 4.43-6.562 7.406v32.078c4.039 4.95 7.91 8.72 11.61 11.313 3.695 2.594 7.538 3.89 11.53 3.89 3.688 0 6.844-.894 9.47-2.687 2.624-1.789 4.753-4.16 6.39-7.11 1.633-2.945 2.82-6.25 3.562-9.905a55.355 55.355 0 0 0 1.125-11.125zm0 0"/></symbol></defs><use xlink:href="#e3c20bbea" x="76.99385" y="169"/></svg>