<?xml version='1.0' encoding='UTF-8'?>
<svg xmlns="http://www.w3.org/2000/svg" xmlns:xlink="http://www.w3.org/1999/xlink" width="250px" height="250px" viewBox="0 0 250 250" y="0px" x="0px" enable-background="new 0 0 250 250"><defs><symbol overflow="visible" id="fdc64ccea"><path d="M28.422-2.234c0 .48-.121.886-.36 1.218-.242.325-.632.606-1.171.844-.532.227-1.278.399-2.235.516C23.707.469 22.488.53 21 .53c-1.43 0-2.621-.062-3.578-.187-.95-.117-1.711-.29-2.281-.516-.563-.238-.95-.52-1.157-.844-.21-.332-.312-.738-.312-1.218V-121.61c0-.477.101-.895.312-1.25.207-.364.594-.66 1.157-.891.57-.238 1.332-.414 2.28-.531.958-.125 2.15-.188 3.579-.188 1.488 0 2.707.063 3.656.188.957.117 1.703.293 2.235.531.539.23.93.527 1.172.89.238.356.359.774.359 1.25zm0 0"/></symbol></defs><use xlink:href="#fdc64ccea" x="104.0308" y="169"/></svg>