<?xml version='1.0' encoding='UTF-8'?>
<svg xmlns="http://www.w3.org/2000/svg" xmlns:xlink="http://www.w3.org/1999/xlink" width="250px" height="250px" viewBox="0 0 250 250" y="0px" x="0px" enable-background="new 0 0 250 250"><defs><symbol overflow="visible" id="8449b2bca"><path d="M82.297-45.922c0 2.324-.586 3.977-1.75 4.953-1.156.98-2.48 1.469-3.969 1.469H23.86c0 4.469.442 8.492 1.328 12.063.895 3.574 2.383 6.64 4.47 9.203 2.093 2.562 4.804 4.53 8.14 5.906 3.332 1.367 7.414 2.047 12.25 2.047 3.812 0 7.203-.313 10.172-.938 2.976-.625 5.554-1.32 7.734-2.094 2.176-.769 3.961-1.468 5.36-2.093 1.406-.633 2.46-.953 3.171-.953.414 0 .786.105 1.11.312.332.211.586.527.765.953.188.418.32 1 .407 1.75.093.742.14 1.64.14 2.703 0 .782-.031 1.454-.094 2.016a16.03 16.03 0 0 1-.234 1.516c-.086.449-.23.855-.437 1.218-.211.356-.48.7-.813 1.032-.324.324-1.293.859-2.906 1.609-1.606.742-3.688 1.469-6.25 2.188-2.555.71-5.516 1.343-8.89 1.906-3.368.57-6.954.86-10.766.86-6.606 0-12.399-.923-17.375-2.766-4.98-1.852-9.168-4.598-12.563-8.235-3.387-3.633-5.945-8.191-7.672-13.672-1.73-5.476-2.594-11.851-2.594-19.125 0-6.906.891-13.113 2.672-18.625 1.79-5.508 4.368-10.187 7.735-14.031 3.363-3.844 7.426-6.79 12.187-8.844 4.77-2.05 10.102-3.078 16-3.078 6.32 0 11.703 1.016 16.14 3.047 4.438 2.023 8.083 4.746 10.938 8.172 2.864 3.418 4.961 7.437 6.297 12.062 1.344 4.618 2.016 9.543 2.016 14.782zm-14.828-4.39c.176-7.739-1.54-13.813-5.14-18.22-3.606-4.406-8.954-6.609-16.048-6.609-3.636 0-6.824.688-9.562 2.063-2.742 1.367-5.032 3.18-6.875 5.437-1.844 2.262-3.278 4.899-4.297 7.907a33.017 33.017 0 0 0-1.688 9.422zm0 0"/></symbol></defs><use xlink:href="#8449b2bca" x="79.53692" y="169"/></svg>