<?xml version='1.0' encoding='UTF-8'?>
<svg xmlns="http://www.w3.org/2000/svg" xmlns:xlink="http://www.w3.org/1999/xlink" width="250px" height="250px" viewBox="0 0 250 250" y="0px" x="0px" enable-background="new 0 0 250 250"><defs><symbol overflow="visible" id="4f43d859a"><path d="M74.25-2.14c0 .71-.242 1.245-.719 1.609-.469.355-1.12.617-1.953.797-.836.175-2.058.265-3.672.265-1.543 0-2.777-.09-3.703-.265-.93-.18-1.601-.442-2.016-.797-.417-.364-.624-.899-.624-1.61v-8.046c-3.512 3.75-7.43 6.671-11.75 8.765C45.5.66 40.925 1.703 36.093 1.703c-4.23 0-8.058-.555-11.484-1.656-3.418-1.102-6.336-2.695-8.75-4.781-2.418-2.082-4.296-4.645-5.64-7.688-1.336-3.039-2-6.492-2-10.36 0-4.53.922-8.46 2.765-11.796 1.852-3.332 4.504-6.102 7.954-8.313 3.457-2.207 7.687-3.859 12.687-4.953 5.008-1.101 10.64-1.656 16.89-1.656h11.079v-6.266c0-3.093-.328-5.828-.985-8.203-.648-2.383-1.703-4.363-3.172-5.937-1.46-1.582-3.351-2.774-5.671-3.578-2.325-.813-5.184-1.22-8.578-1.22-3.626 0-6.887.434-9.782 1.298-2.886.867-5.418 1.82-7.593 2.86-2.18 1.042-3.997 1.995-5.454 2.859-1.46.867-2.547 1.296-3.265 1.296-.469 0-.887-.117-1.25-.359-.356-.238-.668-.594-.938-1.063-.261-.476-.453-1.085-.578-1.828-.117-.75-.172-1.57-.172-2.468 0-1.489.102-2.664.313-3.532.207-.863.71-1.68 1.515-2.453.801-.781 2.188-1.691 4.157-2.734 1.968-1.04 4.226-1.992 6.78-2.86 2.563-.863 5.364-1.578 8.407-2.14 3.04-.563 6.11-.844 9.203-.844 5.782 0 10.696.656 14.75 1.969 4.051 1.305 7.328 3.226 9.828 5.766 2.5 2.53 4.313 5.671 5.438 9.421 1.133 3.75 1.703 8.125 1.703 13.125zM59.594-38.876H47c-4.055 0-7.57.344-10.547 1.031-2.98.688-5.453 1.703-7.422 3.047-1.96 1.336-3.402 2.938-4.328 4.813-.918 1.875-1.375 4.039-1.375 6.484 0 4.168 1.32 7.492 3.969 9.969 2.656 2.469 6.363 3.703 11.125 3.703 3.875 0 7.46-.985 10.766-2.953 3.312-1.969 6.78-4.973 10.406-9.016zm0 0"/></symbol></defs><use xlink:href="#4f43d859a" x="81.23231" y="169"/></svg>