<?xml version='1.0' encoding='UTF-8'?>
<svg xmlns="http://www.w3.org/2000/svg" xmlns:xlink="http://www.w3.org/1999/xlink" width="250px" height="250px" viewBox="0 0 250 250" y="0px" x="0px" enable-background="new 0 0 250 250"><defs><symbol overflow="visible" id="6b86e859a"><path d="M82.563 29.672c0 .469-.137.879-.407 1.234-.261.364-.664.664-1.203.907-.531.238-1.277.414-2.234.53-.95.126-2.14.188-3.578.188-1.48 0-2.684-.062-3.61-.187-.93-.117-1.687-.293-2.281-.532-.594-.242-.996-.542-1.203-.906-.211-.355-.313-.765-.313-1.234v-41.203c-2.449 2.449-4.777 4.523-6.984 6.219-2.2 1.699-4.371 3.07-6.516 4.109C52.086-.16 49.926.582 47.75 1.03a33.4 33.4 0 0 1-6.734.672c-5.844 0-10.825-1.148-14.938-3.437-4.105-2.301-7.453-5.399-10.047-9.297-2.586-3.906-4.476-8.492-5.672-13.766-1.187-5.27-1.78-10.828-1.78-16.672 0-6.906.741-13.14 2.233-18.703 1.489-5.57 3.708-10.32 6.657-14.25 2.945-3.937 6.578-6.96 10.89-9.078 4.32-2.113 9.317-3.172 14.985-3.172 2.375 0 4.601.258 6.687.766 2.094.5 4.164 1.304 6.219 2.406 2.05 1.105 4.133 2.54 6.25 4.297 2.113 1.75 4.422 3.844 6.922 6.281v-9.734c0-.531.117-.957.36-1.281.238-.333.624-.618 1.156-.86.539-.238 1.226-.398 2.062-.484.832-.094 1.875-.14 3.125-.14 1.195 0 2.21.046 3.047.14.832.086 1.5.246 2 .484.508.242.867.527 1.078.86.207.324.313.75.313 1.28zM67.733-58.797c-3.992-4.945-7.851-8.71-11.578-11.297-3.718-2.594-7.605-3.89-11.656-3.89-3.75 0-6.938.898-9.563 2.687-2.624 1.781-4.757 4.133-6.39 7.047-1.637 2.918-2.828 6.227-3.578 9.922a57.115 57.115 0 0 0-1.11 11.266c0 4.105.313 8.093.938 11.968s1.707 7.305 3.25 10.282c1.55 2.968 3.61 5.367 6.172 7.187 2.562 1.813 5.781 2.719 9.656 2.719 1.969 0 3.86-.266 5.672-.797 1.812-.54 3.672-1.438 5.578-2.688 1.906-1.25 3.898-2.867 5.984-4.859 2.094-2 4.301-4.457 6.625-7.375zm0 0"/></symbol></defs><use xlink:href="#6b86e859a" x="76.99385" y="169"/></svg>