<?xml version='1.0' encoding='UTF-8'?>
<svg xmlns="http://www.w3.org/2000/svg" xmlns:xlink="http://www.w3.org/1999/xlink" width="250px" height="250px" viewBox="0 0 250 250" y="0px" x="0px" enable-background="new 0 0 250 250"><defs><symbol overflow="visible" id="f162c403a"><path d="M88.469-43.344c0 6.555-.867 12.586-2.594 18.094-1.73 5.512-4.309 10.266-7.734 14.266-3.43 3.992-7.72 7.105-12.875 9.343C60.117.586 54.148 1.703 47.359 1.703c-6.617 0-12.382-.984-17.297-2.953-4.906-1.969-9-4.828-12.28-8.578-3.274-3.75-5.716-8.305-7.329-13.672-1.605-5.363-2.406-11.441-2.406-18.234 0-6.551.848-12.582 2.547-18.094 1.695-5.508 4.254-10.258 7.672-14.25 3.425-3.988 7.703-7.082 12.828-9.281 5.125-2.207 11.113-3.313 17.968-3.313 6.602 0 12.364.984 17.282 2.953 4.914 1.961 9.008 4.82 12.281 8.578 3.281 3.75 5.738 8.309 7.375 13.672 1.645 5.356 2.469 11.399 2.469 18.125zm-15.547.985c0-4.344-.406-8.453-1.219-12.328-.805-3.876-2.125-7.27-3.969-10.188-1.843-2.914-4.351-5.223-7.515-6.922-3.157-1.695-7.086-2.547-11.782-2.547-4.355 0-8.093.778-11.218 2.328a20.604 20.604 0 0 0-7.735 6.563c-2.023 2.836-3.527 6.187-4.515 10.062-.98 3.868-1.469 8.09-1.469 12.672 0 4.418.398 8.563 1.203 12.438.8 3.867 2.14 7.246 4.016 10.14 1.883 2.887 4.406 5.18 7.562 6.875 3.157 1.7 7.086 2.547 11.797 2.547 4.281 0 8-.773 11.156-2.328 3.164-1.55 5.758-3.723 7.782-6.515 2.03-2.801 3.52-6.141 4.468-10.016.957-3.875 1.438-8.133 1.438-12.781zm0 0"/></symbol></defs><use xlink:href="#f162c403a" x="76.81538" y="169"/></svg>