<?xml version='1.0' encoding='UTF-8'?>
<svg xmlns="http://www.w3.org/2000/svg" xmlns:xlink="http://www.w3.org/1999/xlink" width="250px" height="250px" viewBox="0 0 250 250" y="0px" x="0px" enable-background="new 0 0 250 250"><defs><symbol overflow="visible" id="a4e5fdaea"><path d="M28.422-2.234c0 .48-.121.886-.36 1.218-.242.325-.632.606-1.171.844-.532.227-1.278.399-2.235.516C23.707.469 22.488.53 21 .53c-1.43 0-2.621-.062-3.578-.187-.95-.117-1.711-.29-2.281-.516-.563-.238-.95-.52-1.157-.844-.21-.332-.312-.738-.312-1.218v-80.422c0-.414.101-.801.312-1.156.207-.364.594-.66 1.157-.891.57-.238 1.332-.414 2.28-.531.958-.125 2.15-.188 3.579-.188 1.488 0 2.707.063 3.656.188.957.117 1.703.293 2.235.53.539.231.93.528 1.172.891.238.356.359.743.359 1.157zm1.687-107.579c0 3.45-.656 5.805-1.968 7.063-1.305 1.25-3.715 1.875-7.235 1.875-3.449 0-5.812-.61-7.093-1.828-1.282-1.227-1.922-3.54-1.922-6.938 0-3.457.648-5.812 1.953-7.062 1.312-1.25 3.726-1.875 7.25-1.875 3.445 0 5.812.617 7.093 1.844 1.282 1.218 1.922 3.527 1.922 6.921zm0 0"/></symbol></defs><use xlink:href="#a4e5fdaea" x="104.0308" y="169"/></svg>