<?xml version='1.0' encoding='UTF-8'?>
<svg xmlns="http://www.w3.org/2000/svg" xmlns:xlink="http://www.w3.org/1999/xlink" width="250px" height="250px" viewBox="0 0 250 250" y="0px" x="0px" enable-background="new 0 0 250 250"><defs><symbol overflow="visible" id="655cf9dda"><path d="M82.563-2.234c0 .48-.106.898-.313 1.25-.21.355-.57.636-1.078.843-.5.207-1.168.368-2 .485-.836.125-1.852.187-3.047.187-1.25 0-2.293-.062-3.125-.187-.836-.117-1.523-.278-2.063-.485-.53-.207-.917-.488-1.156-.843-.242-.352-.36-.77-.36-1.25v-10.641c-4.23 4.594-8.624 8.172-13.187 10.734C51.68.422 46.695 1.703 41.281 1.703c-5.898 0-10.933-1.148-15.11-3.437-4.167-2.301-7.546-5.399-10.14-9.297-2.586-3.906-4.476-8.492-5.672-13.766-1.187-5.27-1.78-10.828-1.78-16.672 0-6.906.741-13.14 2.233-18.703 1.489-5.57 3.692-10.32 6.61-14.25 2.914-3.937 6.535-6.96 10.86-9.078 4.32-2.113 9.312-3.172 14.968-3.172 4.707 0 9.008 1.027 12.906 3.078 3.907 2.055 7.766 5.078 11.578 9.078v-46.734c0-.414.102-.816.313-1.203.207-.395.61-.695 1.203-.906.594-.207 1.352-.383 2.281-.532.926-.144 2.102-.218 3.531-.218 1.489 0 2.708.074 3.657.218.957.149 1.703.325 2.234.532.54.21.942.511 1.203.906.27.387.406.789.406 1.203zM67.733-58.797c-3.992-4.945-7.851-8.71-11.578-11.297-3.718-2.594-7.605-3.89-11.656-3.89-3.75 0-6.938.898-9.563 2.687-2.624 1.781-4.757 4.133-6.39 7.047-1.637 2.918-2.828 6.227-3.578 9.922a57.115 57.115 0 0 0-1.11 11.266c0 4.042.313 8 .938 11.874.625 3.875 1.707 7.32 3.25 10.329 1.55 3 3.61 5.414 6.172 7.234 2.562 1.813 5.781 2.719 9.656 2.719 1.969 0 3.86-.266 5.672-.797 1.812-.54 3.672-1.438 5.578-2.688 1.906-1.25 3.898-2.867 5.984-4.859 2.094-2 4.301-4.457 6.625-7.375zm0 0"/></symbol></defs><use xlink:href="#655cf9dda" x="76.99385" y="169"/></svg>