<?xml version='1.0' encoding='UTF-8'?>
<svg xmlns="http://www.w3.org/2000/svg" xmlns:xlink="http://www.w3.org/1999/xlink" width="250px" height="250px" viewBox="0 0 250 250" y="0px" x="0px" enable-background="new 0 0 250 250"><defs><symbol overflow="visible" id="c065ce8ca"><path d="M64.156-24.125c0 4.117-.761 7.781-2.281 11A22.477 22.477 0 0 1 55.391-5c-2.793 2.2-6.125 3.867-10 5s-8.137 1.703-12.782 1.703c-2.855 0-5.578-.226-8.172-.672C21.845.582 19.52.016 17.47-.672c-2.055-.687-3.797-1.398-5.235-2.14-1.43-.75-2.468-1.422-3.125-2.016-.656-.594-1.136-1.426-1.437-2.5-.293-1.07-.438-2.531-.438-4.375 0-1.133.055-2.086.172-2.86.125-.78.274-1.406.453-1.874.176-.477.426-.82.75-1.032a2.084 2.084 0 0 1 1.125-.312c.657 0 1.625.402 2.907 1.203 1.28.805 2.859 1.683 4.734 2.64 1.875.95 4.094 1.829 6.656 2.641 2.563.805 5.516 1.203 8.86 1.203 2.5 0 4.757-.265 6.78-.797 2.032-.539 3.79-1.332 5.282-2.375a10.52 10.52 0 0 0 3.438-3.968c.8-1.614 1.203-3.524 1.203-5.735 0-2.258-.586-4.16-1.75-5.703-1.157-1.55-2.688-2.922-4.594-4.11-1.906-1.195-4.055-2.253-6.438-3.171a776.59 776.59 0 0 1-7.374-2.906 77.954 77.954 0 0 1-7.422-3.453A28.545 28.545 0 0 1 15.546-47c-1.905-1.844-3.444-4.047-4.608-6.61-1.157-2.562-1.735-5.628-1.735-9.203 0-3.156.61-6.175 1.828-9.062 1.227-2.895 3.063-5.43 5.5-7.61 2.438-2.175 5.489-3.913 9.157-5.218 3.664-1.313 7.94-1.969 12.828-1.969 2.144 0 4.285.18 6.422.531 2.144.356 4.082.805 5.812 1.344 1.727.531 3.203 1.11 4.422 1.734 1.226.626 2.156 1.18 2.781 1.657.625.48 1.04.902 1.25 1.265.207.356.352.758.438 1.204.093.437.18.984.265 1.64.094.656.14 1.465.14 2.422 0 1.012-.046 1.89-.14 2.64-.086.743-.23 1.352-.437 1.829-.211.469-.465.808-.766 1.015a1.64 1.64 0 0 1-.984.313c-.532 0-1.309-.32-2.328-.969-1.012-.656-2.32-1.351-3.922-2.094-1.606-.75-3.496-1.453-5.672-2.109-2.18-.656-4.668-.984-7.469-.984-2.5 0-4.703.28-6.61.843-1.905.563-3.468 1.371-4.687 2.422a10.235 10.235 0 0 0-2.765 3.703c-.625 1.43-.938 2.977-.938 4.641 0 2.324.594 4.277 1.781 5.86 1.188 1.574 2.735 2.96 4.641 4.156 1.906 1.187 4.078 2.261 6.516 3.218 2.445.95 4.937 1.934 7.468 2.953a93.024 93.024 0 0 1 7.5 3.391c2.477 1.25 4.672 2.774 6.578 4.563 1.907 1.78 3.438 3.922 4.594 6.422 1.164 2.5 1.75 5.48 1.75 8.937zm0 0"/></symbol></defs><use xlink:href="#c065ce8ca" x="89.26308" y="169"/></svg>