<?xml version='1.0' encoding='UTF-8'?>
<svg xmlns="http://www.w3.org/2000/svg" xmlns:xlink="http://www.w3.org/1999/xlink" width="250px" height="250px" viewBox="0 0 250 250" y="0px" x="0px" enable-background="new 0 0 250 250"><defs><symbol overflow="visible" id="c508e3eaa"><path d="M87.656-43.688c0 7.024-.761 13.336-2.281 18.938-1.523 5.594-3.758 10.344-6.703 14.25-2.95 3.906-6.602 6.918-10.953 9.031-4.344 2.114-9.313 3.172-14.906 3.172-2.387 0-4.594-.242-6.626-.719-2.023-.48-4-1.222-5.937-2.234-1.938-1.008-3.86-2.29-5.766-3.844-1.906-1.55-3.93-3.367-6.062-5.453v40.219c0 .469-.121.879-.36 1.234-.242.364-.632.664-1.171.907-.532.238-1.278.414-2.235.53-.949.126-2.168.188-3.656.188-1.43 0-2.621-.062-3.578-.187-.95-.117-1.711-.293-2.281-.532-.563-.242-.95-.542-1.157-.906-.21-.355-.312-.765-.312-1.234V-82.656c0-.531.086-.957.265-1.281.176-.333.532-.618 1.063-.86.54-.238 1.227-.398 2.063-.484.832-.094 1.847-.14 3.046-.14 1.25 0 2.274.046 3.078.14.801.086 1.47.246 2 .484.54.242.915.527 1.125.86.208.324.313.75.313 1.28v10.813c2.445-2.5 4.8-4.672 7.063-6.515 2.257-1.852 4.535-3.391 6.828-4.61a32.535 32.535 0 0 1 7.062-2.765c2.414-.625 4.961-.938 7.64-.938 5.844 0 10.817 1.133 14.923 3.39 4.113 2.262 7.46 5.36 10.046 9.298 2.594 3.93 4.485 8.5 5.672 13.718 1.196 5.211 1.797 10.735 1.797 16.578zM72.11-42c0-4.102-.312-8.078-.937-11.922-.625-3.844-1.7-7.254-3.219-10.234-1.523-2.977-3.562-5.36-6.125-7.14-2.562-1.79-5.75-2.688-9.562-2.688-1.907 0-3.782.289-5.625.859-1.844.563-3.72 1.453-5.625 2.672-1.907 1.219-3.903 2.828-5.985 4.828-2.086 1.992-4.289 4.445-6.61 7.36v32c4.04 4.937 7.88 8.718 11.517 11.343 3.632 2.625 7.445 3.938 11.437 3.938 3.695 0 6.867-.895 9.516-2.688 2.656-1.789 4.8-4.172 6.437-7.14 1.633-2.977 2.836-6.317 3.61-10.016A53.886 53.886 0 0 0 72.109-42zm0 0"/></symbol></defs><use xlink:href="#c508e3eaa" x="76.99385" y="169"/></svg>