<?xml version='1.0' encoding='UTF-8'?>
<svg xmlns="http://www.w3.org/2000/svg" xmlns:xlink="http://www.w3.org/1999/xlink" width="250px" height="250px" viewBox="0 0 250 250" y="0px" x="0px" enable-background="new 0 0 250 250"><defs><symbol overflow="visible" id="ca874286a"><path d="M71.484-14.469c0 1.012-.03 1.89-.093 2.64-.055.743-.157 1.368-.313 1.876-.148.5-.324.945-.531 1.328-.211.387-.688.953-1.438 1.703-.742.742-2.007 1.664-3.796 2.766-1.782 1.105-3.793 2.09-6.032 2.953C57.051-.336 54.625.359 52 .89c-2.617.539-5.324.812-8.125.812-5.781 0-10.906-.953-15.375-2.86-4.469-1.905-8.21-4.69-11.219-8.359-3-3.664-5.293-8.16-6.875-13.484-1.574-5.332-2.36-11.488-2.36-18.469 0-7.914.962-14.718 2.892-20.406 1.937-5.688 4.585-10.348 7.953-13.984 3.375-3.633 7.336-6.329 11.89-8.079 4.563-1.757 9.492-2.64 14.797-2.64 2.55 0 5.035.242 7.453.719 2.414.468 4.633 1.093 6.657 1.875 2.03.773 3.832 1.664 5.406 2.671 1.582 1.012 2.726 1.876 3.437 2.594.719.711 1.207 1.274 1.469 1.688.27.418.492.914.672 1.484.187.563.305 1.203.36 1.922.062.71.093 1.602.093 2.672 0 2.324-.273 3.95-.813 4.875-.53.93-1.183 1.39-1.953 1.39-.898 0-1.93-.488-3.093-1.468-1.157-.989-2.633-2.078-4.422-3.266-1.782-1.195-3.938-2.285-6.469-3.266-2.531-.988-5.527-1.484-8.984-1.484-7.086 0-12.524 2.73-16.313 8.188-3.781 5.449-5.672 13.355-5.672 23.718 0 5.188.489 9.735 1.469 13.641.988 3.898 2.438 7.156 4.344 9.781 1.906 2.617 4.242 4.563 7.015 5.844 2.77 1.281 5.942 1.922 9.516 1.922 3.395 0 6.375-.535 8.938-1.61 2.562-1.07 4.78-2.25 6.656-3.53 1.875-1.282 3.453-2.442 4.734-3.485 1.281-1.04 2.281-1.563 3-1.563.414 0 .77.121 1.063.36.3.242.554.64.765 1.203.207.562.352 1.277.438 2.14.094.868.14 1.899.14 3.094zm0 0"/></symbol></defs><use xlink:href="#ca874286a" x="86.36308" y="169"/></svg>