<?xml version='1.0' encoding='UTF-8'?>
<svg xmlns="http://www.w3.org/2000/svg" xmlns:xlink="http://www.w3.org/1999/xlink" width="250px" height="250px" viewBox="0 0 250 250" y="0px" x="0px" enable-background="new 0 0 250 250"><defs><symbol overflow="visible" id="98ae86bba"><path d="M132.969-2.234c0 .48-.121.886-.36 1.218-.242.325-.632.606-1.172.844-.53.227-1.277.399-2.234.516-.95.125-2.137.187-3.562.187-1.493 0-2.715-.062-3.672-.187-.95-.117-1.711-.29-2.281-.516-.563-.238-.965-.52-1.204-.844-.242-.332-.359-.738-.359-1.218V-51.11c0-3.395-.297-6.493-.89-9.297-.594-2.801-1.547-5.211-2.86-7.235-1.313-2.03-2.984-3.578-5.016-4.64-2.023-1.07-4.402-1.61-7.14-1.61-3.399 0-6.809 1.313-10.235 3.938-3.418 2.617-7.183 6.453-11.296 11.516v56.203c0 .48-.122.886-.36 1.218-.242.325-.64.606-1.203.844-.563.227-1.324.399-2.281.516-.95.125-2.14.187-3.578.187-1.368 0-2.543-.062-3.532-.187-.98-.117-1.757-.29-2.328-.516-.562-.238-.949-.52-1.156-.844-.21-.332-.313-.738-.313-1.218V-51.11c0-3.395-.328-6.493-.984-9.297-.648-2.801-1.625-5.211-2.937-7.235-1.313-2.03-2.97-3.578-4.97-4.64-1.991-1.07-4.355-1.61-7.093-1.61-3.398 0-6.824 1.313-10.281 3.938-3.461 2.617-7.211 6.453-11.25 11.516v56.203c0 .48-.121.886-.36 1.218-.242.325-.632.606-1.171.844-.532.227-1.278.399-2.235.516C23.707.469 22.488.53 21 .53c-1.43 0-2.621-.062-3.578-.187-.95-.117-1.711-.29-2.281-.516-.563-.238-.95-.52-1.157-.844-.21-.332-.312-.738-.312-1.218v-80.422c0-.477.086-.88.265-1.203.176-.332.532-.63 1.063-.891.54-.27 1.227-.445 2.063-.531.832-.094 1.937-.14 3.312-.14 1.313 0 2.398.046 3.266.14.863.086 1.53.261 2 .531.476.262.82.559 1.03.89.208.325.313.727.313 1.204v10.64c4.532-5.062 8.922-8.77 13.172-11.125 4.258-2.351 8.567-3.53 12.922-3.53 3.332 0 6.32.386 8.969 1.155 2.656.774 4.992 1.86 7.016 3.266a21.63 21.63 0 0 1 5.187 5c1.438 1.938 2.629 4.102 3.578 6.484 2.676-2.914 5.223-5.382 7.64-7.406 2.415-2.031 4.739-3.672 6.97-4.922 2.238-1.258 4.414-2.172 6.53-2.734a24.688 24.688 0 0 1 6.376-.844c5.187 0 9.535.914 13.047 2.734 3.52 1.813 6.363 4.243 8.53 7.282 2.177 3.031 3.727 6.59 4.657 10.672.926 4.074 1.39 8.375 1.39 12.906zm0 0"/></symbol></defs><use xlink:href="#98ae86bba" x="52.00923" y="169"/></svg>