<?xml version='1.0' encoding='UTF-8'?>
<svg xmlns="http://www.w3.org/2000/svg" xmlns:xlink="http://www.w3.org/1999/xlink" width="250px" height="250px" viewBox="0 0 250 250" y="0px" x="0px" enable-background="new 0 0 250 250"><defs><symbol overflow="visible" id="36082a6fa"><path d="M82.563-2.234c0 .48-.106.886-.313 1.218-.21.325-.586.606-1.125.844-.531.227-1.23.399-2.094.516-.867.125-1.922.187-3.172.187-1.367 0-2.48-.062-3.343-.187-.868-.117-1.555-.29-2.063-.516-.5-.238-.844-.52-1.031-.844-.18-.332-.266-.738-.266-1.218v-10.641c-4.586 5.074-9.11 8.773-13.578 11.094C51.11.539 46.582 1.703 42 1.703c-5.367 0-9.883-.89-13.547-2.672-3.656-1.789-6.621-4.222-8.89-7.297-2.262-3.07-3.887-6.644-4.875-10.718-.981-4.082-1.47-9.04-1.47-14.875v-48.797c0-.477.102-.88.313-1.203.207-.332.61-.63 1.203-.891.602-.27 1.38-.445 2.329-.531.957-.094 2.148-.14 3.578-.14 1.425 0 2.613.046 3.562.14.957.086 1.719.261 2.281.531.57.262.977.559 1.22.89.237.325.358.727.358 1.204v46.828c0 4.71.336 8.48 1.016 11.312.688 2.825 1.727 5.235 3.125 7.235a14.575 14.575 0 0 0 5.328 4.64c2.145 1.106 4.645 1.657 7.5 1.657 3.696 0 7.375-1.313 11.032-3.938 3.664-2.625 7.554-6.469 11.671-11.531v-56.203c0-.477.102-.88.313-1.203.207-.332.61-.63 1.203-.891.594-.27 1.352-.445 2.281-.531.926-.094 2.13-.14 3.61-.14 1.437 0 2.629.046 3.578.14.957.086 1.703.261 2.234.531.54.262.942.559 1.203.89.27.325.406.727.406 1.204zm0 0"/></symbol></defs><use xlink:href="#36082a6fa" x="76.99385" y="169"/></svg>