<?xml version='1.0' encoding='UTF-8'?>
<svg xmlns="http://www.w3.org/2000/svg" xmlns:xlink="http://www.w3.org/1999/xlink" width="250px" height="250px" viewBox="0 0 250 250" y="0px" x="0px" enable-background="new 0 0 250 250"><defs><symbol overflow="visible" id="34739482a"><path d="M79.703-2.328c0 .48-.121.902-.36 1.265-.241.356-.64.653-1.202.891-.563.227-1.356.399-2.375.516-1.012.125-2.29.187-3.829.187-1.617 0-2.945-.047-3.984-.14-1.043-.086-1.922-.23-2.64-.438-.711-.207-1.29-.504-1.735-.89a6.34 6.34 0 0 1-1.203-1.391l-33.953-44.5v44.594c0 .48-.121.886-.36 1.218-.242.325-.632.606-1.171.844-.532.227-1.278.399-2.235.516C23.707.469 22.488.53 21 .53c-1.43 0-2.621-.062-3.578-.187-.95-.117-1.711-.29-2.281-.516-.563-.238-.95-.52-1.157-.844-.21-.332-.312-.738-.312-1.218V-121.61c0-.477.101-.895.312-1.25.207-.364.594-.66 1.157-.891.57-.238 1.332-.414 2.28-.531.958-.125 2.15-.188 3.579-.188 1.488 0 2.707.063 3.656.188.957.117 1.703.293 2.235.531.539.23.93.527 1.172.89.238.356.359.774.359 1.25v72.735l30.375-33.422a7.976 7.976 0 0 1 1.516-1.469c.539-.394 1.18-.722 1.921-.984.75-.27 1.63-.445 2.641-.531 1.008-.094 2.227-.14 3.656-.14 1.489 0 2.739.046 3.75.14 1.02.086 1.844.23 2.469.437.625.211 1.066.48 1.328.813.27.324.406.75.406 1.281 0 .719-.195 1.438-.578 2.156-.386.711-1.027 1.543-1.922 2.5L44.86-48.969 77.562-6.516c.77 1.012 1.317 1.829 1.641 2.454.332.625.5 1.203.5 1.734zm0 0"/></symbol></defs><use xlink:href="#34739482a" x="83.46308" y="169"/></svg>