<?xml version='1.0' encoding='UTF-8'?>
<svg xmlns="http://www.w3.org/2000/svg" xmlns:xlink="http://www.w3.org/1999/xlink" width="250px" height="250px" viewBox="0 0 250 250" y="0px" x="0px" enable-background="new 0 0 250 250"><defs><symbol overflow="visible" id="43be22fda"><path d="M30.11 1.344c0 5.957-.45 10.765-1.344 14.422-.887 3.664-2.282 6.75-4.188 9.25-1.906 2.5-4.351 4.39-7.328 5.672-2.98 1.28-6.586 1.921-10.813 1.921-1.906 0-3.53-.12-4.875-.359-1.343-.23-2.367-.496-3.078-.797-.718-.305-1.207-.648-1.468-1.031a3.83 3.83 0 0 1-.579-1.344 8.465 8.465 0 0 1-.234-1.562 34.146 34.146 0 0 1-.047-1.953c0-1.075.047-2 .14-2.782.087-.773.231-1.398.438-1.875.211-.48.45-.824.72-1.031.273-.21.616-.313 1.03-.313.356 0 1.055.07 2.094.22 1.04.155 2.25.234 3.625.234 1.969 0 3.649-.297 5.047-.891 1.395-.594 2.54-1.563 3.438-2.906.894-1.344 1.55-3.09 1.968-5.235.414-2.136.625-5.382.625-9.734v-83.906c0-.414.117-.801.36-1.156.238-.364.64-.66 1.203-.891.562-.238 1.316-.414 2.265-.531.957-.125 2.157-.188 3.594-.188 1.426 0 2.613.063 3.563.188.957.117 1.718.293 2.28.53.563.231.962.528 1.204.891.238.356.36.743.36 1.157zm1.703-111.156c0 3.449-.657 5.804-1.97 7.062-1.312 1.25-3.726 1.875-7.234 1.875-3.46 0-5.812-.61-7.062-1.828-1.25-1.227-1.875-3.54-1.875-6.938 0-3.457.64-5.812 1.922-7.062 1.281-1.25 3.676-1.875 7.187-1.875 3.52 0 5.907.617 7.157 1.844 1.25 1.218 1.875 3.527 1.875 6.921zm0 0"/></symbol></defs><use xlink:href="#43be22fda" x="103.1385" y="169"/></svg>