<?xml version='1.0' encoding='UTF-8'?>
<svg xmlns="http://www.w3.org/2000/svg" xmlns:xlink="http://www.w3.org/1999/xlink" width="250px" height="250px" viewBox="0 0 250 250" y="0px" x="0px" enable-background="new 0 0 250 250"><defs><symbol overflow="visible" id="9e4a5630a"><path d="M60.672-77.375c0 1.305-.031 2.402-.094 3.297-.055.898-.172 1.601-.36 2.11-.179.5-.402.886-.671 1.156-.262.273-.633.406-1.11.406-.48 0-1.062-.133-1.75-.406-.68-.27-1.449-.536-2.312-.797a38.437 38.437 0 0 0-2.906-.766 16.067 16.067 0 0 0-3.485-.36c-1.492 0-2.949.297-4.375.891-1.43.594-2.933 1.578-4.515 2.953-1.586 1.368-3.242 3.184-4.969 5.454-1.719 2.261-3.621 5.03-5.703 8.312v52.89c0 .481-.121.887-.36 1.22-.242.324-.632.605-1.171.843-.532.227-1.278.399-2.235.516C23.707.469 22.488.53 21 .53c-1.43 0-2.621-.062-3.578-.187-.95-.117-1.711-.29-2.281-.516-.563-.238-.95-.52-1.157-.844-.21-.332-.312-.738-.312-1.218v-80.422c0-.477.086-.88.265-1.203.176-.332.532-.63 1.063-.891.54-.27 1.227-.445 2.063-.531.832-.094 1.937-.14 3.312-.14 1.313 0 2.398.046 3.266.14.863.086 1.53.261 2 .531.476.262.82.559 1.03.89.208.325.313.727.313 1.204v11.703c2.207-3.219 4.274-5.836 6.203-7.86 1.938-2.019 3.77-3.609 5.5-4.765 1.727-1.164 3.442-1.973 5.141-2.422a20.166 20.166 0 0 1 5.14-.672c.77 0 1.645.047 2.626.14.988.087 2.02.247 3.093.485 1.07.242 2.04.512 2.907.813.863.293 1.472.59 1.828.89.351.293.586.574.703.844.125.273.227.617.313 1.031.093.418.156 1.028.187 1.828.031.805.047 1.891.047 3.266zm0 0"/></symbol></defs><use xlink:href="#9e4a5630a" x="93.14462" y="169"/></svg>