<?xml version='1.0' encoding='UTF-8'?>
<svg xmlns="http://www.w3.org/2000/svg" xmlns:xlink="http://www.w3.org/1999/xlink" width="250px" height="250px" viewBox="0 0 250 250" y="0px" x="0px" enable-background="new 0 0 250 250"><defs><symbol overflow="visible" id="87ff26c9a"><path d="M75.234-83.375v18.688H63.891c-1.012-3.876-2.262-6.926-3.75-9.157-1.493-2.238-3.22-3.804-5.188-4.703-1.969-.894-4.414-1.344-7.328-1.344-4.168 0-7.86 1.344-11.078 4.032-3.219 2.68-5.766 6.757-7.64 12.234-1.876 5.48-2.813 12.184-2.813 20.11 0 5.062.351 9.695 1.062 13.89.719 4.2 1.942 7.79 3.672 10.766 1.727 2.98 4.02 5.308 6.875 6.984 2.863 1.668 6.41 2.5 10.64 2.5 4.102 0 7.927-.8 11.47-2.406 3.55-1.614 7.234-4.446 11.046-8.5l5.094 5.89c-3.043 3.344-5.726 5.922-8.047 7.735a38.059 38.059 0 0 1-7.469 4.562C57.79-.875 55.172.016 52.578.578c-2.586.57-5.398.86-8.437.86-11.262 0-19.871-3.739-25.828-11.22-5.961-7.476-8.938-18.273-8.938-32.39 0-8.82 1.664-16.64 5-23.453 3.344-6.82 8.02-12.078 14.031-15.766 6.02-3.695 12.961-5.546 20.828-5.546 4.883 0 9.395.28 13.532.843a81.54 81.54 0 0 1 12.468 2.719zm0 0"/></symbol></defs><use xlink:href="#87ff26c9a" x="84.58796" y="169"/></svg>