<?xml version='1.0' encoding='UTF-8'?>
<svg xmlns="http://www.w3.org/2000/svg" xmlns:xlink="http://www.w3.org/1999/xlink" width="250px" height="250px" viewBox="0 0 250 250" y="0px" x="0px" enable-background="new 0 0 250 250"><defs><symbol overflow="visible" id="bc41fea4a"><path d="M33.328-120.453v17.344H16.984v-17.344zm-.437 118.75c0 8.344-.868 15.015-2.594 20.015-1.73 5.008-4.727 9.254-8.985 12.735-4.261 3.488-10.203 6.332-17.828 8.531l-3.03-7.86c3.687-1.429 6.5-2.78 8.437-4.062 1.937-1.281 3.53-2.773 4.78-4.468 1.25-1.7 2.204-3.981 2.86-6.844.657-2.856.985-6.516.985-10.985v-66.39c0-4.645-.09-7.977-.266-10-.18-2.031-.57-3.625-1.172-4.781-.594-1.165-1.515-2.102-2.765-2.813-1.25-.719-3.516-1.406-6.797-2.063v-4.734l20.922-.812h5.453zm0 0"/></symbol></defs><use xlink:href="#bc41fea4a" x="100.6096" y="169"/></svg>