<?xml version='1.0' encoding='UTF-8'?>
<svg xmlns="http://www.w3.org/2000/svg" xmlns:xlink="http://www.w3.org/1999/xlink" width="250px" height="250px" viewBox="0 0 250 250" y="0px" x="0px" enable-background="new 0 0 250 250"><defs><symbol overflow="visible" id="c72f1762a"><path d="M32.531-49.766h2.86c1.957 0 3.562-.207 4.812-.625 1.488-.539 3.129-1.453 4.922-2.734 1.79-1.281 4.32-3.438 7.594-6.469 2.738-2.562 4.804-4.734 6.203-6.515 1.406-1.79 2.375-3.43 2.906-4.922.477-1.258.719-2.516.719-3.766 0-1.781-.555-3.176-1.656-4.187-1.094-1.02-2.899-1.707-5.407-2.063v-4.375H94v4.375c-2.742.543-5.664 1.766-8.766 3.672-3.093 1.906-6.277 4.406-9.546 7.5L55.124-50.391l25.734 33.594c2.977 3.93 5.676 6.836 8.094 8.719 2.414 1.875 5.05 3.11 7.906 3.703V0H62.547v-4.375c1.55-.176 2.695-.52 3.437-1.031.75-.508 1.125-1.36 1.125-2.547 0-.895-.168-1.774-.5-2.64-.324-.864-.996-2.04-2.015-3.532-1.012-1.488-2.856-4.078-5.531-7.766L48.437-36.188c-2.03-2.675-3.48-4.43-4.343-5.265-.867-.844-1.778-1.442-2.735-1.797-.949-.352-2.226-.531-3.828-.531h-5v21.437c0 5.125.235 8.688.703 10.688.477 1.992 1.383 3.508 2.72 4.547 1.343 1.043 3.534 1.953 6.577 2.734V0H7.063v-4.375c2.976-.781 5.046-1.586 6.203-2.422 1.164-.832 2-1.828 2.5-2.984.507-1.164.867-2.742 1.078-4.735.207-2 .312-4.609.312-7.828v-74.781c0-5.719-.047-9.707-.14-11.969-.086-2.27-.32-4.191-.703-5.765-.387-1.582-.922-2.82-1.61-3.72-.687-.894-1.617-1.609-2.781-2.14-1.156-.539-3.258-1.078-6.297-1.61v-4.64l21.547-.906h5.36zm0 0"/></symbol></defs><use xlink:href="#c72f1762a" x="76.93519" y="169"/></svg>