<?xml version='1.0' encoding='UTF-8'?>
<svg xmlns="http://www.w3.org/2000/svg" xmlns:xlink="http://www.w3.org/1999/xlink" width="250px" height="250px" viewBox="0 0 250 250" y="0px" x="0px" enable-background="new 0 0 250 250"><defs><symbol overflow="visible" id="b75e798aa"><path d="M68.531-65.86h-8.578c-1.312-3.57-2.867-6.382-4.656-8.437-1.781-2.05-3.805-3.492-6.063-4.328-2.261-.844-5.03-1.266-8.312-1.266-4.762 0-8.559 1.121-11.39 3.36-2.837 2.23-4.25 5.281-4.25 9.156 0 2.742.566 5.008 1.702 6.797 1.133 1.781 2.891 3.45 5.266 5 2.383 1.555 6.586 3.61 12.61 6.172 6.07 2.617 10.757 5.027 14.062 7.234 3.312 2.2 5.906 4.762 7.781 7.688 1.875 2.918 2.813 6.402 2.813 10.453 0 4.699-.809 8.656-2.422 11.875-1.606 3.219-3.867 5.844-6.781 7.875-2.918 2.023-6.387 3.48-10.407 4.375-4.023.894-8.418 1.343-13.187 1.343-5 0-9.856-.375-14.563-1.125a130.848 130.848 0 0 1-13.75-2.906v-18.672h8.75c1.602 5.48 3.985 9.461 7.14 11.938 3.165 2.469 7.517 3.703 13.048 3.703 2.144 0 4.242-.223 6.297-.672 2.062-.445 3.894-1.191 5.5-2.234 1.613-1.04 2.894-2.453 3.843-4.235.957-1.789 1.438-4.03 1.438-6.718 0-3.032-.602-5.5-1.797-7.407-1.188-1.906-3.031-3.644-5.531-5.218-2.5-1.582-6.914-3.72-13.235-6.407-5.418-2.257-9.765-4.46-13.047-6.609-3.273-2.145-5.843-4.676-7.718-7.594-1.875-2.914-2.813-6.367-2.813-10.36 0-4.882 1.32-9.128 3.969-12.733 2.656-3.602 6.484-6.36 11.484-8.266 5-1.906 10.868-2.86 17.61-2.86 3.926 0 7.718.196 11.375.579 3.664.386 8.27 1.148 13.812 2.28zm0 0"/></symbol></defs><use xlink:href="#b75e798aa" x="85.61728" y="169"/></svg>