<?xml version='1.0' encoding='UTF-8'?>
<svg xmlns="http://www.w3.org/2000/svg" xmlns:xlink="http://www.w3.org/1999/xlink" width="250px" height="250px" viewBox="0 0 250 250" y="0px" x="0px" enable-background="new 0 0 250 250"><defs><symbol overflow="visible" id="a12ce611a"><path d="M6.516-85.422h25.468v45.484c0 6.97.266 12.274.797 15.907.54 3.625 1.348 6.367 2.422 8.218 1.07 1.844 2.594 3.391 4.563 4.641 1.968 1.25 4.675 1.875 8.125 1.875 2.27 0 4.445-.441 6.53-1.328 2.083-.895 4.407-2.457 6.97-4.688 2.562-2.238 4.39-4.457 5.484-6.656 1.102-2.207 1.656-4.773 1.656-7.703v-33.5c0-3.394-.09-5.957-.265-7.687-.18-1.727-.477-3.114-.891-4.157-.418-1.039-.914-1.89-1.484-2.546-.563-.657-1.368-1.25-2.407-1.782-1.043-.539-2.726-1.11-5.047-1.703v-4.375h25.47v61.031c0 4.586.085 7.891.265 9.922.176 2.024.562 3.633 1.156 4.828.602 1.188 1.531 2.157 2.781 2.907 1.25.742 3.485 1.437 6.704 2.093V0l-20.47.89h-5.452l.53-14.656-1.327-.359c-4.95 5.367-9.672 9.305-14.172 11.813-4.492 2.5-9 3.75-13.531 3.75-5.43 0-9.899-1.075-13.407-3.22-3.511-2.144-6.132-5.347-7.859-9.609-1.73-4.257-2.594-10.257-2.594-18v-33.78c0-5.009-.195-8.454-.578-10.329-.387-1.875-1.133-3.36-2.234-4.453-1.106-1.102-3.508-2.133-7.203-3.094zm0 0"/></symbol></defs><use xlink:href="#a12ce611a" x="74.38426" y="169"/></svg>