<?xml version='1.0' encoding='UTF-8'?>
<svg xmlns="http://www.w3.org/2000/svg" xmlns:xlink="http://www.w3.org/1999/xlink" width="250px" height="250px" viewBox="0 0 250 250" y="0px" x="0px" enable-background="new 0 0 250 250"><defs><symbol overflow="visible" id="4e30b353a"><path d="M60.313-12.781l-1.344-.36c-5.18 5.305-10.047 9.059-14.61 11.266-4.554 2.207-9.39 3.313-14.515 3.313-4.532 0-8.528-.883-11.985-2.641-3.449-1.758-6.093-4.234-7.937-7.422-1.844-3.188-2.766-6.863-2.766-11.031 0-8.696 4.301-15.41 12.907-20.14 8.601-4.74 21.515-7.5 38.734-8.282v-5.797c0-6.195-.602-11.082-1.797-14.656-1.188-3.57-3.063-6.192-5.625-7.86-2.563-1.675-5.984-2.515-10.266-2.515-4.648 0-8.386 1.226-11.218 3.672-2.836 2.437-4.965 6.101-6.391 10.984H11.797v-11.61c5.719-2.976 10.484-5.163 14.297-6.562a81.895 81.895 0 0 1 11.437-3.312c3.813-.801 7.68-1.204 11.61-1.204 5.894 0 10.629.938 14.203 2.813 3.582 1.875 6.265 4.75 8.047 8.625 1.789 3.867 2.687 9.703 2.687 17.516v31.093c0 4.407.024 7.524.078 9.344.063 1.813.239 3.496.531 5.047.301 1.543.75 2.777 1.344 3.703.602.918 1.485 1.703 2.64 2.36 1.165.656 3.063 1.343 5.688 2.062V0H59.875zM58.797-40.75c-12.094.125-21.152 1.734-27.172 4.828-6.012 3.094-9.016 7.774-9.016 14.031 0 3.399.68 6.078 2.047 8.047 1.375 1.961 3.102 3.313 5.188 4.063 2.082.742 4.554 1.11 7.422 1.11 4.05 0 7.726-.977 11.03-2.938 3.302-1.97 5.876-4.47 7.72-7.5 1.851-3.04 2.78-6.051 2.78-9.032zm0 0"/></symbol></defs><use xlink:href="#4e30b353a" x="80.24691" y="169"/></svg>