<?xml version='1.0' encoding='UTF-8'?>
<svg xmlns="http://www.w3.org/2000/svg" xmlns:xlink="http://www.w3.org/1999/xlink" width="250px" height="250px" viewBox="0 0 250 250" y="0px" x="0px" enable-background="new 0 0 250 250"><defs><symbol overflow="visible" id="230652f1a"><path d="M88.813-76.406l-16.532-.625-.797.984c1.844 1.856 3.301 4.375 4.375 7.563 1.07 3.187 1.61 6.625 1.61 10.312 0 9.711-2.996 17.2-8.985 22.469-5.98 5.273-14.48 7.906-25.5 7.906-4.949 0-9.21-.625-12.78-1.875-4.532 3.461-6.798 6.856-6.798 10.188 0 2.21.43 3.882 1.297 5.015.863 1.125 2.29 1.93 4.281 2.406 2 .481 5.024.72 9.078.72h21.454c6.312 0 11.46.984 15.453 2.952C78.957-6.43 81.8-3.797 83.5-.484c1.695 3.3 2.547 7.156 2.547 11.562 0 5.602-1.61 10.594-4.828 14.969-3.211 4.375-7.856 7.781-13.938 10.219-6.074 2.445-13.164 3.672-21.265 3.672-6.012 0-11.508-.36-16.485-1.079-4.968-.71-9.23-1.914-12.781-3.609-3.543-1.7-6.281-3.934-8.219-6.703-1.937-2.774-2.906-6.242-2.906-10.406 0-3.75 1.25-7.164 3.75-10.235 2.508-3.062 6.055-5.758 10.64-8.078-2.804-1.133-5.011-2.8-6.624-5-1.606-2.207-2.407-4.8-2.407-7.781 0-3.395.954-6.504 2.86-9.328 1.906-2.832 5.273-6.067 10.11-9.703-4.294-2.508-7.56-5.907-9.798-10.188-2.23-4.289-3.344-9.176-3.344-14.656 0-5.125.848-9.578 2.547-13.36 1.696-3.78 4.051-6.906 7.063-9.374 3.008-2.477 6.566-4.329 10.672-5.547 4.113-1.22 8.55-1.829 13.312-1.829 4.29 0 8.551.508 12.782 1.516h31.624zm-62 18.14c0 7.45 1.515 13.2 4.546 17.25 3.04 4.055 7.422 6.078 13.141 6.078 3.04 0 5.629-.578 7.766-1.734a14.483 14.483 0 0 0 5.234-4.781c1.344-2.031 2.328-4.367 2.953-7.016.625-2.656.938-5.441.938-8.36 0-5.237-.746-9.612-2.235-13.124-1.492-3.52-3.515-6.098-6.078-7.734-2.562-1.645-5.512-2.47-8.844-2.47-5.656 0-9.976 1.884-12.953 5.641-2.98 3.75-4.468 9.168-4.468 16.25zm2.234 59.703c-3.043 2.258-5.324 4.657-6.844 7.188-1.523 2.531-2.281 5.406-2.281 8.625 0 5.352 2.129 9.297 6.39 11.828 4.258 2.54 10.77 3.813 19.532 3.813 5.351 0 9.953-.72 13.797-2.157 3.843-1.43 6.773-3.484 8.797-6.172 2.03-2.68 3.046-5.804 3.046-9.375 0-1.667-.21-3.292-.625-4.874-.418-1.575-1.21-2.985-2.375-4.235-1.156-1.25-2.808-2.25-4.953-3-2.148-.742-4.949-1.11-8.406-1.11H41.812c-4.824 0-9.078-.179-12.765-.53zm0 0"/></symbol></defs><use xlink:href="#230652f1a" x="79.70988" y="169"/></svg>