<?xml version='1.0' encoding='UTF-8'?>
<svg xmlns="http://www.w3.org/2000/svg" xmlns:xlink="http://www.w3.org/1999/xlink" width="250px" height="250px" viewBox="0 0 250 250" y="0px" x="0px" enable-background="new 0 0 250 250"><defs><symbol overflow="visible" id="d43b8906a"><path d="M94.36 38.422H57.905v-4.375c2.852-.594 4.922-1.25 6.203-1.969 1.282-.719 2.266-1.633 2.954-2.734.687-1.094 1.16-2.578 1.421-4.453.27-1.875.407-4.782.407-8.72v-30.827c-3.22 3.636-6.215 6.543-8.985 8.719C57.145-3.77 54.066-2 50.672-.625c-3.399 1.375-7 2.063-10.813 2.063-9.836 0-17.386-3.66-22.656-10.985-5.273-7.332-7.906-18-7.906-32 0-9.894 1.707-18.25 5.125-25.062 3.426-6.82 8.207-11.914 14.344-15.282 6.132-3.363 13.226-5.046 21.28-5.046 4.227 0 8.036.433 11.423 1.296 3.394.856 6.883 2.235 10.468 4.141l6.25-5.438 6.079 1.422V16.172c0 3.52.129 6.305.39 8.36.27 2.05.75 3.671 1.438 4.859.687 1.195 1.695 2.125 3.031 2.78 1.344.657 3.086 1.282 5.234 1.876zM68.89-53.25c0-5.54-.359-9.832-1.078-12.875-.71-3.04-1.93-5.617-3.656-7.734-1.73-2.114-3.758-3.63-6.078-4.547-2.324-.926-5.062-1.39-8.219-1.39-7.687 0-13.574 3.1-17.656 9.296-4.074 6.2-6.11 14.922-6.11 26.172 0 11.437 1.65 20.137 4.954 26.094 3.312 5.96 8.27 8.937 14.875 8.937 2.508 0 4.64-.223 6.39-.672 1.758-.445 3.489-1.176 5.188-2.187 1.695-1.008 3.422-2.38 5.172-4.11 1.758-1.726 3.023-3.289 3.797-4.687.781-1.395 1.379-3.016 1.797-4.86.414-1.851.625-4.238.625-7.156zm0 0"/></symbol></defs><use xlink:href="#d43b8906a" x="74.87654" y="169"/></svg>