<?xml version='1.0' encoding='UTF-8'?>
<svg xmlns="http://www.w3.org/2000/svg" xmlns:xlink="http://www.w3.org/1999/xlink" width="250px" height="250px" viewBox="0 0 250 250" y="0px" x="0px" enable-background="new 0 0 250 250"><defs><symbol overflow="visible" id="53742038a"><path d="M3.313-80.953c2.976-.477 5.39-1.313 7.234-2.5 1.844-1.195 3.285-2.734 4.328-4.61 1.04-1.874 1.86-4.222 2.453-7.046.602-2.832 1.235-6.961 1.89-12.391h12.688v22.078h28.86v9.016h-28.86v39.765c0 5.782.235 10.387.703 13.813.477 3.43 1.375 6.11 2.688 8.047 1.312 1.93 2.8 3.312 4.469 4.156 1.664.836 3.812 1.25 6.437 1.25 2.375 0 4.602-.488 6.688-1.469 2.093-.988 4.148-2.406 6.172-4.25l4.015 4.813c-4.23 4.117-8.234 7.101-12.016 8.953-3.78 1.844-7.699 2.766-11.75 2.766-7.68 0-13.398-2.274-17.156-6.829-3.75-4.562-5.625-11.703-5.625-21.422v-49.593H3.313zm0 0"/></symbol></defs><use xlink:href="#53742038a" x="93.98611" y="169"/></svg>