<?xml version='1.0' encoding='UTF-8'?>
<svg xmlns="http://www.w3.org/2000/svg" xmlns:xlink="http://www.w3.org/1999/xlink" width="250px" height="250px" viewBox="0 0 250 250" y="0px" x="0px" enable-background="new 0 0 250 250"><defs><symbol overflow="visible" id="02cb8111a"><path d="M32.61-71.39l.359.078c4.644-4.696 8.32-7.985 11.031-9.86 2.719-1.883 5.398-3.3 8.047-4.25 2.656-.957 5.5-1.437 8.531-1.437 3.281 0 6.203.39 8.766 1.171 2.562.774 4.804 1.95 6.734 3.532 1.938 1.574 3.516 3.508 4.734 5.797 1.227 2.293 2.141 5.03 2.735 8.218.594 3.188.89 7.227.89 12.11v33.687c0 5.188.223 8.719.672 10.594.446 1.875 1.25 3.336 2.407 4.375 1.164 1.043 3.504 2.043 7.015 3V0H59.328v-4.375c2.32-.719 3.988-1.344 5-1.875a7.286 7.286 0 0 0 2.547-2.234c.688-.957 1.223-2.43 1.61-4.422.394-2 .593-5.024.593-9.078v-23.407c0-7.925-.406-13.988-1.219-18.187-.804-4.195-2.382-7.336-4.734-9.422-2.355-2.082-5.648-3.125-9.875-3.125-2.375 0-4.516.418-6.422 1.25-1.906.836-4.117 2.324-6.625 4.469-2.5 2.136-4.39 4.34-5.672 6.61-1.281 2.26-1.922 4.671-1.922 7.233v34.22c0 4.054.102 6.945.313 8.671.207 1.73.61 3.18 1.203 4.344.602 1.156 1.516 2.11 2.734 2.86 1.22.741 3.11 1.437 5.672 2.093V0H7.156v-4.375c2.614-.719 4.485-1.406 5.61-2.063 1.132-.656 2.015-1.488 2.64-2.5.633-1.007 1.098-2.468 1.39-4.374.302-1.907.454-4.915.454-9.032v-74.781c0-5.719-.047-9.707-.14-11.969-.087-2.27-.325-4.191-.72-5.765-.386-1.582-.921-2.82-1.609-3.72-.68-.894-1.601-1.609-2.765-2.14-1.157-.539-3.258-1.078-6.297-1.61v-4.64l21.531-.906h5.36zm0 0"/></symbol></defs><use xlink:href="#02cb8111a" x="74.42901" y="169"/></svg>