<?xml version='1.0' encoding='UTF-8'?>
<svg xmlns="http://www.w3.org/2000/svg" xmlns:xlink="http://www.w3.org/1999/xlink" width="250px" height="250px" viewBox="0 0 250 250" y="0px" x="0px" enable-background="new 0 0 250 250"><defs><symbol overflow="visible" id="2d3ed2e0a"><path d="M34.219-120.453v17.344H17.78v-17.344zM8.672-4.375c2.32-.719 3.973-1.344 4.953-1.875a7.61 7.61 0 0 0 2.5-2.234c.688-.957 1.223-2.414 1.61-4.375.382-1.97.578-5.04.578-9.22V-61.03c0-3.813-.063-6.88-.188-9.203-.117-2.32-.531-4.18-1.25-5.579-.71-1.406-1.793-2.445-3.25-3.124-1.46-.688-3.527-1.27-6.203-1.75v-4.735l20.812-.812h5.453v63.89c0 5.125.235 8.688.704 10.688.476 1.992 1.39 3.508 2.734 4.547 1.344 1.043 3.531 1.953 6.563 2.734V0H8.672zm0 0"/></symbol></defs><use xlink:href="#2d3ed2e0a" x="99.53549" y="169"/></svg>