<?xml version='1.0' encoding='UTF-8'?>
<svg xmlns="http://www.w3.org/2000/svg" xmlns:xlink="http://www.w3.org/1999/xlink" width="250px" height="250px" viewBox="0 0 250 250" y="0px" x="0px" enable-background="new 0 0 250 250"><defs><symbol overflow="visible" id="0b92bac1a"><path d="M32.797-70.594l1.25.266c3.27-3.988 6.305-7.129 9.11-9.422 2.8-2.29 5.82-4.063 9.062-5.313 3.25-1.25 6.93-1.874 11.047-1.874 3.457 0 6.582.18 9.375.53v20.548H62.547c-1.43-3.22-2.95-5.555-4.563-7.016-1.605-1.457-3.808-2.188-6.609-2.188-2.148 0-4.277.626-6.39 1.876-2.118 1.25-4.157 3.07-6.126 5.453-1.96 2.386-3.312 4.62-4.062 6.703-.742 2.086-1.11 4.558-1.11 7.422v31.265c0 5.43.329 9.168.985 11.219.656 2.055 1.738 3.559 3.25 4.516 1.52.949 3.8 1.695 6.844 2.234V0H8.75v-4.375c2.27-.719 3.895-1.344 4.875-1.875a8.087 8.087 0 0 0 2.547-2.234c.719-.957 1.254-2.414 1.61-4.375.35-1.97.53-5.04.53-9.22V-61.03c0-3.813-.062-6.88-.187-9.203-.117-2.32-.531-4.18-1.25-5.579-.71-1.406-1.793-2.445-3.25-3.124-1.46-.688-3.527-1.27-6.203-1.75v-4.641l20.906-.906h5.453zm0 0"/></symbol></defs><use xlink:href="#0b92bac1a" x="87.09414" y="169"/></svg>