<?xml version='1.0' encoding='UTF-8'?>
<svg xmlns="http://www.w3.org/2000/svg" xmlns:xlink="http://www.w3.org/1999/xlink" width="250px" height="250px" viewBox="0 0 250 250" y="0px" x="0px" enable-background="new 0 0 250 250"><defs><symbol overflow="visible" id="75902a74a"><path d="M47.531 1.438c-12.386 0-21.843-3.649-28.375-10.954-6.523-7.3-9.781-18.097-9.781-32.39 0-9.832 1.71-18.145 5.14-24.938 3.426-6.789 8.118-11.836 14.079-15.14 5.957-3.301 12.75-4.954 20.375-4.954 12.75 0 22.398 3.711 28.953 11.126 6.55 7.417 9.828 18.062 9.828 31.937 0 9.887-1.64 18.227-4.922 25.016-3.273 6.793-7.918 11.875-13.937 15.25-6.012 3.367-13.133 5.046-21.36 5.046zm-21.265-45.22c0 12.274 1.945 21.7 5.843 28.282 3.907 6.586 9.493 9.875 16.766 9.875 3.988 0 7.383-.969 10.188-2.906 2.8-1.938 5.078-4.54 6.828-7.813 1.757-3.281 3.023-7.078 3.796-11.39.782-4.32 1.172-8.836 1.172-13.547 0-8.758-.968-16.024-2.906-21.797-1.937-5.781-4.574-10.024-7.906-12.734-3.336-2.72-7.149-4.079-11.438-4.079-7.21 0-12.734 3.133-16.578 9.391-3.843 6.25-5.765 15.156-5.765 26.719zm0 0"/></symbol></defs><use xlink:href="#75902a74a" x="76.3534" y="169"/></svg>