<?xml version='1.0' encoding='UTF-8'?>
<svg xmlns="http://www.w3.org/2000/svg" xmlns:xlink="http://www.w3.org/1999/xlink" width="250px" height="250px" viewBox="0 0 250 250" y="0px" x="0px" enable-background="new 0 0 250 250"><defs><symbol overflow="visible" id="adf49702a"><path d="M80.063-15.188c-3.813 3.993-7.313 7.122-10.5 9.391-3.188 2.262-6.688 4.031-10.5 5.313C55.25.796 51.05 1.437 46.468 1.437c-12.274 0-21.54-3.675-27.797-11.03-6.25-7.364-9.375-18.223-9.375-32.579 0-8.875 1.594-16.707 4.781-23.5 3.188-6.789 7.727-12.031 13.625-15.719 5.895-3.695 12.688-5.546 20.375-5.546 6.008 0 11.129.953 15.36 2.859 4.226 1.906 7.609 4.512 10.14 7.812 2.531 3.305 4.492 7.477 5.89 12.516 1.407 5.031 2.196 11.602 2.376 19.703H25.563v1.61c0 7.023.785 12.933 2.359 17.734 1.582 4.793 4.176 8.547 7.781 11.265 3.602 2.711 8.29 4.063 14.063 4.063 4.882 0 9.273-.906 13.172-2.719 3.906-1.82 7.796-4.789 11.671-8.906zm-15.016-36.28c-.356-6.438-1.156-11.692-2.406-15.766-1.25-4.082-3.133-7.211-5.641-9.391-2.5-2.176-5.773-3.266-9.813-3.266-6.148 0-11.054 2.461-14.718 7.375-3.657 4.918-5.813 11.934-6.469 21.047zm0 0"/></symbol></defs><use xlink:href="#adf49702a" x="80.29167" y="169"/></svg>