<?xml version='1.0' encoding='UTF-8'?>
<svg xmlns="http://www.w3.org/2000/svg" xmlns:xlink="http://www.w3.org/1999/xlink" width="250px" height="250px" viewBox="0 0 250 250" y="0px" x="0px" enable-background="new 0 0 250 250"><defs><symbol overflow="visible" id="57fbf658a"><path d="M46.469-51.563l11.61-14.734c1.25-1.613 2.257-3.176 3.03-4.687.782-1.52 1.172-3.086 1.172-4.704 0-1.363-.508-2.492-1.515-3.39-1.012-.895-2.59-1.55-4.735-1.969v-4.375H85.25v4.375c-2.273.656-4.586 1.938-6.938 3.844-2.343 1.906-5.214 4.976-8.609 9.203l-18.5 22.703 20.375 27.422c2.914 3.938 5.535 6.95 7.86 9.031 2.32 2.086 4.644 3.574 6.968 4.469V0H50.484v-4.375c4.946-.594 7.422-2.441 7.422-5.547 0-1.25-.21-2.437-.625-3.562-.418-1.133-1.195-2.446-2.328-3.938L42-35.469l-13.766 17.86c-1.011 1.312-1.804 2.523-2.375 3.625-.562 1.105-.843 2.34-.843 3.703 0 1.617.55 2.945 1.656 3.984 1.101 1.043 2.848 1.684 5.234 1.922V0H2.063v-4.375c1.957-.719 3.722-1.613 5.296-2.688 1.582-1.07 3.192-2.457 4.829-4.156 1.644-1.695 3.804-4.18 6.484-7.453l18.594-23.062-19.032-26.094c-2.625-3.57-4.714-6.16-6.265-7.766-1.543-1.601-2.969-2.82-4.281-3.656-1.313-.844-2.625-1.441-3.938-1.797v-4.375h35.031v4.375c-4.71.719-7.062 2.57-7.062 5.547 0 1.367.312 2.734.937 4.11.625 1.367 1.594 2.882 2.907 4.546zm0 0"/></symbol></defs><use xlink:href="#57fbf658a" x="80.69444" y="169"/></svg>