<?xml version='1.0' encoding='UTF-8'?>
<svg xmlns="http://www.w3.org/2000/svg" xmlns:xlink="http://www.w3.org/1999/xlink" width="250px" height="250px" viewBox="0 0 250 250" y="0px" x="0px" enable-background="new 0 0 250 250"><defs><symbol overflow="visible" id="831ed682a"><path d="M32.89-2.688v18.86c0 3.875.13 6.765.391 8.672.27 1.906.75 3.406 1.438 4.5.687 1.101 1.664 2.015 2.937 2.734 1.282.719 3.352 1.375 6.219 1.969v4.375H7.422v-4.375c2.144-.594 3.883-1.203 5.219-1.828 1.343-.625 2.367-1.555 3.078-2.782.719-1.218 1.195-2.87 1.437-4.953.239-2.086.36-4.855.36-8.312V-60.5c0-4.281-.063-7.328-.188-9.14-.117-1.82-.355-3.329-.719-4.516-.355-1.196-.875-2.18-1.562-2.953-.68-.782-1.602-1.438-2.766-1.97-1.156-.538-3.078-1.077-5.765-1.609v-4.734l21-.812h5.453l-1.157 14.578 1.344.344c3.688-3.75 6.602-6.473 8.75-8.172 2.145-1.696 4.364-3.11 6.657-4.235 2.289-1.133 4.492-1.941 6.609-2.422 2.113-.476 4.363-.718 6.75-.718 9.832 0 17.383 3.683 22.656 11.046 5.27 7.356 7.906 18.122 7.906 32.297 0 9.836-1.492 18.102-4.468 24.797-2.98 6.7-7.313 11.735-13 15.11C69.328-.242 62.55 1.437 54.687 1.437c-4.406 0-8.402-.375-11.984-1.125-3.574-.738-6.844-1.738-9.812-3zm0-29.484c0 5.719.352 10.133 1.063 13.234.719 3.094 1.984 5.61 3.797 7.547a17.323 17.323 0 0 0 6.438 4.344c2.468.95 5.726 1.422 9.78 1.422 7.208 0 12.63-2.992 16.266-8.984 3.633-5.989 5.454-14.82 5.454-26.5 0-23.344-6.825-35.016-20.47-35.016-3.335 0-6.21.523-8.624 1.563-2.407 1.042-4.805 2.726-7.188 5.046-2.386 2.325-4.07 4.575-5.047 6.75-.98 2.168-1.468 4.5-1.468 7zm0 0"/></symbol></defs><use xlink:href="#831ed682a" x="74.02623" y="169"/></svg>