<?xml version='1.0' encoding='UTF-8'?>
<svg xmlns="http://www.w3.org/2000/svg" xmlns:xlink="http://www.w3.org/1999/xlink" width="250px" height="250px" viewBox="0 0 250 250" y="0px" x="0px" enable-background="new 0 0 250 250"><defs><symbol overflow="visible" id="28419b0fa"><path d="M71.313-66.75L47.89.453H35.469L14.03-65.859c-1.375-4.282-2.527-7.301-3.453-9.063-.918-1.758-1.898-3.07-2.937-3.937-1.043-.864-2.727-1.594-5.047-2.188v-4.375H37.89v4.375c-3.461.719-5.797 1.664-7.016 2.828-1.219 1.156-1.828 2.899-1.828 5.219 0 1.605.176 3.29.531 5.047.352 1.762.89 3.805 1.61 6.125l14.03 45.562 22.954-69.156h12.61l19.468 69.156 15.734-43.687a69.343 69.343 0 0 0 2.047-6.484c.54-2.051.813-3.973.813-5.766 0-2.5-.672-4.43-2.016-5.797-1.336-1.375-3.61-2.39-6.828-3.047v-4.375h31.188v4.375c-1.668.418-2.922.852-3.766 1.297-.836.45-1.652 1.105-2.453 1.969-.805.867-1.7 2.21-2.688 4.031-.98 1.813-2.215 4.625-3.703 8.438L102.766.453H90.703zm0 0"/></symbol></defs><use xlink:href="#28419b0fa" x="54.0216" y="169"/></svg>