<?xml version='1.0' encoding='UTF-8'?>
<svg xmlns="http://www.w3.org/2000/svg" xmlns:xlink="http://www.w3.org/1999/xlink" width="250px" height="250px" viewBox="0 0 250 250" y="0px" x="0px" enable-background="new 0 0 250 250"><defs><symbol overflow="visible" id="f4b24cf2a"><path d="M31.188-71.39l.359.078c4.164-4.344 7.633-7.493 10.406-9.454 2.77-1.968 5.629-3.472 8.578-4.515 2.946-1.051 6.176-1.578 9.688-1.578 6.375 0 11.836 1.625 16.39 4.875 4.563 3.25 8.079 8.12 10.547 14.609 2.477 6.492 3.719 14.445 3.719 23.86 0 9.71-1.477 17.917-4.422 24.624-2.95 6.7-7.297 11.762-13.047 15.188-5.75 3.43-12.558 5.14-20.422 5.14-4.406 0-8.562-.406-12.468-1.218-3.899-.801-7.993-2.211-12.282-4.235l-6.25 5.454L15.812 0v-97.125c0-5.719-.046-9.707-.14-11.969-.086-2.27-.32-4.191-.703-5.765-.387-1.582-.922-2.82-1.61-3.72-.687-.894-1.617-1.609-2.78-2.14-1.157-.539-3.25-1.078-6.282-1.61v-4.64l21.61-.906h5.28zm0 39.218c0 4.594.207 8.246.625 10.953.414 2.711 1.113 4.961 2.093 6.75.989 1.781 2.422 3.418 4.297 4.906A16.192 16.192 0 0 0 44.5-6.469c2.32.563 4.91.844 7.766.844 7.156 0 12.578-2.914 16.265-8.75 3.696-5.844 5.547-14.602 5.547-26.281 0-11.79-1.683-20.649-5.047-26.578-3.367-5.926-8.445-8.891-15.234-8.891-3.399 0-6.29.523-8.672 1.563-2.387 1.042-4.758 2.667-7.11 4.874-2.355 2.2-4.085 4.372-5.187 6.516-1.094 2.149-1.64 4.59-1.64 7.328zm0 0"/></symbol></defs><use xlink:href="#f4b24cf2a" x="74.83179" y="169"/></svg>