<?xml version='1.0' encoding='UTF-8'?>
<svg xmlns="http://www.w3.org/2000/svg" xmlns:xlink="http://www.w3.org/1999/xlink" width="250px" height="250px" viewBox="0 0 250 250" y="0px" x="0px" enable-background="new 0 0 250 250"><defs><symbol overflow="visible" id="63144c74a"><path d="M95.703 0H60.5v-4.375c2.32-.719 3.988-1.344 5-1.875a7.462 7.462 0 0 0 2.547-2.234c.687-.957 1.223-2.43 1.61-4.422.382-2 .577-5.024.577-9.078v-23.407c0-4.164-.12-7.945-.359-11.343-.242-3.395-.64-6.18-1.203-8.36-.563-2.176-1.25-3.875-2.063-5.094a13.19 13.19 0 0 0-2.859-3.124c-1.094-.864-2.36-1.547-3.797-2.047-1.43-.508-3.305-.766-5.625-.766-2.324 0-4.527.465-6.61 1.39-2.085.919-4.382 2.512-6.89 4.782-2.5 2.262-4.32 4.496-5.453 6.703-1.125 2.2-1.688 4.727-1.688 7.578v33.328c0 5.125.235 8.688.704 10.688.476 1.992 1.39 3.508 2.734 4.547 1.344 1.043 3.531 1.953 6.563 2.734V0H8.672v-4.375c2.32-.719 3.973-1.344 4.953-1.875a7.61 7.61 0 0 0 2.5-2.234c.688-.957 1.223-2.414 1.61-4.375.382-1.97.578-5.04.578-9.22V-61.03c0-3.813-.063-6.88-.188-9.203-.117-2.32-.531-4.18-1.25-5.579-.71-1.406-1.793-2.445-3.25-3.124-1.46-.688-3.527-1.27-6.203-1.75v-4.735l20.906-.812h5.453l-.984 14.578 1.25.344c4.406-4.458 7.96-7.641 10.672-9.547 2.707-1.907 5.445-3.38 8.218-4.422 2.77-1.051 5.708-1.578 8.813-1.578 3.207 0 6.078.375 8.61 1.125 2.538.742 4.773 1.886 6.703 3.437 1.937 1.555 3.53 3.477 4.78 5.766 1.25 2.293 2.188 5.047 2.813 8.265.633 3.22.953 7.297.953 12.235v33.687c0 4.117.114 7.094.344 8.938.238 1.844.656 3.277 1.25 4.297.602 1.011 1.469 1.859 2.594 2.546 1.133.68 3.101 1.407 5.906 2.188zm0 0"/></symbol></defs><use xlink:href="#63144c74a" x="73.84722" y="169"/></svg>