<?xml version='1.0' encoding='UTF-8'?>
<svg xmlns="http://www.w3.org/2000/svg" xmlns:xlink="http://www.w3.org/1999/xlink" width="250px" height="250px" viewBox="0 0 250 250" y="0px" x="0px" enable-background="new 0 0 250 250"><defs><symbol overflow="visible" id="d44d8549a"><path d="M38.156-85.422v4.375c-2.742.656-4.68 1.281-5.812 1.875-1.125.594-1.977 1.371-2.547 2.328-.563.95-.844 2.23-.844 3.844 0 1.605.192 3.29.578 5.047.383 1.762.992 3.805 1.828 6.125l15.547 45.203 18.235-43.328c1.187-2.863 2.02-5.219 2.5-7.063.476-1.843.718-3.57.718-5.187 0-2.5-.671-4.406-2.015-5.719-1.336-1.312-3.793-2.351-7.375-3.125v-4.375H92.39v4.375c-2.325.48-4.11 1.215-5.36 2.203-1.25.98-2.5 2.528-3.75 4.64-1.25 2.118-2.742 5.079-4.469 8.891L48.703.891H38.156L13.938-65.86c-1.668-4.582-2.997-7.723-3.985-9.422-.98-1.696-2.055-2.961-3.219-3.797-1.156-.832-2.836-1.488-5.03-1.969v-4.375zm0 0"/></symbol></defs><use xlink:href="#d44d8549a" x="78.81481" y="169"/></svg>