<?xml version='1.0' encoding='UTF-8'?>
<svg xmlns="http://www.w3.org/2000/svg" xmlns:xlink="http://www.w3.org/1999/xlink" width="250px" height="250px" viewBox="0 0 250 250" y="0px" x="0px" enable-background="new 0 0 250 250"><defs><symbol overflow="visible" id="30a7aa83a"><path d="M32.531-22.344c0 5.125.235 8.688.703 10.688.477 1.992 1.383 3.508 2.72 4.547 1.343 1.043 3.534 1.953 6.577 2.734V0H7.063v-4.375c2.976-.781 5.046-1.586 6.203-2.422 1.164-.832 2-1.828 2.5-2.984.507-1.164.867-2.742 1.078-4.735.207-2 .312-4.609.312-7.828v-74.781c0-5.719-.047-9.707-.14-11.969-.086-2.27-.32-4.191-.703-5.765-.387-1.582-.922-2.82-1.61-3.72-.687-.894-1.617-1.609-2.781-2.14-1.156-.539-3.258-1.078-6.297-1.61v-4.64l21.547-.906h5.36zm0 0"/></symbol></defs><use xlink:href="#30a7aa83a" x="100.1173" y="169"/></svg>