<?xml version='1.0' encoding='UTF-8'?>
<svg xmlns="http://www.w3.org/2000/svg" xmlns:xlink="http://www.w3.org/1999/xlink" width="250px" height="250px" viewBox="0 0 250 250" y="0px" x="0px" enable-background="new 0 0 250 250"><defs><symbol overflow="visible" id="5c1dd458a"><path d="M76.047-25.906V0H7.234v-4.375l48.97-73.813h-24.22c-2.98 0-5.336.54-7.062 1.61-1.719 1.074-3.356 2.86-4.906 5.36-1.555 2.5-3.043 5.866-4.47 10.093H7.782v-24.297H75.5v4.469L26.625-7.234h23.5c3.102 0 5.426-.239 6.969-.72 1.55-.476 2.89-1.237 4.015-2.28 1.133-1.04 2.239-2.692 3.313-4.954 1.07-2.269 2.351-5.843 3.844-10.718zm0 0"/></symbol></defs><use xlink:href="#5c1dd458a" x="83.33488" y="169"/></svg>