<?xml version='1.0' encoding='UTF-8'?>
<svg xmlns="http://www.w3.org/2000/svg" xmlns:xlink="http://www.w3.org/1999/xlink" width="250px" height="250px" viewBox="0 0 250 250" y="0px" x="0px" enable-background="new 0 0 250 250"><defs><symbol overflow="visible" id="8c4c230da"><path d="M32.797-71.656l1.25.344c3.57-3.57 6.504-6.266 8.797-8.079 2.289-1.82 4.508-3.28 6.656-4.375 2.145-1.101 4.156-1.894 6.031-2.375a23.316 23.316 0 0 1 5.766-.718c5.957 0 10.812 1.37 14.562 4.109 3.758 2.742 6.352 6.945 7.782 12.61 4.468-4.532 8.086-7.868 10.859-10.016 2.77-2.145 5.598-3.797 8.484-4.953 2.883-1.164 5.993-1.75 9.329-1.75 4 0 7.44.586 10.328 1.75 2.882 1.156 5.328 2.945 7.328 5.359 2 2.418 3.457 5.445 4.375 9.078.926 3.625 1.39 8.508 1.39 14.64v33.688c0 4.532.145 7.664.438 9.39.3 1.731.734 3.075 1.297 4.032.57.95 1.422 1.766 2.547 2.453 1.132.68 3.039 1.375 5.718 2.094V0h-35.109v-4.375c2.32-.719 3.988-1.344 5-1.875a7.462 7.462 0 0 0 2.547-2.234c.687-.957 1.223-2.43 1.61-4.422.382-2 .577-5.024.577-9.078v-23.407c0-5.062-.136-9.242-.406-12.547-.262-3.312-.68-5.945-1.25-7.906-.562-1.969-1.246-3.52-2.047-4.656a15.09 15.09 0 0 0-2.734-2.953c-1.012-.832-2.203-1.484-3.578-1.953-1.367-.477-3.18-.719-5.438-.719-2.386 0-4.61.48-6.672 1.438-2.054.949-4.289 2.554-6.703 4.812-2.406 2.262-4.148 4.543-5.219 6.844-1.074 2.293-1.609 4.984-1.609 8.078v32.61c0 4.53.149 7.663.453 9.39.301 1.73.735 3.074 1.297 4.031.563.95 1.41 1.766 2.547 2.453 1.133.68 3.04 1.375 5.719 2.094V0H59.594v-4.375c2.32-.719 3.988-1.344 5-1.875a7.286 7.286 0 0 0 2.547-2.234c.687-.957 1.222-2.43 1.609-4.422.395-2 .594-5.024.594-9.078v-23.407c0-5.3-.153-9.617-.453-12.953-.293-3.343-.758-6.023-1.391-8.047-.625-2.02-1.43-3.656-2.406-4.906-.98-1.258-1.98-2.21-3-2.86-1.012-.656-2.203-1.144-3.578-1.468-1.368-.332-2.914-.5-4.641-.5-2.438 0-4.73.555-6.875 1.656-2.148 1.094-4.34 2.688-6.578 4.781-2.23 2.086-3.914 4.258-5.047 6.516-1.125 2.262-1.688 4.703-1.688 7.328v33.5c0 3.399.086 5.992.266 7.782.176 1.78.457 3.183.844 4.203.394 1.011.89 1.828 1.484 2.453.594.625 1.442 1.226 2.547 1.797 1.102.562 2.754 1.14 4.953 1.734V0H8.75v-4.375c2.27-.719 3.895-1.344 4.875-1.875a8.087 8.087 0 0 0 2.547-2.234c.719-.957 1.254-2.414 1.61-4.375.35-1.97.53-5.04.53-9.22V-61.03c0-3.813-.062-6.88-.187-9.203-.117-2.32-.531-4.18-1.25-5.579-.71-1.406-1.793-2.445-3.25-3.124-1.46-.688-3.527-1.27-6.203-1.75v-4.735l20.906-.812h5.453zm0 0"/></symbol></defs><use xlink:href="#8c4c230da" x="48.74074" y="169"/></svg>