<?xml version='1.0' encoding='UTF-8'?>
<svg xmlns="http://www.w3.org/2000/svg" xmlns:xlink="http://www.w3.org/1999/xlink" width="250px" height="250px" viewBox="0 0 250 250" y="0px" x="0px" enable-background="new 0 0 250 250"><defs><symbol overflow="visible" id="9fa916e6a"><path d="M46.469 7.328c-3.282 7.383-6.477 13.367-9.578 17.953-3.094 4.594-6.5 8.051-10.22 10.375-3.718 2.32-8.14 3.485-13.265 3.485-3.281 0-6.976-.391-11.078-1.172V20.28h7.953c.707 2.446 1.598 4.145 2.672 5.094 1.07.957 2.625 1.438 4.656 1.438 1.782 0 3.368-.344 4.766-1.032 1.406-.687 2.867-1.867 4.39-3.531 1.52-1.668 3.305-4.23 5.36-7.688 2.05-3.46 4.36-7.835 6.922-13.124L14.03-65.86c-1.617-4.344-2.914-7.38-3.89-9.11-.98-1.726-2.04-3.035-3.172-3.922-1.137-.894-2.867-1.613-5.188-2.156v-4.375h36.375v4.375c-2.804.656-4.773 1.297-5.906 1.922-1.125.625-1.96 1.434-2.5 2.422-.531.98-.797 2.242-.797 3.781 0 1.617.192 3.29.578 5.016.383 1.73.992 3.758 1.828 6.078l15.907 44.766L65.14-59.953c1.007-2.383 1.796-4.57 2.359-6.563.57-2 .86-3.863.86-5.593 0-2.563-.704-4.5-2.11-5.813-1.398-1.312-3.824-2.351-7.281-3.125v-4.375H92.39v4.375c-2.325.48-4.11 1.215-5.36 2.203-1.25.98-2.5 2.528-3.75 4.64-1.25 2.118-2.742 5.079-4.469 8.891zm0 0"/></symbol></defs><use xlink:href="#9fa916e6a" x="78.81481" y="169"/></svg>