<?xml version='1.0' encoding='UTF-8'?>
<svg xmlns="http://www.w3.org/2000/svg" xmlns:xlink="http://www.w3.org/1999/xlink" width="250px" height="250px" viewBox="0 0 250 250" y="0px" x="0px" enable-background="new 0 0 250 250"><defs><symbol overflow="visible" id="c8aab10ea"><path d="M54.594-76.406h-21.36v54.062c0 3.992.192 7 .578 9.032.395 2.023.961 3.554 1.704 4.593.75 1.043 1.734 1.883 2.953 2.516 1.218.625 3.172 1.234 5.86 1.828V0H7.78v-4.375c2.614-.719 4.485-1.406 5.61-2.063 1.132-.656 2.015-1.488 2.64-2.5.633-1.007 1.098-2.468 1.39-4.374.302-1.907.454-4.915.454-9.032v-54.062H7.062v-4.547c2.258-.363 3.758-.649 4.5-.86a8.48 8.48 0 0 0 2.157-.937c.687-.414 1.281-1.008 1.781-1.781.508-.77.957-1.914 1.344-3.438.383-1.52.695-3.648.937-6.39.54-6.489 1.719-11.758 3.532-15.813 1.812-4.05 4.457-7.504 7.937-10.36 3.488-2.863 7.21-4.874 11.172-6.03 3.969-1.165 8.633-1.75 14-1.75 4.707 0 8.695.328 11.969.984v16.172h-8.844c-1.137-3.52-2.465-6.008-3.984-7.469-1.512-1.457-3.637-2.188-6.376-2.188-1.968 0-3.624.274-4.968.813-1.344.531-2.586 1.367-3.719 2.5-1.125 1.125-2.09 2.64-2.89 4.547-.805 1.906-1.403 4.277-1.797 7.11-.387 2.835-.579 6.511-.579 11.03v9.391h21.36zm0 0"/></symbol></defs><use xlink:href="#c8aab10ea" x="97.25309" y="169"/></svg>