<?xml version='1.0' encoding='UTF-8'?>
<svg xmlns="http://www.w3.org/2000/svg" xmlns:xlink="http://www.w3.org/1999/xlink" width="250px" height="250px" viewBox="0 0 250 250" y="0px" x="0px" enable-background="new 0 0 250 250"><defs><symbol overflow="visible" id="2ac9b954a"><path d="M68.984-97.125c0-5.719-.046-9.707-.14-11.969-.086-2.27-.324-4.191-.719-5.765-.387-1.582-.922-2.82-1.61-3.72-.68-.894-1.6-1.609-2.765-2.14-1.156-.539-3.258-1.078-6.297-1.61v-4.64l21.625-.906h5.281v103.484c0 4.649.086 7.97.266 9.97.176 1.991.563 3.585 1.156 4.78.594 1.188 1.531 2.157 2.813 2.907 1.281.742 3.531 1.437 6.75 2.093V0L74.25.89h-5.36l1.079-14.656-1.344-.359c-3.75 4-7.012 7-9.781 9a38.907 38.907 0 0 1-8.86 4.781C46.86.844 43.508 1.437 39.937 1.437c-9.773 0-17.308-3.707-22.609-11.124-5.305-7.415-7.953-18.126-7.953-32.126 0-9.769 1.727-18.066 5.188-24.89 3.457-6.82 8.117-11.899 13.984-15.234 5.863-3.333 12.46-5 19.797-5 3.926 0 7.5.312 10.718.937 3.22.625 6.524 1.652 9.922 3.078zm0 44.14c0-4.644-.21-8.367-.625-11.171-.418-2.801-1.12-5.156-2.109-7.063a14.422 14.422 0 0 0-3.969-4.812 16.344 16.344 0 0 0-5.5-2.86c-1.992-.601-4.386-.906-7.187-.906-7.625 0-13.434 3.055-17.422 9.156-3.992 6.106-5.984 14.875-5.984 26.313 0 11.437 1.632 20.137 4.906 26.094 3.281 5.96 8.254 8.937 14.922 8.937 2.625 0 4.797-.223 6.515-.672 1.727-.445 3.426-1.16 5.094-2.14 1.676-.977 3.375-2.332 5.094-4.063 1.726-1.726 2.992-3.305 3.797-4.734.812-1.426 1.425-3.063 1.843-4.907.414-1.851.625-4.238.625-7.156zm0 0"/></symbol></defs><use xlink:href="#2ac9b954a" x="74.16049" y="169"/></svg>