<?xml version='1.0' encoding='UTF-8'?>
<svg xmlns="http://www.w3.org/2000/svg" xmlns:xlink="http://www.w3.org/1999/xlink" width="250px" height="250px" viewBox="0 0 250 250" y="0px" x="0px" enable-background="new 0 0 250 250"><defs><symbol overflow="visible" id="13f6e007a"><path d="M85.875 0H66.797c0-1.469-2.813-6.445-8.438-14.938-5.625-8.5-10.578-15.617-14.859-21.359h-.703c-2.98 4.106-7.11 10.742-12.39 19.906C25.132-7.223 22.5-1.758 22.5 0H4.828c0-1.695 4.188-8.14 12.563-19.328 8.382-11.195 15.156-19.52 20.312-24.969V-45c-3.867-4.281-9.668-11.504-17.406-21.672C12.567-76.836 8.703-82.445 8.703-83.5h18.813c0 1.406 2.351 5.922 7.062 13.547 4.719 7.617 8.66 13.445 11.828 17.484h.797c2.863-3.457 6.594-9.113 11.188-16.968 4.601-7.852 6.906-12.54 6.906-14.063H82c0 1-3.969 6.703-11.906 17.11C62.156-55.993 56.457-49.067 53-45.61v.954c4.977 5.804 11.703 14.36 20.172 25.672C81.64-7.672 85.875-1.344 85.875 0zm0 0"/></symbol></defs><use xlink:href="#13f6e007a" x="79.7003" y="169"/></svg>