<?xml version='1.0' encoding='UTF-8'?>
<svg xmlns="http://www.w3.org/2000/svg" xmlns:xlink="http://www.w3.org/1999/xlink" width="250px" height="250px" viewBox="0 0 250 250" y="0px" x="0px" enable-background="new 0 0 250 250"><defs><symbol overflow="visible" id="c9aa752ba"><path d="M86.047 0h-16c1.289-15.406 1.937-32.223 1.937-50.453 0-9.02-1.836-15.188-5.5-18.5-3.656-3.313-8.886-4.969-15.687-4.969-8.313 0-15.984 3.024-23.016 9.063 0 19.98.114 41.601.344 64.859h-16c1-19.926 1.5-34.344 1.5-43.25 0-13.707-1.293-27.004-3.875-39.89l15.469-2.204 1.672 10.719h.703c8.676-7.844 17.96-11.766 27.86-11.766 9.726 0 17.257 2.153 22.593 6.454 5.332 4.304 8 11.964 8 22.984 0 1.117-.063 3.312-.188 6.594-.117 3.28-.171 5.48-.171 6.593 0 9.782.117 24.371.359 43.766zm0 0"/></symbol></defs><use xlink:href="#c9aa752ba" x="76.32038" y="169"/></svg>