<?xml version='1.0' encoding='UTF-8'?>
<svg xmlns="http://www.w3.org/2000/svg" xmlns:xlink="http://www.w3.org/1999/xlink" width="250px" height="250px" viewBox="0 0 250 250" y="0px" x="0px" enable-background="new 0 0 250 250"><defs><symbol overflow="visible" id="88b577c1a"><path d="M67.406-23.813c0 17.106-10.93 25.657-32.781 25.657-9.668 0-18.688-.969-27.063-2.907l2.72-12.906c7.613 2.93 15.874 4.39 24.78 4.39 12.782 0 19.172-3.632 19.172-10.905 0-3.508-1.422-6.305-4.265-8.391-2.844-2.082-7.547-4.41-14.11-6.984-8.324-3.282-14.359-6.446-18.109-9.5-5.5-4.508-8.25-9.957-8.25-16.344 0-6.676 2.516-12.399 7.547-17.172 5.039-4.781 12.719-7.172 23.031-7.172 10.082 0 18.172.852 24.266 2.547l-2.735 12.656c-6.324-2.52-13.648-3.781-21.968-3.781-11.25 0-16.875 3.258-16.875 9.766 0 3.28 1.257 5.933 3.78 7.953 2.52 2.023 7.442 4.465 14.767 7.328 7.906 3.117 13.765 6.164 17.578 9.14 5.675 4.637 8.515 10.18 8.515 16.626zm0 0"/></symbol></defs><use xlink:href="#88b577c1a" x="87.33804" y="169"/></svg>