<?xml version='1.0' encoding='UTF-8'?>
<svg xmlns="http://www.w3.org/2000/svg" xmlns:xlink="http://www.w3.org/1999/xlink" width="250px" height="250px" viewBox="0 0 250 250" y="0px" x="0px" enable-background="new 0 0 250 250"><defs><symbol overflow="visible" id="92d907e5a"><path d="M85.688-.094l-13.61.531c-.824-3.28-1.234-5.972-1.234-8.078h-.875c-7.805 6.563-17.266 9.844-28.39 9.844-10.138 0-17.509-2.445-22.11-7.344-4.606-4.894-6.907-14.754-6.907-29.578 0-2.101.055-5.234.172-9.39.125-4.164.188-7.008.188-8.532 0-8.613-.5-18.754-1.5-30.422l16.36-.609c-.712 11.313-1.063 20.98-1.063 29 0 18.461 1.187 30.484 3.562 36.078C32.656-13 38-10.204 46.313-10.204c9.374 0 17.109-2.343 23.203-7.03 0-32.57-.293-54.516-.875-65.828l15.828-.61c-.469 11.012-.703 26.246-.703 45.703 0 12.48.64 25.106 1.921 37.875zm0 0"/></symbol></defs><use xlink:href="#92d907e5a" x="76.84712" y="169"/></svg>