<?xml version='1.0' encoding='UTF-8'?>
<svg xmlns="http://www.w3.org/2000/svg" xmlns:xlink="http://www.w3.org/1999/xlink" width="250px" height="250px" viewBox="0 0 250 250" y="0px" x="0px" enable-background="new 0 0 250 250"><defs><symbol overflow="visible" id="58e2bb94a"><path d="M79.813-83.5c0 3.75-4.43 15.703-13.282 35.86C56.395-24.61 50.098-8.376 47.641 1.062c-4.043 15.289-7.793 25.015-11.25 29.171-4.688 5.739-13.04 8.61-25.047 8.61l-.703-12.297c7.32 0 13.414-2.492 18.28-7.469C33.786 14.098 36.22 7.86 36.22.36c0-6.507-5.39-21.976-16.172-46.406C9.266-70.484 3.875-82.969 3.875-83.5h18.188c0 1.586 3.687 12.25 11.062 32 7.383 19.742 11.078 31.898 11.078 36.469h.89c0-3.813 3.118-14.86 9.36-33.14 6.238-18.282 9.36-30.056 9.36-35.329zm0 0"/></symbol></defs><use xlink:href="#58e2bb94a" x="83.21191" y="169"/></svg>