<?xml version='1.0' encoding='UTF-8'?>
<svg xmlns="http://www.w3.org/2000/svg" xmlns:xlink="http://www.w3.org/1999/xlink" width="250px" height="250px" viewBox="0 0 250 250" y="0px" x="0px" enable-background="new 0 0 250 250"><defs><symbol overflow="visible" id="798d0deea"><path d="M27.422-85.344c-1 18.168-1.5 36.39-1.5 54.672 0 4.867.16 11.297.484 19.297.32 7.992.485 13.422.485 16.297 0 18.926-7.203 30.41-21.61 34.453L.875 32.703c5.219-4.398 8.441-9.086 9.672-14.062 1.812-7.157 2.719-22.395 2.719-45.72 0-25.007-1.172-43.694-3.516-56.062zm3.781-24.515c0 2.992-.969 5.586-2.906 7.78-1.93 2.188-4.652 3.282-8.172 3.282-2.992 0-5.32-.945-6.984-2.844-1.668-1.906-2.5-4.207-2.5-6.906 0-2.926.992-5.473 2.984-7.64 1.988-2.165 4.742-3.25 8.266-3.25 2.863 0 5.129.953 6.797 2.859 1.675 1.898 2.515 4.137 2.515 6.719zm0 0"/></symbol></defs><use xlink:href="#798d0deea" x="105.4228" y="169"/></svg>