<?xml version='1.0' encoding='UTF-8'?>
<svg xmlns="http://www.w3.org/2000/svg" xmlns:xlink="http://www.w3.org/1999/xlink" width="250px" height="250px" viewBox="0 0 250 250" y="0px" x="0px" enable-background="new 0 0 250 250"><defs><symbol overflow="visible" id="d41e9448a"><path d="M87.36-.094L74.265.36c-.47-2.52-.704-5.187-.704-8h-.968C66.445-.96 57.304 2.375 45.172 2.375c-11.125 0-19.984-4.04-26.578-12.125-6.594-8.094-9.89-17.852-9.89-29.281 0-12.946 3.66-24.11 10.983-33.485 7.32-9.375 17.633-14.062 30.938-14.062 9.488 0 16.285 1.937 20.39 5.812h.704c0-14.53-.414-28.8-1.235-42.812l16.704-.61C86.07-109.3 85.516-89.82 85.516-65.75c0 24.5.613 46.387 1.843 65.656zM73.218-17.406c0-18.219-.5-35.766-1.5-52.64-4.75-3.927-10.668-5.891-17.75-5.891-9.907 0-17.324 3.296-22.25 9.89-4.918 6.594-7.375 14.871-7.375 24.828 0 8.907 2.328 16.407 6.984 22.5 4.664 6.094 11.129 9.14 19.39 9.14 10.364 0 17.864-2.608 22.5-7.827zm0 0"/></symbol></defs><use xlink:href="#d41e9448a" x="75.53027" y="169"/></svg>