<?xml version='1.0' encoding='UTF-8'?>
<svg xmlns="http://www.w3.org/2000/svg" xmlns:xlink="http://www.w3.org/1999/xlink" width="250px" height="250px" viewBox="0 0 250 250" y="0px" x="0px" enable-background="new 0 0 250 250"><defs><symbol overflow="visible" id="c4c35195a"><path d="M86.047 0h-16c1.289-15.406 1.937-31.988 1.937-49.75 0-9.488-1.777-15.89-5.328-19.203-3.543-3.313-8.449-4.969-14.719-4.969-8.78 0-17.011 3.024-24.687 9.063 0 31.992.234 53.609.703 64.859H12.484c.52-15.469.782-37.32.782-65.563 0-24.726-.852-44.093-2.547-58.093l16.703-.89c-.469 17.874-.703 34.46-.703 49.75h.531c8.79-7.727 18.426-11.595 28.906-11.595 9.375 0 16.696 2.184 21.969 6.547 5.281 4.367 7.922 12.028 7.922 22.985 0 1.105-.063 3.289-.188 6.547-.117 3.25-.171 6.105-.171 8.562 0 8.438.117 22.355.359 41.75zm0 0"/></symbol></defs><use xlink:href="#c4c35195a" x="76.32038" y="169"/></svg>