<?xml version='1.0' encoding='UTF-8'?>
<svg xmlns="http://www.w3.org/2000/svg" xmlns:xlink="http://www.w3.org/1999/xlink" width="250px" height="250px" viewBox="0 0 250 250" y="0px" x="0px" enable-background="new 0 0 250 250"><defs><symbol overflow="visible" id="373e717da"><path d="M61-124.719l-2.547 11.61c-3.523-.883-7.039-1.329-10.547-1.329-5.398 0-9.047 2.126-10.953 6.376-1.898 4.25-2.844 13.027-2.844 26.328 5.79 0 13.907-.297 24.344-.891l-.531 13.11c-11.836-.352-19.774-.532-23.813-.532 0 26.656.348 50.008 1.047 70.047H19.422c.82-19.508 1.234-42.86 1.234-70.047-3.574 0-9.812.18-18.718.531l.609-12.921c8.082.468 14.117.703 18.11.703 0-15.532 2.163-26.829 6.5-33.891 4.331-7.063 11.25-10.594 20.75-10.594 4.156 0 8.519.5 13.093 1.5zm0 0"/></symbol></defs><use xlink:href="#373e717da" x="94.53683" y="169"/></svg>