<?xml version='1.0' encoding='UTF-8'?>
<svg xmlns="http://www.w3.org/2000/svg" xmlns:xlink="http://www.w3.org/1999/xlink" width="250px" height="250px" viewBox="0 0 250 250" y="0px" x="0px" enable-background="new 0 0 250 250"><defs><symbol overflow="visible" id="024d1bdda"><path d="M83.672-51.594c0 2.461-.117 5.86-.344 10.203l-60.39 1.047c.582 8.555 3.89 15.715 9.921 21.485 6.04 5.773 14.04 8.656 24 8.656 8.907 0 17.258-1.082 25.063-3.25l-1.5 12.39C74.68 1.228 66.39 2.376 55.547 2.376c-15.23 0-26.844-4.16-34.844-12.484-8-8.32-12-18.457-12-30.407 0-12.77 3.645-23.77 10.938-33 7.3-9.226 17.101-13.843 29.406-13.843 11.3 0 19.894 3.34 25.781 10.015 5.895 6.68 8.844 15.262 8.844 25.75zM69-51.422c0-16.457-6.887-24.687-20.656-24.687-14.063 0-22.356 8.554-24.875 25.656zm0 0"/></symbol></defs><use xlink:href="#024d1bdda" x="78.8663" y="169"/></svg>