<?xml version='1.0' encoding='UTF-8'?>
<svg xmlns="http://www.w3.org/2000/svg" xmlns:xlink="http://www.w3.org/1999/xlink" width="250px" height="250px" viewBox="0 0 250 250" y="0px" x="0px" enable-background="new 0 0 250 250"><defs><symbol overflow="visible" id="3b590686a"><path d="M91.313-45.172c0 12.836-3.665 23.969-10.985 33.406-7.324 9.43-17.34 14.141-30.047 14.141-10.781 0-18.11-1.934-21.984-5.797h-.703L25.406 0H12.484c.758-20.219 1.141-42.07 1.141-65.563 0-21.218-.969-40.582-2.906-58.093l17.406-.89c-.586 10.085-.875 26.054-.875 47.905h.703c5.738-6.625 14.848-9.937 27.328-9.937 10.844 0 19.555 4.047 26.14 12.14 6.595 8.086 9.891 17.84 9.891 29.266zm-15.641 2.11c0-8.852-2.32-16.329-6.953-22.422-4.625-6.094-11.008-9.141-19.14-9.141-10.556 0-18.118 3.195-22.688 9.578 0 20.867.468 37.774 1.406 50.719 4.75 3.992 10.93 5.984 18.547 5.984 9.613 0 16.82-3.367 21.625-10.11 4.8-6.737 7.203-14.94 7.203-24.608zm0 0"/></symbol></defs><use xlink:href="#3b590686a" x="75.04743" y="169"/></svg>