<?xml version='1.0' encoding='UTF-8'?>
<svg xmlns="http://www.w3.org/2000/svg" xmlns:xlink="http://www.w3.org/1999/xlink" width="250px" height="250px" viewBox="0 0 250 250" y="0px" x="0px" enable-background="new 0 0 250 250"><defs><symbol overflow="visible" id="f722f34da"><path d="M91.313-45.172c0 12.656-3.622 23.746-10.86 33.266-7.23 9.523-17.289 14.281-30.172 14.281C39.5 2.375 32.406.441 29-3.422h-.875c0 16.281.176 30.813.531 43.594H12.125c1.352-15.594 2.031-34.844 2.031-57.75 0-28.238-1.469-50.094-4.406-65.563l15.469-2.203 1.328 8.703h.875c5.687-6.625 14.883-9.937 27.594-9.937 11.195 0 20.047 4.09 26.547 12.266 6.5 8.18 9.75 17.89 9.75 29.14zm-15.641 2.11c0-8.676-2.29-16.102-6.86-22.282-4.562-6.187-10.976-9.281-19.234-9.281-10.555 0-18.117 3.195-22.687 9.578.937 19.688 1.406 36.594 1.406 50.719 4.75 3.992 10.93 5.984 18.547 5.984 9.664 0 16.883-3.394 21.656-10.187 4.781-6.801 7.172-14.977 7.172-24.532zm0 0"/></symbol></defs><use xlink:href="#f722f34da" x="75.04743" y="169"/></svg>