<?xml version='1.0' encoding='UTF-8'?>
<svg xmlns="http://www.w3.org/2000/svg" xmlns:xlink="http://www.w3.org/1999/xlink" width="250px" height="250px" viewBox="0 0 250 250" y="0px" x="0px" enable-background="new 0 0 250 250"><defs><symbol overflow="visible" id="c7615465a"><path d="M134.031-83.5c0 3.523-5.027 17.309-15.078 41.36C108.91-18.087 103.891-4.04 103.891 0H91.937c0-2.227-2.96-10.754-8.874-25.578-7.274-18.219-12.43-32.457-15.47-42.719h-.702c-2.813 9.906-7.621 24.18-14.422 42.813C47.082-10.723 44.39-2.227 44.39 0H32.344c0-3.395-4.746-17.469-14.235-42.219C8.617-66.977 3.875-80.739 3.875-83.5h15.64c0 3.055 3.41 14.188 10.235 33.406 6.82 19.219 10.234 30.407 10.234 33.563h.97c0-4.801 3.53-16.383 10.593-34.75C58.609-69.656 62.14-80.395 62.14-83.5h14.937c0 2.7 3.66 13.922 10.984 33.672 7.32 19.742 10.985 30.84 10.985 33.297h.89c0-3.57 3.176-14.485 9.532-32.735C115.82-67.516 119-78.926 119-83.5zm0 0"/></symbol></defs><use xlink:href="#c7615465a" x="56.12866" y="169"/></svg>