<?xml version='1.0' encoding='UTF-8'?>
<svg xmlns="http://www.w3.org/2000/svg" xmlns:xlink="http://www.w3.org/1999/xlink" width="250px" height="250px" viewBox="0 0 250 250" y="0px" x="0px" enable-background="new 0 0 250 250"><defs><symbol overflow="visible" id="3b0c5032a"><path d="M86.922 0H66.266c0-2.05-5.684-9.875-17.047-23.469-11.657-14-18.98-21-21.969-21h-.625c0 12.532.32 27.356.969 44.469H12.125c.758-21.445 1.14-43.3 1.14-65.563 0-22.675-.85-42.039-2.546-58.093l16.875-.89c-.649 12.655-.969 37.241-.969 73.75h.625c1.926 0 8.004-4.938 18.234-14.813C55.711-75.484 60.828-81.445 60.828-83.5H80.25c0 1.875-4.602 6.742-13.797 14.594-8.617 7.324-16.5 13.36-23.656 18.11v.702c7.27 5.5 16.617 14.934 28.047 28.297C81.563-9.203 86.922-1.937 86.922 0zm0 0"/></symbol></defs><use xlink:href="#3b0c5032a" x="81.10494" y="169"/></svg>