<?xml version='1.0' encoding='UTF-8'?>
<svg xmlns="http://www.w3.org/2000/svg" xmlns:xlink="http://www.w3.org/1999/xlink" width="250px" height="250px" viewBox="0 0 250 250" y="0px" x="0px" enable-background="new 0 0 250 250"><defs><symbol overflow="visible" id="d78ffc00a"><path d="M94.219-94.578l-1.406 12.14c-10.899 0-16.903 1.758-18.016 5.266v.875c3.75 4.574 5.625 9.793 5.625 15.656 0 9.137-3.008 16.68-9.016 22.625-6 5.95-15.273 8.922-27.812 8.922-5.563 0-9.985-.582-13.266-1.75-2.875 2.043-4.312 4.59-4.312 7.64 0 3.75 1.695 6.243 5.093 7.47 4.344 1.648 13.395 2.468 27.157 2.468 22.27 0 33.406 7.383 33.406 22.141 0 10.55-4.34 19.281-13.016 26.188C69.988 41.977 58.77 45.437 45 45.437c-14.125 0-24.195-2.562-30.203-7.687-6-5.125-9-11.293-9-18.5 0-6.563 1.476-11.84 4.437-15.828 2.957-3.977 6.633-6.438 11.032-7.375v-.797c-4.625-2.227-6.938-6.504-6.938-12.828 0-5.738 2.926-10.781 8.781-15.125v-.703c-3.105-1.52-6.062-4.094-8.875-7.719-2.812-3.633-4.218-8.148-4.218-13.547 0-9.312 3.078-16.894 9.234-22.75 6.156-5.863 15.063-8.797 26.719-8.797 9.55 0 17.05 1.73 22.5 5.188h.969c1.874-9.906 6.796-14.86 14.765-14.86 4.332 0 7.672.438 10.016 1.313zM78.484 14.859c0-5.511-2.007-9.398-6.015-11.656C68.457.953 60.91-.172 49.829-.172c-7.5 0-14.356-.351-20.563-1.062-7.149 3.457-10.72 8.523-10.72 15.203 0 14.3 9.376 21.453 28.126 21.453 9.781 0 17.523-1.906 23.234-5.719 5.719-3.805 8.578-8.75 8.578-14.844zM66.266-57.047c0-6.437-2.04-11.367-6.11-14.797C56.082-75.28 50.914-77 44.656-77c-5.93 0-10.886 1.656-14.875 4.969-3.98 3.312-5.968 8.015-5.968 14.11 0 6.386 2.035 11.25 6.109 14.593 4.07 3.336 9.3 5 15.687 5 5.864 0 10.77-1.625 14.72-4.875 3.956-3.25 5.937-7.863 5.937-13.844zm0 0"/></symbol></defs><use xlink:href="#d78ffc00a" x="76.49596" y="169"/></svg>