<?xml version='1.0' encoding='UTF-8'?>
<svg xmlns="http://www.w3.org/2000/svg" xmlns:xlink="http://www.w3.org/1999/xlink" width="250px" height="250px" viewBox="0 0 250 250" y="0px" x="0px" enable-background="new 0 0 250 250"><defs><symbol overflow="visible" id="30e2c5a4a"><path d="M88.422 39.984h-15.64c.519-16.054.78-31.93.78-47.625h-.968C66.563-.96 57.364 2.375 45 2.375c-11.074 0-19.89-4.086-26.453-12.266-6.563-8.175-9.844-17.89-9.844-29.14 0-12.657 3.57-23.742 10.719-33.266 7.144-9.52 17.254-14.281 30.328-14.281 10.664 0 18.488 1.937 23.469 5.812h.703l3.594-2.734 10.906-.969a1416.355 1416.355 0 0 0-1.234 59.25c0 23.668.41 45.399 1.234 65.203zM73.562-19.25c0-19.332-.261-36.207-.78-50.625-5.462-4.04-11.997-6.063-19.61-6.063-9.668 0-16.89 3.403-21.672 10.204-4.773 6.793-7.156 14.964-7.156 24.515 0 8.668 2.285 16.11 6.86 22.328 4.57 6.211 10.987 9.313 19.25 9.313 10.538 0 18.241-3.223 23.108-9.672zm0 0"/></symbol></defs><use xlink:href="#30e2c5a4a" x="75.00353" y="169"/></svg>