<?xml version='1.0' encoding='UTF-8'?>
<svg xmlns="http://www.w3.org/2000/svg" xmlns:xlink="http://www.w3.org/1999/xlink" width="250px" height="250px" viewBox="0 0 250 250" y="0px" x="0px" enable-background="new 0 0 250 250"><defs><symbol overflow="visible" id="edc4fdb5a"><path d="M77.61 0L63.812.531c-.711-2.875-1.063-5.597-1.063-8.172h-.875c-7.21 6.563-17.023 9.844-29.438 9.844-6.742 0-12.542-1.98-17.406-5.937-4.867-3.957-7.297-9.598-7.297-16.922 0-9.02 3.805-16.27 11.422-21.75 7.625-5.477 21.774-8.364 42.453-8.657.176-1.406.266-3.019.266-4.843 0-7.196-1.922-12-5.766-14.407-3.836-2.406-9.648-3.609-17.437-3.609-9.2 0-18.25 1.149-27.156 3.438l1.5-12.141c8.78-2.508 18.882-3.766 30.312-3.766 10.426 0 18.484 2.153 24.172 6.454 5.688 4.304 8.531 11.64 8.531 22.015 0 2.75-.136 7.746-.406 14.984-.262 7.243-.39 12.06-.39 14.454 0 10.668.788 20.164 2.374 28.484zM62.046-17.047c-.293-8.906-.438-16.906-.438-24-11.011 0-19.39.824-25.14 2.469-9.606 2.93-14.407 8.523-14.407 16.781 0 7.969 5.625 11.953 16.875 11.953 9.665 0 17.368-2.398 23.11-7.203zm0 0"/></symbol></defs><use xlink:href="#edc4fdb5a" x="80.88547" y="169"/></svg>