<?xml version='1.0' encoding='UTF-8'?>
<svg xmlns="http://www.w3.org/2000/svg" xmlns:xlink="http://www.w3.org/1999/xlink" width="250px" height="250px" viewBox="0 0 250 250" y="0px" x="0px" enable-background="new 0 0 250 250"><defs><symbol overflow="visible" id="014cca3aa"><path d="M122-50.89c0-9.376-1.633-15.567-4.89-18.579-3.25-3.02-8.594-4.531-16.032-4.531-6.273 0-12.746 3.074-19.422 9.219a621.476 621.476 0 0 0-.36 21.015c0 9.782.177 24.371.532 43.766h-16a660.925 660.925 0 0 0 1.938-50.89c0-9.376-1.625-15.567-4.875-18.579C59.64-72.489 54.438-74 47.28-74c-7.324 0-14.18 3.074-20.562 9.219 0 18.574.117 40.168.36 64.781h-16c1.112-19.926 1.671-34.344 1.671-43.25 0-13.531-1.32-26.828-3.953-39.89l15.469-2.204 1.578 10.64h.875C34.332-82.491 42.8-86.39 52.125-86.39c13.883 0 22.816 3.899 26.797 11.688h.969c8.851-7.79 17.582-11.688 26.187-11.688 9.844 0 17.285 2.168 22.328 6.5 5.04 4.336 7.563 11.98 7.563 22.938 0 1.117-.063 3.312-.188 6.594-.117 3.28-.172 5.48-.172 6.593 0 9.782.118 24.371.36 43.766h-16C121.32-15.352 122-32.316 122-50.89zm0 0"/></symbol></defs><use xlink:href="#014cca3aa" x="51.38799" y="169"/></svg>