<?xml version='1.0' encoding='UTF-8'?>
<svg xmlns="http://www.w3.org/2000/svg" xmlns:xlink="http://www.w3.org/1999/xlink" width="250px" height="250px" viewBox="0 0 250 250" y="0px" x="0px" enable-background="new 0 0 250 250"><defs><symbol overflow="visible" id="36bda3d3a"><path d="M64.688-83.5l-3.954 13.984c-4.574-1.82-8.824-2.734-12.75-2.734-11.011 0-18.156 5.246-21.437 15.734 0 26.961.176 45.797.531 56.516H11.516c.937-18.57 1.406-32.988 1.406-43.25 0-13.883-1.375-27.18-4.125-39.89l15.375-2.204c1.113 6.45 1.672 10.758 1.672 12.922h.703c6.32-9.312 13.703-13.969 22.14-13.969 4.458 0 9.79.965 16 2.891zm0 0"/></symbol></defs><use xlink:href="#36bda3d3a" x="93.13219" y="169"/></svg>