<?xml version='1.0' encoding='UTF-8'?>
<svg xmlns="http://www.w3.org/2000/svg" xmlns:xlink="http://www.w3.org/1999/xlink" width="250px" height="250px" viewBox="0 0 250 250" y="0px" x="0px" enable-background="new 0 0 250 250"><defs><symbol overflow="visible" id="6c867f5ca"><path d="M59.766-12.125L58.719-.703C54.082.992 49.71 1.844 45.609 1.844c-10.543 0-17.75-2.676-21.625-8.031-3.867-5.364-5.797-14.961-5.797-28.797 0-8.957.063-20.645.188-35.063-3.281 0-8.117.18-14.5.531l.516-12.75c5.57.356 10.554.532 14.953.532 0-3.52.289-11.868.875-25.047l13.797-1.406c-1 12.304-1.5 21.12-1.5 26.453 5.75 0 14.187-.297 25.312-.891l-.61 13.11c-10.554-.352-19.023-.532-25.406-.532-.117 8.844-.171 18.805-.171 29.875 0 12.074 1.27 20.059 3.812 23.953 2.55 3.899 7.285 5.844 14.203 5.844 2.29 0 5.66-.582 10.11-1.75zm0 0"/></symbol></defs><use xlink:href="#6c867f5ca" x="92.73713" y="169"/></svg>