<?xml version='1.0' encoding='UTF-8'?>
<svg xmlns="http://www.w3.org/2000/svg" xmlns:xlink="http://www.w3.org/1999/xlink" width="250px" height="250px" viewBox="0 0 250 250" y="0px" x="0px" enable-background="new 0 0 250 250"><defs><symbol overflow="visible" id="e14c8c0ea"><path d="M91.844-44.297c0 15-4.309 26.703-12.922 35.11C70.305-.781 60.172 3.421 48.516 3.421c-10.899 0-20.258-3.719-28.078-11.156-7.825-7.438-11.735-17.926-11.735-31.47 0-15.112 4.317-26.913 12.953-35.405 8.645-8.5 18.801-12.75 30.469-12.75 10.895 0 20.238 3.765 28.031 11.296 7.79 7.524 11.688 18.11 11.688 31.766zM76.64-41.219c0-9.144-2.305-17.273-6.907-24.39-4.593-7.125-11.14-10.688-19.64-10.688-8.438 0-14.93 3.371-19.469 10.11-4.543 6.742-6.813 14.562-6.813 23.468 0 9.2 2.301 17.344 6.907 24.438 4.601 7.093 11.18 10.64 19.734 10.64 8.438 0 14.91-3.382 19.422-10.156 4.508-6.77 6.766-14.578 6.766-23.422zm0 0"/></symbol></defs><use xlink:href="#e14c8c0ea" x="74.78406" y="169"/></svg>