<?xml version='1.0' encoding='UTF-8'?>
<svg xmlns="http://www.w3.org/2000/svg" xmlns:xlink="http://www.w3.org/1999/xlink" width="250px" height="250px" viewBox="0 0 250 250" y="0px" x="0px" enable-background="new 0 0 250 250"><defs><symbol overflow="visible" id="70a4806da"><path d="M27.516 0H11.609c.813-11.719 1.22-25.11 1.22-40.172 0-16.926-1.028-31.133-3.079-42.625l17.578-2.375c-.7 12.25-1.047 27.25-1.047 45 0 14.063.41 27.453 1.235 40.172zm3.687-109.86c0 2.993-.969 5.587-2.906 7.782-1.93 2.187-4.652 3.281-8.172 3.281-2.992 0-5.32-.945-6.984-2.844-1.668-1.906-2.5-4.207-2.5-6.906 0-2.926.992-5.473 2.984-7.64 1.988-2.165 4.742-3.25 8.266-3.25 2.863 0 5.129.953 6.797 2.859 1.675 1.898 2.515 4.137 2.515 6.719zm0 0"/></symbol></defs><use xlink:href="#70a4806da" x="105.4228" y="169"/></svg>