<?xml version='1.0' encoding='UTF-8'?>
<svg xmlns="http://www.w3.org/2000/svg" xmlns:xlink="http://www.w3.org/1999/xlink" width="250px" height="250px" viewBox="0 0 250 250" y="0px" x="0px" enable-background="new 0 0 250 250"><defs><symbol overflow="visible" id="c916fae8a"><path d="M75.5-13.453l-.875 11.781c-4.75 2.695-11.11 4.047-19.078 4.047-15.18 0-26.781-4.188-34.813-12.563-8.023-8.382-12.03-18.492-12.03-30.328 0-12.539 4.218-23.32 12.655-32.343 8.438-9.02 19.598-13.532 33.485-13.532 6.968 0 12.648.704 17.047 2.11l-2.375 13.797c-6.149-2.29-12.387-3.438-18.72-3.438-8.312 0-14.933 2.902-19.858 8.703-4.918 5.805-7.375 13.07-7.375 21.797 0 9.492 2.925 17.402 8.78 23.734 5.864 6.325 14.157 9.485 24.876 9.485 4.394 0 10.488-1.082 18.281-3.25zm0 0"/></symbol></defs><use xlink:href="#c916fae8a" x="84.39707" y="169"/></svg>