<?xml version='1.0' encoding='UTF-8'?>
<svg xmlns="http://www.w3.org/2000/svg" xmlns:xlink="http://www.w3.org/1999/xlink" width="250px" height="250px" viewBox="0 0 250 250" y="0px" x="0px" enable-background="new 0 0 250 250"><defs><symbol overflow="visible" id="f8512536a"><path d="M82.625-83.5c0 2.875-5.938 16.719-17.813 41.531C52.945-17.156 47.017-3.164 47.017 0H35.25c0-4.102-5.23-18.441-15.688-43.016C9.102-67.598 3.876-81.094 3.876-83.5h17.047c0 2.813 3.805 13.977 11.422 33.484 7.613 19.512 11.422 30.672 11.422 33.485h.797c0-2.688 3.613-13.438 10.843-32.25 7.239-18.813 10.86-30.383 10.86-34.719zm0 0"/></symbol></defs><use xlink:href="#f8512536a" x="81.80727" y="169"/></svg>