<?xml version="1.0" encoding="UTF-8"?><svg enable-background="new 0 0 250 250" height="250px" viewBox="0 0 250 250" width="250px" x="0px" xml:space="preserve" xmlns="http://www.w3.org/2000/svg" xmlns:xlink="http://www.w3.org/1999/xlink" y="0px"><defs><symbol id="7e33c0b2a" overflow="visible"><path d="M40.344-84.078v7.625l-3.719.36c-2.125.179-3.648.577-4.563 1.202-.917.618-1.374 1.485-1.374 2.61 0 .594.265 1.543.796 2.844.114.292.203.527.266.703l17.469 44.609 15.968-42.39-.718-2.657c-.762-2.664-2.031-4.547-3.813-5.64-1.773-1.094-4.492-1.641-8.156-1.641h-1.234v-7.625h39.906v7.625l-5.688.36c-1.824.124-3.152.484-3.984 1.077-.824.586-1.234 1.496-1.234 2.735 0 .531.129 1.246.39 2.14.27.887.696 2.094 1.281 3.625l16.329 42.032 13.39-38.485c.114-.238.235-.535.36-.89 1-2.77 1.5-4.926 1.5-6.47 0-1.894-.79-3.39-2.36-4.484-1.562-1.093-3.734-1.64-6.515-1.64H103.5v-7.625h32.89v7.547c-3.667.18-6.699 1.273-9.093 3.281-2.387 2.012-4.383 5.172-5.984 9.484L97.374 2.922h-6.031L69.704-55.25 48.327 2.922h-5.672L14.36-69.172c-1.062-2.664-2.437-4.531-4.125-5.594-1.68-1.062-4.171-1.625-7.484-1.687v-7.625zm0 0"/></symbol></defs><use x="55.781" xlink:href="#7e33c0b2a" y="169"/></svg>