<?xml version="1.0" encoding="UTF-8"?><svg enable-background="new 0 0 250 250" height="250px" viewBox="0 0 250 250" width="250px" x="0px" xml:space="preserve" xmlns="http://www.w3.org/2000/svg" xmlns:xlink="http://www.w3.org/1999/xlink" y="0px"><defs><symbol id="d3c7d03ba" overflow="visible"><path d="M5.594 0v-7.797l7.797-.187c2.601-.239 4.257-.754 4.968-1.547.707-.801 1.063-2.531 1.063-5.188v-61.906H4.516v-7.453h14.906v-3.813c0-15.363 2.836-26.914 8.515-34.656 5.676-7.75 14.098-11.625 25.266-11.625 7.508 0 13.54 1.672 18.094 5.016 4.55 3.336 6.828 7.687 6.828 13.062 0 3.2-.918 5.762-2.75 7.688-1.836 1.918-4.2 2.875-7.094 2.875-2.656 0-4.918-.93-6.781-2.797-1.867-1.863-2.797-4.125-2.797-6.781 0-1.477.473-3.133 1.422-4.97.945-1.831 1.422-2.984 1.422-3.452 0-1.07-.61-1.914-1.828-2.531-1.211-.626-2.907-.938-5.094-.938-6.563 0-11.309 3.063-14.234 9.188-2.93 6.117-4.391 16.21-4.391 30.28v3.454h19.422v7.453H36v61.906c0 2.719.41 4.524 1.234 5.406.832.887 2.407 1.329 4.72 1.329H53.03V0zm0 0"/></symbol></defs><use x="93.872" xlink:href="#d3c7d03ba" y="169"/></svg>