<?xml version="1.0" encoding="UTF-8"?><svg enable-background="new 0 0 250 250" height="250px" viewBox="0 0 250 250" width="250px" x="0px" xml:space="preserve" xmlns="http://www.w3.org/2000/svg" xmlns:xlink="http://www.w3.org/1999/xlink" y="0px"><defs><symbol id="9791179fa" overflow="visible"><path d="M32.547-70.5c3.375-5.563 7.258-9.703 11.656-12.422C48.61-85.64 53.617-87 59.234-87c10.47 0 19.192 4.184 26.172 12.547 6.977 8.367 10.469 18.965 10.469 31.797 0 13.367-3.523 24.336-10.563 32.906-7.03 8.574-15.84 12.86-26.421 12.86-5.5 0-10.235-1.04-14.203-3.11-3.961-2.07-7.653-5.41-11.079-10.016v33.25c0 2.602.383 4.317 1.157 5.141.77.832 2.453 1.305 5.047 1.422l7.64.36v7.624H3.11v-7.625l7.704-.36c2.601-.116 4.257-.573 4.968-1.374.707-.805 1.063-2.531 1.063-5.188V-68.64c0-3.07-.594-5.109-1.782-6.109-1.18-1.008-3.656-1.516-7.437-1.516-.469 0-1.21.032-2.219.094-1 .055-1.765.078-2.297.078v-7.797l29.438-2.218zm44.61 28.906c0-12.062-1.673-20.883-5.016-26.468-3.336-5.594-8.61-8.391-15.829-8.391-7.98 0-13.761 2.734-17.343 8.203-3.574 5.469-5.36 14.355-5.36 26.656 0 12.18 1.727 21 5.188 26.469 3.457 5.469 9 8.203 16.625 8.203 7.457 0 12.941-2.789 16.453-8.375 3.52-5.582 5.281-14.348 5.281-26.297zm0 0"/></symbol></defs><use x="74.139" xlink:href="#9791179fa" y="169"/></svg>