<?xml version="1.0" encoding="UTF-8"?><svg enable-background="new 0 0 250 250" height="250px" viewBox="0 0 250 250" width="250px" x="0px" xml:space="preserve" xmlns="http://www.w3.org/2000/svg" xmlns:xlink="http://www.w3.org/1999/xlink" y="0px"><defs><symbol id="7623cb96a" overflow="visible"><path d="M76.094-41.234c0-12.301-1.762-21.332-5.281-27.094-3.524-5.77-9.032-8.656-16.532-8.656-7.636 0-13.168 2.824-16.593 8.468-3.43 5.649-5.141 14.743-5.141 27.282 0 12.648 1.785 21.808 5.36 27.484 3.581 5.68 9.363 8.516 17.343 8.516 7.207 0 12.484-2.88 15.828-8.641 3.344-5.77 5.016-14.89 5.016-27.36zM32.547-73.97c2.894-4.375 6.426-7.64 10.594-9.797C47.305-85.922 52.17-87 57.734-87c10.875 0 19.711 4.14 26.516 12.422 6.8 8.273 10.203 19.148 10.203 32.625 0 13.367-3.387 24.219-10.156 32.562-6.774 8.336-15.508 12.5-26.203 12.5-6.211 0-11.742-1.199-16.594-3.593-4.844-2.395-9.543-6.286-14.094-11.672L19.063 2.219h-6.204c1.063-5.32 1.813-10.02 2.25-14.094.446-4.082.672-8.047.672-11.89v-94.266c0-2.906-.652-4.844-1.953-5.813-1.293-.976-3.95-1.469-7.969-1.469-.53 0-1.406.032-2.625.094-1.21.055-2.168.078-2.875.078v-7.093l32.188-2.203zm0 0"/></symbol></defs><use x="74.139" xlink:href="#7623cb96a" y="169"/></svg>