<?xml version="1.0" encoding="UTF-8"?><svg enable-background="new 0 0 250 250" height="250px" viewBox="0 0 250 250" width="250px" x="0px" xml:space="preserve" xmlns="http://www.w3.org/2000/svg" xmlns:xlink="http://www.w3.org/1999/xlink" y="0px"><defs><symbol id="f89e1c7ea" overflow="visible"><path d="M5.063 0v-7.625l8.687-.36c2.477-.113 4.129-.597 4.953-1.452.832-.864 1.25-2.626 1.25-5.282V-118.03c0-2.906-.652-4.844-1.953-5.813-1.305-.976-3.965-1.469-7.984-1.469-.47 0-1.297.032-2.485.094a63.11 63.11 0 0 1-2.828.078v-7.093l31.828-2.203V-14.72c0 2.656.399 4.418 1.203 5.281.801.856 2.473 1.34 5.016 1.454l7.89.359V0zm0 0"/></symbol></defs><use x="97.685" xlink:href="#f89e1c7ea" y="169"/></svg>