<?xml version="1.0" encoding="UTF-8"?><svg enable-background="new 0 0 250 250" height="250px" viewBox="0 0 250 250" width="250px" x="0px" xml:space="preserve" xmlns="http://www.w3.org/2000/svg" xmlns:xlink="http://www.w3.org/1999/xlink" y="0px"><defs><symbol id="9cdd09e6a" overflow="visible"><path d="M19.25-118.031c0-2.906-.668-4.844-2-5.813-1.336-.976-4.07-1.469-8.203-1.469-.469 0-1.313.032-2.531.094-1.211.055-2.168.078-2.875.078v-7.093l32.093-2.203v64.546c3.614-5.488 7.797-9.593 12.547-12.312 4.758-2.727 10.157-4.094 16.188-4.094 8.695 0 15.437 2.531 20.219 7.594 4.789 5.055 7.187 12.219 7.187 21.5v42.484c0 2.656.383 4.418 1.156 5.281.77.856 2.395 1.34 4.875 1.454l7.813.359V0H61.906v-7.625l7.797-.36c2.426-.113 4.035-.613 4.828-1.5.801-.882 1.203-2.628 1.203-5.234v-43.187c0-5.5-1.449-9.727-4.343-12.688-2.899-2.957-7.008-4.437-12.329-4.437-7.742 0-13.593 2.558-17.562 7.672-3.96 5.117-5.938 12.668-5.938 22.656v29.984c0 2.781.395 4.574 1.188 5.375.8.793 2.414 1.246 4.844 1.36l7.797.359V0H5.406v-7.625l7.625-.36c2.54-.113 4.211-.597 5.016-1.452.8-.864 1.203-2.626 1.203-5.282zm0 0"/></symbol></defs><use x="70.148" xlink:href="#9cdd09e6a" y="169"/></svg>