<?xml version="1.0" encoding="UTF-8"?><svg enable-background="new 0 0 250 250" height="250px" viewBox="0 0 250 250" width="250px" x="0px" xml:space="preserve" xmlns="http://www.w3.org/2000/svg" xmlns:xlink="http://www.w3.org/1999/xlink" y="0px"><defs><symbol id="cde77a25a" overflow="visible"><path d="M69.172-13.484C65.859-8.098 61.969-4.07 57.5-1.406c-4.46 2.656-9.465 3.984-15.016 3.984-10.586 0-19.308-4.148-26.172-12.453-6.855-8.313-10.28-19.004-10.28-32.078 0-13 3.5-23.754 10.5-32.266C23.538-82.739 32.304-87 42.827-87c5.383 0 10.098 1.055 14.14 3.156 4.052 2.094 7.766 5.387 11.141 9.875v-44.062c0-2.844-.668-4.739-2-5.688-1.324-.945-4.414-1.422-9.265-1.422h-6.375v-7.093l34.312-2.203v119c0 3.085.617 5.132 1.86 6.14 1.238 1 3.843 1.5 7.812 1.5h4.156V0L69.172 2.047zM24.75-42.297c0 12.242 1.71 21.11 5.14 26.61 3.426 5.492 8.954 8.234 16.579 8.234 7.508 0 12.992-2.774 16.453-8.328 3.457-5.563 5.187-14.399 5.187-26.516 0-12.187-1.73-21.016-5.187-26.484-3.461-5.469-9-8.203-16.625-8.203-7.45 0-12.902 2.78-16.36 8.343-3.46 5.555-5.187 14.336-5.187 26.344zm0 0"/></symbol></defs><use x="74.228" xlink:href="#cde77a25a" y="169"/></svg>