<?xml version="1.0" encoding="UTF-8"?><svg enable-background="new 0 0 250 250" height="250px" viewBox="0 0 250 250" width="250px" x="0px" xml:space="preserve" xmlns="http://www.w3.org/2000/svg" xmlns:xlink="http://www.w3.org/1999/xlink" y="0px"><defs><symbol id="0a1dd55ca" overflow="visible"><path d="M51.266 2.922h-5.688l-31.39-72.094c-1.18-2.844-2.594-4.766-4.25-5.766-1.657-1.007-4.172-1.515-7.547-1.515H1.062v-7.625h40.704v7.547c-4.493.18-7.434.562-8.828 1.156-1.387.586-2.079 1.617-2.079 3.094 0 .418.145 1.058.438 1.922.3.855.836 2.168 1.61 3.937L52.5-21.282l16.14-41.765c.645-1.719 1.114-3.148 1.407-4.297.3-1.156.453-2.148.453-2.984 0-1.945-.875-3.453-2.625-4.516-1.742-1.07-4.203-1.61-7.39-1.61h-2.047v-7.624h35.296l-.078 7.625c-3.793.125-6.84 1.121-9.14 2.984-2.305 1.856-4.371 5.09-6.204 9.703zm0 0"/></symbol></defs><use x="77.598" xlink:href="#0a1dd55ca" y="169"/></svg>