<?xml version="1.0" encoding="UTF-8"?><svg enable-background="new 0 0 250 250" height="250px" viewBox="0 0 250 250" width="250px" x="0px" xml:space="preserve" xmlns="http://www.w3.org/2000/svg" xmlns:xlink="http://www.w3.org/1999/xlink" y="0px"><defs><symbol id="e0ccd4bca" overflow="visible"><path d="M4.875 0v-7.625l8.156-.36c2.489-.113 4.145-.597 4.969-1.452.832-.864 1.25-2.626 1.25-5.282V-118.03c0-2.906-.652-4.844-1.953-5.813-1.305-.976-3.996-1.469-8.078-1.469-.406 0-1.203.032-2.39.094a63.27 63.27 0 0 1-2.845.078v-7.093l31.75-2.203v89.921l28.032-25.64a8.083 8.083 0 0 0 1.5-2.031c.414-.77.625-1.422.625-1.954 0-1.062-.7-1.828-2.094-2.296-1.387-.477-3.762-.72-7.125-.72h-5.86v-6.921h46.563v6.922h-1.156c-4.606 0-8.89.918-12.86 2.75-3.96 1.836-9.043 5.62-15.25 11.36l-9.218 8.593L87.359-16.5c2.239 3.023 4.735 5.215 7.485 6.578 2.75 1.356 6.222 2.121 10.422 2.297L105.359 0H58.438v-7.625l5.421-.36c2.657-.113 4.38-.363 5.172-.75.801-.382 1.235-1.05 1.297-2 0-.882-.508-2.003-1.516-3.359a.742.742 0 0 0-.171-.265L46.828-43.812 35.734-33.97v19.25c0 2.656.399 4.418 1.203 5.281.801.856 2.5 1.34 5.094 1.454l7.89.359V0zm0 0"/></symbol></defs><use x="72.232" xlink:href="#e0ccd4bca" y="169"/></svg>