<?xml version="1.0" encoding="UTF-8"?><svg enable-background="new 0 0 250 250" height="250px" viewBox="0 0 250 250" width="250px" x="0px" xml:space="preserve" xmlns="http://www.w3.org/2000/svg" xmlns:xlink="http://www.w3.org/1999/xlink" y="0px"><defs><symbol id="b5ca0f7da" overflow="visible"><path d="M62.516-45.234c-13.532 1.78-23.375 4.539-29.532 8.265-6.148 3.719-9.218 8.774-9.218 15.157 0 4.906 1.195 8.59 3.593 11.046 2.395 2.45 5.989 3.672 10.782 3.672 7.5 0 13.437-2.3 17.812-6.906 4.375-4.613 6.563-11.031 6.563-19.25zm1.078 33.609c-3.555 4.438-8.258 7.977-14.11 10.61-5.855 2.624-12 3.937-18.437 3.937-7.637 0-13.715-2.012-18.235-6.031-4.523-4.02-6.78-9.399-6.78-16.141 0-8.688 4.398-15.676 13.202-20.969 8.813-5.289 23.239-9.562 43.282-12.812v-8.688c0-6.625-1.465-11.191-4.391-13.703-2.918-2.508-7.953-3.766-15.11-3.766-4.792 0-8.714.637-11.765 1.907-3.043 1.273-4.563 2.824-4.563 4.656 0 .293.723 1.477 2.172 3.547 1.457 2.062 2.188 4.25 2.188 6.562 0 2.836-.844 5.063-2.531 6.688-1.688 1.625-3.98 2.437-6.875 2.437-3.375 0-6.012-.914-7.907-2.75-1.886-1.832-2.828-4.375-2.828-7.625 0-6.675 3.266-12.218 9.797-16.625C27.234-84.797 35.645-87 45.938-87c11.707 0 20.175 2.102 25.406 6.297 5.226 4.2 7.844 11.058 7.844 20.578V-18c0 2.781.562 4.867 1.687 6.25 1.125 1.387 2.813 2.078 5.063 2.078 1.175 0 2.624-.41 4.343-1.234 1.719-.832 2.867-1.25 3.453-1.25.532 0 1.02.281 1.47.844.444.562.671 1.261.671 2.093 0 2.418-1.746 4.856-5.234 7.313C87.148.55 83.219 1.78 78.844 1.78c-4.086 0-7.446-1.152-10.078-3.453-2.625-2.312-4.352-5.629-5.172-9.953zm0 0"/></symbol></defs><use x="77.509" xlink:href="#b5ca0f7da" y="169"/></svg>