<?xml version="1.0" encoding="UTF-8"?><svg enable-background="new 0 0 250 250" height="250px" viewBox="0 0 250 250" width="250px" x="0px" xml:space="preserve" xmlns="http://www.w3.org/2000/svg" xmlns:xlink="http://www.w3.org/1999/xlink" y="0px"><defs><symbol id="b8bb3275a" overflow="visible"><path d="M1.422 0L1.5-7.625c3.375-.238 6.172-.875 8.39-1.906 2.22-1.031 4.536-2.938 6.954-5.719l22.968-25.813L14.547-71.39c-1.48-1.894-3.063-3.21-4.75-3.953-1.688-.738-3.805-1.11-6.344-1.11h-.875v-7.624h41.938v6.922c-4.25.062-7.043.32-8.375.765-1.336.438-2 1.133-2 2.079 0 .585.175 1.218.53 1.906.352.68 1.095 1.699 2.22 3.062L49.92-53.39l12.517-13.75c.769-.882 1.359-1.796 1.765-2.734.414-.945.625-1.805.625-2.578 0-1.656-.844-2.852-2.531-3.594-1.688-.738-4.422-1.11-8.203-1.11v-6.921h36.36v7.547c-3.25.117-5.946.633-8.079 1.547-2.125.918-4.516 2.855-7.172 5.812L54.813-46.64 78.124-16.5l.188.266c4.55 5.855 9.753 8.78 15.609 8.78V0H49.75l.094-7.625c4.02-.113 6.828-.438 8.422-.969 1.593-.539 2.39-1.367 2.39-2.484 0-.54-.164-1.117-.484-1.735-.324-.624-1.078-1.734-2.266-3.328l-13.203-18-14.906 15.953c-.824.95-1.461 1.856-1.906 2.72-.45.855-.672 1.667-.672 2.437 0 2.062.781 3.48 2.343 4.25 1.57.773 4.665 1.156 9.282 1.156V0zm0 0"/></symbol></defs><use x="77.243" xlink:href="#b8bb3275a" y="169"/></svg>