<?xml version="1.0" encoding="UTF-8"?><svg enable-background="new 0 0 250 250" height="250px" viewBox="0 0 250 250" width="250px" x="0px" xml:space="preserve" xmlns="http://www.w3.org/2000/svg" xmlns:xlink="http://www.w3.org/1999/xlink" y="0px"><defs><symbol id="3558bc15a" overflow="visible"><path d="M27.047-131.156c2.894 0 5.406 1.062 7.531 3.187 2.133 2.125 3.203 4.637 3.203 7.531 0 2.961-1.039 5.461-3.11 7.5-2.062 2.043-4.605 3.063-7.624 3.063-2.836 0-5.305-1.047-7.406-3.14-2.094-2.102-3.141-4.579-3.141-7.422 0-2.895 1.063-5.407 3.188-7.532s4.578-3.187 7.359-3.187zM36-6.031c0 14.187-2.809 24.945-8.422 32.281-5.617 7.332-13.836 11-24.656 11-5.676 0-10.3-1.438-13.875-4.313-3.57-2.867-5.36-6.511-5.36-10.937 0-3.2.977-5.79 2.922-7.766 1.95-1.98 4.461-2.968 7.532-2.968 2.78 0 5.027.796 6.734 2.39 1.719 1.594 2.578 3.692 2.578 6.297 0 2.25-.71 4.469-2.125 6.656-.293.47-.437.735-.437.797 0 .707.41 1.282 1.234 1.719.832.445 1.926.672 3.281.672 5.145 0 8.828-2.352 11.047-7.047 2.219-4.7 3.328-12.758 3.328-24.172V-69.89c0-2.832-.636-4.722-1.906-5.671-1.273-.946-4.215-1.422-8.828-1.422H2.219v-6.907L36-86.297zm0 0"/></symbol></defs><use x="100.035" xlink:href="#3558bc15a" y="169"/></svg>