<?xml version="1.0" encoding="UTF-8"?><svg enable-background="new 0 0 250 250" height="250px" viewBox="0 0 250 250" width="250px" x="0px" xml:space="preserve" xmlns="http://www.w3.org/2000/svg" xmlns:xlink="http://www.w3.org/1999/xlink" y="0px"><defs><symbol id="54b1fd24a" overflow="visible"><path d="M79.375-23.406C76-14.426 71.547-7.79 66.015-3.5 60.493.781 53.567 2.922 45.236 2.922c-11.65 0-21.122-4.004-28.422-12.016C9.508-17.102 5.858-27.582 5.858-40.53c0-13.895 3.868-25.114 11.61-33.657C25.219-82.727 35.39-87 47.984-87c8.446 0 15.422 1.996 20.922 5.984 5.5 3.993 8.25 8.977 8.25 14.954 0 3.96-1.11 7.12-3.328 9.484-2.219 2.367-5.164 3.547-8.828 3.547-3.125 0-5.695-.93-7.703-2.797-2.012-1.863-3.016-4.27-3.016-7.219 0-2.664.942-4.988 2.828-6.969 1.895-1.976 2.844-3.207 2.844-3.687 0-1.77-1.172-3.219-3.516-4.344-2.335-1.125-5.417-1.687-9.25-1.687-7.511 0-13.171 3.03-16.984 9.093-3.812 6.063-5.719 15.157-5.719 27.282 0 11.824 2.082 20.648 6.25 26.468 4.164 5.825 10.446 8.735 18.844 8.735 5.438 0 10.063-1.52 13.875-4.563 3.813-3.05 6.93-7.707 9.36-13.969zm0 0"/></symbol></defs><use x="84.294" xlink:href="#54b1fd24a" y="169"/></svg>