<?xml version="1.0" encoding="UTF-8"?><svg enable-background="new 0 0 250 250" height="250px" viewBox="0 0 250 250" width="250px" x="0px" xml:space="preserve" xmlns="http://www.w3.org/2000/svg" xmlns:xlink="http://www.w3.org/1999/xlink" y="0px"><defs><symbol id="ea5dc7c6a" overflow="visible"><path d="M36.188-14.719c0 2.719.378 4.496 1.14 5.328.77.825 2.399 1.293 4.89 1.407l10.985.359V0H5.406v-7.625l8.516-.36c2.476-.113 4.101-.581 4.875-1.406.77-.832 1.156-2.609 1.156-5.328V-69.89c0-2.894-.637-4.8-1.906-5.718-1.274-.914-4.274-1.375-9-1.375H3.64v-7.094l31.562-2.219v25.64c2.844-8.57 6.508-15.077 11-19.515 4.488-4.437 9.66-6.656 15.516-6.656 4.851 0 8.832 1.465 11.937 4.39 3.102 2.93 4.656 6.61 4.656 11.047 0 3.313-.996 6.024-2.984 8.125-1.98 2.094-4.508 3.141-7.578 3.141-3.313 0-5.93-.93-7.844-2.797-1.918-1.863-2.875-4.39-2.875-7.578 0-1.656.32-3.16.969-4.516.645-1.363 1.531-2.46 2.656-3.296h-1.062c-6.324 0-11.809 4.261-16.453 12.78-4.637 8.512-6.953 18.977-6.953 31.391zm0 0"/></symbol></defs><use x="84.693" xlink:href="#ea5dc7c6a" y="169"/></svg>