<?xml version="1.0" encoding="UTF-8"?><svg enable-background="new 0 0 250 250" height="250px" viewBox="0 0 250 250" width="250px" x="0px" xml:space="preserve" xmlns="http://www.w3.org/2000/svg" xmlns:xlink="http://www.w3.org/1999/xlink" y="0px"><defs><symbol id="79a76055a" overflow="visible"><path d="M8.344-33.25h6.562c2.239 9.219 5.914 16.281 11.031 21.188 5.114 4.906 11.368 7.359 18.766 7.359 5.79 0 10.414-1.375 13.875-4.125 3.457-2.75 5.188-6.399 5.188-10.953 0-3.782-1.184-6.66-3.547-8.64-2.367-1.977-7.54-3.767-15.516-5.36-14.844-3.082-24.437-6.645-28.781-10.688-4.344-4.05-6.516-9.976-6.516-17.781 0-7.457 2.301-13.414 6.906-17.875 4.614-4.469 10.735-6.703 18.36-6.703 4.789 0 8.941.547 12.453 1.64 3.52 1.094 7 2.915 10.438 5.454l5.312-6.375h5.594v30.156h-5.594c-2.543-7.863-6.09-13.79-10.64-17.781-4.555-4-10.055-6-16.5-6-4.844 0-8.805 1.187-11.876 3.562-3.074 2.367-4.609 5.352-4.609 8.953 0 6.969 7.238 11.875 21.719 14.719l.984.172c12.883 2.543 21.531 5.797 25.938 9.766 4.406 3.96 6.609 9.78 6.609 17.468 0 8.805-2.71 15.735-8.125 20.797-5.406 5.05-12.809 7.578-22.203 7.578-4.375 0-8.5-.726-12.375-2.172-3.875-1.445-7.703-3.68-11.485-6.703L14.36 2.75H8.344zm0 0"/></symbol></defs><use x="85.047" xlink:href="#79a76055a" y="169"/></svg>