<?xml version="1.0" encoding="UTF-8"?><svg enable-background="new 0 0 250 250" height="250px" viewBox="0 0 250 250" width="250px" x="0px" xml:space="preserve" xmlns="http://www.w3.org/2000/svg" xmlns:xlink="http://www.w3.org/1999/xlink" y="0px"><defs><symbol id="d985a4faa" overflow="visible"><path d="M25.625-44.344c0 13.242 1.695 22.79 5.094 28.64 3.406 5.856 8.894 8.782 16.468 8.782 7.446 0 12.942-2.742 16.485-8.234C67.222-20.656 69-29.234 69-40.891c0-13.656-1.746-23.363-5.234-29.125-3.493-5.757-9.258-8.64-17.297-8.64-7.094 0-12.344 2.793-15.75 8.375-3.399 5.586-5.094 14.23-5.094 25.937zm56.844-41.765h6.125c-.95 4.25-1.664 8.539-2.14 12.859a121.38 121.38 0 0 0-.704 13.125v83.36c0 2.6.383 4.316 1.156 5.14.77.832 2.395 1.305 4.875 1.422l7.719.36v7.624H55.078v-7.625l7.703-.36c2.551-.116 4.192-.573 4.922-1.374.738-.805 1.11-2.531 1.11-5.188v-33.25C65.507-5.523 61.89-2.21 57.953-.078c-3.93 2.125-8.406 3.187-13.437 3.187-10.875 0-19.86-4.226-26.953-12.687-7.094-8.457-10.641-19.25-10.641-32.375 0-13.531 3.516-24.422 10.547-32.672C24.508-82.875 33.766-87 45.234-87c5.438 0 10.52 1.246 15.25 3.734 4.727 2.48 9.282 6.32 13.657 11.516zm0 0"/></symbol></defs><use x="74.228" xlink:href="#d985a4faa" y="169"/></svg>