<?xml version="1.0" encoding="UTF-8"?><svg enable-background="new 0 0 250 250" height="250px" viewBox="0 0 250 250" width="250px" x="0px" xml:space="preserve" xmlns="http://www.w3.org/2000/svg" xmlns:xlink="http://www.w3.org/1999/xlink" y="0px"><defs><symbol id="1bdea6afa" overflow="visible"><path d="M43.016-2.219L14.188-68.64c-.711-1.476-1.418-2.718-2.126-3.718-.71-1.008-1.417-1.723-2.124-2.141-1.012-.645-2.305-1.129-3.876-1.453-1.562-.332-3.527-.5-5.89-.5v-7.625h42.312v7.625h-4.53c-2.962 0-4.915.273-5.86.812-.938.532-1.407 1.54-1.407 3.016 0 .355.102.871.313 1.547.207.68.723 2.055 1.547 4.125l19.25 44.25L69.89-66.328c.05-.063.14-.242.265-.547.469-1.29.703-2.441.703-3.453 0-2.25-.828-3.8-2.484-4.656-1.656-.852-5.059-1.344-10.203-1.47l-.078-7.624h35.11v7.625c-3.313 0-6.048.773-8.204 2.312-2.156 1.543-3.977 4.028-5.453 7.454L48.859 4.703c-5.086 11.82-10.375 20.29-15.875 25.406-5.492 5.114-11.933 7.672-19.328 7.672-5.261 0-9.37-1.246-12.328-3.734-2.957-2.48-4.437-5.906-4.437-10.281 0-3.012 1.039-5.555 3.109-7.625 2.07-2.075 4.672-3.11 7.797-3.11 2.906 0 5.21.813 6.922 2.438 1.719 1.633 2.578 3.812 2.578 6.531a8.218 8.218 0 0 1-.766 3.5c-.5 1.094-.75 1.664-.75 1.719 0 .656.297 1.16.89 1.515.595.352 1.392.532 2.392.532 3.195 0 6.878-2.59 11.046-7.766C34.273 16.332 38.16 9.398 41.766.703zm0 0"/></symbol></defs><use x="77.775" xlink:href="#1bdea6afa" y="169"/></svg>