<?xml version="1.0" encoding="UTF-8"?><svg enable-background="new 0 0 250 250" height="250px" viewBox="0 0 250 250" width="250px" x="0px" xml:space="preserve" xmlns="http://www.w3.org/2000/svg" xmlns:xlink="http://www.w3.org/1999/xlink" y="0px"><defs><symbol id="fa7e55a4a" overflow="visible"><path d="M33.781 1.781c-4.375.82-7.867 2.594-10.468 5.313-2.594 2.718-3.891 5.968-3.891 9.75 0 4.32 1.976 7.562 5.937 9.718 3.97 2.157 9.852 3.235 17.657 3.235 11.113 0 19.343-1.32 24.687-3.953 5.352-2.625 8.031-6.633 8.031-12.016 0-4.25-1.496-7.324-4.484-9.219-2.98-1.886-7.902-2.828-14.766-2.828zM27.22-57.03c0 7.636 1.492 13.304 4.484 17 2.988 3.687 7.613 5.531 13.875 5.531 6.445 0 11.176-1.816 14.188-5.453 3.02-3.633 4.53-9.328 4.53-17.078 0-7.739-1.526-13.457-4.577-17.157-3.043-3.695-7.696-5.546-13.953-5.546-6.274 0-10.934 1.851-13.985 5.546-3.043 3.7-4.562 9.418-4.562 17.157zm-.703 24.125c-5.2-2.364-9.075-5.598-11.625-9.703-2.543-4.114-3.813-9.157-3.813-15.125 0-8.633 3.223-15.672 9.672-21.11C27.195-84.28 35.535-87 45.766-87c4.843 0 9.14.563 12.89 1.688A32.597 32.597 0 0 1 69-80.079l2.563-2.219c3.312-2.719 6.222-4.664 8.734-5.844 2.52-1.187 5.05-1.78 7.594-1.78 3.539 0 6.242.976 8.109 2.921 1.863 1.95 2.797 4.73 2.797 8.344 0 2.304-.774 4.18-2.313 5.625-1.53 1.449-3.48 2.172-5.843 2.172-3.668 0-6.184-1.625-7.547-4.875-1.356-3.25-2.121-4.875-2.297-4.875-.305 0-.649.12-1.031.359-.387.23-1.047.762-1.985 1.594l-3.812 2.922c2.238 2.43 3.875 5.09 4.906 7.984 1.04 2.898 1.563 6.234 1.563 10.016 0 9.168-3.54 16.43-10.61 21.78-7.062 5.345-16.773 8.017-29.125 8.017-8.043 0-13.398.609-16.062 1.828-2.657 1.21-3.985 3.32-3.985 6.328 0 2.43.973 4.164 2.922 5.203 1.957 1.031 5.36 1.547 10.203 1.547h1.61l14.718-.453h9.485c10.164 0 17.508 1.777 22.031 5.328 4.531 3.543 6.797 9.219 6.797 17.031 0 9.332-3.996 16.453-11.984 21.36-7.981 4.913-19.54 7.374-34.672 7.374-11.887 0-21.094-1.656-27.625-4.968-6.532-3.313-9.797-7.953-9.797-13.922 0-4.086 1.625-7.653 4.875-10.703 3.25-3.043 7.742-5.184 13.484-6.422-4.906-1.18-8.5-3.051-10.781-5.625-2.274-2.57-3.406-6.078-3.406-10.516 0-4.789 1.593-8.812 4.78-12.062 3.196-3.25 7.602-5.348 13.22-6.297zm0 0"/></symbol></defs><use x="77.509" xlink:href="#fa7e55a4a" y="169"/></svg>