<?xml version="1.0" encoding="UTF-8"?><svg enable-background="new 0 0 250 250" height="250px" viewBox="0 0 250 250" width="250px" x="0px" xml:space="preserve" xmlns="http://www.w3.org/2000/svg" xmlns:xlink="http://www.w3.org/1999/xlink" y="0px"><defs><symbol id="4f2c9fe6a" overflow="visible"><path d="M24.75-48.516h33.688c2.539 0 4.238-.41 5.093-1.234.864-.832 1.297-2.344 1.297-4.531 0-8.219-1.656-14.516-4.969-18.89-3.312-4.376-8.074-6.563-14.28-6.563-6.856 0-11.997 2.574-15.423 7.718-3.43 5.149-5.23 12.98-5.406 23.5zm-.266 7.813c0 .469-.03 1.105-.093 1.906a24.757 24.757 0 0 0-.094 1.734c0 9.336 2.187 16.727 6.562 22.172 4.375 5.438 10.258 8.157 17.657 8.157 6.257 0 11.797-1.625 16.609-4.875 4.82-3.258 8.89-8.172 12.203-14.735l6.39 3.64C79.759-14.19 74.57-7.788 68.157-3.5c-6.418 4.281-14 6.422-22.75 6.422-11.648 0-21.12-4.133-28.422-12.406C9.68-17.766 6.031-28.586 6.031-41.954c0-13.413 3.649-24.273 10.953-32.577C24.285-82.844 33.758-87 45.406-87c11.82 0 21.16 3.844 28.016 11.531 6.863 7.688 10.297 18.184 10.297 31.485v3.28zm0 0"/></symbol></defs><use x="80.702" xlink:href="#4f2c9fe6a" y="169"/></svg>