<?xml version="1.0" encoding="UTF-8"?><svg enable-background="new 0 0 250 250" height="250px" viewBox="0 0 250 250" width="250px" x="0px" xml:space="preserve" xmlns="http://www.w3.org/2000/svg" xmlns:xlink="http://www.w3.org/1999/xlink" y="0px"><defs><symbol id="987aabb7a" overflow="visible"><path d="M105 0L73.969 2.219v-16.766c-4.2 6.094-8.68 10.563-13.438 13.406-4.761 2.832-10.215 4.25-16.36 4.25-8.75 0-15.523-2.527-20.312-7.578-4.793-5.062-7.187-12.234-7.187-21.515v-43.907c0-2.894-.652-4.828-1.953-5.796-1.305-.977-3.965-1.47-7.985-1.47-.53 0-1.402.032-2.609.094-1.21.055-2.172.079-2.89.079v-7.094l31.843-2.219v61.016c0 5.5 1.445 9.73 4.344 12.687 2.894 2.961 7.004 4.438 12.328 4.438 7.57 0 13.336-2.469 17.297-7.406 3.957-4.938 5.937-12.102 5.937-21.5v-32.829c0-2.894-.652-4.828-1.953-5.796-1.304-.977-4.023-1.47-8.156-1.47-.531 0-1.406.032-2.625.094-1.21.055-2.168.079-2.875.079v-7.094l32.203-2.219v72.11c0 2.898.645 4.835 1.938 5.812 1.3.969 3.96 1.453 7.984 1.453.531 0 1.398-.023 2.61-.078a59.555 59.555 0 0 1 2.89-.094zm0 0"/></symbol></defs><use x="70.326" xlink:href="#987aabb7a" y="169"/></svg>