<?xml version="1.0" encoding="UTF-8"?><svg enable-background="new 0 0 250 250" height="250px" viewBox="0 0 250 250" width="250px" x="0px" xml:space="preserve" xmlns="http://www.w3.org/2000/svg" xmlns:xlink="http://www.w3.org/1999/xlink" y="0px"><defs><symbol id="24970f22a" overflow="visible"><path d="M5.063 0v-7.625l8.687-.36c2.477-.113 4.129-.597 4.953-1.452.832-.864 1.25-2.626 1.25-5.282V-69.89c0-2.894-.652-4.828-1.953-5.796-1.305-.977-3.965-1.47-7.984-1.47-.47 0-1.297.032-2.485.094a63.11 63.11 0 0 1-2.828.079v-7.094l31.828-2.219v71.578c0 2.656.399 4.418 1.203 5.281.801.856 2.473 1.34 5.016 1.454l7.89.359V0zm22.703-131.344c2.945 0 5.5 1.055 7.656 3.156 2.164 2.094 3.25 4.622 3.25 7.579 0 3.011-1.07 5.554-3.203 7.625-2.125 2.074-4.696 3.109-7.703 3.109-2.907 0-5.414-1.063-7.516-3.188-2.094-2.132-3.14-4.648-3.14-7.546 0-2.895 1.046-5.407 3.14-7.532 2.102-2.132 4.61-3.203 7.516-3.203zm0 0"/></symbol></defs><use x="97.685" xlink:href="#24970f22a" y="169"/></svg>