<?xml version="1.0" encoding="UTF-8"?><svg enable-background="new 0 0 250 250" height="250px" viewBox="0 0 250 250" width="250px" x="0px" xml:space="preserve" xmlns="http://www.w3.org/2000/svg" xmlns:xlink="http://www.w3.org/1999/xlink" y="0px"><defs><symbol id="81c6aed6a" overflow="visible"><path d="M6.031-41.953c0-13.414 3.782-24.274 11.344-32.578C24.945-82.844 34.765-87 46.828-87c12.113 0 21.926 4.156 29.438 12.469 7.507 8.304 11.265 19.164 11.265 32.578 0 13.367-3.773 24.187-11.312 32.469C68.688-1.211 58.89 2.922 46.829 2.922c-12.063 0-21.884-4.133-29.454-12.406-7.563-8.282-11.344-19.102-11.344-32.47zm18.719 0c0 12.95 1.754 22.43 5.266 28.437 3.52 6 9.062 9 16.625 9 7.863 0 13.554-2.957 17.078-8.875C67.239-19.305 69-28.828 69-41.953c0-13.125-1.762-22.672-5.281-28.64-3.524-5.97-9.153-8.954-16.89-8.954-7.688 0-13.294 2.984-16.813 8.953-3.512 5.969-5.266 15.516-5.266 28.64zm0 0"/></symbol></defs><use x="78.219" xlink:href="#81c6aed6a" y="169"/></svg>