<?xml version="1.0" encoding="UTF-8"?><svg enable-background="new 0 0 250 250" height="250px" viewBox="0 0 250 250" width="250px" x="0px" xml:space="preserve" xmlns="http://www.w3.org/2000/svg" xmlns:xlink="http://www.w3.org/1999/xlink" y="0px"><defs><symbol id="c25326f0a" overflow="visible"><path d="M65.984-130.453v21.812H53.516v-21.812zm.297 43.344v78.656h33.203c2.07 0 3.547.387 4.422 1.156.875.774 1.313 1.797 1.313 3.078 0 1.2-.438 2.203-1.313 3.016C103.031-.398 101.555 0 99.484 0H24.641c-2.012 0-3.453-.398-4.328-1.203-.868-.813-1.297-1.817-1.297-3.016 0-1.281.43-2.304 1.297-3.078.875-.77 2.316-1.156 4.328-1.156h33.203v-70.11H33.187c-2.011 0-3.468-.398-4.374-1.203-.907-.8-1.36-1.804-1.36-3.015 0-1.27.438-2.305 1.313-3.11.875-.812 2.347-1.218 4.422-1.218zm0 0"/></symbol></defs><use x="63.266" xlink:href="#c25326f0a" y="169"/></svg>