<?xml version="1.0" encoding="UTF-8"?><svg enable-background="new 0 0 250 250" height="250px" viewBox="0 0 250 250" width="250px" x="0px" xml:space="preserve" xmlns="http://www.w3.org/2000/svg" xmlns:xlink="http://www.w3.org/1999/xlink" y="0px"><defs><symbol id="65546df5a" overflow="visible"><path d="M90.219-71.625v-15.484h19.828c2.008 0 3.445.406 4.312 1.218.875.805 1.313 1.84 1.313 3.11 0 1.21-.438 2.215-1.313 3.015-.867.805-2.304 1.204-4.312 1.204H98.672v84.39c0 5.633-1.211 10.664-3.625 15.094-1.606 2.945-4.29 5.992-8.047 9.14-3.75 3.157-7.168 5.407-10.25 6.75-3.086 1.344-7.21 2.016-12.375 2.016H40.437c-2.011 0-3.453-.387-4.328-1.156-.875-.774-1.312-1.793-1.312-3.063 0-1.28.437-2.324 1.312-3.125.875-.804 2.317-1.203 4.328-1.203l24.235.094c4.969 0 9.445-1.277 13.437-3.828 3.989-2.543 7.29-6.262 9.907-11.156 1.468-2.813 2.203-6.403 2.203-10.766v-25.344c-9.055 12.407-20.719 18.61-35 18.61-11.594 0-21.602-4.305-30.016-12.922-8.418-8.625-12.625-19.004-12.625-31.14 0-12.134 4.207-22.493 12.625-31.079 8.414-8.582 18.422-12.875 30.016-12.875 14.281 0 25.945 6.168 35 18.5zm0 25.453c0-9.926-3.403-18.305-10.203-25.14-6.805-6.844-14.934-10.266-24.391-10.266-9.46 0-17.574 3.437-24.344 10.312-6.773 6.875-10.156 15.243-10.156 25.094 0 9.93 3.383 18.328 10.156 25.203 6.77 6.875 14.883 10.313 24.344 10.313 9.457 0 17.586-3.438 24.39-10.313 6.801-6.875 10.204-15.273 10.204-25.203zm0 0"/></symbol></defs><use x="63.266" xlink:href="#65546df5a" y="169"/></svg>