<?xml version="1.0" encoding="UTF-8"?><svg enable-background="new 0 0 250 250" height="250px" viewBox="0 0 250 250" width="250px" x="0px" xml:space="preserve" xmlns="http://www.w3.org/2000/svg" xmlns:xlink="http://www.w3.org/1999/xlink" y="0px"><defs><symbol id="6d98f9ada" overflow="visible"><path d="M103.203-126.234v117.78h11.266c2.07 0 3.547.388 4.422 1.157.875.774 1.312 1.797 1.312 3.078 0 1.2-.437 2.203-1.312 3.016-.875.805-2.352 1.203-4.422 1.203H94.656v-16.797C84.863-3.39 72.422 3.313 57.328 3.313c-7.637 0-14.96-2.028-21.969-6.079-7.011-4.062-12.547-9.847-16.609-17.359-4.055-7.508-6.078-15.254-6.078-23.234 0-8.04 2.023-15.801 6.078-23.282 4.063-7.476 9.598-13.257 16.61-17.343 7.007-4.094 14.367-6.141 22.078-6.141 14.75 0 27.156 6.703 37.218 20.11v-47.672H83.391c-2.086 0-3.563-.399-4.438-1.204-.867-.8-1.297-1.843-1.297-3.125 0-1.207.43-2.21 1.297-3.015.875-.801 2.352-1.203 4.438-1.203zM94.656-43.36c0-10.727-3.625-19.782-10.875-27.157-7.242-7.375-15.855-11.062-25.844-11.062-10.062 0-18.714 3.687-25.953 11.062-7.242 7.375-10.859 16.43-10.859 27.157 0 10.668 3.617 19.71 10.86 27.125 7.238 7.406 15.89 11.109 25.953 11.109 9.988 0 18.601-3.703 25.843-11.11 7.25-7.413 10.875-16.456 10.875-27.124zm0 0"/></symbol></defs><use x="63.266" xlink:href="#6d98f9ada" y="169"/></svg>