<?xml version="1.0" encoding="UTF-8"?><svg enable-background="new 0 0 250 250" height="250px" viewBox="0 0 250 250" width="250px" x="0px" xml:space="preserve" xmlns="http://www.w3.org/2000/svg" xmlns:xlink="http://www.w3.org/1999/xlink" y="0px"><defs><symbol id="abaad9cda" overflow="visible"><path d="M67.594-45.563l38.719 37.11c2.55 0 4.16.121 4.828.36.675.23 1.265.714 1.765 1.452.5.743.75 1.547.75 2.422 0 1.2-.437 2.203-1.312 3.016-.867.805-2.34 1.203-4.422 1.203H80.766c-2.075 0-3.547-.398-4.422-1.203-.875-.813-1.313-1.817-1.313-3.016 0-1.281.438-2.304 1.313-3.078.875-.77 2.347-1.156 4.422-1.156H94.75L61.86-39.938 29.171-8.453H43.25c2.008 0 3.453.387 4.328 1.156.875.774 1.313 1.797 1.313 3.078 0 1.2-.438 2.203-1.313 3.016C46.703-.398 45.258 0 43.25 0H15.797c-2.012 0-3.453-.398-4.328-1.203-.875-.813-1.313-1.817-1.313-3.016 0-.875.25-1.68.75-2.422.508-.738 1.082-1.222 1.719-1.453.633-.238 2.227-.36 4.781-.36l38.719-37.108-34.39-33c-2.419 0-3.95-.13-4.594-.391-.637-.27-1.203-.774-1.703-1.516a4.233 4.233 0 0 1-.75-2.422c0-1.195.43-2.195 1.296-3 .875-.812 2.352-1.218 4.438-1.218h23.031c2.082 0 3.54.406 4.375 1.218.844.805 1.266 1.84 1.266 3.11 0 1.21-.422 2.215-1.266 3.015-.836.805-2.293 1.204-4.375 1.204H33.391l28.468 27.468 28.672-27.468H80.47c-2.012 0-3.469-.399-4.375-1.204-.906-.8-1.36-1.843-1.36-3.125 0-1.195.43-2.195 1.297-3 .875-.812 2.352-1.218 4.438-1.218H103.5c2.008 0 3.453.406 4.328 1.218.875.805 1.313 1.84 1.313 3.11 0 .804-.258 1.574-.766 2.312-.5.742-1.07 1.246-1.703 1.516-.637.262-2.164.39-4.578.39zm0 0"/></symbol></defs><use x="63.266" xlink:href="#abaad9cda" y="169"/></svg>