<?xml version="1.0" encoding="UTF-8"?><svg enable-background="new 0 0 250 250" height="250px" viewBox="0 0 250 250" width="250px" x="0px" xml:space="preserve" xmlns="http://www.w3.org/2000/svg" xmlns:xlink="http://www.w3.org/1999/xlink" y="0px"><defs><symbol id="caddf0c9a" overflow="visible"><path d="M73.938-130.453v21.812H61.453v-21.812zm.5 51.89H24.233c-2.011 0-3.453-.398-4.328-1.203-.867-.8-1.297-1.843-1.297-3.125 0-1.195.414-2.195 1.25-3 .844-.812 2.301-1.218 4.375-1.218h58.657V5.937c0 7.176-1.48 13.176-4.438 18-2.95 4.833-7.371 8.754-13.266 11.766-4.093 2.082-8.96 3.125-14.593 3.125h-26.86c-2.011 0-3.453-.387-4.328-1.156-.867-.774-1.297-1.793-1.297-3.063 0-1.28.43-2.324 1.297-3.125.875-.804 2.317-1.203 4.328-1.203l26.657.094c7.175 0 12.976-2.352 17.406-7.047 4.426-4.687 6.64-10.484 6.64-17.39zm0 0"/></symbol></defs><use x="63.266" xlink:href="#caddf0c9a" y="169"/></svg>