<?xml version="1.0" encoding="UTF-8"?><svg enable-background="new 0 0 250 250" height="250px" viewBox="0 0 250 250" width="250px" x="0px" xml:space="preserve" xmlns="http://www.w3.org/2000/svg" xmlns:xlink="http://www.w3.org/1999/xlink" y="0px"><defs><symbol id="ea23a04ea" overflow="visible"><path d="M94.547-71.719v-15.39h19.812c2.082 0 3.555.406 4.422 1.218.875.805 1.313 1.84 1.313 3.11 0 1.21-.438 2.215-1.313 3.015-.867.805-2.34 1.204-4.422 1.204h-11.265V30.374h11.265c2.082 0 3.555.383 4.422 1.156.875.77 1.313 1.797 1.313 3.078 0 1.196-.438 2.196-1.313 3-.867.813-2.34 1.22-4.422 1.22H74.125c-2.012 0-3.453-.388-4.328-1.157-.867-.774-1.297-1.793-1.297-3.063 0-1.28.43-2.308 1.297-3.078.875-.773 2.316-1.156 4.328-1.156h20.422v-50.89C85.223-8.243 72.988-2.11 57.844-2.11c-12.617 0-23.266-4.305-31.953-12.922-8.68-8.625-13.016-19.004-13.016-31.14 0-12.196 4.336-22.571 13.016-31.126 8.687-8.55 19.398-12.828 32.14-12.828 15.02 0 27.192 6.137 36.516 18.406zm0 25.547c0-9.719-3.555-18.047-10.656-24.984-7.106-6.946-15.758-10.422-25.954-10.422-10.187 0-18.84 3.476-25.953 10.422-7.105 6.937-10.656 15.265-10.656 24.984 0 9.73 3.55 18.086 10.656 25.063 7.114 6.968 15.766 10.453 25.953 10.453 10.196 0 18.848-3.485 25.954-10.453 7.101-6.977 10.656-15.332 10.656-25.063zm0 0"/></symbol></defs><use x="63.266" xlink:href="#ea23a04ea" y="169"/></svg>