<?xml version="1.0" encoding="UTF-8"?><svg enable-background="new 0 0 250 250" height="250px" viewBox="0 0 250 250" width="250px" x="0px" xml:space="preserve" xmlns="http://www.w3.org/2000/svg" xmlns:xlink="http://www.w3.org/1999/xlink" y="0px"><defs><symbol id="40ce21a5a" overflow="visible"><path d="M44.453-87.11h45.875c2.008 0 3.445.407 4.313 1.22.875.804 1.312 1.84 1.312 3.109 0 1.21-.437 2.215-1.312 3.015-.868.805-2.305 1.204-4.313 1.204H44.453v56.234c0 4.898 1.961 8.992 5.89 12.281 3.927 3.281 9.677 4.922 17.25 4.922 5.696 0 11.864-.852 18.5-2.563 6.645-1.718 11.813-3.648 15.5-5.796 1.344-.864 2.446-1.297 3.313-1.297 1.07 0 2.008.422 2.813 1.265.812.836 1.219 1.82 1.219 2.954 0 1.011-.438 1.949-1.313 2.812-2.148 2.219-7.36 4.621-15.64 7.203-8.282 2.57-16.212 3.86-23.782 3.86-9.867 0-17.715-2.313-23.547-6.938-5.836-4.625-8.75-10.86-8.75-18.703v-56.234H20.313c-2.012 0-3.454-.399-4.329-1.204-.867-.8-1.296-1.843-1.296-3.125 0-1.195.43-2.195 1.296-3 .875-.812 2.317-1.218 4.329-1.218h15.593v-24.938c0-2.02.399-3.46 1.203-4.328.813-.875 1.82-1.313 3.032-1.313 1.27 0 2.304.438 3.109 1.313.8.867 1.203 2.309 1.203 4.328zm0 0"/></symbol></defs><use x="63.266" xlink:href="#40ce21a5a" y="169"/></svg>