<?xml version="1.0" encoding="UTF-8"?><svg enable-background="new 0 0 250 250" height="250px" viewBox="0 0 250 250" width="250px" x="0px" xml:space="preserve" xmlns="http://www.w3.org/2000/svg" xmlns:xlink="http://www.w3.org/1999/xlink" y="0px"><defs><symbol id="389f8476a" overflow="visible"><path d="M56.234-78.563v70.11h37.11c2.008 0 3.453.387 4.328 1.156.875.774 1.312 1.797 1.312 3.078 0 1.2-.437 2.203-1.312 3.016C96.797-.398 95.352 0 93.344 0H27.266c-2.024 0-3.47-.398-4.344-1.203-.867-.813-1.297-1.817-1.297-3.016 0-1.281.43-2.304 1.297-3.078.875-.77 2.32-1.156 4.344-1.156h20.406v-70.11H29.375c-2.012 0-3.453-.398-4.328-1.203-.875-.8-1.313-1.843-1.313-3.125 0-1.195.438-2.195 1.313-3 .875-.812 2.316-1.218 4.328-1.218h18.297v-12.766c0-7.113 2.883-13.285 8.656-18.516 5.77-5.226 13.414-7.843 22.938-7.843 7.976 0 16.492.742 25.546 2.218 3.415.532 5.473 1.168 6.172 1.907.707.742 1.063 1.714 1.063 2.921 0 1.2-.402 2.184-1.203 2.954-.805.773-1.875 1.156-3.219 1.156-.531 0-1.438-.098-2.719-.297-10.125-1.54-18.672-2.313-25.64-2.313-7.375 0-13.059 1.813-17.047 5.438-3.992 3.617-5.985 7.742-5.985 12.375v12.766h39.532c2.007 0 3.445.406 4.312 1.218.875.805 1.313 1.84 1.313 3.11 0 1.21-.438 2.215-1.313 3.015-.867.805-2.305 1.204-4.312 1.204zm0 0"/></symbol></defs><use x="63.266" xlink:href="#389f8476a" y="169"/></svg>