<?xml version="1.0" encoding="UTF-8"?><svg enable-background="new 0 0 250 250" height="250px" viewBox="0 0 250 250" width="250px" x="0px" xml:space="preserve" xmlns="http://www.w3.org/2000/svg" xmlns:xlink="http://www.w3.org/1999/xlink" y="0px"><defs><symbol id="4e9481eda" overflow="visible"><path d="M89.719-81.578c0-1.945.398-3.352 1.203-4.219.812-.875 1.82-1.312 3.031-1.312 1.27 0 2.305.437 3.11 1.312.8.867 1.203 2.34 1.203 4.422v14.484c0 2.012-.403 3.454-1.204 4.329-.804.874-1.84 1.312-3.109 1.312-1.148 0-2.105-.367-2.875-1.11-.773-.738-1.226-1.945-1.36-3.624-.398-4.02-2.476-7.336-6.234-9.954-5.5-3.757-12.777-5.64-21.828-5.64-9.449 0-16.793 1.914-22.031 5.734-3.95 2.887-5.922 6.106-5.922 9.656 0 4.024 2.344 7.376 7.031 10.063 3.22 1.875 9.32 3.32 18.313 4.328 11.726 1.274 19.875 2.711 24.437 4.313 6.508 2.355 11.352 5.609 14.532 9.765 3.187 4.157 4.78 8.653 4.78 13.485 0 7.168-3.452 13.554-10.359 19.156-6.906 5.594-17.03 8.39-30.374 8.39-13.344 0-24.278-3.382-32.797-10.156 0 2.282-.137 3.762-.407 4.438-.261.668-.746 1.234-1.453 1.703-.699.469-1.484.703-2.36.703-1.21 0-2.214-.43-3.015-1.297-.804-.875-1.203-2.32-1.203-4.344v-17.39c0-2.008.383-3.453 1.156-4.328.77-.875 1.79-1.313 3.063-1.313 1.207 0 2.226.422 3.062 1.266.844.836 1.266 1.953 1.266 3.36 0 3.093.77 5.679 2.313 7.75 2.343 3.218 6.078 5.886 11.203 8 5.132 2.116 11.425 3.171 18.875 3.171 10.988 0 19.164-2.047 24.53-6.14 5.364-4.094 8.048-8.415 8.048-12.97 0-5.238-2.715-9.43-8.14-12.578-5.5-3.156-13.5-5.269-24-6.343-10.493-1.07-18.017-2.477-22.579-4.219-4.555-1.738-8.105-4.352-10.656-7.844-2.555-3.488-3.828-7.242-3.828-11.265 0-7.239 3.55-12.989 10.656-17.25 7.113-4.258 15.598-6.391 25.453-6.391 11.676 0 21.164 2.852 28.469 8.547zm0 0"/></symbol></defs><use x="63.266" xlink:href="#4e9481eda" y="169"/></svg>