<?xml version="1.0" encoding="UTF-8"?><svg enable-background="new 0 0 250 250" height="250px" viewBox="0 0 250 250" width="250px" x="0px" xml:space="preserve" xmlns="http://www.w3.org/2000/svg" xmlns:xlink="http://www.w3.org/1999/xlink" y="0px"><defs><symbol id="ac5c2967a" overflow="visible"><path d="M62.36 0L23.14-78.563h-2.515c-2.012 0-3.453-.398-4.328-1.203-.875-.8-1.313-1.804-1.313-3.015 0-.875.22-1.66.657-2.36.437-.707 1.004-1.21 1.703-1.515.707-.301 1.8-.453 3.281-.453H43.75c2.008 0 3.453.406 4.328 1.218.875.805 1.313 1.84 1.313 3.11 0 1.21-.438 2.215-1.313 3.015-.875.805-2.32 1.204-4.328 1.204H32.39L66.89-9.25l34-69.313H89.517c-2.012 0-3.454-.398-4.329-1.203-.867-.8-1.296-1.843-1.296-3.125 0-1.195.43-2.195 1.296-3 .876-.812 2.317-1.218 4.329-1.218h23.046c2.07 0 3.547.406 4.422 1.218.875.805 1.313 1.84 1.313 3.11 0 .875-.274 1.683-.813 2.422-.53.73-1.136 1.214-1.812 1.453-.668.23-2.543.344-5.625.344L56.53 30.374h13.172c2.008 0 3.453.383 4.328 1.156.875.77 1.313 1.797 1.313 3.078 0 1.196-.438 2.196-1.313 3-.875.813-2.32 1.22-4.328 1.22H21.016c-2.012 0-3.453-.388-4.328-1.157-.868-.774-1.297-1.793-1.297-3.063 0-1.28.43-2.308 1.296-3.078.875-.773 2.317-1.156 4.329-1.156h26.468zm0 0"/></symbol></defs><use x="63.266" xlink:href="#ac5c2967a" y="169"/></svg>