<?xml version="1.0" encoding="UTF-8"?><svg enable-background="new 0 0 250 250" height="250px" viewBox="0 0 250 250" width="250px" x="0px" xml:space="preserve" xmlns="http://www.w3.org/2000/svg" xmlns:xlink="http://www.w3.org/1999/xlink" y="0px"><defs><symbol id="3706a378a" overflow="visible"><path d="M90.734 0v-12.375C79.191-1.915 66.72 3.313 53.313 3.313c-8.25 0-14.524-2.247-18.813-6.735-5.563-5.894-8.344-12.77-8.344-20.625v-54.516H14.781c-2.011 0-3.453-.398-4.328-1.203-.867-.8-1.297-1.843-1.297-3.125 0-1.195.43-2.195 1.297-3 .875-.812 2.317-1.218 4.328-1.218H34.61v63.062c0 5.5 1.739 10.031 5.22 13.594 3.487 3.555 7.847 5.328 13.077 5.328 13.75 0 26.36-6.305 37.828-18.922v-54.516H75.141c-2.012 0-3.454-.398-4.329-1.203-.874-.8-1.312-1.843-1.312-3.125 0-1.195.438-2.195 1.313-3 .874-.812 2.316-1.218 4.328-1.218h24.03v78.656h7.141c2.02 0 3.461.387 4.329 1.156.875.774 1.312 1.797 1.312 3.078 0 1.2-.437 2.203-1.312 3.016-.868.805-2.309 1.203-4.329 1.203zm0 0"/></symbol></defs><use x="63.266" xlink:href="#3706a378a" y="169"/></svg>