<?xml version="1.0" encoding="UTF-8"?><svg enable-background="new 0 0 250 250" height="250px" viewBox="0 0 250 250" width="250px" x="0px" xml:space="preserve" xmlns="http://www.w3.org/2000/svg" xmlns:xlink="http://www.w3.org/1999/xlink" y="0px"><defs><symbol id="8d7d0a88a" overflow="visible"><path d="M107.531-41.547h-86.11c1.477 10.938 6.056 19.746 13.735 26.422 7.676 6.668 17.18 10 28.516 10 6.3 0 12.906-1.035 19.812-3.11 6.907-2.081 12.54-4.835 16.907-8.265 1.27-1 2.375-1.5 3.312-1.5 1.07 0 2.008.422 2.813 1.266.812.836 1.218 1.82 1.218 2.953 0 1.136-.539 2.242-1.609 3.312-3.219 3.356-8.938 6.492-17.156 9.406-8.219 2.915-16.653 4.375-25.297 4.375-14.492 0-26.578-4.738-36.266-14.218C17.72-20.395 12.875-31.88 12.875-45.36c0-12.27 4.54-22.797 13.625-31.578 9.094-8.79 20.344-13.188 33.75-13.188 13.813 0 25.176 4.512 34.094 13.531 8.926 9.024 13.32 20.703 13.187 35.047zm-8.547-8.547c-1.68-9.32-6.09-16.898-13.234-22.734-7.148-5.832-15.648-8.75-25.5-8.75-9.855 0-18.34 2.887-25.453 8.656C27.69-67.16 23.27-59.55 21.53-50.094zm0 0"/></symbol></defs><use x="63.266" xlink:href="#8d7d0a88a" y="169"/></svg>