<?xml version="1.0" encoding="UTF-8"?><svg enable-background="new 0 0 250 250" height="250px" viewBox="0 0 250 250" width="250px" x="0px" xml:space="preserve" xmlns="http://www.w3.org/2000/svg" xmlns:xlink="http://www.w3.org/1999/xlink" y="0px"><defs><symbol id="0e45b038a" overflow="visible"><path d="M51.703-87.11v21.329c11-9.926 19.227-16.313 24.688-19.156 5.468-2.852 10.515-4.282 15.14-4.282 5.031 0 9.707 1.696 14.031 5.078 4.32 3.387 6.485 5.95 6.485 7.688 0 1.281-.422 2.344-1.266 3.187-.836.836-1.886 1.25-3.156 1.25-.668 0-1.234-.113-1.703-.343-.469-.239-1.344-1-2.625-2.282-2.344-2.343-4.39-3.945-6.14-4.812-1.743-.875-3.45-1.313-5.126-1.313-3.687 0-8.133 1.477-13.328 4.422-5.2 2.95-14.2 10.156-27 21.625v46.266h37.422c2.07 0 3.547.387 4.422 1.156.875.774 1.312 1.797 1.312 3.078 0 1.2-.437 2.203-1.312 3.016C92.672-.398 91.195 0 89.125 0H22.828c-2.012 0-3.453-.383-4.328-1.156-.867-.77-1.297-1.758-1.297-2.969 0-1.133.414-2.086 1.25-2.86.844-.769 2.3-1.156 4.375-1.156H43.25v-70.421H27.656c-2.011 0-3.453-.399-4.328-1.204-.867-.8-1.297-1.843-1.297-3.125 0-1.195.414-2.195 1.25-3 .844-.812 2.301-1.218 4.375-1.218zm0 0"/></symbol></defs><use x="63.266" xlink:href="#0e45b038a" y="169"/></svg>