<?xml version="1.0" encoding="UTF-8"?><svg enable-background="new 0 0 250 250" height="250px" viewBox="0 0 250 250" width="250px" x="0px" xml:space="preserve" xmlns="http://www.w3.org/2000/svg" xmlns:xlink="http://www.w3.org/1999/xlink" y="0px"><defs><symbol id="6dcd8294a" overflow="visible"><path d="M97.063-78.563v-2.812c0-2.082.398-3.555 1.203-4.422.812-.875 1.82-1.312 3.03-1.312 1.27 0 2.306.437 3.11 1.312.801.867 1.203 2.34 1.203 4.422v19.11c-.062 2.085-.48 3.562-1.25 4.437-.773.867-1.793 1.297-3.062 1.297-1.149 0-2.106-.383-2.875-1.157-.774-.769-1.227-2.062-1.36-3.874-.398-4.758-3.53-9.286-9.406-13.579-5.867-4.289-13.761-6.437-23.687-6.437-12.543 0-22.063 3.93-28.563 11.781-6.5 7.844-9.75 16.828-9.75 26.953 0 10.93 3.582 19.95 10.75 27.063C43.582-8.676 52.875-5.125 64.281-5.125c6.563 0 13.242-1.207 20.047-3.625 6.813-2.414 12.969-6.305 18.469-11.672 1.406-1.344 2.644-2.015 3.719-2.015 1.144 0 2.101.386 2.875 1.156.77.773 1.156 1.73 1.156 2.875 0 2.886-3.387 6.543-10.156 10.968C89.453-.27 77.28 3.313 63.875 3.313c-13.617 0-24.797-4.335-33.547-13.015-8.75-8.688-13.125-19.703-13.125-33.047 0-13.613 4.473-24.91 13.422-33.89 8.957-8.989 20.238-13.485 33.844-13.485 12.945 0 23.812 3.855 32.594 11.563zm0 0"/></symbol></defs><use x="63.266" xlink:href="#6dcd8294a" y="169"/></svg>