<?xml version="1.0" encoding="UTF-8"?><svg enable-background="new 0 0 250 250" height="250px" viewBox="0 0 250 250" width="250px" x="0px" xml:space="preserve" xmlns="http://www.w3.org/2000/svg" xmlns:xlink="http://www.w3.org/1999/xlink" y="0px"><defs><symbol id="d870ce14a" overflow="visible"><path d="M34-126.234v52c5.363-5.832 10.508-9.938 15.438-12.313 4.925-2.383 10.44-3.578 16.546-3.578 6.57 0 12.157 1.156 16.75 3.469 4.594 2.312 8.43 5.87 11.516 10.672 3.082 4.793 4.625 9.836 4.625 15.125v52.406h9.453c2.082 0 3.54.387 4.375 1.156.844.774 1.266 1.797 1.266 3.078 0 1.2-.422 2.203-1.266 3.016C111.867-.398 110.41 0 108.328 0H80.875c-2.086 0-3.563-.398-4.438-1.203-.867-.813-1.296-1.817-1.296-3.016 0-1.281.43-2.304 1.296-3.078.876-.77 2.352-1.156 4.438-1.156h9.453V-60.25c0-6.102-2.2-11.195-6.594-15.281-4.386-4.094-10.507-6.14-18.359-6.14-6.168 0-11.43 1.507-15.781 4.515-3.157 2.148-8.356 7.21-15.594 15.187v53.516h9.547c2.02 0 3.46.387 4.328 1.156.875.774 1.313 1.797 1.313 3.078 0 1.2-.438 2.203-1.313 3.016C47.008-.398 45.566 0 43.547 0H16c-2.023 0-3.469-.398-4.344-1.203-.867-.813-1.297-1.817-1.297-3.016 0-1.281.43-2.304 1.297-3.078.875-.77 2.32-1.156 4.344-1.156h9.547v-109.234h-11.36c-2.011 0-3.453-.399-4.328-1.204-.875-.8-1.312-1.843-1.312-3.125 0-1.207.437-2.21 1.312-3.015.875-.801 2.317-1.203 4.329-1.203zm0 0"/></symbol></defs><use x="63.266" xlink:href="#d870ce14a" y="169"/></svg>