<?xml version="1.0" encoding="UTF-8"?><svg enable-background="new 0 0 250 250" height="250px" viewBox="0 0 250 250" width="250px" x="0px" xml:space="preserve" xmlns="http://www.w3.org/2000/svg" xmlns:xlink="http://www.w3.org/1999/xlink" y="0px"><defs><symbol id="f7cc752fa" overflow="visible"><path d="M90.938 0l-10.47.094L61.86-54.22 43.36.094 32.891 0l-17.5-78.563h-4.125c-2.012 0-3.454-.398-4.329-1.203-.867-.8-1.296-1.843-1.296-3.125 0-1.195.43-2.195 1.296-3 .875-.812 2.317-1.218 4.329-1.218H34.5c2.008 0 3.453.406 4.328 1.218.875.805 1.313 1.84 1.313 3.11 0 1.21-.438 2.215-1.313 3.015-.875.805-2.32 1.204-4.328 1.204H23.734l14.985 67 18.015-53.516h10.063l18.5 53.516 14.39-67H89.017c-2.012 0-3.47-.399-4.375-1.204-.907-.8-1.36-1.843-1.36-3.125 0-1.195.438-2.195 1.313-3 .875-.812 2.347-1.218 4.422-1.218h23.14c2.07 0 3.547.406 4.422 1.218.875.805 1.313 1.84 1.313 3.11 0 1.21-.438 2.215-1.313 3.015-.875.805-2.351 1.204-4.422 1.204h-4.031zm0 0"/></symbol></defs><use x="63.266" xlink:href="#f7cc752fa" y="169"/></svg>