<?xml version="1.0" encoding="UTF-8"?><svg enable-background="new 0 0 250 250" height="250px" viewBox="0 0 250 250" width="250px" x="0px" xml:space="preserve" xmlns="http://www.w3.org/2000/svg" xmlns:xlink="http://www.w3.org/1999/xlink" y="0px"><defs><symbol id="d39af8a5a" overflow="visible"><path d="M44.656-37.625V0H24.844c-2.012 0-3.453-.398-4.328-1.203-.868-.813-1.297-1.817-1.297-3.016 0-1.281.43-2.304 1.297-3.078.875-.77 2.316-1.156 4.328-1.156h11.375v-109.234H24.844c-2.012 0-3.453-.399-4.328-1.204-.868-.8-1.297-1.843-1.297-3.125 0-1.207.43-2.21 1.297-3.015.875-.801 2.316-1.203 4.328-1.203h19.812v77.859l35.907-30.188H76.25c-2.012 0-3.453-.398-4.328-1.203-.875-.8-1.313-1.804-1.313-3.015 0-1.27.438-2.305 1.313-3.11.875-.812 2.316-1.218 4.328-1.218h27.047c2.082 0 3.555.406 4.422 1.218.875.805 1.312 1.84 1.312 3.11 0 1.21-.437 2.215-1.312 3.015-.867.805-2.34 1.204-4.422 1.204h-9.75L60.547-51l41.75 42.547h9.75c2.082 0 3.555.387 4.422 1.156.875.774 1.312 1.797 1.312 3.078 0 1.2-.437 2.203-1.312 3.016-.867.805-2.34 1.203-4.422 1.203h-27.36c-2.011 0-3.453-.398-4.328-1.203-.867-.813-1.296-1.817-1.296-3.016 0-1.281.43-2.304 1.296-3.078.875-.77 2.317-1.156 4.329-1.156h5.937L54.312-45.766zm0 0"/></symbol></defs><use x="63.266" xlink:href="#d39af8a5a" y="169"/></svg>