<?xml version="1.0" encoding="UTF-8"?><svg enable-background="new 0 0 250 250" height="250px" viewBox="0 0 250 250" width="250px" x="0px" xml:space="preserve" xmlns="http://www.w3.org/2000/svg" xmlns:xlink="http://www.w3.org/1999/xlink" y="0px"><defs><symbol id="0e7e6e32a" overflow="visible"><path d="M29.969-126.234v56.03c10.195-13.28 22.504-19.921 36.922-19.921 12.332 0 22.89 4.48 31.671 13.438 8.79 8.949 13.188 19.93 13.188 32.937 0 13.137-4.445 24.266-13.328 33.39C89.535-1.241 79.023 3.313 66.89 3.313c-14.75 0-27.059-6.632-36.922-19.906V0H10.156C8.145 0 6.703-.398 5.828-1.203 4.961-2.016 4.531-3.02 4.531-4.22c0-1.281.43-2.304 1.297-3.078.875-.77 2.317-1.156 4.328-1.156h11.375v-109.234H10.156c-2.011 0-3.453-.399-4.328-1.204-.867-.8-1.297-1.843-1.297-3.125 0-1.207.43-2.21 1.297-3.015.875-.801 2.317-1.203 4.328-1.203zm73.328 82.875c0-10.657-3.656-19.688-10.969-27.094-7.305-7.414-15.851-11.125-25.64-11.125-9.793 0-18.344 3.71-25.657 11.125-7.304 7.406-10.953 16.437-10.953 27.094 0 10.668 3.649 19.71 10.953 27.125C48.344-8.828 56.895-5.125 66.688-5.125c9.789 0 18.335-3.703 25.64-11.11 7.313-7.413 10.969-16.456 10.969-27.124zm0 0"/></symbol></defs><use x="63.266" xlink:href="#0e7e6e32a" y="169"/></svg>