<?xml version="1.0" encoding="UTF-8"?><svg enable-background="new 0 0 250 250" height="250px" viewBox="0 0 250 250" width="250px" x="0px" xml:space="preserve" xmlns="http://www.w3.org/2000/svg" xmlns:xlink="http://www.w3.org/1999/xlink" y="0px"><defs><symbol id="8796f0ada" overflow="visible"><path d="M109.031-43.36c0 12.876-4.61 23.876-13.828 33C85.984-1.241 74.867 3.313 61.86 3.313c-13.148 0-24.312-4.57-33.5-13.718-9.187-9.156-13.78-20.14-13.78-32.953 0-12.875 4.593-23.883 13.78-33.032 9.188-9.156 20.352-13.734 33.5-13.734 13.008 0 24.125 4.563 33.344 13.688 9.219 9.117 13.828 20.14 13.828 33.078zm-8.547 0c0-10.593-3.773-19.609-11.312-27.046-7.543-7.446-16.68-11.172-27.406-11.172-10.73 0-19.871 3.742-27.422 11.219-7.543 7.48-11.313 16.48-11.313 27 0 10.468 3.77 19.46 11.313 26.968 7.55 7.512 16.691 11.266 27.422 11.266 10.726 0 19.863-3.738 27.406-11.219 7.539-7.476 11.312-16.484 11.312-27.015zm0 0"/></symbol></defs><use x="63.266" xlink:href="#8796f0ada" y="169"/></svg>