<?xml version="1.0" encoding="UTF-8"?><svg enable-background="new 0 0 250 250" height="250px" viewBox="0 0 250 250" width="250px" x="0px" xml:space="preserve" xmlns="http://www.w3.org/2000/svg" xmlns:xlink="http://www.w3.org/1999/xlink" y="0px"><defs><symbol id="5621ac45a" overflow="visible"><path d="M66.078-126.234v117.78h33.203c2.07 0 3.547.388 4.422 1.157.875.774 1.313 1.797 1.313 3.078 0 1.2-.438 2.203-1.313 3.016C102.828-.398 101.352 0 99.281 0H24.437c-2.011 0-3.453-.398-4.328-1.203-.867-.813-1.297-1.817-1.297-3.016 0-1.281.43-2.304 1.297-3.078.875-.77 2.317-1.156 4.328-1.156h33.204v-109.234H33.297c-2.012 0-3.469-.399-4.375-1.204-.906-.8-1.36-1.843-1.36-3.125 0-1.207.43-2.21 1.297-3.015.875-.801 2.352-1.203 4.438-1.203zm0 0"/></symbol></defs><use x="63.266" xlink:href="#5621ac45a" y="169"/></svg>