<?xml version="1.0" encoding="UTF-8"?><svg enable-background="new 0 0 250 250" height="250px" viewBox="0 0 250 250" width="250px" x="0px" xml:space="preserve" xmlns="http://www.w3.org/2000/svg" xmlns:xlink="http://www.w3.org/1999/xlink" y="0px"><defs><symbol id="132020c4a" overflow="visible"><path d="M69.203 0H54.922L20.219-78.563h-8.657c-2.011 0-3.453-.398-4.328-1.203-.867-.8-1.296-1.843-1.296-3.125 0-1.195.43-2.195 1.296-3 .875-.812 2.317-1.218 4.329-1.218H43.25c2.008 0 3.453.406 4.328 1.218.875.805 1.313 1.84 1.313 3.11 0 1.21-.438 2.215-1.313 3.015-.875.805-2.32 1.204-4.328 1.204H29.266L60.25-8.454h3.719l30.375-70.11H80.266c-2.012 0-3.454-.398-4.329-1.203-.867-.8-1.296-1.843-1.296-3.125 0-1.195.43-2.195 1.296-3 .876-.812 2.317-1.218 4.329-1.218h31.78c2.083 0 3.54.406 4.376 1.218.844.805 1.266 1.84 1.266 3.11 0 1.21-.422 2.215-1.266 3.015-.836.805-2.293 1.204-4.375 1.204H103.5zm0 0"/></symbol></defs><use x="63.266" xlink:href="#132020c4a" y="169"/></svg>