<?xml version="1.0" encoding="UTF-8"?><svg enable-background="new 0 0 250 250" height="250px" viewBox="0 0 250 250" width="250px" x="0px" xml:space="preserve" xmlns="http://www.w3.org/2000/svg" xmlns:xlink="http://www.w3.org/1999/xlink" y="0px"><defs><symbol id="cc743b90a" overflow="visible"><path d="M98.781-87.11v7.547L35.5-8.453h57.14v-11.672c0-2.008.383-3.445 1.157-4.313.77-.875 1.789-1.312 3.062-1.312 1.282 0 2.32.438 3.125 1.313.801.867 1.204 2.304 1.204 4.312L101.094 0h-77.25v-7.547l62.968-71.016H34.297v11.47c0 2.011-.402 3.452-1.203 4.327-.805.875-1.809 1.313-3.016 1.313-1.273 0-2.312-.438-3.125-1.313-.805-.875-1.203-2.316-1.203-4.328v-20.015zm0 0"/></symbol></defs><use x="63.266" xlink:href="#cc743b90a" y="169"/></svg>