<?xml version="1.0" encoding="UTF-8"?><svg enable-background="new 0 0 250 250" height="250px" viewBox="0 0 250 250" width="250px" x="0px" xml:space="preserve" xmlns="http://www.w3.org/2000/svg" xmlns:xlink="http://www.w3.org/1999/xlink" y="0px"><defs><symbol id="d4bbc4cca" overflow="visible"><path d="M34.5-87.11v12.782c5.906-5.969 11.238-10.094 16-12.375 4.758-2.281 10.125-3.422 16.094-3.422 6.437 0 12.3 1.375 17.594 4.125 3.757 2.012 7.164 5.352 10.218 10.016 3.051 4.656 4.578 9.433 4.578 14.328v53.203h7.141c2.008 0 3.445.387 4.313 1.156.874.774 1.312 1.797 1.312 3.078 0 1.2-.438 2.203-1.313 3.016C109.57-.398 108.133 0 106.126 0h-22.64c-2.075 0-3.547-.398-4.422-1.203-.876-.813-1.313-1.817-1.313-3.016 0-1.281.438-2.304 1.313-3.078.874-.77 2.347-1.156 4.421-1.156h7.047V-60.25c0-5.969-2.183-11.016-6.547-15.14-4.355-4.126-10.187-6.188-17.5-6.188-5.562 0-10.39 1.125-14.484 3.375-4.086 2.242-9.918 7.824-17.5 16.75v53h9.563c2.007 0 3.445.387 4.312 1.156.875.774 1.313 1.797 1.313 3.078 0 1.2-.438 2.203-1.313 3.016C47.508-.398 46.07 0 44.062 0H16.5c-2.012 0-3.453-.398-4.328-1.203-.875-.813-1.313-1.817-1.313-3.016 0-1.281.438-2.304 1.313-3.078.875-.77 2.316-1.156 4.328-1.156h9.547v-70.11h-7.14c-2.012 0-3.454-.398-4.329-1.203-.867-.8-1.297-1.843-1.297-3.125 0-1.195.43-2.195 1.297-3 .875-.812 2.317-1.218 4.328-1.218zm0 0"/></symbol></defs><use x="63.266" xlink:href="#d4bbc4cca" y="169"/></svg>