<?xml version='1.0' encoding='UTF-8'?>
<svg xmlns="http://www.w3.org/2000/svg" xmlns:xlink="http://www.w3.org/1999/xlink" width="250px" height="250px" viewBox="0 0 250 250" y="0px" x="0px" enable-background="new 0 0 250 250"><defs><symbol overflow="visible" id="7789fc06a"><path d="M12.484-85.61H32.25v7.907c3.813-3.977 7.066-6.672 9.766-8.078 2.863-1.469 6.468-2.203 10.812-2.203 9.664 0 17.313 4.218 22.938 12.656 6.207-8.438 14.613-12.656 25.218-12.656 19.282 0 28.922 11.695 28.922 35.078V0h-19.86v-47.547c0-8.207-1-14.008-3-17.406-2.054-3.457-5.421-5.188-10.109-5.188-5.449 0-9.417 2.055-11.906 6.157-2.492 4.105-3.734 10.699-3.734 19.78V0h-19.86v-47.281c0-15.239-4.398-22.86-13.187-22.86-5.563 0-9.621 2.086-12.172 6.25-2.555 4.157-3.828 10.72-3.828 19.688V0H12.484zm0 0"/></symbol></defs><use xlink:href="#7789fc06a" x="53.67409" y="169"/></svg>