<?xml version='1.0' encoding='UTF-8'?>
<svg xmlns="http://www.w3.org/2000/svg" xmlns:xlink="http://www.w3.org/1999/xlink" width="250px" height="250px" viewBox="0 0 250 250" y="0px" x="0px" enable-background="new 0 0 250 250"><defs><symbol overflow="visible" id="68a5318ca"><path d="M95.281-2.016c0 4.04-.136 7.598-.406 10.672-.262 3.07-.625 5.781-1.094 8.125-1.406 6.446-4.164 11.989-8.265 16.625-7.73 8.907-18.368 13.36-31.907 13.36-11.43 0-20.828-3.078-28.203-9.235-7.625-6.336-12.023-15.093-13.187-26.281h19.86c.757 4.219 2.019 7.469 3.78 9.75 4.102 5.332 10.082 8 17.938 8C68.266 29 75.5 20.125 75.5 2.375V-9.578C67.645-1.547 58.594 2.469 48.344 2.469c-11.668 0-21.219-4.223-28.657-12.672-7.5-8.55-11.25-19.242-11.25-32.078 0-12.477 3.485-23.082 10.454-31.813 7.5-9.258 17.406-13.89 29.718-13.89 10.782 0 19.743 4.015 26.891 12.046v-9.671h19.781zM76.297-42.625c0-8.32-2.23-14.973-6.688-19.953-4.511-5.094-10.28-7.64-17.312-7.64-7.5 0-13.418 2.78-17.75 8.343-3.93 4.98-5.89 11.422-5.89 19.328 0 7.805 1.96 14.195 5.89 19.172 4.27 5.45 10.187 8.172 17.75 8.172 7.562 0 13.535-2.754 17.922-8.266 4.05-4.976 6.078-11.363 6.078-19.156zm0 0"/></symbol></defs><use xlink:href="#68a5318ca" x="71.02126" y="169"/></svg>