<?xml version='1.0' encoding='UTF-8'?>
<svg xmlns="http://www.w3.org/2000/svg" xmlns:xlink="http://www.w3.org/1999/xlink" width="250px" height="250px" viewBox="0 0 250 250" y="0px" x="0px" enable-background="new 0 0 250 250"><defs><symbol overflow="visible" id="2dbc4c54a"><path d="M90.438-38.14H29.093c.531 7.03 2.816 12.624 6.86 16.78 4.038 4.106 9.222 6.157 15.546 6.157 4.926 0 9-1.172 12.219-3.516 3.164-2.343 6.77-6.68 10.812-13.015l16.703 9.328c-2.586 4.386-5.312 8.148-8.187 11.281-2.867 3.137-5.938 5.715-9.219 7.734a36.94 36.94 0 0 1-10.64 4.438c-3.805.945-7.934 1.422-12.391 1.422-12.774 0-23.024-4.102-30.75-12.313-7.742-8.258-11.61-19.218-11.61-32.875 0-13.531 3.75-24.488 11.25-32.875 7.563-8.258 17.583-12.39 30.063-12.39 12.594 0 22.55 4.015 29.875 12.046 7.27 7.97 10.906 19.016 10.906 33.141zM70.14-54.313c-2.762-10.551-9.414-15.829-19.954-15.829-2.406 0-4.667.371-6.78 1.11a19.33 19.33 0 0 0-5.75 3.156 19.85 19.85 0 0 0-4.438 4.969c-1.23 1.93-2.168 4.125-2.813 6.593zm0 0"/></symbol></defs><use xlink:href="#2dbc4c54a" x="75.11589" y="169"/></svg>