<?xml version='1.0' encoding='UTF-8'?>
<svg xmlns="http://www.w3.org/2000/svg" xmlns:xlink="http://www.w3.org/1999/xlink" width="250px" height="250px" viewBox="0 0 250 250" y="0px" x="0px" enable-background="new 0 0 250 250"><defs><symbol overflow="visible" id="78bbf1f6a"><path d="M79.11-81.922v26.281c-4.524-5.5-8.57-9.273-12.141-11.328-3.512-2.113-7.64-3.172-12.39-3.172-7.438 0-13.622 2.61-18.548 7.829-4.918 5.21-7.375 11.742-7.375 19.593 0 8.032 2.367 14.625 7.11 19.782 4.812 5.156 10.937 7.734 18.375 7.734 4.75 0 8.937-1.024 12.562-3.078 3.52-1.989 7.656-5.86 12.406-11.61v26.11c-8.03 4.164-16.062 6.25-24.093 6.25-13.243 0-24.313-4.281-33.22-12.844C12.892-18.988 8.439-29.68 8.439-42.453c0-12.77 4.507-23.55 13.53-32.344C31-83.586 42.079-87.984 55.204-87.984c8.438 0 16.406 2.023 23.906 6.062zm0 0"/></symbol></defs><use xlink:href="#78bbf1f6a" x="82.02834" y="169"/></svg>