<?xml version='1.0' encoding='UTF-8'?>
<svg xmlns="http://www.w3.org/2000/svg" xmlns:xlink="http://www.w3.org/1999/xlink" width="250px" height="250px" viewBox="0 0 250 250" y="0px" x="0px" enable-background="new 0 0 250 250"><defs><symbol overflow="visible" id="fef0f839a"><path d="M75.594 46.578V-9.578C67.738-1.547 58.77 2.469 48.688 2.469c-11.543 0-21.122-4.25-28.735-12.75-7.68-8.551-11.515-19.242-11.515-32.078 0-13.008 3.835-23.88 11.515-32.61 7.727-8.676 17.426-13.015 29.094-13.015 9.894 0 18.742 3.898 26.547 11.687v-9.312h19.86V46.578zM28.656-43.25c0 8.273 2.223 14.984 6.672 20.14 4.457 5.274 10.113 7.907 16.969 7.907 7.258 0 13.148-2.52 17.672-7.563 4.562-5.093 6.844-11.71 6.844-19.859 0-8.031-2.258-14.648-6.766-19.86-4.512-5.1-10.371-7.656-17.578-7.656-6.793 0-12.477 2.579-17.047 7.735-4.512 5.218-6.766 11.605-6.766 19.156zm0 0"/></symbol></defs><use xlink:href="#fef0f839a" x="70.9332" y="169"/></svg>