<?xml version='1.0' encoding='UTF-8'?>
<svg xmlns="http://www.w3.org/2000/svg" xmlns:xlink="http://www.w3.org/1999/xlink" width="250px" height="250px" viewBox="0 0 250 250" y="0px" x="0px" enable-background="new 0 0 250 250"><defs><symbol overflow="visible" id="1c2b98dba"><path d="M32.25-85.61v49.141c0 14.18 5.598 21.266 16.797 21.266 11.187 0 16.781-7.086 16.781-21.266v-49.14H85.61v49.578c0 6.855-.851 12.773-2.546 17.75-1.649 4.449-4.493 8.465-8.532 12.047C67.851-.43 59.36 2.469 49.047 2.469c-10.262 0-18.73-2.899-25.406-8.703-4.106-3.582-7.008-7.598-8.703-12.047-1.637-3.989-2.454-9.907-2.454-17.75V-85.61zm0 0"/></symbol></defs><use xlink:href="#1c2b98dba" x="75.86437" y="169"/></svg>