<?xml version='1.0' encoding='UTF-8'?>
<svg xmlns="http://www.w3.org/2000/svg" xmlns:xlink="http://www.w3.org/1999/xlink" width="250px" height="250px" viewBox="0 0 250 250" y="0px" x="0px" enable-background="new 0 0 250 250"><defs><symbol overflow="visible" id="9797ae25a"><path d="M62.234-71.016l-16.359 8.704c-2.574-5.27-5.766-7.907-9.578-7.907-1.813 0-3.367.602-4.656 1.797-1.293 1.2-1.938 2.734-1.938 4.61 0 3.28 3.813 6.539 11.438 9.765 10.476 4.512 17.535 8.672 21.172 12.484 3.632 3.805 5.453 8.93 5.453 15.376 0 8.261-3.047 15.171-9.141 20.734-5.918 5.281-13.07 7.922-21.453 7.922-14.356 0-24.516-7.004-30.484-21.016l16.875-7.828c2.343 4.105 4.128 6.715 5.359 7.828 2.394 2.23 5.265 3.344 8.61 3.344 6.675 0 10.015-3.047 10.015-9.14 0-3.52-2.578-6.802-7.734-9.845-1.993-1-3.985-1.968-5.985-2.906a514.13 514.13 0 0 1-6.047-2.89c-5.75-2.813-9.797-5.625-12.14-8.438-2.993-3.582-4.485-8.187-4.485-13.812 0-7.438 2.551-13.586 7.656-18.453 5.208-4.864 11.536-7.297 18.985-7.297 10.957 0 19.101 5.656 24.437 16.968zm0 0"/></symbol></defs><use xlink:href="#9797ae25a" x="88.41245" y="169"/></svg>