<?xml version='1.0' encoding='UTF-8'?>
<svg xmlns="http://www.w3.org/2000/svg" xmlns:xlink="http://www.w3.org/1999/xlink" width="250px" height="250px" viewBox="0 0 250 250" y="0px" x="0px" enable-background="new 0 0 250 250"><defs><symbol overflow="visible" id="16baa304a"><path d="M8.438-43.422c0-12.363 4.421-22.879 13.265-31.547 8.852-8.676 19.633-13.015 32.344-13.015 12.781 0 23.625 4.367 32.531 13.093C95.36-66.148 99.75-55.426 99.75-42.719c0 12.836-4.422 23.59-13.266 32.266-8.906 8.617-19.836 12.922-32.78 12.922-12.837 0-23.587-4.395-32.25-13.188-8.68-8.676-13.017-19.578-13.017-32.703zm20.218.36c0 8.554 2.285 15.32 6.86 20.296 4.687 5.043 10.863 7.563 18.53 7.563 7.74 0 13.923-2.488 18.548-7.469 4.633-4.976 6.953-11.629 6.953-19.953 0-8.32-2.32-14.973-6.953-19.953-4.688-5.04-10.871-7.563-18.547-7.563-7.555 0-13.672 2.524-18.36 7.563-4.687 5.043-7.03 11.547-7.03 19.516zm0 0"/></symbol></defs><use xlink:href="#16baa304a" x="70.80111" y="169"/></svg>