<?xml version='1.0' encoding='UTF-8'?>
<svg xmlns="http://www.w3.org/2000/svg" xmlns:xlink="http://www.w3.org/1999/xlink" width="250px" height="250px" viewBox="0 0 250 250" y="0px" x="0px" enable-background="new 0 0 250 250"><defs><symbol overflow="visible" id="2138dc05a"><path d="M32.25-85.61V46.579H12.484V-85.609zM9.5-121.202c0-3.457 1.254-6.445 3.766-8.969 2.52-2.52 5.539-3.781 9.062-3.781 3.57 0 6.617 1.262 9.14 3.781 2.52 2.469 3.782 5.492 3.782 9.063 0 3.574-1.262 6.62-3.781 9.14-2.461 2.524-5.48 3.781-9.063 3.781-3.574 0-6.62-1.257-9.14-3.78-2.512-2.52-3.766-5.598-3.766-9.235zm0 0"/></symbol></defs><use xlink:href="#2138dc05a" x="102.5455" y="169"/></svg>