<?xml version='1.0' encoding='UTF-8'?>
<svg xmlns="http://www.w3.org/2000/svg" xmlns:xlink="http://www.w3.org/1999/xlink" width="250px" height="250px" viewBox="0 0 250 250" y="0px" x="0px" enable-background="new 0 0 250 250"><defs><symbol overflow="visible" id="0d17b2f5a"><path d="M32.25 46.578H12.484V-85.609H32.25v9.312c7.8-7.789 16.648-11.687 26.547-11.687 11.781 0 21.476 4.34 29.094 13.015C95.629-66.352 99.5-55.484 99.5-42.359c0 12.836-3.84 23.527-11.516 32.078-7.625 8.5-17.234 12.75-28.828 12.75-10.023 0-18.992-4.016-26.906-12.047zm47.031-88.86c0-8.195-2.23-14.874-6.687-20.03-4.512-5.22-10.196-7.829-17.047-7.829-7.262 0-13.152 2.524-17.672 7.563-4.512 5.043-6.766 11.664-6.766 19.86 0 8.03 2.254 14.652 6.766 19.859 4.457 5.105 10.316 7.656 17.578 7.656 6.863 0 12.52-2.578 16.969-7.735 4.57-5.156 6.86-11.601 6.86-19.343zm0 0"/></symbol></defs><use xlink:href="#0d17b2f5a" x="70.9332" y="169"/></svg>