<?xml version='1.0' encoding='UTF-8'?>
<svg xmlns="http://www.w3.org/2000/svg" xmlns:xlink="http://www.w3.org/1999/xlink" width="250px" height="250px" viewBox="0 0 250 250" y="0px" x="0px" enable-background="new 0 0 250 250"><defs><symbol overflow="visible" id="d1a0c833a"><path d="M32.25-148.453v72.781c7.914-8.207 16.883-12.312 26.906-12.312 11.54 0 21.149 4.308 28.828 12.921 7.676 8.555 11.516 19.22 11.516 32 0 13.18-3.871 24.075-11.61 32.688C80.21-1.812 70.517 2.469 58.798 2.469c-9.899 0-18.746-3.813-26.547-11.438V0H12.484v-148.453zM79.281-42.187c0-8.208-2.23-14.891-6.687-20.047-4.512-5.27-10.164-7.907-16.953-7.907-7.274 0-13.196 2.555-17.766 7.657-4.512 5.03-6.766 11.593-6.766 19.687 0 8.313 2.227 14.961 6.688 19.938 4.445 5.105 10.305 7.656 17.578 7.656 6.852 0 12.535-2.55 17.047-7.656 4.57-5.157 6.86-11.598 6.86-19.328zm0 0"/></symbol></defs><use xlink:href="#d1a0c833a" x="70.9332" y="169"/></svg>