<?xml version='1.0' encoding='UTF-8'?>
<svg xmlns="http://www.w3.org/2000/svg" xmlns:xlink="http://www.w3.org/1999/xlink" width="250px" height="250px" viewBox="0 0 250 250" y="0px" x="0px" enable-background="new 0 0 250 250"><defs><symbol overflow="visible" id="5c06b254a"><path d="M75.594-148.453h19.86V0h-19.86v-8.969C67.789-1.344 58.969 2.47 49.125 2.47c-11.719 0-21.445-4.281-29.172-12.844C12.273-19.102 8.438-30 8.438-43.063c0-12.78 3.835-23.445 11.515-32 7.613-8.613 17.192-12.921 28.735-12.921 10.019 0 18.988 4.105 26.906 12.312zM28.656-43.063c0 8.2 2.196 14.876 6.594 20.032 4.508 5.218 10.191 7.828 17.047 7.828 7.32 0 13.238-2.52 17.75-7.563 4.508-5.218 6.766-11.836 6.766-19.859 0-8.031-2.258-14.648-6.766-19.86-4.512-5.1-10.371-7.656-17.578-7.656-6.793 0-12.477 2.579-17.047 7.735-4.512 5.218-6.766 11.668-6.766 19.343zm0 0"/></symbol></defs><use xlink:href="#5c06b254a" x="70.9332" y="169"/></svg>