<?xml version="1.0" encoding="UTF-8"?><svg enable-background="new 0 0 250 250" height="250px" viewBox="0 0 250 250" width="250px" x="0px" xml:space="preserve" xmlns="http://www.w3.org/2000/svg" xmlns:xlink="http://www.w3.org/1999/xlink" y="0px"><defs><symbol id="6b176e0da" overflow="visible"><path d="M101.984 39.234H54.891v-5.922c1.82-.117 3.613-.261 5.375-.437 1.77-.18 3.363-.469 4.78-.875 1.821-.594 3.087-1.633 3.798-3.11.707-1.468 1.062-3.203 1.062-5.203V-8.483l-.531-.172C68.437-7.602 67.098-6.383 65.359-5c-1.742 1.387-3.554 2.523-5.437 3.406-2.356 1.242-4.625 2.196-6.813 2.875-2.18.676-4.918 1.016-8.218 1.016-5.305 0-10.297-1.106-14.985-3.313-4.68-2.207-8.758-5.343-12.234-9.406-3.469-4.008-6.227-8.945-8.266-14.812C7.375-31.098 6.36-37.535 6.36-44.547c0-6.656 1.176-12.707 3.532-18.156 2.363-5.445 5.488-10.207 9.375-14.281 3.707-3.82 8.172-6.868 13.39-9.141 5.219-2.27 10.39-3.406 15.516-3.406 3.82 0 7.223.37 10.203 1.11 2.977.741 5.523 1.609 7.64 2.609 1.833.761 3.66 1.746 5.485 2.953 1.82 1.21 3.117 2.023 3.89 2.437l7.516-11.5 5.031.719A3645.28 3645.28 0 0 1 87-75.125c-.375 6.367-.563 11.934-.563 16.703v80.61c0 2.062.38 3.843 1.141 5.343.77 1.5 2.008 2.633 3.719 3.407 1.414.582 3.21 1.093 5.39 1.53 2.176.446 3.942.727 5.297.844zM69.906-16.172v-52.062c-.469-1.47-1.265-3.098-2.39-4.891a21.195 21.195 0 0 0-3.97-4.734c-1.655-1.414-3.679-2.594-6.062-3.532-2.386-.945-5.136-1.421-8.25-1.421-6.898 0-12.687 3.57-17.375 10.703-4.687 7.125-7.03 16.933-7.03 29.421 0 4.95.456 9.43 1.374 13.438a34.9 34.9 0 0 0 4.735 11.219c2.113 3.304 4.789 5.945 8.03 7.922 3.25 1.968 7.348 2.953 12.298 2.953 4.238 0 7.859-.895 10.859-2.688 3.008-1.8 5.602-3.91 7.781-6.328zm0 0"/></symbol></defs><use x="74.441" xlink:href="#6b176e0da" y="169"/></svg>