<?xml version="1.0" encoding="UTF-8"?><svg enable-background="new 0 0 250 250" height="250px" viewBox="0 0 250 250" width="250px" x="0px" xml:space="preserve" xmlns="http://www.w3.org/2000/svg" xmlns:xlink="http://www.w3.org/1999/xlink" y="0px"><defs><symbol id="932765f6a" overflow="visible"><path d="M48.703 0H6.547v-5.828a389.04 389.04 0 0 1 4.187-.36c1.446-.113 2.704-.347 3.766-.703 1.645-.53 2.863-1.457 3.656-2.78.801-1.333 1.203-3.056 1.203-5.173v-53.828c0-1.883-.43-3.61-1.28-5.172-.856-1.562-2.048-2.875-3.579-3.937-1.125-.696-2.75-1.297-4.875-1.797-2.117-.508-4.059-.82-5.828-.938v-5.75l30.765-1.937 1.235 1.234v71.063c0 2.062.394 3.773 1.187 5.125.801 1.355 2.055 2.355 3.766 3 1.29.531 2.555.96 3.797 1.281 1.238.324 2.625.547 4.156.672zm-11.14-122.578c0 3.355-1.106 6.289-3.313 8.797-2.21 2.5-4.934 3.75-8.172 3.75-3.012 0-5.621-1.192-7.828-3.578-2.21-2.383-3.313-5.11-3.313-8.172 0-3.239 1.102-6.067 3.313-8.485 2.207-2.414 4.816-3.625 7.828-3.625 3.352 0 6.102 1.137 8.25 3.407 2.156 2.261 3.234 4.898 3.234 7.906zm0 0"/></symbol></defs><use x="98.529" xlink:href="#932765f6a" y="169"/></svg>