<?xml version="1.0" encoding="UTF-8"?><svg enable-background="new 0 0 250 250" height="250px" viewBox="0 0 250 250" width="250px" x="0px" xml:space="preserve" xmlns="http://www.w3.org/2000/svg" xmlns:xlink="http://www.w3.org/1999/xlink" y="0px"><defs><symbol id="2013a994a" overflow="visible"><path d="M155.64 0h-42.515v-5.828c1.352-.125 2.723-.242 4.11-.36 1.382-.113 2.609-.347 3.671-.703 1.645-.53 2.864-1.457 3.656-2.78.801-1.333 1.204-3.056 1.204-5.173v-44.984c0-6.133-1.403-10.863-4.204-14.188-2.792-3.332-6.28-5-10.468-5-2.887 0-5.602.446-8.14 1.329a25.5 25.5 0 0 0-6.97 3.718c-1.71 1.293-3.14 2.696-4.296 4.203-1.149 1.5-2.012 2.75-2.594 3.75v50.282c0 2.062.347 3.761 1.047 5.093.707 1.325 1.914 2.34 3.625 3.047 1.351.524 2.578.918 3.671 1.188 1.094.261 2.52.453 4.282.578V0H60.094v-5.828c1.351-.125 2.664-.242 3.937-.36 1.27-.113 2.43-.347 3.485-.703 1.656-.53 2.879-1.457 3.671-2.78.79-1.333 1.188-3.056 1.188-5.173v-44.984c0-6.133-1.402-10.863-4.203-14.188-2.793-3.332-6.277-5-10.453-5-2.899 0-5.61.461-8.14 1.375a27.097 27.097 0 0 0-6.985 3.75c-1.711 1.305-3.153 2.766-4.328 4.391-1.18 1.617-2.063 2.836-2.657 3.656v49.938c0 2 .41 3.68 1.235 5.031.832 1.355 2.07 2.387 3.718 3.094a17.701 17.701 0 0 0 3.797 1.328c1.301.293 2.75.5 4.344.625V0H6.36v-5.828a368.26 368.26 0 0 1 4.204-.36c1.445-.113 2.695-.347 3.75-.703 1.656-.53 2.878-1.457 3.671-2.78.79-1.333 1.188-3.056 1.188-5.173V-69.03c0-1.883-.43-3.578-1.281-5.078-.856-1.5-2.047-2.782-3.578-3.844-1.118-.707-2.5-1.281-4.157-1.719a26.246 26.246 0 0 0-5.125-.844v-5.75l29.172-1.937 1.234 1.234V-74.5h.626a243.974 243.974 0 0 1 5.374-5.219c2.126-2 4.102-3.617 5.938-4.86 2.063-1.413 4.64-2.593 7.734-3.53 3.094-.946 6.438-1.422 10.032-1.422 5.656 0 10.515 1.523 14.578 4.562 4.062 3.031 6.976 6.7 8.75 11 2.125-2.062 3.992-3.875 5.61-5.437 1.624-1.563 3.757-3.227 6.405-5 2.239-1.531 4.875-2.766 7.907-3.703 3.039-.946 6.414-1.422 10.125-1.422 7.363 0 13.195 2.418 17.5 7.25 4.3 4.836 6.453 12.258 6.453 22.265v44.282c0 2.062.351 3.761 1.062 5.093.707 1.325 1.914 2.34 3.625 3.047 1.352.524 2.692.918 4.016 1.188 1.32.261 2.812.453 4.469.578zm0 0"/></symbol></defs><use x="45.412" xlink:href="#2013a994a" y="169"/></svg>