<?xml version="1.0" encoding="UTF-8"?><svg enable-background="new 0 0 250 250" height="250px" viewBox="0 0 250 250" width="250px" x="0px" xml:space="preserve" xmlns="http://www.w3.org/2000/svg" xmlns:xlink="http://www.w3.org/1999/xlink" y="0px"><defs><symbol id="9ab06842a" overflow="visible"><path d="M60.188-3.797C56.352-2.21 52.727-.875 49.312.22c-3.417 1.093-7.601 1.64-12.546 1.64-7.305 0-12.446-1.84-15.422-5.515-2.98-3.688-4.469-8.89-4.469-15.61v-59.03H1.156v-8.485h16.078v-27.14h16.078v27.14h25.016v8.484H33.5v48.688c0 3.656.129 6.71.39 9.156.27 2.437.907 4.574 1.907 6.406.937 1.711 2.348 3.008 4.234 3.89 1.883.876 4.422 1.313 7.61 1.313 1.468 0 3.629-.129 6.484-.39 2.863-.27 4.883-.61 6.063-1.016zm0 0"/></symbol></defs><use x="93.809" xlink:href="#9ab06842a" y="169"/></svg>