<?xml version="1.0" encoding="UTF-8"?><svg enable-background="new 0 0 250 250" height="250px" viewBox="0 0 250 250" width="250px" x="0px" xml:space="preserve" xmlns="http://www.w3.org/2000/svg" xmlns:xlink="http://www.w3.org/1999/xlink" y="0px"><defs><symbol id="1b074229a" overflow="visible"><path d="M101.813-1.594L71.406.36 70.078-.89v-8.125l-.703-.171c-3.063 3.417-6.852 6.214-11.36 8.39-4.5 2.176-9.14 3.266-13.921 3.266-4.95 0-9.735-1.106-14.36-3.313s-8.648-5.312-12.062-9.312c-3.469-4.07-6.227-8.961-8.266-14.672C7.375-30.547 6.36-36.852 6.36-43.75c0-6.3 1.086-12.281 3.266-17.938 2.188-5.656 5.191-10.601 9.016-14.843 3.601-3.946 8.007-7.098 13.218-9.453 5.22-2.364 10.536-3.547 15.953-3.547 4.063 0 8.051.515 11.97 1.547 3.925 1.03 7.3 2.343 10.124 3.937v-30.312c0-2.477-.414-4.735-1.234-6.766-.824-2.031-1.977-3.578-3.453-4.64-1.649-1.114-3.871-1.922-6.672-2.422-2.793-.5-5.809-.868-9.047-1.11v-5.484l35.61-2.031 1.328 1.328v117.547c0 2.062.394 3.82 1.187 5.265.8 1.438 1.969 2.656 3.5 3.656 1.113.711 2.727 1.153 4.844 1.329 2.125.18 4.07.296 5.844.359zM69.906-16.875v-51c-.469-1.531-1.234-3.176-2.297-4.938a22.608 22.608 0 0 0-3.968-4.874c-1.72-1.47-3.73-2.688-6.032-3.657-2.293-.976-4.968-1.469-8.03-1.469-3.532 0-6.79.918-9.767 2.75-2.968 1.825-5.605 4.446-7.906 7.86-2.18 3.305-3.902 7.5-5.172 12.594-1.273 5.093-1.906 10.734-1.906 16.922 0 4.949.469 9.445 1.406 13.484a35.66 35.66 0 0 0 4.782 11.265c2.062 3.305 4.695 5.954 7.906 7.954 3.219 2 7.035 3 11.453 3 4.719 0 8.617-1.032 11.703-3.094 3.094-2.063 5.703-4.328 7.828-6.797zm0 0"/></symbol></defs><use x="73.118" xlink:href="#1b074229a" y="169"/></svg>