<?xml version="1.0" encoding="UTF-8"?><svg enable-background="new 0 0 250 250" height="250px" viewBox="0 0 250 250" width="250px" x="0px" xml:space="preserve" xmlns="http://www.w3.org/2000/svg" xmlns:xlink="http://www.w3.org/1999/xlink" y="0px"><defs><symbol id="fe537766a" overflow="visible"><path d="M38.094-5.297c0 6.477-.946 12.555-2.828 18.235-1.887 5.687-4.391 10.39-7.516 14.109-3.355 3.945-7.14 6.96-11.36 9.047-4.21 2.093-8.85 3.14-13.921 3.14-5.239 0-9.18-1.047-11.828-3.14-2.657-2.086-3.985-4.543-3.985-7.375 0-2.532.711-4.758 2.125-6.672 1.406-1.918 3.469-2.875 6.188-2.875 1.824 0 3.445.379 4.86 1.14 1.405.77 2.64 1.774 3.702 3.016.946 1.063 1.906 2.375 2.875 3.938a449.562 449.562 0 0 1 2.782 4.547c4.476 0 7.675-2.711 9.593-8.125 1.914-5.418 2.875-14.11 2.875-26.079v-65.578c0-1.883-.46-3.691-1.375-5.422-.918-1.738-2.11-3.14-3.578-4.203-.937-.644-3.195-1.289-6.765-1.937-3.563-.656-6.258-1.07-8.079-1.25v-5.485l35-1.937 1.235 1.234zm1.328-117.375c0 3.367-1.11 6.297-3.328 8.797-2.211 2.5-4.934 3.75-8.172 3.75-3 0-5.606-1.191-7.813-3.578-2.21-2.383-3.312-5.11-3.312-8.172 0-3.238 1.101-6.066 3.312-8.484 2.207-2.414 4.813-3.625 7.813-3.625 3.363 0 6.117 1.136 8.265 3.406 2.157 2.273 3.235 4.906 3.235 7.906zm0 0"/></symbol></defs><use x="98.618" xlink:href="#fe537766a" y="169"/></svg>