<?xml version="1.0" encoding="UTF-8"?><svg enable-background="new 0 0 250 250" height="250px" viewBox="0 0 250 250" width="250px" x="0px" xml:space="preserve" xmlns="http://www.w3.org/2000/svg" xmlns:xlink="http://www.w3.org/1999/xlink" y="0px"><defs><symbol id="f163c573a" overflow="visible"><path d="M92.438-81.75c-2.649.469-5.165 1.43-7.547 2.875-2.387 1.438-4.434 3.984-6.141 7.64A4773.137 4773.137 0 0 0 67.953-46.53a4135.133 4135.133 0 0 0-11.562 27c-1.18 2.71-2.434 5.922-3.766 9.64A410.769 410.769 0 0 0 48.969.797h-6.907a4841.587 4841.587 0 0 0-15.468-37.86 4480.39 4480.39 0 0 0-14.657-35.062c-1.187-2.707-3.093-4.813-5.718-6.313-2.617-1.5-5.246-2.457-7.89-2.874v-5.829h40.296v6.188c-1.773.062-3.984.433-6.64 1.11-2.65.679-3.97 1.605-3.97 2.78 0 .18.145.637.438 1.376.3.73.598 1.57.89 2.515 2.415 6.012 5.833 14.406 10.25 25.188 4.415 10.78 8.009 19.468 10.782 26.062 2.125-5.062 4.79-11.363 8-18.906 3.207-7.54 6.672-15.969 10.39-25.281.583-1.594 1.141-3.079 1.672-4.454a11.64 11.64 0 0 0 .797-4.203c0-1-.492-1.894-1.468-2.687-.97-.8-2.133-1.5-3.485-2.094a22.82 22.82 0 0 0-3.984-1.312c-1.293-.301-2.352-.508-3.172-.625v-5.657h33.313zm0 0"/></symbol></defs><use x="80.132" xlink:href="#f163c573a" y="169"/></svg>