<?xml version="1.0" encoding="UTF-8"?><svg enable-background="new 0 0 250 250" height="250px" viewBox="0 0 250 250" width="250px" x="0px" xml:space="preserve" xmlns="http://www.w3.org/2000/svg" xmlns:xlink="http://www.w3.org/1999/xlink" y="0px"><defs><symbol id="46710d93a" overflow="visible"><path d="M101.016 0H58.234v-5.828c1.364-.125 2.868-.242 4.516-.36 1.645-.113 3-.347 4.063-.703 1.656-.53 2.878-1.457 3.671-2.78.79-1.333 1.188-3.056 1.188-5.173v-44.812c0-6.188-1.461-10.957-4.375-14.313-2.918-3.363-6.465-5.047-10.64-5.047-3.063 0-5.907.493-8.532 1.47-2.625.968-4.969 2.163-7.031 3.577-2 1.469-3.532 2.946-4.594 4.422-1.063 1.469-1.887 2.703-2.469 3.703v50.11c0 2 .395 3.652 1.188 4.953.789 1.293 2.015 2.293 3.672 3 1.289.593 2.629 1.039 4.015 1.328 1.383.293 2.899.5 4.547.625V0H4.687v-5.828c1.352-.125 2.766-.258 4.235-.406 1.476-.145 2.719-.364 3.719-.657 1.644-.53 2.879-1.457 3.703-2.78.832-1.333 1.25-3.056 1.25-5.173v-101.469c0-2-.461-4-1.375-6-.918-2.007-2.11-3.515-3.578-4.515-1.063-.758-2.938-1.3-5.625-1.625-2.68-.32-4.84-.547-6.485-.672v-5.656l32.25-2.031 1.25 1.328v60.797h.344a289.028 289.028 0 0 1 5.297-5.157c1.594-1.508 3.687-3.086 6.281-4.734 2.238-1.414 4.875-2.594 7.906-3.531 3.04-.946 6.446-1.422 10.22-1.422 7.769 0 13.75 2.465 17.937 7.39 4.187 4.918 6.28 12 6.28 21.25v45.328c0 2.063.364 3.731 1.095 5 .738 1.274 1.96 2.262 3.671 2.97 1.352.523 2.57.917 3.657 1.187 1.094.261 2.523.453 4.297.578zm0 0"/></symbol></defs><use x="72.412" xlink:href="#46710d93a" y="169"/></svg>