<?xml version="1.0" encoding="UTF-8"?><svg enable-background="new 0 0 250 250" height="250px" viewBox="0 0 250 250" width="250px" x="0px" xml:space="preserve" xmlns="http://www.w3.org/2000/svg" xmlns:xlink="http://www.w3.org/1999/xlink" y="0px"><defs><symbol id="5de4dbbba" overflow="visible"><path d="M94.828-43.656c0 13.074-4.125 24.062-12.375 32.968C74.203-1.789 64.63 2.656 53.734 2.656c-4.773 0-9.468-.742-14.093-2.219a59.406 59.406 0 0 1-13.032-5.921L20.062 4.687l-5.484-1.234c.3-4.363.508-9.61.625-15.734.113-6.125.172-12.047.172-17.766v-86.266c0-2-.46-4-1.375-6-.906-2.007-2.07-3.453-3.484-4.328-1.118-.77-2.985-1.343-5.61-1.718-2.625-.383-4.734-.641-6.328-.766v-5.656l32-2.031 1.235 1.328v57.453l.625.172c3.656-3.883 7.644-6.801 11.968-8.75 4.332-1.946 8.594-2.922 12.782-2.922 10.718 0 19.671 4.246 26.859 12.734 7.187 8.48 10.781 19.527 10.781 33.14zm-18.469.61c0-4.352-.476-8.798-1.421-13.329-.938-4.54-2.407-8.492-4.407-11.86-2.011-3.413-4.636-6.18-7.875-8.296C59.414-78.656 55.531-79.72 51-79.72c-4.125 0-7.734.813-10.828 2.438-3.094 1.617-5.883 3.808-8.36 6.578v50.734c.352 1.407 1.047 3.055 2.079 4.938 1.03 1.886 2.43 3.683 4.203 5.39 1.77 1.657 3.77 3 6 4.032 2.238 1.03 4.984 1.546 8.234 1.546 7.188 0 12.988-3.472 17.406-10.421 4.414-6.957 6.625-16.477 6.625-28.563zm0 0"/></symbol></defs><use x="74.397" xlink:href="#5de4dbbba" y="169"/></svg>