<?xml version="1.0" encoding="UTF-8"?><svg enable-background="new 0 0 250 250" height="250px" viewBox="0 0 250 250" width="250px" x="0px" xml:space="preserve" xmlns="http://www.w3.org/2000/svg" xmlns:xlink="http://www.w3.org/1999/xlink" y="0px"><defs><symbol id="6b2bef47a" overflow="visible"><path d="M75.39 0H4.86v-4.688l49.312-75.296H41.984c-5.125 0-9.136.09-12.03.265-2.888.18-5.54.766-7.954 1.766-1.648.648-3.195 2.508-4.64 5.578-1.438 3.063-2.688 7.07-3.75 12.016H8.218v-26.782h66.64v3.625L24.75-7.156c2.113.054 4.438.093 6.969.125 2.539.031 5.285.047 8.234.047 2.352 0 4.813-.024 7.375-.079 2.563-.062 5.848-.21 9.86-.453 2.351-.113 4.132-.906 5.343-2.375 1.207-1.476 2.133-3.16 2.782-5.046.644-1.708 1.425-4.063 2.343-7.063a173.772 173.772 0 0 0 2.422-8.75h5.313zm0 0"/></symbol></defs><use x="84.897" xlink:href="#6b2bef47a" y="169"/></svg>