<?xml version="1.0" encoding="UTF-8"?><svg enable-background="new 0 0 250 250" height="250px" viewBox="0 0 250 250" width="250px" x="0px" xml:space="preserve" xmlns="http://www.w3.org/2000/svg" xmlns:xlink="http://www.w3.org/1999/xlink" y="0px"><defs><symbol id="e99b2895a" overflow="visible"><path d="M99.781-1.594L71.406.36 70.078-.89v-11.046h-.531a127.819 127.819 0 0 1-4.766 4.734c-1.773 1.68-3.804 3.195-6.094 4.547-2.656 1.594-5.226 2.8-7.703 3.625-2.468.82-5.968 1.234-10.5 1.234-7.718 0-13.601-2.515-17.64-7.547-4.032-5.039-6.047-12.363-6.047-21.968v-41.72c0-2.113-.402-3.89-1.203-5.327-.793-1.446-1.953-2.704-3.485-3.766-1.062-.707-2.39-1.223-3.984-1.547a39.435 39.435 0 0 0-5.031-.672v-5.734l29.078-2.125L33.5-86.97v60.547c0 6.305 1.41 11.047 4.234 14.235 2.832 3.18 6.223 4.765 10.172 4.765 3.239 0 6.125-.5 8.657-1.5 2.53-1 4.648-2.18 6.359-3.547a29.179 29.179 0 0 0 4.203-3.922c1.207-1.382 2.133-2.664 2.781-3.843v-49.407c0-1.945-.414-3.671-1.234-5.171-.824-1.5-1.977-2.782-3.453-3.844-1.055-.707-2.625-1.133-4.719-1.281a341.098 341.098 0 0 0-7.031-.407v-5.734l31.64-2.125 1.329 1.234v69.203c0 2 .41 3.711 1.234 5.125.82 1.418 1.973 2.625 3.453 3.625 1.05.649 2.313 1.075 3.781 1.282 1.477.21 3.102.343 4.875.406zm0 0"/></symbol></defs><use x="73.029" xlink:href="#e99b2895a" y="169"/></svg>