<?xml version="1.0" encoding="UTF-8"?><svg enable-background="new 0 0 250 250" height="250px" viewBox="0 0 250 250" width="250px" x="0px" xml:space="preserve" xmlns="http://www.w3.org/2000/svg" xmlns:xlink="http://www.w3.org/1999/xlink" y="0px"><defs><symbol id="0a848720a" overflow="visible"><path d="M91.297-44.453c0 6.125-.977 12.152-2.922 18.078-1.938 5.918-4.703 10.938-8.297 15.063-4.074 4.71-8.793 8.214-14.156 10.515-5.356 2.3-11.36 3.453-18.016 3.453-5.543 0-10.82-1.047-15.828-3.14-5.012-2.094-9.46-5.145-13.344-9.157-3.836-3.945-6.886-8.757-9.156-14.437-2.262-5.688-3.39-12.067-3.39-19.14 0-13.614 3.957-24.75 11.875-33.407 7.925-8.656 18.316-12.984 31.171-12.984 12.188 0 22.243 4.109 30.172 12.328 7.926 8.219 11.89 19.164 11.89 32.828zM73-44.281c0-4.414-.445-9.082-1.328-14-.887-4.926-2.211-9.098-3.969-12.516-1.887-3.644-4.367-6.57-7.437-8.781-3.063-2.219-6.805-3.328-11.22-3.328-4.53 0-8.405 1.12-11.624 3.36-3.211 2.241-5.813 5.308-7.813 9.202-1.886 3.594-3.214 7.688-3.984 12.281-.762 4.594-1.14 9.043-1.14 13.344 0 5.657.453 10.887 1.359 15.688.914 4.804 2.375 9.09 4.375 12.86 2.008 3.773 4.531 6.733 7.562 8.89 3.032 2.148 6.785 3.218 11.266 3.218 7.363 0 13.195-3.562 17.5-10.687C70.847-21.883 73-31.727 73-44.281zm0 0"/></symbol></defs><use x="76.294" xlink:href="#0a848720a" y="169"/></svg>