<?xml version="1.0" encoding="UTF-8"?><svg enable-background="new 0 0 250 250" height="250px" viewBox="0 0 250 250" width="250px" x="0px" xml:space="preserve" xmlns="http://www.w3.org/2000/svg" xmlns:xlink="http://www.w3.org/1999/xlink" y="0px"><defs><symbol id="63c87471a" overflow="visible"><path d="M63.89-42.688c2.415 2.126 4.27 4.575 5.563 7.344 1.3 2.762 1.953 6.149 1.953 10.157 0 8.074-3.023 14.671-9.062 19.796C56.312-.266 48.492 2.297 38.89 2.297c-5.075 0-9.746-.914-14.016-2.735-4.273-1.832-7.32-3.515-9.14-5.046L13.968.266h-6.64l-.876-30.313h6.094c.469 2.293 1.469 4.977 3 8.047 1.539 3.063 3.398 5.828 5.578 8.297 2.29 2.594 5.04 4.777 8.25 6.547C32.594-5.383 36.207-4.5 40.219-4.5c5.656 0 10.015-1.281 13.078-3.844 3.062-2.57 4.594-6.242 4.594-11.015 0-2.47-.493-4.598-1.47-6.391-.968-1.8-2.398-3.379-4.28-4.734-1.938-1.364-4.325-2.586-7.157-3.672-2.824-1.094-5.976-2.172-9.453-3.235-2.773-.82-5.851-1.953-9.234-3.39-3.387-1.446-6.29-3.145-8.703-5.094-2.594-2.063-4.719-4.594-6.375-7.594-1.649-3.008-2.469-6.547-2.469-10.61 0-7.124 2.648-13.16 7.953-18.109 5.3-4.945 12.399-7.421 21.297-7.421 3.414 0 6.906.445 10.469 1.328 3.57.875 6.476 1.933 8.718 3.172l2.032-4.594h6.36l1.327 28.016h-6.094c-1.242-6.25-3.906-11.333-8-15.25-4.093-3.915-9.09-5.876-14.984-5.876-4.836 0-8.637 1.211-11.406 3.626-2.774 2.417-4.156 5.335-4.156 8.75 0 2.648.457 4.855 1.375 6.624.914 1.774 2.285 3.278 4.109 4.516 1.77 1.18 3.992 2.281 6.672 3.313 2.676 1.03 5.988 2.195 9.937 3.484 3.895 1.242 7.567 2.688 11.016 4.344 3.445 1.648 6.285 3.468 8.516 5.468zm0 0"/></symbol></defs><use x="85.956" xlink:href="#63c87471a" y="169"/></svg>