<?xml version="1.0" encoding="UTF-8"?><svg enable-background="new 0 0 250 250" height="250px" viewBox="0 0 250 250" width="250px" x="0px" xml:space="preserve" xmlns="http://www.w3.org/2000/svg" xmlns:xlink="http://www.w3.org/1999/xlink" y="0px"><defs><symbol id="455b15fea" overflow="visible"><path d="M71.234-126.297c0 2.656-.71 4.899-2.125 6.719-1.418 1.824-3.57 2.734-6.453 2.734-1.824 0-3.43-.379-4.812-1.14-1.387-.77-2.668-1.801-3.844-3.094-1.18-1.3-2.266-2.774-3.266-4.422-1-1.645-1.855-2.969-2.562-3.969-3.95.18-7 2.934-9.156 8.266-2.149 5.324-3.22 13.82-3.22 25.484v8.938h22.438v8.484H35.797v62.563c0 2.062.394 3.746 1.187 5.046.801 1.293 2.055 2.262 3.766 2.907 1.406.531 3.285.96 5.64 1.281 2.364.324 4.4.547 6.11.672V0H6.547v-5.828a389.04 389.04 0 0 1 4.187-.36c1.446-.113 2.704-.347 3.766-.703 1.645-.53 2.863-1.457 3.656-2.78.801-1.333 1.203-3.056 1.203-5.173v-63.453H2.125v-8.484h17.234v-5.578c0-13.25 3.43-23.985 10.297-32.204 6.864-8.226 15.446-12.343 25.75-12.343 5.25 0 9.196 1.031 11.844 3.094 2.656 2.062 3.984 4.57 3.984 7.515zm0 0"/></symbol></defs><use x="95.618" xlink:href="#455b15fea" y="169"/></svg>