<?xml version="1.0" encoding="UTF-8"?><svg enable-background="new 0 0 250 250" height="250px" viewBox="0 0 250 250" width="250px" x="0px" xml:space="preserve" xmlns="http://www.w3.org/2000/svg" xmlns:xlink="http://www.w3.org/1999/xlink" y="0px"><defs><symbol id="a22588e9a" overflow="visible"><path d="M73.094-75.922c0 3.012-.742 5.684-2.219 8.016-1.469 2.324-3.734 3.484-6.797 3.484-3.305 0-5.824-.851-7.562-2.562-1.743-1.707-2.61-3.594-2.61-5.657 0-1.3.102-2.484.313-3.546.207-1.063.398-2.118.578-3.172-2.774 0-6.016 1.12-9.734 3.359-3.711 2.242-6.86 5.418-9.454 9.531v50.735c0 2.062.395 3.746 1.188 5.046.8 1.293 2.055 2.262 3.766 2.907 1.476.593 3.378 1.039 5.703 1.328 2.32.293 4.343.5 6.062.625V0H6.36v-5.828a368.26 368.26 0 0 1 4.204-.36c1.445-.113 2.695-.347 3.75-.703 1.656-.53 2.878-1.457 3.671-2.78.79-1.333 1.188-3.056 1.188-5.173v-53.828c0-1.82-.43-3.617-1.281-5.39-.856-1.77-2.047-3.18-3.578-4.235-1.118-.707-2.438-1.223-3.97-1.547a34.017 34.017 0 0 0-4.952-.672v-5.75l28.984-1.937 1.234 1.234v12.281h.453c3.645-4.769 7.708-8.39 12.188-10.859 4.477-2.476 8.578-3.719 12.297-3.719 3.707 0 6.723 1.211 9.047 3.625 2.332 2.418 3.5 5.657 3.5 9.72zm0 0"/></symbol></defs><use x="87.985" xlink:href="#a22588e9a" y="169"/></svg>