<?xml version="1.0" encoding="UTF-8"?><svg enable-background="new 0 0 250 250" height="250px" viewBox="0 0 250 250" width="250px" x="0px" xml:space="preserve" xmlns="http://www.w3.org/2000/svg" xmlns:xlink="http://www.w3.org/1999/xlink" y="0px"><defs><symbol id="fc6d933ca" overflow="visible"><path d="M81.047-9.016c2.351 2.243 4.207 4.778 5.562 7.61 1.352 2.82 2.032 6.328 2.032 10.515 0 4.176-.914 8.102-2.735 11.782-1.824 3.687-4.594 6.882-8.312 9.593-3.95 2.77-8.664 4.922-14.14 6.453-5.481 1.532-12.259 2.297-20.329 2.297-13.2 0-23.07-1.933-29.61-5.797-6.53-3.855-9.796-9.492-9.796-16.906 0-6.011 2.351-10.758 7.062-14.234C15.5-1.18 21.508-3.066 28.813-3.36v-1.235a54.287 54.287 0 0 1-5.485-1.984c-1.887-.8-3.508-1.734-4.86-2.797a14.931 14.931 0 0 1-3.718-4.36c-.938-1.687-1.406-3.765-1.406-6.234 0-3.125 1.101-6 3.312-8.625 2.207-2.625 5.551-4.879 10.032-6.765v-1.313c-5.657-2.656-10.047-6.055-13.172-10.203-3.118-4.156-4.672-8.973-4.672-14.453 0-8.25 3.078-15.024 9.234-20.328 6.156-5.301 14.035-7.953 23.64-7.953 2.645 0 5.282.265 7.907.796 2.625.524 5.29 1.2 8 2.032h30.406v8.484H67.516v.516c2.187 2.543 3.804 5.344 4.859 8.406 1.063 3.063 1.594 6.07 1.594 9.016 0 7.656-3.11 14.136-9.328 19.437-6.211 5.305-13.438 7.953-21.688 7.953H32.266c-1.368.469-2.782 1.324-4.25 2.563-1.47 1.242-2.203 2.922-2.203 5.047 0 2.18.613 3.843 1.843 5 1.239 1.148 2.742 1.922 4.516 2.328 1.707.468 3.691.765 5.953.89 2.27.118 4.613.203 7.031.266 2.594.055 6.145.23 10.657.531 4.507.293 7.707.469 9.593.532 2.707.117 5.43.761 8.172 1.937a26.378 26.378 0 0 1 7.469 4.86zm-23.86-51.703c0-6.894-1.402-12.39-4.203-16.484-2.804-4.094-6.734-6.14-11.797-6.14-2.773 0-5.148.577-7.124 1.734-1.97 1.148-3.575 2.777-4.813 4.89-1.18 1.95-2.016 4.293-2.516 7.031-.5 2.743-.75 5.555-.75 8.438 0 6.543 1.426 11.875 4.282 16 2.863 4.125 6.562 6.188 11.093 6.188 5.07 0 8.977-2.047 11.72-6.141 2.737-4.094 4.108-9.266 4.108-15.516zm16.97 73.094c0-3.305-.774-6.016-2.313-8.14-1.531-2.118-3.856-3.56-6.969-4.329-1.656-.226-5.047-.488-10.172-.781-5.125-.3-11.074-.453-17.844-.453-6.367 1.242-10.89 3.316-13.578 6.234-2.68 2.914-4.015 6.672-4.015 11.266 0 2.062.441 4.035 1.328 5.922.883 1.883 2.414 3.625 4.593 5.218 2.063 1.532 4.829 2.782 8.297 3.75 3.477.977 7.723 1.47 12.735 1.47 8.664 0 15.488-1.669 20.468-5 4.977-3.337 7.47-8.387 7.47-15.157zm0 0"/></symbol></defs><use x="78.985" xlink:href="#fc6d933ca" y="169"/></svg>