<?xml version="1.0" encoding="UTF-8"?><svg enable-background="new 0 0 250 250" height="250px" viewBox="0 0 250 250" width="250px" x="0px" xml:space="preserve" xmlns="http://www.w3.org/2000/svg" xmlns:xlink="http://www.w3.org/1999/xlink" y="0px"><defs><symbol id="3e1181b3a" overflow="visible"><path d="M136.188-81.484c-2.47.242-5.137 1.273-8 3.093-2.856 1.825-4.93 4.563-6.22 8.22-2.948 8.655-5.734 16.859-8.359 24.609a8533.58 8533.58 0 0 0-8.796 26.124 333.824 333.824 0 0 0-3.22 9.891A302.44 302.44 0 0 0 98.626.625h-7.594L67.61-63.547 44.016.625h-7.25a4538.171 4538.171 0 0 1-12.953-38.938c-4.211-12.874-7.934-24.082-11.172-33.624-.95-2.77-2.75-4.946-5.407-6.532-2.648-1.594-5.203-2.539-7.671-2.844v-5.828h38.874v6.188c-1.937.062-4.042.39-6.312.984-2.273.586-3.406 1.555-3.406 2.906 0 .231.101.731.312 1.5.207.762.457 1.586.75 2.47 1.883 6.187 4.02 13.1 6.407 20.734 2.382 7.625 5.46 17.539 9.234 29.734l22.281-62.75h8.484l22.704 61.86c2.539-7.895 5.062-15.536 7.562-22.922 2.5-7.395 4.692-14.333 6.578-20.813.414-1.531.813-2.93 1.188-4.203.383-1.27.578-2.52.578-3.75 0-1.063-.477-2.004-1.422-2.828-.938-.832-2.086-1.516-3.438-2.047a18.716 18.716 0 0 0-3.843-1.047c-1.387-.238-2.403-.36-3.047-.36v-5.656h33.14zm0 0"/></symbol></defs><use x="58.382" xlink:href="#3e1181b3a" y="169"/></svg>