<?xml version="1.0" encoding="UTF-8"?><svg enable-background="new 0 0 250 250" height="250px" viewBox="0 0 250 250" width="250px" x="0px" xml:space="preserve" xmlns="http://www.w3.org/2000/svg" xmlns:xlink="http://www.w3.org/1999/xlink" y="0px"><defs><symbol id="98fbb6f1a" overflow="visible"><path d="M102.61 0H59.921v-5.828c1.351-.125 2.836-.242 4.453-.36C66-6.3 67.344-6.534 68.406-6.89c1.645-.53 2.864-1.457 3.656-2.78.801-1.333 1.204-3.056 1.204-5.173v-44.812c0-6.188-1.461-10.957-4.375-14.313-2.918-3.363-6.47-5.047-10.657-5.047-3.117 0-5.968.493-8.562 1.47-2.594.968-4.89 2.163-6.89 3.577-1.95 1.356-3.5 2.813-4.657 4.375-1.148 1.563-1.984 2.813-2.516 3.75v50.11c0 2 .41 3.652 1.235 4.953.832 1.293 2.07 2.293 3.718 3a17.01 17.01 0 0 0 4.016 1.328c1.445.293 2.938.5 4.469.625V0H6.359v-5.828a368.26 368.26 0 0 1 4.204-.36c1.445-.113 2.695-.347 3.75-.703 1.656-.53 2.878-1.457 3.671-2.78.79-1.333 1.188-3.056 1.188-5.173v-53.828c0-2-.43-3.836-1.281-5.516a10.87 10.87 0 0 0-3.578-4.109c-1.118-.707-2.438-1.223-3.97-1.547a34.017 34.017 0 0 0-4.952-.672v-5.75l28.984-1.937 1.234 1.234v12.281h.453a224.148 224.148 0 0 1 5.297-5.062c2.125-1.977 4.13-3.586 6.016-4.828 2.176-1.414 4.766-2.594 7.766-3.531 3.007-.946 6.398-1.422 10.172-1.422 8.363 0 14.562 2.61 18.593 7.828 4.04 5.21 6.063 12.148 6.063 20.812v45.328c0 2.063.351 3.731 1.062 5 .707 1.274 1.914 2.262 3.625 2.97 1.414.585 2.64.995 3.672 1.234 1.031.23 2.457.406 4.281.53zm0 0"/></symbol></defs><use x="71.618" xlink:href="#98fbb6f1a" y="169"/></svg>