<?xml version="1.0" encoding="UTF-8"?><svg enable-background="new 0 0 250 250" height="250px" viewBox="0 0 250 250" width="250px" x="0px" xml:space="preserve" xmlns="http://www.w3.org/2000/svg" xmlns:xlink="http://www.w3.org/1999/xlink" y="0px"><defs><symbol id="acaa5339a" overflow="visible"><path d="M88.906-1.594c-2.773 1-5.203 1.805-7.297 2.422-2.086.625-4.453.938-7.109.938-4.594 0-8.262-1.075-11-3.22-2.742-2.155-4.496-5.296-5.266-9.421h-.515c-3.836 4.25-7.95 7.496-12.344 9.734-4.387 2.227-9.672 3.344-15.86 3.344-6.542 0-11.917-2-16.124-6C9.18-7.805 7.078-13.05 7.078-19.53c0-3.352.469-6.36 1.406-9.016a21.492 21.492 0 0 1 4.25-7.156c1.47-1.77 3.41-3.348 5.829-4.734 2.414-1.383 4.68-2.489 6.796-3.313 2.657-1 8.032-2.852 16.125-5.563 8.102-2.707 13.57-4.828 16.407-6.359v-8.75c0-.77-.164-2.242-.485-4.422a18.366 18.366 0 0 0-2.078-6.187c-1.18-2.176-2.844-4.078-5-5.703-2.148-1.625-5.195-2.438-9.14-2.438-2.711 0-5.231.461-7.563 1.375-2.324.918-3.96 1.875-4.906 2.875 0 1.18.281 2.918.843 5.219.563 2.293.844 4.414.844 6.36 0 2.062-.933 3.948-2.797 5.656-1.855 1.71-4.43 2.562-7.718 2.562-2.95 0-5.118-1.047-6.5-3.14-1.387-2.094-2.079-4.438-2.079-7.032 0-2.707.958-5.297 2.876-7.766 1.914-2.476 4.406-4.687 7.468-6.624 2.645-1.657 5.852-3.055 9.625-4.204 3.77-1.144 7.453-1.718 11.047-1.718 4.945 0 9.266.34 12.953 1.015a23.755 23.755 0 0 1 10.032 4.375c3 2.18 5.28 5.137 6.843 8.875C73.72-71.602 74.5-66.785 74.5-60.89c0 8.43-.09 15.899-.266 22.407-.18 6.511-.265 13.625-.265 21.343 0 2.293.394 4.118 1.187 5.47.801 1.355 2.024 2.507 3.672 3.452.883.531 2.285.828 4.203.89 1.914.056 3.875.079 5.875.079zM58.062-48.25c-5.011 1.469-9.402 2.914-13.171 4.328-3.774 1.418-7.278 3.184-10.516 5.297-2.95 2.012-5.277 4.387-6.984 7.125-1.711 2.742-2.563 5.996-2.563 9.766 0 4.886 1.281 8.48 3.844 10.78 2.57 2.294 5.828 3.438 9.765 3.438 4.188 0 7.868-1.015 11.047-3.046 3.188-2.032 5.868-4.43 8.047-7.204zm0 0"/></symbol></defs><use x="79.471" xlink:href="#acaa5339a" y="169"/></svg>