<?xml version="1.0" encoding="UTF-8"?><svg enable-background="new 0 0 250 250" height="250px" viewBox="0 0 250 250" width="250px" x="0px" xml:space="preserve" xmlns="http://www.w3.org/2000/svg" xmlns:xlink="http://www.w3.org/1999/xlink" y="0px"><defs><symbol id="6896aee5a" overflow="visible"><path d="M47.188 0h-42.5v-5.828c1.351-.125 2.796-.258 4.328-.406 1.53-.145 2.796-.364 3.796-.657 1.657-.53 2.895-1.457 3.72-2.78.82-1.333 1.234-3.056 1.234-5.173V-115.78c0-2.114-.461-4.098-1.375-5.953-.907-1.864-2.102-3.32-3.578-4.375-1.063-.707-3.012-1.352-5.844-1.938-2.824-.594-5.09-.953-6.797-1.078v-5.656l32.797-2.031 1.234 1.328v119.578c0 2.062.379 3.758 1.14 5.078.77 1.324 2.009 2.34 3.72 3.047a20.07 20.07 0 0 0 3.843 1.328c1.27.293 2.696.5 4.282.625zm0 0"/></symbol></defs><use x="99.147" xlink:href="#6896aee5a" y="169"/></svg>