<?xml version="1.0" encoding="UTF-8"?><svg enable-background="new 0 0 250 250" height="250px" viewBox="0 0 250 250" width="250px" x="0px" xml:space="preserve" xmlns="http://www.w3.org/2000/svg" xmlns:xlink="http://www.w3.org/1999/xlink" y="0px"><defs><symbol id="22344c62a" overflow="visible"><path d="M67.656 0v-48.453c0-4.414-.258-8.297-.765-11.64-.512-3.344-1.45-6.118-2.813-8.329a13.127 13.127 0 0 0-5.516-5.016c-2.324-1.132-5.355-1.703-9.093-1.703-5.324 0-10.14 1.73-14.453 5.188-4.305 3.46-7.078 7.906-8.328 13.344V0H13.094v-119h13.594v43.516h.687c2.945-3.508 6.488-6.313 10.625-8.407 4.133-2.101 9.258-3.156 15.375-3.156 4.758 0 8.895.543 12.406 1.625 3.52 1.074 6.442 2.969 8.766 5.688 2.32 2.718 4.02 6.375 5.094 10.968 1.082 4.594 1.625 10.403 1.625 17.422V0zm0 0"/></symbol></defs><use x="78.526" xlink:href="#22344c62a" y="169"/></svg>