<?xml version="1.0" encoding="UTF-8"?><svg enable-background="new 0 0 250 250" height="250px" viewBox="0 0 250 250" width="250px" x="0px" xml:space="preserve" xmlns="http://www.w3.org/2000/svg" xmlns:xlink="http://www.w3.org/1999/xlink" y="0px"><defs><symbol id="be435e53a" overflow="visible"><path d="M63.234-15.125c-1.586 4.531-4.359 8.527-8.328 11.984-3.968 3.457-9.011 5.188-15.125 5.188-10.886 0-19.078-3.598-24.578-10.797C9.711-15.945 6.97-27.023 6.97-41.984c0-14.739 3.656-25.848 10.968-33.328 7.313-7.477 17.82-11.22 31.532-11.22 6.125 0 11.96.571 17.515 1.704 5.551 1.137 9.63 2.324 12.235 3.562V25.672c1.926.344 3.797.82 5.61 1.437 1.812.625 3.679 1.504 5.609 2.641V34H52.703v-4.25c3.508-1.813 7.25-3.172 11.219-4.078v-40.797zM43.86-8.5c5.551 0 9.942-1.754 13.172-5.266 3.227-3.52 5.524-8.222 6.89-14.109v-48.797c-2.042-.676-4.452-1.238-7.233-1.687-2.774-.457-5.97-.688-9.594-.688-7.594 0-13.461 2.95-17.594 8.844-4.137 5.887-6.203 15.18-6.203 27.875 0 4.762.336 9.183 1.015 13.266.676 4.074 1.836 7.64 3.485 10.703 1.644 3.062 3.77 5.476 6.375 7.234 2.601 1.75 5.832 2.625 9.687 2.625zm0 0"/></symbol></defs><use x="78.441" xlink:href="#be435e53a" y="169"/></svg>