<?xml version="1.0" encoding="UTF-8"?><svg enable-background="new 0 0 250 250" height="250px" viewBox="0 0 250 250" width="250px" x="0px" xml:space="preserve" xmlns="http://www.w3.org/2000/svg" xmlns:xlink="http://www.w3.org/1999/xlink" y="0px"><defs><symbol id="0cff479ca" overflow="visible"><path d="M40.453 2.047L7.313-76.5c-3.293-1.133-6.297-2.492-9.016-4.078V-85h35.531v4.25a110.336 110.336 0 0 1-4.5 2.297c-1.531.742-3.262 1.39-5.187 1.953l19.718 51.172 3.407 10.531h.328L50.156-25.5l18.188-51c-1.813-.457-3.485-1.023-5.016-1.703a28.94 28.94 0 0 1-4.344-2.375V-85h28.907v4.422c-1.137.793-2.528 1.531-4.172 2.219-1.637.68-3.477 1.296-5.516 1.859L48.11 0zm0 0"/></symbol></defs><use x="81.925" xlink:href="#0cff479ca" y="169"/></svg>