<?xml version="1.0" encoding="UTF-8"?><svg enable-background="new 0 0 250 250" height="250px" viewBox="0 0 250 250" width="250px" x="0px" xml:space="preserve" xmlns="http://www.w3.org/2000/svg" xmlns:xlink="http://www.w3.org/1999/xlink" y="0px"><defs><symbol id="1a1cc654a" overflow="visible"><path d="M34 2.047L7.312-76.5a107.009 107.009 0 0 1-4.671-1.781 24.8 24.8 0 0 1-4.344-2.297V-85h35.36v4.25a62.888 62.888 0 0 1-4.766 2.469 31.083 31.083 0 0 1-4.922 1.781l14.797 49.64 2.203 12.235h.343l2.547-12.578 18.36-56.094L67.312-85l19.563 57.969 3.063 12.406h.328l2.546-12.406L105.906-76.5c-1.242-.227-2.683-.68-4.328-1.36-1.648-.675-3.32-1.581-5.016-2.718V-85h28.891v4.422c-2.375 1.586-5.605 2.945-9.687 4.078L91.625 0l-9 2.047-16.828-48.11-3.234-14.124h-.516L58.14-46.063 42.844 0zm0 0"/></symbol></defs><use x="63.148" xlink:href="#1a1cc654a" y="169"/></svg>