<?xml version="1.0" encoding="UTF-8"?><svg enable-background="new 0 0 250 250" height="250px" viewBox="0 0 250 250" width="250px" x="0px" xml:space="preserve" xmlns="http://www.w3.org/2000/svg" xmlns:xlink="http://www.w3.org/1999/xlink" y="0px"><defs><symbol id="20cbe19da" overflow="visible"><path d="M63.406-16.828c-.562 2.492-1.527 4.871-2.89 7.14A25.513 25.513 0 0 1 55.5-3.655C53.52-1.895 51.254-.504 48.703.516c-2.555 1.02-5.305 1.53-8.25 1.53-11.219 0-19.605-3.566-25.156-10.702-5.555-7.145-8.328-18.254-8.328-33.328 0-14.508 3.539-25.563 10.625-33.157 7.082-7.593 16.629-11.39 28.64-11.39 4.196 0 7.485.199 9.86.594 2.383.398 4.992 1.105 7.828 2.124v-32.124L51-117.297v-4.422c3.29-1.363 7.113-2.55 11.469-3.562a220.476 220.476 0 0 1 12.5-2.563h4.25V-9.688l11.219 1.36v3.562A78.094 78.094 0 0 1 80.233-.672C76.723.453 73.27 1.242 69.875 1.703h-4.25l-1.531-18.531zM43.86-8.5c5.551 0 9.97-1.754 13.25-5.266 3.29-3.52 5.563-8.28 6.813-14.28v-47.938c-1.93-1.133-4.2-1.926-6.813-2.375-2.605-.457-5.945-.688-10.015-.688-7.711 0-13.606 3.375-17.688 10.125-4.074 6.742-6.11 15.719-6.11 26.938 0 4.648.395 8.98 1.188 13 .79 4.023 2.036 7.562 3.735 10.625 1.695 3.062 3.82 5.476 6.375 7.234 2.55 1.75 5.64 2.625 9.265 2.625zm0 0"/></symbol></defs><use x="77.847" xlink:href="#20cbe19da" y="169"/></svg>