<?xml version="1.0" encoding="UTF-8"?><svg enable-background="new 0 0 250 250" height="250px" viewBox="0 0 250 250" width="250px" x="0px" xml:space="preserve" xmlns="http://www.w3.org/2000/svg" xmlns:xlink="http://www.w3.org/1999/xlink" y="0px"><defs><symbol id="b90cb031a" overflow="visible"><path d="M41.484-72.25c-1.25.68-2.812 2.07-4.687 4.172-1.867 2.094-3.531 5.183-5 9.266v50.484c2.258.23 4.52.656 6.781 1.281 2.27.617 4.54 1.547 6.813 2.797V0H5.266v-4.25c2.039-1.133 3.968-1.984 5.78-2.547a91.278 91.278 0 0 1 5.438-1.531v-66.813L5.266-76.5v-4.422a70.793 70.793 0 0 1 11.218-3.812c3.852-.97 7.54-1.739 11.063-2.313h4.25v18.031h.672c1.02-2.27 2.46-4.535 4.328-6.796a36.944 36.944 0 0 1 6.469-6.126 28.233 28.233 0 0 1 7.984-4.156 20.783 20.783 0 0 1 8.938-.953 34.918 34.918 0 0 1 2.109 4.86c.625 1.75 1.223 3.59 1.797 5.515v4.422zm0 0"/></symbol></defs><use x="92.375" xlink:href="#b90cb031a" y="169"/></svg>