<?xml version="1.0" encoding="UTF-8"?><svg enable-background="new 0 0 250 250" height="250px" viewBox="0 0 250 250" width="250px" x="0px" xml:space="preserve" xmlns="http://www.w3.org/2000/svg" xmlns:xlink="http://www.w3.org/1999/xlink" y="0px"><defs><symbol id="7f9c8f1aa" overflow="visible"><path d="M69.703-22.266c0 2.493.055 4.641.172 6.453.113 1.813.223 3.743.328 5.782l11.734 1.703v3.562c-2.835 1.48-5.98 2.79-9.437 3.922-3.46 1.125-6.773 1.973-9.938 2.547h-4.25c-1.136-2.601-1.82-5.46-2.046-8.578a261.375 261.375 0 0 1-.5-10.297h-.86c-.449 2.274-1.328 4.57-2.64 6.89-1.305 2.325-3 4.391-5.094 6.204-2.094 1.812-4.559 3.289-7.39 4.422-2.837 1.133-6.063 1.703-9.688 1.703-6.918 0-12.559-2.098-16.922-6.297-4.367-4.195-6.547-9.691-6.547-16.484 0-5.22 1.047-9.5 3.14-12.844 2.102-3.344 5.192-5.977 9.266-7.906 4.082-1.926 9.13-3.313 15.14-4.157 6.009-.851 12.977-1.504 20.907-1.953.457-4.875.598-9.265.422-13.172-.168-3.914-.793-7.257-1.875-10.03-1.074-2.782-2.656-4.938-4.75-6.47-2.094-1.53-4.844-2.296-8.25-2.296-1.586 0-3.371.09-5.36.265-1.98.168-3.933.649-5.859 1.438l-7.984 20.406H17A119.977 119.977 0 0 1 14.016-68c-.844-3.625-1.383-7.191-1.61-10.703 4.313-2.613 9.102-4.656 14.375-6.125 5.27-1.477 11.133-2.219 17.594-2.219 5.781 0 10.395.824 13.844 2.469 3.457 1.648 6.093 3.773 7.906 6.375 1.813 2.605 3 5.496 3.563 8.672.57 3.18.859 6.351.859 9.515 0 6.805-.14 13.352-.422 19.641a406.079 406.079 0 0 0-.422 18.11zM36.891-8.5c2.832 0 5.32-.566 7.468-1.703 2.157-1.133 3.97-2.492 5.438-4.078 1.476-1.582 2.672-3.196 3.578-4.844.906-1.645 1.531-3.035 1.875-4.172V-41.14c-6.574 0-11.96.344-16.156 1.032-4.188.68-7.477 1.75-9.86 3.218-2.375 1.47-4.015 3.313-4.922 5.532-.906 2.21-1.359 4.73-1.359 7.562 0 4.875 1.242 8.649 3.735 11.313C29.188-9.828 32.585-8.5 36.89-8.5zm0 0"/></symbol></defs><use x="82.095" xlink:href="#7f9c8f1aa" y="169"/></svg>