<?xml version="1.0" encoding="UTF-8"?><svg enable-background="new 0 0 250 250" height="250px" viewBox="0 0 250 250" width="250px" x="0px" xml:space="preserve" xmlns="http://www.w3.org/2000/svg" xmlns:xlink="http://www.w3.org/1999/xlink" y="0px"><defs><symbol id="d266efdaa" overflow="visible"><path d="M50.656-45.563l26.86 37.235a99.87 99.87 0 0 1 4.671 1.781 24.8 24.8 0 0 1 4.344 2.297V0H51.687v-4.078a262.11 262.11 0 0 1 4.407-2.469 24.96 24.96 0 0 1 4.093-1.781L41.314-36.203 22.265-8.328a36.964 36.964 0 0 1 4.422 1.875 71.672 71.672 0 0 1 4.078 2.203V0H1.703v-4.25C4.867-6.176 8.04-7.535 11.22-8.328l25.328-33.828-25.5-34.344a43.868 43.868 0 0 1-4.328-1.781 33.037 33.037 0 0 1-4-2.297V-85H36.89v4.25a68.14 68.14 0 0 1-4 2.469 20.428 20.428 0 0 1-4.328 1.781L46.233-51l17.344-25.5c-3.855-1.25-6.687-2.61-8.5-4.078V-85h28.39v4.422c-2.156 1.469-5.327 2.828-9.515 4.078zm0 0"/></symbol></defs><use x="80.905" xlink:href="#d266efdaa" y="169"/></svg>