<?xml version="1.0" encoding="UTF-8"?><svg enable-background="new 0 0 250 250" height="250px" viewBox="0 0 250 250" width="250px" x="0px" xml:space="preserve" xmlns="http://www.w3.org/2000/svg" xmlns:xlink="http://www.w3.org/1999/xlink" y="0px"><defs><symbol id="3c25bf90a" overflow="visible"><path d="M7.14-76.5c-1.699-.457-3.257-1.023-4.671-1.703a47.436 47.436 0 0 1-4.344-2.375V-85h35.531v4.25c-2.375 1.586-5.605 3-9.687 4.25l21.765 50.313 3.22 10.546h.343l2.547-10.703L68-76.5a23.693 23.693 0 0 1-9.344-4.078V-85H87.72v4.422c-2.375 1.586-5.606 2.945-9.688 4.078L51.516 0c-2.72 7.25-5.297 13.113-7.735 17.594-2.437 4.476-4.875 8.02-7.312 10.625-2.438 2.601-4.934 4.5-7.485 5.687-2.554 1.196-5.304 2.078-8.25 2.64-1.242-2.155-2.343-4.538-3.312-7.14a110.069 110.069 0 0 1-2.469-7.468l2.219-4.094h17.672a29.671 29.671 0 0 0 1.797-2.64c.507-.845 1.047-1.892 1.609-3.142.563-1.242 1.18-2.824 1.86-4.75.687-1.93 1.484-4.367 2.39-7.312zm0 0"/></symbol></defs><use x="82.095" xlink:href="#3c25bf90a" y="169"/></svg>