<?xml version="1.0" encoding="UTF-8"?><svg enable-background="new 0 0 250 250" height="250px" viewBox="0 0 250 250" width="250px" x="0px" xml:space="preserve" xmlns="http://www.w3.org/2000/svg" xmlns:xlink="http://www.w3.org/1999/xlink" y="0px"><defs><symbol id="2a2f0daaa" overflow="visible"><path d="M43.016 34H5.266v-4.25c3.851-1.813 7.593-3.172 11.218-4.078V-75.141L5.266-76.5v-4.422a71.927 71.927 0 0 1 11.125-3.812c3.8-.97 7.52-1.739 11.156-2.313h4.25V-68h.156c2.27-5.781 5.442-10.398 9.516-13.86 4.082-3.456 9.41-5.187 15.984-5.187 10.094 0 17.914 3.344 23.469 10.031 5.55 6.688 8.328 17.57 8.328 32.641 0 7.148-.938 13.61-2.813 19.39-1.867 5.782-4.527 10.657-7.984 14.626-3.46 3.96-7.652 7.015-12.578 9.171C60.945.97 55.477 2.047 49.469 2.047c-4.188 0-7.477-.258-9.86-.766-2.375-.511-4.98-1.39-7.812-2.64v27.03c1.812.227 3.625.65 5.437 1.267 1.813.625 3.739 1.562 5.782 2.812zm9-110.5c-5.555 0-9.977 1.762-13.266 5.281-3.281 3.512-5.602 8.324-6.953 14.438v47.593c2.031 1.25 4.32 2.188 6.875 2.813 2.55.625 5.867.938 9.953.938 3.738 0 7.11-.961 10.11-2.891 3-1.926 5.546-4.645 7.64-8.156 2.102-3.52 3.723-7.63 4.86-12.328 1.132-4.708 1.703-9.895 1.703-15.563 0-4.645-.372-8.922-1.11-12.828-.742-3.906-1.933-7.3-3.578-10.188-1.637-2.894-3.79-5.132-6.453-6.718-2.668-1.594-5.93-2.391-9.781-2.391zm0 0"/></symbol></defs><use x="76.912" xlink:href="#2a2f0daaa" y="169"/></svg>