<?xml version="1.0" encoding="UTF-8"?><svg enable-background="new 0 0 250 250" height="250px" viewBox="0 0 250 250" width="250px" x="0px" xml:space="preserve" xmlns="http://www.w3.org/2000/svg" xmlns:xlink="http://www.w3.org/1999/xlink" y="0px"><defs><symbol id="69211831a" overflow="visible"><path d="M78.203 3.906c0 11-2.922 19.102-8.766 24.313-5.835 5.218-14.476 7.828-25.921 7.828-6.805 0-12.274-.43-16.407-1.281-4.136-.856-7.68-1.961-10.625-3.313l3.578-11.562c2.602 1.02 5.489 1.984 8.657 2.89 3.176.907 7.316 1.36 12.422 1.36 4.757 0 8.64-.43 11.64-1.282 3.008-.843 5.422-2.261 7.235-4.25 1.812-1.98 3.054-4.527 3.734-7.64.676-3.117 1.016-6.828 1.016-11.14v-8.157h-.672C61.82-5.047 58.93-2.523 55.422-.766 51.91.992 47.32 1.875 41.656 1.875c-11.449 0-19.867-3.566-25.25-10.703-5.386-7.145-8.078-18.254-8.078-33.328 0-14.508 3.453-25.532 10.36-33.063 6.914-7.539 17.117-11.312 30.609-11.312 6.457 0 11.984.511 16.578 1.531 4.594 1.023 8.703 2.21 12.328 3.563zM44.031-10.03c5.782 0 10.313-1.442 13.594-4.328 3.29-2.895 5.613-7.399 6.969-13.516v-43.531c-4.531-2.145-10.309-3.219-17.328-3.219-7.711 0-13.778 2.61-18.203 7.828-4.418 5.211-6.625 13.367-6.625 24.469 0 4.762.394 9.125 1.187 13.094.79 3.96 2.035 7.355 3.734 10.187C29.066-16.21 31.281-14 34-12.407c2.719 1.587 6.063 2.376 10.031 2.376zm0 0"/></symbol></defs><use x="79.376" xlink:href="#69211831a" y="169"/></svg>