<?xml version="1.0" encoding="UTF-8"?><svg enable-background="new 0 0 250 250" height="250px" viewBox="0 0 250 250" width="250px" x="0px" xml:space="preserve" xmlns="http://www.w3.org/2000/svg" xmlns:xlink="http://www.w3.org/1999/xlink" y="0px"><defs><symbol id="31428393a" overflow="visible"><path d="M52.016-127.844c1.02 0 2.207.059 3.562.172 1.363.117 2.781.262 4.25.438a47.19 47.19 0 0 1 4.25.671c1.363.282 2.555.594 3.578.938-.336 3.742-.812 7.227-1.437 10.453-.625 3.23-1.39 6.149-2.297 8.75h-4.25l-7.484-14.625c-3.282 0-6.086.344-8.407 1.031-2.324.68-4.25 1.98-5.781 3.907-1.531 1.93-2.668 4.703-3.406 8.328-.742 3.625-1.11 8.386-1.11 14.281v8.5h19.563v8.5H33.484v68.172c5.895.68 11.336 2.039 16.328 4.078V0H6.97v-4.25a33.367 33.367 0 0 1 11.218-4.078V-76.5H5.267v-4.422c3.968-2.488 8.273-4.36 12.921-5.61v-5.952c0-7.02.848-12.829 2.547-17.422 1.707-4.594 4.086-8.219 7.141-10.875 3.063-2.664 6.66-4.508 10.797-5.531 4.133-1.02 8.582-1.532 13.344-1.532zm0 0"/></symbol></defs><use x="95.943" xlink:href="#31428393a" y="169"/></svg>