<?xml version="1.0" encoding="UTF-8"?><svg enable-background="new 0 0 250 250" height="250px" viewBox="0 0 250 250" width="250px" x="0px" xml:space="preserve" xmlns="http://www.w3.org/2000/svg" xmlns:xlink="http://www.w3.org/1999/xlink" y="0px"><defs><symbol id="3c12690aa" overflow="visible"><path d="M78.375-29.234c0 5.78.05 11.027.156 15.734.114 4.7.625 9.313 1.531 13.844h-9.171l-3.407-12.078h-.671c-2.274 3.968-5.563 7.261-9.876 9.875-4.304 2.601-9.343 3.906-15.124 3.906-11.336 0-19.75-3.567-25.25-10.703-5.493-7.145-8.235-18.313-8.235-33.5 0-14.508 3.426-25.532 10.281-33.063C25.473-82.758 34.91-86.53 46.922-86.53c4.187 0 7.5.23 9.937.687 2.438.45 5.07 1.184 7.907 2.203V-119h13.609zM44.031-9.86c5.782 0 10.367-1.5 13.766-4.5 3.406-3.008 5.726-7.57 6.969-13.688v-42.156c-2.043-1.594-4.368-2.727-6.97-3.406-2.605-.676-6.058-1.016-10.358-1.016-7.825 0-13.95 2.578-18.376 7.734-4.417 5.157-6.625 13.403-6.625 24.735 0 4.648.368 8.953 1.11 12.922.738 3.96 1.957 7.355 3.656 10.187 1.695 2.836 3.93 5.074 6.703 6.719 2.782 1.648 6.157 2.469 10.125 2.469zm0 0"/></symbol></defs><use x="79.291" xlink:href="#3c12690aa" y="169"/></svg>