<?xml version="1.0" encoding="UTF-8"?><svg enable-background="new 0 0 250 250" height="250px" viewBox="0 0 250 250" width="250px" x="0px" xml:space="preserve" xmlns="http://www.w3.org/2000/svg" xmlns:xlink="http://www.w3.org/1999/xlink" y="0px"><defs><symbol id="ba81db3ea" overflow="visible"><path d="M67.656 0v-48.453c0-8.832-1.277-15.488-3.828-19.969-2.543-4.476-7.215-6.719-14.016-6.719-6.011 0-10.976 1.618-14.89 4.844-3.906 3.23-6.652 7.281-8.234 12.156V0H13.094v-85h9.515l2.547 10.375h.688c2.718-3.625 6.367-6.598 10.953-8.922 4.594-2.332 10.062-3.5 16.406-3.5 4.656 0 8.738.543 12.25 1.625 3.508 1.074 6.426 2.969 8.75 5.688 2.32 2.718 4.078 6.375 5.266 10.968 1.195 4.594 1.797 10.403 1.797 17.422V0zm0 0"/></symbol></defs><use x="78.526" xlink:href="#ba81db3ea" y="169"/></svg>