<?xml version="1.0" encoding="UTF-8"?><svg enable-background="new 0 0 250 250" height="250px" viewBox="0 0 250 250" width="250px" x="0px" xml:space="preserve" xmlns="http://www.w3.org/2000/svg" xmlns:xlink="http://www.w3.org/1999/xlink" y="0px"><defs><symbol id="98213989a" overflow="visible"><path d="M96.906 0H60.187v-4.25c2.72-1.469 6.114-2.828 10.188-4.078V-48.11c0-8.844-1.246-15.786-3.734-20.828-2.493-5.04-7.024-7.563-13.594-7.563-2.95 0-5.617.543-8 1.625a25.802 25.802 0 0 0-11.39 10.016 27.988 27.988 0 0 0-3.063 6.89v49.64c1.812.45 3.539.962 5.187 1.532 1.645.563 3.258 1.414 4.844 2.547V0H4.078v-4.25c3.508-1.813 7.25-3.172 11.219-4.078v-107.61l-12.922-1.359v-4.422c3.29-1.363 7.117-2.55 11.484-3.562a221.456 221.456 0 0 1 12.485-2.563h4.25v60.016h.172c2.382-5.32 5.812-9.852 10.28-13.594 4.477-3.75 9.895-5.625 16.25-5.625 4.532 0 8.579.543 12.142 1.625 3.57 1.074 6.546 2.969 8.921 5.688 2.383 2.718 4.204 6.375 5.454 10.968 1.25 4.594 1.874 10.403 1.874 17.422v43.016c1.915.45 3.836.96 5.766 1.531a19.984 19.984 0 0 1 5.453 2.547zm0 0"/></symbol></defs><use x="75.128" xlink:href="#98213989a" y="169"/></svg>