<?xml version="1.0" encoding="UTF-8"?><svg enable-background="new 0 0 250 250" height="250px" viewBox="0 0 250 250" width="250px" x="0px" xml:space="preserve" xmlns="http://www.w3.org/2000/svg" xmlns:xlink="http://www.w3.org/1999/xlink" y="0px"><defs><symbol id="93d9943ca" overflow="visible"><path d="M50.484-23.125c0-3.395-1.023-6.055-3.062-7.984-2.031-1.926-4.555-3.54-7.563-4.844-3-1.3-6.289-2.547-9.859-3.734-3.563-1.196-6.852-2.727-9.86-4.594a25.615 25.615 0 0 1-7.562-7.235c-2.043-2.945-3.062-6.91-3.062-11.89 0-8.164 2.32-14.145 6.968-17.938 4.645-3.8 11.11-5.703 19.391-5.703 6.113 0 11.238.543 15.375 1.625 4.133 1.074 7.734 2.352 10.797 3.828l-3.234 11.219c-2.606-1.25-5.75-2.352-9.438-3.313-3.68-.968-7.617-1.453-11.813-1.453-4.98 0-8.632.852-10.953 2.547-2.324 1.7-3.484 4.649-3.484 8.844 0 2.95 1.016 5.246 3.047 6.89 2.039 1.637 4.562 3.11 7.562 4.422 3.008 1.305 6.297 2.579 9.86 3.829 3.57 1.242 6.86 2.882 9.86 4.922 3.007 2.042 5.534 4.62 7.577 7.734 2.04 3.117 3.063 7.226 3.063 12.328 0 3.625-.602 7.027-1.797 10.203a20.739 20.739 0 0 1-5.516 8.156C54.29-3.004 51.203-1.223 47.516.078c-3.688 1.313-8.024 1.969-13 1.969-6.47 0-11.97-.625-16.5-1.875-4.532-1.25-8.328-2.723-11.391-4.422l4.078-11.563c2.613 1.481 6.016 2.844 10.203 4.094a44.684 44.684 0 0 0 12.75 1.86c4.875 0 8.895-.961 12.063-2.891 3.176-1.926 4.765-5.383 4.765-10.375zm0 0"/></symbol></defs><use x="89.231" xlink:href="#93d9943ca" y="169"/></svg>