<?xml version="1.0" encoding="UTF-8"?><svg enable-background="new 0 0 250 250" height="250px" viewBox="0 0 250 250" width="250px" x="0px" xml:space="preserve" xmlns="http://www.w3.org/2000/svg" xmlns:xlink="http://www.w3.org/1999/xlink" y="0px"><defs><symbol id="8e79a702a" overflow="visible"><path d="M13.094-119h13.594v42.328h.687c2.602-3.281 5.914-5.828 9.938-7.64 4.019-1.82 8.41-2.735 13.171-2.735 11 0 19.243 3.516 24.735 10.547 5.5 7.031 8.25 17.914 8.25 32.64 0 14.844-3.633 26.122-10.89 33.829-7.25 7.71-17.45 11.562-30.595 11.562-6.343 0-12.093-.68-17.25-2.031-5.156-1.363-9.039-2.844-11.64-4.438zm35.015 43.86c-5.668 0-10.261 1.59-13.78 4.765-3.513 3.168-6.06 7.64-7.642 13.422v42.844c2.157 1.25 4.758 2.187 7.813 2.812 3.063.617 6.238.922 9.531.922 7.707 0 13.852-2.719 18.438-8.156 4.593-5.438 6.89-13.938 6.89-25.5 0-4.414-.398-8.551-1.187-12.407-.793-3.851-2.043-7.14-3.75-9.859-1.7-2.719-3.883-4.867-6.547-6.453-2.656-1.594-5.914-2.39-9.766-2.39zm0 0"/></symbol></defs><use x="79.121" xlink:href="#8e79a702a" y="169"/></svg>