<?xml version="1.0" encoding="UTF-8"?><svg enable-background="new 0 0 250 250" height="250px" viewBox="0 0 250 250" width="250px" x="0px" xml:space="preserve" xmlns="http://www.w3.org/2000/svg" xmlns:xlink="http://www.w3.org/1999/xlink" y="0px"><defs><symbol id="e9546dada" overflow="visible"><path d="M50.156-19.375c0-3.176-.996-5.867-2.984-8.078-1.98-2.207-4.5-4.274-7.563-6.203a143.886 143.886 0 0 0-9.78-5.61 61.84 61.84 0 0 1-9.767-6.375c-3.062-2.437-5.59-5.238-7.578-8.406-1.98-3.176-2.968-7.094-2.968-11.75 0-3.05.707-5.879 2.125-8.484 1.414-2.614 3.312-4.852 5.687-6.719 2.383-1.875 5.164-3.348 8.344-4.422 3.176-1.082 6.578-1.625 10.203-1.625 6.113 0 11.125.344 15.031 1.031 3.914.68 7.688 1.641 11.313 2.891-.45 3.625-.985 7.281-1.61 10.969-.625 3.68-1.507 7.445-2.64 11.297h-4.25l-6.453-17.344c-1.368-.563-2.899-.926-4.594-1.094a51.14 51.14 0 0 0-5.266-.266c-2.043 0-3.828.372-5.36 1.11-1.53.742-2.839 1.68-3.921 2.812a11.711 11.711 0 0 0-2.469 3.907c-.562 1.468-.843 2.945-.843 4.421 0 3.055.988 5.688 2.968 7.907 1.989 2.21 4.516 4.25 7.578 6.125a176.294 176.294 0 0 0 9.766 5.515 74.507 74.507 0 0 1 9.781 6.125c3.063 2.262 5.582 4.899 7.563 7.907 1.988 3 2.984 6.593 2.984 10.78 0 3.856-.824 7.313-2.469 10.376-1.648 3.062-3.918 5.672-6.812 7.828-2.887 2.148-6.23 3.813-10.031 5C42.348 1.445 38.3 2.047 34 2.047c-4.875 0-9.355-.43-13.438-1.281-4.074-.852-8.324-2.07-12.75-3.657a79.07 79.07 0 0 1 1.532-11.812c.8-3.8 1.82-7.457 3.062-10.969h4.25L24.141-7.14c1.25.907 2.75 1.418 4.5 1.532 1.757.117 3.375.171 4.843.171 4.989 0 9.016-1.359 12.078-4.078 3.063-2.718 4.594-6.004 4.594-9.859zm0 0"/></symbol></defs><use x="88.212" xlink:href="#e9546dada" y="169"/></svg>