<?xml version="1.0" encoding="UTF-8"?><svg enable-background="new 0 0 250 250" height="250px" viewBox="0 0 250 250" width="250px" x="0px" xml:space="preserve" xmlns="http://www.w3.org/2000/svg" xmlns:xlink="http://www.w3.org/1999/xlink" y="0px"><defs><symbol id="6480b7dfa" overflow="visible"><path d="M71.063-5.61C67.656-3.116 63.629-1.222 58.983.079c-4.648 1.313-9.515 1.969-14.609 1.969-6.574 0-12.133-1.047-16.672-3.14-4.531-2.102-8.246-5.11-11.14-9.016-2.887-3.914-4.981-8.618-6.282-14.11-1.304-5.5-1.953-11.593-1.953-18.281 0-14.395 3.172-25.414 9.516-33.063 6.351-7.656 15.476-11.484 27.375-11.484 5.437 0 10.05.43 13.843 1.281 3.801.856 7.235 2.075 10.297 3.657l-3.906 11.734c-2.605-1.477-5.496-2.64-8.672-3.484-3.18-.852-6.578-1.282-10.203-1.282-16.094 0-24.14 10.883-24.14 32.641 0 4.305.421 8.414 1.265 12.328.852 3.906 2.27 7.367 4.25 10.375 1.988 3 4.598 5.406 7.828 7.219 3.227 1.812 7.223 2.719 11.985 2.719 4.082 0 7.738-.618 10.968-1.86 3.227-1.25 5.864-2.672 7.907-4.265zm0 0"/></symbol></defs><use x="86.683" xlink:href="#6480b7dfa" y="169"/></svg>