<?xml version="1.0" encoding="UTF-8"?><svg enable-background="new 0 0 250 250" height="250px" viewBox="0 0 250 250" width="250px" x="0px" xml:space="preserve" xmlns="http://www.w3.org/2000/svg" xmlns:xlink="http://www.w3.org/1999/xlink" y="0px"><defs><symbol id="7dc4838ca" overflow="visible"><path d="M15.813-85h13.593V4.594c0 10.539-1.812 18.414-5.437 23.625-3.625 5.218-9.407 7.828-17.344 7.828-.906 0-1.758-.031-2.547-.094a46.157 46.157 0 0 1-2.547-.25V24.141c3.176 0 5.696-.485 7.563-1.453 1.875-.961 3.316-2.461 4.328-4.5 1.02-2.043 1.672-4.622 1.953-7.735.29-3.117.438-6.773.438-10.969zm-2.891-25.844c0-2.601.875-4.836 2.625-6.703 1.758-1.875 4-2.812 6.719-2.812 2.718 0 5.039.937 6.968 2.812 1.926 1.867 2.891 4.102 2.891 6.703 0 2.606-.965 4.762-2.89 6.469-1.93 1.7-4.25 2.547-6.97 2.547-2.718 0-4.96-.848-6.718-2.547-1.75-1.707-2.625-3.863-2.625-6.469zm0 0"/></symbol></defs><use x="102.315" xlink:href="#7dc4838ca" y="169"/></svg>