<?xml version="1.0" encoding="UTF-8"?><svg enable-background="new 0 0 250 250" height="250px" viewBox="0 0 250 250" width="250px" x="0px" xml:space="preserve" xmlns="http://www.w3.org/2000/svg" xmlns:xlink="http://www.w3.org/1999/xlink" y="0px"><defs><symbol id="7e8b26d6a" overflow="visible"><path d="M1.875-85h13.25v-16.828l13.61-3.906V-85h23.109v11.906h-23.11v47.078c0 5.899.735 10.063 2.203 12.5 1.477 2.438 3.973 3.657 7.485 3.657 2.945 0 5.437-.313 7.469-.938 2.039-.625 4.312-1.445 6.812-2.469L55.766-2.89C52.703-1.42 49.359-.234 45.734.672 42.11 1.586 38.195 2.047 34 2.047c-6.918 0-11.793-1.953-14.625-5.86-2.836-3.914-4.25-10.46-4.25-19.64v-49.64H1.875zm0 0"/></symbol></defs><use x="96.198" xlink:href="#7e8b26d6a" y="169"/></svg>