<?xml version="1.0" encoding="UTF-8"?><svg enable-background="new 0 0 250 250" height="250px" viewBox="0 0 250 250" width="250px" x="0px" xml:space="preserve" xmlns="http://www.w3.org/2000/svg" xmlns:xlink="http://www.w3.org/1999/xlink" y="0px"><defs><symbol id="d4c6380aa" overflow="visible"><path d="M15.984-85h13.594V0H15.984zm-2.89-25.844c0-2.601.875-4.836 2.625-6.703 1.758-1.875 4-2.812 6.719-2.812 2.718 0 5.039.937 6.968 2.812 1.926 1.867 2.89 4.102 2.89 6.703 0 2.606-.964 4.762-2.89 6.469-1.93 1.7-4.25 2.547-6.968 2.547-2.72 0-4.961-.848-6.72-2.547-1.75-1.707-2.624-3.863-2.624-6.469zm0 0"/></symbol></defs><use x="102.231" xlink:href="#d4c6380aa" y="169"/></svg>