<?xml version="1.0" encoding="UTF-8"?><svg enable-background="new 0 0 250 250" height="250px" viewBox="0 0 250 250" width="250px" x="0px" xml:space="preserve" xmlns="http://www.w3.org/2000/svg" xmlns:xlink="http://www.w3.org/1999/xlink" y="0px"><defs><symbol id="b0b46b10a" overflow="visible"><path d="M44.703 0H6.97v-4.25a36.167 36.167 0 0 1 5.265-2.297 81.163 81.163 0 0 1 5.954-1.781v-66.813L6.967-76.5v-4.422c3.29-1.351 6.86-2.539 10.704-3.562a143.908 143.908 0 0 1 11.562-2.563h4.25v78.719c2.27.562 4.313 1.156 6.125 1.781a29.837 29.837 0 0 1 5.094 2.297zm-29.5-113.906c0-3.051.988-5.485 2.969-7.297 1.988-1.82 4.625-2.734 7.906-2.734 3.29 0 5.899.914 7.828 2.734 1.926 1.812 2.89 4.246 2.89 7.297 0 3.062-.964 5.476-2.89 7.234-1.93 1.75-4.539 2.625-7.828 2.625-3.281 0-5.918-.875-7.906-2.625-1.98-1.758-2.969-4.172-2.969-7.234zm0 0"/></symbol></defs><use x="99.427" xlink:href="#b0b46b10a" y="169"/></svg>