<?xml version="1.0" encoding="UTF-8"?><svg enable-background="new 0 0 250 250" height="250px" viewBox="0 0 250 250" width="250px" x="0px" xml:space="preserve" xmlns="http://www.w3.org/2000/svg" xmlns:xlink="http://www.w3.org/1999/xlink" y="0px"><defs><symbol id="74eb139da" overflow="visible"><path d="M3.734-85H17v-4.766c0-5.207.422-9.738 1.266-13.593.851-3.852 2.242-7 4.172-9.438 1.925-2.437 4.421-4.25 7.484-5.437 3.062-1.188 6.86-1.782 11.39-1.782 3.626 0 6.82.23 9.594.688 2.782.45 5.703 1.293 8.766 2.531l-3.063 11.39c-2.605-1.124-5.07-1.859-7.39-2.202-2.324-.344-4.508-.516-6.547-.516-2.95 0-5.246.453-6.89 1.36-1.65.906-2.84 2.242-3.579 4-.73 1.761-1.183 3.917-1.36 6.468-.167 2.543-.25 5.516-.25 8.922V-85h22.61v11.906h-22.61V0H17v-73.094H3.734zm0 0"/></symbol></defs><use x="97.897" xlink:href="#74eb139da" y="169"/></svg>