<?xml version="1.0" encoding="UTF-8"?><svg enable-background="new 0 0 250 250" height="250px" viewBox="0 0 250 250" width="250px" x="0px" xml:space="preserve" xmlns="http://www.w3.org/2000/svg" xmlns:xlink="http://www.w3.org/1999/xlink" y="0px"><defs><symbol id="b96b1ca2a" overflow="visible"><path d="M98.094 0H61.547v-4.25c3.05-1.582 6.39-2.941 10.016-4.078v-40.297c0-8.613-1.247-15.41-3.735-20.39-2.492-4.989-7.023-7.485-13.594-7.485-2.836 0-5.468.512-7.906 1.531a21.592 21.592 0 0 0-6.469 4.172 28.936 28.936 0 0 0-4.843 5.938 33.014 33.014 0 0 0-3.22 6.89v49.64c3.509.68 6.907 2.04 10.188 4.079V0H5.266v-4.25c2.832-1.469 6.57-2.828 11.218-4.078v-66.813L5.266-76.5v-4.422c2.945-1.25 6.347-2.379 10.203-3.39 3.851-1.02 7.879-1.93 12.078-2.735h4.25V-68h.156c2.383-5.207 5.813-9.68 10.281-13.422 4.477-3.75 9.895-5.625 16.25-5.625 4.532 0 8.578.543 12.141 1.625 3.57 1.074 6.547 2.969 8.922 5.688C81.93-77.016 83.75-73.36 85-68.766c1.25 4.594 1.875 10.403 1.875 17.422v43.016c4.531.793 8.27 2.152 11.219 4.078zm0 0"/></symbol></defs><use x="74.533" xlink:href="#b96b1ca2a" y="169"/></svg>