<?xml version="1.0" encoding="UTF-8"?><svg enable-background="new 0 0 250 250" height="250px" viewBox="0 0 250 250" width="250px" x="0px" xml:space="preserve" xmlns="http://www.w3.org/2000/svg" xmlns:xlink="http://www.w3.org/1999/xlink" y="0px"><defs><symbol id="882adaeba" overflow="visible"><path d="M13.094-115.938L.172-117.296v-4.422c3.508-1.476 7.445-2.672 11.812-3.578 4.364-.906 8.414-1.754 12.157-2.547h4.25v59.672h.343c1.926-5.781 5.18-10.367 9.766-13.766 4.594-3.406 9.664-5.109 15.219-5.109 10.312 0 18.218 3.516 23.718 10.547 5.5 7.031 8.25 17.855 8.25 32.469 0 14.96-3.773 26.293-11.312 34C66.832-2.321 55.977 1.53 41.812 1.53c-2.835 0-5.667-.199-8.5-.593A113.045 113.045 0 0 1 25.157-.5c-2.605-.57-4.96-1.254-7.062-2.047-2.094-.789-3.762-1.586-5-2.39zM49.125-76.5c-5.438 0-9.86 1.844-13.266 5.531-3.398 3.68-5.886 8.352-7.468 14.016v47.437c2.039 1.137 4.535 2.016 7.484 2.641 2.945.617 6.063.922 9.344.922 7.476 0 13.367-3.254 17.672-9.766 4.312-6.52 6.468-15.957 6.468-28.312 0-4.414-.37-8.61-1.109-12.578-.73-3.97-1.918-7.426-3.563-10.375-1.648-2.946-3.746-5.27-6.296-6.97-2.555-1.694-5.641-2.546-9.266-2.546zm0 0"/></symbol></defs><use x="78.696" xlink:href="#882adaeba" y="169"/></svg>