<?xml version="1.0" encoding="UTF-8"?><svg enable-background="new 0 0 250 250" height="250px" viewBox="0 0 250 250" width="250px" x="0px" xml:space="preserve" xmlns="http://www.w3.org/2000/svg" xmlns:xlink="http://www.w3.org/1999/xlink" y="0px"><defs><symbol id="5090837fa" overflow="visible"><path d="M25.328-85v48.453c0 4.418.254 8.297.766 11.64.508 3.345 1.383 6.122 2.625 8.329 1.25 2.21 2.953 3.883 5.11 5.015 2.155 1.137 4.874 1.704 8.155 1.704 3.063 0 5.782-.477 8.157-1.438a21.314 21.314 0 0 0 6.375-4 28.831 28.831 0 0 0 4.937-5.86 35.975 35.975 0 0 0 3.484-7.062V-85h13.61v60.86c0 4.085.14 8.308.422 12.671.281 4.356.758 8.18 1.437 11.469h-9.344l-3.406-13.438h-.844c-2.605 4.43-6.12 8.118-10.546 11.063C51.848.57 46.238 2.047 39.438 2.047c-4.532 0-8.528-.543-11.985-1.625-3.46-1.07-6.351-2.969-8.672-5.688-2.324-2.718-4.078-6.375-5.265-10.968-1.188-4.594-1.782-10.399-1.782-17.422V-85zm0 0"/></symbol></defs><use x="79.206" xlink:href="#5090837fa" y="169"/></svg>