<?xml version="1.0" encoding="UTF-8"?><svg enable-background="new 0 0 250 250" height="250px" viewBox="0 0 250 250" width="250px" x="0px" xml:space="preserve" xmlns="http://www.w3.org/2000/svg" xmlns:xlink="http://www.w3.org/1999/xlink" y="0px"><defs><symbol id="accab0b1a" overflow="visible"><path d="M11.734-78.703c4.301-2.613 9.313-4.54 15.032-5.781 5.726-1.25 11.707-1.875 17.937-1.875 5.895 0 10.629.796 14.203 2.39 3.57 1.586 6.29 3.653 8.157 6.203a20.987 20.987 0 0 1 3.734 8.407c.625 3.062.937 6.12.937 9.171 0 6.805-.171 13.438-.515 19.907-.336 6.46-.5 12.574-.5 18.343 0 4.2.164 8.168.5 11.907.344 3.742.969 7.199 1.875 10.375H63.063L59.5-11.562h-.844c-1.023 1.585-2.297 3.14-3.828 4.671-1.531 1.532-3.375 2.899-5.531 4.094-2.156 1.188-4.652 2.18-7.484 2.969-2.836.789-6.063 1.187-9.688 1.187-3.625 0-6.996-.57-10.11-1.703-3.117-1.133-5.808-2.75-8.078-4.843-2.261-2.094-4.046-4.614-5.359-7.563-1.305-2.945-1.953-6.29-1.953-10.031 0-4.989 1.02-9.157 3.063-12.5 2.039-3.344 4.898-6.004 8.578-7.985 3.687-1.976 8.109-3.394 13.265-4.25 5.157-.851 10.852-1.28 17.094-1.28h4.672c1.531 0 3.086.116 4.672.343.343-3.395.515-6.453.515-9.172 0-6.238-1.25-10.602-3.75-13.094-2.492-2.488-7.023-3.734-13.593-3.734-1.93 0-3.996.14-6.203.422-2.211.281-4.477.68-6.797 1.187a57.016 57.016 0 0 0-6.641 1.875c-2.094.73-3.934 1.547-5.516 2.453zm24.141 68.156c3.164 0 5.992-.422 8.484-1.265 2.5-.852 4.657-1.93 6.47-3.235 1.812-1.3 3.312-2.742 4.5-4.328 1.194-1.594 2.077-3.125 2.64-4.594v-14.11a127.43 127.43 0 0 0-4.844-.25 127.827 127.827 0 0 0-4.844-.093c-3.511 0-6.937.2-10.281.594-3.344.398-6.293 1.137-8.844 2.219-2.554 1.074-4.593 2.547-6.125 4.422-1.531 1.867-2.297 4.214-2.297 7.046 0 3.97 1.414 7.23 4.25 9.782 2.832 2.543 6.461 3.812 10.891 3.812zm0 0"/></symbol></defs><use x="82.859" xlink:href="#accab0b1a" y="169"/></svg>