<?xml version="1.0" encoding="UTF-8"?><svg enable-background="new 0 0 250 250" height="250px" viewBox="0 0 250 250" width="250px" x="0px" xml:space="preserve" xmlns="http://www.w3.org/2000/svg" xmlns:xlink="http://www.w3.org/1999/xlink" y="0px"><defs><symbol id="cc1dcea7a" overflow="visible"><path d="M51-85h32.813v4.422a79.478 79.478 0 0 1-6.376 2.375 58.768 58.768 0 0 1-6.546 1.703c-1.7 2.273-3.657 4.71-5.875 7.313a900.92 900.92 0 0 1-6.72 7.828 325.057 325.057 0 0 1-6.53 7.312c-2.094 2.262-3.883 4.125-5.36 5.594 1.696 2.273 3.766 5.023 6.203 8.25a743.46 743.46 0 0 0 7.907 10.281c2.832 3.625 5.75 7.309 8.75 11.047a256.56 256.56 0 0 0 8.937 10.547L87.72-4.25V0H66.64l-4.594-4.078c-6-7.477-10.984-14.133-14.953-19.969a852.02 852.02 0 0 1-10.89-16.406l-5.61-1.703v33.828c3.738.68 7.426 2.039 11.062 4.078V0H4.078v-4.25c3.738-1.813 7.477-3.172 11.219-4.078v-107.61l-12.922-1.359v-4.422c3.176-1.476 6.973-2.672 11.39-3.578a2921.52 2921.52 0 0 1 12.579-2.547h4.25v81.266h4.422a679.428 679.428 0 0 0 5.953-6.797c2.156-2.5 4.304-5.078 6.453-7.734a653.48 653.48 0 0 0 6.297-7.907c2.039-2.613 3.91-5.109 5.61-7.484-2.837-.79-5.61-2.148-8.329-4.078zm0 0"/></symbol></defs><use x="81.16" xlink:href="#cc1dcea7a" y="169"/></svg>