<?xml version="1.0" encoding="UTF-8"?><svg enable-background="new 0 0 250 250" height="250px" viewBox="0 0 250 250" width="250px" x="0px" xml:space="preserve" xmlns="http://www.w3.org/2000/svg" xmlns:xlink="http://www.w3.org/1999/xlink" y="0px"><defs><symbol id="6f5a9167a" overflow="visible"><path d="M2.547-80.922c4.312-2.719 8.848-4.644 13.61-5.781v-14.453c1.468-1.239 3.19-2.336 5.171-3.297a455.092 455.092 0 0 1 5.875-2.813h4.25V-85h25.5v8.5h-25.5v49.297c0 6.805 1.07 11.621 3.219 14.453 2.156 2.836 5.39 4.25 9.703 4.25 2.04 0 4.586-.14 7.64-.422 3.063-.281 5.672-.82 7.829-1.625l1.187 2.563c-.906 1.023-2.183 2.101-3.828 3.234-1.648 1.125-3.516 2.2-5.61 3.219-2.093 1.023-4.39 1.867-6.89 2.547a28.601 28.601 0 0 1-7.64 1.03c-6.805 0-11.993-1.929-15.563-5.78-3.563-3.852-5.344-10.086-5.344-18.703V-76.5H2.546zm0 0"/></symbol></defs><use x="93.479" xlink:href="#6f5a9167a" y="169"/></svg>