<?xml version="1.0" encoding="UTF-8"?><svg enable-background="new 0 0 250 250" height="250px" viewBox="0 0 250 250" width="250px" x="0px" xml:space="preserve" xmlns="http://www.w3.org/2000/svg" xmlns:xlink="http://www.w3.org/1999/xlink" y="0px"><defs><symbol id="84e06cc9a" overflow="visible"><path d="M78.203 34h-13.61V-8.5h-.671c-2.274 3.398-5.137 6.008-8.594 7.828-3.45 1.813-8.008 2.719-13.672 2.719-11.336 0-19.726-3.598-25.172-10.797-5.437-7.195-8.156-18.332-8.156-33.406 0-14.625 3.508-25.676 10.531-33.157 7.032-7.476 17.29-11.218 30.782-11.218 6.007 0 11.644.57 16.906 1.703 5.27 1.137 9.156 2.324 11.656 3.562zM44.031-9.86c5.782 0 10.313-1.472 13.594-4.421 3.29-2.946 5.613-7.477 6.969-13.594v-43.531c-4.188-2.145-9.965-3.219-17.328-3.219-7.825 0-13.918 2.637-18.282 7.906-4.367 5.274-6.547 13.403-6.547 24.39 0 4.763.395 9.153 1.188 13.173.79 4.023 2.035 7.449 3.734 10.281 1.707 2.836 3.922 5.047 6.641 6.64 2.719 1.587 6.063 2.376 10.031 2.376zm0 0"/></symbol></defs><use x="79.376" xlink:href="#84e06cc9a" y="169"/></svg>