<?xml version="1.0" encoding="UTF-8"?><svg enable-background="new 0 0 250 250" height="250px" viewBox="0 0 250 250" width="250px" x="0px" xml:space="preserve" xmlns="http://www.w3.org/2000/svg" xmlns:xlink="http://www.w3.org/1999/xlink" y="0px"><defs><symbol id="c907b276a" overflow="visible"><path d="M75.14-6.797c-3.398 2.719-7.68 4.875-12.843 6.469-5.156 1.582-10.621 2.375-16.39 2.375-6.47 0-12.087-1.047-16.844-3.14-4.75-2.102-8.657-5.11-11.72-9.016-3.062-3.914-5.335-8.594-6.812-14.032C9.062-29.578 8.328-35.695 8.328-42.5c0-14.508 3.227-25.563 9.688-33.156 6.457-7.594 15.695-11.39 27.718-11.39 3.852 0 7.703.429 11.547 1.28 3.852.856 7.313 2.477 10.375 4.86 3.063 2.375 5.555 5.746 7.485 10.11 1.925 4.355 2.89 10.105 2.89 17.25 0 3.741-.34 7.874-1.015 12.405H22.437c0 4.993.508 9.414 1.532 13.266 1.02 3.855 2.601 7.117 4.75 9.781 2.156 2.657 4.96 4.696 8.422 6.11 3.457 1.418 7.68 2.125 12.672 2.125 3.851 0 7.707-.676 11.562-2.032 3.852-1.363 6.742-2.953 8.672-4.765zM45.907-75.14c-6.687 0-12.047 1.762-16.078 5.282-4.023 3.511-6.43 9.515-7.219 18.015h42.157c0-8.613-1.649-14.648-4.938-18.11-3.281-3.456-7.922-5.187-13.922-5.187zm0 0"/></symbol></defs><use x="81.84" xlink:href="#c907b276a" y="169"/></svg>