<?xml version="1.0" encoding="UTF-8"?><svg enable-background="new 0 0 250 250" height="250px" viewBox="0 0 250 250" width="250px" x="0px" xml:space="preserve" xmlns="http://www.w3.org/2000/svg" xmlns:xlink="http://www.w3.org/1999/xlink" y="0px"><defs><symbol id="ff3a50eea" overflow="visible"><path d="M62.906 0v-48.11c0-4.53-.203-8.468-.61-11.812-.398-3.344-1.163-6.144-2.296-8.406-1.125-2.27-2.742-3.973-4.844-5.11-2.093-1.132-4.84-1.703-8.234-1.703-5.219 0-9.559 1.59-13.016 4.766-3.449 3.168-5.855 7.133-7.218 11.89V0H13.094v-85h9.515l2.547 10.375h.688c3.062-3.625 6.601-6.598 10.625-8.922 4.02-2.332 9.258-3.5 15.718-3.5 5.438 0 9.883 1.055 13.344 3.156 3.457 2.094 6.149 5.746 8.078 10.954 2.602-4.415 6.204-7.868 10.797-10.36 4.594-2.5 9.774-3.75 15.547-3.75 4.758 0 8.781.543 12.063 1.625 3.289 1.074 6.015 2.969 8.171 5.688 2.157 2.718 3.711 6.406 4.672 11.062.97 4.649 1.454 10.54 1.454 17.672V0h-13.61v-51.172c0-4.082-.2-7.625-.594-10.625-.398-3-1.187-5.488-2.375-7.469a10.907 10.907 0 0 0-4.937-4.421c-2.094-.97-4.84-1.454-8.234-1.454-5.668 0-10.09 1.59-13.266 4.766-3.168 3.168-5.434 7.7-6.797 13.594V0zm0 0"/></symbol></defs><use x="56.012" xlink:href="#ff3a50eea" y="169"/></svg>