<?xml version="1.0" encoding="UTF-8"?><svg enable-background="new 0 0 250 250" height="250px" viewBox="0 0 250 250" width="250px" x="0px" xml:space="preserve" xmlns="http://www.w3.org/2000/svg" xmlns:xlink="http://www.w3.org/1999/xlink" y="0px"><defs><symbol id="19ab3ea3a" overflow="visible"><path d="M28.219-20.906c0 3.968.676 6.804 2.031 8.5 1.363 1.699 3.297 2.547 5.797 2.547 1.469 0 3.05-.114 4.75-.344 1.695-.227 3.625-.738 5.781-1.531L48.11-1.016c-1.812.907-4.336 1.641-7.562 2.204-3.23.57-6.04.859-8.422.859-5.094 0-9.29-1.445-12.578-4.328-3.281-2.895-4.922-7.801-4.922-14.719v-102h13.594zm0 0"/></symbol></defs><use x="100.191" xlink:href="#19ab3ea3a" y="169"/></svg>