<?xml version="1.0" encoding="UTF-8"?><svg enable-background="new 0 0 250 250" height="250px" viewBox="0 0 250 250" width="250px" x="0px" xml:space="preserve" xmlns="http://www.w3.org/2000/svg" xmlns:xlink="http://www.w3.org/1999/xlink" y="0px"><defs><symbol id="7b874f70a" overflow="visible"><path d="M93.156 0H56.781v-4.25c1.133-.676 2.52-1.383 4.157-2.125 1.644-.738 3.601-1.39 5.874-1.953v-39.266c0-4.539-.199-8.625-.593-12.25-.399-3.625-1.137-6.656-2.219-9.093-1.074-2.438-2.633-4.305-4.672-5.61-2.043-1.3-4.703-1.953-7.984-1.953-2.5 0-4.797.512-6.89 1.531a20.003 20.003 0 0 0-5.61 4.078 26.846 26.846 0 0 0-4.25 5.782 32.463 32.463 0 0 0-2.797 6.796v49.985a85.72 85.72 0 0 1 5.172 1.781 34.355 34.355 0 0 1 4.843 2.297V0H5.267v-4.25a47.384 47.384 0 0 1 5.28-2.203 85.631 85.631 0 0 1 5.938-1.875v-66.813L5.266-76.5v-4.422a71.927 71.927 0 0 1 11.125-3.812c3.8-.97 7.52-1.739 11.156-2.313h4.25v19.219h.156c1.82-5.32 4.91-9.852 9.266-13.594 4.363-3.75 9.773-5.625 16.234-5.625 2.727 0 5.336.29 7.828.86 2.489.562 4.813 1.609 6.969 3.14 2.156 1.531 3.969 3.656 5.438 6.375 1.476 2.719 2.554 6.234 3.234 10.547 2.039-6.238 5.328-11.285 9.86-15.14 4.53-3.852 10.195-5.782 17-5.782 4.187 0 7.835.543 10.952 1.625 3.125 1.074 5.707 2.969 7.75 5.688 2.04 2.718 3.54 6.406 4.5 11.062.97 4.649 1.453 10.54 1.453 17.672v42.672c3.844.68 7.583 2.039 11.22 4.078V0h-36.563v-4.25c3.406-1.813 6.75-3.172 10.031-4.078v-42.328c0-4.082-.2-7.707-.594-10.875-.398-3.176-1.164-5.867-2.297-8.078-1.125-2.22-2.71-3.922-4.75-5.11-2.043-1.187-4.765-1.781-8.171-1.781-5.438 0-9.657 1.871-12.657 5.61-3 3.742-5.183 8.5-6.547 14.28v48.282c3.97 1.137 7.649 2.496 11.047 4.078zm0 0"/></symbol></defs><use x="51.679" xlink:href="#7b874f70a" y="169"/></svg>