<?xml version="1.0" encoding="UTF-8"?><svg enable-background="new 0 0 250 250" height="250px" viewBox="0 0 250 250" width="250px" x="0px" xml:space="preserve" xmlns="http://www.w3.org/2000/svg" xmlns:xlink="http://www.w3.org/1999/xlink" y="0px"><defs><symbol id="b3e7022fa" overflow="visible"><path d="M18.016-75.14L6.796-76.5v-4.422c3.29-1.582 6.891-2.851 10.798-3.812a128.809 128.809 0 0 1 11.468-2.313h4.25v79.734c0 8.051-1.023 14.739-3.062 20.063-2.031 5.32-4.406 9.625-7.125 12.906-2.719 3.29-5.496 5.727-8.328 7.313-2.836 1.593-5.106 2.617-6.813 3.078l-2.03-3.234c1.35-.68 2.737-1.872 4.155-3.579 1.414-1.699 2.72-4.047 3.907-7.047 1.195-3 2.16-6.656 2.89-10.968.739-4.305 1.11-9.403 1.11-15.297zm-2.813-38.766c0-3.051.988-5.485 2.969-7.297 1.988-1.82 4.625-2.734 7.906-2.734 3.29 0 5.899.914 7.828 2.734 1.926 1.812 2.89 4.246 2.89 7.297 0 3.062-.964 5.476-2.89 7.234-1.93 1.75-4.539 2.625-7.828 2.625-3.281 0-5.918-.875-7.906-2.625-1.98-1.758-2.969-4.172-2.969-7.234zm0 0"/></symbol></defs><use x="100.531" xlink:href="#b3e7022fa" y="169"/></svg>