<?xml version="1.0" encoding="UTF-8"?><svg enable-background="new 0 0 250 250" height="250px" viewBox="0 0 250 250" width="250px" x="0px" xml:space="preserve" xmlns="http://www.w3.org/2000/svg" xmlns:xlink="http://www.w3.org/1999/xlink" y="0px"><defs><symbol id="8574f482a" overflow="visible"><path d="M13.094-33.656c0-7.145.164-14.145.5-21 .344-6.852.515-13.68.515-20.485L2.891-76.5v-4.422a125.123 125.123 0 0 1 11.125-3.562c3.8-1.02 7.515-1.875 11.14-2.563h4.25c0 8.5-.172 16.95-.515 25.344-.336 8.387-.5 16.715-.5 24.984 0 4.418.254 8.387.765 11.907.508 3.511 1.414 6.46 2.719 8.843 1.3 2.375 3.082 4.215 5.344 5.516 2.27 1.305 5.164 1.953 8.687 1.953 5.094 0 9.367-1.836 12.828-5.516 3.457-3.687 6.149-8.476 8.078-14.375v-46.75L55.767-76.5v-4.422c3.507-1.351 7.16-2.539 10.953-3.562 3.8-1.02 7.515-1.875 11.14-2.563h4.25v77.36l11.22 1.359v3.562A109.915 109.915 0 0 1 83.39-.844a64.232 64.232 0 0 1-10.454 2.547h-4.25L67.484-18.53h-.671c-.575 2.386-1.57 4.797-2.985 7.234-1.418 2.43-3.262 4.637-5.531 6.625-2.262 1.98-4.84 3.594-7.734 4.844-2.887 1.25-6.028 1.875-9.422 1.875-4.532 0-8.528-.543-11.985-1.625-3.46-1.07-6.383-2.969-8.765-5.688-2.375-2.718-4.188-6.375-5.438-10.968-1.242-4.594-1.86-10.399-1.86-17.422zm0 0"/></symbol></defs><use x="76.232" xlink:href="#8574f482a" y="169"/></svg>