<?xml version="1.0" encoding="UTF-8"?><svg enable-background="new 0 0 250 250" height="250px" viewBox="0 0 250 250" width="250px" x="0px" xml:space="preserve" xmlns="http://www.w3.org/2000/svg" xmlns:xlink="http://www.w3.org/1999/xlink" y="0px"><defs><symbol id="09adf139a" overflow="visible"><path d="M41.984-87.047c6.125 0 11.282.602 15.47 1.797 4.194 1.188 7.71 3.027 10.546 5.516 6.688-4.532 13.656-7.817 20.906-9.86.906 1.25 1.555 2.781 1.953 4.594.395 1.813.594 3.512.594 5.094l-2.203 4.094H71.406c2.832 4.074 4.25 9.453 4.25 16.14 0 8.156-2.867 14.79-8.594 19.89-5.718 5.106-14.078 7.657-25.078 7.657-2.148 0-3.902-.055-5.265-.172a91.91 91.91 0 0 1-4.594-.516 128.77 128.77 0 0 1-1.953 3.407c-.742 1.242-1.11 2.543-1.11 3.906 0 2.273 1.301 4.059 3.907 5.36 2.613 1.304 5.875 2.464 9.781 3.484a498.305 498.305 0 0 0 12.75 3.14c4.594 1.075 8.875 2.547 12.844 4.422 3.969 1.867 7.281 4.305 9.937 7.313 2.664 3 4.055 6.879 4.172 11.64.113 4.082-.824 7.766-2.812 11.047-1.98 3.29-4.73 6.04-8.25 8.25-3.512 2.207-7.73 3.907-12.657 5.094-4.93 1.195-10.34 1.797-16.234 1.797-12.355 0-21.68-2.102-27.969-6.297-6.293-4.2-9.437-9.469-9.437-15.813 0-3.062.476-5.73 1.437-8A17.467 17.467 0 0 1 10.703 0c1.82-1.695 4.094-3.195 6.813-4.5 2.718-1.3 5.832-2.52 9.343-3.656-2.492-1.133-4.558-2.692-6.203-4.672-1.648-1.988-2.468-4.399-2.468-7.235 0-2.601 1.101-5.18 3.312-7.734 2.207-2.55 4.445-4.562 6.719-6.031-6.461-1.695-11.418-4.926-14.875-9.688-3.461-4.757-5.188-10.144-5.188-16.156 0-3.851.735-7.453 2.203-10.797 1.477-3.344 3.633-6.258 6.47-8.75 2.831-2.488 6.343-4.414 10.53-5.781 4.196-1.363 9.07-2.047 14.625-2.047zM67.156 13.766c0-3.625-1.219-6.516-3.656-8.672-2.438-2.149-5.477-3.899-9.11-5.25-3.624-1.364-7.538-2.5-11.734-3.406-4.187-.915-8.093-1.938-11.718-3.063-4.305 2.605-7.137 5.352-8.5 8.234-1.356 2.895-2.032 5.875-2.032 8.938 0 6 2.149 10.5 6.453 13.5 4.301 3.008 10.536 4.515 18.703 4.515 4.188 0 7.672-.398 10.454-1.187 2.78-.793 4.988-1.844 6.625-3.156 1.644-1.305 2.804-2.86 3.484-4.672.688-1.813 1.031-3.742 1.031-5.781zM23.453-59.672c0 2.719.313 5.297.938 7.734.625 2.438 1.644 4.563 3.062 6.376 1.414 1.812 3.313 3.261 5.688 4.343 2.382 1.074 5.332 1.61 8.843 1.61 6.57 0 11.274-1.926 14.11-5.782 2.832-3.851 4.25-8.613 4.25-14.28 0-6.114-1.39-10.958-4.172-14.532-2.774-3.57-7.5-5.36-14.188-5.36-6.906 0-11.726 1.731-14.453 5.188-2.718 3.46-4.078 8.36-4.078 14.703zm0 0"/></symbol></defs><use x="80.311" xlink:href="#09adf139a" y="169"/></svg>