<?xml version="1.0" encoding="UTF-8"?><svg enable-background="new 0 0 250 250" height="250px" viewBox="0 0 250 250" width="250px" x="0px" xml:space="preserve" xmlns="http://www.w3.org/2000/svg" xmlns:xlink="http://www.w3.org/1999/xlink" y="0px"><defs><symbol id="f3a6ea9fa" overflow="visible"><path d="M31.516-71.313C41.734-83.624 51.476-89.78 60.75-89.78c4.758 0 8.852 1.195 12.281 3.578 3.426 2.375 6.156 6.293 8.188 11.75 1.394 3.805 2.094 9.64 2.094 17.516v37.234c0 5.523.44 9.265 1.328 11.234.695 1.586 1.82 2.824 3.375 3.719 1.562.887 4.437 1.328 8.625 1.328V0H53.516v-3.422h1.797c4.062 0 6.898-.617 8.515-1.86 1.625-1.238 2.754-3.066 3.39-5.484.259-.945.391-3.925.391-8.937v-35.719c0-7.926-1.039-13.68-3.109-17.266-2.063-3.593-5.54-5.39-10.422-5.39-7.555 0-15.074 4.125-22.562 12.375v46c0 5.898.347 9.543 1.047 10.937.882 1.844 2.101 3.2 3.656 4.063 1.562.855 4.722 1.281 9.484 1.281V0H2.578v-3.422h1.89c4.446 0 7.446-1.125 9-3.375 1.563-2.258 2.345-6.562 2.345-12.906v-32.375c0-10.477-.243-16.86-.72-19.14-.48-2.29-1.214-3.848-2.202-4.673-.98-.82-2.293-1.234-3.938-1.234-1.781 0-3.906.477-6.375 1.422l-1.437-3.422 26.28-10.656h4.095zm0 0"/></symbol></defs><use x="76.371" xlink:href="#f3a6ea9fa" y="169"/></svg>