<?xml version="1.0" encoding="UTF-8"?><svg enable-background="new 0 0 250 250" height="250px" viewBox="0 0 250 250" width="250px" x="0px" xml:space="preserve" xmlns="http://www.w3.org/2000/svg" xmlns:xlink="http://www.w3.org/1999/xlink" y="0px"><defs><symbol id="e7d2ee18a" overflow="visible"><path d="M28.281-135.39c2.664 0 4.93.937 6.797 2.812 1.875 1.867 2.813 4.133 2.813 6.797 0 2.668-.938 4.953-2.813 6.86-1.867 1.905-4.133 2.859-6.797 2.859-2.668 0-4.953-.954-6.86-2.86-1.905-1.906-2.858-4.191-2.858-6.86 0-2.663.937-4.929 2.812-6.796 1.875-1.875 4.176-2.813 6.906-2.813zm7.907 45.609v70.078c0 5.46.394 9.094 1.187 10.906.79 1.805 1.96 3.152 3.516 4.047 1.562.887 4.406 1.328 8.53 1.328V0H7.048v-3.422c4.25 0 7.101-.41 8.562-1.234 1.47-.832 2.63-2.196 3.485-4.094.851-1.906 1.281-5.555 1.281-10.953v-33.625c0-9.445-.29-15.57-.86-18.375-.437-2.031-1.136-3.442-2.093-4.234-.95-.79-2.25-1.188-3.906-1.188-1.774 0-3.93.477-6.47 1.422L5.72-79.125 32-89.781zm0 0"/></symbol></defs><use x="97.979" xlink:href="#e7d2ee18a" y="169"/></svg>