<?xml version="1.0" encoding="UTF-8"?><svg enable-background="new 0 0 250 250" height="250px" viewBox="0 0 250 250" width="250px" x="0px" xml:space="preserve" xmlns="http://www.w3.org/2000/svg" xmlns:xlink="http://www.w3.org/1999/xlink" y="0px"><defs><symbol id="8ed4b86da" overflow="visible"><path d="M31.61-89.781v19.61c7.3-13.071 14.788-19.61 22.468-19.61 3.488 0 6.375 1.062 8.656 3.187 2.29 2.125 3.438 4.586 3.438 7.375 0 2.48-.828 4.578-2.484 6.297-1.649 1.711-3.61 2.563-5.891 2.563-2.219 0-4.715-1.094-7.484-3.282-2.762-2.195-4.805-3.296-6.126-3.296-1.148 0-2.386.636-3.718 1.906-2.856 2.605-5.809 6.89-8.86 12.86v41.796c0 4.824.602 8.477 1.813 10.953.82 1.711 2.281 3.137 4.375 4.281 2.094 1.149 5.11 1.72 9.047 1.72V0H2.187v-3.422c4.446 0 7.75-.695 9.907-2.094 1.582-1.02 2.691-2.64 3.328-4.859.32-1.082.484-4.16.484-9.234v-33.813c0-10.156-.21-16.195-.625-18.125-.418-1.937-1.183-3.348-2.297-4.234-1.105-.895-2.48-1.344-4.125-1.344-1.968 0-4.195.477-6.671 1.422l-.954-3.422L27.61-89.781zm0 0"/></symbol></defs><use x="92.612" xlink:href="#8ed4b86da" y="169"/></svg>