<?xml version="1.0" encoding="UTF-8"?><svg enable-background="new 0 0 250 250" height="250px" viewBox="0 0 250 250" width="250px" x="0px" xml:space="preserve" xmlns="http://www.w3.org/2000/svg" xmlns:xlink="http://www.w3.org/1999/xlink" y="0px"><defs><symbol id="29dd178ea" overflow="visible"><path d="M55.516-12.563C46.555-5.644 40.938-1.648 38.656-.578c-3.43 1.594-7.078 2.39-10.953 2.39-6.031 0-11-2.062-14.906-6.187-3.899-4.125-5.844-9.55-5.844-16.281 0-4.258.953-7.942 2.86-11.047 2.601-4.32 7.124-8.383 13.562-12.188 6.445-3.812 17.16-8.445 32.14-13.906v-3.422c0-8.695-1.382-14.664-4.14-17.906-2.762-3.238-6.777-4.86-12.047-4.86-4 0-7.18 1.079-9.531 3.235-2.406 2.168-3.61 4.648-3.61 7.438l.188 5.515c0 2.93-.746 5.184-2.234 6.766-1.493 1.586-3.446 2.375-5.86 2.375-2.343 0-4.265-.82-5.765-2.469-1.493-1.656-2.235-3.91-2.235-6.766 0-5.457 2.79-10.468 8.375-15.03 5.594-4.571 13.438-6.86 23.532-6.86 7.738 0 14.082 1.297 19.03 3.89 3.75 1.97 6.509 5.055 8.282 9.25 1.145 2.73 1.719 8.313 1.719 16.75v29.61c0 8.312.156 13.406.469 15.281.32 1.875.847 3.133 1.578 3.766.726.636 1.57.953 2.53.953 1.009 0 1.895-.223 2.657-.672 1.332-.82 3.906-3.14 7.719-6.953v5.343C79.055-3.039 72.266 1.72 65.797 1.72c-3.117 0-5.594-1.078-7.438-3.235-1.836-2.164-2.78-5.847-2.843-11.046zm0-6.187v-33.234c-9.586 3.804-15.778 6.5-18.578 8.093-5.012 2.793-8.594 5.715-10.75 8.766-2.157 3.043-3.235 6.371-3.235 9.984 0 4.575 1.363 8.371 4.094 11.391 2.726 3.012 5.867 4.516 9.422 4.516 4.82 0 11.172-3.172 19.047-9.516zm0 0"/></symbol></defs><use x="81.832" xlink:href="#29dd178ea" y="169"/></svg>