<?xml version="1.0" encoding="UTF-8"?><svg enable-background="new 0 0 250 250" height="250px" viewBox="0 0 250 250" width="250px" x="0px" xml:space="preserve" xmlns="http://www.w3.org/2000/svg" xmlns:xlink="http://www.w3.org/1999/xlink" y="0px"><defs><symbol id="8455c859a" overflow="visible"><path d="M31.422-115.875v28.656h20.375v6.672H31.422V-24c0 5.656.805 9.469 2.422 11.438 1.625 1.968 3.703 2.953 6.234 2.953 2.102 0 4.133-.649 6.094-1.954 1.969-1.3 3.492-3.222 4.578-5.765h3.719c-2.23 6.219-5.375 10.902-9.438 14.047-4.062 3.136-8.25 4.703-12.562 4.703C29.55 1.422 26.69.613 23.89-1c-2.793-1.613-4.856-3.926-6.188-6.938-1.336-3.019-2-7.675-2-13.968v-58.64H1.906v-3.141c3.489-1.395 7.055-3.758 10.703-7.094 3.657-3.332 6.91-7.285 9.766-11.86 1.457-2.414 3.488-6.828 6.094-13.234zm0 0"/></symbol></defs><use x="97.979" xlink:href="#8455c859a" y="169"/></svg>