<?xml version="1.0" encoding="UTF-8"?><svg enable-background="new 0 0 250 250" height="250px" viewBox="0 0 250 250" width="250px" x="0px" xml:space="preserve" xmlns="http://www.w3.org/2000/svg" xmlns:xlink="http://www.w3.org/1999/xlink" y="0px"><defs><symbol id="09f5551fa" overflow="visible"><path d="M-.188-78.547l26.844-10.86h3.625v20.376c4.5-7.676 9.02-13.051 13.563-16.125 4.539-3.082 9.316-4.625 14.328-4.625 8.758 0 16.062 3.43 21.906 10.281 7.164 8.375 10.75 19.293 10.75 32.75 0 15.043-4.312 27.484-12.937 37.328C70.773-1.359 61.82 2.672 51.03 2.672c-4.699 0-8.761-.668-12.187-2-2.532-.957-5.387-2.863-8.563-5.719v26.563c0 5.968.364 9.757 1.094 11.375.727 1.625 1.992 2.91 3.797 3.859 1.812.957 5.098 1.438 9.86 1.438v3.515H-.673v-3.516h2.39c3.489.063 6.473-.605 8.954-2 1.195-.699 2.129-1.828 2.797-3.39.664-1.555 1-5.5 1-11.844v-82.469c0-5.644-.258-9.226-.766-10.75-.5-1.52-1.308-2.66-2.422-3.421-1.117-.77-2.62-1.157-4.515-1.157-1.532 0-3.47.45-5.813 1.344zm30.47 15.14v32.563c0 7.043.284 11.672.859 13.89.882 3.688 3.054 6.93 6.515 9.72 3.457 2.793 7.82 4.187 13.094 4.187 6.344 0 11.484-2.473 15.422-7.422 5.144-6.476 7.719-15.586 7.719-27.328 0-13.332-2.922-23.586-8.766-30.766-4.063-4.945-8.887-7.421-14.469-7.421-3.054 0-6.07.761-9.047 2.28-2.28 1.15-6.058 4.579-11.328 10.298zm0 0"/></symbol></defs><use x="76.371" xlink:href="#09f5551fa" y="169"/></svg>