<?xml version="1.0" encoding="UTF-8"?><svg enable-background="new 0 0 250 250" height="250px" viewBox="0 0 250 250" width="250px" x="0px" xml:space="preserve" xmlns="http://www.w3.org/2000/svg" xmlns:xlink="http://www.w3.org/1999/xlink" y="0px"><defs><symbol id="765c410da" overflow="visible"><path d="M83.313-89.781V22.375c0 5.582.378 9.164 1.14 10.75.758 1.594 1.945 2.832 3.563 3.719 1.625.894 4.785 1.343 9.484 1.343v3.516H53.516v-3.516h1.797c3.562 0 6.257-.511 8.093-1.53 1.27-.7 2.285-1.954 3.047-3.766.77-1.805 1.156-5.309 1.156-10.516v-37.516C61.83-8.285 56.773-3.6 52.453-1.094c-4.312 2.508-8.789 3.766-13.422 3.766-8.437 0-15.976-3.836-22.61-11.516C9.786-16.53 6.47-26.816 6.47-39.704c0-14.788 4.379-26.831 13.14-36.124 8.758-9.3 19.332-13.953 31.72-13.953 3.612 0 6.94.511 9.983 1.531 3.051 1.012 5.782 2.531 8.188 4.563a83.863 83.863 0 0 0 10.578-6.094zm-15.704 68.64v-40.937c0-4.758-.62-8.504-1.859-11.234-1.242-2.727-3.45-5.047-6.625-6.954-3.168-1.906-6.75-2.859-10.75-2.859-7.117 0-13.215 3.016-18.297 9.047-5.074 6.031-7.61 15.172-7.61 27.422 0 11.742 2.583 20.656 7.75 26.75 5.177 6.093 11.415 9.14 18.72 9.14 3.75 0 7.082-.804 10-2.421 2.914-1.614 5.804-4.266 8.671-7.954zm0 0"/></symbol></defs><use x="76.371" xlink:href="#765c410da" y="169"/></svg>