<?xml version="1.0" encoding="UTF-8"?><svg enable-background="new 0 0 250 250" height="250px" viewBox="0 0 250 250" width="250px" x="0px" xml:space="preserve" xmlns="http://www.w3.org/2000/svg" xmlns:xlink="http://www.w3.org/1999/xlink" y="0px"><defs><symbol id="52024fe6a" overflow="visible"><path d="M30-72.172c8.438-11.738 17.54-17.61 27.313-17.61 8.957 0 16.765 3.825 23.421 11.47 6.664 7.648 10 18.105 10 31.374 0 15.493-5.14 27.965-15.421 37.422C66.487-1.39 56.648 2.672 45.797 2.672c-5.074 0-10.23-.922-15.469-2.766-5.242-1.843-10.59-4.601-16.047-8.281v-90.36c0-9.906-.242-16-.719-18.28-.468-2.29-1.214-3.848-2.234-4.672-1.012-.82-2.281-1.235-3.812-1.235-1.774 0-3.993.508-6.657 1.516l-1.328-3.328 26.172-10.657H30zm0 6.094v52.172c3.227 3.18 6.57 5.578 10.031 7.203C43.5-5.086 47.04-4.281 50.656-4.281c5.77 0 11.145-3.172 16.125-9.516 4.989-6.351 7.485-15.594 7.485-27.719 0-11.164-2.496-19.75-7.485-25.75-4.98-6-10.64-9-16.984-9-3.367 0-6.73.856-10.094 2.563-2.543 1.273-5.777 3.812-9.703 7.625zm0 0"/></symbol></defs><use x="76.371" xlink:href="#52024fe6a" y="169"/></svg>