<?xml version="1.0" encoding="UTF-8"?><svg enable-background="new 0 0 250 250" height="250px" viewBox="0 0 250 250" width="250px" x="0px" xml:space="preserve" xmlns="http://www.w3.org/2000/svg" xmlns:xlink="http://www.w3.org/1999/xlink" y="0px"><defs><symbol id="d179b69aa" overflow="visible"><path d="M1.625-87.219h41.031v3.531h-2.672c-2.468 0-4.355.606-5.656 1.813-1.305 1.2-1.953 2.813-1.953 4.844 0 2.219.664 4.855 2 7.906l20.281 48.172 20.375-49.984c1.457-3.551 2.188-6.25 2.188-8.094 0-.883-.258-1.614-.766-2.188-.7-.945-1.59-1.594-2.672-1.937-1.074-.352-3.261-.531-6.562-.531v-3.532h28.469v3.531c-3.305.25-5.59.918-6.86 2-2.219 1.899-4.215 5.07-5.984 9.516L51.89 2.672h-3.907L16.86-70.938c-1.398-3.425-2.73-5.882-4-7.374-1.273-1.489-2.89-2.743-4.859-3.766-1.086-.57-3.21-1.11-6.375-1.61zm0 0"/></symbol></defs><use x="76.371" xlink:href="#d179b69aa" y="169"/></svg>