<?xml version="1.0" encoding="UTF-8"?><svg enable-background="new 0 0 250 250" height="250px" viewBox="0 0 250 250" width="250px" x="0px" xml:space="preserve" xmlns="http://www.w3.org/2000/svg" xmlns:xlink="http://www.w3.org/1999/xlink" y="0px"><defs><symbol id="b3d9ea52a" overflow="visible"><path d="M32-71.219c6.344-6.351 10.086-10.004 11.234-10.953 2.852-2.406 5.93-4.273 9.235-5.61 3.3-1.331 6.566-2 9.797-2 5.457 0 10.156 1.59 14.093 4.766 3.938 3.168 6.57 7.766 7.907 13.797 6.539-7.613 12.062-12.61 16.562-14.984 4.508-2.383 9.145-3.578 13.906-3.578 4.633 0 8.743 1.195 12.329 3.578 3.582 2.375 6.425 6.262 8.53 11.656 1.395 3.68 2.095 9.453 2.095 17.328v37.516c0 5.46.41 9.203 1.234 11.234.633 1.399 1.805 2.59 3.516 3.578 1.718.98 4.515 1.47 8.39 1.47V0h-43.047v-3.422h1.813c3.738 0 6.66-.734 8.765-2.203 1.457-1.008 2.504-2.625 3.141-4.844.25-1.082.375-4.16.375-9.234V-57.22c0-7.113-.86-12.129-2.578-15.047-2.469-4.062-6.434-6.093-11.89-6.093-3.368 0-6.747.843-10.141 2.53-3.399 1.68-7.508 4.806-12.329 9.376l-.203 1.047.204 4.094v41.609c0 5.96.332 9.672 1 11.14.664 1.461 1.914 2.684 3.75 3.672 1.843.98 4.988 1.47 9.437 1.47V0H55.031v-3.422c4.82 0 8.14-.57 9.953-1.719C66.797-6.285 68.051-8 68.75-10.28c.313-1.082.469-4.223.469-9.422V-57.22c0-7.113-1.047-12.222-3.14-15.328-2.794-4.062-6.696-6.094-11.704-6.094-3.438 0-6.836.918-10.188 2.75-5.273 2.793-9.335 5.938-12.187 9.438v46.75c0 5.71.395 9.422 1.188 11.14.789 1.711 1.96 2.997 3.515 3.86 1.55.855 4.707 1.281 9.469 1.281V0H3.047v-3.422c4 0 6.789-.426 8.375-1.281 1.594-.863 2.8-2.227 3.625-4.094.82-1.875 1.234-5.508 1.234-10.906v-33.328c0-9.582-.289-15.774-.86-18.578-.437-2.094-1.136-3.536-2.093-4.329-.95-.789-2.25-1.187-3.906-1.187-1.774 0-3.899.477-6.375 1.422l-1.422-3.422 26.266-10.656H32zm0 0"/></symbol></defs><use x="49.35" xlink:href="#b3d9ea52a" y="169"/></svg>