<?xml version="1.0" encoding="UTF-8"?><svg enable-background="new 0 0 250 250" height="250px" viewBox="0 0 250 250" width="250px" x="0px" xml:space="preserve" xmlns="http://www.w3.org/2000/svg" xmlns:xlink="http://www.w3.org/1999/xlink" y="0px"><defs><symbol id="952a09cba" overflow="visible"><path d="M36.094-135.39v115.687c0 5.46.394 9.078 1.187 10.86.79 1.773 2.008 3.12 3.657 4.046 1.656.918 4.734 1.375 9.234 1.375V0H7.422v-3.422c4 0 6.726-.41 8.187-1.234 1.47-.832 2.614-2.196 3.438-4.094.82-1.906 1.234-5.555 1.234-10.953v-79.219c0-9.844-.226-15.89-.672-18.14-.437-2.258-1.152-3.801-2.14-4.626-.98-.82-2.23-1.234-3.75-1.234-1.656 0-3.758.508-6.297 1.516l-1.61-3.328 25.985-10.657zm0 0"/></symbol></defs><use x="97.979" xlink:href="#952a09cba" y="169"/></svg>