<?xml version="1.0" encoding="UTF-8"?><svg enable-background="new 0 0 250 250" height="250px" viewBox="0 0 250 250" width="250px" x="0px" xml:space="preserve" xmlns="http://www.w3.org/2000/svg" xmlns:xlink="http://www.w3.org/1999/xlink" y="0px"><defs><symbol id="76214d46a" overflow="visible"><path d="M29.422-31.797c-5.336-2.601-9.43-6.238-12.281-10.906-2.856-4.664-4.282-9.82-4.282-15.469 0-8.633 3.25-16.062 9.75-22.281 6.508-6.219 14.844-9.328 25-9.328 8.313 0 15.516 2.031 21.61 6.094h18.469c2.726 0 4.316.078 4.765.234.445.156.766.43.953.812.383.563.578 1.579.578 3.047 0 1.649-.164 2.79-.484 3.422-.188.313-.523.57-1 .766-.48.187-2.086.281-4.813.281H76.36c3.551 4.574 5.329 10.414 5.329 17.516 0 8.125-3.11 15.078-9.329 20.859-6.218 5.773-14.562 8.656-25.03 8.656-4.325 0-8.735-.633-13.235-1.906-2.805 2.418-4.696 4.531-5.672 6.344-.98 1.804-1.469 3.34-1.469 4.61 0 1.085.52 2.136 1.563 3.155 1.05 1.012 3.097 1.735 6.14 2.172 1.782.262 6.223.485 13.328.672 13.082.324 21.555.766 25.422 1.328 5.906.836 10.617 3.028 14.14 6.578C91.067-1.586 92.829 2.79 92.829 8c0 7.164-3.367 13.895-10.094 20.188-9.898 9.257-22.812 13.89-38.75 13.89-12.25 0-22.593-2.762-31.03-8.281-4.763-3.168-7.142-6.465-7.142-9.89 0-1.532.348-3.06 1.047-4.579 1.07-2.344 3.29-5.617 6.657-9.812.445-.563 3.687-3.993 9.718-10.282-3.304-1.968-5.636-3.726-7-5.28-1.367-1.552-2.047-3.313-2.047-5.282 0-2.219.899-4.817 2.704-7.797 1.812-2.988 5.988-7.21 12.53-12.672zm16.562-53.422c-4.699 0-8.636 1.875-11.812 5.625-3.168 3.742-4.75 9.485-4.75 17.235 0 10.023 2.156 17.797 6.469 23.328 3.3 4.187 7.492 6.281 12.578 6.281 4.82 0 8.785-1.805 11.89-5.422 3.114-3.625 4.672-9.305 4.672-17.047 0-10.093-2.187-18-6.562-23.718-3.242-4.188-7.403-6.282-12.485-6.282zM28.47 0c-2.98 3.238-5.235 6.254-6.766 9.047-1.523 2.789-2.281 5.363-2.281 7.719 0 3.039 1.844 5.703 5.531 7.984 6.344 3.938 15.516 5.906 27.516 5.906 11.426 0 19.851-2.015 25.281-6.047 5.426-4.03 8.14-8.328 8.14-12.89 0-3.305-1.62-5.653-4.859-7.047-3.304-1.399-9.844-2.227-19.625-2.484C47.125 1.812 36.145 1.081 28.47 0zm0 0"/></symbol></defs><use x="76.371" xlink:href="#76214d46a" y="169"/></svg>