<?xml version="1.0" encoding="UTF-8"?><svg enable-background="new 0 0 250 250" height="250px" viewBox="0 0 250 250" width="250px" x="0px" xml:space="preserve" xmlns="http://www.w3.org/2000/svg" xmlns:xlink="http://www.w3.org/1999/xlink" y="0px"><defs><symbol id="f32a0bf0a" overflow="visible"><path d="M31.89-135.39v86.827l22.188-20.28c4.695-4.313 7.426-7.04 8.188-8.188.507-.758.765-1.52.765-2.281 0-1.27-.527-2.364-1.578-3.282-1.043-.926-2.773-1.453-5.187-1.578v-3.047h37.906v3.047c-5.211.125-9.543.922-13 2.39-3.461 1.462-7.25 4.06-11.375 7.798L47.422-53.328l22.375 28.281c6.219 7.813 10.406 12.766 12.562 14.86 3.051 2.98 5.72 4.917 8 5.812 1.582.637 4.344.953 8.282.953V0H56.266v-3.422c2.414-.062 4.05-.426 4.906-1.094.863-.664 1.297-1.601 1.297-2.812 0-1.457-1.274-3.805-3.813-7.047L31.891-48.563v28.954c0 5.648.394 9.359 1.187 11.14.8 1.774 1.93 3.043 3.39 3.813 1.458.761 4.63 1.172 9.516 1.234V0H1.625v-3.422c4.438 0 7.766-.539 9.984-1.625 1.332-.695 2.348-1.773 3.047-3.234.957-2.094 1.438-5.711 1.438-10.86v-79.406c0-10.094-.227-16.266-.672-18.516-.438-2.257-1.168-3.816-2.188-4.671-1.011-.852-2.343-1.282-4-1.282-1.336 0-3.336.54-6 1.61l-1.609-3.328 25.89-10.657zm0 0"/></symbol></defs><use x="76.371" xlink:href="#f32a0bf0a" y="169"/></svg>