<?xml version="1.0" encoding="UTF-8"?><svg enable-background="new 0 0 250 250" height="250px" viewBox="0 0 250 250" width="250px" x="0px" xml:space="preserve" xmlns="http://www.w3.org/2000/svg" xmlns:xlink="http://www.w3.org/1999/xlink" y="0px"><defs><symbol id="c66f6228a" overflow="visible"><path d="M1.234-87.219h36.563v3.531c-3.367.25-5.574.856-6.625 1.813-1.043.95-1.563 2.309-1.563 4.078 0 1.969.54 4.352 1.625 7.14l18.657 50.188 18.765-40.843-4.953-12.86c-1.531-3.812-3.531-6.445-6-7.906-1.398-.883-4-1.422-7.812-1.61v-3.53h41.515v3.53c-4.574.188-7.812 1.012-9.719 2.47-1.261 1.023-1.89 2.64-1.89 4.859 0 1.273.25 2.574.75 3.906l19.812 50.078 18.375-48.281c1.27-3.426 1.907-6.156 1.907-8.188 0-1.195-.621-2.27-1.86-3.219-1.242-.957-3.668-1.5-7.281-1.624v-3.532h27.516v3.531c-5.524.825-9.586 4.57-12.188 11.235L97.688 2.672H93.78L71.984-53.031 46.563 2.672H43.03L15.047-70.656c-1.844-4.625-3.656-7.742-5.438-9.36-1.773-1.625-4.562-2.847-8.375-3.671zm0 0"/></symbol></defs><use x="54.764" xlink:href="#c66f6228a" y="169"/></svg>