<?xml version="1.0" encoding="UTF-8"?><svg enable-background="new 0 0 250 250" height="250px" viewBox="0 0 250 250" width="250px" x="0px" xml:space="preserve" xmlns="http://www.w3.org/2000/svg" xmlns:xlink="http://www.w3.org/1999/xlink" y="0px"><defs><symbol id="02c45110a" overflow="visible"><path d="M62.469-89.781v29.703h-3.157c-2.406-9.332-5.5-15.68-9.28-19.047-3.774-3.363-8.579-5.047-14.423-5.047-4.437 0-8.027 1.18-10.765 3.531-2.73 2.344-4.094 4.946-4.094 7.797 0 3.563 1.016 6.61 3.047 9.14 1.969 2.606 5.969 5.368 12 8.282l13.906 6.766c12.883 6.281 19.328 14.57 19.328 24.86 0 7.929-3 14.323-9 19.187-6 4.851-12.715 7.28-20.14 7.28-5.336 0-11.43-.952-18.282-2.858-2.093-.633-3.808-.954-5.14-.954-1.461 0-2.602.825-3.422 2.47h-3.14v-31.126h3.14c1.77 8.887 5.16 15.586 10.172 20.094 5.02 4.5 10.64 6.75 16.86 6.75 4.382 0 7.956-1.285 10.718-3.86 2.758-2.57 4.14-5.664 4.14-9.28 0-4.376-1.542-8.052-4.624-11.032-3.075-2.988-9.215-6.77-18.422-11.344-9.2-4.57-15.227-8.695-18.078-12.375-2.868-3.613-4.297-8.187-4.297-13.718 0-7.165 2.457-13.16 7.375-17.985 4.925-4.82 11.289-7.234 19.093-7.234 3.438 0 7.598.73 12.485 2.187 3.238.95 5.394 1.422 6.468 1.422 1.02 0 1.813-.219 2.376-.656.57-.445 1.238-1.43 2-2.953zm0 0"/></symbol></defs><use x="87.151" xlink:href="#02c45110a" y="169"/></svg>