<?xml version="1.0" encoding="UTF-8"?><svg enable-background="new 0 0 250 250" height="250px" viewBox="0 0 250 250" width="250px" x="0px" xml:space="preserve" xmlns="http://www.w3.org/2000/svg" xmlns:xlink="http://www.w3.org/1999/xlink" y="0px"><defs><symbol id="e59695bea" overflow="visible"><path d="M82.547-87.219v52.844c0 10.094.238 16.273.719 18.531.476 2.25 1.238 3.82 2.28 4.703 1.052.887 2.274 1.329 3.673 1.329 1.969 0 4.187-.536 6.656-1.61l1.344 3.328L71.125 2.672h-4.281v-18.485C59.352-7.687 53.64-2.57 49.704-.469c-3.938 2.094-8.095 3.14-12.47 3.14-4.898 0-9.136-1.413-12.718-4.233-3.586-2.833-6.075-6.47-7.47-10.907-1.398-4.445-2.093-10.734-2.093-18.86v-38.937c0-4.125-.45-6.976-1.344-8.562-.886-1.594-2.203-2.817-3.953-3.672-1.742-.863-4.898-1.258-9.469-1.188v-3.53H30.75v58.374c0 8.125 1.41 13.461 4.234 16 2.832 2.531 6.25 3.797 10.25 3.797 2.727 0 5.82-.851 9.282-2.562 3.457-1.72 7.566-4.989 12.328-9.813v-49.422c0-4.945-.906-8.289-2.719-10.031-1.813-1.75-5.574-2.688-11.281-2.813v-3.53zm0 0"/></symbol></defs><use x="76.371" xlink:href="#e59695bea" y="169"/></svg>