<?xml version="1.0" encoding="UTF-8"?><svg enable-background="new 0 0 250 250" height="250px" viewBox="0 0 250 250" width="250px" x="0px" xml:space="preserve" xmlns="http://www.w3.org/2000/svg" xmlns:xlink="http://www.w3.org/1999/xlink" y="0px"><defs><symbol id="1e35fb03a" overflow="visible"><path d="M28.188-135.484c2.726 0 5.039.953 6.937 2.859 1.906 1.898 2.86 4.21 2.86 6.938 0 2.667-.954 4.953-2.86 6.859-1.898 1.906-4.21 2.86-6.938 2.86-2.667 0-4.953-.954-6.859-2.86-1.906-1.906-2.86-4.192-2.86-6.86 0-2.726.954-5.039 2.86-6.937 1.906-1.906 4.192-2.86 6.86-2.86zm8.187 45.703V-2c0 14.914-3.18 25.988-9.531 33.219-6.344 7.238-14.594 10.86-24.75 10.86-5.77 0-10.051-1.048-12.844-3.142-2.8-2.093-4.203-4.25-4.203-6.468 0-2.219.781-4.125 2.344-5.719 1.554-1.586 3.375-2.375 5.468-2.375 1.649 0 3.329.41 5.047 1.234 1.086.446 3.16 2.051 6.235 4.813 3.082 2.758 5.671 4.14 7.765 4.14 1.52 0 3.008-.59 4.469-1.765 1.457-1.168 2.535-3.137 3.234-5.906.696-2.762 1.047-8.743 1.047-17.938v-62.078c0-9.582-.281-15.742-.843-18.484-.45-2.094-1.153-3.536-2.11-4.329-.95-.789-2.246-1.187-3.89-1.187-1.782 0-3.946.477-6.485 1.422L6-79.125l26.281-10.656zm0 0"/></symbol></defs><use x="97.979" xlink:href="#1e35fb03a" y="169"/></svg>