<?xml version="1.0" encoding="UTF-8"?><svg enable-background="new 0 0 250 250" height="250px" viewBox="0 0 250 250" width="250px" x="0px" xml:space="preserve" xmlns="http://www.w3.org/2000/svg" xmlns:xlink="http://www.w3.org/1999/xlink" y="0px"><defs><symbol id="cf689b83a" overflow="visible"><path d="M40.188-80.36v57.313c0 8.125.882 13.266 2.656 15.422 2.351 2.805 5.492 4.203 9.422 4.203h7.906V0H8.094v-3.422H12c2.54 0 4.86-.633 6.953-1.906 2.094-1.27 3.535-2.984 4.328-5.14.79-2.165 1.188-6.36 1.188-12.579v-57.312H7.516v-6.86h16.953v-5.719c0-8.687 1.394-16.046 4.187-22.078 2.79-6.03 7.055-10.898 12.797-14.609 5.75-3.719 12.211-5.578 19.39-5.578 6.665 0 12.79 2.156 18.376 6.469 3.676 2.855 5.515 6.062 5.515 9.625 0 1.906-.824 3.699-2.468 5.375-1.649 1.68-3.422 2.515-5.329 2.515-1.46 0-3-.52-4.624-1.562-1.618-1.051-3.602-3.305-5.954-6.766-2.343-3.457-4.5-5.789-6.468-7-1.97-1.195-4.157-1.797-6.563-1.797-2.93 0-5.406.778-7.437 2.328-2.032 1.555-3.493 3.965-4.375 7.235-.887 3.273-1.328 11.699-1.328 25.281v6.281h22.468v6.86zm0 0"/></symbol></defs><use x="92.612" xlink:href="#cf689b83a" y="169"/></svg>