<?xml version="1.0" encoding="UTF-8"?><svg enable-background="new 0 0 250 250" height="250px" viewBox="0 0 250 250" width="250px" x="0px" xml:space="preserve" xmlns="http://www.w3.org/2000/svg" xmlns:xlink="http://www.w3.org/1999/xlink" y="0px"><defs><symbol id="4490415ba" overflow="visible"><path d="M81.89-26.75L80.845 0H3.906v-3.422l57.89-77.125H33.235c-6.156 0-10.187.399-12.093 1.188-1.907.793-3.465 2.296-4.672 4.515-1.711 3.18-2.696 7.117-2.953 11.813H9.719l.562-24.188h73.125v3.531L24.953-6.374H56.75c6.664 0 11.188-.555 13.563-1.672 2.382-1.113 4.304-3.066 5.765-5.86 1.008-2.03 1.863-6.312 2.563-12.843zm0 0"/></symbol></defs><use x="81.832" xlink:href="#4490415ba" y="169"/></svg>