<?xml version="1.0" encoding="UTF-8"?><svg enable-background="new 0 0 250 250" height="250px" viewBox="0 0 250 250" width="250px" x="0px" xml:space="preserve" xmlns="http://www.w3.org/2000/svg" xmlns:xlink="http://www.w3.org/1999/xlink" y="0px"><defs><symbol id="37dce091a" overflow="visible"><path d="M31.703-135.39v63.78c7.05-7.738 12.64-12.703 16.766-14.89 4.125-2.188 8.25-3.281 12.375-3.281 4.945 0 9.195 1.367 12.75 4.094 3.562 2.73 6.195 7.011 7.906 12.843 1.207 4.063 1.813 11.492 1.813 22.281v30.86c0 5.523.44 9.297 1.328 11.328.632 1.523 1.71 2.73 3.234 3.625 1.531.887 4.328 1.328 8.39 1.328V0H53.423v-3.422h2c4.062 0 6.883-.617 8.469-1.86 1.582-1.238 2.691-3.066 3.328-5.484.187-1.007.281-3.988.281-8.937v-30.86c0-9.519-.492-15.769-1.469-18.75-.98-2.988-2.554-5.226-4.719-6.718-2.156-1.489-4.757-2.235-7.796-2.235-3.118 0-6.356.829-9.72 2.485-3.366 1.648-7.398 4.976-12.093 9.984v46.094c0 5.96.332 9.672 1 11.14.664 1.461 1.906 2.684 3.719 3.672 1.812.98 4.937 1.47 9.375 1.47V0H2.578v-3.422c3.863 0 6.91-.601 9.14-1.812 1.259-.633 2.27-1.836 3.032-3.61.77-1.781 1.156-5.398 1.156-10.86V-98.64c0-9.968-.242-16.093-.719-18.375-.48-2.289-1.214-3.847-2.203-4.671-.98-.82-2.293-1.235-3.937-1.235-1.336 0-3.492.508-6.469 1.516l-1.344-3.328 26.094-10.657zm0 0"/></symbol></defs><use x="76.371" xlink:href="#37dce091a" y="169"/></svg>