<?xml version="1.0" encoding="UTF-8"?><svg enable-background="new 0 0 250 250" height="250px" viewBox="0 0 250 250" width="250px" x="0px" xml:space="preserve" xmlns="http://www.w3.org/2000/svg" xmlns:xlink="http://www.w3.org/1999/xlink" y="0px"><defs><symbol id="9a0fcf0da" overflow="visible"><path d="M2.578-87.219H43.61v3.531c-2.605 0-4.433.446-5.484 1.329-1.043.886-1.563 2.058-1.563 3.515 0 1.531 1.11 3.883 3.329 7.047.695 1.024 1.742 2.61 3.14 4.766l6.188 9.906 7.156-9.906c4.563-6.281 6.844-10.25 6.844-11.906 0-1.333-.543-2.458-1.625-3.376-1.074-.914-2.813-1.374-5.219-1.374v-3.532h29.516v3.531c-3.118.188-5.813 1.043-8.094 2.563-3.117 2.156-7.371 6.855-12.766 14.094L53.125-51.125l21.719 31.219c5.332 7.687 9.14 12.308 11.422 13.86 2.28 1.554 5.234 2.429 8.859 2.624V0h-41.14v-3.422c2.85 0 5.078-.633 6.671-1.906 1.207-.895 1.813-2.07 1.813-3.531 0-1.457-2.032-5.141-6.094-11.047L43.609-38.563l-14 18.657c-4.312 5.781-6.468 9.215-6.468 10.297 0 1.523.71 2.902 2.14 4.14 1.426 1.23 3.567 1.914 6.422 2.047V0H3.234v-3.422c2.29-.32 4.29-1.117 6-2.39 2.414-1.833 6.477-6.532 12.188-14.094l18.281-24.282-16.562-23.984c-4.7-6.851-8.336-11.148-10.907-12.89-2.574-1.75-5.793-2.626-9.656-2.626zm0 0"/></symbol></defs><use x="76.371" xlink:href="#9a0fcf0da" y="169"/></svg>