<?xml version="1.0" encoding="UTF-8"?><svg enable-background="new 0 0 250 250" height="250px" viewBox="0 0 250 250" width="250px" x="0px" xml:space="preserve" xmlns="http://www.w3.org/2000/svg" xmlns:xlink="http://www.w3.org/1999/xlink" y="0px"><defs><symbol id="2a942b22a" overflow="visible"><path d="M67.703-9.813c-4.262 4.45-8.422 7.641-12.484 9.579-4.063 1.937-8.446 2.906-13.14 2.906-9.524 0-17.84-3.985-24.954-11.953C10.02-17.25 6.469-27.484 6.469-39.984c0-12.508 3.937-23.953 11.812-34.328 7.875-10.383 18-15.579 30.375-15.579 7.676 0 14.024 2.45 19.047 7.344V-98.64c0-9.968-.242-16.093-.719-18.375-.48-2.289-1.23-3.847-2.25-4.671-1.011-.82-2.277-1.235-3.796-1.235-1.649 0-3.836.508-6.563 1.516l-1.25-3.328 26-10.657h4.281v100.828c0 10.22.239 16.461.719 18.72.477 2.25 1.238 3.82 2.281 4.702 1.051.887 2.274 1.329 3.672 1.329 1.707 0 3.988-.536 6.844-1.61l1.047 3.328-25.89 10.766h-4.376zm0-6.656v-44.937c-.387-4.32-1.531-8.258-3.437-11.813-1.907-3.55-4.434-6.234-7.579-8.047-3.136-1.812-6.195-2.718-9.171-2.718-5.586 0-10.57 2.511-14.953 7.53-5.774 6.595-8.657 16.243-8.657 28.938 0 12.825 2.79 22.649 8.375 29.47 5.582 6.823 11.801 10.233 18.657 10.233 5.78 0 11.367-2.882 16.765-8.656zm0 0"/></symbol></defs><use x="76.371" xlink:href="#2a942b22a" y="169"/></svg>