<?xml version="1.0" encoding="UTF-8"?><svg enable-background="new 0 0 250 250" height="250px" viewBox="0 0 250 250" width="250px" x="0px" xml:space="preserve" xmlns="http://www.w3.org/2000/svg" xmlns:xlink="http://www.w3.org/1999/xlink" y="0px"><defs><symbol id="cbec39b6a" overflow="visible"><path d="M85.234-9.922c0 14.79-3.359 25.649-10.078 32.578-6.719 6.926-17.058 10.39-31.015 10.39-4.637 0-9.157-.327-13.563-.983a104.93 104.93 0 0 1-13-2.766v-15h.781c2.395.937 6.196 2.094 11.407 3.469 5.207 1.382 10.414 2.078 15.625 2.078 5 0 9.14-.602 12.422-1.797 3.28-1.2 5.832-2.867 7.656-5 1.82-2.031 3.125-4.48 3.906-7.344.781-2.867 1.172-6.066 1.172-9.61v-7.968c-4.43 3.543-8.664 6.188-12.703 7.938-4.032 1.742-9.172 2.609-15.422 2.609-10.418 0-18.688-3.758-24.813-11.281-6.117-7.532-9.172-18.145-9.172-31.844 0-7.5 1.051-13.969 3.157-19.406 2.113-5.446 4.992-10.149 8.64-14.11 3.383-3.695 7.5-6.57 12.344-8.625 4.844-2.062 9.66-3.094 14.453-3.094 5.051 0 9.282.512 12.688 1.532 3.414 1.011 7.023 2.558 10.828 4.64l.937-3.75h13.75zM70.547-23.984v-47.578c-3.906-1.77-7.543-3.032-10.906-3.782a45.42 45.42 0 0 0-10.032-1.14c-8.074 0-14.43 2.71-19.062 8.125-4.637 5.418-6.953 13.28-6.953 23.593 0 9.793 1.718 17.215 5.156 22.266 3.438 5.055 9.14 7.578 17.11 7.578 4.269 0 8.55-.816 12.843-2.453a46.697 46.697 0 0 0 11.844-6.61zm0 0"/></symbol></defs><use x="75.308" xlink:href="#cbec39b6a" y="169"/></svg>