<?xml version="1.0" encoding="UTF-8"?><svg enable-background="new 0 0 250 250" height="250px" viewBox="0 0 250 250" width="250px" x="0px" xml:space="preserve" xmlns="http://www.w3.org/2000/svg" xmlns:xlink="http://www.w3.org/1999/xlink" y="0px"><defs><symbol id="3e3a2707a" overflow="visible"><path d="M141.797 0h-14.688v-49.688c0-3.75-.171-7.367-.515-10.859-.336-3.488-1.047-6.273-2.14-8.36-1.2-2.238-2.919-3.929-5.157-5.077-2.242-1.145-5.469-1.72-9.688-1.72-4.117 0-8.23 1.032-12.343 3.095-4.118 2.054-8.23 4.668-12.344 7.843.156 1.2.285 2.594.39 4.188.102 1.586.157 3.156.157 4.719V0H70.78v-49.688c0-3.851-.172-7.507-.515-10.968-.336-3.469-1.047-6.242-2.141-8.328-1.2-2.239-2.918-3.914-5.156-5.032-2.242-1.125-5.469-1.687-9.688-1.687-4.011 0-8.039.992-12.078 2.969-4.031 1.98-8.055 4.507-12.062 7.578V0H14.453v-87.266h14.688v9.688c4.582-3.8 9.148-6.77 13.703-8.906 4.562-2.133 9.422-3.204 14.578-3.204 5.937 0 10.973 1.25 15.11 3.75 4.144 2.5 7.234 5.965 9.265 10.391 5.937-5 11.351-8.601 16.25-10.812 4.894-2.22 10.129-3.329 15.703-3.329 9.582 0 16.648 2.907 21.203 8.72 4.563 5.804 6.844 13.913 6.844 24.327zm0 0"/></symbol></defs><use x="47.424" xlink:href="#3e3a2707a" y="169"/></svg>