<?xml version="1.0" encoding="UTF-8"?><svg enable-background="new 0 0 250 250" height="250px" viewBox="0 0 250 250" width="250px" x="0px" xml:space="preserve" xmlns="http://www.w3.org/2000/svg" xmlns:xlink="http://www.w3.org/1999/xlink" y="0px"><defs><symbol id="e20484c9a" overflow="visible"><path d="M85.234 32.188H70.547V-9.844c-4.531 3.906-9.04 6.813-13.516 8.719C52.551.77 47.707 1.719 42.5 1.719c-10.367 0-18.637-3.992-24.813-11.985-6.167-8-9.25-19.03-9.25-33.093 0-7.5 1.079-14.125 3.235-19.875 2.164-5.758 5.02-10.594 8.562-14.5 3.438-3.801 7.473-6.743 12.11-8.829 4.633-2.082 9.531-3.124 14.687-3.124 4.688 0 8.836.523 12.453 1.562 3.625 1.043 7.313 2.578 11.063 4.61l.937-3.75h13.75zM70.547-22.188v-49.374c-4.063-1.82-7.656-3.098-10.781-3.829-3.125-.726-6.512-1.093-10.157-1.093-8.492 0-14.949 2.882-19.375 8.64-4.43 5.75-6.64 13.68-6.64 23.781 0 10.211 1.781 18.063 5.343 23.563 3.57 5.492 9.188 8.234 16.844 8.234 4.27 0 8.54-.921 12.813-2.765a53.786 53.786 0 0 0 11.953-7.156zm0 0"/></symbol></defs><use x="75.308" xlink:href="#e20484c9a" y="169"/></svg>