<?xml version="1.0" encoding="UTF-8"?><svg enable-background="new 0 0 250 250" height="250px" viewBox="0 0 250 250" width="250px" x="0px" xml:space="preserve" xmlns="http://www.w3.org/2000/svg" xmlns:xlink="http://www.w3.org/1999/xlink" y="0px"><defs><symbol id="448095b2a" overflow="visible"><path d="M91.25-44.297c0 7.293-1.031 13.856-3.094 19.688-2.054 5.836-4.824 10.73-8.312 14.687-3.7 4.117-7.762 7.203-12.188 9.266-4.43 2.05-9.297 3.078-14.61 3.078-4.948 0-9.273-.59-12.968-1.766-3.7-1.164-7.344-2.738-10.937-4.718L28.203 0h-13.75v-121.563h14.688v43.438c4.113-3.383 8.488-6.156 13.125-8.313 4.632-2.164 9.843-3.25 15.625-3.25 10.312 0 18.445 3.961 24.406 11.876 5.969 7.917 8.953 19.09 8.953 33.515zm-15.156.39c0-10.413-1.719-18.316-5.156-23.702-3.438-5.395-8.985-8.094-16.641-8.094-4.274 0-8.594.93-12.969 2.781a53.892 53.892 0 0 0-12.187 7.14v50c4.164 1.876 7.742 3.18 10.734 3.907 3 .73 6.398 1.094 10.203 1.094 8.125 0 14.488-2.664 19.094-8 4.613-5.344 6.922-13.719 6.922-25.125zm0 0"/></symbol></defs><use x="75.308" xlink:href="#448095b2a" y="169"/></svg>