<?xml version="1.0" encoding="UTF-8"?><svg enable-background="new 0 0 250 250" height="250px" viewBox="0 0 250 250" width="250px" x="0px" xml:space="preserve" xmlns="http://www.w3.org/2000/svg" xmlns:xlink="http://www.w3.org/1999/xlink" y="0px"><defs><symbol id="26b89e92a" overflow="visible"><path d="M61.406-107.344h-.781c-1.617-.469-3.727-.945-6.328-1.437-2.606-.5-4.899-.75-6.875-.75-6.305 0-10.875 1.398-13.719 4.187-2.836 2.781-4.25 7.82-4.25 15.11v2.968h26.485v12.344H29.922V0H15.234v-74.922H5.313v-12.344h9.921v-2.89c0-10.364 2.579-18.317 7.735-23.86 5.156-5.55 12.601-8.328 22.343-8.328 3.282 0 6.235.156 8.86.469 2.633.313 5.047.68 7.234 1.094zm0 0"/></symbol></defs><use x="96.961" xlink:href="#26b89e92a" y="169"/></svg>