<?xml version="1.0" encoding="UTF-8"?><svg enable-background="new 0 0 250 250" height="250px" viewBox="0 0 250 250" width="250px" x="0px" xml:space="preserve" xmlns="http://www.w3.org/2000/svg" xmlns:xlink="http://www.w3.org/1999/xlink" y="0px"><defs><symbol id="95677ad5a" overflow="visible"><path d="M41.64-101.875H25.079v-15.234h16.563zM40.704 2.109c0 10.207-2.605 17.914-7.812 23.125-5.211 5.207-12.188 7.813-20.938 7.813-2.086 0-4.836-.211-8.25-.625-3.406-.418-6.254-.938-8.547-1.563V16.875h.782c1.46.57 3.421 1.223 5.89 1.953 2.477.727 4.89 1.094 7.234 1.094 3.75 0 6.77-.524 9.063-1.563 2.29-1.043 4.008-2.605 5.156-4.687 1.145-2.086 1.883-4.602 2.219-7.547.344-2.938.516-6.516.516-10.734v-70.313H7.813v-12.344h32.89zm0 0"/></symbol></defs><use x="97.545" xlink:href="#95677ad5a" y="169"/></svg>