<?xml version="1.0" encoding="UTF-8"?><svg enable-background="new 0 0 250 250" height="250px" viewBox="0 0 250 250" width="250px" x="0px" xml:space="preserve" xmlns="http://www.w3.org/2000/svg" xmlns:xlink="http://www.w3.org/1999/xlink" y="0px"><defs><symbol id="2ccd06a2a" overflow="visible"><path d="M78.984-5.469C74.086-3.125 69.438-1.3 65.031 0c-4.398 1.3-9.07 1.953-14.015 1.953-6.305 0-12.086-.922-17.344-2.766-5.262-1.851-9.766-4.656-13.516-8.406-3.804-3.75-6.746-8.488-8.828-14.219-2.086-5.726-3.125-12.421-3.125-20.078 0-14.27 3.914-25.468 11.75-33.593 7.844-8.125 18.195-12.188 31.063-12.188 5 0 9.906.703 14.718 2.11 4.82 1.406 9.239 3.124 13.25 5.156v16.328h-.78c-4.481-3.488-9.106-6.172-13.876-8.047-4.762-1.875-9.406-2.813-13.937-2.813-8.336 0-14.914 2.805-19.735 8.407-4.812 5.594-7.218 13.808-7.218 24.64 0 10.524 2.351 18.61 7.062 24.266 4.719 5.648 11.348 8.469 19.89 8.469 2.97 0 5.989-.39 9.063-1.172 3.07-.781 5.832-1.797 8.281-3.047a67.823 67.823 0 0 0 6.016-3.469c1.875-1.226 3.36-2.285 4.453-3.172h.781zm0 0"/></symbol></defs><use x="83.447" xlink:href="#2ccd06a2a" y="169"/></svg>