<?xml version="1.0" encoding="UTF-8"?><svg enable-background="new 0 0 250 250" height="250px" viewBox="0 0 250 250" width="250px" x="0px" xml:space="preserve" xmlns="http://www.w3.org/2000/svg" xmlns:xlink="http://www.w3.org/1999/xlink" y="0px"><defs><symbol id="a78bcc8da" overflow="visible"><path d="M88.828-43.594c0 14.219-3.648 25.446-10.937 33.672-7.293 8.23-17.059 12.344-29.297 12.344-12.344 0-22.153-4.113-29.422-12.344-7.262-8.226-10.89-19.453-10.89-33.672 0-14.218 3.628-25.453 10.89-33.703 7.27-8.258 17.078-12.39 29.422-12.39 12.238 0 22.004 4.132 29.297 12.39 7.289 8.25 10.937 19.484 10.937 33.703zm-15.156 0c0-11.3-2.215-19.695-6.64-25.187-4.43-5.5-10.575-8.25-18.438-8.25-7.969 0-14.157 2.75-18.563 8.25-4.398 5.492-6.593 13.886-6.593 25.187 0 10.938 2.21 19.235 6.64 24.89 4.426 5.65 10.598 8.47 18.516 8.47 7.812 0 13.941-2.797 18.39-8.391 4.457-5.602 6.688-13.926 6.688-24.969zm0 0"/></symbol></defs><use x="76.593" xlink:href="#a78bcc8da" y="169"/></svg>