<?xml version="1.0" encoding="UTF-8"?><svg enable-background="new 0 0 250 250" height="250px" viewBox="0 0 250 250" width="250px" x="0px" xml:space="preserve" xmlns="http://www.w3.org/2000/svg" xmlns:xlink="http://www.w3.org/1999/xlink" y="0px"><defs><symbol id="027a9d38a" overflow="visible"><path d="M59.766-.781c-2.762.73-5.774 1.328-9.032 1.797-3.25.468-6.152.703-8.703.703-8.906 0-15.68-2.395-20.312-7.188-4.637-4.789-6.953-12.472-6.953-23.047v-46.406H4.844v-12.344h9.922v-25.078h14.687v25.078h30.313v12.344H29.453v39.766c0 4.586.102 8.168.313 10.75.207 2.574.937 4.98 2.187 7.218 1.145 2.086 2.719 3.61 4.719 4.579 2.008.96 5.07 1.437 9.187 1.437 2.395 0 4.895-.348 7.5-1.047 2.602-.707 4.477-1.297 5.625-1.765h.782zm0 0"/></symbol></defs><use x="93.573" xlink:href="#027a9d38a" y="169"/></svg>