<?xml version="1.0" encoding="UTF-8"?><svg enable-background="new 0 0 250 250" height="250px" viewBox="0 0 250 250" width="250px" x="0px" xml:space="preserve" xmlns="http://www.w3.org/2000/svg" xmlns:xlink="http://www.w3.org/1999/xlink" y="0px"><defs><symbol id="0d87a8b9a" overflow="visible"><path d="M85.234 0H70.547v-9.14c-4.219 3.648-8.621 6.484-13.203 8.515-4.586 2.031-9.559 3.047-14.922 3.047-10.418 0-18.688-4.008-24.813-12.031-6.117-8.02-9.172-19.141-9.172-33.36 0-7.394 1.051-13.984 3.157-19.765 2.113-5.782 4.969-10.703 8.562-14.766 3.54-3.957 7.664-6.977 12.375-9.063 4.719-2.082 9.602-3.124 14.657-3.124 4.582 0 8.644.484 12.187 1.453 3.54.96 7.266 2.453 11.172 4.484v-37.813h14.687zM70.547-21.484v-50.078c-3.961-1.77-7.5-2.993-10.625-3.672-3.125-.676-6.54-1.016-10.234-1.016-8.231 0-14.637 2.867-19.22 8.594-4.585 5.73-6.874 13.855-6.874 24.375 0 10.367 1.77 18.246 5.312 23.64 3.54 5.387 9.219 8.078 17.032 8.078 4.164 0 8.382-.921 12.656-2.765a53.786 53.786 0 0 0 11.953-7.156zm0 0"/></symbol></defs><use x="75.308" xlink:href="#0d87a8b9a" y="169"/></svg>