<?xml version="1.0" encoding="UTF-8"?><svg enable-background="new 0 0 250 250" height="250px" viewBox="0 0 250 250" width="250px" x="0px" xml:space="preserve" xmlns="http://www.w3.org/2000/svg" xmlns:xlink="http://www.w3.org/1999/xlink" y="0px"><defs><symbol id="bf192953a" overflow="visible"><path d="M86.797 0H72.109v-9.688C67.16-5.78 62.422-2.785 57.891-.703c-4.532 2.082-9.532 3.125-15 3.125-9.168 0-16.305-2.797-21.407-8.39-5.105-5.602-7.656-13.821-7.656-24.657v-56.64h14.688v49.687c0 4.43.207 8.219.625 11.375.414 3.148 1.3 5.84 2.656 8.078 1.406 2.293 3.226 3.96 5.469 5 2.238 1.043 5.492 1.563 9.765 1.563 3.801 0 7.953-.989 12.453-2.97a58.019 58.019 0 0 0 12.625-7.577v-65.157h14.688zm0 0"/></symbol></defs><use x="74.529" xlink:href="#bf192953a" y="169"/></svg>