<?xml version="1.0" encoding="UTF-8"?><svg enable-background="new 0 0 250 250" height="250px" viewBox="0 0 250 250" width="250px" x="0px" xml:space="preserve" xmlns="http://www.w3.org/2000/svg" xmlns:xlink="http://www.w3.org/1999/xlink" y="0px"><defs><symbol id="a9387184a" overflow="visible"><path d="M87.422 0H72.734v-49.688c0-4.007-.234-7.769-.703-11.28-.469-3.52-1.328-6.27-2.578-8.25-1.305-2.188-3.18-3.813-5.625-4.876-2.45-1.07-5.625-1.61-9.531-1.61-4.012 0-8.203.993-12.578 2.97-4.375 1.98-8.57 4.507-12.578 7.578V0H14.453v-87.266h14.688v9.688c4.582-3.8 9.32-6.77 14.218-8.906 4.895-2.133 9.922-3.204 15.078-3.204 9.426 0 16.614 2.84 21.563 8.516 4.945 5.68 7.422 13.856 7.422 24.531zm0 0"/></symbol></defs><use x="74.529" xlink:href="#a9387184a" y="169"/></svg>