<?xml version="1.0" encoding="UTF-8"?><svg enable-background="new 0 0 250 250" height="250px" viewBox="0 0 250 250" width="250px" x="0px" xml:space="preserve" xmlns="http://www.w3.org/2000/svg" xmlns:xlink="http://www.w3.org/1999/xlink" y="0px"><defs><symbol id="1d00392ba" overflow="visible"><path d="M91.25-44.688c0 7.086-1.016 13.56-3.047 19.422-2.031 5.856-4.898 10.813-8.594 14.875-3.437 3.856-7.492 6.84-12.156 8.954-4.656 2.101-9.59 3.156-14.797 3.156-4.531 0-8.636-.496-12.312-1.485-3.668-.988-7.403-2.523-11.203-4.609v36.563H14.453V-87.266h14.688v9.141c3.906-3.281 8.289-6.023 13.156-8.234 4.875-2.22 10.07-3.329 15.594-3.329 10.52 0 18.707 3.977 24.562 11.922 5.863 7.938 8.797 18.965 8.797 33.079zm-15.156.391c0-10.52-1.797-18.383-5.39-23.594-3.595-5.207-9.118-7.812-16.563-7.812-4.22 0-8.465.914-12.735 2.734-4.273 1.824-8.36 4.219-12.265 7.188v49.453c4.164 1.875 7.742 3.152 10.734 3.828 3 .68 6.398 1.016 10.203 1.016 8.176 0 14.555-2.758 19.14-8.282 4.583-5.52 6.876-13.695 6.876-24.53zm0 0"/></symbol></defs><use x="75.308" xlink:href="#1d00392ba" y="169"/></svg>