<?xml version="1.0" encoding="UTF-8"?><svg enable-background="new 0 0 250 250" height="250px" viewBox="0 0 250 250" width="250px" x="0px" xml:space="preserve" xmlns="http://www.w3.org/2000/svg" xmlns:xlink="http://www.w3.org/1999/xlink" y="0px"><defs><symbol id="8ed148c0a" overflow="visible"><path d="M68.906-71.25h-.781a53.153 53.153 0 0 0-6.375-1.125c-2.055-.238-4.484-.36-7.297-.36-4.531 0-8.906 1.008-13.125 3.016-4.219 2-8.281 4.59-12.187 7.766V0H14.453v-87.266h14.688v12.891c5.832-4.688 10.972-8.004 15.422-9.953 4.457-1.957 9.003-2.938 13.64-2.938 2.55 0 4.399.07 5.547.204 1.145.124 2.863.37 5.156.734zm0 0"/></symbol></defs><use x="90.963" xlink:href="#8ed148c0a" y="169"/></svg>