<?xml version="1.0" encoding="UTF-8"?><svg enable-background="new 0 0 250 250" height="250px" viewBox="0 0 250 250" width="250px" x="0px" xml:space="preserve" xmlns="http://www.w3.org/2000/svg" xmlns:xlink="http://www.w3.org/1999/xlink" y="0px"><defs><symbol id="8ce92baea" overflow="visible"><path d="M76.797-25.156c0 7.968-3.297 14.508-9.89 19.61C60.32-.442 51.327 2.108 39.921 2.108c-6.461 0-12.387-.765-17.781-2.296-5.387-1.54-9.903-3.223-13.547-5.047V-21.72h.781c4.633 3.492 9.79 6.266 15.469 8.328 5.676 2.055 11.117 3.079 16.328 3.079 6.457 0 11.508-1.04 15.156-3.126 3.645-2.082 5.469-5.363 5.469-9.843 0-3.438-.992-6.04-2.969-7.813-1.98-1.77-5.781-3.281-11.406-4.531-2.086-.469-4.809-1.016-8.172-1.64-3.355-.626-6.414-1.301-9.172-2.032-7.656-2.031-13.09-5.008-16.297-8.937-3.199-3.938-4.797-8.77-4.797-14.5 0-3.594.739-6.977 2.22-10.157 1.487-3.175 3.741-6.015 6.765-8.515 2.914-2.446 6.625-4.383 11.125-5.813 4.508-1.437 9.55-2.156 15.125-2.156 5.207 0 10.476.64 15.812 1.922 5.344 1.273 9.785 2.82 13.328 4.64v15.704h-.78c-3.75-2.758-8.31-5.086-13.673-6.985-5.367-1.906-10.625-2.86-15.781-2.86-5.367 0-9.898 1.032-13.594 3.095-3.699 2.054-5.547 5.109-5.547 9.171 0 3.594 1.118 6.305 3.36 8.126 2.187 1.824 5.726 3.308 10.625 4.453a218.91 218.91 0 0 0 9.093 1.875c3.364.625 6.165 1.199 8.407 1.718 6.82 1.563 12.082 4.246 15.781 8.047 3.695 3.856 5.547 8.961 5.547 15.313zm0 0"/></symbol></defs><use x="83.447" xlink:href="#8ce92baea" y="169"/></svg>